<svg width="59" height="56" viewBox="0 0 59 56" fill="none" xmlns="http://www.w3.org/2000/svg">
<path d="M40.7495 54.08L29.6895 38.96L18.6295 54.08L8.40945 46.52L19.4695 31.54L1.54945 25.8L5.46945 13.76L23.3895 19.5V1.02002H35.9895V19.64L53.9095 13.76L57.6895 25.8L40.0495 31.54L50.8295 46.66L40.7495 54.08Z" fill="white"/>
<path fill-rule="evenodd" clip-rule="evenodd" d="M40.534 55.48L52.2149 46.8815L41.6544 32.0692L58.9395 26.4447L54.5596 12.4941L36.9889 18.2594V0.0200195H22.3889V18.1297L4.82616 12.5041L0.286983 26.4459L17.8366 32.0672L7.01101 46.7298L18.8425 55.4819L29.6889 40.6538L40.534 55.48ZM29.6889 38.96L18.6289 54.08L8.40993 46.5208L8.40892 46.52L8.40992 46.5187L19.4689 31.54L1.54892 25.8L5.46892 13.76L23.3889 19.5V1.02002H35.9889V19.64L53.9089 13.76L57.6889 25.8L40.0489 31.54L50.8289 46.66L40.7489 54.08L29.6889 38.96Z" fill="#603DBD"/>
</svg>
