<svg width="92" height="43" viewBox="0 0 92 43" fill="none" xmlns="http://www.w3.org/2000/svg">
<path d="M13.2689 15.9773H9.56354V14.5496H18.47V15.9773H14.7646V26.4474H13.2689V15.9773ZM20.9365 25.1557H23.809V15.8413H20.9365V14.5496H28.1772V15.8413H25.3047V25.1557H28.1772V26.4474H20.9365V25.1557ZM35.5729 26.5834C34.6551 26.5834 33.8222 26.3568 33.0744 25.9035C32.3378 25.4503 31.7486 24.7704 31.3067 23.8639C30.8761 22.9461 30.6608 21.8243 30.6608 20.4985C30.6608 19.1727 30.8761 18.0566 31.3067 17.1501C31.7486 16.2323 32.3378 15.5467 33.0744 15.0935C33.8222 14.6402 34.6551 14.4136 35.5729 14.4136C36.6834 14.4136 37.6012 14.7422 38.3264 15.3994C39.063 16.0566 39.5672 16.9348 39.8392 18.0339L38.4284 18.4589C38.1565 17.575 37.7939 16.9178 37.3406 16.4872C36.8987 16.0566 36.3095 15.8413 35.5729 15.8413C34.5191 15.8413 33.6919 16.2266 33.0914 16.9971C32.5021 17.7563 32.2075 18.9234 32.2075 20.4985C32.2075 22.0736 32.5021 23.2463 33.0914 24.0169C33.6919 24.7761 34.5191 25.1557 35.5729 25.1557C36.3095 25.1557 36.8987 24.9404 37.3406 24.5098C37.7939 24.0792 38.1565 23.422 38.4284 22.5381L39.8392 22.9631C39.5672 24.0622 39.063 24.9404 38.3264 25.5976C37.6012 26.2548 36.6834 26.5834 35.5729 26.5834ZM41.4389 14.5496H42.9346V19.3257L47.4898 14.5496H49.4445L44.3114 19.9036L49.8184 26.4474H47.9147L42.9346 20.4815V26.4474H41.4389V14.5496ZM52.4549 14.5496H60.0016V15.9773H53.9507V19.3937H59.1517V20.8214H53.9507V25.0197H60.1716V26.4474H52.4549V14.5496ZM65.9695 15.9773H62.2642V14.5496H71.1706V15.9773H67.4653V26.4474H65.9695V15.9773ZM77.4275 26.5834C76.283 26.5834 75.3142 26.2831 74.521 25.6826C73.7278 25.0707 73.2179 24.1925 72.9913 23.048L74.385 22.5041C74.8496 24.2718 75.8638 25.1557 77.4275 25.1557C78.0621 25.1557 78.6116 24.98 79.0762 24.6288C79.5521 24.2775 79.7901 23.8129 79.7901 23.235C79.7901 22.6345 79.5861 22.1812 79.1782 21.8753C78.7816 21.5693 78.113 21.2974 77.1725 21.0594C76.1527 20.7988 75.3255 20.4078 74.691 19.8866C74.0564 19.354 73.7391 18.5892 73.7391 17.592C73.7391 17.0028 73.8808 16.4702 74.1641 15.9943C74.4587 15.507 74.8779 15.1218 75.4219 14.8385C75.9771 14.5552 76.6286 14.4136 77.3765 14.4136C78.3397 14.4136 79.1329 14.6572 79.7561 15.1444C80.3793 15.6317 80.8269 16.2379 81.0988 16.9631L79.7901 17.626C79.2688 16.4362 78.4643 15.8413 77.3765 15.8413C76.7193 15.8413 76.198 16.0056 75.8128 16.3342C75.4275 16.6515 75.2349 17.0991 75.2349 17.677C75.2349 18.0736 75.3482 18.3965 75.5748 18.6458C75.8014 18.8951 76.0961 19.0934 76.4587 19.2407C76.8326 19.3767 77.3425 19.5297 77.9884 19.6996C78.6909 19.8809 79.2745 20.0962 79.7391 20.3455C80.2037 20.5835 80.5776 20.9178 80.8609 21.3483C81.1442 21.7789 81.2858 22.3398 81.2858 23.0311C81.2858 23.7903 81.1102 24.4361 80.7589 24.9687C80.4076 25.5013 79.9374 25.9035 79.3482 26.1755C78.7589 26.4474 78.1187 26.5834 77.4275 26.5834Z" fill="#ffffff"/>
<rect x="1.24927" y="1.94897" width="88.997" height="39.997" stroke="white" stroke-width="2"/>
</svg>
