<svg width="116" height="23" viewBox="0 0 116 23" fill="none" xmlns="http://www.w3.org/2000/svg">
<path d="M0.94533 13.432L9.83224 22.3189C10.2642 22.7028 10.8266 22.907 11.4043 22.89C11.982 22.873 12.5313 22.6361 12.94 22.2275C13.3487 21.8188 13.5858 21.2693 13.6028 20.6916C13.6198 20.1139 13.4155 19.5517 13.0315 19.1197L4.14462 10.2328C2.10063 8.14437 -1.09866 11.3435 0.94533 13.432Z" fill="#D3FC66"/>
<path d="M30.3607 5.83426C31.8378 9.0035 32.5675 12.4697 32.4935 15.9655C32.5967 16.4787 32.8744 16.9404 33.2794 17.2721C33.6844 17.6038 34.1917 17.785 34.7153 17.785C35.2388 17.785 35.7462 17.6038 36.1512 17.2721C36.5562 16.9404 36.8338 16.4787 36.937 15.9655C36.9773 11.6818 36.0508 7.44432 34.2265 3.56833C32.9823 0.902256 29.0721 3.21262 30.2718 5.83426H30.3607Z" fill="#D3FC66"/>
<path d="M56.0449 2.27955V14.3659C56.1481 14.8791 56.4257 15.3409 56.8307 15.6726C57.2358 16.0043 57.7431 16.1854 58.2666 16.1854C58.7902 16.1854 59.2975 16.0043 59.7026 15.6726C60.1076 15.3409 60.3852 14.8791 60.4884 14.3659V2.27955C60.3852 1.76631 60.1076 1.30458 59.7026 0.972874C59.2975 0.64117 58.7902 0.460022 58.2666 0.460022C57.7431 0.460022 57.2358 0.64117 56.8307 0.972874C56.4257 1.30458 56.1481 1.76631 56.0449 2.27955Z" fill="#D3FC66"/>
<path d="M88.0816 1.7014L84.0825 16.9869C83.9234 17.5761 84.0049 18.2046 84.3091 18.7337C84.6132 19.2629 85.1151 19.6494 85.7043 19.8085C86.2935 19.9676 86.9219 19.8862 87.451 19.5821C87.9802 19.2779 88.3668 18.776 88.5259 18.1867C89.859 13.0767 91.2365 8.0112 92.5695 2.90122C92.6483 2.60946 92.6688 2.30513 92.63 2.00543C92.5911 1.70573 92.4935 1.41639 92.3429 1.15438C92.1923 0.892371 91.9916 0.662692 91.7522 0.478261C91.5128 0.29383 91.2394 0.158362 90.9477 0.0795869C90.6559 0.000811312 90.3514 -0.0197654 90.0517 0.0191077C89.752 0.0579808 89.463 0.155441 89.201 0.306045C88.939 0.456648 88.7091 0.657598 88.5247 0.897004C88.3403 1.13641 88.2048 1.40964 88.126 1.7014H88.0816Z" fill="#D3FC66"/>
<path d="M111.364 6.32353C110.937 9.70149 109.652 12.9137 107.632 15.6547C105.943 18.0097 109.898 20.0982 111.542 17.9209C114.001 14.5041 115.532 10.5084 115.985 6.32353C116.296 3.43529 111.542 3.43529 111.542 6.32353H111.364Z" fill="#D3FC66"/>
</svg>
