<svg width="116" height="23" viewBox="0 0 116 23" fill="none" xmlns="http://www.w3.org/2000/svg">
<path d="M0.94533 13.4316L9.83224 22.3185C10.2642 22.7024 10.8266 22.9067 11.4043 22.8897C11.982 22.8727 12.5313 22.6358 12.94 22.2271C13.3487 21.8185 13.5858 21.269 13.6028 20.6913C13.6198 20.1136 13.4155 19.5514 13.0315 19.1194L4.14462 10.2325C2.10063 8.14404 -1.09866 11.3432 0.94533 13.4316Z" fill="#603DBD"/>
<path d="M30.3607 5.8346C31.8378 9.00384 32.5675 12.47 32.4935 15.9658C32.5967 16.479 32.8744 16.9408 33.2794 17.2725C33.6844 17.6042 34.1917 17.7853 34.7153 17.7853C35.2388 17.7853 35.7462 17.6042 36.1512 17.2725C36.5562 16.9408 36.8338 16.479 36.937 15.9658C36.9773 11.6821 36.0508 7.44466 34.2265 3.56866C32.9823 0.902592 29.0721 3.21296 30.2718 5.8346H30.3607Z" fill="#603DBD"/>
<path d="M56.0449 2.28047V14.3668C56.1481 14.88 56.4257 15.3418 56.8307 15.6735C57.2358 16.0052 57.7431 16.1863 58.2666 16.1863C58.7902 16.1863 59.2975 16.0052 59.7026 15.6735C60.1076 15.3418 60.3852 14.88 60.4884 14.3668V2.28047C60.3852 1.76722 60.1076 1.30549 59.7026 0.97379C59.2975 0.642085 58.7902 0.460938 58.2666 0.460938C57.7431 0.460938 57.2358 0.642085 56.8307 0.97379C56.4257 1.30549 56.1481 1.76722 56.0449 2.28047Z" fill="#603DBD"/>
<path d="M88.0816 1.7014L84.0825 16.9869C83.9234 17.5761 84.0049 18.2046 84.3091 18.7337C84.6132 19.2629 85.1151 19.6494 85.7043 19.8085C86.2935 19.9676 86.9219 19.8862 87.451 19.5821C87.9802 19.2779 88.3668 18.776 88.5259 18.1867C89.859 13.0767 91.2365 8.0112 92.5695 2.90122C92.6483 2.60946 92.6688 2.30513 92.63 2.00543C92.5911 1.70573 92.4935 1.41639 92.3429 1.15438C92.1923 0.892371 91.9916 0.662692 91.7522 0.478261C91.5128 0.29383 91.2394 0.158362 90.9477 0.0795869C90.6559 0.000811312 90.3514 -0.0197654 90.0517 0.0191077C89.752 0.0579808 89.463 0.155441 89.201 0.306045C88.939 0.456648 88.7091 0.657598 88.5247 0.897004C88.3403 1.13641 88.2048 1.40964 88.126 1.7014H88.0816Z" fill="#603DBD"/>
<path d="M111.364 6.32439C110.937 9.70235 109.652 12.9146 107.632 15.6555C105.943 18.0106 109.898 20.099 111.542 17.9217C114.001 14.505 115.532 10.5093 115.985 6.32439C116.296 3.43614 111.542 3.43614 111.542 6.32439H111.364Z" fill="#603DBD"/>
</svg>
