<svg width="21" height="30" viewBox="0 0 21 30" fill="none" xmlns="http://www.w3.org/2000/svg">
<path fill-rule="evenodd" clip-rule="evenodd" d="M2.24982e-07 29.0625V3.75C2.24982e-07 2.75544 0.354129 1.80161 0.984482 1.09835C1.61483 0.395088 2.46978 0 3.36123 0L16.8062 0C17.6976 0 18.5526 0.395088 19.1829 1.09835C19.8133 1.80161 20.1674 2.75544 20.1674 3.75V29.0625C20.1675 29.2253 20.1296 29.3853 20.0574 29.5268C19.9853 29.6683 19.8813 29.7864 19.7558 29.8695C19.6303 29.9525 19.4876 29.9977 19.3417 30.0005C19.1958 30.0034 19.0517 29.9638 18.9237 29.8856L10.0837 24.5044L1.24366 29.8856C1.11564 29.9638 0.971595 30.0034 0.825695 30.0005C0.679794 29.9977 0.537069 29.9525 0.411569 29.8695C0.286069 29.7864 0.182119 29.6683 0.109954 29.5268C0.0377878 29.3853 -0.000106541 29.2253 2.24982e-07 29.0625ZM14.8802 10.9763C15.038 10.8002 15.1266 10.5615 15.1266 10.3125C15.1266 10.0635 15.038 9.82479 14.8802 9.64875C14.7224 9.47271 14.5084 9.37382 14.2852 9.37382C14.0621 9.37382 13.8481 9.47271 13.6903 9.64875L9.24339 14.6119L7.3174 12.4612C7.23927 12.3741 7.14652 12.3049 7.04444 12.2578C6.94236 12.2106 6.83295 12.1863 6.72246 12.1863C6.61197 12.1863 6.50256 12.2106 6.40048 12.2578C6.2984 12.3049 6.20565 12.3741 6.12752 12.4612C6.0494 12.5484 5.98742 12.6519 5.94514 12.7658C5.90286 12.8797 5.88109 13.0017 5.88109 13.125C5.88109 13.2483 5.90286 13.3703 5.94514 13.4842C5.98742 13.5981 6.0494 13.7016 6.12752 13.7888L8.64845 16.6013C8.7265 16.6886 8.81923 16.7578 8.92132 16.8051C9.02341 16.8523 9.13286 16.8767 9.24339 16.8767C9.35392 16.8767 9.46336 16.8523 9.56545 16.8051C9.66754 16.7578 9.76027 16.6886 9.83832 16.6013L14.8802 10.9763Z" fill="#603DBD"/>
</svg>
