<svg width="36" height="35" viewBox="0 0 36 35" fill="none" xmlns="http://www.w3.org/2000/svg">
<g clip-path="url(#clip0)">
<path d="M35.1416 17.6072C35.1416 7.88155 27.306 -0.00219727 17.6416 -0.00219727C7.97289 -9.76552e-06 0.137268 7.88155 0.137268 17.6094C0.137268 26.3966 6.53789 33.6809 14.9029 35.0022V22.6975H10.4623V17.6094H14.9073V13.7266C14.9073 9.31437 17.5213 6.87749 21.5179 6.87749C23.4341 6.87749 25.4357 7.22093 25.4357 7.22093V11.5522H23.2285C21.0563 11.5522 20.3782 12.9106 20.3782 14.3041V17.6072H25.2301L24.4557 22.6953H20.376V35C28.741 33.6787 35.1416 26.3944 35.1416 17.6072Z" fill="white"/>
</g>
<defs>
<clipPath id="clip0">
<rect width="35" height="35" fill="white" transform="translate(0.141647)"/>
</clipPath>
</defs>
</svg>
