<svg width="38" height="37" viewBox="0 0 38 37" fill="none" xmlns="http://www.w3.org/2000/svg">
<path fill-rule="evenodd" clip-rule="evenodd" d="M1.90408 4.37534C1.90408 3.62382 2.20262 2.90309 2.73402 2.37169C3.26542 1.84029 3.98615 1.54175 4.73767 1.54175H32.9841C33.3565 1.54114 33.7254 1.614 34.0696 1.75615C34.4139 1.89829 34.7267 2.10694 34.9902 2.37015C35.2537 2.63335 35.4627 2.94594 35.6052 3.29002C35.7477 3.6341 35.821 4.00291 35.8207 4.37534V32.6217C35.8212 32.9943 35.7481 33.3632 35.6058 33.7074C35.4635 34.0517 35.2547 34.3645 34.9914 34.6279C34.728 34.8914 34.4153 35.1004 34.0712 35.2429C33.727 35.3854 33.3581 35.4586 32.9856 35.4584H4.73767C4.36543 35.4584 3.99683 35.3851 3.65295 35.2426C3.30906 35.1001 2.99662 34.8912 2.73348 34.6279C2.47033 34.3646 2.26164 34.0521 2.11933 33.7081C1.97702 33.3642 1.90388 32.9955 1.90408 32.6233V4.37534ZM15.3289 14.4733H19.9215V16.7796C20.5845 15.4538 22.2803 14.2605 24.8287 14.2605C29.7142 14.2605 30.872 16.9014 30.872 21.7468V30.7224H25.9279V22.8507C25.9279 20.0911 25.265 18.534 23.5815 18.534C21.2458 18.534 20.2746 20.2129 20.2746 22.8507V30.7224H15.3289V14.4733ZM6.84975 30.5112H11.7954V14.2605H6.84975V30.5097V30.5112ZM12.503 8.96025C12.5124 9.38371 12.437 9.80476 12.2814 10.1987C12.1258 10.5926 11.8931 10.9515 11.5969 11.2543C11.3007 11.5571 10.947 11.7976 10.5566 11.9619C10.1662 12.1261 9.74691 12.2107 9.32335 12.2107C8.8998 12.2107 8.48051 12.1261 8.09009 11.9619C7.69967 11.7976 7.34599 11.5571 7.04981 11.2543C6.75363 10.9515 6.5209 10.5926 6.3653 10.1987C6.20969 9.80476 6.13434 9.38371 6.14367 8.96025C6.16197 8.12907 6.50501 7.3381 7.09932 6.75673C7.69364 6.17536 8.49197 5.84981 9.32335 5.84981C10.1547 5.84981 10.9531 6.17536 11.5474 6.75673C12.1417 7.3381 12.4847 8.12907 12.503 8.96025V8.96025Z" fill="white"/>
</svg>
