<svg width="38" height="37" viewBox="0 0 38 37" fill="none" xmlns="http://www.w3.org/2000/svg">
<g clip-path="url(#clip0)">
<path d="M21.7176 18.1908L17.5625 16.252C17.1999 16.0836 16.902 16.2723 16.902 16.6738V20.3257C16.902 20.7271 17.1999 20.9158 17.5625 20.7475L21.7157 18.8087C22.0802 18.6385 22.0802 18.361 21.7176 18.1908ZM18.752 0.739746C8.94334 0.739746 0.992035 8.69105 0.992035 18.4997C0.992035 28.3084 8.94334 36.2597 18.752 36.2597C28.5607 36.2597 36.512 28.3084 36.512 18.4997C36.512 8.69105 28.5607 0.739746 18.752 0.739746ZM18.752 25.7147C9.66114 25.7147 9.50203 24.8952 9.50203 18.4997C9.50203 12.1043 9.66114 11.2847 18.752 11.2847C27.8429 11.2847 28.002 12.1043 28.002 18.4997C28.002 24.8952 27.8429 25.7147 18.752 25.7147Z" fill="white"/>
</g>
<defs>
<clipPath id="clip0">
<rect width="37" height="37" fill="white" transform="translate(0.252045)"/>
</clipPath>
</defs>
</svg>
