<svg width="112" height="112" viewBox="0 0 112 112" fill="none" xmlns="http://www.w3.org/2000/svg">
<path d="M0 72.7412C0.86 70.6212 2.42002 69.8612 4.71002 69.8712C18.14 69.9412 31.56 69.8712 44.99 69.9412C45.687 69.967 46.3512 70.244 46.86 70.7212C47.0102 70.907 47.1163 71.1244 47.1703 71.357C47.2243 71.5897 47.2249 71.8316 47.1719 72.0646C47.119 72.2975 47.0139 72.5154 46.8646 72.7019C46.7153 72.8884 46.5257 73.0386 46.31 73.1412C43.07 75.1412 41.88 78.0112 41.9 81.6812C41.97 90.3412 41.9 99.0012 41.9 107.681C41.9 109.681 41.3 111.051 39.47 111.841H2.83002C2.18246 111.601 1.59436 111.224 1.10596 110.735C0.61755 110.247 0.240323 109.659 0 109.011V72.7412ZM40.39 73.3912H39.52C27.94 73.3912 16.37 73.3912 4.79999 73.3912C3.73999 73.3912 3.46003 73.6812 3.47003 74.7312C3.47003 85.5045 3.47003 96.2745 3.47003 107.041C3.47003 108.041 3.74999 108.381 4.79999 108.381C15.61 108.381 26.41 108.381 37.22 108.381H38.43V107.041C38.43 98.2279 38.43 89.4212 38.43 80.6212C38.3835 79.9342 38.434 79.2441 38.58 78.5712C39.12 76.8112 39.77 75.1412 40.39 73.3912Z" fill="#603DBD"/>
<path d="M54.0904 97.8312V74.5212C52.7004 74.4112 50.9204 74.9912 50.6904 72.8012C50.5704 71.6312 51.3404 71.2212 54.0704 70.8012V57.7512H35.9304C36.0504 59.8512 36.1504 61.9112 36.2804 63.9612C36.3704 65.4212 35.8404 66.2812 34.7304 66.3812C33.6204 66.4812 32.8504 65.6212 32.7304 64.1612C32.5904 62.0312 32.4204 59.9112 32.2604 57.7312H13.9504C14.2304 59.8212 14.5004 61.8612 14.7904 63.8912C14.9167 64.3104 14.902 64.7595 14.7484 65.1696C14.5949 65.5797 14.311 65.928 13.9404 66.1612C13.6104 66.3689 13.2159 66.449 12.8311 66.3864C12.4462 66.3238 12.0975 66.1228 11.8504 65.8212C11.5066 65.3589 11.2801 64.8202 11.1904 64.2512C10.445 60.4256 10.2263 56.516 10.5404 52.6312C11.1044 44.0197 14.1736 35.761 19.3704 28.8712C22.9451 23.9849 27.4748 19.8753 32.6848 16.7915C37.8949 13.7078 43.6769 11.714 49.6804 10.9312C54.6666 10.1955 59.7431 10.3376 64.6804 11.3512C66.0504 11.6312 66.6204 12.3512 66.4104 13.5112C66.2004 14.6712 65.2604 15.0612 63.9204 14.8212C63.2104 14.7012 62.5004 14.5312 61.7804 14.4512C60.4804 14.3012 59.1804 14.1912 57.7804 14.0612V37.3012C59.1304 37.4112 61.0604 36.8312 61.1104 39.0112C61.1604 41.1912 59.1904 40.7112 57.7704 41.0112V54.1212H75.9104C75.7804 51.9612 75.6804 49.8412 75.5204 47.7112C75.4204 46.3712 75.9504 45.5112 77.0504 45.3812C78.1504 45.2512 78.9904 46.0412 79.0504 47.3812C79.1904 49.6012 79.3404 51.8112 79.4904 54.0912H97.9004C97.6204 52.0912 97.3304 50.1512 97.0904 48.1912C96.9754 47.627 96.9754 47.0454 97.0904 46.4812C97.2045 46.1072 97.4548 45.7897 97.7919 45.5915C98.129 45.3934 98.5282 45.329 98.9104 45.4112C99.3126 45.4409 99.6909 45.6135 99.977 45.8977C100.263 46.182 100.438 46.5592 100.47 46.9612C101.279 50.8457 101.551 54.8227 101.28 58.7812C100.845 66.6375 98.3143 74.2339 93.9504 80.7812C90.5648 86.0414 86.1136 90.5331 80.8841 93.966C75.6546 97.3989 69.7632 99.6968 63.5904 100.711C58.2975 101.64 52.8833 101.64 47.5904 100.711C47.3704 100.711 47.1604 100.611 46.9504 100.551C46.716 100.518 46.491 100.437 46.2894 100.313C46.0879 100.189 45.914 100.025 45.7788 99.8303C45.6437 99.636 45.5501 99.4159 45.5039 99.1837C45.4577 98.9516 45.4599 98.7124 45.5104 98.4812C45.558 98.2492 45.651 98.029 45.7839 97.833C45.9168 97.6371 46.0871 97.4693 46.2849 97.3392C46.4828 97.2092 46.7044 97.1194 46.937 97.0752C47.1696 97.0309 47.4086 97.0329 47.6404 97.0812L53.0404 97.8112C53.3204 97.7912 53.6804 97.8012 54.0904 97.8312ZM87.5904 83.3312C93.8074 76.2073 97.412 67.178 97.8104 57.7312H79.8104C79.0204 63.9012 78.2404 70.0012 77.4804 75.9912C80.6804 78.3512 84.0804 80.8012 87.5904 83.3012V83.3312ZM14.0504 54.1212H32.0504L34.3904 35.8712L24.2704 28.5212C18.0423 35.6383 14.436 44.6716 14.0504 54.1212ZM54.0504 54.1212V40.9212C48.5462 40.7076 43.1258 39.5016 38.0504 37.3612C36.7192 42.8501 36.0214 48.4734 35.9704 54.1212H54.0504ZM75.7004 57.7512H57.7004V70.7512C60.4604 71.1712 63.2104 71.4412 65.8804 72.0412C68.5504 72.6412 71.1304 73.5712 73.7504 74.3512C75.1004 68.7612 76.0804 60.6812 75.7204 57.7512H75.7004ZM54.0904 37.4012V14.2312C51.4306 14.8615 49.035 16.3093 47.2404 18.3712C43.4604 22.3712 41.2404 27.2512 39.5104 32.3712C39.3404 32.8712 39.2004 33.3712 39.0404 33.9112C43.7997 35.9903 48.9018 37.1734 54.0904 37.4012ZM57.7104 74.4612V97.6212C60.3723 96.9959 62.7693 95.5472 64.5604 93.4812C68.3404 89.4812 70.5604 84.6012 72.2904 79.4812C72.4604 78.9812 72.6004 78.4812 72.7704 77.9312C68.0064 75.8586 62.901 74.6823 57.7104 74.4612ZM35.6204 32.4612C37.6904 26.0112 40.3504 20.3212 45.0104 15.4612C38.1197 17.3303 31.8185 20.9232 26.7004 25.9012L35.6204 32.4612ZM76.1804 79.3312C74.0804 85.7912 71.4404 91.4812 66.7504 96.3312C73.656 94.4592 79.9712 90.8595 85.1004 85.8712L76.1804 79.3312Z" fill="#603DBD"/>
<path d="M87.3203 41.9513C80.5603 41.9513 73.7903 41.9513 67.0303 41.9513C65.9603 41.9513 65.0303 41.8313 64.6803 40.6713C64.3303 39.5113 65.0503 38.9513 65.9103 38.3913C67.1652 37.6033 68.1889 36.4969 68.8774 35.1848C69.566 33.8728 69.8948 32.4017 69.8303 30.9213C69.8303 21.8747 69.8303 12.818 69.8303 3.75133C69.8303 1.26133 71.0703 0.0213353 73.5803 0.0213353H107.58C108.135 -0.0381396 108.697 0.0271105 109.224 0.21233C109.75 0.397549 110.229 0.698061 110.625 1.09192C111.021 1.48578 111.324 1.96306 111.511 2.4889C111.699 3.01473 111.767 3.57587 111.71 4.13134C111.71 15.3713 111.71 26.608 111.71 37.8413C111.71 40.4513 110.2 41.9413 107.57 41.9413L87.3203 41.9513ZM71.3703 38.4613H72.3203C83.887 38.4613 95.4603 38.4613 107.04 38.4613C108.09 38.4613 108.38 38.1813 108.38 37.1313C108.34 26.3647 108.34 15.5947 108.38 4.82133C108.38 3.82133 108.11 3.48133 107.06 3.48133C96.2503 3.48133 85.4403 3.48133 74.6303 3.48133H73.4203V4.82133C73.4203 13.6347 73.4203 22.4413 73.4203 31.2413C73.4681 31.9321 73.4142 32.6262 73.2603 33.3013C72.6803 35.0413 72.0303 36.7113 71.4103 38.4613H71.3703Z" fill="#603DBD"/>
<path d="M40.39 73.3913C39.77 75.1413 39.12 76.8113 38.59 78.5213C38.4439 79.1942 38.3934 79.8843 38.4399 80.5713C38.4399 89.3846 38.4399 98.1913 38.4399 106.991V108.301H37.22C26.41 108.301 15.6099 108.301 4.79993 108.301C3.74993 108.301 3.45997 108.001 3.46997 106.961C3.46997 96.1946 3.46997 85.4246 3.46997 74.6513C3.46997 73.6513 3.73993 73.3113 4.79993 73.3113C16.3699 73.3113 27.94 73.3113 39.52 73.3113L40.39 73.3913ZM21.07 83.8813C18.24 83.8813 15.4 83.8813 12.57 83.8813C11.1899 83.8813 10.4499 84.5213 10.4799 85.6713C10.5099 86.8213 11.2399 87.3713 12.5599 87.3713H29.32C30.6999 87.3713 31.44 86.7213 31.41 85.5713C31.38 84.4213 30.65 83.8813 29.33 83.8813C26.6 83.8713 23.84 83.8813 21.07 83.8813ZM17.41 97.8813H22.53C22.7702 97.8995 23.0117 97.8679 23.2391 97.7884C23.4666 97.709 23.6752 97.5834 23.8519 97.4196C24.0286 97.2558 24.1696 97.0573 24.266 96.8364C24.3624 96.6156 24.4121 96.3772 24.4121 96.1363C24.4121 95.8953 24.3624 95.657 24.266 95.4361C24.1696 95.2153 24.0286 95.0168 23.8519 94.853C23.6752 94.6891 23.4666 94.5636 23.2391 94.4841C23.0117 94.4047 22.7702 94.3731 22.53 94.3913H12.4C12.1597 94.3731 11.9183 94.4047 11.6908 94.4841C11.4633 94.5636 11.2546 94.6891 11.0779 94.853C10.9012 95.0168 10.7603 95.2153 10.6639 95.4361C10.5675 95.657 10.5178 95.8953 10.5178 96.1363C10.5178 96.3772 10.5675 96.6156 10.6639 96.8364C10.7603 97.0573 10.9012 97.2558 11.0779 97.4196C11.2546 97.5834 11.4633 97.709 11.6908 97.7884C11.9183 97.8679 12.1597 97.8995 12.4 97.8813H17.41Z" fill="#D3FC66"/>
<path d="M35.6202 32.5012L26.7002 25.9112C31.8183 20.9332 38.1195 17.3403 45.0102 15.4712C40.3202 20.3612 37.6902 26.0512 35.6202 32.5012Z" fill="#D3FC66"/>
<path d="M71.4102 38.4613C72.0302 36.7113 72.6801 35.0413 73.2001 33.3413C73.3387 32.6707 73.3791 31.9835 73.3201 31.3013C73.3201 22.5013 73.3201 13.6946 73.3201 4.88126V3.54126H74.5302C85.3402 3.54126 96.1501 3.54126 106.96 3.54126C107.96 3.54126 108.29 3.84126 108.28 4.88126C108.28 15.6479 108.28 26.4179 108.28 37.1913C108.28 38.2413 107.99 38.5313 106.94 38.5213C95.3735 38.5213 83.8002 38.5213 72.2202 38.5213L71.4102 38.4613ZM90.9501 14.0113C88.1201 14.0113 85.2801 14.0113 82.4501 14.0113C81.0701 14.0113 80.3301 14.6613 80.3601 15.8013C80.3901 16.9413 81.1201 17.5013 82.4401 17.5013H99.2301C100.61 17.5013 101.35 16.8513 101.32 15.7013C101.29 14.5513 100.56 14.0113 99.2401 14.0113C96.4801 14.0013 93.7101 14.0113 90.9501 14.0113ZM89.0901 28.0113H95.8502C97.1202 28.0113 97.8502 27.3213 97.8502 26.2113C97.8502 25.1013 97.1002 24.5213 95.8502 24.5213H82.3201C81.0401 24.5213 80.3201 25.2013 80.3201 26.3113C80.3201 27.4213 81.0701 28.0013 82.3201 28.0113H89.0901Z" fill="#D3FC66"/>
<path d="M21.0702 83.8812C23.8402 83.8812 26.6002 83.8812 29.3602 83.8812C30.6802 83.8812 31.4102 84.4912 31.4402 85.5712C31.4702 86.6512 30.7302 87.3712 29.3502 87.3712H12.5602C11.2402 87.3712 10.5602 86.7611 10.4802 85.6711C10.4002 84.5811 11.1902 83.8812 12.5702 83.8812C15.4002 83.8712 18.2402 83.8812 21.0702 83.8812Z" fill="#603DBD"/>
<path d="M17.4095 97.8512H12.4095C12.1693 97.8694 11.9278 97.8378 11.7003 97.7584C11.4728 97.6789 11.2642 97.5533 11.0875 97.3895C10.9108 97.2257 10.7699 97.0272 10.6735 96.8063C10.5771 96.5855 10.5273 96.3471 10.5273 96.1062C10.5273 95.8652 10.5771 95.6269 10.6735 95.4061C10.7699 95.1852 10.9108 94.9867 11.0875 94.8229C11.2642 94.6591 11.4728 94.5335 11.7003 94.4541C11.9278 94.3746 12.1693 94.343 12.4095 94.3612H22.5395C22.7798 94.343 23.0212 94.3746 23.2487 94.4541C23.4762 94.5335 23.6848 94.6591 23.8615 94.8229C24.0382 94.9867 24.1792 95.1852 24.2756 95.4061C24.372 95.6269 24.4217 95.8652 24.4217 96.1062C24.4217 96.3471 24.372 96.5855 24.2756 96.8063C24.1792 97.0272 24.0382 97.2257 23.8615 97.3895C23.6848 97.5533 23.4762 97.6789 23.2487 97.7584C23.0212 97.8378 22.7798 97.8694 22.5395 97.8512H17.4095Z" fill="#603DBD"/>
<path d="M90.9501 14.0113C93.7101 14.0113 96.48 14.0113 99.24 14.0113C100.56 14.0113 101.29 14.6113 101.32 15.7013C101.35 16.7913 100.61 17.5013 99.23 17.5013H82.4401C81.1201 17.5013 80.44 16.8913 80.36 15.8013C80.28 14.7113 81.0701 14.0113 82.4501 14.0113C85.3201 14.0013 88.1201 14.0113 90.9501 14.0113Z" fill="#603DBD"/>
<path d="M89.0897 27.9812H82.3197C81.0997 27.9812 80.3797 27.3312 80.3197 26.2812C80.2597 25.2312 81.0197 24.4912 82.3197 24.4912H95.8297C97.0597 24.4912 97.8297 25.1312 97.8297 26.1812C97.8297 27.2312 97.1197 27.9712 95.8297 27.9812H89.0897Z" fill="#603DBD"/>
</svg>
