<svg width="101" height="100" viewBox="0 0 101 100" fill="none" xmlns="http://www.w3.org/2000/svg">
<path d="M79.8379 48.5192C81.1782 48.3544 82.5919 48.2537 84.0148 47.9882C94.7552 45.947 102.127 34.8526 99.8684 24.1884C99.3532 21.5539 98.3194 19.0473 96.8269 16.8135C95.3343 14.5797 93.4126 12.6631 91.1727 11.1743C88.9328 9.68562 86.4193 8.65437 83.7773 8.14014C81.1353 7.62592 78.4173 7.63894 75.7804 8.17847C65.0859 10.1923 57.6869 21.2409 59.8717 31.8593C60.7725 36.6582 63.3803 40.9716 67.2156 44.0063C67.8031 44.4823 67.8582 44.8668 67.4084 45.352C66.8415 46.0137 66.2044 46.6122 65.5081 47.137C64.021 48.1347 63.9751 49.4437 65.5632 50.2859C67.0813 51.2089 68.847 51.6451 70.6217 51.5354C72.3964 51.4258 74.0945 50.7755 75.4867 49.6725C76.8912 48.6565 78.1121 48.0615 79.8379 48.5192Z" fill="#D3FC66"/>
<path d="M0.0275385 6.21953C0.593365 4.94135 1.27229 3.71601 2.05628 2.55803C2.72493 1.72832 3.57836 1.06548 4.54881 0.622154C5.51926 0.178826 6.58002 -0.0327886 7.64682 0.00411738H48.7818C49.7876 0.00291272 50.7837 0.199563 51.7131 0.582793C52.6425 0.966024 53.487 1.52831 54.1981 2.23746C54.9093 2.94661 55.4732 3.78867 55.8575 4.71544C56.2418 5.64222 56.439 6.6355 56.4378 7.63838C56.4378 35.8625 56.4378 64.0836 56.4378 92.3017C56.4428 93.9599 55.9088 95.575 54.9158 96.9051C53.9228 98.2352 52.5244 99.2087 50.9299 99.6796C50.6645 99.773 50.404 99.8799 50.1496 100H6.26984C5.94854 99.8718 5.62725 99.7345 5.29678 99.6247C4.22629 99.2741 3.24625 98.693 2.42608 97.9226C1.6059 97.1523 0.965666 96.2114 0.55077 95.1668C0.357993 94.7 0.183597 94.2514 0 93.748L0.0275385 6.21953ZM15.6976 68.6941C15.6976 66.8084 15.6976 64.9868 15.6976 63.2018C15.6602 62.7267 15.5487 62.2604 15.3671 61.8196C14.6327 59.7783 13.7698 57.7736 13.1547 55.7049C12.4204 53.2151 12.0164 50.6428 11.2637 48.1713C10.1162 44.4183 8.9779 40.7201 9.62968 36.7199C10.4467 31.6945 12.5489 27.4197 16.9736 24.7468C22.8762 21.2134 29.2562 21.0212 35.6638 23.0259C45.22 26.0192 48.4054 36.2897 46.5144 43.5761C45.7616 46.4962 44.6234 49.3338 44.0358 52.2722C43.4873 55.7363 42.423 59.0993 40.878 62.2498C40.7972 62.4248 40.7564 62.6155 40.7586 62.8082C40.7586 64.8861 40.7586 66.9732 40.7586 69.1335L53.2983 72.8774V8.25167C53.2983 8.02282 53.2983 7.79398 53.2983 7.56513C53.2904 6.51095 52.9019 5.49491 52.204 4.7031C51.506 3.91129 50.5453 3.39674 49.4978 3.25371C47.6338 3.1282 45.764 3.11292 43.8981 3.20794V4.6634C43.912 5.28222 43.7998 5.8974 43.5684 6.47175C43.3369 7.0461 42.9911 7.56769 42.5517 8.00494C42.1124 8.4422 41.5887 8.78605 41.0122 9.01569C40.4358 9.24533 39.8186 9.35598 39.198 9.34097H17.1663C15.949 9.34097 14.7816 8.85878 13.9208 8.00045C13.06 7.14211 12.5764 5.97796 12.5764 4.76409C12.5764 4.22402 12.5764 3.68394 12.5764 3.0981H8.52808C4.98465 3.0981 3.16704 4.92887 3.16704 8.44392V72.795L15.6976 68.6941ZM53.335 76.1636C51.2971 75.5594 49.2959 75.001 47.3222 74.3328C47.0336 74.1983 46.7049 74.1763 46.4008 74.2711C46.0968 74.366 45.8393 74.5708 45.679 74.8454C42.5487 78.6351 39.3725 82.3881 36.2146 86.1595C34.6632 87.9902 33.9013 87.9902 32.46 86.0039L29.4307 81.8206C29.2998 81.623 29.124 81.459 28.9174 81.3421C28.7109 81.2252 28.4796 81.1587 28.2424 81.148C28.0051 81.1373 27.7687 81.1827 27.5525 81.2805C27.3362 81.3783 27.1462 81.5257 26.998 81.7107L22.9405 86.4616C21.7379 87.8804 20.875 87.8529 19.7275 86.3792C16.6706 82.4431 13.5954 78.5252 10.5477 74.58C10.4206 74.3401 10.204 74.1596 9.94476 74.0774C9.68547 73.9952 9.40417 74.0179 9.16149 74.1406C7.45404 74.7722 5.72824 75.3306 3.98406 75.8432C3.31393 76.0354 3.14869 76.3466 3.14869 77.0057C3.14869 81.9488 3.14869 86.8918 3.14869 91.844C3.1008 92.5134 3.19792 93.1852 3.43346 93.8139C3.669 94.4425 4.03743 95.0133 4.51376 95.4874C4.99009 95.9615 5.56315 96.3279 6.19403 96.5616C6.82491 96.7953 7.49886 96.8909 8.17008 96.8419H48.3136C51.3705 96.8419 53.2891 94.883 53.2983 91.8074C53.2983 89.5006 53.2983 87.1908 53.2983 84.878L53.335 76.1636ZM44.0358 39.5484H43.9348C43.8706 38.8711 43.8339 38.1845 43.7329 37.5072C43.0077 32.3444 40.5383 28.3534 35.5536 26.3762C30.9883 24.5648 25.9144 24.4898 21.2973 26.1656C19.3488 26.8015 17.5948 27.9218 16.2007 29.4208C14.8066 30.9198 13.8184 32.7482 13.3292 34.7336C12.3673 37.8643 12.3994 41.2149 13.421 44.3267C14.5893 47.6972 15.5098 51.1482 16.1749 54.6522C16.6857 57.9858 18.1741 61.0943 20.4528 63.5863C21.4244 64.7146 22.6314 65.6177 23.9894 66.2326C25.3475 66.8475 26.8238 67.1593 28.3152 67.1462C29.8066 67.1332 31.2771 66.7955 32.6241 66.1569C33.9711 65.5183 35.162 64.5941 36.1136 63.449C37.8894 61.5239 39.1382 59.1753 39.7396 56.6294C40.7494 52.0525 41.9612 47.6312 43.3106 43.1917C43.6185 41.9861 43.8545 40.7635 44.0175 39.5301L44.0358 39.5484ZM18.7269 66.4789C18.8646 67.5407 18.6627 68.63 19.1125 69.1152C21.8664 72.0444 24.6939 74.8363 27.5121 77.6648C27.6026 77.7709 27.7151 77.8562 27.8419 77.9146C27.9687 77.9731 28.1067 78.0034 28.2465 78.0034C28.3862 78.0034 28.5242 77.9731 28.651 77.9146C28.7778 77.8562 28.8903 77.7709 28.9808 77.6648C29.3297 77.3719 29.7244 77.1339 30.0457 76.8135C32.258 74.5708 34.4061 72.2366 36.6736 70.0671C37.1161 69.6243 37.4339 69.0731 37.5951 68.4689C37.7562 67.8647 37.755 67.2289 37.5916 66.6253C29.8805 71.5958 26.0525 71.5958 18.7086 66.4606L18.7269 66.4789ZM15.7435 3.14387C15.7435 3.42764 15.7435 3.61987 15.7435 3.80294C15.7435 5.78016 16.1657 6.23785 18.1119 6.23785H38.84C40.061 6.23785 40.676 5.78015 40.7953 4.78239C40.823 4.23656 40.823 3.6897 40.7953 3.14387H15.7435ZM13.2006 72.8774L21.4625 83.4134L24.6204 79.6786C22.1418 77.0698 19.7183 74.5067 17.2765 71.9528C17.187 71.8787 17.0821 71.8254 16.9693 71.7968C16.8566 71.7683 16.7388 71.7653 16.6247 71.7881C15.4864 72.0535 14.4124 72.4563 13.1823 72.8591L13.2006 72.8774ZM34.4704 83.5049C34.5585 83.2911 34.6661 83.0858 34.7917 82.8916C37.4906 79.6512 40.1895 76.4107 42.9801 73.0787C41.8877 72.7584 40.8871 72.5112 39.9233 72.1634C39.7066 72.0651 39.4619 72.047 39.2331 72.1124C39.0042 72.1779 38.8063 72.3225 38.6748 72.5204C36.8388 74.4976 34.8835 76.4382 32.9649 78.3879C32.5702 78.7907 32.1204 79.1569 31.6706 79.5596L34.1308 82.9465C34.2317 83.038 34.2868 83.1662 34.4704 83.5049Z" fill="#603DBD"/>
<path d="M79.8381 48.5192C78.1123 48.0615 76.8914 48.6564 75.5511 49.6725C74.159 50.7755 72.4608 51.4257 70.6861 51.5354C68.9115 51.6451 67.1458 51.2089 65.6277 50.2858C64.0396 49.4437 64.0855 48.1347 65.5726 47.1369C66.2689 46.6122 66.906 46.0137 67.4729 45.3519C67.9227 44.8668 67.8676 44.4823 67.2801 44.0063C63.4447 40.9715 60.8369 36.6582 59.9362 31.8593C57.7514 21.2409 65.1503 10.1923 75.8449 8.17844C78.4798 7.64295 81.195 7.63299 83.8338 8.14913C86.4726 8.66527 88.9828 9.6973 91.2196 11.1857C93.4564 12.6741 95.3756 14.5893 96.8663 16.821C98.3571 19.0527 99.3899 21.5567 99.9053 24.1884C102.164 34.8525 94.7922 45.9469 84.0517 47.9882C82.6105 48.2537 81.1784 48.3544 79.8381 48.5192ZM69.5934 48.1988C70.6235 48.3357 71.6715 48.1938 72.6276 47.7879C73.5838 47.3821 74.4128 46.7273 75.0279 45.892C75.2292 45.5818 75.5119 45.3324 75.8452 45.171C76.1786 45.0097 76.5499 44.9424 76.9189 44.9766C78.5649 45.1547 80.2227 45.2006 81.8761 45.1139C84.1857 44.8724 86.4216 44.1632 88.4468 43.03C90.4721 41.8968 92.2441 40.3634 93.6543 38.5235C95.0645 36.6837 96.0833 34.5762 96.6483 32.3301C97.2134 30.084 97.3127 27.7465 96.9402 25.4608C96.5719 23.184 95.7471 21.0046 94.5148 19.0529C93.2826 17.1013 91.6684 15.4174 89.7687 14.102C87.869 12.7866 85.7228 11.8667 83.4584 11.3973C81.1941 10.9278 78.858 10.9185 76.5899 11.3699C74.3218 11.8212 72.1683 12.7239 70.2581 14.0241C68.3479 15.3243 66.7202 16.9952 65.4724 18.9369C64.2245 20.8787 63.3821 23.0514 62.9956 25.3252C62.609 27.599 62.6862 29.9271 63.2226 32.1705C64.2215 36.2781 66.7184 39.8677 70.2268 42.2396C71.3468 43.0086 71.5579 43.4113 71.1448 44.702C70.7317 45.9927 70.1167 47.0179 69.5934 48.1988Z" fill="#603DBD"/>
<path d="M53.3172 76.1637V84.8689C53.3172 87.1879 53.3172 89.4977 53.3172 91.7983C53.3172 94.874 51.3894 96.8238 48.3325 96.8329H8.17974C7.50852 96.8819 6.8346 96.7863 6.20372 96.5526C5.57284 96.3188 4.99978 95.9525 4.52345 95.4784C4.04712 95.0043 3.67866 94.4335 3.44312 93.8049C3.20758 93.1762 3.11049 92.5043 3.15838 91.8349C3.15838 86.8827 3.15838 81.9397 3.15838 76.9967C3.15838 76.3376 3.32359 76.0264 3.99372 75.8341C5.7379 75.3215 7.46373 74.7631 9.17118 74.1315C9.41386 74.0089 9.69513 73.9862 9.95442 74.0684C10.2137 74.1506 10.4302 74.331 10.5574 74.5709C13.5959 78.5162 16.6711 82.434 19.7372 86.3701C20.8847 87.8439 21.7476 87.8714 22.9502 86.4525L27.0077 81.7017C27.1559 81.5167 27.3459 81.3693 27.5622 81.2715C27.7784 81.1737 28.0148 81.1283 28.2521 81.139C28.4893 81.1497 28.7206 81.2162 28.9271 81.3331C29.1336 81.45 29.3095 81.6139 29.4403 81.8116L32.4697 85.9948C33.9109 87.9812 34.6729 88.0087 36.2243 86.1504C39.3821 82.3791 42.5584 78.626 45.6887 74.8364C45.849 74.5618 46.1065 74.3569 46.4105 74.2621C46.7146 74.1672 47.0433 74.1892 47.3319 74.3238C49.278 75.0012 51.2792 75.5595 53.3172 76.1637Z" fill="#D3FC66"/>
<path d="M44.018 39.5302C43.8593 40.7478 43.6294 41.9551 43.3295 43.1459C41.9801 47.5855 40.7683 52.0526 39.7585 56.5837C39.1571 59.1296 37.9083 61.4782 36.1325 63.4032C35.1809 64.5484 33.99 65.4726 32.643 66.1112C31.296 66.7498 29.8255 67.0874 28.334 67.1005C26.8426 67.1136 25.3663 66.8018 24.0083 66.1869C22.6503 65.572 21.4433 64.6689 20.4716 63.5405C18.1929 61.0486 16.7045 57.9401 16.1938 54.6065C15.5286 51.1025 14.6082 47.6515 13.4398 44.281C12.4182 41.1692 12.3862 37.8185 13.348 34.6878C13.8372 32.7025 14.8255 30.8741 16.2196 29.3751C17.6137 27.876 19.3677 26.7558 21.3162 26.1199C25.9333 24.4441 31.0071 24.519 35.5725 26.3304C40.5572 28.3259 43.0265 32.2987 43.7518 37.4614C43.8527 38.1388 43.8895 38.8253 43.9537 39.5027L44.018 39.5302ZM28.963 43.7409C29.064 44.281 29.1466 44.757 29.2384 45.233C29.9177 48.6016 31.818 50.3591 35.086 50.6429C38.5743 50.9449 40.8968 49.2149 41.3926 45.7639C41.6037 44.3634 41.4843 42.9079 41.5761 41.4891C41.6362 41.0483 41.5333 40.6009 41.2866 40.2303C41.04 39.8597 40.6665 39.5913 40.2359 39.4753C38.5728 38.7498 36.7575 38.4391 34.947 38.5699C33.1365 38.7006 31.3852 39.269 29.8443 40.2259C29.3644 40.5265 28.8091 40.686 28.2424 40.686C27.6756 40.686 27.1204 40.5265 26.6405 40.2259C25.0742 39.2444 23.2852 38.6721 21.4385 38.5617C19.5919 38.4513 17.7472 38.8064 16.0745 39.5943C15.7447 39.6938 15.4556 39.8958 15.2491 40.1708C15.0427 40.4458 14.9298 40.7794 14.927 41.1229C14.927 42.4868 14.8627 43.8691 14.927 45.2147C14.92 46.1293 15.1422 47.0312 15.5735 47.8384C16.0047 48.6457 16.6313 49.3328 17.3964 49.8373C18.22 50.3438 19.1477 50.6582 20.1103 50.7572C21.0728 50.8561 22.0454 50.737 22.9553 50.4087C23.8652 50.0805 24.6891 49.5515 25.3653 48.8614C26.0416 48.1712 26.5528 47.3377 26.8608 46.423C27.1546 45.5076 27.3198 44.5922 27.5401 43.7318L28.963 43.7409ZM23.4092 29.2139C20.49 29.2139 16.5977 31.9142 15.7807 34.6237C15.6366 34.9786 15.6376 35.3756 15.7834 35.7298C15.9292 36.084 16.2084 36.3671 16.561 36.5186C16.892 36.7081 17.2835 36.7634 17.6543 36.6731C18.0251 36.5828 18.3469 36.3538 18.553 36.0334C18.8927 35.6032 19.1222 35.1181 19.471 34.6695C20.6644 33.269 21.9863 32.079 24.061 32.436C26.8297 32.8937 29.6551 32.8937 32.4238 32.436C32.9504 32.3073 33.5007 32.3101 34.0259 32.4443C34.5512 32.5784 35.0351 32.8397 35.4348 33.2049C36.277 34.0512 37.0679 34.9468 37.8032 35.887C38.0066 36.225 38.331 36.4735 38.711 36.5822C39.091 36.691 39.4981 36.6519 39.8503 36.4728C40.1986 36.3339 40.4783 36.0644 40.6294 35.722C40.7804 35.3797 40.7908 34.9919 40.6581 34.6421C39.7402 32.4543 36.417 29.0216 33.2316 29.2688C30.8081 29.4519 28.3663 29.4519 25.9337 29.4793C25.0799 29.461 24.2354 29.2963 23.4 29.2139H23.4092ZM25.8418 56.0985C25.1038 56.2364 24.3743 56.4167 23.657 56.6386C23.4978 56.6838 23.3492 56.7601 23.2199 56.8631C23.0905 56.9661 22.983 57.0937 22.9035 57.2385C22.8241 57.3833 22.7743 57.5424 22.7571 57.7066C22.7399 57.8707 22.7556 58.0367 22.8033 58.1947C22.9777 58.7073 23.5469 59.5037 23.8773 59.4763C25.3547 59.3987 26.8337 59.5973 28.2378 60.0621C28.6309 60.1077 29.0285 60.031 29.3761 59.8424C30.1704 59.4757 31.0617 59.373 31.9189 59.5495C32.121 59.6018 32.3319 59.6109 32.5378 59.5761C32.7437 59.5413 32.9398 59.4633 33.1132 59.3474C33.2867 59.2315 33.4336 59.0803 33.5442 58.9037C33.6548 58.7271 33.7266 58.5292 33.7549 58.3229C33.8306 57.9166 33.7431 57.4969 33.5112 57.1544C33.2794 56.8119 32.9218 56.5741 32.5156 56.4921C31.9644 56.2891 31.3756 56.2079 30.7898 56.2541C29.064 56.602 27.4116 56.9041 25.8327 56.0985H25.8418ZM28.2194 54.3593C29.0118 54.1809 29.7933 53.9578 30.5603 53.6911C30.8845 53.5599 31.1474 53.3121 31.297 52.9968C31.4467 52.6815 31.472 52.3216 31.3681 51.9885C31.3567 51.8154 31.3104 51.6465 31.2321 51.4917C31.1537 51.337 31.0449 51.1995 30.9121 51.0876C30.7793 50.9757 30.6252 50.8916 30.4591 50.8403C30.293 50.7891 30.1182 50.7717 29.9453 50.7893C28.8111 50.9266 27.6645 50.9266 26.5303 50.7893C26.3571 50.7769 26.1832 50.7989 26.0185 50.854C25.8539 50.909 25.7019 50.9961 25.5713 51.1102C25.4406 51.2243 25.334 51.3631 25.2575 51.5186C25.1811 51.674 25.1363 51.8431 25.1258 52.0159C25.0266 52.35 25.0574 52.7091 25.2123 53.0214C25.3672 53.3337 25.6347 53.5762 25.9612 53.7002C26.6992 53.9576 27.4499 54.1776 28.2102 54.3593H28.2194Z" fill="#D3FC66"/>
<path d="M18.709 66.4607C26.0529 71.596 29.8901 71.596 37.5736 66.6255C37.7371 67.229 37.7383 67.8649 37.5772 68.469C37.416 69.0732 37.0982 69.6244 36.6557 70.0673C34.3882 72.255 32.2401 74.5709 30.0278 76.8136C29.7065 77.134 29.3117 77.372 28.9629 77.6649C28.8724 77.7711 28.7599 77.8563 28.6331 77.9148C28.5063 77.9732 28.3682 78.0035 28.2285 78.0035C28.0888 78.0035 27.9508 77.9732 27.824 77.9148C27.6972 77.8563 27.5846 77.7711 27.4941 77.6649C24.6759 74.8364 21.8118 72.0445 19.0946 69.1153C18.6447 68.6118 18.865 67.5225 18.709 66.4607Z" fill="#D3FC66"/>
<path d="M15.725 3.12573H40.7585C40.7862 3.67156 40.7862 4.21844 40.7585 4.76427C40.6484 5.76203 40.0241 6.2197 38.8032 6.2197H18.0659C16.1197 6.2197 15.6699 5.76202 15.6975 3.78481C15.6975 3.60173 15.7158 3.40035 15.725 3.12573Z" fill="#D3FC66"/>
<path d="M13.1826 72.8593C14.4127 72.4565 15.4868 72.0903 16.57 71.77C16.6841 71.7472 16.8018 71.7502 16.9146 71.7787C17.0274 71.8072 17.1323 71.8605 17.2218 71.9347C19.6728 74.4886 22.0963 77.0517 24.5657 79.6605L21.4078 83.3953L13.1826 72.8593Z" fill="#D3FC66"/>
<path d="M34.4698 83.5049C34.2586 83.1662 34.2036 83.0472 34.1301 82.9465L31.7158 79.5596C32.1656 79.1568 32.6338 78.7907 33.0102 78.3879C34.9288 76.4381 36.8474 74.4975 38.7201 72.5203C38.8516 72.3225 39.0495 72.1778 39.2783 72.1124C39.5071 72.047 39.7518 72.065 39.9685 72.1633C40.8865 72.5112 41.933 72.7583 43.0254 73.0787C40.2715 76.4107 37.5175 79.6511 34.837 82.8915C34.6955 83.084 34.5725 83.2894 34.4698 83.5049V83.5049Z" fill="#D3FC66"/>
<path d="M69.5929 48.1991C70.1162 47.0182 70.7221 45.9106 71.1168 44.7298C71.5115 43.5489 71.3463 43.0363 70.1988 42.2674C66.6904 39.8955 64.1935 36.3059 63.1946 32.1983C62.6582 29.9549 62.581 27.6267 62.9676 25.353C63.3541 23.0792 64.1965 20.9065 65.4444 18.9647C66.6922 17.023 68.3199 15.3521 70.2301 14.0519C72.1403 12.7517 74.2939 11.849 76.5619 11.3976C78.83 10.9463 81.1661 10.9556 83.4304 11.4251C85.6948 11.8945 87.841 12.8144 89.7407 14.1298C91.6404 15.4452 93.2546 17.1291 94.4869 19.0807C95.7191 21.0324 96.544 23.2118 96.9122 25.4886C97.2847 27.7743 97.1854 30.1118 96.6203 32.3579C96.0553 34.604 95.0365 36.7115 93.6263 38.5513C92.2161 40.3912 90.4441 41.9246 88.4188 43.0578C86.3936 44.191 84.1577 44.9001 81.8481 45.1417C80.1947 45.2284 78.537 45.1825 76.8909 45.0044C76.5219 44.9702 76.1506 45.0374 75.8172 45.1988C75.4839 45.3602 75.2012 45.6095 74.9999 45.9198C74.384 46.7456 73.558 47.3923 72.6074 47.793C71.6568 48.1937 70.6161 48.3339 69.5929 48.1991V48.1991ZM75.2478 28.1157C75.2511 27.8099 75.164 27.51 74.9974 27.2533C74.8309 26.9966 74.5921 26.7945 74.311 26.6723C74.0299 26.5501 73.719 26.5131 73.417 26.5661C73.115 26.619 72.8353 26.7595 72.6129 26.97C72.3905 27.1805 72.2352 27.4517 72.1664 27.7496C72.0977 28.0476 72.1185 28.3592 72.2262 28.6455C72.3339 28.9317 72.5239 29.18 72.7723 29.3593C73.0207 29.5386 73.3165 29.6409 73.6229 29.6535C73.8332 29.6688 74.0444 29.6402 74.243 29.5695C74.4416 29.4987 74.6232 29.3874 74.7761 29.2426C74.9291 29.0979 75.05 28.9229 75.1312 28.7288C75.2125 28.5347 75.2522 28.3259 75.2478 28.1157V28.1157ZM79.9478 26.5412C79.6373 26.5432 79.3344 26.6376 79.0779 26.8123C78.8214 26.9869 78.6231 27.2339 78.5082 27.5216C78.3933 27.8093 78.367 28.1246 78.4329 28.4273C78.4987 28.7299 78.6536 29.0061 78.8778 29.2205C79.1019 29.4348 79.3851 29.5776 79.6911 29.6305C79.9971 29.6835 80.312 29.6442 80.5955 29.5177C80.8789 29.3912 81.1181 29.1833 81.2824 28.9205C81.4467 28.6577 81.5285 28.352 81.5176 28.0425C81.5152 27.8406 81.4726 27.6411 81.392 27.4559C81.3115 27.2706 81.1948 27.1032 81.0486 26.9634C80.9025 26.8236 80.7299 26.7143 80.5409 26.6418C80.3519 26.5693 80.1503 26.5351 79.9478 26.5412V26.5412ZM87.7874 28.1431C87.7977 27.8354 87.7168 27.5315 87.5548 27.2695C87.3927 27.0074 87.1568 26.7988 86.8765 26.6698C86.5962 26.5407 86.2839 26.497 85.9788 26.544C85.6736 26.5911 85.3892 26.7268 85.161 26.9342C84.9329 27.1416 84.7711 27.4115 84.696 27.7101C84.6209 28.0087 84.6357 28.3228 84.7387 28.613C84.8417 28.9033 85.0282 29.1568 85.275 29.3419C85.5217 29.5269 85.8177 29.6353 86.1259 29.6535C86.3388 29.6728 86.5535 29.6472 86.7558 29.5784C86.9582 29.5095 87.1437 29.399 87.3005 29.254C87.4572 29.1089 87.5815 28.9326 87.6654 28.7365C87.7493 28.5404 87.7909 28.3289 87.7874 28.1157V28.1431Z" fill="#D3FC66"/>
<path d="M28.9622 43.7411H27.5484C27.3281 44.6565 27.1629 45.5719 26.8691 46.4323C26.5581 47.3414 26.0461 48.1692 25.371 48.8544C24.6958 49.5395 23.8748 50.0646 22.9687 50.3906C22.0626 50.7167 21.0946 50.8355 20.1363 50.7382C19.1779 50.6408 18.2538 50.3299 17.4322 49.8284C16.6672 49.3238 16.0406 48.6367 15.6093 47.8295C15.1781 47.0222 14.9559 46.1203 14.9628 45.2057C14.8619 43.8418 14.9628 42.4596 14.9628 41.114C14.9657 40.7705 15.0786 40.4369 15.285 40.1618C15.4914 39.8868 15.7806 39.6848 16.1103 39.5853C17.783 38.7974 19.6278 38.4423 21.4744 38.5527C23.321 38.6631 25.11 39.2354 26.6764 40.2169C27.1563 40.5176 27.7115 40.6771 28.2783 40.6771C28.845 40.6771 29.4002 40.5176 29.8801 40.2169C31.421 39.26 33.1724 38.6917 34.9829 38.5609C36.7934 38.4301 38.6087 38.7409 40.2718 39.4663C40.7024 39.5823 41.0759 39.8507 41.3225 40.2213C41.5692 40.5919 41.6721 41.0394 41.612 41.4801C41.5202 42.899 41.612 44.3544 41.4284 45.7549C40.9327 49.2059 38.6102 50.936 35.1218 50.6339C31.8538 50.3501 29.9536 48.5926 29.2743 45.224C29.1366 44.7572 29.054 44.2812 28.9622 43.7411ZM18.0289 42.2399C18.084 43.2285 18.1024 44.1988 18.2033 45.1599C18.3686 46.6978 18.8184 47.2562 19.8924 47.4301C21.8202 47.7413 23.1238 47.3019 23.6562 45.9655C23.978 45.0502 24.1936 44.1012 24.2988 43.137C24.2919 42.9776 24.2434 42.8229 24.158 42.688C24.0727 42.5531 23.9535 42.4428 23.8123 42.368C22.9028 41.9672 21.9229 41.7495 20.9288 41.7275C19.9347 41.7055 18.9461 41.8796 18.0197 42.2399H18.0289ZM38.5001 42.2399C36.6428 41.5421 34.5867 41.588 32.7626 42.368C32.6284 42.4282 32.5089 42.5166 32.4122 42.6272C32.3156 42.7378 32.2441 42.868 32.2026 43.0088C31.8538 45.9105 33.5337 47.6864 36.3611 47.4575C36.8341 47.458 37.289 47.2765 37.631 46.9508C37.973 46.6251 38.1758 46.1803 38.1971 45.7092C38.3623 44.5924 38.4082 43.4482 38.4909 42.2307L38.5001 42.2399Z" fill="#603DBD"/>
<path d="M23.3999 29.2138C24.2353 29.2962 25.0798 29.461 25.9244 29.461C28.3571 29.461 30.7989 29.461 33.2224 29.2504C36.4078 29.0033 39.7768 32.4359 40.6489 34.6237C40.7815 34.9735 40.7712 35.3613 40.6201 35.7037C40.4691 36.046 40.1893 36.3156 39.8411 36.4544C39.4889 36.6335 39.0817 36.6726 38.7017 36.5639C38.3217 36.4551 37.9973 36.2066 37.794 35.8686C37.0587 34.9284 36.2678 34.0328 35.4256 33.1866C35.0258 32.8213 34.5419 32.56 34.0167 32.4259C33.4914 32.2918 32.9412 32.289 32.4146 32.4177C29.6458 32.8754 26.8204 32.8754 24.0517 32.4177C21.9862 32.0607 20.6643 33.2506 19.4618 34.6512C19.1037 35.0631 18.8742 35.5665 18.5438 36.0151C18.3376 36.3354 18.0158 36.5645 17.645 36.6548C17.2742 36.7451 16.8828 36.6897 16.5518 36.5002C16.1991 36.3488 15.92 36.0656 15.7741 35.7115C15.6283 35.3573 15.6273 34.9603 15.7715 34.6054C16.5885 31.9142 20.4807 29.1864 23.3999 29.2138Z" fill="#603DBD"/>
<path d="M25.8323 56.0986C27.4113 56.9042 29.0636 56.6021 30.7436 56.2542C31.3293 56.208 31.9182 56.2892 32.4694 56.4922C32.8756 56.5742 33.2331 56.8121 33.465 57.1546C33.6968 57.4971 33.7844 57.9167 33.7087 58.323C33.6804 58.5293 33.6085 58.7273 33.4979 58.9038C33.3873 59.0804 33.2405 59.2317 33.067 59.3475C32.8935 59.4634 32.6974 59.5414 32.4915 59.5762C32.2857 59.611 32.0748 59.602 31.8727 59.5496C31.0155 59.3731 30.1241 59.4758 29.3299 59.8425C28.9822 60.0311 28.5846 60.1078 28.1916 60.0622C26.7874 59.5975 25.3085 59.3988 23.8311 59.4764C23.5006 59.4764 22.9131 58.7074 22.7571 58.1948C22.7094 58.0368 22.6937 57.8708 22.7109 57.7067C22.7281 57.5425 22.7778 57.3834 22.8573 57.2386C22.9367 57.0938 23.0443 56.9662 23.1736 56.8632C23.303 56.7602 23.4516 56.6839 23.6108 56.6387C24.3401 56.4155 25.0819 56.2351 25.8323 56.0986Z" fill="#603DBD"/>
<path d="M28.2103 54.3594C27.4468 54.178 26.6931 53.958 25.9521 53.7003C25.6256 53.5762 25.3581 53.3337 25.2032 53.0214C25.0483 52.7091 25.0174 52.35 25.1167 52.016C25.1272 51.8431 25.172 51.6741 25.2484 51.5186C25.3249 51.3632 25.4315 51.2244 25.5621 51.1103C25.6928 50.9962 25.8448 50.9091 26.0094 50.854C26.1741 50.7989 26.348 50.7769 26.5212 50.7894C27.6553 50.9267 28.802 50.9267 29.9361 50.7894C30.1091 50.7718 30.2839 50.7891 30.45 50.8404C30.6161 50.8916 30.7702 50.9757 30.903 51.0876C31.0358 51.1996 31.1446 51.337 31.223 51.4918C31.3013 51.6466 31.3476 51.8155 31.359 51.9885C31.4629 52.3216 31.4376 52.6815 31.2879 52.9969C31.1383 53.3122 30.8754 53.56 30.5512 53.6911C29.7842 53.9578 29.0026 54.1809 28.2103 54.3594V54.3594Z" fill="#603DBD"/>
<path d="M75.248 28.1153C75.2441 28.425 75.1476 28.7264 74.9709 28.9811C74.7942 29.2357 74.5454 29.432 74.2562 29.5448C73.967 29.6577 73.6506 29.6819 73.3475 29.6145C73.0444 29.547 72.7684 29.3909 72.5548 29.1661C72.3412 28.9413 72.1997 28.6581 72.1484 28.3527C72.0971 28.0473 72.1383 27.7336 72.2669 27.4517C72.3954 27.1698 72.6053 26.9325 72.8698 26.7703C73.1343 26.608 73.4414 26.5281 73.7517 26.5409C73.9542 26.5444 74.154 26.5881 74.3393 26.6695C74.5247 26.7509 74.6919 26.8684 74.8312 27.015C74.9705 27.1615 75.0791 27.3344 75.1507 27.5233C75.2223 27.7122 75.2553 27.9135 75.248 28.1153Z" fill="#603DBD"/>
<path d="M79.9477 26.541C80.2579 26.5411 80.5611 26.6333 80.8184 26.806C81.0758 26.9787 81.2757 27.2239 81.3927 27.5104C81.5096 27.7969 81.5384 28.1116 81.4751 28.4144C81.4119 28.7172 81.2595 28.9944 81.0376 29.2105C80.8156 29.4266 80.5342 29.5718 80.2291 29.6277C79.924 29.6835 79.6091 29.6474 79.3246 29.524C79.0402 29.4006 78.7991 29.1955 78.6321 28.9348C78.4651 28.6741 78.3799 28.3697 78.3872 28.0605C78.3871 27.8578 78.4277 27.6572 78.5065 27.4704C78.5854 27.2836 78.701 27.1145 78.8464 26.9729C78.9918 26.8313 79.1642 26.7201 79.3533 26.6459C79.5424 26.5718 79.7446 26.5361 79.9477 26.541V26.541Z" fill="#603DBD"/>
<path d="M87.7874 28.1156C87.7795 28.4277 87.6781 28.7302 87.4964 28.9844C87.3147 29.2386 87.0609 29.4328 86.7677 29.5421C86.4744 29.6513 86.1551 29.6707 85.8507 29.5976C85.5464 29.5245 85.2709 29.3624 85.0597 29.132C84.8484 28.9016 84.7111 28.6135 84.6653 28.3047C84.6195 27.9959 84.6674 27.6805 84.8027 27.399C84.9381 27.1176 85.1547 26.8829 85.4249 26.7251C85.695 26.5674 86.0063 26.4937 86.3187 26.5137C86.5212 26.5207 86.7204 26.568 86.9044 26.6527C87.0885 26.7374 87.2537 26.8578 87.3905 27.007C87.5273 27.1562 87.6328 27.331 87.701 27.5214C87.7692 27.7118 87.7985 27.9138 87.7874 28.1156Z" fill="#603DBD"/>
<path d="M18.0195 42.2399C18.9446 41.8809 19.9316 41.7074 20.924 41.7294C21.9164 41.7514 22.8947 41.9684 23.8029 42.368C23.9441 42.4429 24.0633 42.5531 24.1486 42.688C24.234 42.8229 24.2825 42.9776 24.2894 43.137C24.1843 44.1012 23.9686 45.0502 23.6468 45.9655C23.1144 47.3019 21.8108 47.7413 19.883 47.4301C18.809 47.2562 18.3592 46.6978 18.194 45.1599C18.093 44.1988 18.0746 43.2285 18.0195 42.2399Z" fill="#D3FC66"/>
<path d="M38.4908 42.2306C38.4082 43.448 38.3623 44.5831 38.2246 45.6998C38.2033 46.171 38.0005 46.6157 37.6585 46.9414C37.3165 47.2672 36.8616 47.4487 36.3886 47.4482C33.5612 47.6771 31.8813 45.9012 32.2301 42.9995C32.2715 42.8587 32.343 42.7285 32.4397 42.6179C32.5364 42.5073 32.6559 42.4189 32.7901 42.3587C34.6035 41.5884 36.6444 41.5426 38.4908 42.2306V42.2306Z" fill="#D3FC66"/>
</svg>
