<svg width="96" height="101" viewBox="0 0 96 101" fill="none" xmlns="http://www.w3.org/2000/svg">
<path d="M11.4095 99.9543C10.1295 98.6256 10.2195 97.8618 11.7295 96.7215C13.6774 95.3806 15.2704 93.5472 16.3611 91.3911C17.4519 89.235 18.0051 86.8258 17.9695 84.3866C18.0295 79.7728 17.9695 75.1486 17.9695 70.5348V23.8109C17.9143 23.135 18.0013 22.4547 18.2243 21.8178C18.4473 21.1809 18.801 20.6029 19.2604 20.1242C19.7198 19.6456 20.2738 19.278 20.8835 19.0474C21.4932 18.8167 22.1437 18.7285 22.7895 18.789H90.7895C91.4363 18.7297 92.0876 18.8195 92.6976 19.0521C93.3076 19.2847 93.8614 19.6544 94.3201 20.1352C94.7787 20.616 95.1309 21.1962 95.352 21.8349C95.573 22.4736 95.6575 23.1552 95.5995 23.8318C95.5995 47.1833 95.5995 70.5452 95.5995 93.9281C95.5995 96.8261 94.8295 98.908 92.1995 100.017L11.4095 99.9543ZM16.2895 96.8156H90.2295C92.1695 96.8156 92.5895 96.3867 92.5895 94.3675V24.2712C92.5895 22.2625 92.1795 21.8335 90.2295 21.8335H23.3295C21.3295 21.8335 20.9195 22.2415 20.9195 24.334C20.9195 44.4003 20.9195 64.4702 20.9195 84.5435C20.9326 88.5772 19.619 92.4929 17.1995 95.6334C16.9695 95.9996 16.6695 96.3553 16.2895 96.8365V96.8156Z" fill="#603DBD"/>
<path d="M0.0199585 3.52482C0.139959 3.30512 0.259985 3.09588 0.359985 2.87617C0.689715 2.00692 1.2685 1.26574 2.01691 0.754357C2.76532 0.242974 3.64666 -0.0135451 4.53998 0.0200075H83.27C84.11 0.0200075 84.77 0.250167 85.04 1.06621C85.31 1.88226 84.8299 2.57277 84.1299 3.08541C82.3148 4.29413 80.7876 5.92055 79.6646 7.84064C78.5415 9.76073 77.8525 11.9238 77.65 14.1648C77.638 14.581 77.4686 14.9752 77.1788 15.2607C76.8891 15.5462 76.5028 15.6995 76.105 15.6871C75.7072 15.6746 75.3304 15.4973 75.0575 15.1941C74.7846 14.891 74.638 14.4869 74.65 14.0707C74.6418 11.8489 75.1974 9.66471 76.2599 7.74106C77.0799 6.16128 78.1 4.69659 79.06 3.13773C78.91 3.13773 78.68 3.13773 78.45 3.13773H5.06995C3.51995 3.13773 3.00995 3.67129 3.00995 5.30338V75.9542C3.00995 77.5654 3.52998 78.0466 5.09998 78.0466H13.1C14.29 78.0466 14.93 78.5906 14.93 79.6055C14.93 80.6203 14.29 81.1643 13.1 81.1643H4.79999C3.79839 81.2478 2.7992 80.9751 1.96429 80.3902C1.12939 79.8054 0.507669 78.9427 0.199951 77.942C0.145886 77.8356 0.0786878 77.7371 0 77.6491L0.0199585 3.52482Z" fill="#603DBD"/>
<path d="M64.5995 53.1048H79.4395C80.9063 53.0889 82.3502 53.4864 83.6195 54.2557C84.3073 54.635 84.9146 55.1558 85.4052 55.7868C85.8957 56.4178 86.2593 57.146 86.4741 57.9278C86.6889 58.7095 86.7505 59.5286 86.6552 60.3358C86.5599 61.1431 86.3097 61.9218 85.9195 62.6254C85.8357 62.7951 85.7854 62.9808 85.7716 63.1713C85.7579 63.3619 85.781 63.5533 85.8395 63.7343C87.3395 66.9776 86.8395 69.6245 84.0595 72.0204C84.787 73.4238 85.0037 75.0555 84.6695 76.6132C84.5028 77.3789 84.1866 78.1003 83.741 78.7323C83.2953 79.3642 82.7296 79.8929 82.0795 80.2854C82.2631 80.9967 82.4002 81.7203 82.4895 82.4511C82.5473 83.8735 82.173 85.2785 81.4202 86.4645C80.6675 87.6505 79.575 88.5566 78.2995 89.0527C75.6756 90.0824 72.8917 90.5932 70.0895 90.5593C62.7895 90.6639 55.4828 90.6639 48.1695 90.5593C46.8378 90.4839 45.5422 90.0787 44.3895 89.377C41.9574 87.9388 39.1773 87.2735 36.3895 87.4625C33.8495 87.6194 31.2995 87.4625 28.7495 87.4625C27.4395 87.4625 26.9395 86.9394 26.9395 85.5793V61.192C26.9395 59.8947 27.4595 59.3612 28.6895 59.3612C32.2095 59.3612 35.6895 59.3612 39.2395 59.3612C39.7265 59.3501 40.2048 59.2249 40.6395 58.995C42.7418 57.8501 44.5942 56.2612 46.0795 54.3289C49.0795 50.4056 51.6095 46.2312 52.7395 41.2931C53.2395 39.1065 52.6895 36.9094 52.4495 34.7124C52.3043 33.2669 52.2642 31.812 52.3295 30.3601C52.374 29.9036 52.5274 29.4662 52.7755 29.0878C53.0235 28.7094 53.3585 28.4023 53.7495 28.1945C54.9553 27.3556 56.4123 27.0065 57.8469 27.2126C59.2814 27.4188 60.5946 28.166 61.5395 29.3139C64.9695 33.6766 66.8495 38.5834 65.8495 44.3794C65.3895 47.0891 65.0395 49.8302 64.6395 52.5503C64.6167 52.7343 64.6034 52.9194 64.5995 53.1048ZM41.8295 84.6168C43.4095 85.391 44.9095 86.1756 46.4495 86.8557C47.1181 87.1958 47.8466 87.3881 48.5895 87.4206C56.2395 87.4206 63.8795 87.4206 71.5295 87.2218C73.4202 87.1251 75.2869 86.7373 77.0695 86.071C79.5195 85.2236 80.0695 82.8173 78.6095 80.6935C78.4024 80.4786 78.2574 80.207 78.1913 79.9098C78.1251 79.6126 78.1404 79.302 78.2355 79.0135C78.3305 78.725 78.5014 78.4704 78.7286 78.279C78.9557 78.0876 79.2298 77.9672 79.5195 77.9315C80.0409 77.8239 80.5225 77.5638 80.9083 77.1814C81.2942 76.799 81.5685 76.31 81.6993 75.771C81.8302 75.2321 81.8123 74.6654 81.6477 74.1367C81.4831 73.608 81.1786 73.139 80.7695 72.7841C79.4595 71.4345 79.7695 70.2627 81.5695 69.6978C81.9318 69.6024 82.2712 69.4287 82.5656 69.188C82.8601 68.9473 83.1031 68.6448 83.2792 68.3C83.4553 67.9551 83.5606 67.5756 83.5882 67.1857C83.6158 66.7958 83.5651 66.4042 83.4395 66.036C83.1649 65.3922 82.7745 64.8096 82.2895 64.3202C82.1177 64.1663 81.9814 63.9737 81.8907 63.7569C81.8001 63.5401 81.7576 63.3046 81.7662 63.0682C81.7749 62.8317 81.8345 62.6003 81.9407 62.3914C82.0469 62.1824 82.1969 62.0013 82.3795 61.8616C82.7953 61.605 83.1343 61.2319 83.3582 60.7845C83.5821 60.337 83.6821 59.8329 83.6467 59.3292C83.6114 58.8255 83.4421 58.3421 83.1581 57.9337C82.8741 57.5252 82.4867 57.208 82.0395 57.0177C81.0321 56.5331 79.9382 56.2764 78.8295 56.2644C73.5395 56.1911 68.2495 56.2644 62.9695 56.2644C62.7087 56.3097 62.4411 56.2836 62.1929 56.1885C61.9446 56.0935 61.7241 55.9328 61.5529 55.722C61.3817 55.5113 61.2655 55.2577 61.2159 54.9861C61.1662 54.7144 61.1847 54.4339 61.2695 54.172C61.7895 50.6776 62.2695 47.1832 62.8695 43.7098C63.6495 39.0123 61.9995 35.1099 59.3695 31.5214C58.9898 31.0152 58.4704 30.6434 57.882 30.4562C57.2935 30.2691 56.6642 30.2757 56.0795 30.4752C55.9391 30.4872 55.8027 30.53 55.6792 30.601C55.5557 30.6719 55.448 30.7693 55.363 30.8869C55.2781 31.0044 55.2178 31.1394 55.1862 31.283C55.1545 31.4266 55.1523 31.5756 55.1795 31.7202C55.3095 32.8815 55.3895 34.0428 55.5595 35.1936C56.019 37.3922 56.0597 39.6639 55.6795 41.8789C54.3895 47.4239 51.5495 52.1214 48.1595 56.5259C46.6066 58.5233 44.7065 60.1952 42.5595 61.4536C42.3118 61.5694 42.1056 61.7645 41.9708 62.0109C41.836 62.2572 41.7795 62.542 41.8095 62.8241C41.8095 69.2583 41.8095 75.703 41.8095 82.1372L41.8295 84.6168ZM38.7595 84.3238V62.5207H29.9695V84.3029L38.7595 84.3238Z" fill="#603DBD"/>
<path d="M41.8301 84.617V82.1375C41.8301 75.7033 41.8301 69.2586 41.8301 62.8244C41.8001 62.5422 41.8567 62.2575 41.9915 62.0111C42.1263 61.7648 42.3324 61.5696 42.5801 61.4538C44.7271 60.1955 46.6272 58.5235 48.1801 56.5262C51.5701 52.1425 54.4101 47.445 55.7001 41.8792C56.0803 39.6641 56.0395 37.3924 55.5801 35.1939C55.4101 34.043 55.3301 32.8817 55.2001 31.7204C55.1729 31.5758 55.1752 31.4269 55.2068 31.2833C55.2384 31.1397 55.2987 31.0047 55.3837 30.8871C55.4687 30.7696 55.5764 30.6721 55.6998 30.6012C55.8233 30.5303 55.9597 30.4874 56.1001 30.4754C56.6849 30.2759 57.3141 30.2693 57.9026 30.4565C58.4911 30.6436 59.0103 31.0154 59.3901 31.5216C62.0201 35.1102 63.6701 39.0125 62.8901 43.71C62.3001 47.1939 61.8101 50.6883 61.2901 54.1722C61.2053 54.4342 61.1869 54.7146 61.2365 54.9863C61.2862 55.258 61.4023 55.5115 61.5735 55.7222C61.7447 55.933 61.9652 56.0937 62.2135 56.1888C62.4617 56.2838 62.7293 56.3099 62.9901 56.2646C68.2701 56.2646 73.5601 56.2646 78.8501 56.2646C79.9589 56.2766 81.0527 56.5333 82.0601 57.0179C82.5073 57.2082 82.8948 57.5254 83.1788 57.9339C83.4628 58.3423 83.632 58.8257 83.6673 59.3294C83.7027 59.8332 83.6028 60.3372 83.3789 60.7847C83.1549 61.2322 82.8159 61.6052 82.4001 61.8618C82.2175 62.0016 82.0676 62.1827 81.9614 62.3916C81.8552 62.6005 81.7955 62.8319 81.7868 63.0684C81.7782 63.3049 81.8208 63.5403 81.9114 63.7571C82.002 63.974 82.1383 64.1665 82.3101 64.3204C82.7952 64.8099 83.1856 65.3924 83.4601 66.0362C83.5857 66.4044 83.6364 66.7961 83.6088 67.1859C83.5812 67.5758 83.476 67.9554 83.2999 68.3002C83.1238 68.645 82.8807 68.9475 82.5863 69.1882C82.2918 69.4289 81.9525 69.6026 81.5901 69.698C79.7801 70.2629 79.4801 71.4347 80.7901 72.7843C81.1992 73.1392 81.5038 73.6083 81.6684 74.137C81.8329 74.6657 81.8508 75.2324 81.7199 75.7713C81.5891 76.3102 81.3148 76.7992 80.929 77.1816C80.5431 77.564 80.0616 77.8241 79.5401 77.9317C79.2505 77.9674 78.9763 78.0879 78.7492 78.2793C78.522 78.4707 78.3511 78.7252 78.2561 79.0137C78.161 79.3022 78.1457 79.6129 78.2119 79.91C78.278 80.2072 78.423 80.4788 78.6301 80.6937C80.1401 82.7861 79.5401 85.2238 77.0901 86.0712C75.3075 86.7376 73.4408 87.1254 71.5501 87.2221C63.9001 87.3999 56.2601 87.4104 48.6101 87.4208C47.8673 87.3884 47.1388 87.196 46.4701 86.8559C44.9101 86.1758 43.4101 85.3912 41.8301 84.617Z" fill="#D3FC66"/>
<path d="M38.7597 84.3238H29.9697V62.5208H38.7797L38.7597 84.3238Z" fill="#D3FC66"/>
</svg>
