<svg width="59" height="59" viewBox="0 0 59 59" fill="none" xmlns="http://www.w3.org/2000/svg">
<path d="M25.8763 20.3361V24.3294H22.9531V29.21H25.8763V43.7188H31.8851V29.21H35.9161C35.9161 29.21 36.296 26.8698 36.4787 24.3091H31.9083V20.974C31.9083 20.4723 32.5637 19.8025 33.2133 19.8025H36.4845V14.7188H32.033C25.7284 14.7188 25.8763 19.6053 25.8763 20.3361Z" fill="#E9E4F5"/>
<path d="M12.2602 6.01875C10.7219 6.01875 9.24665 6.62982 8.15894 7.71753C7.07123 8.80524 6.46016 10.2805 6.46016 11.8188V46.6188C6.46016 48.157 7.07123 49.6323 8.15894 50.72C9.24665 51.8077 10.7219 52.4188 12.2602 52.4188H47.0602C48.5984 52.4188 50.0737 51.8077 51.1614 50.72C52.2491 49.6323 52.8602 48.157 52.8602 46.6188V11.8188C52.8602 10.2805 52.2491 8.80524 51.1614 7.71753C50.0737 6.62982 48.5984 6.01875 47.0602 6.01875H12.2602ZM12.2602 0.21875H47.0602C50.1367 0.21875 53.0872 1.44089 55.2626 3.61631C57.438 5.79173 58.6602 8.74224 58.6602 11.8188V46.6188C58.6602 49.6953 57.438 52.6458 55.2626 54.8212C53.0872 56.9966 50.1367 58.2188 47.0602 58.2188H12.2602C9.18365 58.2188 6.23314 56.9966 4.05772 54.8212C1.8823 52.6458 0.660156 49.6953 0.660156 46.6188V11.8188C0.660156 8.74224 1.8823 5.79173 4.05772 3.61631C6.23314 1.44089 9.18365 0.21875 12.2602 0.21875Z" fill="#E9E4F5"/>
</svg>
