<svg width="59" height="59" viewBox="0 0 59 59" fill="none" xmlns="http://www.w3.org/2000/svg">
<path fill-rule="evenodd" clip-rule="evenodd" d="M17.6349 1.13103C20.7274 0.988668 21.7134 0.957031 29.5908 0.957031C37.4683 0.957031 38.4543 0.991304 41.5441 1.13103C44.6339 1.27076 46.743 1.76376 48.5885 2.47821C50.5209 3.20849 52.2741 4.35003 53.7241 5.82639C55.2005 7.27376 56.3394 9.0243 57.067 10.9594C57.7841 12.8049 58.2745 14.9139 58.4168 17.9985C58.5592 21.0962 58.5908 22.0822 58.5908 29.957C58.5908 37.8345 58.5565 38.8205 58.4168 41.9129C58.2771 44.9975 57.7841 47.1066 57.067 48.952C56.3393 50.8874 55.1986 52.6408 53.7241 54.0903C52.2741 55.5667 50.5209 56.7056 48.5885 57.4332C46.743 58.1503 44.6339 58.6407 41.5494 58.783C38.4543 58.9254 37.4683 58.957 29.5908 58.957C21.7134 58.957 20.7274 58.9228 17.6349 58.783C14.5504 58.6433 12.4413 58.1503 10.5958 57.4332C8.66052 56.7055 6.90707 55.5647 5.45755 54.0903C3.98219 52.6421 2.84047 50.8895 2.112 48.9547C1.39755 47.1092 0.907184 45.0001 0.76482 41.9156C0.622457 38.8178 0.59082 37.8319 0.59082 29.957C0.59082 22.0796 0.625093 21.0936 0.76482 18.0038C0.904548 14.9139 1.39755 12.8049 2.112 10.9594C2.84154 9.02452 3.98413 7.27195 5.46018 5.82376C6.90765 4.34872 8.65934 3.20702 10.5932 2.47821C12.4386 1.76376 14.5477 1.27339 17.6323 1.13103H17.6349ZM41.3095 6.35103C38.2513 6.2113 37.3338 6.1823 29.5908 6.1823C21.8478 6.1823 20.9304 6.2113 17.8722 6.35103C15.0434 6.48021 13.509 6.95212 12.4861 7.35021C11.1336 7.87749 10.1661 8.50231 9.15109 9.51731C8.18894 10.4534 7.44848 11.5929 6.984 12.8523C6.58591 13.8752 6.114 15.4096 5.98482 18.2384C5.84509 21.2966 5.81609 22.214 5.81609 29.957C5.81609 37.7 5.84509 38.6175 5.98482 41.6757C6.114 44.5045 6.58591 46.0389 6.984 47.0618C7.448 48.3193 8.18882 49.4609 9.15109 50.3968C10.087 51.359 11.2285 52.0999 12.4861 52.5639C13.509 52.9619 15.0434 53.4339 17.8722 53.563C20.9304 53.7028 21.8452 53.7318 29.5908 53.7318C37.3365 53.7318 38.2513 53.7028 41.3095 53.563C44.1383 53.4339 45.6726 52.9619 46.6956 52.5639C48.048 52.0366 49.0155 51.4118 50.0306 50.3968C50.9928 49.4609 51.7336 48.3193 52.1976 47.0618C52.5957 46.0389 53.0676 44.5045 53.1968 41.6757C53.3366 38.6175 53.3655 37.7 53.3655 29.957C53.3655 22.214 53.3366 21.2966 53.1968 18.2384C53.0676 15.4096 52.5957 13.8752 52.1976 12.8523C51.6704 11.4999 51.0456 10.5323 50.0306 9.51731C49.0944 8.55522 47.9549 7.81477 46.6956 7.35021C45.6726 6.95212 44.1383 6.48021 41.3095 6.35103ZM25.8867 38.8969C27.9554 39.7581 30.2588 39.8743 32.4036 39.2258C34.5485 38.5772 36.4016 37.2042 37.6465 35.3411C38.8915 33.4781 39.451 31.2406 39.2295 29.0109C39.008 26.7811 38.0193 24.6974 36.4322 23.1157C35.4204 22.1046 34.1971 21.3304 32.8502 20.8488C31.5034 20.3672 30.0665 20.1903 28.643 20.3307C27.2196 20.4711 25.845 20.9253 24.6181 21.6607C23.3913 22.3962 22.3428 23.3944 21.5481 24.5837C20.7534 25.773 20.2322 27.1237 20.0222 28.5386C19.8121 29.9534 19.9184 31.3973 20.3333 32.7661C20.7483 34.135 21.4615 35.3948 22.4218 36.4549C23.3821 37.515 24.5655 38.3491 25.8867 38.8969ZM19.0506 19.4168C20.4348 18.0327 22.078 16.9347 23.8865 16.1856C25.695 15.4365 27.6333 15.051 29.5908 15.051C31.5483 15.051 33.4866 15.4365 35.2951 16.1856C37.1036 16.9347 38.7468 18.0327 40.131 19.4168C41.5152 20.801 42.6131 22.4442 43.3622 24.2527C44.1113 26.0612 44.4969 27.9995 44.4969 29.957C44.4969 31.9145 44.1113 33.8529 43.3622 35.6613C42.6131 37.4698 41.5152 39.1131 40.131 40.4972C37.3356 43.2926 33.5442 44.8631 29.5908 44.8631C25.6375 44.8631 21.8461 43.2926 19.0506 40.4972C16.2552 37.7018 14.6848 33.9104 14.6848 29.957C14.6848 26.0037 16.2552 22.2123 19.0506 19.4168ZM47.8028 17.2709C48.1458 16.9473 48.4204 16.5582 48.6104 16.1266C48.8003 15.695 48.9017 15.2297 48.9086 14.7582C48.9154 14.2867 48.8276 13.8187 48.6504 13.3817C48.4731 12.9448 48.21 12.5478 47.8765 12.2144C47.5431 11.881 47.1462 11.6178 46.7092 11.4406C46.2723 11.2633 45.8042 11.1755 45.3327 11.1824C44.8612 11.1893 44.3959 11.2907 43.9643 11.4806C43.5328 11.6705 43.1437 11.9451 42.8201 12.2881C42.1908 12.9552 41.8463 13.8413 41.8597 14.7582C41.873 15.6752 42.2432 16.5508 42.8917 17.1993C43.5401 17.8477 44.4158 18.2179 45.3327 18.2313C46.2497 18.2446 47.1357 17.9001 47.8028 17.2709Z" fill="#E9E4F5"/>
</svg>
