<svg width="120" height="120" viewBox="0 0 120 120" fill="none" xmlns="http://www.w3.org/2000/svg">
<circle cx="60" cy="60" r="59" fill="#D3FC66" stroke="#603DBD" stroke-width="2"/>
<g clip-path="url(#clip0_105_62)">
<path d="M82.9995 27C83.2453 27.163 83.441 27.3928 83.5643 27.6632C83.6875 27.9336 83.7334 28.2336 83.6966 28.5292C83.6966 45.4433 83.6966 62.3593 83.6966 79.2771V80.2473H97.5896C98.6704 80.2473 99.0054 80.5871 99.0054 81.6997C99.0054 84.2155 99.0054 86.7367 99.0054 89.2579C98.9772 91.5718 98.0563 93.7824 96.44 95.4156C94.8237 97.0488 92.6408 97.9746 90.3594 97.9945H37.7432C35.6871 98.0027 33.6944 97.2733 32.1172 95.9354C30.54 94.5974 29.4799 92.737 29.1243 90.683C29.0956 90.5741 29.0538 90.4692 29 90.3705V27H82.9995ZM84.3883 95.7802C84.2478 95.6103 84.1992 95.5391 84.1451 95.4843C83.2689 94.6063 82.5806 93.5545 82.1231 92.3945C81.6657 91.2346 81.449 89.9914 81.4865 88.7427C81.5081 69.2196 81.5081 49.6929 81.4865 30.1625V29.2581H31.1831V29.9049C31.1831 49.5486 31.1831 69.1904 31.1831 88.8304C31.1799 89.4524 31.2506 90.0726 31.3939 90.6775C32.1558 93.8016 34.7226 95.7747 38.0188 95.7747H84.3775L84.3883 95.7802ZM83.7993 82.489C83.7993 85.0924 83.6318 87.6465 83.8425 90.1623C84.1181 93.3577 87.0848 95.7967 90.2784 95.7747C93.472 95.7528 96.363 93.3248 96.6548 90.1677C96.8709 87.8109 96.7683 85.4213 96.8061 83.0425C96.8033 82.8593 96.7907 82.6763 96.7683 82.4944L83.7993 82.489Z" fill="#603DBD"/>
<path d="M46.4969 66.2764C45.7242 66.2051 45.0217 66.1613 44.3354 66.0736C42.3414 65.8269 41.385 64.4622 41.8011 62.4562C41.9578 61.7162 42.1253 60.9708 42.3414 60.2638C42.4905 59.8977 42.5043 59.4892 42.3802 59.1136C42.2561 58.738 42.0025 58.4205 41.666 58.2194C41.0573 57.7742 40.4796 57.2871 39.9368 56.7615C38.4508 55.2926 38.4508 53.7634 39.9368 52.311C40.5154 51.7558 41.1292 51.2395 41.7741 50.7653C42.0699 50.5653 42.29 50.2692 42.398 49.9255C42.506 49.5819 42.4956 49.2112 42.3685 48.8744C42.1685 48.1455 41.9794 47.411 41.8281 46.682C41.3742 44.5609 42.4117 43.1468 44.53 42.9605C45.4378 42.8838 46.351 42.8564 47.2318 42.7029C47.5904 42.6056 47.897 42.3695 48.0856 42.0452C48.3632 41.467 48.6104 40.8742 48.8259 40.2694C49.02 39.7778 49.2532 39.3031 49.523 38.8498C50.3444 37.5727 51.4575 37.2055 52.8301 37.8413C53.632 38.2235 54.3972 38.6804 55.1159 39.2061C55.4505 39.5021 55.8795 39.6653 56.3236 39.6653C56.7677 39.6653 57.1967 39.5021 57.5314 39.2061C58.1871 38.7093 58.8851 38.2727 59.6172 37.9016C61.1573 37.1233 62.492 37.5398 63.3133 39.0745C63.7467 39.8883 64.1083 40.7393 64.3941 41.6177C64.5028 41.9949 64.7375 42.322 65.0579 42.543C65.3783 42.764 65.7645 42.8651 66.1503 42.8289C67.0146 42.8327 67.8769 42.9115 68.7279 43.0646C70.5436 43.4538 71.3001 44.7089 70.9218 46.5505C70.7597 47.3398 70.549 48.118 70.349 48.8963C70.2247 49.2189 70.2103 49.5743 70.3083 49.9061C70.4062 50.2378 70.6108 50.5268 70.8894 50.727C71.4788 51.1617 72.0418 51.6321 72.5754 52.1356C74.31 53.7798 74.2991 55.3474 72.5483 56.9752C72.0845 57.4201 71.5897 57.8304 71.0677 58.203C70.7121 58.4137 70.4441 58.7484 70.3139 59.1448C70.1836 59.5411 70.2 59.972 70.3598 60.357C70.6462 61.2478 70.8418 62.1661 70.9434 63.0974C71.0677 64.791 70.1545 65.8379 68.4901 66.0681C67.7498 66.1722 67.0041 66.2106 66.1827 66.2873V67.0218C66.1827 72.426 66.1827 77.832 66.1827 83.2399C66.1827 83.788 66.1341 84.2648 65.6045 84.5388C65.3669 84.6543 65.0993 84.6904 64.8401 84.6422C64.581 84.594 64.3435 84.4638 64.1617 84.2703C61.73 82.3629 59.2984 80.483 56.8559 78.5646C56.7905 78.4898 56.7102 78.43 56.6203 78.389C56.5304 78.348 56.433 78.3268 56.3344 78.3268C56.2359 78.3268 56.1384 78.348 56.0485 78.389C55.9587 78.43 55.8784 78.4898 55.813 78.5646C53.4083 80.4665 50.9766 82.3355 48.5557 84.221C48.3792 84.4183 48.148 84.5569 47.8925 84.6185C47.6369 84.6801 47.3689 84.6619 47.1237 84.5662C46.5185 84.2867 46.4861 83.7441 46.4861 83.1631C46.4861 77.8028 46.4861 72.4424 46.4861 67.0821L46.4969 66.2764ZM44.6975 49.1923C44.7461 50.4639 44.4543 51.2093 43.8545 51.7958C43.2547 52.3822 42.59 52.8919 41.947 53.4729C40.8338 54.4211 40.8338 54.602 41.947 55.5612C42.4874 56.038 43.0872 56.4819 43.6275 56.9807C44.0849 57.3756 44.4208 57.8956 44.5951 58.4786C44.7695 59.0616 44.775 59.6832 44.611 60.2693C44.4057 61.1901 44.2003 62.1109 43.9734 63.0097C43.8221 63.6017 44.1085 63.8264 44.6218 63.8702C45.2811 63.9251 45.9403 63.9963 46.5996 64.0018C48.4423 64.0018 49.7229 64.8294 50.3822 66.6272C50.5821 67.1753 50.7983 67.7508 51.0307 68.2988C51.5062 69.4334 51.6305 69.4772 52.6518 68.8469C53.2516 68.4742 53.8352 68.0741 54.435 67.7014C55.0029 67.3062 55.6754 67.0947 56.3641 67.0947C57.0528 67.0947 57.7254 67.3062 58.2933 67.7014C58.9687 68.1289 59.628 68.5839 60.3089 69.0004C60.9897 69.417 61.2005 69.3786 61.5463 68.6003C61.9192 67.7343 62.238 66.8464 62.6271 65.9914C62.8298 65.484 63.1656 65.0426 63.5981 64.7151C64.0305 64.3875 64.5432 64.1863 65.0804 64.1333C66.053 64.0237 67.0311 63.9634 68.0038 63.8702C68.7495 63.7935 68.8846 63.6236 68.7225 62.9001C68.5604 62.1766 68.4145 61.4586 68.1821 60.7516C67.6417 58.9758 68.1821 57.5891 69.6087 56.4874C70.1527 56.0672 70.6768 55.6233 71.1812 55.1556C71.7756 54.6075 71.781 54.4266 71.1812 53.8785C70.4895 53.2427 69.7384 52.6727 69.0521 52.0314C68.6123 51.6581 68.2859 51.1658 68.1109 50.6119C67.9358 50.0579 67.9193 49.4649 68.0632 48.9018C68.274 47.981 68.5009 47.0657 68.7009 46.1614C68.8576 45.4324 68.7333 45.246 67.9876 45.1748C67.2419 45.1035 66.5772 45.0432 65.8747 45.0323C65.0932 45.0738 64.3205 44.8486 63.6799 44.3926C63.0394 43.9366 62.5679 43.2761 62.3407 42.5165C62.1678 42.0452 61.984 41.5683 61.8003 41.1025C61.2059 39.5842 61.0978 39.5513 59.7577 40.4173L58.4392 41.2778C57.8291 41.7353 57.0904 41.9822 56.3317 41.9822C55.573 41.9822 54.8343 41.7353 54.2243 41.2778C53.6839 40.9051 53.1435 40.527 52.5653 40.1817C51.6575 39.6336 51.5278 39.6665 51.1171 40.6366C50.8199 41.3381 50.5767 42.0507 50.2741 42.7522C50.0198 43.4519 49.5532 44.0517 48.9414 44.4653C48.3297 44.879 47.6044 45.0852 46.8698 45.0542C46.1403 45.0542 45.4162 45.1364 44.7083 45.2022C44.1409 45.246 43.8113 45.4872 44.0166 46.1449C44.1247 46.4957 44.1841 46.8629 44.2652 47.2411C44.4273 48.003 44.6056 48.8086 44.6975 49.2142V49.1923ZM48.7179 81.2887L55.4239 76.0489C56.1642 75.5008 56.5046 75.4734 57.2503 76.0489C58.7688 77.2273 60.2818 78.4166 61.7949 79.595L63.9564 81.2393V68.6332C63.8105 68.962 63.7402 69.1265 63.67 69.2909C62.6703 71.56 61.1627 72.0642 59.0606 70.8091C58.4716 70.4583 57.8934 70.0911 57.3368 69.7129C57.057 69.4902 56.7117 69.3692 56.356 69.3692C56.0004 69.3692 55.655 69.4902 55.3752 69.7129C54.6621 70.2061 53.9245 70.6616 53.1651 71.0777C51.5008 71.9327 50.1606 71.4778 49.2798 69.8171C49.1015 69.4882 48.9556 69.1429 48.7395 68.6606L48.7179 81.2887Z" fill="#603DBD"/>
<path d="M44.6976 49.2142C44.6057 48.8086 44.4274 48.0029 44.2491 47.1917C44.168 46.8355 44.1086 46.4682 44.0005 46.0955C43.7952 45.4378 44.1248 45.1967 44.6922 45.1528C45.4217 45.087 46.1458 45.0268 46.8537 45.0048C47.5883 45.0358 48.3136 44.8296 48.9253 44.416C49.5371 44.0023 50.0037 43.4025 50.258 42.7028C50.5444 42.0013 50.7984 41.2888 51.101 40.5872C51.5117 39.6171 51.6414 39.5787 52.5492 40.1323C53.0896 40.4776 53.657 40.8558 54.2082 41.2285C54.8182 41.686 55.5569 41.9329 56.3156 41.9329C57.0743 41.9329 57.813 41.686 58.4231 41.2285L59.7416 40.368C61.0817 39.502 61.1898 39.5349 61.7842 41.0531C61.9679 41.519 62.1517 41.9958 62.3246 42.4672C62.5518 43.2267 63.0233 43.8872 63.6638 44.3432C64.3044 44.7992 65.0771 45.0244 65.8586 44.9829C66.5611 44.9829 67.269 45.0542 67.9715 45.1254C68.674 45.1967 68.8415 45.383 68.6848 46.112C68.4848 47.0328 68.2579 47.9481 68.0471 48.8524C67.9032 49.4156 67.9197 50.0085 68.0948 50.5625C68.2698 51.1165 68.5962 51.6087 69.036 51.9821C69.7223 52.6233 70.4734 53.1933 71.1651 53.8291C71.7595 54.3772 71.7541 54.5471 71.1651 55.1062C70.6643 55.5702 70.1402 56.0142 69.5926 56.4381C68.1714 57.5342 67.6419 58.9264 68.166 60.7022C68.3768 61.4093 68.5281 62.1327 68.7064 62.8507C68.8847 63.5687 68.7334 63.7441 67.9877 63.8209C67.015 63.914 66.037 63.9743 65.0643 64.084C64.5271 64.137 64.0144 64.3381 63.582 64.6657C63.1495 64.9932 62.8137 65.4346 62.611 65.942C62.2219 66.797 61.9031 67.6849 61.5302 68.5509C61.1844 69.3292 60.9899 69.3895 60.2928 68.951C59.5957 68.5125 58.9526 68.0796 58.2772 67.652C57.7093 67.2568 57.0368 67.0453 56.3481 67.0453C55.6594 67.0453 54.9868 67.2568 54.4189 67.652C53.8191 68.0247 53.2355 68.4249 52.6357 68.7976C51.6198 69.4333 51.4955 69.3895 51.0146 68.2495C50.7822 67.7014 50.5661 67.1533 50.3661 66.5778C49.7339 64.78 48.4532 63.9743 46.5835 63.9524C45.9242 63.9524 45.265 63.8757 44.6057 63.8209C44.0924 63.777 43.806 63.5523 43.9573 62.9604C44.1842 62.045 44.3896 61.1242 44.5949 60.2199C44.7589 59.6338 44.7534 59.0122 44.579 58.4292C44.4047 57.8462 44.0688 57.3263 43.6114 56.9313C43.0711 56.4326 42.4875 55.9886 41.9309 55.5118C40.8069 54.5526 40.8069 54.3717 41.9309 53.4235C42.5739 52.8754 43.2332 52.3274 43.8384 51.7464C44.4436 51.1654 44.7462 50.4858 44.6976 49.2142ZM65.1237 54.5526C65.1244 52.7975 64.6142 51.0813 63.657 49.6192C62.6999 48.1571 61.3384 47.0142 59.7433 46.3338C58.1483 45.6535 56.3906 45.466 54.6909 45.7948C52.9912 46.1237 51.4251 46.9542 50.1889 48.1823C48.9528 49.4104 48.1017 50.9814 47.7423 52.6982C47.383 54.4151 47.5314 56.2013 48.169 57.8329C48.8066 59.4645 49.905 60.8688 51.3264 61.8697C52.7478 62.8706 54.4289 63.4235 56.1589 63.4591C57.3261 63.4787 58.4855 63.2631 59.5698 62.8248C60.6542 62.3864 61.642 61.7341 62.4759 60.9056C63.3098 60.0771 63.9733 59.0889 64.4278 57.9984C64.8823 56.9078 65.1189 55.7366 65.1237 54.5526V54.5526Z" fill="white"/>
<path d="M48.7188 81.3105V68.7044C48.9457 69.1867 49.0916 69.532 49.2591 69.8609C50.1399 71.5052 51.48 71.9765 53.1444 71.1215C53.9037 70.7054 54.6414 70.2499 55.3545 69.7567C55.6343 69.5341 55.9797 69.413 56.3353 69.413C56.691 69.413 57.0363 69.5341 57.3161 69.7567C57.8565 70.1514 58.4509 70.5186 59.0399 70.8529C61.1419 72.1081 62.6496 71.6038 63.6493 69.3347C63.7195 69.1703 63.7898 69.0059 63.9357 68.677V81.2831L61.7742 79.6389C60.2611 78.4605 58.7481 77.2711 57.2296 76.0927C56.4947 75.5446 56.1489 75.5446 55.4032 76.0927L48.7188 81.3105Z" fill="white"/>
<path d="M65.1237 54.5527C65.1159 56.3197 64.5905 58.0445 63.6141 59.5079C62.6378 60.9713 61.2545 62.1073 59.6402 62.7715C58.0259 63.4358 56.2533 63.5983 54.5477 63.2384C52.8421 62.8785 51.2804 62.0124 50.0612 60.7503C48.842 59.4881 48.0202 57.8868 47.7002 56.1499C47.3803 54.4129 47.5766 52.6187 48.2643 50.9952C48.952 49.3717 50.1 47.9922 51.5625 47.0319C53.0249 46.0717 54.7358 45.5741 56.4777 45.6023C58.791 45.637 60.9973 46.5968 62.6165 48.273C64.2357 49.9492 65.1367 52.2061 65.1237 54.5527ZM56.3102 47.866C55.0032 47.8695 53.7269 48.2677 52.6438 49.0097C51.5608 49.7517 50.72 50.804 50.2288 52.0324C49.7375 53.2609 49.6179 54.6098 49.8853 55.9075C50.1527 57.2051 50.7949 58.3925 51.7301 59.3186C52.6653 60.2446 53.8512 60.8673 55.1366 61.1072C56.422 61.3472 57.7487 61.1935 58.9477 60.6659C60.1467 60.1382 61.1636 59.2604 61.8689 58.1444C62.5743 57.0283 62.936 55.7246 62.9081 54.3992C62.8797 52.6479 62.1704 50.9789 60.9348 49.7553C59.6991 48.5318 58.037 47.8527 56.3102 47.866V47.866Z" fill="#603DBD"/>
</g>
<defs>
<clipPath id="clip0_105_62">
<rect width="70" height="71" fill="white" transform="translate(29 27)"/>
</clipPath>
</defs>
</svg>
