<svg width="120" height="120" viewBox="0 0 120 120" fill="none" xmlns="http://www.w3.org/2000/svg">
<circle cx="60" cy="60" r="59" fill="#D3FC66" stroke="#603DBD" stroke-width="2"/>
<path d="M23.5 48L60 30L98 48L60 66L23.5 48Z" fill="white"/>
<path d="M82.3366 96.2562C82.1433 94.1455 81.9934 92.0308 81.8119 89.9162C81.7883 89.762 81.7968 89.6047 81.8369 89.4539C81.8769 89.3032 81.9477 89.1624 82.0447 89.0403C83.6662 86.9099 83.1652 84.4125 80.8611 83.1224C80.7184 83.063 80.5988 82.9591 80.5199 82.8261C80.441 82.6932 80.4071 82.5384 80.4232 82.3847C80.4429 81.3786 80.4548 80.3686 80.4232 79.3626C80.3968 79.1319 80.4389 78.8986 80.5441 78.6917C80.6493 78.4847 80.8131 78.3133 81.015 78.1987C82.7324 77.0818 84.2224 75.6494 85.4061 73.9773C86.3506 72.6548 86.8482 71.0653 86.8264 69.4403C86.7751 65.5147 86.8264 61.5892 86.7948 57.6637C86.7597 57.3964 86.8194 57.1252 86.9635 56.8974C87.1077 56.6696 87.3272 56.4996 87.5838 56.417C91.5291 54.5863 95.4744 52.7124 99.4433 50.866C99.9766 50.6481 100.458 50.3201 100.856 49.9033V48.7671C100.766 48.8248 100.662 48.8556 100.556 48.8556C100.449 48.8556 100.345 48.8248 100.256 48.7671C94.4328 45.816 88.4676 43.153 82.5734 40.344C76.2609 37.3456 69.9485 34.4261 63.6361 31.4237C62.8234 31.0292 61.9909 30.686 61.1861 30.2756C60.8446 30.0946 60.464 30 60.0775 30C59.691 30 59.3104 30.0946 58.9689 30.2756C55.0512 32.1694 51.102 34.0079 47.1607 35.8582C41.1113 38.704 35.0619 41.5499 29.0125 44.3957C26.2508 45.6779 23.5444 46.9878 20.7985 48.2582C20.677 48.3113 20.5597 48.3732 20.4473 48.4436C19.5952 48.9841 19.5754 49.7218 20.4473 50.2505C21.0174 50.5898 21.6062 50.8967 22.2109 51.1698C25.6748 52.7847 29.1348 54.4088 32.5908 56.0422C32.9334 56.1744 33.2223 56.4166 33.4122 56.7308C33.6022 57.045 33.6824 57.4133 33.6403 57.7781C33.6166 61.6799 33.6403 65.5818 33.6403 69.4837C33.6273 70.957 34.0606 72.3998 34.883 73.6222C36.1968 75.6146 37.9959 77.0941 39.9724 78.3565C44.7778 81.4536 50.1039 83.0909 55.7535 83.7182C62.4386 84.4668 69.2039 83.4803 75.3969 80.8539C75.9611 80.6211 76.4937 80.3095 77.0579 80.0648C77.8154 79.7492 78.1665 79.9583 78.2415 80.7553C78.277 81.1261 78.2415 81.5009 78.2651 81.8678C78.3091 82.221 78.2452 82.5792 78.0819 82.8953C77.9185 83.2115 77.6633 83.4708 77.3498 83.6393C75.5035 84.886 75.1997 86.9099 76.5095 88.6852C76.7836 89.0399 76.912 89.4858 76.8685 89.9319C76.7291 91.9151 76.5634 93.8969 76.3714 95.8775C76.2902 96.4078 76.3947 96.95 76.6673 97.4122C76.7817 97.5976 76.8882 97.7791 76.758 98H81.5397C81.8329 97.8236 82.0659 97.5627 82.2081 97.2515C82.3504 96.9403 82.3952 96.5933 82.3366 96.2562ZM84.2383 69.9729C84.2178 70.4791 84.0829 70.9741 83.8437 71.4208C83.0902 72.9989 81.8711 74.1391 80.5494 75.224C80.3246 74.9676 80.4153 74.719 80.4153 74.4981C80.4153 69.8308 80.4153 65.1636 80.4153 60.4963C80.3821 60.2798 80.427 60.0586 80.5419 59.8721C80.6568 59.6857 80.8343 59.5461 81.0426 59.4785C82.0881 59.0366 83.102 58.5316 84.2462 57.9951C84.2422 62.0705 84.2462 66.0197 84.2383 69.9729ZM77.1881 77.4886C73.2436 79.6249 68.923 80.978 64.4646 81.4733C57.3454 82.3864 50.1157 81.1498 43.7046 77.9226C41.4023 76.8192 39.3237 75.2997 37.5737 73.4408C36.978 72.8372 36.5111 72.1189 36.2012 71.3296C35.8912 70.5402 35.7448 69.6961 35.7707 68.8485C35.8575 65.2701 35.7983 61.6878 35.7983 57.9793L45.551 62.5755C50.0328 64.6823 54.5186 66.7733 58.9886 68.8879C59.3127 69.0609 59.6745 69.1515 60.042 69.1515C60.4094 69.1515 60.7712 69.0609 61.0954 68.8879C66.3557 66.3919 71.6239 63.9103 76.9001 61.4432C77.1841 61.313 77.4682 61.1907 77.7641 61.0487C77.8862 61.2926 77.9223 61.5707 77.8667 61.8377C77.8667 66.6667 77.8667 71.4997 77.8903 76.3287C77.9148 76.572 77.8595 76.8167 77.7329 77.0259C77.6062 77.2351 77.415 77.3975 77.1881 77.4886ZM61.1664 48.0648L60.8113 47.8833C59.9236 47.4612 59.1622 47.6466 58.8387 48.3647C58.5152 49.0827 58.8189 49.7731 59.7066 50.2189L75.8467 58.2988C76.1223 58.3804 76.3687 58.5392 76.5568 58.7565L71.5464 61.1237C67.9299 62.828 64.3107 64.5376 60.689 66.2525C60.512 66.3598 60.311 66.4211 60.1042 66.4308C59.8975 66.4404 59.6916 66.3981 59.5054 66.3077C47.7012 60.7291 35.8917 55.161 24.077 49.6035C23.9626 49.5482 23.8481 49.4812 23.6075 49.347L35.0053 43.9894C43.1773 40.1467 51.3466 36.2987 59.5133 32.4455C59.6696 32.3549 59.8461 32.305 60.0266 32.3001C60.2072 32.2953 60.3861 32.3358 60.547 32.4179C72.3354 37.9807 84.1278 43.537 95.9241 49.0867C96.0701 49.1537 96.2082 49.2287 96.3621 49.3036C96.2792 49.5916 96.007 49.6074 95.8176 49.6982C90.669 52.1324 85.5086 54.5469 80.368 56.9969C80.1511 57.1135 79.9077 57.1719 79.6615 57.1663C79.4154 57.1608 79.1749 57.0916 78.9634 56.9653C73.0298 53.9827 67.0974 51.0159 61.1664 48.0648ZM79.2672 95.4553C79.0424 95.4237 78.6439 95.6131 78.6754 95.1673C78.782 93.6365 78.924 92.1097 79.0502 90.579H79.2396C79.2909 91.1629 79.3382 91.7625 79.3895 92.3346C79.4684 93.2262 79.5513 94.1179 79.6302 95.0134C79.6539 95.2778 79.6144 95.5066 79.2672 95.4553ZM79.1528 87.8015C78.9029 87.803 78.658 87.7306 78.4492 87.5932C78.2403 87.4558 78.0768 87.2598 77.9792 87.0296C77.8816 86.7995 77.8543 86.5457 77.9007 86.3C77.9471 86.0544 78.0651 85.828 78.2399 85.6494C78.4147 85.4707 78.6385 85.3478 78.8831 85.2961C79.1276 85.2444 79.382 85.2662 79.6142 85.3588C79.8464 85.4514 80.046 85.6106 80.1878 85.8164C80.3297 86.0222 80.4075 86.2654 80.4114 86.5153C80.401 86.8484 80.2658 87.1655 80.0327 87.4037C79.7997 87.6419 79.4856 87.7839 79.1528 87.8015Z" fill="#603DBD"/>
</svg>
