<svg width="120" height="120" viewBox="0 0 120 120" fill="none" xmlns="http://www.w3.org/2000/svg">
<circle cx="60" cy="60" r="59.5" fill="#D3FC66" stroke="#603DBD"/>
<g clip-path="url(#clip0_105_63)">
<path d="M75.7182 78.8769C82.0251 78.8769 88.3319 78.8769 94.6388 78.8769C95.0846 78.8957 95.5293 78.8182 95.9449 78.6491C96.3605 78.48 96.7381 78.2231 97.0538 77.8945C97.3696 77.5658 97.6167 77.1726 97.7796 76.7396C97.9425 76.3065 98.0177 75.843 98.0004 75.3782V59.5766C98.0175 59.1126 97.9427 58.6499 97.7806 58.2175C97.6185 57.785 97.3726 57.392 97.0583 57.0631C96.7439 56.7341 96.3679 56.4763 95.9538 56.3057C95.5396 56.1351 95.0961 56.0554 94.6511 56.0715H64.1822C63.737 56.0519 63.2927 56.1284 62.8772 56.2963C62.4617 56.4642 62.084 56.7199 61.7678 57.0472C61.4515 57.3745 61.2036 57.7665 61.0396 58.1985C60.8755 58.6304 60.7989 59.0931 60.8145 59.5575C60.8145 62.2134 60.8512 64.8757 60.8145 67.5317C60.8403 69.3217 60.4304 71.0893 59.623 72.6693C58.8156 74.2492 57.637 75.5898 56.1976 76.5657C55.6832 76.936 55.2363 77.319 55.4567 78.066C55.6771 78.813 56.2221 78.8896 56.865 78.8832L75.7182 78.8769ZM75.7917 51.5066C82.0986 51.5066 88.4054 51.5066 94.7123 51.5066C95.1458 51.5153 95.5766 51.4327 95.9789 51.2639C96.3812 51.0951 96.7467 50.8434 97.0536 50.524C97.3606 50.2046 97.6026 49.8239 97.7653 49.4048C97.9279 48.9857 98.0079 48.5367 98.0004 48.0846C98.0004 45.02 98.0004 41.9576 98.0004 38.8973C97.9988 38.0095 97.6594 37.1586 97.0567 36.5313C96.454 35.9041 95.6373 35.5519 94.7858 35.5519H64.0352C63.3454 35.5413 62.6715 35.7684 62.118 36.1977C61.5644 36.6271 61.1622 37.2349 60.9737 37.9269C60.8405 38.6696 60.7871 39.4255 60.8145 40.1806C60.8268 41.9678 60.4096 43.7297 59.601 45.3055C58.7924 46.8813 57.6181 48.2209 56.1853 49.2019C55.6649 49.5722 55.224 49.9552 55.4506 50.7022C55.6771 51.4492 56.2282 51.5194 56.865 51.5194C63.1841 51.5066 69.493 51.5024 75.7917 51.5066ZM57.6059 86.8702C54.0361 86.8702 50.4602 86.8702 46.8843 86.8702C46.5301 86.8357 46.1763 86.9405 45.8923 87.1639C45.6438 87.5095 45.532 87.9415 45.58 88.3706C45.6964 88.9707 46.1923 89.1431 46.8047 89.1431C53.932 89.1431 61.0594 89.1431 68.1867 89.1431C69.1113 89.1431 69.5828 88.7409 69.5706 87.9747C69.5583 87.2086 69.0868 86.8702 68.1806 86.8702H57.6059ZM38.967 54.9479C39.5415 54.9496 40.1106 54.8323 40.6412 54.6027C41.1718 54.3731 41.6533 54.0358 42.0579 53.6105C42.4624 53.1851 42.7818 52.6802 42.9975 52.1251C43.2132 51.5699 43.321 50.9756 43.3145 50.3766C43.3177 49.7776 43.2068 49.1839 42.9881 48.63C42.7694 48.0761 42.4473 47.5731 42.0405 47.1501C41.6337 46.7272 41.1503 46.3928 40.6185 46.1663C40.0867 45.9398 39.517 45.8258 38.9425 45.8309C38.3621 45.8239 37.7862 45.9387 37.2492 46.1684C36.7122 46.3982 36.225 46.7382 35.8166 47.1682C35.4081 47.5983 35.0868 48.1096 34.8717 48.6717C34.6566 49.2338 34.5521 49.8353 34.5645 50.4404C34.566 51.0389 34.6815 51.6311 34.9043 52.1827C35.1271 52.7343 35.4527 53.2342 35.8623 53.6535C36.2718 54.0728 36.7572 54.4032 37.2902 54.6254C37.8231 54.8475 38.3931 54.9572 38.967 54.9479ZM38.918 82.3181C39.7835 82.3219 40.6305 82.0578 41.3519 81.5592C42.0733 81.0606 42.6365 80.35 42.9702 79.5174C43.304 78.6847 43.3932 77.7676 43.2266 76.8821C43.0599 75.9965 42.645 75.1825 42.0343 74.5431C41.4236 73.9036 40.6447 73.4676 39.7961 73.2901C38.9475 73.1127 38.0675 73.2018 37.2676 73.5463C36.4677 73.8907 35.7838 74.475 35.3026 75.225C34.8213 75.9751 34.5645 76.8572 34.5645 77.7596C34.562 78.3564 34.673 78.9478 34.8909 79.4997C35.1088 80.0516 35.4294 80.553 35.8342 80.975C36.2389 81.3971 36.7198 81.7313 37.2491 81.9586C37.7784 82.1858 38.3456 82.3015 38.918 82.2989V82.3181ZM50.9623 59.5128H46.7495C45.9903 59.5128 45.5249 59.9341 45.5249 60.6237C45.5249 61.3132 45.9658 61.7856 46.7495 61.792H55.2118C55.9772 61.792 56.4364 61.3706 56.4364 60.6811C56.4364 59.9916 55.9955 59.5192 55.2118 59.5128H50.9623ZM48.7212 48.091C49.4499 48.091 50.1785 48.091 50.9011 48.091C51.0488 48.1042 51.1975 48.0853 51.3379 48.0356C51.4783 47.9858 51.6073 47.9062 51.7166 47.8018C51.826 47.6973 51.9133 47.5704 51.9732 47.429C52.0331 47.2875 52.0641 47.1347 52.0644 46.9801C52.0724 46.8197 52.0469 46.6595 51.9897 46.5105C51.9326 46.3614 51.8451 46.2271 51.7334 46.1166C51.6217 46.0062 51.4883 45.9223 51.3425 45.8708C51.1967 45.8192 51.0419 45.8013 50.8888 45.8181C49.4805 45.8181 48.0721 45.8181 46.6638 45.8181C46.5182 45.8066 46.3718 45.8267 46.234 45.8771C46.0961 45.9274 45.9697 46.007 45.8628 46.1107C45.7558 46.2144 45.6706 46.3401 45.6124 46.4798C45.5543 46.6195 45.5245 46.7703 45.5249 46.9226C45.5161 47.0826 45.5407 47.2427 45.5971 47.3918C45.6536 47.5408 45.7404 47.6753 45.8517 47.7859C45.963 47.8964 46.096 47.9804 46.2415 48.032C46.387 48.0836 46.5416 48.1015 46.6944 48.0846C47.3619 48.0973 48.0415 48.091 48.7212 48.091ZM48.7212 54.9287C49.4315 54.9287 50.1357 54.9287 50.8398 54.9287C50.9926 54.9507 51.1482 54.9381 51.296 54.892C51.4438 54.8458 51.5803 54.7671 51.6964 54.6612C51.8125 54.5553 51.9055 54.4246 51.969 54.278C52.0325 54.1314 52.065 53.9723 52.0644 53.8114C52.0716 53.6511 52.0453 53.491 51.9874 53.3422C51.9295 53.1934 51.8413 53.0595 51.729 52.9497C51.6167 52.8398 51.4828 52.7567 51.3367 52.706C51.1906 52.6552 51.0357 52.6381 50.8827 52.6559C49.4662 52.6559 48.0558 52.6559 46.6516 52.6559C46.5057 52.6452 46.3592 52.6663 46.2215 52.7179C46.0839 52.7695 45.9581 52.8505 45.8521 52.9556C45.7461 53.0607 45.6622 53.1877 45.6059 53.3284C45.5496 53.4692 45.522 53.6206 45.5249 53.7731C45.5145 53.933 45.5375 54.0933 45.5924 54.2429C45.6473 54.3926 45.7327 54.528 45.8428 54.6397C45.9529 54.7515 46.085 54.837 46.23 54.8902C46.3749 54.9434 46.5292 54.9631 46.6822 54.9479C47.3619 54.9479 48.0477 54.9479 48.7273 54.9479L48.7212 54.9287ZM48.7212 75.4548C49.4499 75.4548 50.1724 75.4548 50.9011 75.4548C51.0442 75.4569 51.1863 75.4296 51.3193 75.3744C51.4523 75.3192 51.5736 75.2373 51.6762 75.1332C51.7789 75.0292 51.8608 74.9051 51.9175 74.768C51.9741 74.6309 52.0043 74.4835 52.0063 74.3343C52.0083 74.1851 51.9821 74.0369 51.9292 73.8982C51.8763 73.7595 51.7977 73.6331 51.6979 73.5261C51.5981 73.419 51.4791 73.3336 51.3476 73.2745C51.2161 73.2155 51.0748 73.184 50.9317 73.1819C49.5029 73.1819 48.0742 73.1819 46.6454 73.1819C46.4998 73.1712 46.3536 73.1923 46.2163 73.244C46.079 73.2956 45.9535 73.3767 45.848 73.4819C45.7424 73.5871 45.6592 73.7142 45.6036 73.8549C45.5479 73.9957 45.5211 74.147 45.5249 74.2992C45.5178 74.4596 45.5441 74.6197 45.602 74.7684C45.6599 74.9172 45.7481 75.0511 45.8604 75.161C45.9727 75.2708 46.1065 75.3539 46.2526 75.4047C46.3987 75.4554 46.5536 75.4725 46.7067 75.4548C47.3619 75.4675 48.0477 75.4548 48.7334 75.4548H48.7212ZM48.7702 82.2989C49.4743 82.2989 50.1785 82.2989 50.8827 82.2989C51.1717 82.2989 51.449 82.1792 51.6534 81.9661C51.8578 81.753 51.9726 81.4639 51.9726 81.1625C51.9726 80.8611 51.8578 80.572 51.6534 80.3589C51.449 80.1458 51.1717 80.0261 50.8827 80.0261C49.4744 80.0261 48.066 80.0261 46.6577 80.0261C46.3686 80.0261 46.0914 80.1458 45.887 80.3589C45.6826 80.572 45.5678 80.8611 45.5678 81.1625C45.5678 81.4639 45.6826 81.753 45.887 81.9661C46.0914 82.1792 46.3686 82.2989 46.6577 82.2989C47.3619 82.3117 48.0783 82.2989 48.7824 82.2989H48.7702Z" fill="white"/>
<path d="M75.4423 23.0255C75.6756 23.1826 75.8637 23.4027 75.9867 23.6624C76.1096 23.9221 76.1627 24.2117 76.1404 24.5003C76.1036 26.9456 76.1404 29.3972 76.1404 31.8424C76.1404 32.7682 75.773 33.247 75.0688 33.2598C74.3647 33.2726 73.9605 32.781 73.9605 31.8169C73.9605 29.9016 73.9605 27.9862 73.9605 26.0709V25.3494H45.5246V39.7719C45.5246 40.9467 45.2 41.2787 44.055 41.2787H30.2167V93.6569H73.9177V92.9035C73.9177 89.4623 73.9177 86.0147 73.9177 82.5734C73.9177 81.6541 74.2912 81.1688 74.9954 81.1625C75.6995 81.1561 76.0975 81.6413 76.0975 82.5479C76.0975 86.5658 76.0975 90.5795 76.0975 94.589C76.0975 95.6169 75.7363 95.9872 74.7259 95.9872C59.6017 95.9872 44.4755 95.9872 29.3472 95.9872C29.0773 96.0029 28.8082 95.9439 28.5673 95.8161C28.3264 95.6882 28.1222 95.4961 27.9756 95.2594V39.6762C28.2511 39.3697 28.5206 39.0377 28.8083 38.7504L42.7018 24.2641C43.1182 23.8299 43.5468 23.4213 43.9754 22.9872L75.4423 23.0255ZM31.9679 38.9356H43.2835V27.1116L31.9679 38.9356Z" fill="#603DBD"/>
<path d="M75.7179 78.8769H56.8586C56.2156 78.8769 55.6707 78.7876 55.4502 78.0597C55.2298 77.3319 55.6768 76.9297 56.1912 76.5594C57.6342 75.5871 58.817 74.2488 59.6288 72.6699C60.4406 71.091 60.8547 69.3231 60.8325 67.5317C60.8754 64.8758 60.8325 62.2135 60.8325 59.5575C60.8169 59.0932 60.8935 58.6305 61.0576 58.1985C61.2217 57.7666 61.4696 57.3746 61.7858 57.0473C62.102 56.7199 62.4798 56.4643 62.8953 56.2964C63.3107 56.1285 63.755 56.052 64.2002 56.0716H94.6691C95.1142 56.0555 95.5576 56.1352 95.9718 56.3058C96.386 56.4764 96.762 56.7342 97.0763 57.0632C97.3906 57.3921 97.6365 57.7851 97.7986 58.2175C97.9607 58.65 98.0356 59.1127 98.0185 59.5767V75.3782C98.034 75.842 97.9575 76.3041 97.7938 76.7357C97.6302 77.1672 97.3828 77.5589 97.0672 77.8861C96.7517 78.2133 96.3747 78.4691 95.9599 78.6374C95.5452 78.8057 95.1015 78.8829 94.6568 78.8642C88.3377 78.8812 82.0248 78.8854 75.7179 78.8769ZM59.6079 76.5785H60.0855C71.5154 76.5785 82.9453 76.5785 94.3752 76.5785C95.4039 76.5785 95.8019 76.1508 95.8019 75.0463V59.8831C95.8019 58.7531 95.41 58.3509 94.3078 58.3509H64.5064C63.3614 58.3509 62.9817 58.7403 62.9817 59.9278C62.9817 62.5838 62.9817 65.2461 62.9817 67.9084C62.9561 68.8786 62.8351 69.8434 62.6205 70.7878C62.1212 72.9603 61.0822 74.9575 59.6079 76.5785Z" fill="#603DBD"/>
<path d="M75.7908 51.5066C69.4839 51.5066 63.175 51.5066 56.8641 51.5066C56.2517 51.5066 55.6762 51.4236 55.4496 50.6894C55.223 49.9551 55.6639 49.5593 56.1844 49.189C57.6197 48.2108 58.797 46.8733 59.6089 45.2985C60.4207 43.7237 60.8412 41.962 60.8319 40.1741C60.8045 39.4191 60.8579 38.6632 60.9911 37.9204C61.1797 37.2285 61.5819 36.6207 62.1354 36.1913C62.6889 35.7619 63.3628 35.5349 64.0527 35.5454H94.7971C95.6486 35.5454 96.4653 35.8977 97.068 36.5249C97.6707 37.1521 98.0101 38.003 98.0117 38.8909C98.0117 41.9511 98.0117 45.0136 98.0117 48.0781C98.0201 48.5318 97.9403 48.9826 97.7773 49.4034C97.6142 49.8241 97.3713 50.2061 97.0629 50.5264C96.7546 50.8467 96.3873 51.0986 95.9832 51.2671C95.5791 51.4355 95.1464 51.517 94.7113 51.5066C88.4045 51.5151 82.0976 51.5151 75.7908 51.5066ZM59.6072 49.2018C59.7848 49.2018 59.846 49.2592 59.9073 49.2592H94.5093C95.3971 49.2592 95.8074 48.7868 95.8135 47.8163C95.8135 44.9859 95.8135 42.1576 95.8135 39.3314C95.8135 38.2843 95.4032 37.8566 94.4052 37.8566H64.4017C63.4036 37.8566 63.0362 38.2907 62.9933 39.3442C62.9909 40.4801 62.9172 41.6147 62.7729 42.7407C62.349 45.1717 61.248 47.4188 59.6072 49.2018Z" fill="#603DBD"/>
<path d="M57.606 86.8702H68.1807C69.0746 86.8702 69.5339 87.2469 69.5522 87.9811C69.5706 88.7153 69.093 89.1494 68.1684 89.1494C61.0411 89.1494 53.9137 89.1494 46.7863 89.1494C46.174 89.1494 45.6842 88.9771 45.5617 88.3769C45.5136 87.9478 45.6254 87.5159 45.874 87.1702C46.158 86.9468 46.5117 86.8421 46.8659 86.8766C50.4602 86.8702 54.0362 86.8702 57.606 86.8702Z" fill="#603DBD"/>
<path d="M38.967 54.9478C38.3931 54.9571 37.8231 54.8474 37.2901 54.6252C36.7572 54.403 36.2718 54.0727 35.8623 53.6534C35.4527 53.2341 35.1271 52.7341 34.9043 52.1826C34.6815 51.631 34.566 51.0388 34.5645 50.4403C34.5521 49.8352 34.6566 49.2337 34.8717 48.6716C35.0868 48.1094 35.4081 47.5981 35.8166 47.1681C36.225 46.7381 36.7122 46.398 37.2492 46.1683C37.7862 45.9386 38.3621 45.8238 38.9425 45.8307C39.517 45.8257 40.0867 45.9397 40.6185 46.1662C41.1503 46.3926 41.6337 46.7271 42.0405 47.15C42.4473 47.573 42.7694 48.076 42.9881 48.6299C43.2068 49.1838 43.3177 49.7775 43.3145 50.3765C43.321 50.9754 43.2132 51.5698 42.9975 52.1249C42.7818 52.6801 42.4624 53.185 42.0579 53.6104C41.6533 54.0357 41.1718 54.373 40.6412 54.6026C40.1106 54.8322 39.5415 54.9495 38.967 54.9478ZM36.7565 50.3893C36.7721 50.988 37.0075 51.5577 37.4143 51.9807C37.8211 52.4037 38.3682 52.6476 38.9425 52.6621C39.5168 52.6459 40.0632 52.4004 40.4688 51.9763C40.8745 51.5521 41.1084 50.9817 41.1224 50.3829C41.1053 49.7852 40.8691 49.2171 40.4625 48.7955C40.0559 48.3739 39.5097 48.1308 38.9364 48.1164C38.3662 48.1323 37.8233 48.3742 37.4183 48.793C37.0133 49.2117 36.7766 49.7757 36.7565 50.3701V50.3893Z" fill="#603DBD"/>
<path d="M38.9176 82.2988C38.0524 82.2937 37.2081 82.0211 36.4916 81.5154C35.7751 81.0098 35.2186 80.2938 34.8926 79.4582C34.5666 78.6226 34.4857 77.7049 34.6601 76.8213C34.8346 75.9377 35.2565 75.1279 35.8726 74.4945C36.4886 73.8611 37.2711 73.4325 38.1209 73.2631C38.9707 73.0936 39.8496 73.1908 40.6464 73.5424C41.4431 73.8941 42.1219 74.4843 42.5968 75.2384C43.0717 75.9925 43.3213 76.8765 43.314 77.7786C43.3149 78.3779 43.2013 78.9713 42.9799 79.5243C42.7586 80.0774 42.4338 80.5789 42.0245 80.9996C41.6153 81.4204 41.1298 81.752 40.5964 81.975C40.063 82.1981 39.4923 82.3082 38.9176 82.2988ZM36.7561 77.7148C36.7501 78.1661 36.8727 78.6091 37.1083 78.9876C37.344 79.3662 37.6822 79.6633 38.08 79.8412C38.4777 80.0192 38.9172 80.07 39.3428 79.9872C39.7683 79.9045 40.1606 79.6918 40.4701 79.3763C40.7796 79.0608 40.9923 78.6565 41.0812 78.2148C41.1701 77.7732 41.1313 77.3139 40.9696 76.8952C40.8079 76.4766 40.5307 76.1174 40.173 75.8632C39.8153 75.609 39.3933 75.4713 38.9605 75.4675C38.387 75.4768 37.8389 75.7151 37.4288 76.1331C37.0187 76.5512 36.778 77.1172 36.7561 77.7148Z" fill="#603DBD"/>
<path d="M50.9613 59.4937H55.1924C55.9945 59.4937 56.4538 59.9406 56.417 60.662C56.3803 61.3835 55.9517 61.7665 55.1924 61.7729H46.7485C45.9525 61.7729 45.4933 61.326 45.5239 60.6046C45.5545 59.8831 45.9893 59.5 46.7485 59.4937H50.9613Z" fill="#603DBD"/>
<path d="M48.7208 48.0909C48.0411 48.0909 47.3553 48.0909 46.6756 48.0909C46.5237 48.105 46.3706 48.0847 46.2269 48.0314C46.0832 47.9782 45.9522 47.8931 45.8429 47.7822C45.7336 47.6713 45.6485 47.537 45.5936 47.3887C45.5386 47.2403 45.5151 47.0813 45.5245 46.9226C45.523 46.768 45.5526 46.6148 45.6115 46.4729C45.6704 46.331 45.7572 46.2036 45.8663 46.0988C45.9753 45.9941 46.1043 45.9145 46.2448 45.865C46.3852 45.8155 46.5341 45.7974 46.6818 45.8117C48.0901 45.8117 49.4984 45.8117 50.9067 45.8117C51.0599 45.7948 51.2146 45.8128 51.3604 45.8644C51.5062 45.9159 51.6396 45.9998 51.7513 46.1102C51.8631 46.2206 51.9505 46.355 52.0077 46.5041C52.0648 46.6531 52.0903 46.8133 52.0824 46.9736C52.0821 47.1282 52.051 47.2811 51.9911 47.4225C51.9313 47.564 51.8439 47.6909 51.7345 47.7953C51.6252 47.8997 51.4962 47.9794 51.3559 48.0291C51.2155 48.0789 51.0667 48.0978 50.919 48.0845C50.1781 48.0973 49.4494 48.0909 48.7208 48.0909Z" fill="#603DBD"/>
<path d="M48.7264 54.9478C48.0467 54.9478 47.367 54.9478 46.6812 54.9478C46.5283 54.963 46.3739 54.9433 46.229 54.8901C46.0841 54.8369 45.952 54.7515 45.8419 54.6397C45.7318 54.528 45.6463 54.3926 45.5914 54.2429C45.5365 54.0933 45.5135 53.933 45.5239 53.7731C45.5208 53.6189 45.5488 53.4657 45.6063 53.3235C45.6637 53.1813 45.7492 53.0534 45.8573 52.948C45.9653 52.8425 46.0934 52.762 46.2333 52.7117C46.3731 52.6614 46.5216 52.6423 46.669 52.6558C48.0773 52.6558 49.4877 52.6558 50.9001 52.6558C51.0531 52.6381 51.208 52.6552 51.3541 52.7059C51.5002 52.7567 51.6341 52.8398 51.7464 52.9496C51.8587 53.0595 51.9469 53.1934 52.0048 53.3422C52.0627 53.4909 52.089 53.651 52.0818 53.8114C52.0824 53.9723 52.0498 54.1314 51.9864 54.278C51.9229 54.4246 51.8299 54.5552 51.7138 54.6612C51.5977 54.7671 51.4612 54.8458 51.3134 54.8919C51.1656 54.9381 51.01 54.9506 50.8572 54.9287C50.1408 54.9478 49.4366 54.9478 48.7264 54.9478Z" fill="#603DBD"/>
<path d="M48.733 75.4547C48.0472 75.4547 47.3676 75.4547 46.6879 75.4547C46.5363 75.4695 46.3834 75.4502 46.2396 75.3981C46.0957 75.3461 45.9642 75.2625 45.854 75.153C45.7437 75.0434 45.6573 74.9106 45.6005 74.7633C45.5436 74.616 45.5177 74.4577 45.5245 74.2991C45.5204 74.1446 45.5478 73.9909 45.6049 73.8483C45.662 73.7056 45.7475 73.5772 45.8557 73.4716C45.964 73.366 46.0925 73.2855 46.2328 73.2356C46.3731 73.1856 46.5219 73.1673 46.6695 73.1818C48.1023 73.1818 49.5311 73.1818 50.9557 73.1818C51.0989 73.1839 51.2402 73.2154 51.3717 73.2744C51.5031 73.3335 51.6222 73.419 51.722 73.526C51.8217 73.633 51.9003 73.7594 51.9533 73.8981C52.0062 74.0368 52.0324 74.185 52.0304 74.3342C52.0283 74.4835 51.9982 74.6308 51.9415 74.7679C51.8849 74.905 51.8029 75.0291 51.7003 75.1331C51.5977 75.2372 51.4764 75.3191 51.3434 75.3743C51.2104 75.4295 51.0683 75.4568 50.9251 75.4547C50.1842 75.4675 49.4617 75.4547 48.733 75.4547Z" fill="#603DBD"/>
<path d="M48.7815 82.2989C48.0774 82.2989 47.3732 82.2989 46.669 82.2989C46.38 82.2989 46.1027 82.1791 45.8983 81.966C45.6939 81.7529 45.5791 81.4638 45.5791 81.1624C45.5791 80.861 45.6939 80.572 45.8983 80.3589C46.1027 80.1457 46.38 80.026 46.669 80.026C48.0774 80.026 49.4857 80.026 50.894 80.026C51.1831 80.026 51.4603 80.1457 51.6647 80.3589C51.8691 80.572 51.9839 80.861 51.9839 81.1624C51.9839 81.4638 51.8691 81.7529 51.6647 81.966C51.4603 82.1791 51.1831 82.2989 50.894 82.2989C50.1898 82.3116 49.4857 82.2989 48.7815 82.2989Z" fill="#603DBD"/>
<path d="M31.9492 38.9101L43.2648 27.1116V38.9101H31.9492Z" fill="white"/>
<path d="M59.6074 76.5785C61.084 74.9582 62.1251 72.961 62.6261 70.7878C62.8407 69.8434 62.9618 68.8785 62.9874 67.9084C63.0364 65.2461 62.9874 62.5837 62.9874 59.9278C62.9874 58.7403 63.367 58.3508 64.5121 58.3508H94.3074C95.4096 58.3508 95.8014 58.7531 95.8014 59.8831V75.0654C95.8014 76.1699 95.4034 76.5976 94.3747 76.5976C82.9448 76.5976 71.5149 76.5976 60.085 76.5976L59.6074 76.5785ZM83.7143 65.195H90.1314C90.9948 65.195 91.4601 64.7672 91.4417 64.0202C91.4234 63.2733 90.9703 62.9157 90.1375 62.9157H77.4319C76.5747 62.9157 76.1094 63.3371 76.1277 64.0841C76.1461 64.8311 76.5992 65.195 77.4258 65.195H83.7143ZM72.8518 73.1756C74.2602 73.1756 75.6746 73.1756 77.0829 73.1756C77.8483 73.1756 78.3076 72.7542 78.3076 72.0711C78.3076 71.3879 77.8667 70.9027 77.0829 70.9027H68.6085C67.8431 70.9027 67.3838 71.3177 67.3838 72.0008C67.3838 72.684 67.8247 73.1692 68.6085 73.1756C70.0168 73.182 71.4374 73.1756 72.8457 73.1756H72.8518ZM85.9676 70.9091H81.7365C80.9711 70.9091 80.5119 71.3241 80.5119 72.0072C80.5119 72.6903 80.9528 73.182 81.7365 73.182C84.5614 73.182 87.3821 73.182 90.1987 73.182C90.9641 73.182 91.4234 72.767 91.4234 72.0774C91.4234 71.3879 90.9948 70.9091 90.2232 70.9091H85.9676ZM70.6597 65.2077C71.3639 65.2077 72.0681 65.2077 72.7722 65.2077C72.9218 65.2195 73.0721 65.1989 73.2137 65.1472C73.3553 65.0956 73.4852 65.014 73.5951 64.9076C73.7051 64.8013 73.7928 64.6724 73.8528 64.529C73.9128 64.3856 73.9438 64.2309 73.9438 64.0745C73.9438 63.9181 73.9128 63.7634 73.8528 63.62C73.7928 63.4767 73.7051 63.3478 73.5951 63.2414C73.4852 63.135 73.3553 63.0534 73.2137 63.0018C73.0721 62.9502 72.9218 62.9295 72.7722 62.9413C71.3639 62.9413 69.9556 62.9413 68.5472 62.9413C68.3977 62.9295 68.2474 62.9502 68.1058 63.0018C67.9642 63.0534 67.8343 63.135 67.7243 63.2414C67.6144 63.3478 67.5266 63.4767 67.4666 63.62C67.4067 63.7634 67.3757 63.9181 67.3757 64.0745C67.3757 64.2309 67.4067 64.3856 67.4666 64.529C67.5266 64.6724 67.6144 64.8013 67.7243 64.9076C67.8343 65.014 67.9642 65.0956 68.1058 65.1472C68.2474 65.1989 68.3977 65.2195 68.5472 65.2077C69.2453 65.2014 69.9494 65.195 70.6291 65.195L70.6597 65.2077Z" fill="white"/>
<path d="M59.6074 49.2018C61.2414 47.4164 62.3359 45.1696 62.7547 42.7407C62.8991 41.6147 62.9727 40.4801 62.9752 39.3441C63.018 38.2907 63.3854 37.8566 64.3835 37.8566H94.387C95.3851 37.8566 95.7892 38.2843 95.7953 39.3314C95.7953 42.1618 95.7953 44.9901 95.7953 47.8163C95.8076 48.7549 95.3973 49.2018 94.5095 49.2018H59.9258C59.8646 49.2018 59.8034 49.2018 59.6074 49.2018ZM84.8961 42.3895H79.6363C78.7668 42.3895 78.3076 42.7981 78.3137 43.5451C78.3198 44.2921 78.7852 44.6624 79.5995 44.6688H90.1804C90.9886 44.6688 91.4418 44.241 91.4356 43.5196C91.4295 42.7981 90.9703 42.3959 90.1498 42.3959L84.8961 42.3895ZM71.8231 42.3895H68.6146C67.8186 42.3895 67.39 42.8365 67.39 43.5579C67.39 44.2793 67.8553 44.6624 68.6146 44.6624H74.9153C75.7113 44.6624 76.1706 44.2155 76.14 43.4941C76.1093 42.7726 75.6746 42.3959 74.9153 42.3895H71.8231Z" fill="white"/>
<path d="M36.7559 50.3703C36.7713 49.7726 37.006 49.2038 37.4115 48.781C37.817 48.3582 38.3625 48.1135 38.9357 48.0974C39.509 48.1119 40.0552 48.3549 40.4618 48.7765C40.8685 49.1981 41.1046 49.7662 41.1217 50.3639C41.1078 50.9627 40.8738 51.5331 40.4682 51.9573C40.0625 52.3814 39.5161 52.627 38.9418 52.6432C38.3675 52.6286 37.8205 52.3847 37.4137 51.9617C37.0069 51.5388 36.7714 50.9691 36.7559 50.3703Z" fill="white"/>
<path d="M36.7559 77.7149C36.7595 77.2639 36.8915 76.8241 37.135 76.4513C37.3784 76.0785 37.7226 75.7894 38.1237 75.6206C38.5249 75.4518 38.965 75.4109 39.3885 75.5031C39.812 75.5953 40.1997 75.8164 40.5026 76.1384C40.8054 76.4605 41.0099 76.869 41.0899 77.3123C41.17 77.7555 41.1222 78.2136 40.9524 78.6285C40.7827 79.0434 40.4987 79.3964 40.1365 79.6429C39.7742 79.8895 39.3499 80.0184 38.9173 80.0133C38.3437 79.9906 37.8001 79.7398 37.3981 79.3124C36.9962 78.885 36.7664 78.3134 36.7559 77.7149Z" fill="white"/>
<path d="M83.7089 65.1949H77.4266C76.5999 65.1949 76.1468 64.7991 76.1285 64.084C76.1101 63.3689 76.5754 62.9156 77.4327 62.9156H90.1321C90.9649 62.9156 91.418 63.3115 91.4364 64.0202C91.4547 64.7288 90.9894 65.1949 90.126 65.1949H83.7089Z" fill="#603DBD"/>
<path d="M72.8464 73.1756C71.438 73.1756 70.0236 73.1756 68.6153 73.1756C67.8192 73.1756 67.3906 72.7287 67.3906 72.0008C67.3906 71.273 67.856 70.9027 68.6153 70.9027H77.0775C77.8796 70.9027 78.3327 71.3496 78.3021 72.0711C78.2715 72.7925 77.8306 73.1692 77.0775 73.1756C75.6691 73.182 74.2547 73.1756 72.8464 73.1756Z" fill="#603DBD"/>
<path d="M85.9678 70.9091H90.2234C91.0195 70.9091 91.4787 71.356 91.4481 72.0774C91.4175 72.7989 90.9766 73.1819 90.2234 73.1819C87.4068 73.1819 84.586 73.1819 81.7612 73.1819C80.9652 73.1819 80.506 72.7286 80.5366 72.0072C80.5672 71.2857 81.0081 70.9091 81.7612 70.9091H85.9678Z" fill="#603DBD"/>
<path d="M70.6288 65.195C69.9246 65.195 69.2204 65.195 68.5163 65.195C68.3667 65.2067 68.2164 65.1861 68.0748 65.1344C67.9332 65.0828 67.8034 65.0012 67.6934 64.8949C67.5834 64.7885 67.4957 64.6596 67.4357 64.5162C67.3757 64.3729 67.3447 64.2181 67.3447 64.0617C67.3447 63.9053 67.3757 63.7506 67.4357 63.6072C67.4957 63.4639 67.5834 63.335 67.6934 63.2286C67.8034 63.1222 67.9332 63.0407 68.0748 62.989C68.2164 62.9374 68.3667 62.9168 68.5163 62.9285C69.9246 62.9285 71.3329 62.9285 72.7413 62.9285C72.8909 62.9168 73.0411 62.9374 73.1827 62.989C73.3243 63.0407 73.4542 63.1222 73.5642 63.2286C73.6741 63.335 73.7619 63.4639 73.8219 63.6072C73.8819 63.7506 73.9128 63.9053 73.9128 64.0617C73.9128 64.2181 73.8819 64.3729 73.8219 64.5162C73.7619 64.6596 73.6741 64.7885 73.5642 64.8949C73.4542 65.0012 73.3243 65.0828 73.1827 65.1344C73.0411 65.1861 72.8909 65.2067 72.7413 65.195C72.0616 65.2014 71.3574 65.195 70.6288 65.195Z" fill="#603DBD"/>
<path d="M84.8961 42.3897H90.1498C90.9703 42.3897 91.4295 42.7983 91.4357 43.5134C91.4418 44.2284 90.9887 44.6626 90.1804 44.6626H79.5996C78.7852 44.6626 78.326 44.2476 78.3137 43.5389C78.3015 42.8302 78.7668 42.3833 79.6363 42.3833L84.8961 42.3897Z" fill="#603DBD"/>
<path d="M71.8537 42.3896H74.9153C75.6807 42.3896 76.1399 42.811 76.1399 43.4942C76.1399 44.1773 75.699 44.6625 74.9153 44.6625H68.6084C67.843 44.6625 67.3838 44.2475 67.3838 43.558C67.3838 42.8685 67.8247 42.396 68.6084 42.3896H71.8537Z" fill="#603DBD"/>
</g>
<defs>
<clipPath id="clip0_105_63">
<rect width="70" height="73" fill="white" transform="translate(28 23)"/>
</clipPath>
</defs>
</svg>
