<svg width="60" height="60" viewBox="0 0 60 60" fill="none" xmlns="http://www.w3.org/2000/svg">
<path d="M44.8408 21.1023C43.7552 21.5743 42.59 21.8988 41.3657 22.0404C42.6165 21.3029 43.5723 20.1347 44.0266 18.7452C42.8347 19.4398 41.5342 19.9285 40.1798 20.1907C39.6101 19.5936 38.9247 19.1187 38.1655 18.7951C37.4062 18.4715 36.589 18.306 35.7637 18.3086C32.4213 18.3086 29.7132 20.9784 29.7132 24.2676C29.7132 24.7337 29.7663 25.188 29.8696 25.6246C27.4722 25.5108 25.1248 24.8985 22.9773 23.8267C20.8298 22.755 18.9293 21.2474 17.397 19.4001C16.8588 20.3061 16.5754 21.3406 16.5769 22.3944C16.5769 24.4594 17.6477 26.2884 19.2702 27.3533C18.3098 27.3232 17.37 27.0675 16.5267 26.607V26.6807C16.5358 28.0656 17.0247 29.4046 17.91 30.4696C18.7954 31.5346 20.0225 32.2598 21.3824 32.5217C20.4896 32.7578 19.5555 32.7921 18.6478 32.622C19.0434 33.8134 19.8003 34.8521 20.8131 35.5938C21.826 36.3355 23.0447 36.7434 24.3 36.7609C22.1464 38.4204 19.5022 39.317 16.7834 39.3097C16.2966 39.3097 15.8158 39.2802 15.3408 39.2271C18.1152 40.9832 21.3322 41.9133 24.6156 41.9086C35.7489 41.9086 41.8348 32.8285 41.8348 24.952L41.8141 24.1791C43.0009 23.3451 44.0264 22.3026 44.8408 21.1023Z" fill="#E9E4F5"/>
<path d="M12.3908 6.5084C10.826 6.5084 9.32535 7.13 8.21889 8.23647C7.11243 9.34293 6.49082 10.8436 6.49082 12.4084V47.8084C6.49082 49.3732 7.11243 50.8739 8.21889 51.9803C9.32535 53.0868 10.826 53.7084 12.3908 53.7084H47.7908C49.3556 53.7084 50.8563 53.0868 51.9627 51.9803C53.0692 50.8739 53.6908 49.3732 53.6908 47.8084V12.4084C53.6908 10.8436 53.0692 9.34293 51.9627 8.23647C50.8563 7.13 49.3556 6.5084 47.7908 6.5084H12.3908ZM12.3908 0.608398H47.7908C50.9204 0.608398 53.9217 1.85161 56.1347 4.06454C58.3476 6.27747 59.5908 9.27884 59.5908 12.4084V47.8084C59.5908 50.938 58.3476 53.9393 56.1347 56.1523C53.9217 58.3652 50.9204 59.6084 47.7908 59.6084H12.3908C9.26127 59.6084 6.25989 58.3652 4.04696 56.1523C1.83403 53.9393 0.59082 50.938 0.59082 47.8084V12.4084C0.59082 9.27884 1.83403 6.27747 4.04696 4.06454C6.25989 1.85161 9.26127 0.608398 12.3908 0.608398Z" fill="#E9E4F5"/>
</svg>
