<svg version="1.2" xmlns="http://www.w3.org/2000/svg" viewBox="0 0 1200 842" width="400" height="281"><defs><linearGradient id="P" gradientUnits="userSpaceOnUse"/><radialGradient id="g1" cx="358.7" cy="739.7" r="331.7" href="#P"><stop stop-color="#7dddf9"/><stop offset="1" stop-color="#d4f3f9"/></radialGradient><radialGradient id="g2" cx="363" cy="737.1" r="343.8" href="#P"><stop stop-color="#7dddf9"/><stop offset="1" stop-color="#d4f3f9"/></radialGradient><radialGradient id="g3" cx="823" cy="587.3" r="343.7" href="#P"><stop stop-color="#7dddf9"/><stop offset="1" stop-color="#d4f3f9"/></radialGradient><radialGradient id="g4" cx="792.4" cy="573.3" r="279.5" href="#P"><stop stop-color="#7dddf9"/><stop offset="1" stop-color="#d4f3f9"/></radialGradient><radialGradient id="g5" cx="202.6" cy="670.9" r="1001.9" href="#P"><stop stop-color="#4d67b6"/><stop offset="1" stop-color="#d4f3f9" stop-opacity="0"/></radialGradient><linearGradient id="g6" x1="1016.4" y1="-375" x2="-204.6" y2="630.9" href="#P"><stop stop-color="#fff"/><stop offset=".6" stop-color="#2556ae"/></linearGradient><linearGradient id="g7" x1="105.3" y1="540.8" x2="206.5" y2="162.4" href="#P"><stop stop-color="#adb5dc"/><stop offset="1" stop-color="#fff"/></linearGradient><linearGradient id="g8" x1="239.3" y1="65.8" x2="429.6" y2="157.3" href="#P"><stop stop-color="#adb5dc"/><stop offset="1" stop-color="#fff"/></linearGradient><linearGradient id="g9" x1="914" y1="100.8" x2="1128.6" y2="204" href="#P"><stop stop-color="#adb5dc"/><stop offset="1" stop-color="#fff"/></linearGradient><linearGradient id="g10" x1="121.8" y1="276.2" x2="329" y2="375.9" href="#P"><stop stop-color="#adb5dc"/><stop offset="1" stop-color="#fff"/></linearGradient></defs><style>tspan{white-space:pre}.a{fill:url(#g1)}.b{fill:url(#g2)}.c{fill:#76dbff}.d{fill:url(#g3)}.e{fill:url(#g4)}.f{fill:#c0f0ff}.g{fill:#e4f7ff}.h{opacity:.1;fill:#fff}.i{fill:url(#g5)}.j{opacity:.2;fill:#fff}.k{opacity:.5;fill:#fff}.l{fill:#fff}.m{fill:#06375b}.n{fill:#194c66}.o{opacity:.4;fill:#06375b}.p{fill:#fdfdfd}.q{fill:url(#g6)}.r{opacity:.2;mix-blend-mode:multiply;fill:#231f20}.s{opacity:.5;mix-blend-mode:multiply;fill:#1b75bc}.t{fill:#175689}.u{fill:#1b2142}.v{fill:url(#g7)}.w{opacity:.1;fill:#191d3f}.x{fill:url(#g8)}.y{fill:#fafafa}.z{fill:url(#g9)}.A{fill:#d8f0fa}.B{fill:#feaa32}.C{fill:#3e3f71}.D{fill:#e9aa8e}.E{fill:#fad1de}.F{fill:#312c58}.G{fill:#121e3c}.H{fill:#6f6eb2}.I{fill:#433a87}.J{fill:#574a9d}.K{opacity:.5;fill:#d0876a}.L{opacity:.5;fill:#574a9d}.M{fill:#242249}.N{fill:#0e4a72}.O{fill:#feb403}.P{fill:#db900b}.Q{opacity:.7;fill:#eaa11f}.R{fill:#eaa00c}.S{fill:#c67f0c}.T{fill:#f4bd21}.U{fill:#fd7a00}.V{fill:#f69b14}.W{fill:#f8d68c}.X{fill:#2b3990}.Y{fill:#14527c}.Z{opacity:.6;fill:#1b2142}.a0{opacity:.5;fill:#1b2142}.a1{fill:url(#g10)}.a2{opacity:.4;mix-blend-mode:soft-light;fill:#fff}.a3{fill:#203a6f}.a4{fill:#0f4c86}.a5{opacity:.2;fill:#574a9d}.a6{fill:#d0876a}.a7{opacity:.5;fill:#312c58}.a8{fill:#ea9024}.a9{fill:#d88225}.aa{opacity:.5;fill:#d88225}.ab{opacity:.3;fill:#e68d00}.ac{opacity:.3;fill:#1b2142}.ad{opacity:.7;fill:#efeece}</style><path class="a" d="m181.2 653.3c15.7 4.4 34.1-41.3 37.9-46.1q3.8-4.9 8.8-6.1c-55.3-2.6-62.3 47.8-46.7 52.2z"/><path class="b" d="m250.8 588.5q-6.4 6.3-22.2-17c-15.9-23.2-42.3-46.4-62.8-54.3-20.5-7.9-23.5-12.9-14.8-16.4 8.8-3.5 73.5 4.1 92.8 41.7 19.2 37.5 13.2 46.3 7 46z"/><path class="c" d="m272.8 677c0.1 1.2-0.9 2.2-2.1 2.2-1.2 0-2.2-0.9-2.2-2.1v-0.2c-0.1-18.2-2.9-36.8-7.4-54.7-2.3-8.9-5.2-17.7-8.6-26.3-3.5-8.6-7.5-16.9-12.3-24.9-2.3-4-4.9-7.8-7.5-11.6-2.8-3.7-5.6-7.5-8.7-10.9-6.1-6.9-12.8-13.4-20.2-19l-2.7-2.1c-1-0.7-2-1.3-2.9-2-2-1.2-3.9-2.6-5.8-3.8-4.1-2.3-8-4.8-12.3-6.6-8.3-4.2-17.2-7.1-26.1-9.8 9 2.5 17.9 5.2 26.3 9.3 4.4 1.8 8.4 4.2 12.5 6.4 2 1.2 3.9 2.5 5.9 3.7 1 0.7 2 1.3 2.9 2l2.9 2.1c7.6 5.4 14.4 11.8 20.7 18.7 3.3 3.5 6.1 7.2 9 10.8 2.7 3.9 5.5 7.7 7.9 11.7 4.9 8 9.2 16.3 12.9 24.9 3.6 8.7 6.7 17.6 9.2 26.6 5 18.1 8.1 36.6 8.6 55.6q0 0 0 0z"/><path class="c" d="m266.1 626.9c0.6 1 0.3 2.3-0.7 2.9-1.1 0.6-2.4 0.3-3-0.8h-0.1c-2.4-4.3-5.5-8.5-8.8-12.2-3.4-3.8-7.1-7.3-11.4-10-4.2-2.8-9-4.7-14.1-5.1-5-0.5-10.2 0.7-14.8 3.1 4.4-2.7 9.6-4.3 14.9-4.2 5.3 0.1 10.5 1.7 15.1 4.3 4.7 2.6 8.9 5.9 12.6 9.6 3.8 3.7 7.2 7.7 10.3 12.2q0 0.1 0 0.2z"/><path class="d" d="m1005.5 555.9q4.9 2.8 7.4 9.1c2.6 6.2 8.1 59.9 25.9 60.1 17.8 0.1 25.7-55.1-33.3-69.2z"/><path class="e" d="m1006.5 489.3c31.7-33.7 102.3-22.1 110.4-15.8 8.2 6.4 3.5 10.7-20.5 12.8-24.1 2.1-58.9 18.5-82.7 38.2q-23.7 19.7-28.5 11.2c-6.7-1.6-10.3-12.7 21.3-46.4z"/><path class="c" d="m935.1 622.2c6.3-19.8 15.2-38.4 25.9-55.9 5.4-8.8 11.3-17.2 17.8-25.2 6.5-8 13.6-15.5 21.2-22.4 3.8-3.5 7.8-6.7 11.8-9.9 4.2-3 8.3-6 12.8-8.6 8.7-5.4 17.9-10.1 27.6-13.5l3.6-1.4c1.2-0.4 2.4-0.7 3.6-1.1 2.5-0.7 4.9-1.5 7.4-2.2 5-1 10-2.4 15.1-3 10.1-1.7 20.3-1.8 30.5-1.8-10.2 0.2-20.4 0.5-30.4 2.4-5.1 0.7-10 2.1-15 3.3-2.4 0.7-4.8 1.5-7.2 2.3-1.3 0.4-2.5 0.7-3.7 1.2l-3.5 1.4c-9.5 3.6-18.6 8.4-27.1 13.9-4.3 2.6-8.3 5.7-12.4 8.8-3.9 3.2-7.9 6.4-11.5 9.9-7.4 7-14.2 14.5-20.5 22.5-6.2 8-11.9 16.5-17 25.2-10.2 17.5-18.7 36.2-24.5 55.4v0.1c-0.4 1.3-1.7 2-2.9 1.6-1.3-0.3-2-1.7-1.6-2.9q0 0 0-0.1z"/><path class="c" d="m957.5 571.3c4.5-3.8 9.3-7 14.4-9.7 5.1-2.8 10.6-5.1 16.2-6.3 5.7-1.3 11.7-1.5 17.3 0 5.6 1.5 10.6 4.8 14.4 8.9-4.1-3.8-9.2-6.7-14.7-7.8-5.4-1-11.1-0.4-16.4 1.2-5.3 1.5-10.3 4.1-15 7-4.6 3-9.1 6.5-13 10.2l-0.1 0.1c-0.9 0.9-2.4 0.9-3.3-0.1-0.9-0.9-0.9-2.4 0-3.3q0.1-0.1 0.2-0.2z"/><path class="f" d="m859 716.7c-1.3 7.9-8.7 13.7-16 17.5-6.5 3.5-13.4 6.2-20.2 9.2-33.3 0.6-66.4-4.4-99.8-1.7-3.6 0.2-6.3 1.7-8.1 3.8-11.6 0.6-23.2 1.2-34.3-1.4-12.9-3-25.3-11.2-28.9-23.8-0.4-1.2-0.6-2.5-0.4-3.7 0.4-2.5 2.6-4.5 4.6-6.1q22.1-18.1 44.2-36.2c2.8-2.2 5.8-5.1 5.5-8.5-0.2-2.2-1.8-3.9-3.4-5.4-5.5-5-12.4-8.3-17.7-13.5-5.3-5.2-8.9-13.3-5.6-20.3 3-6.5 10.6-9.6 17.6-10.9 7.1-1.3 14.5-1.5 20.9-4.9 2.8-1.5 5.5-4.1 5.5-7.2-0.1-1.9-1.1-3.5-2.2-5-6.5-9.3-14-18.2-18.6-28.7-2.4-5.5-4-11.7-2.2-17.6 1.8-5.8 8-10.9 13.9-9.7 7.1 1.4 13.4 10.6 19.5 6.3 4.6-3.3 2.2-10.1 0.8-15.3-3.8-13.8 4.4-30.4 18-36.5 13.7-6 30.9-0.8 38 11.5 1.3 2.2 2.3 4.7 1.6 7.3-0.7 2.7-3.1 4.7-5.4 6.4-4.2 3.1-8.5 6.2-11.6 10.4-3 4.3-4.4 10-2.1 14.4 4 7.8 15.6 6.7 24.4 4.2 8.8-2.6 19.9-4.8 25.3 2.1 4.5 5.9 1.5 14.8-3.6 20.7-5 5.8-11.9 9.9-17 15.7-4.4 5.2-7 13.5-2.4 18 4.8 4.6 12.9 1.9 19-1.2 6.1-3.2 13.7-6.7 19.3-3.2 3.8 2.5 5.1 7.3 6 11.8 3.5 16 6.5 34.5-4.1 47.9-3.5 4.3-8.5 8.5-8.2 13.9 0.1 2.6 1.6 4.9 3.3 6.9 4.6 5.4 10.9 9.1 16.1 14 5.2 4.8 9.5 11.6 8.3 18.8z"/><g style="opacity:.6"><path class="c" d="m730.9 703.7c-1.2-2.3-2.3-4.8-2.4-7.4-0.1-2.7 0.9-5.2 1.4-7.8 1.8-8.1 0.1-16.5 1-24.7 1.4-12.6 8.9-23.8 11.4-36.3 1.8-8.5 1.2-17.2 1-25.9-0.3-8.7-0.1-17.6 3-25.7 3.1-8 9.8-15.3 18.3-16.8 1-0.2 2.1-0.3 3 0.3 0.9 0.6 1.2 1.8 1.4 2.9 3.7 19 7.3 38 9.2 57.3 0.5 5.6 0.9 11.2 2.3 16.6 1.8 7 5.2 13.5 7.4 20.4 2.2 6.9 3 14.7-0.4 21.1-2.1 3.9-5.5 7-7.4 11-1.9 4.3-1.8 9.2-1.6 13.9q0.9 19.8 2.7 39.6c-8.1-0.4-16.2-0.9-24.3-1.1-1.3-2.5-2.6-5-4.1-7.3-6.7-10.5-16.2-19.1-21.9-30.1z"/></g><path class="g" d="m702.9 689.6l0.1-0.1c12.5 11.5 25.2 19.4 39.3 28.8 5.1 3.3 9.9 4.8 16.6 7.8-4.3-20.5-6-41.4-6.4-62.3-4.1-2.2-8.7-5.1-12.4-7.6-10.9-7.4-21.3-14.8-30.9-23.9l0.1-0.1c9.7 8.9 20 14.3 31 21.6 3.9 2.5 8.1 4.5 12.1 6.7q0-3.7-0.1-7.4 0.2-23.2 2.2-46.2c-1.8-1.8-4-3.6-5.6-5.5-4.4-5.3-8.4-10.9-11.9-16.8h0.1c3.6 5.8 8 10 12.4 15.2 1.6 1.9 3.4 3.5 5.2 5.2 1.3-14.3 3.1-28.6 5.5-42.7l0.3 0.1c-3.8 24.9-5.9 50.1-6.4 75.2 2-1.1 3.9-2.2 5.7-3.5 5.6-4 10.8-7.1 15.7-12v0.1c-4.7 4.9-9.9 9.5-15.4 13.6-1.8 1.3-4 2.4-6 3.6q-0.1 6.8-0.1 13.7 0.1 5.7 0.3 11.4 0 0.2 0 0.3 0 0 0 0 0.3 9.7 1.1 19.4c5.6-2.4 11.1-5.5 14.7-7.7 9.8-5.8 24.5-17.5 35.6-28.6l0.1 0.1c-10.9 11.3-19.2 20-35.2 31.1-4.5 3-10.1 6-14.9 8.8 1.6 18.2 4.5 36.1 9.7 53.5q-1.4-0.1-2.8-0.1-1.5-5.2-2.7-10.5c-5.5-3-12.1-5.8-17.3-9.2-14-9.6-27.4-20.3-39.7-32z"/><path class="h" d="m775.9 504.5q-29.1-11.1-37.9 20.8 10.8-18.7 29.5-18 18.7 0.6 8.4-2.8z"/><path class="h" d="m719.4 552.4q-17.3 6.6-6.7 21.9-18.9-32.9 6.7-21.9z"/><path class="h" d="m805.4 555.5q16.7 7.9 5 22.3 21.3-31.4-5-22.3z"/><path class="h" d="m693.2 633.6q-2.7 7.6 11 19.2-17.2-10-18.9-19.8-1.8-9.8 16-11.6c3.7 13-5.4 4.7-8.1 12.2z"/><path class="h" d="m820.6 607.7q17.2-4.7 19.1 5 1.9 9.7-10.5 25.3 8.6-15.8 3.3-21.8c-5.2-6.1-10.7 4.9-11.9-8.5z"/><path class="h" d="m837 702.8q17.8 0.9 16.6 10.7-1.2 9.9-17.8 20.8 13-12.4 9.9-19.7c-3.1-7.4-11.7 1.4-8.7-11.8z"/><path class="h" d="m667.4 715.6q-2.5 11.7 16.6 20-28.7-2.7-23.1-23 29.7-23 30.6-21.8 13.2 17.5-24.1 24.8z"/><path class="f" d="m520.7 707c-0.5 9.9-8.7 17.9-17 23.6-7.5 5.2-15.6 9.5-23.4 14.1-40.6 5.2-81.8 3.7-122.1 11.6-4.4 0.9-7.4 3-9.4 5.8-14 2.4-28.1 4.6-42 3.1-16.2-1.9-32.5-10.2-38.7-25.1-0.5-1.4-1-2.9-1-4.5 0.2-3.1 2.6-5.7 4.8-8q24.5-25.2 49-50.3c3-3.1 6.3-7 5.5-11.1-0.5-2.7-2.7-4.6-4.8-6.2-7.4-5.3-16.3-8.5-23.5-14-7.3-5.6-12.8-15-9.8-24 2.8-8.3 11.7-13.2 20.1-15.8 8.4-2.5 17.5-3.8 24.8-8.8 3.2-2.3 6.2-5.8 5.7-9.6-0.3-2.3-1.9-4.1-3.3-5.8-9.3-10.5-19.6-20.3-26.7-32.5-3.7-6.3-6.5-13.7-5.1-21.1 1.3-7.4 8.2-14.5 15.6-13.9 8.9 0.8 17.8 11.1 24.6 5 5.2-4.6 1.4-12.6-1.1-18.8-6.6-16.3 1.1-37.6 16.9-46.9 15.9-9.3 37.7-5.4 48.1 8.7 1.8 2.5 3.3 5.5 2.9 8.6-0.5 3.5-3.2 6.2-5.7 8.6-4.7 4.4-9.6 8.8-12.7 14.4-3.1 5.6-4.1 12.8-0.7 17.8 6 9 20 6 30.4 1.7 10.4-4.3 23.7-8.5 31.2-0.8 6.3 6.5 3.9 17.8-1.5 25.6-5.4 7.9-13.2 13.8-18.5 21.6-4.8 7-6.8 17.4-0.5 22.3 6.4 5 16 0.6 23-4.1 7.1-4.7 15.8-10 23.1-6.5 5 2.4 7.2 8.2 9 13.5 6.5 19 12.7 41.3 1.6 59-3.7 5.8-9.2 11.7-8.1 18.2 0.6 3.1 2.7 5.7 5 7.9 6.4 6 14.6 9.6 21.6 14.9 7.1 5.2 13.2 12.9 12.7 21.8z"/><g style="opacity:.6"><path class="c" d="m362.5 708.9c-1.8-2.7-3.4-5.6-3.9-8.8-0.4-3.2 0.3-6.4 0.7-9.7 1-10-2.3-20.1-2.3-30.2 0-15.6 7.6-30.3 9-45.9 0.9-10.6-1-21.2-2.5-31.8-1.5-10.5-2.5-21.4 0.2-31.7 2.7-10.3 9.8-20.1 20-23.1 1.2-0.4 2.5-0.6 3.6 0 1.2 0.6 1.7 2 2.1 3.3 7.2 22.7 14.3 45.4 19.2 68.7 1.4 6.7 2.7 13.5 5.1 19.9 3.2 8.3 8.3 15.8 11.9 23.9 3.6 8.1 5.7 17.5 2.4 25.8-2 5.1-5.7 9.3-7.4 14.4-1.8 5.6-1 11.5-0.1 17.3 2.5 16 5.5 32 8.8 47.9-10 0.6-19.9 1.2-29.8 2-1.9-2.9-3.9-5.7-6.1-8.4-9.6-11.8-22.3-21-30.9-33.6z"/></g><path class="g" d="m326.4 695.5l0.1-0.1c16.9 12.3 33.4 20.3 52 29.7 6.7 3.3 12.7 4.5 21.3 7.3-8-24.5-13-49.8-16.4-75.3-5.3-2-11.4-5-16.2-7.5-14.4-7.5-28.1-15.1-41.1-24.9l0.1-0.1c13.1 9.5 26.5 14.7 41 22 5 2.6 10.4 4.5 15.6 6.6q-0.5-4.6-1.1-9.1-3-28.3-3.7-56.7c-2.5-1.9-5.4-3.8-7.6-5.9-6.1-5.8-11.8-12.1-16.9-18.8l0.1-0.1c5.2 6.6 11.1 11.1 17.3 16.9 2.2 2 4.7 3.7 7 5.6-0.4-17.7-0.1-35.3 0.8-52.9h0.4c-1.2 31-0.2 62 2.7 92.8 2.2-1.6 4.4-3.3 6.4-5.1 6.3-5.7 12.2-10.2 17.5-16.8v0.1c-5.1 6.7-10.8 13-16.9 18.8-2 1.8-4.6 3.5-6.8 5.2q0.8 8.3 1.8 16.7 0.9 6.9 1.9 13.9 0.1 0.2 0 0.3 0 0 0 0 1.8 11.8 4.1 23.6c6.5-3.8 12.7-8.3 16.8-11.4 11.2-8.5 27.6-24.9 39.5-39.9l0.2 0.1c-11.8 15.3-20.7 27-38.7 42.8-5 4.4-11.5 8.7-17 12.9 4.5 21.9 10.6 43.4 19.3 63.9q-1.7 0.1-3.5 0.3-2.5-6.2-4.7-12.4c-7.1-2.9-15.6-5.5-22.3-9-18.5-9.7-36.3-20.9-53-33.5z"/><path class="h" d="m389.9 459.4q-37-9.5-43.3 30.7 10.5-24.3 33.4-26.1 22.9-1.8 9.9-4.6z"/><path class="h" d="m327.5 525.7q-20.1 10.5-5.1 27.8-27.7-37.6 5.1-27.8z"/><path class="h" d="m432.9 517.6q21.5 7.3 9.3 26.6 21.6-41.4-9.3-26.6z"/><path class="h" d="m306.8 628.6q-2.2 9.5 16.1 21.8-22.4-9.8-25.9-21.5-3.4-11.7 18-16.3c6.3 15.3-5.9 6.4-8.2 16z"/><path class="h" d="m458.8 579.3q20.3-8.2 24 3.4 3.7 11.6-9.3 32.3 8.2-20.4 1-27.1c-7.2-6.6-12.4 7.6-15.7-8.6z"/><path class="h" d="m491.9 693.1q21.9-1.4 21.8 10.8-0.1 12.1-18.9 27.8 14.2-16.9 9.4-25.5c-4.8-8.5-14.1 3.4-12.3-13.1z"/><path class="h" d="m286.6 732.2q-1.4 14.6 23.1 22.2-35.4 0.5-31.4-25 33.1-32.2 34.4-30.8 18.6 19.5-26.1 33.6z"/><path class="f" d="m363.8 745.3l-108.8 7.4q5.9-2.7-15.4-44.3c-21.3-41.6 3.7-24-13.5-56.7-17.2-32.6 7.2-48.8 24.9-22.4 17.7 26.5 29.1 12.6 52.5 32.6 23.4 19.9 12.2 50.6 28.5 56.4 16.3 5.8 49.8 19.7 31.8 27z"/><path class="g" d="m307.2 749.2l-6.3 0.4c-14.5-18.9-66.7-85.4-68.9-118.3q37.3 79.9 75.2 117.9z"/><path class="f" d="m479.5 715.4c16.8-9.4 0.7-46 23.4-73.9 22.6-27.8 36.8-12.2 52.3-47.4 15.6-35.2 44.2-18.3 29.9 24.5-14.3 42.7 10.4 17.6-7.2 72.1q-17.6 54.4-10.8 57l-118.4 5.5c-20.4-6.7 14-28.4 30.8-37.8z"/><path class="g" d="m565.6 610.8c1.7 36.8-42.3 116.8-54.4 139.5l-6.3 0.3q33.1-46.7 60.7-139.8z"/><path class="f" d="m862.2 714.1c15.6-6.4 5.5-39.8 28-61.5 22.6-21.8 33.2-6.8 50.4-35.7 17.2-28.8 40.2-11.2 23.3 24.4-16.9 35.6 7.2 16.4-13.8 61.7q-20.9 45.4-15.3 48.3l-103.2-7.6c-17-8 15.1-23.2 30.6-29.6z"/><path class="g" d="m947.8 632.6c-2.4 32-48.8 96.7-61.7 115.1l-5.5-0.4q33.6-37 67.2-114.7z"/><ellipse class="i" cx="600.5" cy="763.5" rx="474.1" ry="22"/><path class="f" d="m173.8 586.4q-22.9-6.7-26.2-18.7-3.3-12-6.4-15 15.8-1.6 24.7 7.1 8.8 8.7 7.9 25.5-3.8-11.8-13.9-18.9 3.9 7.1 13.9 20z"/><path class="f" d="m220.4 489.9q-17.3-16.4-14.8-28.6 2.6-12.1 1.2-16.2 14.8 5.8 18.7 17.6 3.9 11.7-4.6 26.3 2-12.3-3.8-23.2 0.3 8 3.3 24.1z"/><path class="f" d="m210.2 713.7q-24.1 0.8-31.1-9.6-7-10.5-11-12.4 14.7-6.6 26-1 11.3 5.5 15.8 22-7.5-10.2-19.5-13.8 6.1 5.5 19.8 14.8z"/><path class="f" d="m978.7 720q-16.8-21.6-11.9-34.9 4.9-13.4 3.9-18.3 15.9 9.1 18.3 23 2.5 14-9.5 29.1 4.3-13.5-0.5-26.9-1 9.2-0.3 28z"/><path class="f" d="m1019.1 718.4q-3.7-23.6 5.7-31.7 9.4-8.1 10.7-12.3 8.3 13.6 4.2 25.4-4 11.7-19.6 18.1 9-8.5 11.1-20.7-4.7 6.6-12.1 21.2z"/><circle class="j" cx="1036.9" cy="439.3" r="4.4"/><circle class="k" cx="1036.9" cy="423.7" r="4.4"/><circle class="l" cx="1036.9" cy="408.2" r="4.4"/><circle class="j" cx="1036.9" cy="392.6" r="4.4"/><circle class="j" cx="217.4" cy="418.7" r="5.2"/><circle class="k" cx="217.4" cy="400.2" r="5.2"/><circle class="l" cx="217.4" cy="381.7" r="5.2"/><circle class="j" cx="217.4" cy="363.3" r="5.2"/><path class="m" d="m630.7 754.7q-96.9 0-188.8 0 17.9-18.4 145.6-25.4c14.3-0.8 28.8-1.1 43.2-1z"/><path class="n" d="m630.7 762.2h-167.6c-7.5 0-17.2-3.8-21.5-8.6h189.1z"/><path class="m" d="m608.6 728.3c14.4-0.1 28.9 0.2 43.2 1q127.7 7 145.6 25.4-91.9 0-188.8 0z"/><path class="n" d="m608.6 753.6h189.2c-4.4 4.8-14.1 8.6-21.6 8.6h-167.6z"/><path class="n" d="m553.3 641.7h125.8v100.7h-125.8z"/><path class="o" d="m553.3 673.3l125.8 21.7-125.8 21.1z"/><path class="m" d="m1006.8 646.4c0.2 11.8-4.4 23.9-12.6 33.1-8.2 9.3-19 14.6-29.6 14.6h-683.7c-17.1 0-29.5-13.8-29.7-32.8l-2.5-357.8-0.3-50.9c-0.1-11.7 4.6-23.6 12.8-32.8 8.2-9.1 19-14.3 29.5-14.3h679.7c16.9 0 29.5 13.6 29.7 32.4l0.7 43.1 4.2 253.6z"/><path class="p" d="m287.6 225.1h679.8c8.6 0 14.9 6.9 15.1 16.5l6.2 380.6c0.2 12.6-10.1 24.2-21.4 24.2h-683.3c-8.7 0-15-7-15.1-16.7l-2.8-380.7c-0.1-12.4 10.2-23.9 21.5-23.9z"/><path class="q" d="m285.6 636.5c-4.5 0-7.8-3.6-7.8-8.6l-2.9-380.7c0-3 1.2-6.2 3.4-8.6 2.1-2.4 4.9-3.7 7.7-3.7h679.9c4.4 0 7.7 3.5 7.7 8.5l6.2 380.6c0.1 3.1-1.1 6.3-3.3 8.7-2.1 2.4-4.9 3.8-7.7 3.8z"/><path fill-rule="evenodd" class="r" d="m760.6 347.6v27h68.7v-27h13.1v409.2h-13.1v-5.3h-68.7v5.3h-13.1v-409.2zm0 64.3h68.7v-33.8h-68.7zm0 261.4h68.7v-33.8h-68.7zm0 37.4h68.7v-33.8h-68.7zm0-74.7h68.7v-33.8h-68.7zm0-37.3h68.7v-33.8h-68.7zm0-37.4h68.7v-33.8h-68.7zm0-37.3h68.7v-33.8h-68.7zm0-37.3h68.7v-33.9h-68.7zm0-37.3h68.7v-33.8h-68.7zm0 298.7h68.7v-33.8h-68.7z"/><path fill-rule="evenodd" class="s" d="m768.3 772l-20.8-16.2h12.9l4.6 3.5 68.8 0.1-5-3.6h13.2l22.7 16.1q-6.7-0.1-13.5-0.1l-2.7-2-70-0.1 2.9 2.2q-6.6 0-13.1 0.1zm3.1-7.8l69.3 0.1-6.3-4.5h-68.8zm6.5 5l69.9 0.1-6.4-4.6h-69.4z"/><path fill-rule="evenodd" class="t" d="m762.5 347.7l1.2 26 70.2-0.7-1.2-26 13.4-0.2 19.1 424.1-13.3 0.2-1.6-34.3-70.2 0.7 1.6 34.3-13.4 0.2-19.1-424.2zm1.4 29.4l1.4 32.6 70.2-0.7-1.5-32.6zm83 284.2l-1.4-32.6-70.3 0.7 1.5 32.6zm-70 4.2l1.4 32.6 70.3-0.7-1.5-32.7zm68.4-40.2l-1.5-32.6-70.2 0.7 1.5 32.7zm-1.6-36.1l-1.5-32.6-70.2 0.7 1.5 32.6zm-1.6-36l-1.5-32.6-70.2 0.7 1.5 32.7zm-1.6-36.1l-1.5-32.6-70.2 0.7 1.5 32.7zm-1.7-36.1l-1.5-32.6-70.2 0.7 1.5 32.7zm-1.6-36.1l-1.5-32.6-70.2 0.7 1.5 32.6zm13 288.4l-1.5-32.6-70.2 0.7 1.5 32.6z"/><path class="u" d="m412.7 581.4c0.1 11.1-8.9 20.2-20 20.2h-14.5-12.2l-151.9 0.1h-9c-2.8 0-5.4-0.5-7.7-1.5-5-2.1-8.9-6-11-11-0.9-2.3-1.4-4.9-1.5-7.6h0.1l-0.4-305.6v-69.4l-0.1 0.1c0-11.2 9-20.2 20.1-20.2l187.6-0.1c11.1-0.1 20.1 8.9 20.1 20v54l-2.1 2.2 0.2 0.1c1.2 1.3 1.9 3 1.9 4.7v7.1l0.1 15.7c-0.1 1.7-0.7 3.4-2 4.6l2 1.9v9.6 8.1 9.9c-0.3 1.2-0.9 2.3-1.7 3.1l1.7 1.7 0.2 0.2 0.1 177.8v74.3z"/><path class="v" d="m400.6 216.9v338.3c0 2.4-0.6 4.6-1.7 6.5-2.3 3.8-6.4 6.4-11.1 6.4h-178.9c-5.6 0-10.4-3.6-12.1-8.6q-0.8-2-0.8-4.3v-338.3c5.1-4 11.6-6.5 18.6-6.5h167.5c7 0 13.4 2.5 18.5 6.5z"/><path class="w" d="m390.5 569.4q17.7-5 12.2-11 9.2 2.9-7.1 19.2c-15.2 15-70 6.5-119.3 3.6q-49.3-2.9-72.7-8.4 169.2 1.6 186.9-3.4z"/><path class="x" d="m400.9 158v58.9c-5.1-4-11.5-6.5-18.5-6.5h-167.5c-7 0-13.5 2.5-18.6 6.5v-58.9c0-7 5.8-12.8 12.9-12.8h178.9c7.1 0 12.8 5.8 12.8 12.8z"/><path fill-rule="evenodd" class="t" d="m190.5 156.3c0-10 8.1-18 18-18h179.7c9.9 0 18 8 18 18v399.3c0 9.9-8.1 18-18 18h-179.7c-9.9 0-18-8.1-18-18zm6.8 396.3c0 7.1 5.8 13 13 13h176.1c7.2 0 13-5.9 13-13v-391.8c0-7.2-5.8-13-13-13h-176.1c-7.2 0-13 5.8-13 13z"/><g style="opacity:.5"><path class="l" d="m525.7 530q-0.3 0.5-0.7 0.8-0.3 0.2-0.8 0.2-0.5 0-1-0.3-0.5-0.3-1.2-0.7-0.7-0.3-1.6-0.6-0.8-0.3-1.9-0.3-2 0-2.9 0.8-1 0.8-1 2.2 0 0.9 0.6 1.5 0.6 0.6 1.5 1 0.9 0.4 2.1 0.8 1.2 0.3 2.4 0.8 1.3 0.4 2.4 1 1.2 0.6 2.1 1.5 1 0.9 1.5 2.2 0.6 1.3 0.6 3.2 0 2-0.7 3.8-0.7 1.8-2.1 3.1-1.3 1.3-3.3 2.1-2 0.7-4.5 0.7-1.3 0-2.8-0.3-1.4-0.2-2.7-0.8-1.4-0.5-2.5-1.2-1.2-0.7-2.1-1.6l2-3.2q0.3-0.3 0.7-0.5 0.4-0.3 0.8-0.3 0.7 0 1.3 0.4 0.6 0.4 1.4 0.9 0.7 0.4 1.8 0.8 1 0.4 2.3 0.4 1.9 0 2.9-0.8 1.1-0.8 1.1-2.6 0-1-0.6-1.7-0.6-0.6-1.5-1.1-0.9-0.4-2.1-0.7-1.2-0.3-2.4-0.7-1.2-0.4-2.4-1-1.2-0.6-2.1-1.5-0.9-1-1.5-2.4-0.5-1.4-0.5-3.4 0-1.7 0.6-3.3 0.7-1.5 2-2.8 1.3-1.2 3.2-1.9 1.8-0.8 4.3-0.8 1.3 0 2.6 0.2 1.3 0.2 2.4 0.7 1.2 0.4 2.2 0.9 1 0.6 1.8 1.4z"/><path fill-rule="evenodd" class="l" d="m560.3 538.8q0 3.2-1.1 5.9-1.1 2.8-3.2 4.8-2 2-4.8 3.2-2.8 1.1-6.2 1.1-3.5 0-6.3-1.1-2.8-1.2-4.8-3.2-2-2-3.1-4.8-1.2-2.7-1.2-5.9 0-3.2 1.2-6 1.1-2.7 3.1-4.8 2-2 4.8-3.1 2.8-1.2 6.3-1.2 3.4 0 6.2 1.2 2.8 1.1 4.8 3.2 2.1 2 3.2 4.7 1.1 2.8 1.1 6zm-7 0q0-2.2-0.6-4-0.6-1.7-1.6-2.9-1.1-1.2-2.6-1.9-1.6-0.6-3.5-0.6-2 0-3.6 0.6-1.5 0.7-2.6 1.9-1 1.2-1.6 2.9-0.6 1.8-0.6 4 0 2.2 0.6 3.9 0.6 1.8 1.6 3 1.1 1.2 2.6 1.8 1.6 0.7 3.6 0.7 1.9 0 3.5-0.7 1.5-0.6 2.6-1.8 1-1.2 1.6-3 0.6-1.7 0.6-3.9z"/><path class="l" d="m582.5 524v5.3h-12.1v7.5h10.1v5.2h-10.1v11.5h-6.9v-29.5z"/><path class="l" d="m607.4 524v5.5h-8.3v24h-6.8v-24h-8.3v-5.5z"/><path class="l" d="m608 524h5.8q0.9 0 1.5 0.4 0.6 0.5 0.7 1.1l4.1 15.4q0.2 0.7 0.4 1.6 0.2 0.8 0.3 1.8 0.2-1 0.4-1.8 0.3-0.9 0.5-1.6l4.8-15.4q0.2-0.5 0.8-1 0.6-0.5 1.4-0.5h2q0.9 0 1.5 0.4 0.6 0.4 0.8 1.1l4.7 15.4q0.2 0.7 0.5 1.5 0.2 0.8 0.4 1.7 0.2-0.9 0.3-1.7 0.2-0.8 0.4-1.5l4-15.4q0.2-0.6 0.8-1 0.6-0.5 1.5-0.5h5.3l-9.1 29.5h-6.1l-5.6-18.3q-0.1-0.4-0.3-0.9-0.1-0.5-0.3-1.1-0.1 0.6-0.3 1.1-0.1 0.5-0.3 0.9l-5.6 18.3h-6.2z"/><path fill-rule="evenodd" class="l" d="m678.1 553.5h-5.2q-0.9 0-1.5-0.4-0.6-0.4-0.8-1.1l-1.8-5.1h-11.2l-1.7 5.1q-0.2 0.6-0.8 1-0.6 0.5-1.4 0.5h-5.3l11.4-29.5h6.9zm-18.9-11.2h8.1l-2.7-8.1q-0.3-0.7-0.7-1.8-0.3-1-0.6-2.2-0.4 1.2-0.7 2.2-0.4 1.1-0.7 1.9z"/><path fill-rule="evenodd" class="l" d="m687.4 542.6v10.9h-6.9v-29.5h9.6q3.2 0 5.5 0.7 2.2 0.7 3.6 1.8 1.5 1.2 2.1 2.8 0.7 1.6 0.7 3.5 0 1.4-0.4 2.7-0.4 1.3-1.2 2.3-0.7 1.1-1.8 2-1.1 0.8-2.6 1.4 0.7 0.3 1.3 0.8 0.6 0.5 1.1 1.2l6.2 10.3h-6.2q-1.7 0-2.4-1.3l-4.9-8.5q-0.3-0.6-0.8-0.9-0.4-0.2-1.2-0.2zm0-4.7h2.8q1.4 0 2.3-0.4 1-0.3 1.6-0.9 0.7-0.7 0.9-1.5 0.3-0.8 0.3-1.8 0-2-1.2-3.1-1.3-1-3.9-1h-2.8z"/><path class="l" d="m726.4 524v5.3h-12.1v6.9h9.3v5h-9.3v7h12.1v5.3h-19v-29.5z"/><path fill-rule="evenodd" class="l" d="m535 583.7q0 2-1.8 3.5-1.8 1.5-4.3 1.5h-6v-21.1h6q2.6 0 4.3 1.5 1.8 1.5 1.8 3.5zm-8.3 1.9h2.4q0.9 0 1.5-0.5 0.6-0.6 0.6-1.3v-11q0-0.8-0.6-1.3-0.6-0.6-1.5-0.6h-2.4z"/><path class="l" d="m540.5 588.7v-21.1h11v3.2h-7.1v5.8h5.2v3.2h-5.2v5.7h7.1v3.2z"/><path class="l" d="m560.8 588.7l-4.5-21.1h4l3.2 16.5 3.2-16.5h4.1l-4.7 21.1z"/><path class="l" d="m576.1 588.7v-21.1h11v3.2h-7.1v5.8h5.2v3.2h-5.2v5.7h7.1v3.2z"/><path class="l" d="m602.4 588.7h-10.5v-21.1h3.8v17.9h6.7z"/><path fill-rule="evenodd" class="l" d="m613.3 567.4q2.5 0 4.3 1.4 1.8 1.5 1.8 3.6v11.5q0 2.1-1.8 3.6-1.8 1.5-4.3 1.5-2.6 0-4.4-1.5-1.7-1.5-1.7-3.6v-11.5q0-2.1 1.8-3.6 1.8-1.4 4.3-1.4zm2.1 4.9q0-0.7-0.7-1.3-0.6-0.5-1.5-0.5-1 0-1.6 0.5-0.7 0.6-0.7 1.3v11.6q0 0.7 0.7 1.3 0.6 0.5 1.6 0.5 0.9 0 1.5-0.5 0.7-0.6 0.7-1.3z"/><path fill-rule="evenodd" class="l" d="m631 567.6q2.8 0 4.5 1.5 1.5 1.4 1.5 3.6v3q0 2.1-1.7 3.6-1.8 1.5-4.3 1.5h-2.2v7.9h-3.9v-21.1zm2.3 5.1q0-0.8-0.6-1.3-0.6-0.5-1.6-0.5h-2.3v6.7h2.3q0.9 0 1.6-0.5 0.6-0.6 0.6-1.3z"/><path class="l" d="m646.1 588.7h-3.8v-21.1h5.5l3.6 15.2 3.4-15.2h5.3v21.1h-3.8v-13.3l-3.4 13.3h-3.1l-3.7-13.2z"/><path class="l" d="m665.7 588.7v-21.1h11v3.2h-7.1v5.8h5.1v3.2h-5.1v5.7h7.1v3.2z"/><path class="l" d="m685.8 567.6l5.1 14.2v-14.2h3.8v21.1h-4.1l-5.3-13.5v13.5h-3.8v-21.1z"/><path class="l" d="m704.1 570.8h-4.1v-3.2h12v3.2h-4.1v17.9h-3.8z"/></g><g style="opacity:.5"><path class="l" d="m255.4 168q-0.2 0.2-0.4 0.3-0.1 0.1-0.4 0.1-0.2 0-0.5-0.1-0.2-0.2-0.6-0.3-0.3-0.2-0.8-0.4-0.4-0.1-0.9-0.1-1 0-1.5 0.4-0.4 0.4-0.4 1.1 0 0.4 0.3 0.7 0.2 0.3 0.7 0.5 0.4 0.2 1 0.4 0.6 0.2 1.2 0.4 0.7 0.2 1.2 0.5 0.6 0.3 1.1 0.8 0.4 0.4 0.7 1.1 0.3 0.6 0.3 1.5 0 1.1-0.3 1.9-0.4 0.9-1.1 1.6-0.6 0.6-1.6 1-1 0.4-2.2 0.4-0.7 0-1.4-0.1-0.7-0.2-1.4-0.4-0.7-0.3-1.3-0.6-0.5-0.4-1-0.8l1-1.6q0.1-0.2 0.3-0.3 0.2-0.1 0.5-0.1 0.3 0 0.6 0.2 0.3 0.2 0.7 0.4 0.4 0.2 0.9 0.4 0.5 0.2 1.2 0.2 0.9 0 1.4-0.4 0.5-0.4 0.5-1.3 0-0.5-0.3-0.8-0.3-0.4-0.7-0.6-0.5-0.2-1.1-0.3-0.5-0.2-1.2-0.4-0.6-0.2-1.1-0.5-0.6-0.3-1.1-0.7-0.4-0.5-0.7-1.2-0.3-0.7-0.3-1.7 0-0.9 0.3-1.6 0.4-0.8 1-1.4 0.6-0.7 1.6-1 0.9-0.4 2.1-0.4 0.7 0 1.3 0.1 0.7 0.1 1.2 0.3 0.6 0.2 1.1 0.5 0.5 0.3 0.9 0.7z"/><path fill-rule="evenodd" class="l" d="m272.6 172.3q0 1.6-0.6 3-0.5 1.3-1.5 2.3-1 1.1-2.4 1.6-1.4 0.6-3.1 0.6-1.7 0-3.1-0.6-1.5-0.5-2.5-1.6-1-1-1.5-2.3-0.6-1.4-0.6-3 0-1.6 0.6-3 0.5-1.3 1.5-2.3 1-1 2.5-1.6 1.4-0.6 3.1-0.6 1.7 0 3.1 0.6 1.4 0.6 2.4 1.6 1 1 1.5 2.4 0.6 1.3 0.6 2.9zm-3.5 0q0-1.1-0.3-2-0.3-0.8-0.8-1.4-0.5-0.6-1.3-1-0.7-0.3-1.7-0.3-1 0-1.8 0.3-0.8 0.4-1.3 1-0.5 0.6-0.8 1.4-0.3 0.9-0.3 2 0 1.1 0.3 2 0.3 0.8 0.8 1.4 0.5 0.7 1.3 1 0.8 0.3 1.8 0.3 1 0 1.7-0.3 0.8-0.3 1.3-1 0.5-0.6 0.8-1.4 0.3-0.9 0.3-2z"/><path class="l" d="m283.7 165v2.6h-6.1v3.7h5.1v2.6h-5.1v5.7h-3.4v-14.6z"/><path class="l" d="m296.1 165v2.7h-4.1v11.9h-3.4v-11.9h-4.2v-2.7z"/><path class="l" d="m296.4 165h2.8q0.5 0 0.8 0.2 0.3 0.2 0.4 0.5l2 7.7q0.1 0.3 0.2 0.8 0.1 0.4 0.1 0.8 0.1-0.4 0.3-0.9 0.1-0.4 0.2-0.7l2.4-7.7q0.1-0.3 0.4-0.5 0.3-0.2 0.7-0.2h1q0.4 0 0.7 0.2 0.3 0.2 0.4 0.5l2.4 7.7q0.1 0.3 0.2 0.7 0.1 0.4 0.2 0.9 0.1-0.5 0.2-0.9 0.1-0.4 0.2-0.7l2-7.7q0.1-0.3 0.4-0.5 0.3-0.2 0.7-0.2h2.7l-4.6 14.6h-3.1l-2.7-9q-0.1-0.3-0.2-0.5 0-0.3-0.1-0.5-0.1 0.2-0.2 0.5 0 0.2-0.1 0.5l-2.8 9h-3.1z"/><path fill-rule="evenodd" class="l" d="m331.3 179.6h-2.6q-0.5 0-0.8-0.2-0.2-0.2-0.4-0.5l-0.8-2.5h-5.6l-0.9 2.5q-0.1 0.3-0.4 0.5-0.3 0.2-0.7 0.2h-2.6l5.6-14.6h3.5zm-9.4-5.6h4l-1.3-4.1q-0.2-0.3-0.3-0.9-0.2-0.5-0.4-1.1-0.2 0.6-0.3 1.2-0.2 0.5-0.3 0.9z"/><path fill-rule="evenodd" class="l" d="m335.9 174.2v5.4h-3.4v-14.6h4.8q1.6 0 2.7 0.3 1.1 0.3 1.8 0.9 0.7 0.6 1.1 1.4 0.3 0.8 0.3 1.7 0 0.7-0.2 1.4-0.2 0.6-0.6 1.1-0.4 0.6-0.9 1-0.6 0.4-1.3 0.7 0.4 0.2 0.7 0.4 0.3 0.3 0.5 0.6l3.1 5.1h-3.1q-0.8 0-1.2-0.6l-2.4-4.3q-0.2-0.2-0.4-0.4-0.2-0.1-0.6-0.1zm0-2.3h1.3q0.7 0 1.2-0.2 0.5-0.2 0.8-0.5 0.3-0.3 0.5-0.7 0.1-0.4 0.1-0.9 0-1-0.6-1.5-0.6-0.6-2-0.6h-1.3z"/><path class="l" d="m355.3 165v2.6h-6v3.4h4.6v2.5h-4.6v3.5h6v2.6h-9.4v-14.6z"/><path fill-rule="evenodd" class="l" d="m260 194.7q0 1-0.9 1.7-0.9 0.8-2.1 0.8h-3v-10.5h3q1.2 0 2.1 0.7 0.9 0.7 0.9 1.8zm-4.1 0.9h1.1q0.5 0 0.8-0.2 0.3-0.3 0.3-0.7v-5.5q0-0.4-0.3-0.6-0.3-0.3-0.8-0.3h-1.1z"/><path class="l" d="m262.8 197.2v-10.5h5.4v1.6h-3.5v2.8h2.6v1.6h-2.6v2.9h3.5v1.6z"/><path class="l" d="m272.9 197.2l-2.3-10.5h2l1.6 8.2 1.6-8.2h2l-2.3 10.5z"/><path class="l" d="m280.5 197.2v-10.5h5.5v1.6h-3.6v2.8h2.6v1.6h-2.6v2.9h3.6v1.6z"/><path class="l" d="m293.6 197.2h-5.3v-10.5h2v8.9h3.3z"/><path fill-rule="evenodd" class="l" d="m299 186.5q1.3 0 2.1 0.8 0.9 0.7 0.9 1.8v5.7q0 1-0.9 1.8-0.9 0.7-2.1 0.7-1.3 0-2.2-0.7-0.8-0.8-0.8-1.8v-5.7q0-1.1 0.9-1.8 0.8-0.8 2.1-0.8zm1 2.5q0-0.4-0.3-0.6-0.3-0.3-0.8-0.3-0.4 0-0.7 0.3-0.4 0.2-0.4 0.6v5.8q0 0.4 0.4 0.6 0.3 0.3 0.7 0.3 0.5 0 0.8-0.3 0.3-0.2 0.3-0.6z"/><path fill-rule="evenodd" class="l" d="m307.8 186.7q1.4 0 2.3 0.7 0.7 0.7 0.7 1.8v1.5q0 1-0.9 1.8-0.8 0.7-2.1 0.7h-1.1v4h-1.9v-10.5zm1.1 2.5q0-0.4-0.3-0.7-0.3-0.2-0.7-0.2h-1.2v3.4h1.2q0.4 0 0.7-0.3 0.3-0.3 0.3-0.7z"/><path class="l" d="m315.3 197.2h-1.9v-10.5h2.8l1.8 7.5 1.7-7.5h2.6v10.5h-1.9v-6.6l-1.7 6.6h-1.5l-1.9-6.6z"/><path class="l" d="m325.1 197.2v-10.5h5.5v1.6h-3.6v2.8h2.6v1.6h-2.6v2.9h3.6v1.6z"/><path class="l" d="m335.1 186.7l2.6 7v-7h1.9v10.5h-2.1l-2.6-6.7v6.7h-1.9v-10.5z"/><path class="l" d="m344.2 188.3h-2v-1.6h6v1.6h-2.1v8.9h-1.9z"/></g><g style="opacity:.5"><rect class="y" x="208.1" y="483.7" width="14.3" height="14.3" rx="1"></rect><rect class="y" x="225.2" y="483.7" width="14.3" height="14.3" rx="1"></rect><rect class="y" x="217" y="502.6" width="14.3" height="14.3" rx="1"></rect><rect class="y" x="233.6" y="502.6" width="14.3" height="14.3" rx="1"></rect><rect class="y" x="250.2" y="502.6" width="14.3" height="14.3" rx="1"></rect><rect class="y" x="266.7" y="502.6" width="14.3" height="14.3" rx="1"></rect><rect class="y" x="283.3" y="502.6" width="14.3" height="14.3" rx="1"></rect><rect class="y" x="299.9" y="502.6" width="14.3" height="14.3" rx="1"></rect><rect class="y" x="316.5" y="502.6" width="14.3" height="14.3" rx="1"></rect><rect class="y" x="333" y="502.6" width="14.3" height="14.3" rx="1"></rect><rect class="y" x="349.6" y="502.6" width="14.3" height="14.3" rx="1"></rect><rect class="y" x="242.2" y="483.7" width="14.3" height="14.3" rx="1"></rect><rect class="y" x="259.2" y="483.7" width="14.3" height="14.3" rx="1"></rect><rect class="y" x="276.3" y="483.7" width="14.3" height="14.3" rx="1"></rect><rect class="y" x="293.3" y="483.7" width="14.3" height="14.3" rx="1"></rect><rect class="y" x="310.3" y="483.7" width="14.3" height="14.3" rx="1"></rect><rect class="y" x="327.4" y="483.7" width="14.3" height="14.3" rx="1"></rect><rect class="y" x="344.4" y="483.7" width="14.3" height="14.3" rx="1"></rect><rect class="y" x="361.4" y="483.7" width="14.3" height="14.3" rx="1"></rect><rect class="y" x="208.1" y="541.7" width="14.3" height="14.3" rx="1"></rect><rect class="y" x="225.2" y="541.7" width="14.3" height="14.3" rx="1"></rect><path class="y" d="m341.6 543v11.7c0 0.7-0.5 1.3-1.2 1.3h-11.8q-0.1 0-0.2 0-0.1 0-0.2 0h-4.9-5.1-1.7-4.9-5.1q-0.1 0-0.1 0-0.1 0-0.1 0h-10-1.7-5.3-4.7-4.5-2.5-2.6-6.6-5.2-8-3.7-8c-0.7 0-1.3-0.6-1.3-1.3v-11.7c0-0.7 0.6-1.3 1.3-1.3h8 3.7 8 5.2 6.6 2.6 2.5 4.5 4.7 5.3 1.7 10q0 0 0.1 0 0 0 0.1 0h5.1 4.9 1.7 5.1 4.9q0.1 0 0.2 0 0.1 0 0.2 0h11.8c0.7 0 1.2 0.6 1.2 1.3z"/><rect class="y" x="344.4" y="541.7" width="14.3" height="14.3" rx="1"></rect><rect class="y" x="361.4" y="541.7" width="14.3" height="14.3" rx="1"></rect><rect class="y" x="208.1" y="520.9" width="14.3" height="14.3" rx="1"></rect><rect class="y" x="225.2" y="520.9" width="14.3" height="14.3" rx="1"></rect><rect class="y" x="242.2" y="520.9" width="14.3" height="14.3" rx="1"></rect><rect class="y" x="259.2" y="520.9" width="14.3" height="14.3" rx="1"></rect><rect class="y" x="276.3" y="520.9" width="14.3" height="14.3" rx="1"></rect><rect class="y" x="293.3" y="520.9" width="14.3" height="14.3" rx="1"></rect><rect class="y" x="310.3" y="520.9" width="14.3" height="14.3" rx="1"></rect><rect class="y" x="327.4" y="520.9" width="14.3" height="14.3" rx="1"></rect><path class="y" d="m375.7 522.1v11.8c0 0.7-0.6 1.2-1.3 1.2h-10.4-1.3-10.4c-0.8 0-1.3-0.5-1.3-1.2v-11.8c0-0.7 0.5-1.2 1.3-1.2h10.4 1.3 10.4c0.7 0 1.3 0.5 1.3 1.2z"/></g><circle class="j" cx="901.6" cy="90.6" r="5.2"/><circle class="k" cx="883.2" cy="90.6" r="5.2"/><circle class="l" cx="864.7" cy="90.6" r="5.2"/><circle class="j" cx="846.2" cy="90.6" r="5.2"/><circle class="j" cx="350.9" cy="60.1" r="5.2"/><circle class="k" cx="332.4" cy="60.1" r="5.2"/><circle class="l" cx="313.9" cy="60.1" r="5.2"/><circle class="j" cx="295.5" cy="60.1" r="5.2"/><path class="r" d="m1005.6 330.8h-137.3c-5.7 0-10.5-3.6-12.3-8.6q-0.7-2.1-0.7-4.4l0.1-93.4h119.7c17 0 29.5 44.5 29.8 63.3z"/><path class="z" d="m1077.4 307.5c0 2.4-0.6 4.7-1.8 6.6-2.2 3.8-6.4 6.4-11.2 6.4h-181.1c-5.7 0-10.5-3.6-12.3-8.6q-0.7-2.1-0.7-4.4l0.3-113.4c0-7.2 5.8-13 13-13h181.1c7.2 0 13 5.8 13 13z"/><circle class="A" cx="906.7" cy="205.3" r="5.6"/><circle class="A" cx="920.5" cy="205.3" r="5.6"/><circle class="B" cx="934.2" cy="205.3" r="5.6"/><path class="l" d="m1004.6 236.6c0 2.1-1.7 3.8-3.9 3.8h-95.7c-2.1 0-3.9-1.7-3.9-3.8 0-2.2 1.8-3.9 3.9-3.9h95.7c2.2 0 3.9 1.7 3.9 3.9z"/><path class="l" d="m1046.9 236.6c0 2.1-1.8 3.8-3.9 3.8h-29.8c-2.1 0-3.8-1.7-3.8-3.8 0-2.2 1.7-3.9 3.8-3.9h29.8c2.1 0 3.9 1.7 3.9 3.9z"/><path class="l" d="m1046.9 258.8c0 2.1-1.8 3.9-3.9 3.9h-20.6-9.2-12.5-8-87.7c-2.1 0-3.9-1.8-3.9-3.9 0-2.1 1.8-3.9 3.9-3.9h87.7 8 12.5 9.2 20.6c2.1 0 3.9 1.8 3.9 3.9z"/><path class="l" d="m1004.6 277.8c0 2.1-1.7 3.9-3.9 3.9h-95.7c-2.1 0-3.9-1.8-3.9-3.9 0-2.1 1.8-3.9 3.9-3.9h95.7c2.2 0 3.9 1.8 3.9 3.9z"/><path class="l" d="m618 235.2h-0.4-0.5l-44-2.9q15.5-48.3 44-76.3 0.3-0.7 0.5-0.5 0.1-0.2 0.4 0.5 28.5 28 44 76.3l-44 2.9z"/><path fill-rule="evenodd" class="o" d="m989.9 459c0 2.9-2 6.8-5.2 11-8.1 10.8-23.7 24.1-33.6 32.1 0.3 4.9 0.5 10.2 0.5 15.3q9.3 2.7 18.1 4.8l-16.9 11.3-1.9 1.3c-0.5 3.9-1.3 7.3-2.3 9.7 8.5 24.8 11.7 60.8 11.2 149.6h-31.8c-7.2-21.5-13-40.2-17.6-56.6-3 16-6.9 34.6-11.9 56.6h-32.3c-11.6-107.2-5.1-147.2-1.2-160.4-6-23.3-6.1-46.8-4.9-51.2-0.2-4.4-0.2-8.8-0.2-13.2-11.5 11.3-76 36.5-82.7 39.1-0.7 1.6-4.9 11.7-7.6 12.5-2.7 0.7 0-4.8 0.2-5.3-0.7 0.6-14.3 11.3-13.3 9q1-2.4 17.9-18.4 46.5-39.4 55-44.1c3.7-2 8.8-8.1 13.5-14.3q-1.7-1.6-2.7-2.7c9.6-14.9 20.1-25.8 26.8-32 1.5-1.8 3.5-3.5 5.9-5.1q0.6-0.6 1.1-0.9 0 0 0 0.1c2.5-1.6 5.3-3.1 8.1-4.4q0.1-0.5 0.2-0.8c1-2.5 2.9-3 3.9-2.5q0.3 0.1 0.5 0.3 0.3 0.4 0.5 0.8 1.4-0.5 2.8-1-0.2-1.2-0.6-1.9l6-3.4 0.6-3.4c-4.1-2.7-6.1-9.6-6.9-13.8h-0.5q-4.3-3.1-3.9-12.3c-10.3-0.2-4.6-2.9-0.2-4.7q0.1 0 0.1 0c0.7-4.1 3.7-9.6 8.9-11.1 19.1-5.5 26.1 7.9 23.4 14 0.3 1.3 0.4 2.8 0.2 4.5-1.1 9.3-4.3 11-5 11.3-0.7 3.2-1.8 7.2-5 10l1.5 4.6 0.1-0.2 6.3 2q-0.1 0.1-0.2 0.2 0.8 0 1.6 0.1 0.5-0.6 0.8-0.7l6.6 0.9q-0.4 0.2-1 0.7c4.3 1 8.5 2.7 12 5.8 7.4 3.1 20 9.9 34.7 24.4q-0.7 1.3-1.9 3.3c9.9 8.5 21.2 19.8 22.2 27.9 0.1 0.4 0.1 0.8 0.1 1.2zm-25.4 1.6c-0.7-1.4-6.2-4-12-7.3q-1.4-0.8-2.9-1.7c-0.4 0.1-0.8 0.1-1.2-0.1-0.5-0.1-1-0.3-1.5-0.4q0.1 1.3 0.3 2.7c0.6 7.3 1.1 15 1.6 22.7 0.2 1.5 0.6 5.3 1.1 10.3 7.5-11.4 15.6-24.5 14.6-26.2z"/><path fill-rule="evenodd" class="o" d="m445.7 518.8c-1.8 2.2-5.5 3.9-10.4 5.1q-0.1 0.1-0.3 0.1-0.2 0.7-0.4 1.3c-0.7 13.1-2.6 24.2-6 30.8 8 43.3 10.9 44 3.2 138h-26.9q-0.4-2.2-0.8-4.5l-14.6-70.4-14.1 70.3q-0.4 2.3-0.9 4.6h-25.2c-4.7-68.3-6.8-97 0.7-137.7-7.4-8.6-10.9-24.2-12.2-41.6q-0.2-0.2-0.3-0.3c-11.6-5.9-10.8-25.6-9.6-35.9q-0.8-0.3-1.3-0.5c3.5-26 11.4-40.4 18.1-48.3 4.1-7 14.9-14.1 27.7-16.8q-0.1-0.2-0.1-0.4l5.8-3 0.7-3.4c-1.9-1.6-3.7-3.6-5-6-1.4-1.2-2.7-3-3.7-5.6-1.5-3.6-2.3-7.4-2.2-10.9-0.9-0.7-1.1-2.5-1-4.2q-1.6-1.7-2.5-3.6h-0.1v-0.1c-0.5-0.2-1-0.4-1.4-0.9-0.5-0.6-0.8-1.4-0.8-2.3 0-1 0.4-2 1-2.6 0.5-0.4 1.1-0.7 1.7-0.7h0.2c1.7-7.4 6.9-13.3 13.5-15.5l1.1-3.2h8.2l1.5 3.2c6.7 2 12 7.8 13.9 15.3h0.1c0.7 0 1.3 0.2 1.7 0.6l0.3 0.3c0.5 0.6 0.8 1.4 0.8 2.3 0 1.6-0.9 2.9-2.2 3.2v0.1q0 0.1-0.1 0.3c0.1 2-0.6 3.8-1.5 5.4-0.1 1.1-0.5 2.1-1.3 2.4-0.3 0.2-0.5 0.2-0.7 0q-0.8 0.8-1.5 1.4-0.1 1-0.2 1.9c0.7 0.2 1.1 0.8 0.6 2-1.1 2.5-1.6 4.9-2.5 5.3-0.1 0.1-0.1 0.2-0.2 0.3-1.4 3.1-2.5 5.4-3.7 6.9-1.1 2-2.1 3.7-3.1 5l0.7 2.9 0.1-0.1 5.8 2.2q-0.1 0.2-0.2 0.6c8.2 0.6 18.3 2.4 23.3 7.2 5 2.4 22.6 13.7 28.5 56.7q-0.8 0.3-2 0.8c2.6 13.4 5.7 34.8-0.2 42zm-56.1 88.8q-0.1-0.3-0.2-0.6 0 0.3-0.1 0.7 0.1-0.1 0.3-0.1z"/><path class="C" d="m437 763.1c4.5 2.7 13.4 16.7 9.1 17.8-4.3 1.1-18.5-8.6-20.4-10.3q-1.9-1.7-0.3-7.3c2.3-3.3 7-2.9 11.6-0.2z"/><path class="D" d="m434.2 750.6l0.6 12.9-8.2 1.1-1.5-11.9z"/><path class="E" d="m434.5 757.9q1 0.1 0 5.6l-7.9 1.3q-1-4-0.7-5.5c1.2-1.5 4.6-1.5 8.6-1.4z"/><path class="F" d="m426.5 765.2q0.6-3.5 2.5-4.3c1.9-0.7 4.1-0.9 6.8 2.8 2.8 3.7 10 11.3 9.3 12.4-0.8 1-10.9-6.5-14-8.8-3.2-2.4-3.9-0.1-4.6-2.1z"/><path class="C" d="m369.5 763.3q1.6 5.6-0.3 7.3c-1.9 1.7-16.1 11.4-20.4 10.3-4.3-1.1 4.6-15.1 9.1-17.8 4.6-2.7 9.2-3.1 11.6 0.2z"/><path class="D" d="m369.8 752.7l-1.5 11.9-8.2-1.1 0.6-12.9z"/><path class="E" d="m369 759.3q0.3 1.5-0.7 5.5l-8-1.3q-0.9-5.5 0.1-5.6c3.9-0.1 7.4-0.1 8.6 1.4z"/><path class="F" d="m363.8 767.3c-3.1 2.3-13.2 9.8-14 8.8-0.8-1.1 6.5-8.7 9.3-12.4 2.7-3.7 4.9-3.5 6.8-2.8q1.9 0.8 2.5 4.3c-0.7 2-1.4-0.3-4.6 2.1z"/><path class="G" d="m390.5 395q-9.2 3.8-13.8-7.6c-4.6-11.3-3.2-24.7 14.2-25.2 17.5-0.6 17.5 16.6 13.3 25.3-4.3 8.7-5.4 11.2-13.7 7.5z"/><path class="F" d="m403.4 563.7c0.3 1.8-29.9 175.8-33.5 191.6q-10.3 2.7-10.5 0.1c-7.2-118.7-13.2-151.3-3.3-204 2.2-11.7 43.4-15.7 47.3 12.3z"/><path class="F" d="m437.3 551.4c9.8 52.7 12.3 43.8-2.1 203.6q-0.3 2.6-10.5 0.3c-3.7-15.5-35-190.1-34.8-191.6 3.9-28 45.2-24 47.4-12.3z"/><path class="H" d="m429.2 414.2c11.2 14.7 22.5 115 7.3 139.3-5 8.1-37.4 16.5-71.9 4.7-34.6-11.8-18.8-122.9-15.2-132.6 3.6-9.7 21.7-20.6 41.2-20.5q30.5-1.6 38.6 9.1z"/><path class="D" d="m384.4 405.8l2-9.6 9.7-0.2 2.6 9.8q-4.2 11.4-7.8 11.4c-3.5-0.1-6.6-10.5-6.5-11.4z"/><path class="I" d="m388 408.8l2.5 9.1-7.5-7.8z"/><path class="J" d="m379 405.8l6-3 3.3 5.9-10.9 7q3.4-6.1 1.6-9.9z"/><path class="I" d="m399 410.8l-7.8 7.1 3.8-9z"/><path class="J" d="m405.1 416.4l-10.5-7.5 3.3-6.5 6 2.3q-1.9 5.4 1.2 11.7z"/><path class="K" d="m386.5 396.4l9.6-0.4 1.2 5q-3.1 0.4-5.5 2.5-2.4 2.2-6-4.1z"/><path class="J" d="m391 418q-1.3 33.2 3 53.9 4.4 20.7 1 90.7h-1q2.9-62.8-0.6-83.3-6.2-35.8-2.4-61.3z"/><path class="L" d="m420 470.5q-6.4 15.9-14.5 17.3c-8.1 1.3-40.3 27.2-54.7 27.2q-4.4 0-9.3-7.6z"/><path class="D" d="m334.1 466.5q11.5-8.5 17.4-6c1.3 0.5 2.7 1.9 4.2 3.9 5.6 7.4-3.1 22.3-1.2 24.2 2.3 2.4 45.6-12 46.5-12.5q0.8-0.6 3 5.1-28.1 21.1-46.1 27.8c-4.7 1.8-8.6 2.4-11.3 1.8q-21-4.7-12.5-44.3z"/><path class="D" d="m401 476.1q1.4-3.9 2.4-8.2 0.9-4.2 2.3 3.2 17.8-5.6 13.1 0.7-4.7 6.2-14.8 9.4z"/><path class="H" d="m356 476q-5.5 4-24.2-3.5 7-51.2 30.8-58.3-1 57.8-6.6 61.8z"/><path class="D" d="m406.9 381.8c-1.4 3.3-1.9 6.4-3.6 5.3q-4 13.4-12.2 13.6-0.1 0-0.1 0 0 0 0 0-8.3-0.2-12.2-13.6c-1.8 1.1-2.3-2-3.7-5.3q-1.3-3.3 3.8-1.8 2.2 0 0.2-8.7c1.8-4.6 11.4-2.4 11.9-2.3 0.6-0.1 10.2-2.3 12 2.3q-2 8.7 0.2 8.7 5.1-1.5 3.7 1.8z"/><path class="G" d="m390.7 368.2q12.3-15.1 19-5 6.7 10-6.3 16.7 0.7-4.2-1.1-8.5-1.8-4.2-11.6-3.2z"/><path class="G" d="m388.7 364.4c-11.3 7.2-8 14.1-9.8 15.6-2.4 1.8-10-15.3 4.5-23.8q17.5-10.4 22.4 5c-5.8 1.4-10 8.1-17.1 3.2z"/><path class="G" d="m379.5 378.3q0.3 10.2 4 14.1c3.8 3.9 3.4-0.4 7.6-0.9 4.1-0.5 3.7 3.8 5.8 2.6q5.2-2.9 6.6-17.1 2.8 7.4-2.4 16.2c-3.8 6.4-5.6 10.4-10.6 8.7-4.9-1.7-11.4-7.4-11.8-15.3q-0.3-7.9 0.8-8.3z"/><path class="M" d="m381.4 691.8q-0.2-59.3 8.4-74.6-9.2-5.5-11.6-23.7 8.6 14.9 18.2 11 9.5-3.8 15.6 83.5l-15.2-71.7z"/><path class="M" d="m369.9 565q-11.8 10.7-12.7 15.5c-0.8 4.8 12.7-2.1 12.7-15.5z"/><path class="M" d="m424.9 565.4q11.8 10.8 12.7 15.6c0.8 4.7-12.7-2.1-12.7-15.6z"/><path class="J" d="m355.8 475.5q2-1.4 8.5-26.4-0.2 12.5-7.3 27.4-3.3 0.4-1.2-1z"/><path class="J" d="m425.4 446.2q1.1 11.6 9.2 28.4l-2.3 0.5q-5.5-9.2-6.9-28.9z"/><path class="u" d="m429.3 469.1l2.2 35.7c0.3 4.1-2.8 7.9-6.8 8.5l-62.1 9.1c-4 0.6-8.1-2.2-9-6.2l-8.1-34.8c-1.1-4.8 1.6-9.3 6.1-9.9l69-10.1c4.5-0.7 8.4 2.8 8.7 7.7z"/><path class="N" d="m427.5 472.6l2.2 33.5c0.3 3.9-2.6 7.5-6.4 8l-58.8 8.6c-3.8 0.6-7.6-2-8.5-5.8l-7.4-32.8c-1.1-4.4 1.5-8.6 5.7-9.2l65-9.5c4.2-0.7 7.9 2.6 8.2 7.2z"/><path class="O" d="m394.7 483.6c0.4 3-1.8 5.8-4.8 6.1-3.1 0.4-5.8-1.8-6.2-4.8-0.3-3.1 1.8-5.8 4.9-6.2 3-0.3 5.8 1.8 6.1 4.9z"/><path class="L" d="m445.8 509.1q-1 11.7-3.8 14.1c-9.9 8.7-43.4 2.4-51.2 6q-7.8 3.6-22.8-6.2z"/><path class="D" d="m455.1 514c-1.9 2.3-5.8 3.9-10.8 5.2q-19.5 4.9-56.1 3.5-1.5-6.2-0.5-6.2c1-0.1 46.8-13.4 47.4-16.9 0.5-2.7-2.7-19.2-2.3-28.8 0.2-2.6 0.5-4.7 1.3-5.9q3.7-5.6 18.5-5.1 11.5 43.3 2.5 54.2z"/><path class="D" d="m388.2 522.7q-10.6 3.3-18.4 0.7-7.8-2.6 10.9-8.3-3.2-7.3 0.1-4.2 3.4 3.1 6.9 5.6z"/><path class="K" d="m455.1 514c-1.9 2.3-5.8 3.9-10.8 5.2-3.5-2 3.2-6.9 9-10.2 7.2-4.2 2.6-37.9-0.3-35.5q-2.8 2.3-18.1-0.8c-1-0.5-1.6-1.1-2.1-1.9 0.2-2.6 0.5-4.7 1.3-5.9q3.7-5.6 18.5-5.1 11.5 43.3 2.5 54.2z"/><path class="H" d="m426.5 412.1q23.8 7.2 30.8 58.3-18.7 7.5-24.3 3.5-5.5-4-6.5-61.8z"/><path class="u" d="m409.3 367.6q2.2 7.6-0.5 8.8-2.4 1.1-1.7-7.4z"/><path class="u" d="m376.4 369.2q0.9 8.5-1.5 7.5-2.8-1.3-0.6-8.8z"/><path class="P" d="m371.5 361.8c2.3-9.6 10.2-16.7 19.7-16.7q1.4 0 2.8 0.2c8.2 1.2 14.9 7.6 17.1 16.2q0.7 2.8 0.7 5.9 0 0.4 0 0.7l-41 0.3q0-0.4 0-0.8 0-3 0.7-5.8z"/><path class="Q" d="m394 345.3c8.2 1.2 14.9 7.6 17.1 16.2q0.7 2.8 0.7 5.9 0 0.4 0 0.7l-2 0.1q0-0.4 0-0.8 0-3.1-0.8-5.9c-2-8.2-8.3-14.5-16-16q0.5-0.1 1-0.2z"/><path class="R" d="m368.5 365.1c0-1.1 0.4-2 1.1-2.6 0.5-0.5 1.1-0.7 1.7-0.7l39.9-0.3c0.7 0 1.3 0.2 1.8 0.7q0.1 0.1 0.2 0.2c0.6 0.6 0.9 1.5 0.9 2.4 0 1.7-1.1 3.1-2.5 3.3h0.2q-3 6.7-8.5 6.7l-11.1 0.1q-1 0-1.6 0l-11.2 0.1q-5.4 0-8.5-6.6h0.2c-0.7-0.1-1.3-0.4-1.8-1-0.5-0.6-0.8-1.4-0.8-2.3z"/><path class="O" d="m371.3 361.8l39.9-0.3c0.7 0 1.3 0.2 1.8 0.7-0.3 1.3-1.2 2.3-2.4 2.5h0.2q-2.8 6.7-8 6.7l-10.6 0.1q-1 0-1.6 0l-10.6 0.1q-5.3 0-8.2-6.6h0.2c-0.7-0.1-1.2-0.4-1.7-1q-0.5-0.6-0.7-1.5c0.5-0.5 1.1-0.7 1.7-0.7z"/><path class="O" d="m395.3 363.6l-8.5 0.1-1.7-16.4 1.5-4.6h8.5l2.1 4.4z"/><path class="O" d="m373.5 362.7l1.9-4.6 3.3 0.4 0.1 4z"/><path class="O" d="m403.8 362.3v-4l3.3-0.5 1.9 4.6z"/><path class="S" d="m386.7 363.5q-1.6 1.4-7.9-1.8l6.7-2.4-0.1-9.3q3.8 11.3 1.3 13.5z"/><path class="T" d="m396.9 349.9l-0.2 9.3 6.8 2.3q-6.4 3.3-7.9 2-2.6-2.3 1.3-13.6z"/><path class="U" d="m619.4 496.6q-0.7 1-1.1 0.8-0.3 0.2-1.1-0.8-47-34.6-20.4-110h16.8 9.4 16.8q26.6 75.4-20.4 110z"/><path class="V" d="m619.1 469.3q-0.5 0.8-0.8 0.6-0.3 0.2-0.8-0.6-35.1-25.8-15.2-82h12.5 7 12.6q19.8 56.2-15.3 82z"/><path class="W" d="m618.8 439.7q-0.3 0.5-0.5 0.4-0.2 0.1-0.5-0.4-22.4-16.5-9.7-52.4h8 4.4 8.1q12.6 35.9-9.8 52.4z"/><path fill-rule="evenodd" class="t" d="m705.7 363.8c-2.4 11.3-6.8 21.8-12.9 31.1l16.3 19.7-22.9 22.9-19.7-16.3q-3.6 2.3-7.3 4.3c-3 1.5-6 2.9-9.1 4.2-4.7 1.8-9.6 3.3-14.7 4.4l-0.4 25.6h-36.3l-0.4-25.6c-11-2.3-21.2-6.6-30.4-12.5q-0.3-0.2-0.7-0.4l-19.7 16.3-22.9-22.9 16.4-19.7c-6.1-9.3-10.6-19.8-13-31.1l-25.4-2.3v-32.5l25.4-2.3c2.4-11.3 6.9-21.8 13-31.1l-16.4-19.7 22.9-22.9 19.7 16.4c9.4-6.2 19.8-10.6 31.1-13l2.3-25.4h32.5l2.3 25.4c11.3 2.4 21.8 6.8 31.1 13l19.7-16.4 22.9 22.9-16.3 19.7c6.1 9.3 10.5 19.8 12.9 31.1l25.4 2.3v32.5zm-31.6-18.5c0-31.6-25.6-57.2-57.2-57.2-31.6 0-57.2 25.6-57.2 57.2 0 31.6 25.6 57.2 57.2 57.2 31.6 0 57.2-25.6 57.2-57.2z"/><g style="opacity:.2"><path class="X" d="m705.7 326.7q-10-27.2-31.6-35.1l23.6-26.9 11.5 11.3-16.4 19.7c6.1 9.3 10.6 19.8 12.9 31z"/><path class="X" d="m528 363.8q10 27.3 31.6 35.2l-23.6 26.9-11.4-11.3 16.3-19.7c-6.1-9.3-10.6-19.8-12.9-31.1z"/></g><g style="opacity:.2"><path class="X" d="m598.3 256.4q-27.3 10.1-35.1 31.7l-26.9-23.7 11.3-11.4 19.6 16.3c9.3-6.1 19.8-10.5 31.1-12.9z"/><path class="X" d="m697.4 426.1l-11.2 11.5-19.7-16.4q-3.6 2.4-7.3 4.4-3.9 2-7.9 3.7-7.7 3.1-15.9 4.9c5.5-2.1 10.2-4.6 14.2-7.3 3.4-2.2 6.3-4.7 8.8-7.1q9-8.8 12.1-17.3z"/></g><g style="opacity:.2"><path class="X" d="m692.8 395q12.2-26.4 2.5-47.2l35.7-2.3 0.1 16.1-25.5 2.3c-2.2 10.9-6.5 21.5-12.8 31.1z"/><path class="X" d="m540.9 295.6q-12.2 26.4-2.5 47.2l-35.7 2.3-0.1-16.1 25.5-2.3c2.2-10.9 6.5-21.5 12.8-31.1z"/></g><g style="opacity:.2"><path class="X" d="m615.3 459.7h-16.6l-0.4-25.6c-11-2.3-21.5-6.5-31.2-12.9q0.4 0.2 0.8 0.4 26 11.6 46.5 2.1z"/><path class="X" d="m666.6 269.3q-26.4-12.1-47.2-2.5l-2.4-35.7 16.1-0.1 2.4 25.5c10.9 2.3 21.4 6.5 31.1 12.8z"/></g><path fill-rule="evenodd" class="Y" d="m616.9 409.1c-35.3 0-63.8-28.5-63.8-63.8 0-35.2 28.5-63.7 63.8-63.7 35.2 0 63.7 28.5 63.7 63.7 0 35.3-28.5 63.8-63.7 63.8zm57.1-63.8c0-31.6-25.5-57.2-57.1-57.2-31.7 0-57.2 25.6-57.2 57.2 0 31.7 25.5 57.2 57.2 57.2 31.6 0 57.1-25.5 57.1-57.2z"/><path class="Z" d="m577.6 263.1l76.3-0.6 10.5 5.4q2.4 5.7-2.2 20.7 13.7 12.6 14.5 20.2 0.9 7.5-4.8 17.4h-109.3q-2.2-6.2-1.1-14.2 1.1-8.1 12.6-19.1-3.8-9.1-0.5-27.7z"/><path class="N" d="m652.8 288.9q19.9 18.9 19.9 21.9c0 3 0.5 39.2-15.4 58.1l0.5-35.3-11.4-0.5z"/><path class="a0" d="m656.2 292.3l-0.4 34.9 6 1.8-4.5 39.9 0.5-35.3-8.1-0.3z"/><path class="N" d="m590.8 333.1l-11.5 0.5 0.5 35.3c-15.9-18.9-15.4-55.1-15.4-58.1q0-3 19.9-21.9z"/><path class="a0" d="m587.5 333.3l-8.2 0.3 0.5 35.3-4.4-39.9 5.9-1.8-0.3-34.9z"/><path class="c" d="m658 284.5q-10.4 52.6-10.9 102.8h-57.6q-0.5-50.2-10.9-102.8c-5.7-28.8 6.7-60.3 19.1-82.9 1.9-3.3 3.7-6.5 5.5-9.5 8-13.1 14.9-21.5 15.1-21.8v-0.1q0 0 0 0v0.1c0.2 0.3 7.2 8.8 15.3 22.1q2.8 4.7 5.8 10.2c12.3 22.5 24.3 53.5 18.6 81.9z"/><path class="u" d="m649.5 384c0 3.3-2.7 6-6 6h-50.4c-3.3 0-6-2.7-6-6z"/><path class="N" d="m627.7 313.5l-8.4 46.4-8.5-46.4c-0.3-1.5-0.1-3.1 0.5-4.5l8-17.8 7.9 17.8c0.6 1.4 0.8 3 0.5 4.5z"/><circle class="t" cx="618" cy="248.1" r="18.7"/><circle class="l" cx="618" cy="248.1" r="15.9"/><path class="t" d="m639.4 202.6c-10.1 8.3-26.5 16.3-41.7-1 1.9-3.3 3.7-6.5 5.5-9.5 9.4 3 21.5 3.5 30.4 0.3q2.8 4.7 5.8 10.2z"/><g style="opacity:.7"><path class="U" d="m300.7 433.5q-0.4 0.6-0.6 0.4-0.2 0.2-0.6-0.4-26.3-19.4-11.5-61.6h9.5 5.2 9.4q14.9 42.2-11.4 61.6z"/><path class="V" d="m300.5 418.2q-0.3 0.5-0.4 0.4-0.2 0.1-0.5-0.4-19.6-14.4-8.5-45.9h7 3.9 7q11.1 31.5-8.5 45.9z"/><path class="W" d="m300.3 401.6q-0.1 0.3-0.2 0.3-0.1 0-0.3-0.3-12.6-9.2-5.5-29.3h4.5 2.5 4.5q7.1 20.1-5.5 29.3z"/><path fill-rule="evenodd" class="t" d="m349 359.2c-1.3 6.3-3.8 12.2-7.3 17.4l9.2 11-12.8 12.8-11.1-9.1q-1.9 1.3-4.1 2.4-2.4 1.3-5 2.3-4 1.6-8.3 2.5l-0.2 14.3h-20.3l-0.2-14.3c-6.2-1.3-11.9-3.7-17-7q-0.2-0.1-0.4-0.2l-11.1 9.1-12.8-12.8 9.2-11c-3.5-5.2-5.9-11.1-7.3-17.4l-14.2-1.3v-18.2l14.2-1.3c1.4-6.3 3.8-12.2 7.3-17.4l-9.2-11 12.8-12.9 11.1 9.2c5.2-3.4 11-5.9 17.4-7.2l1.3-14.3h18.1l1.3 14.3c6.4 1.3 12.2 3.8 17.4 7.2l11.1-9.2 12.8 12.9-9.2 11c3.5 5.2 6 11.1 7.3 17.4l14.2 1.3v18.2zm-17.7-10.4c0-17.7-14.3-32-32-32-17.7 0-32 14.3-32 32 0 17.7 14.3 32 32 32 17.7 0 32-14.3 32-32z"/><g style="opacity:.2"><path class="X" d="m349 338.4q-5.6-15.2-17.7-19.7l13.2-15 6.4 6.3-9.1 11c3.4 5.2 5.9 11.1 7.2 17.4z"/><path class="X" d="m249.5 359.2q5.6 15.3 17.7 19.7l-13.2 15-6.4-6.3 9.1-11c-3.4-5.2-5.9-11.1-7.2-17.4z"/></g><g style="opacity:.2"><path class="X" d="m288.9 299.1q-15.3 5.6-19.7 17.7l-15.1-13.3 6.4-6.4 11 9.2c5.2-3.4 11-5.9 17.4-7.2z"/><path class="X" d="m344.4 394.1l-6.4 6.4-11-9.2q-1.9 1.3-4.1 2.4-2.1 1.2-4.4 2.1-4.3 1.8-8.9 2.8c3.1-1.2 5.7-2.6 8-4.1 1.9-1.3 3.5-2.6 4.9-4q5.1-4.9 6.8-9.7z"/></g><g style="opacity:.2"><path class="X" d="m341.8 376.6q6.8-14.7 1.4-26.4l19.9-1.3 0.1 9-14.2 1.3c-1.3 6.1-3.7 12-7.2 17.4z"/><path class="X" d="m256.7 321q-6.8 14.7-1.4 26.4l-19.9 1.3-0.1-9 14.2-1.3c1.3-6.1 3.7-12 7.2-17.4z"/></g><g style="opacity:.2"><path class="X" d="m298.4 412.8h-9.3l-0.3-14.3c-6.1-1.3-12-3.6-17.4-7.2q0.2 0.1 0.5 0.2 14.5 6.5 25.9 1.2z"/><path class="X" d="m327.1 306.3q-14.8-6.8-26.5-1.4l-1.2-20 8.9-0.1 1.4 14.3c6.1 1.3 12 3.6 17.4 7.2z"/></g><path fill-rule="evenodd" class="Y" d="m299.3 384.5c-19.8 0-35.7-15.9-35.7-35.7 0-19.7 15.9-35.6 35.7-35.6 19.7 0 35.6 15.9 35.6 35.6 0 19.8-15.9 35.7-35.6 35.7zm32-35.7c0-17.7-14.4-32-32.1-32-17.7 0-32 14.3-32 32 0 17.7 14.3 32 32 32 17.7 0 32.1-14.3 32.1-32z"/><path class="Z" d="m277.3 302.8l42.7-0.3 5.9 3q1.3 3.2-1.2 11.6 7.6 7 8.1 11.3 0.4 4.2-2.7 9.7h-61.2q-1.3-3.4-0.6-7.9 0.6-4.6 7-10.7-2.1-5.1-0.3-15.5z"/><path class="N" d="m319.4 317.3q11.1 10.5 11.1 12.2c0 1.7 0.3 22-8.6 32.5l0.3-19.7-6.4-0.3z"/><path class="a0" d="m321.3 319.2l-0.2 19.5 3.3 1-2.5 22.3 0.3-19.7-4.6-0.2z"/><path class="N" d="m284.6 342l-6.4 0.3 0.3 19.7c-8.9-10.5-8.6-30.8-8.6-32.5q0-1.7 11.1-12.2z"/><path class="a0" d="m282.8 342.1l-4.6 0.2 0.3 19.7-2.5-22.3 3.4-1-0.2-19.5z"/><path class="c" d="m322.3 314.7q-5.8 29.5-6.1 57.6h-32.3q-0.2-28.1-6.1-57.6c-3.2-16.1 3.8-33.7 10.7-46.3q1.6-2.9 3.1-5.3c4.5-7.4 8.3-12.1 8.5-12.3q0 0 0 0c0.1 0.2 4 5 8.5 12.4q1.6 2.7 3.3 5.7c6.8 12.6 13.5 30 10.4 45.8z"/><path class="u" d="m317.5 370.5c0 1.8-1.5 3.3-3.3 3.3h-28.2c-1.9 0-3.4-1.5-3.4-3.3z"/><path class="N" d="m305.3 331l-4.7 26-4.7-26c-0.2-0.9-0.1-1.7 0.3-2.5l4.4-10 4.4 10c0.4 0.8 0.5 1.6 0.3 2.5z"/><circle class="t" cx="299.9" cy="294.4" r="10.5"/><circle class="l" cx="299.9" cy="294.4" r="8.9"/><path class="t" d="m311.9 268.9c-5.7 4.7-14.9 9.2-23.4-0.5q1.6-2.9 3.1-5.3c5.3 1.6 12 1.9 17 0.1q1.6 2.7 3.3 5.7z"/></g><path class="r" d="m291.3 410.6l-0.2 85.5c0 2.3-0.6 4.5-1.8 6.3-2.1 3.7-6.2 6.3-10.7 6.3h-95.6l-0.3-50.9c-0.1-11.7 4.6-23.6 12.8-32.8 8.2-9.1 19-14.4 29.5-14.4z"/><path class="a1" d="m279.5 476.1c0 2.3-0.6 4.5-1.7 6.3-2.2 3.7-6.2 6.2-10.8 6.2h-175c-5.5 0-10.1-3.5-11.8-8.3q-0.7-2-0.7-4.2l0.2-109.6c0-6.9 5.6-12.5 12.6-12.5h174.9c7 0 12.6 5.6 12.6 12.5z"/><circle class="A" cx="114.6" cy="377.3" r="5.4"/><circle class="A" cx="127.9" cy="377.3" r="5.4"/><circle class="B" cx="141.2" cy="377.3" r="5.4"/><path class="l" d="m209.2 407.5c0 2.1-1.7 3.8-3.8 3.8h-17.1c-2 0-3.7-1.7-3.7-3.8 0-2 1.7-3.7 3.7-3.7h17.1c2.1 0 3.8 1.7 3.8 3.7z"/><path class="l" d="m250 407.5c0 2.1-1.7 3.8-3.7 3.8h-28.8c-2 0-3.7-1.7-3.7-3.8 0-2 1.7-3.7 3.7-3.7h28.8c2 0 3.7 1.7 3.7 3.7z"/><path class="l" d="m250 429c0 2.1-1.7 3.7-3.7 3.7h-19.9-8.9-12.1-7.7-9.4c-2 0-3.7-1.6-3.7-3.7 0-2 1.7-3.7 3.7-3.7h9.4 7.7 12.1 8.9 19.9c2 0 3.7 1.7 3.7 3.7z"/><path class="l" d="m209.2 447.4c0 2-1.7 3.7-3.8 3.7h-17.1c-2 0-3.7-1.7-3.7-3.7 0-2.1 1.7-3.8 3.7-3.8h17.1c2.1 0 3.8 1.7 3.8 3.8z"/><path class="l" d="m170.9 442.4l-4.6-5.5c-1.5 6.1-4.9 11.6-9.7 15.8-5.6 4.8-12.7 7.4-20.1 7.4-7.1 0-14-2.4-19.5-6.9-5.4-4.5-9.1-10.7-10.5-17.5-0.3-1.1 0.4-2.1 1.5-2.3 1.1-0.3 2.1 0.4 2.4 1.5 2.5 12.3 13.5 21.2 26.1 21.2 11.9 0 22.1-7.6 25.5-18.7l-4.5 3.9 0.5-5.7 7.3-6.2 6.1 7.3z"/><path class="l" d="m107.8 429.4l-6.2-7.3 0.5-5.7 4.6 5.5c1.6-6.1 5-11.6 9.8-15.8 5.6-4.8 12.7-7.4 20-7.4 7 0 13.8 2.4 19.2 6.7 5.3 4.2 9.1 10.2 10.7 16.8 0.3 1.1-0.4 2.2-1.5 2.4-1 0.3-2.1-0.4-2.4-1.4-2.9-12.1-13.5-20.5-26-20.5-11.9 0-22 7.6-25.5 18.7l4.6-3.9-0.5 5.7z"/><path class="l" d="m121.4 425.2v7.5q0 0.4 0.3 0.6 0.2 0.3 0.6 0.3 0.3 0 0.5-0.3 0.3-0.2 0.3-0.6v-7.5h1.5v7.5q0 1-0.7 1.7-0.6 0.7-1.6 0.7-1 0-1.7-0.7-0.6-0.7-0.6-1.7v-7.5z"/><path fill-rule="evenodd" class="l" d="m128.5 425.2q1.1 0 1.7 0.7 0.6 0.6 0.6 1.6v1.5q0 0.9-0.7 1.6-0.6 0.7-1.6 0.7h-0.8v3.7h-1.5v-9.8zm0 1.5h-0.8v3.1h0.8q0.4 0 0.6-0.2 0.3-0.3 0.3-0.6v-1.4q0-0.4-0.3-0.6-0.2-0.3-0.6-0.3z"/><path fill-rule="evenodd" class="l" d="m136.2 425.9q0.7 0.7 0.7 1.6v5.1q0 1-0.7 1.7-0.7 0.7-1.6 0.7h-2.3v-9.8h2.3q0.9 0 1.6 0.7zm-0.8 1.7q0-0.4-0.2-0.6-0.2-0.3-0.6-0.3h-0.9v6.8h0.9q0.4 0 0.6-0.3 0.2-0.2 0.2-0.5z"/><path fill-rule="evenodd" class="l" d="m139.8 425.2h2l1.7 9.8h-1.6l-0.3-2.3h-1.6l-0.3 2.3h-1.5zm0.4 6h1.1l-0.5-3.8z"/><path class="l" d="m145.1 435v-8.3h-1.5v-1.5h4.6v1.5h-1.6v8.3z"/><path class="l" d="m151.1 426.7v2.6h2v1.5h-2v2.7h2.7v1.5h-4.2v-9.8h4.2v1.5z"/><path class="a2" d="m415.1 232.3h85.8l230.2 404h-90.6z"/><path class="a2" d="m513.6 233.9h17.4l240.1 402.4h-23.9z"/><path class="a2" d="m979.9 624c0 3.1-1.2 6.3-3.3 8.7-1.7 1.9-3.8 3.1-6 3.6h-42.5l-224-401.4-1.4-2.6h85.8l1.5 2.6 188.9 331.5z"/><path class="a2" d="m978.5 539.3l-176.8-304.4-0.5-1h17.4l0.5 1 158.7 265.9z"/><path class="D" d="m892.3 742.2l-0.6 14.7-8 0.9-1.7-13.5z"/><path class="E" d="m892.1 750.3q1.1 0.1 0 6.3l-8.5 1.3q-1.6-4.4-1.2-6.1c1.4-1.7 5.2-1.7 9.7-1.5z"/><path class="F" d="m892.1 765.3c-2.1 1.8-20 13.6-22.2 10.6-2.2-3-2.4-8.7 7.2-15.9 4-2.9 5-9.4 5.1-7.4 0.1 2.1 6 5.7 9.1 3.2 1.8-1.5 2.5 1.4 2.4 4.4q0 0 0 0c-0.1 2.1-0.7 4.4-1.6 5.1z"/><path class="a3" d="m924.9 534.2c6.8 32.3 2.1 71.6-31.6 215.3-0.7 2.8-11.2 0.8-11.6-2.1q-26.6-194.9-6-226 42.4-19.5 49.2 12.8z"/><path class="D" d="m966.6 742.2l-0.6 14.7-8.1 0.9-1.6-13.5z"/><path class="E" d="m966.3 750.3q1.2 0.1 0 6.3l-8.5 1.3q-1.5-4.4-1.1-6.1c1.3-1.7 5.2-1.7 9.6-1.5z"/><path class="F" d="m966.4 765.3c-2.2 1.8-20 13.6-22.2 10.6-2.2-3-2.5-8.7 7.2-15.9 4-2.9 4.9-9.4 5.1-7.4 0.1 2.1 5.9 5.7 9 3.2 1.9-1.5 2.6 1.4 2.4 4.4q0 0 0 0c-0.1 2.1-0.6 4.4-1.5 5.1z"/><path class="a4" d="m952.9 527.8c13.5 30.2 17.2 69.6 14.6 217.1-0.1 2.9-10.8 3.2-11.8 0.4q-67.2-184.9-53.6-219.6 37.4-28 50.8 2.1z"/><path class="D" d="m885.7 441q-1.5 1.9-3.9 5c-3.1 3.8-7.6 9.4-12.8 15.3-10 11.6-83 40.1-84 40.5q0 0-0.1 0l-2-2.5q46.5-39.9 54.9-44.6c5.6-3.1 14.4-15.5 20-23.7q0 0 0 0l0.2-0.3q2.9-4.3 4.8-7.4z"/><path class="K" d="m881.8 446c-3.1 3.8-7.6 9.4-12.8 15.3-10 11.6-83 40.1-84 40.5 0.6-0.5 11.1-7.6 20.7-11.7 10-4.2 42.8-25.6 47.7-33.8 4.9-8.1 6.2-15.8 4.6-19.4-1.2-2.9-0.5-5.1-0.2-5.9q0 0 0 0 0.1-0.2 0.1-0.3h0.1l9.6 4q10.6 3.8 14.2 11.3z"/><path class="H" d="m893.8 434.7c-9.3 10.3-14.1 21-17.3 22.7q-6.1 3.2-27.9-19.9 15.6-24.7 33.8-38.5 19.9 26.3 11.4 35.7z"/><path class="D" d="m785.7 501.3q-4.8 12.1-7.6 12.9-2.9 0.9 0.1-5.3-14.3 11.5-13.3 9.1 1-2.5 18-18.7z"/><path class="H" d="m873 409.1c3.3-10 26.2-19.5 37.9-21.2q24.6-5.2 35.5 9.4c4.1 5.6 7.2 25.6 9.2 49 3.3 38.5 3.7 85.9 0.9 91.1-2.8 5.1-14.6 10.2-30.4 10.8-10.6 0.5-23.1-1-35.8-5.9-31.8-12.2-20.7-123.2-17.3-133.2z"/><path class="a5" d="m948.3 513.2c9.6-14.1-2.7-37.8 0.2-52.3 2.7-13.8-11.5-33.8-12.6-35.4 0.9 1.1 8.5 9.9 13.8 14.2 1.1 0.9 3 3.2 5.3 6.6 3.8 38.5 4.2 85.9 1 91.1-3 5.1-16.3 10.2-34.1 10.8 1-9.4 19.8-25.3 26.4-35z"/><path class="J" d="m868.7 459.1q-0.3-11.5 6.2-30.6-3.6 8.4-4.8 30.5z"/><path class="a6" d="m921.5 359.2q1.9 1.3 1.4 2.2-0.5 1-1.1 2.2 0.7-1.6 0.5-2.4c-0.2-0.8-1.3-1.6-0.8-2z"/><path class="J" d="m907.2 464.6q-5 21.1 2.9 82.2h-1.3q-8.7-68.5-2.5-89.9 6.1-21.4 4.3-55.6 5.5 26.3-3.4 63.3z"/><path class="D" d="m903.3 389.2l1.6-10.1 10-0.7 3.2 9.9q-3.7 12.1-7.5 12.2c-3.5 0.1-7.2-10.4-7.3-11.3z"/><path class="I" d="m907.3 392l3 9.2-8.2-7.6z"/><path class="J" d="m897.9 389.4l6-3.4 3.6 5.9-10.8 7.8q3.2-6.5 1.2-10.3z"/><path class="I" d="m918.7 393.5l-7.6 7.7 3.4-9.5z"/><path class="J" d="m920.3 399.6l-6.3-7.8 3.1-6.9 6.3 2q-6.6 6.3-3.1 12.7z"/><path class="K" d="m915.2 379.3l1.3 4.2q-3.3 0.5-5.6 2.9-2.3 2.3-6.4-4z"/><path class="G" d="m893.5 352.6c0.7-4.5 34.3-13.5 32 6.2q-1.2 10.8-5.2 11.5l-23.3-1.8q-5.3-3.9-3.5-15.9z"/><path class="D" d="m921.3 365.8c-1 3.6-0.8 14.7-11.2 17.6-10.4 3-13.1-16.9-13.1-18.2q0.1-0.6 0.2-1.2c1.3-5.9 10-4.2 16.2-4.2q0.3 0 0.6 0 6.6-0.2 6.5-1.4 2-2 3.4 1.1 2 4.5-2.6 6.3z"/><path class="K" d="m918.3 365.4q-6.9-2.1-11.3-3.4-4.4-1.3-9.1 1.9-0.3 0.1-0.7 0.1c0.6-6.8 13.5-4.6 19.7-4.6q0.8 2.3 1.4 6z"/><path class="G" d="m920.7 357c1.7 1.8-1.4 6-1.9 9.7q-0.6 3.8-2.3-9.1 3.5-1.4 4.2-0.6z"/><path class="a7" d="m894 363.1q2.8-8.7 18.7-5.5-17.6-10.6-18.7 5.5z"/><path fill-rule="evenodd" class="G" d="m909.5 360.1c2.5-0.4 4.9 1.5 5.2 4.3 0.3 2.7-1.6 5.1-4.1 5.3-2.4 0.1-4.5-1.9-4.8-4.4-0.2-2.5 1.4-4.8 3.7-5.2zm1 9.1c2.2-0.2 3.9-2.3 3.7-4.8-0.3-2.4-2.4-4.2-4.6-3.8-2.1 0.3-3.6 2.4-3.3 4.7 0.2 2.2 2.1 4 4.2 3.9z"/><path fill-rule="evenodd" class="G" d="m900.9 361.3c2-0.3 3.9 1.4 4.2 3.9 0.3 2.5-1.3 4.6-3.3 4.7-2 0.1-3.7-1.6-3.9-3.9-0.3-2.3 1-4.4 3-4.7zm0.8 8.2c1.9-0.1 3.2-2 3-4.3-0.3-2.2-2-3.7-3.8-3.5-1.7 0.3-2.9 2.2-2.7 4.2 0.3 2.1 1.8 3.7 3.5 3.6z"/><path class="G" d="m906.1 363.5h-1.6l-1.1-1.1 3.4-0.2z"/><path class="B" d="m925.2 354.5q-4.2-3.3-10.5-2.9c-8 0.6-18.7 4.8-20.5 4.5-3.2-0.5-0.7-13.6 7.8-16.1 19.2-5.6 26.2 8.3 23.2 14.5z"/><path class="a8" d="m894.2 356.1c-11.9 0-5.8-2.9-1.2-4.8q4.5-1.8 22.4 0.2-9.3 4.6-21.2 4.6z"/><path class="a9" d="m909.2 352.2q-14.3 3.1-16.9 2.3-2.6-0.7 2.1-2.7z"/><path class="aa" d="m915.6 339.5q-9.7 4.1-8.5 11.1l-9.1-0.4q2-8.1 7.2-10.2 5.4-2.2 10.4-0.5z"/><path class="B" d="m868.6 475c1.2-3.6 16.5-5.5 19.4-24.5 2.8-18.9 1.8-54.3 2.7-56.7 1-2.5 2.9-3 3.9-2.6q0.3 0.1 0.5 0.3c2.4 3-0.6 8.2-0.5 20.5 0.1 2.4 0.9 6.9 3 12.2 1.9 5.1 6.5 8.4 11.5 8.2 4.5-0.2 8.7-3.3 10.5-8.1q1.2-3.1 1.7-5.9c1.3-7 0.2-12.9 0.5-19.5q0.5-11.1 3.8-12.4l6.6 0.9q-4.2 2.1-5.1 9.9c-1 7.8 2.6 40.6 3.8 50.3 1.1 9.3 10.1 21.1 17.5 24.2 3.7 1.5 7 0.8 8.7-3.3q8.1 64.5-2.4 73c-6.1 5-17.8 8.4-27.5 9.3-5 0.5-9.5 0.4-12.4-0.5l-17.9-1.1c-5.8 0.3-18.1-1.1-23.2-21.1-6.4-24.4-6.4-49.6-5.1-53.1z"/><path class="ab" d="m894.8 392.6c-0.2-0.6-0.2-1.1-0.2-1.4q0.3 0.1 0.5 0.3c2.4 3-0.6 8.2-0.5 20.5 0.1 2.4 0.9 6.9 3 12.2 1.9 5.1 6.5 8.4 11.5 8.2 4.5-0.2 8.7-3.3 10.5-8.1q1.2-3.1 1.7-5.9l0.4 0.4q-1.5 20.7-10.5 20.7c-9.1 0-17-7.7-17.8-18.9-0.8-11.3 2.2-25.5 1.4-28z"/><path class="ac" d="m941.3 505.2l17.5-12.6 0.7 7.1q-9 6.3-3.2 11.6c5.8 5.3 3 14.9 0.3 22.5-2.6 7.5-5.6 4.7-15.1 9.5-9.6 4.8-5-10.8-12.2-29.8q-7.2-19.1-34.6-14.3 25.8-10.6 46.6 6z"/><path class="l" d="m978.2 515.6l-17 11.5-19 12.8q6-20.4-0.4-30.3-6.3-9.9-47.6-10.6l21.5-24q18 24.3 28.2 29.6 10.3 5.3 34.3 11z"/><path class="ad" d="m942.2 539.9q6-20.4-0.4-30.3-6.3-9.9-47.6-10.6 31.9-6.4 48.5 7.8 16.6 14.1 18.5 20.3z"/><path class="D" d="m960.8 409.9q6.2 4.5 13.6 10.7c10.3 8.8 22.7 21.1 23.8 29.7q0.1 0.6 0.1 1.2c0 3-2 6.9-5.2 11.2q-12.3 16.7-42.5 39.5-5.2-3.9-4.4-4.6c0.8-0.7 28.6-41.3 26.8-44.5-0.8-1.3-6.3-3.9-12.1-7.3-4.9-2.9-10.1-6.3-12.8-9.9q-1.6-2.2 12.7-26z"/><path class="K" d="m974.4 420.6c10.3 8.8 22.7 21.1 23.8 29.7-6.9-2.7-20.5-7-22.9-3.3q-2.5 3.8-2.3 6.1c-0.8-1.3-6.3-3.9-12.1-7.3-2-3 0.4-6.7 4.6-16.1 2.9-6.4 5.7-8.7 8.9-9.1z"/><path class="D" d="m937 497.7q4.8 0.3 9.2-0.1l4.4 4.6q0 0 0 0c-0.4 0.6-3.6 10.4-11.8 10.5q-5.3 0.1 0.9-11.6-0.1 0-0.1-0.1c-0.8-0.4-7-3.6-2.6-3.3z"/><path class="H" d="m936.2 391.5q18.2 3.6 41.7 27.2-14.3 27.3-21 25.3-40.7-12.1-20.7-52.5z"/><path class="J" d="m955.1 446.6q-2.3 0.4-20.9-23.8 5.3 5.4 20.5 20.6z"/></svg>