<svg version="1.2" xmlns="http://www.w3.org/2000/svg" viewBox="0 0 1000 1000" width="400" height="400">
	<title>4882463-ai</title>
	<style>
		tspan { white-space:pre } 
		.s0 { fill: #ffffff } 
		.s1 { fill: #b6b9d1 } 
		.s2 { fill: #c46c3b } 
		.s3 { fill: #aa5327 } 
		.s4 { fill: #171923 } 
		.s5 { fill: #2a2b3d } 
		.s6 { fill: #d0e6ef } 
		.s7 { fill: #d35473 } 
		.s8 { fill: #ffc55a } 
		.s9 { fill: #54d15f } 
		.s10 { fill: none;stroke: #61648a;stroke-linecap: round } 
		.s11 { fill: none;stroke: #54d15f;stroke-linecap: round;stroke-width: 2 } 
		.s12 { fill: none;stroke: #2d292a;stroke-linecap: round;stroke-width: 2 } 
		.s13 { fill: none;stroke: #ffc55a;stroke-linecap: round;stroke-width: 2 } 
		.s14 { fill: none;stroke: #d35473;stroke-linecap: round;stroke-width: 2 } 
		.s15 { fill: none;stroke: #383952;stroke-linecap: round;stroke-width: 2 } 
		.s16 { fill: #61648a } 
		.s17 { fill: #55597c } 
		.s18 { opacity: .4;fill: #383952 } 
		.s19 { fill: #f4b8ab } 
		.s20 { fill: #dd6595 } 
		.s21 { fill: #6d3744 } 
		.s22 { fill: #542633 } 
		.s23 { opacity: .4;fill: #8e253e } 
		.s24 { fill: #7d819e } 
		.s25 { fill: #f49947 } 
		.s26 { fill: #14161e } 
		.s27 { fill: #1f202d } 
		.s28 { fill: none;stroke: #61648a;stroke-width: 8 } 
		.s29 { fill: none;stroke: #2a2b3d;stroke-width: 8 } 
		.t30 { font-size: 20px;fill: #ffffff;font-weight: 900;font-family: "Lato-Black", "Lato" } 
		.t31 { font-size: 14px;fill: #ffffff;font-weight: 400;font-family: "FontAwesome5FreeSolid", "Font Awesome 5 Free Solid" } 
		.s32 { fill: #424866 } 
	</style>
	<g id="BACKGROUND">
		<path id="&lt;Path&gt;" class="s0" d="m1000 1000h-1000v-1000h1000z"/>
	</g>
	<g id="OBJECTS">
		<g id="&lt;Group&gt;">
			<g id="&lt;Group&gt;">
				<path id="&lt;Path&gt;" class="s1" d="m924.3 886.4h-854.8c-6 0-10.8-4.8-10.8-10.8 0-6 4.8-10.8 10.8-10.8h854.8c6 0 10.8 4.8 10.8 10.8 0 6-4.8 10.8-10.8 10.8z"/>
			</g>
			<g id="&lt;Group&gt;">
				<g id="&lt;Group&gt;">
					<path id="&lt;Path&gt;" class="s2" d="m159.9 589.2h531.7v21.1h-531.7z"/>
					<path id="&lt;Path&gt;" class="s2" d="m227.7 875.6h-23.5v-267.1h23.5z"/>
					<path id="&lt;Path&gt;" class="s2" d="m649.4 875.6h-23.6v-267.1h23.6z"/>
					<path id="&lt;Path&gt;" class="s3" d="m227.7 635.2h-23.5v-26.7h23.5z"/>
					<path id="&lt;Path&gt;" class="s3" d="m649.4 635.2h-23.6v-26.7h23.6z"/>
				</g>
				<g id="&lt;Group&gt;">
					<g id="&lt;Group&gt;">
						<path id="&lt;Path&gt;" class="s4" d="m537.6 579.1h-57.9l3.9-37.9h50.1z"/>
					</g>
					<g id="&lt;Group&gt;">
						<path id="&lt;Path&gt;" class="s5" d="m553.5 588.4h-89.5c0-6 4.9-10.8 10.9-10.8h67.8c6 0 10.8 4.8 10.8 10.8z"/>
					</g>
					<g id="&lt;Group&gt;">
						<path id="&lt;Path&gt;" class="s5" d="m605.5 544.4h-193.5c-10.5 0-19-8.5-19-19v-116.7c0-10.5 8.5-19.1 19-19.1h193.5c10.5 0 19 8.6 19 19.1v116.7c0 10.5-8.5 19-19 19z"/>
					</g>
					<g id="&lt;Group&gt;">
						<path id="&lt;Path&gt;" class="s6" d="m614.7 524.3h-211.8v-125.8h211.8z"/>
					</g>
					<g id="&lt;Group&gt;">
						<path id="&lt;Path&gt;" class="s4" d="m514.8 535.2c0 3.3-2.7 6-6 6-3.3 0-6-2.7-6-6 0-3.3 2.7-6 6-6 3.3 0 6 2.7 6 6z"/>
					</g>
					<g id="&lt;Group&gt;">
						<path id="&lt;Path&gt;" class="s0" d="m604.8 416.2h-192v-9.9h192z"/>
						<g id="&lt;Group&gt;">
							<path id="&lt;Path&gt;" class="s7" d="m420.7 411.5c0 1.2-0.9 2.1-2.1 2.1-1.2 0-2.1-0.9-2.1-2.1 0-1.2 0.9-2.1 2.1-2.1 1.2 0 2.1 0.9 2.1 2.1z"/>
						</g>
						<g id="&lt;Group&gt;">
							<path id="&lt;Path&gt;" class="s8" d="m428.5 411.5c0 1.2-0.9 2.1-2.1 2.1-1.1 0-2.1-0.9-2.1-2.1 0-1.2 1-2.1 2.1-2.1 1.2 0 2.1 0.9 2.1 2.1z"/>
						</g>
						<g id="&lt;Group&gt;">
							<path id="&lt;Path&gt;" class="s9" d="m436.4 411.5c0 1.2-1 2.1-2.1 2.1-1.2 0-2.1-0.9-2.1-2.1 0-1.2 0.9-2.1 2.1-2.1 1.1 0 2.1 0.9 2.1 2.1z"/>
						</g>
						<g id="&lt;Group&gt;">
							<path id="&lt;Path&gt;" class="s10" d="m595.6 409.1h6.4"/>
						</g>
						<g id="&lt;Group&gt;">
							<path id="&lt;Path&gt;" class="s10" d="m595.6 411.3h6.4"/>
						</g>
						<g id="&lt;Group&gt;">
							<path id="&lt;Path&gt;" class="s10" d="m595.6 413.4h6.4"/>
						</g>
					</g>
					<g id="&lt;Group&gt;">
						<g id="&lt;Group&gt;">
							<g id="&lt;Group&gt;">
								<path id="&lt;Path&gt;" class="s11" d="m543.5 427.3h14.9"/>
							</g>
							<path id="&lt;Path&gt;" class="s12" d="m561.4 427.3h7"/>
							<g id="&lt;Group&gt;">
								<path id="&lt;Path&gt;" class="s11" d="m570.9 427.3h22"/>
							</g>
							<g id="&lt;Group&gt;">
								<path id="&lt;Path&gt;" class="s13" d="m536.1 436.7h21.8"/>
							</g>
							<g id="&lt;Group&gt;">
								<path id="&lt;Path&gt;" class="s14" d="m560.9 436.7h14"/>
							</g>
							<g id="&lt;Group&gt;">
								<path id="&lt;Path&gt;" class="s11" d="m577.5 436.7h9.3"/>
							</g>
							<g id="&lt;Group&gt;">
								<path id="&lt;Path&gt;" class="s14" d="m589.8 436.7h9.3"/>
							</g>
							<path id="&lt;Path&gt;" class="s12" d="m538 446.1h12.7"/>
							<g id="&lt;Group&gt;">
								<path id="&lt;Path&gt;" class="s14" d="m553.7 446.1h9.9"/>
							</g>
							<g id="&lt;Group&gt;">
								<path id="&lt;Path&gt;" class="s13" d="m566.2 446.1h17.9"/>
							</g>
							<path id="&lt;Path&gt;" class="s12" d="m586.5 446.1h5.6"/>
							<g id="&lt;Group&gt;">
								<path id="&lt;Path&gt;" class="s13" d="m532.1 464.9h3.2"/>
							</g>
							<g id="&lt;Group&gt;">
								<path id="&lt;Path&gt;" class="s11" d="m538.3 464.9h18.3"/>
							</g>
							<g id="&lt;Group&gt;">
								<path id="&lt;Path&gt;" class="s14" d="m559.2 464.9h13.2"/>
							</g>
							<g id="&lt;Group&gt;">
								<path id="&lt;Path&gt;" class="s11" d="m574.4 464.9h16.9"/>
							</g>
							<g id="&lt;Group&gt;">
								<path id="&lt;Path&gt;" class="s13" d="m569.4 483.7h24.5"/>
							</g>
							<g id="&lt;Group&gt;">
								<path id="&lt;Path&gt;" class="s11" d="m538 474.3h12.7"/>
							</g>
							<g id="&lt;Group&gt;">
								<path id="&lt;Path&gt;" class="s14" d="m553.7 474.3h6.7"/>
							</g>
							<path id="&lt;Path&gt;" class="s12" d="m563 474.3h13.7"/>
							<g id="&lt;Group&gt;">
								<path id="&lt;Path&gt;" class="s14" d="m579.9 474.3h13.7"/>
							</g>
							<g id="&lt;Group&gt;">
								<path id="&lt;Path&gt;" class="s13" d="m538.6 483.7h9.7"/>
							</g>
							<path id="&lt;Path&gt;" class="s12" d="m551.3 483.7h4.1"/>
							<g id="&lt;Group&gt;">
								<path id="&lt;Path&gt;" class="s11" d="m557.9 483.7h8.5"/>
							</g>
							<g id="&lt;Group&gt;">
								<path id="&lt;Path&gt;" class="s14" d="m553.7 501.3h9.3"/>
							</g>
							<path id="&lt;Path&gt;" class="s12" d="m565.9 501.3h10.8"/>
							<g id="&lt;Group&gt;">
								<path id="&lt;Path&gt;" class="s13" d="m579.3 501.3h17.2"/>
							</g>
							<g id="&lt;Group&gt;">
								<path id="&lt;Path&gt;" class="s14" d="m545.1 510.7h7.1"/>
							</g>
							<path id="&lt;Path&gt;" class="s12" d="m555.1 510.7h11.3"/>
							<g id="&lt;Group&gt;">
								<path id="&lt;Path&gt;" class="s13" d="m569 510.7h10.2"/>
							</g>
							<g id="&lt;Group&gt;">
								<path id="&lt;Path&gt;" class="s11" d="m582.1 510.7h15.8"/>
							</g>
						</g>
						<g id="&lt;Group&gt;" style="opacity: .2">
							<path id="&lt;Path&gt;" class="s15" d="m534.5 427.3h3.2"/>
						</g>
						<g id="&lt;Group&gt;" style="opacity: .2">
							<path id="&lt;Path&gt;" class="s15" d="m526.2 436.7h3.1"/>
						</g>
						<g id="&lt;Group&gt;" style="opacity: .2">
							<path id="&lt;Path&gt;" class="s15" d="m530 446.1h3.2"/>
						</g>
						<g id="&lt;Group&gt;" style="opacity: .2">
							<path id="&lt;Path&gt;" class="s15" d="m522.5 455.5h3.1"/>
						</g>
						<g id="&lt;Group&gt;" style="opacity: .2">
							<path id="&lt;Path&gt;" class="s15" d="m522.5 464.9h3.1"/>
						</g>
						<g id="&lt;Group&gt;" style="opacity: .2">
							<path id="&lt;Path&gt;" class="s15" d="m529.6 474.3h3.2"/>
						</g>
						<g id="&lt;Group&gt;" style="opacity: .2">
							<path id="&lt;Path&gt;" class="s15" d="m530.5 483.7h3.2"/>
						</g>
						<g id="&lt;Group&gt;" style="opacity: .2">
							<path id="&lt;Path&gt;" class="s15" d="m522.5 493h3.1"/>
						</g>
						<g id="&lt;Group&gt;" style="opacity: .2">
							<path id="&lt;Path&gt;" class="s15" d="m542.8 501.3h3.2"/>
						</g>
						<g id="&lt;Group&gt;" style="opacity: .2">
							<path id="&lt;Path&gt;" class="s15" d="m535.3 510.7h3.2"/>
						</g>
					</g>
					<g id="&lt;Group&gt;">
						<g id="&lt;Group&gt;" style="opacity: .3">
							<path id="&lt;Path&gt;" class="s16" d="m460.9 470.4h-48.1v-45.4h48.1z"/>
						</g>
						<path id="&lt;Path&gt;" class="s16" d="m508.9 429.1h-42v-4.1h42z"/>
						<path id="&lt;Path&gt;" class="s16" d="m508.9 439.4h-42v-4.1h42z"/>
						<g id="&lt;Group&gt;" style="opacity: .3">
							<path id="&lt;Path&gt;" class="s16" d="m508.9 449.8h-42v-4.2h42z"/>
						</g>
						<g id="&lt;Group&gt;" style="opacity: .3">
							<path id="&lt;Path&gt;" class="s16" d="m508.9 460.1h-42v-4.1h42z"/>
						</g>
						<g id="&lt;Group&gt;" style="opacity: .3">
							<path id="&lt;Path&gt;" class="s16" d="m508.9 470.4h-42v-4.1h42z"/>
						</g>
						<path id="&lt;Path&gt;" class="s16" d="m460.9 510.7h-48v-33.4h48z"/>
						<g id="&lt;Group&gt;">
							<path id="&lt;Path&gt;" class="s7" d="m508.9 493h-42v-15.7h42z"/>
						</g>
						<path id="&lt;Path&gt;" class="s16" d="m508.9 510.7h-42v-9.7h42z"/>
					</g>
				</g>
				<g id="&lt;Group&gt;">
					<g id="&lt;Group&gt;">
						<path id="&lt;Path&gt;" class="s5" d="m524.5 826.4c0 0 2.3 21.4 13.7 27.4 11.3 6 11.3 20.4 4.5 20.4-6.8 0-38.2 3.1-43.8 0-5.5-3.2-2.4-13 0-35.1z"/>
					</g>
					<g id="&lt;Group&gt;">
						<path id="&lt;Path&gt;" class="s5" d="m381.9 826.4c0 0 2.2 21.4 13.6 27.4 11.3 6 11.3 20.4 4.5 20.4-6.8 0-38.2 3.1-43.8 0-5.5-3.2-2.4-13 0-35.1z"/>
					</g>
					<g id="&lt;Group&gt;">
						<path id="&lt;Path&gt;" class="s17" d="m393.6 753.9c-0.6 23.7-2.4 46-5.3 59.8h-43.9l-16.3-95.6-1.7-9.8c-9.3 0-16.9-7.6-16.9-16.8v-0.3c0.3-19 3.6-48.4 19.9-59.7 18.2-12.6 54.6 13.9 57.8 20.5 3.2 6.3 5.4 28.2 6.2 54.4 0.5 15.1 0.6 31.6 0.2 47.5z"/>
					</g>
					<path id="&lt;Path&gt;" class="s18" d="m393.6 753.9c-15.5 6.7-28.1 48-31.5 59.8h-17.7l-16.3-95.6c2-3.3 4.2-5.9 6.5-7.4 8-5 53.9-4.4 58.8-4.3 0.5 15.1 0.6 31.6 0.2 47.5z"/>
					<g id="&lt;Group&gt;">
						<path id="&lt;Path&gt;" class="s19" d="m537.6 572.2c14-5.2 23.7 0.9 26.3 5.2 2.5 4.4 3.9 8.3 2.8 10.5-1 2.1-4.6 0-4.6 0 0 0-12.3 2.3-21.7 0.9-9.3-1.3-2.8-16.6-2.8-16.6z"/>
					</g>
					<g id="&lt;Group&gt;" style="opacity: .5">
						<path id="&lt;Path&gt;" class="s20" d="m540 576.3c7.6 4.1 20.8 9.8 20.8 10.8-0.1 1-11.9 3.7-19.4 1.6-7.6-2.1-1.4-12.4-1.4-12.4z"/>
					</g>
					<g id="&lt;Group&gt;">
						<g id="&lt;Group&gt;">
							<path id="&lt;Path&gt;" class="s19" d="m404.9 405.8c5.3 21.6 1.4 47.2-17.2 49.2l0.1 7.7c0.1 5.6-4.5 10.2-10.1 10.3-5.7 0.1-10.3-4.5-10.3-10.1l-0.1-7.7c0 0-15-6.1-18-15.4-3.1-9.3 0-1.5 0-1.5l-1.7-37.9 57.7-0.6z"/>
						</g>
						<g id="&lt;Group&gt;" style="opacity: .5">
							<path id="&lt;Path&gt;" class="s20" d="m387.8 462.7l-17.8-7c0 0 9.5 0.2 17.7-0.7z"/>
						</g>
					</g>
					<path id="&lt;Path&gt;" class="s21" d="m394.6 430.6l-17 18c0 0-36.8-7.7-42.8-22.5-6-14.8-2.5-38.6 25.9-48.8 28.4-10.3 46.8 8.5 46.8 8.5 11.6-7.5 14.7 13.8-1.7 24.2z"/>
					<path id="&lt;Path&gt;" class="s21" d="m401.6 393.5l-11.3-15c0 0-0.4-11.4 6.2-11.4 6.7 0 13.8 10.5 11 18.7z"/>
					<g id="&lt;Group&gt;">
						<path id="&lt;Path&gt;" class="s22" d="m395.2 424.1c-0.2 2.6-2.1 25.9-7.5 30.9l-22.8 0.3c0 0-25.3-5.1-29.5-26.1q-0.8-3.7-1.1-6.8c7.5 15.1 39 17.7 56-1.5 0 0 2.2 1.4 4.9 3.2z"/>
					</g>
					<g id="&lt;Group&gt;">
						<path id="&lt;Path&gt;" class="s19" d="m401.8 432.3c-2.5 4.3-12.5-7.7-11.5-12.6 1.1-5 6.6-8.6 11.3-0.1 0 0 2.6 8.5 0.2 12.7z"/>
					</g>
					<g id="&lt;Group&gt;" style="opacity: .5">
						<path id="&lt;Path&gt;" class="s20" d="m402.8 430.3c-1.7 1.3-7.2-1.9-7.6-6.4-0.3-4.6 1.7-6.4 6-2 0 0 3.4 7.1 1.6 8.4z"/>
					</g>
					<g id="&lt;Group&gt;">
						<path id="&lt;Path&gt;" class="s7" d="m541.4 588.7c-2.3 4.4-59.9 13.3-74.6 10.3-14.8-2.9-26.6-24.3-26.6-24.3v56.8h-110.8c0 0-10.7-52.2-16.7-87.2-2.5-14.4-4.2-25.8-4-29.5 0.5-7.3 1.9-11.4 3.1-13.5 0.8-1.5 1.4-2 1.4-2 0 0 13.3-24.3 45-28l0.8-9.6c25.8-5.2 44.3 0 45 4.4 0.7 4.4 0 8.8 0 8.8 0 0 31-8.1 53.2 23.7 22.1 31.8 31 56.8 31 56.8 0 0 42.1 8.9 47.3 14.1 2.1 2.1 3.8 5 5 7.9 1.7 4.3 2.2 8.7 0.9 11.3z"/>
					</g>
					<path id="&lt;Path&gt;" class="s23" d="m541.4 588.7c-2.3 4.4-59.9 13.3-74.6 10.3-14.8-2.9-26.6-24.3-26.6-24.3v56.8h-110.8c0 0-10.7-52.2-16.7-87.2l-0.9-43c0 0 27 0.9 68.4 1.2 41.5 0.2 43.7 25.9 55 41.4 11.3 15.5 18.6 41.7 38.6 42 20 0.2 62 3.6 66.2-8.3l0.5-0.2c1.7 4.3 2.2 8.7 0.9 11.3z"/>
					<g id="&lt;Group&gt;">
						<path id="&lt;Path&gt;" class="s16" d="m531.6 810.4q-0.3 1.7-0.7 3.3h-43.8l-18-105.4h-78.8l-22.4-28.3-38.5-48.5h110.8q2.5 0 5.2 0.1c30.2 0.5 77.3 5.8 84.5 20.4 2.6 5.2 4.6 21.1 5.6 41.3 2 37.5 1.1 90-3.9 117.1z"/>
					</g>
					<path id="&lt;Path&gt;" class="s18" d="m531.6 810.4l-3.8 3.3h-40.7l-18-105.4h-78.8l-22.4-28.3 2.1-32.3 15-16.2h55.2q2.5 0 5.2 0.1c-6.2 53.3 32.6 67.2 57.4 65.9 13.2-0.7 24.7-2.6 32.7-4.2 2 37.5 1.1 90-3.9 117.1z"/>
					<g id="&lt;Group&gt;">
						<path id="&lt;Path&gt;" class="s24" d="m530.6 839.1h-43.6l-4-25.4h51.6z"/>
					</g>
					<g id="&lt;Group&gt;">
						<path id="&lt;Path&gt;" class="s24" d="m387.9 839.1h-43.6l-4-25.4h51.6z"/>
					</g>
				</g>
				<g id="&lt;Group&gt;">
					<g id="&lt;Group&gt;">
						<path id="&lt;Path&gt;" class="s17" d="m314 869.8h-3.9v-14.9h3.9z"/>
					</g>
					<g id="&lt;Group&gt;">
						<path id="&lt;Path&gt;" class="s17" d="m342.3 869.8h-4v-14.9h4z"/>
					</g>
					<g id="&lt;Group&gt;">
						<path id="&lt;Path&gt;" class="s17" d="m370.5 869.8h-4v-14.9h4z"/>
					</g>
					<path id="&lt;Path&gt;" class="s8" d="m411.3 708.3h-114.8c-7.8 0-14.1-6.3-14.1-14.1v-133.2c0-26.9 21.8-48.7 48.6-48.7h45.8c26.8 0 48.6 21.8 48.6 48.7v133.2c0 7.8-6.3 14.1-14.1 14.1z"/>
					<g id="&lt;Group&gt;">
						<path id="&lt;Path&gt;" class="s25" d="m411.3 708.3h-114.8c-7.8 0-14.1-6.3-14.1-14.1v-133.2c0-26.9 21.8-48.7 48.6-48.7h45.8c26.8 0 48.6 21.8 48.6 48.7v133.2c0 7.8-6.3 14.1-14.1 14.1z"/>
					</g>
					<path id="&lt;Path&gt;" class="s8" d="m386.9 708.3h-114.9c-7.8 0-14.1-6.3-14.1-14.1v-133.2c0-26.9 21.8-48.7 48.7-48.7h45.7c26.9 0 48.6 21.8 48.6 48.7v133.2c0 7.8-6.3 14.1-14 14.1z"/>
					<g id="&lt;Group&gt;">
						<path id="&lt;Path&gt;" class="s25" d="m434.3 736.9h-124.3c-7.9 0-14.3-6.4-14.3-14.3 0-7.9 6.4-14.3 14.3-14.3h124.3c7.9 0 14.3 6.4 14.3 14.3 0 7.9-6.4 14.3-14.3 14.3z"/>
					</g>
					<path id="&lt;Path&gt;" class="s8" d="m397.8 736.9h-124.2c-7.9 0-14.3-6.4-14.3-14.3 0-7.9 6.4-14.3 14.3-14.3h124.2c7.9 0 14.3 6.4 14.3 14.3 0 7.9-6.4 14.3-14.3 14.3z"/>
					<g id="&lt;Group&gt;">
						<path id="&lt;Path&gt;" class="s26" d="m346.4 850.4h-11.6v-101.9h11.6z"/>
					</g>
					<g id="&lt;Group&gt;">
						<path id="&lt;Path&gt;" class="s27" d="m356.9 748.5h-34c-2.4 0-4.4-2-4.4-4.3v-7.3h42.7v7.3c0 2.3-1.9 4.3-4.3 4.3z"/>
					</g>
					<g id="&lt;Group&gt;">
						<path id="&lt;Path&gt;" class="s27" d="m373.9 857.9h-68.1v-10.1h68.1z"/>
					</g>
					<g id="&lt;Group&gt;">
						<path id="&lt;Path&gt;" class="s5" d="m334.6 736.9h-15.1v-111.7h15.1z"/>
					</g>
					<g id="&lt;Group&gt;">
						<path id="&lt;Path&gt;" class="s27" d="m344.6 612.3v22.9c0 4.4-3.6 8-8 8h-19c-4.5 0-8.1-3.6-8.1-8v-22.9c0-4.4 3.6-8 8.1-8h19c4.4 0 8 3.6 8 8z"/>
					</g>
					<g id="&lt;Group&gt;">
						<path id="&lt;Path&gt;" class="s5" d="m335.8 622v3.5c0 4.4-3.6 8-8 8h-1.5c-4.4 0-8-3.6-8-8v-3.5c0-4.4 3.6-8 8-8h1.5c4.4 0 8 3.6 8 8z"/>
					</g>
					<g id="&lt;Group&gt;">
						<path id="&lt;Path&gt;" class="s26" d="m318.2 870.8c0 3.5-2.7 6.2-6.2 6.2-3.4 0-6.2-2.7-6.2-6.2 0-3.4 2.8-6.2 6.2-6.2 3.5 0 6.2 2.8 6.2 6.2z"/>
					</g>
					<g id="&lt;Group&gt;">
						<path id="&lt;Path&gt;" class="s26" d="m346.5 870.8c0 3.5-2.8 6.2-6.2 6.2-3.4 0-6.2-2.7-6.2-6.2 0-3.4 2.8-6.2 6.2-6.2 3.4 0 6.2 2.8 6.2 6.2z"/>
					</g>
					<g id="&lt;Group&gt;">
						<path id="&lt;Path&gt;" class="s26" d="m374.7 870.8c0 3.5-2.8 6.2-6.2 6.2-3.4 0-6.2-2.7-6.2-6.2 0-3.4 2.8-6.2 6.2-6.2 3.4 0 6.2 2.8 6.2 6.2z"/>
					</g>
				</g>
				<g id="&lt;Group&gt;">
					<path id="&lt;Path&gt;" class="s28" d="m220.4 583.4l-60.5-124.6 66.1-62.8"/>
					<g id="&lt;Group&gt;">
						<path id="&lt;Path&gt;" class="s16" d="m171.4 458.8c0 6.4-5.1 11.6-11.5 11.6-6.4 0-11.6-5.2-11.6-11.6 0-6.3 5.2-11.5 11.6-11.5 6.4 0 11.5 5.2 11.5 11.5z"/>
						<path id="&lt;Path&gt;" class="s29" d="m171.4 458.8c0 6.4-5.1 11.6-11.5 11.6-6.4 0-11.6-5.2-11.6-11.6 0-6.3 5.2-11.5 11.6-11.5 6.4 0 11.5 5.2 11.5 11.5z"/>
					</g>
					<path id="&lt;Path&gt;" class="s16" d="m223 373.9c5.2-3.6 12.4-2.1 15.8 3.3l2.3 3.8-18 11.9-2.2-2.5c-4.3-5-3.4-12.7 2.1-16.5z"/>
					<path id="&lt;Path&gt;" class="s8" d="m274.6 432c0 5.4-4.4 9.7-9.7 9.7-5.4 0-9.8-4.3-9.8-9.7 0-5.4 4.4-9.8 9.8-9.8 5.3 0 9.7 4.4 9.7 9.8z"/>
					<g id="&lt;Group&gt;">
						<path id="&lt;Path&gt;" class="s5" d="m241.1 381l36.7 34.5c2.3 2.2 2.5 5.8 0.5 8.3-7.3 8.7-21.1 15.6-29 19-3.1 1.3-6.7-0.2-7.9-3.4l-18.3-46.5z"/>
					</g>
					<g id="&lt;Group&gt;">
						<path id="&lt;Path&gt;" class="s5" d="m249.9 588.1h-59v-9.5h59z"/>
					</g>
				</g>
				<g id="&lt;Group&gt;">
					<g id="&lt;Group&gt;">
						<g id="&lt;Group&gt;">
							<path id="&lt;Path&gt;" class="s6" d="m602 328.7h-185.5v-185.5h185.5z"/>
						</g>
						<path id="&lt;Path&gt;" class="s16" d="m548.6 143.2c0 18.7-15.1 33.9-33.8 33.9-18.7 0-33.9-15.2-33.9-33.9 0-18.7 15.2-33.8 33.9-33.8 18.7 0 33.8 15.1 33.8 33.8z"/>
						<path id="&lt;Path&gt;" class="s16" d="m575.1 229.1h-107.1v-18.8h107.1z"/>
						<path id="&lt;Path&gt;" class="s0" d="m468 229.1h-18.7v-18.8h18.7z"/>
						<path id="&lt;Path&gt;" class="s16" d="m575.1 258h-107.1v-18.7h107.1z"/>
						<g id="&lt;Group&gt;" style="opacity: .3">
							<path id="&lt;Path&gt;" class="s16" d="m575.1 277.6h-54.5v-9.4h54.5z"/>
						</g>
						<path id="&lt;Path&gt;" class="s0" d="m468 258h-18.7v-18.7h18.7z"/>
					</g>
					<g id="&lt;Group&gt;">
						<g id="&lt;Group&gt;">
							<path id="&lt;Path&gt;" class="s7" d="m677.4 205.4h-91.6v-46.7h91.6z"/>
						</g>
						<g id="&lt;Group&gt;">
							<path id="&lt;Path&gt;" class="s7" d="m637.3 201.5l-41 25.4 15.6-27.9z"/>
						</g>
						<g id="&lt;Group&gt;">
							<path id="&lt;Path&gt;" class="s0" d="m615.2 182c0 2.4-1.9 4.3-4.3 4.3-2.4 0-4.3-1.9-4.3-4.3 0-2.3 1.9-4.3 4.3-4.3 2.4 0 4.3 2 4.3 4.3z"/>
							<path id="&lt;Path&gt;" class="s0" d="m635.9 182c0 2.4-1.9 4.3-4.3 4.3-2.4 0-4.3-1.9-4.3-4.3 0-2.3 1.9-4.3 4.3-4.3 2.4 0 4.3 2 4.3 4.3z"/>
							<path id="&lt;Path&gt;" class="s0" d="m656.6 182c0 2.4-1.9 4.3-4.3 4.3-2.4 0-4.3-1.9-4.3-4.3 0-2.3 1.9-4.3 4.3-4.3 2.4 0 4.3 2 4.3 4.3z"/>
						</g>
					</g>
					<path id="&lt;Path&gt;" class="s8" d="m432.2 319.2h-80.2v-55.5h80.2z"/>
					<text id="&lt;/&gt;
" style="transform: matrix(2,0,0,2,364.778,305.15)" >
						<tspan x="0" y="0" class="t30" dx="0 -2 -2 -2" >&lt;/&gt;
</tspan>
					</text>
					<text id="user
" style="transform: matrix(2,0,0,2,500.08,152.461)" >
						<tspan x="0" y="0" class="t31" dx="0 -1 -1 -1 -1" >user
</tspan>
					</text>
				</g>
				<g id="&lt;Group&gt;">
					<g id="&lt;Group&gt;">
						<path id="&lt;Path&gt;" class="s7" d="m648.5 826.4c2.4 22.1 4.8 44.6-0.8 47.8-5.5 3.1-36.9 0-43.8 0-6.8 0-6.8-14.4 4.6-20.4 11.3-6 13.6-27.4 13.6-27.4z"/>
					</g>
					<g id="&lt;Group&gt;">
						<path id="&lt;Path&gt;" class="s7" d="m785.4 839.1c2.4 22.1 5.6 31.9 0 35.1-5.5 3.1-36.9 0-43.8 0-6.8 0-6.8-14.4 4.6-20.4 11.3-6 11.4-17 11.4-17z"/>
					</g>
					<g id="&lt;Group&gt;">
						<path id="&lt;Path&gt;" class="s22" d="m602.8 294.2c-9.3 18.6-8.1 37.6 10.4 38.4 18.6 0.7-10.4-38.4-10.4-38.4z"/>
					</g>
					<g id="&lt;Group&gt;">
						<g id="&lt;Group&gt;">
							<g id="&lt;Group&gt;">
								<path id="&lt;Path&gt;" class="s19" d="m602.4 308.3l54.2-28.2 17.2 36.3c0 0-1-8.8 0.8 1.4 1.7 10.2-9.2 23.4-9.2 23.4l3.7 7.1c2.8 5.3 0.7 11.8-4.6 14.6-5.3 2.8-11.8 0.7-14.6-4.6l-3.7-7.2c-18.3 7.4-34.6-14.6-40.5-37.4z"/>
							</g>
							<g id="&lt;Group&gt;" style="opacity: .5">
								<path id="&lt;Path&gt;" class="s20" d="m646.2 351.1c8.1-3.3 16.9-8.2 16.9-8.2l-13.2 15.4z"/>
							</g>
						</g>
						<path id="&lt;Path&gt;" class="s21" d="m675.1 311.6c-0.6 11.5-3.6 21.5-5.8 24-4.8 5.1-21.2 10.9-21.2 10.9-7.5-1-20-6.5-30.2-15-10.8-9-18.9-21.5-15.5-35.8 5.8-24.3 41.6-35.8 60.7-20.8 10.3 8.1 12.7 23.4 12 36.7z"/>
						<g id="&lt;Group&gt;">
							<path id="&lt;Path&gt;" class="s22" d="m675.1 311.6c-0.6 11.5-3.6 21.5-5.8 24-4.8 5.1-21.2 10.9-21.2 10.9-7.5-1-20-6.5-30.2-15 0.3-3.7 1.3-7.2 3.7-9.4 7.1-6.3 27.9 8.6 32.6-15.5l4.4-1.5c0 0 9.6 3.8 16.5 6.5z"/>
						</g>
						<g id="&lt;Group&gt;">
							<path id="&lt;Path&gt;" class="s19" d="m615.6 324.9c0.3-10.3 7.2-9.6 10.6-5.5 3.5 4.1 0 20.3-4.3 17.5-4.4-2.8-6.3-12-6.3-12z"/>
						</g>
						<g id="&lt;Group&gt;" style="opacity: .5">
							<path id="&lt;Path&gt;" class="s20" d="m617.2 326.8c1.8-6.1 4.6-5.4 6.5-1 2 4.4-1.6 10.1-3.9 9.7-2.3-0.3-2.6-8.7-2.6-8.7z"/>
						</g>
					</g>
					<g id="&lt;Group&gt;">
						<path id="&lt;Path&gt;" class="s8" d="m667.3 309.9c0 0-8.4 2.8-13.1-3.3-6.8-8.6-2.8-20.9 6.1-24.7z"/>
					</g>
					<path id="&lt;Path&gt;" class="s21" d="m655.8 295.9c-2.8-13.6 11.3-25.1 23.7-18.7 3.1 1.6 5.7 4.2 7.1 7.6 4.6 11.6 4.3 26.5 18.4 28.6 0 0-17 18.2-34 7.2-9.6-6.1-13.5-16.6-15.2-24.7z"/>
					<path id="&lt;Path&gt;" class="s32" d="m706.7 348.7c27.5 0.5 57.2 35.8 65.6 58.9 8.4 23.1-13.7 51.2-13.7 51.2z"/>
					<g id="&lt;Group&gt;">
						<path id="&lt;Path&gt;" class="s19" d="m534 494.8c0 0-17.2 7.2-22.6 2.1-5.4-5-3.3-15.9-3.3-15.9 0 0 0 0-4.6 0.9-4.6 0.8-7.6-2.1-5.1-4.1 2.5-1.9 16.8-10.1 20.5-13.1 3.8-2.9 9.2-2.1 21.1 13.1z"/>
					</g>
					<path id="&lt;Path&gt;" class="s8" d="m757.8 578.6c-2.6 11.8-10 33.2-19.7 59-30.2 80.6-82.9 203.4-82.9 203.4l-44.8-4.2 66.8-332 1.5-7c0 0 29.6-43.9 52.8-34 4.6 2 8.9 5.8 12.6 11.1 5.1 7 9.3 16.5 12.3 27.5 6 22.1 7.3 50.2 1.4 76.2z"/>
					<path id="&lt;Path&gt;" class="s8" d="m791.4 839.7l-38.5 1.3-14.8-203.4-6.6-92.1v-70.6h43.9c7 9.1 13.2 21.8 18.2 37.4q0 0 0 0c21.7 67.2 23.6 189.6-2.2 327.4z"/>
					<g id="&lt;Group&gt;">
						<path id="&lt;Path&gt;" class="s25" d="m737 640.7l37.2-68.1-33.3 103.1z"/>
					</g>
					<path id="&lt;Path&gt;" class="s25" d="m793.6 512.3c-0.6-0.3-13.7-6.5-37.2-9.9-7.3-1-15.7-1.8-24.9-2-15.6-0.5-33.7 0.6-54.3 4.4l1.5-7c0 0 29.6-43.9 52.8-34 4.6 2 8.9 5.8 12.6 11.1h31.3c7 9.1 13.2 21.8 18.2 37.4z"/>
					<path id="&lt;Path&gt;" class="s16" d="m775.4 474.9l-96.7 22.9-32.2-42.8c0 0-17.4 41.2-28.9 47.3-11.6 6.1-84.5-3.8-84.5-3.8-1.9-2.1-2.1-6.3-1.5-10.8 1-8.1 4.5-17.3 4.5-17.3l57.2-5.4c0 0 17.3-46.6 24.3-69 6.9-22.4 21.6-25.6 21.6-25.6 0 0 0.3-5.6-0.1-7.1-0.4-1.6 23.4-19.3 39.6-19.3l3.7 3.4c0 0 15.3-6.6 35.1 7.1 10.4 7.2 25.8 40.1 38.2 69.7 11.1 26.7 19.7 50.7 19.7 50.7z"/>
					<path id="&lt;Path&gt;" class="s18" d="m775.4 474.9l-96.7 22.9-32.2-42.8c0 0-17.4 41.2-28.9 47.3-11.6 6.1-84.5-3.8-84.5-3.8-1.9-2.1-2.1-6.3-1.5-10.8 20.2-9.2 70.6 13.6 83.1-2.5 12.5-16.1 25.7-61.6 31.8-48.8 6 12.7 18.4 32 33.8 35.3 15.3 3.3 78.3-12.9 75.4-47.5 11.1 26.7 19.7 50.7 19.7 50.7z"/>
				</g>
			</g>
		</g>
	</g>
</svg>