<svg version="1.2" xmlns="http://www.w3.org/2000/svg" viewBox="0 0 3000 2000" width="600" height="400"><style>.s0{fill:#646464}.s1{fill:#d2e3fc}.s2{fill:#dfebfd}.s3{fill:#95c38b}.s4{fill:#d86713}.s5{fill:#f99746}.s6{fill:#f1a34f}.s7{opacity: .4;fill:#d86713}.s8{fill:#ed7d2b}.s9{fill:#699dee}.s10{fill:#e4edf9}.s11{fill:#afcdfb}.s12{fill:#e9f3fe}.s13{fill:#cae0ff}.s14{fill:#1c468a}.s15{fill:#78acea}.s16{fill:#ffffff}.s17{fill:#a8d29f}.s18{fill:#e49963}.s19{fill:#4a75cb}.s20{fill:#2b478b}.s21{fill:#163560}.s22{fill:#ee9849}.s23{fill:#739af0}.s24{fill:#d68d5d}.s25{fill:#233862}.s26{fill:#213f7a}.s27{fill:#ffb27d}.s28{fill:#e2915a}.s29{fill:#2e3552}.s30{fill:#f4a269}.s31{fill:#c65447}.s32{fill:#b5453c}.s33{fill:#9e332e}.s34{fill:#fafdff}.s35{fill:#b7d5f9}.s36{fill:#fca56b}</style><path class="s0" d="m0 0h3000v2000h-3000z" /><path class="s1" d="m960.2 1290.1q74.4-11.9 85.8 84.3q35 15.8 84.7 10.7q65.2-12.5 119.6 32.6l-6 7.7q-58.7-33.2-100.4-33.8c-1.6 0.1-3.9 0.1-6.6 0.2c-6.2 0.5-10.7 0.7-13.9 0.7c-19.2 1.2-44.7 3.8-52.2 9.5q-0.9-1.5-3.1-3.5q1.5 1.7 3.1 3.5c25.2 27.5 0.2 102.6-24.9 139.7c-25.2 37.2-29.3 14.7-38.8-14.8c-9.6-29.6 14.3-73.4 12.6-90c-1.6-16.5-17.1 0.2-26.3 28.2c-9.1 27.9 12.4 52.7-1.6 98.2q-14 45.4-110 44.7c21.8-26.4 27.6-87.4 18.1-93.8c-9.6-6.4-41.8 74.2-50.1 85.4c-8.3 11.2-42.3 22.7-86.7-11.5q-44.4-34.3 6.2-112.2q111.2-21 120.2-36.8q9-15.8-98.6-0.6q10.2-33.6 83.9-99.4q99.9 47.5 104.7 29.9q4.9-17.5-90.6-37.5q22.3-27.4 70.9-41.4z" /><path class="s2" d="m2108.4 667.3c-23.4 5.9-174 3.9-170.1 23.5c3.9 19.5 105.6 50.8 162.3 33.2q-62.6 154.5-144.7 146.7c-82.1-7.8-107.6-58.7-158.4-62.6c-50.8-3.9-88 9.8-62.6 23.5c25.4 13.7 111.5 4.5 152.6 39.4c41 34.9 74.3 56.4-2 72c-76.3 15.7-213.2 5.9-240.5-52.8q-1.8-3.8-3.5-7.3q1.7 4.9 3.5 7.3c-14.1 8.2-35.2 47.4-49.8 77.4q0 0-0.1 0c-2 5.2-5.3 12.2-10.2 21.8q0 0 0 0q0 0 0 0c-2 4.3-3.6 7.8-4.7 10.3q0 0.1-0.1 0.2q0 0 0 0q-2.4 6-4.3 12.5h-16q9.4-24 18.7-38.1q0 0 0 0q41-76.2 39.1-142.7q-146.7-82.2-78.2-193.6q54.7-68.5 113.4-86.1q-31.3 166.3 0 170.2q31.3 3.9 21.5-187.8q154.5-74.3 215.1-68.4q-95.8 162.3-64.5 158.4q31.3-3.9 138.8-168.2q158.4-29.3 183.8 64.5c25.5 93.9-15.6 140.8-39.1 146.7z" /><path class="s1" d="m628.9 527.5q35-56 132.2-5.7q37.7 128 57.2 136.7q19.6 8.7-10.7-115.7q40.5 8.1 126.4 86.8q-44.1 122.7-23 126.4q21.1 3.6 33.5-110.7q34.7 23 56.8 78.3q22.6 86-89 110.5q-14.3 42.9-2.6 100.6q3.2 11 4.6 28.4l-10.4-3.2q0-4.5-0.3-8.9q0 0 0-0.1q0 0 0-0.1c-0.3-1.8-0.6-4.4-1-7.6q0 0 0 0q0 0 0 0c-1.3-7.2-2.1-12.4-2.4-16.2q-0.1 0-0.1 0c-3.6-22.4-9.6-52-17.1-60.1q1.6-1.3 3.7-4.1q-1.8 1.9-3.7 4.1c-29.4 32.8-120.3 12.2-166.9-13c-46.5-25.2-20.6-32.7 13-47.3c33.5-14.6 87.7 8.3 106.9 4.4c19.3-3.9-2.2-20.1-36-27.6c-33.9-7.4-60.4 20.6-115.4 9.5q-55-11-65.2-123.8c33.4 22.6 105.7 22.2 112.1 10.3c6.4-12-92-40.3-106.1-48.8c-14.1-8.4-31.5-47 3.5-103.1z" /><path class="s2" d="m1452.4 595.1c-10.3 5.9-81.4 25.1-77 33.8c4.5 8.7 56.5 9.9 80.9-6q-8.8 81.1-48.6 88.4c-39.7 7.3-58.5-13.3-82.9-8.3c-24.5 4.9-40.2 16.3-26.4 19.4c13.8 3 53.1-12.8 77.1-1.8c24 10.9 42.6 16.6 8.7 34.2c-33.8 17.5-99.6 31.2-120.3 7.2q-1.4-1.5-2.6-3q1.4 2.1 2.6 3c-5.5 5.8-10.3 27-13.1 43.1q0 0 0 0c-0.3 2.7-1 6.5-2 11.6q0 0.1 0 0.1q0 0 0 0c-0.3 2.2-0.6 4.1-0.8 5.4q0 0.1 0 0.1q0 0 0 0.1q-0.3 3.1-0.4 6.4l-7.5 2.1q1.2-12.5 3.7-20.4q9.2-41.4-0.6-72.5q-80.1-19.1-62.7-80.7q16.6-39.5 41.9-55.7q7.5 82.5 22.7 80.2q15.3-2.4-14.9-91.3q62.8-55.7 92.2-61q-23.5 89.3-9.3 83.2q14.2-6 43-97.7q70.7-35 95.2 5.8c24.5 40.9 11.4 68.4 1.1 74.3z" /><path class="s3" d="m257.8 1599.8q-1.2 0.3-3.1 0.6q1.6-0.3 3.1-0.6z" /><path class="s4" d="m1465.4 1028.4q-55.8 569.5-56.2 588.6q-0.4 16.2 31.5 23.5q-168.6 0.1-211 0q-25.8-0.1-20.8-34.8l48.1-571.9z" /><path class="s5" d="m1454.4 1630.1c-8.4 0-169.4 0.5-210.7 0c-18-0.2-21.2-16-21.3-26.2q-0.1-4.9 0.5-8.5l1.3-14.9l3.2-37.9l2.8-33.5l3.6-43l3.1-36.3l34.1-406.3l208.4-5.5q-23.5 238.4-40.1 411.8c-1.8 19.3-3.6 37.9-5.2 55.2q-0.8 8.3-1.6 16.2c-1.5 16.4-2.9 31.4-4.1 44.8q-1 10.5-1.8 19.5c-2.1 23.3-3.4 38.3-3.4 41.1q0 2.5 0.4 4.7c3.4 18.2 27.6 18.8 30.8 18.8z" /><path class="s5" d="m1751.4 722.6l201.1 754.3h-1013.8l-54.5-219.2l-16.1-64.5l-117.1-470.6z" /><path class="s5" d="m938.7 1476.9l-21.5 16.3l-182.5-765.2l16.3-5.4z" /><path class="s4" d="m938.7 1476.9h1013.8l-27.8 16.3h-1007.5z" /><path class="s6" d="m1271 1630.3h218.1v10.4h-218.1z" /><path class="s6" d="m1903.4 1337.9l-164.5-605.3h-985.4l-2.5-10h1000.4l163.9 613.9z" /><path class="s4" d="m1433.6 1493.2l-1.1 8l-205.1 41.4l2.8-33.5l1.3-15.9z" /><path class="s7" d="m1454.4 1630.1c-8.4 0-169.4 0.5-210.7 0c-18-0.2-21.2-16-21.3-26.2l204.2-38.4c-2.1 23.3-3.4 38.3-3.4 41.1q0 2.5 0.4 4.7c3.4 18.2 27.6 18.8 30.8 18.8z" /><path class="s8" d="m1384.1 1324.2l-445.4 152.7l-54.5-219.2z" /><path class="s9" d="m751 722.6h1000.4l162.3 606.2h-1011.8z" /><path class="s4" d="m1450.8 1432.3c-14.9 0-29.3-12-32.1-26.9c-2.9-14.8 6.8-26.9 21.6-26.9c14.9 0 29.3 12.1 32.2 26.9c2.9 14.9-6.8 26.9-21.7 26.9z" /><path class="s10" d="m1866.5 1302.5h-936.7l-106-422.5l-8.2-32.4l-6.9-27.7l-16.3-64.8h923.2l17.9 64.8l7.6 27.7l8.9 32.4z" /><path class="s11" d="m1733.5 819.9h-924.8l-16.3-64.8h923.2z" /><path class="s12" d="m830.6 784.4c-1.1-4.5 1.6-8.1 6.1-8.1c4.5 0 9 3.6 10.1 8.1c1.1 4.5-1.6 8.1-6.1 8.1c-4.4 0-9-3.6-10.1-8.1z" /><path class="s12" d="m857.5 784.4c-1.1-4.5 1.6-8.1 6.1-8.1c4.5 0 9 3.6 10.1 8.1c1.1 4.5-1.6 8.1-6.1 8.1c-4.4 0-9-3.6-10.1-8.1z" /><path class="s12" d="m886.5 784.4c-1.1-4.5 1.6-8.1 6.1-8.1c4.5 0 9 3.6 10.1 8.1c1.1 4.5-1.6 8.1-6.1 8.1c-4.4 0-9-3.6-10.1-8.1z" /><path class="s13" d="m1660.2 1265h-693.9l-105.5-414.3h684z" /><path class="s1" d="m1749.9 947.1h-157.3l-28.7-96.4h159.1z" /><path class="s14" d="m1325.6 891h-89.9l-3.7-13.8h89.9z" /><path class="s15" d="m1485.2 891h-147.2l-3.7-13.8h147.2z" /><path class="s15" d="m1340.8 928.4h-159.6l-3.7-13.9h159.6z" /><path class="s6" d="m1437.8 928.4h-82.7l-3.7-13.9h82.7z" /><path class="s9" d="m1352.8 992.8h-90l-3.7-13.9h90z" /><path class="s15" d="m1512.3 992.8h-147.2l-3.7-13.9h147.2z" /><path class="s16" d="m1367.9 1030.1h-159.5l-3.7-13.8h159.5z" /><path class="s16" d="m1465 1030.1h-82.7l-3.7-13.8h82.7z" /><path class="s14" d="m1271.3 1088h-304.4l-3.7-13.9h304.4z" /><path class="s9" d="m1380.7 1088h-89.9l-3.7-13.9h89.9z" /><path class="s15" d="m1540.3 1088h-147.2l-3.7-13.9h147.2z" /><path class="s16" d="m1066.8 1125.4h-89.9l-3.7-13.9h89.9z" /><path class="s6" d="m1395.9 1125.4h-159.6l-3.7-13.9h159.6z" /><path class="s15" d="m1226.4 1125.4h-147.2l-3.7-13.9h147.2z" /><path class="s15" d="m1492.9 1125.4h-82.7l-3.7-13.9h82.7z" /><path class="s14" d="m1305.9 1191.2h-304.4l-3.7-13.9h304.4z" /><path class="s9" d="m1415.3 1191.2h-90l-3.7-13.9h90z" /><path class="s16" d="m1101.4 1228.6h-90l-3.7-13.9h90z" /><path class="s6" d="m1430.4 1228.6h-159.5l-3.8-13.9h159.6z" /><path class="s15" d="m1260.9 1228.6h-147.2l-3.7-13.9h147.2z" /><path class="s15" d="m1527.5 1228.6h-82.7l-3.7-13.9h82.7z" /><path class="s15" d="m1671.6 976.9l-69.2 0.2l-1.5-6.2l69.2-0.3z" /><path class="s15" d="m1708.1 976.8l-26 0.1l-1.6-6.3l26.1-0.1z" /><path class="s15" d="m1760.8 976.7l-45.9 0.1l-1.6-6.3l46-0.1z" /><path class="s15" d="m1644.2 992.9l-37.9 0.1l-1.6-6.3l38-0.1z" /><path class="s15" d="m1699.5 992.7l-49 0.2l-1.5-6.3l49-0.1z" /><path class="s15" d="m1764.7 992.5l-56.1 0.2l-1.6-6.3l56.2-0.1z" /><path class="s15" d="m1679.9 1010.9l-69.2 0.2l-1.6-6.3l69.2-0.2z" /><path class="s15" d="m1716.4 1010.8h-26l-1.6-6.2l26-0.1z" /><path class="s15" d="m1769.1 1010.6l-46 0.1l-1.5-6.2l46-0.2z" /><path class="s15" d="m1652.5 1026.9l-38 0.1l-1.5-6.3l38-0.1z" /><path class="s15" d="m1707.8 1026.7l-49 0.1l-1.5-6.2l49-0.2z" /><path class="s15" d="m1773 1026.5l-56.2 0.2l-1.5-6.3l56.2-0.2z" /><path class="s16" d="m1625.6 864.1l-41.7 0.1l-0.9-3.8l41.7-0.1z" /><path class="s16" d="m1647.6 864l-15.7 0.1l-0.9-3.8l15.7-0.1z" /><path class="s16" d="m1679.4 863.9l-27.7 0.1l-1-3.8l27.7-0.1z" /><path class="s16" d="m1609.1 873.7l-22.8 0.1l-1-3.8l22.9-0.1z" /><path class="s16" d="m1642.4 873.6l-29.5 0.1l-0.9-3.8l29.5-0.1z" /><path class="s16" d="m1681.7 873.5l-33.8 0.1l-1-3.8l33.9-0.1z" /><path class="s16" d="m1630.6 884.5l-41.7 0.1l-0.9-3.7l41.7-0.2z" /><path class="s16" d="m1652.6 884.5h-15.7l-0.9-3.8h15.6z" /><path class="s16" d="m1684.3 884.4h-27.7l-0.9-3.7l27.7-0.1z" /><path class="s16" d="m1614.1 894.1l-22.8 0.1l-1-3.8h22.9z" /><path class="s16" d="m1647.4 894l-29.5 0.1l-0.9-3.8h29.5z" /><path class="s16" d="m1686.7 893.9l-33.8 0.1l-1-3.8l33.8-0.1z" /><path class="s15" d="m1694 1068.9l-69.2 0.2l-1.5-6.3l69.2-0.2z" /><path class="s15" d="m1730.5 1068.8l-26 0.1l-1.5-6.3l26-0.1z" /><path class="s15" d="m1783.3 1068.6l-46 0.2l-1.6-6.3l46-0.2z" /><path class="s15" d="m1666.6 1084.9l-37.9 0.1l-1.5-6.3l37.9-0.1z" /><path class="s15" d="m1722 1084.7l-49 0.2l-1.6-6.3l49-0.2z" /><path class="s15" d="m1787.1 1084.5l-56.1 0.2l-1.5-6.3l56.1-0.2z" /><path class="s15" d="m1707.9 1125.8l-69.2 0.2l-1.6-6.3l69.2-0.2z" /><path class="s15" d="m1744.4 1125.6l-26 0.1l-1.6-6.3h26z" /><path class="s15" d="m1797.1 1125.5l-46 0.1l-1.5-6.3l46-0.1z" /><path class="s15" d="m1680.5 1141.7l-37.9 0.2l-1.6-6.3l38-0.1z" /><path class="s15" d="m1735.8 1141.6l-49 0.1l-1.5-6.3l49-0.1z" /><path class="s15" d="m1801 1141.4l-56.2 0.1l-1.5-6.2l56.2-0.2z" /><path class="s15" d="m1720.4 1177l-69.2 0.2l-1.6-6.3l69.2-0.2z" /><path class="s15" d="m1756.9 1176.9l-26.1 0.1l-1.5-6.3l26-0.1z" /><path class="s15" d="m1809.6 1176.7l-46 0.2l-1.5-6.3l46-0.2z" /><path class="s15" d="m1693 1193l-38 0.1l-1.5-6.3l37.9-0.1z" /><path class="s15" d="m1748.3 1192.8l-49 0.2l-1.5-6.3l49-0.2z" /><path class="s15" d="m1813.5 1192.6l-56.2 0.2l-1.5-6.3l56.2-0.2z" /><path fill-rule="evenodd" class="s17" d="m1753 1253.2c-11.2 0-22.8-9.1-26.1-20.2c-3.2-11.1 3.2-20.2 14.3-20.2c11.1 0 22.8 9.1 26.1 20.2c3.2 11.1-3.2 20.2-14.3 20.2zm-10.7-36.7c-9.1 0-14.4 7.4-11.7 16.5c2.7 9.1 12.2 16.5 21.3 16.5c9.1 0 14.3-7.4 11.7-16.5c-2.7-9.1-12.2-16.5-21.3-16.5z" /><path class="s17" d="m1749.7 1243.3c-0.8-0.1-1.6-0.4-2.3-1l-11.3-9c-1.5-1.3-2.1-3.2-1.2-4.4c0.9-1.1 2.9-1.1 4.4 0.1l8 6.4l4.1-9.4c0.6-1.4 2.4-1.7 4.1-0.7c1.6 1 2.5 2.9 1.9 4.3l-5.4 12.4c-0.3 0.7-1 1.2-1.9 1.3q-0.2 0-0.4 0z" /><path fill-rule="evenodd" class="s6" d="m1808.6 1253.2c-11.1 0-22.8-9.1-26-20.2c-3.3-11.1 3.2-20.2 14.3-20.2c11.1 0 22.8 9.1 26 20.2c3.3 11.1-3.1 20.2-14.3 20.2zm-10.7-36.7c-9 0-14.3 7.4-11.6 16.5c2.6 9.1 12.2 16.5 21.3 16.5c9.1 0 14.3-7.4 11.6-16.5c-2.6-9.1-12.2-16.5-21.3-16.5z" /><path class="s6" d="m1803.7 1236.3c-1.5 0-3.2-1.3-3.7-2.8l-2.5-8.6c-0.4-1.6 0.5-2.9 2.1-2.9c1.5 0 3.2 1.3 3.6 2.9l2.5 8.6c0.5 1.5-0.4 2.8-2 2.8z" /><path class="s6" d="m1806 1243h-0.6c-1.4 0-2.9-1.1-3.3-2.5c-0.4-1.4 0.4-2.6 1.8-2.6h0.6c1.4 0 2.9 1.2 3.3 2.6c0.4 1.4-0.4 2.5-1.8 2.5z" /><path fill-rule="evenodd" class="s17" d="m1690.9 937.8c-6.1 0-12.5-4.9-14.3-11c-1.7-6.1 1.8-11.1 7.9-11.1c6.1 0 12.5 5 14.3 11.1c1.7 6.1-1.8 11-7.9 11zm-5.8-20.1c-5 0-7.9 4.1-6.4 9.1c1.4 4.9 6.7 9 11.6 9c5 0 7.9-4.1 6.4-9c-1.4-5-6.7-9.1-11.6-9.1z" /><path class="s17" d="m1689.1 932.4c-0.4-0.1-0.8-0.2-1.2-0.5l-6.2-5c-0.9-0.7-1.2-1.7-0.7-2.4c0.5-0.6 1.6-0.6 2.4 0.1l4.4 3.5l2.3-5.2c0.3-0.8 1.3-0.9 2.2-0.4c0.9 0.6 1.4 1.6 1.1 2.4l-3 6.8c-0.2 0.4-0.6 0.6-1 0.7q-0.2 0-0.3 0z" /><path fill-rule="evenodd" class="s17" d="m1659.3 937.8c-6.1 0-12.5-4.9-14.3-11c-1.8-6.1 1.7-11.1 7.8-11.1c6.1 0 12.5 5 14.3 11.1c1.8 6.1-1.7 11-7.8 11zm-5.9-20.1c-5 0-7.8 4.1-6.4 9.1c1.5 4.9 6.7 9 11.7 9c5 0 7.9-4.1 6.4-9c-1.5-5-6.7-9.1-11.7-9.1z" /><path class="s17" d="m1657.5 932.4c-0.4-0.1-0.9-0.2-1.3-0.5l-6.2-5c-0.8-0.7-1.1-1.7-0.6-2.4c0.5-0.6 1.5-0.6 2.4 0.1l4.4 3.5l2.2-5.2c0.3-0.8 1.3-0.9 2.3-0.4c0.9 0.6 1.3 1.6 1 2.4l-2.9 6.8c-0.2 0.4-0.6 0.6-1.1 0.7q-0.1 0-0.2 0z" /><path fill-rule="evenodd" class="s17" d="m1626.5 937.8c-6.1 0-12.5-4.9-14.3-11c-1.8-6.1 1.8-11.1 7.9-11.1c6.1 0 12.5 5 14.2 11.1c1.8 6.1-1.7 11-7.8 11zm-5.9-20.1c-4.9 0-7.8 4.1-6.4 9.1c1.5 4.9 6.7 9 11.7 9c5 0 7.9-4.1 6.4-9c-1.4-5-6.7-9.1-11.7-9.1z" /><path class="s17" d="m1624.7 932.4c-0.4-0.1-0.9-0.2-1.2-0.5l-6.2-5c-0.9-0.7-1.2-1.7-0.7-2.4c0.5-0.6 1.6-0.6 2.4 0.1l4.4 3.5l2.2-5.2c0.4-0.8 1.4-0.9 2.3-0.4c0.9 0.6 1.4 1.6 1 2.4l-2.9 6.8c-0.2 0.4-0.6 0.6-1.1 0.7q-0.1 0-0.2 0z" /><path fill-rule="evenodd" class="s6" d="m1721.5 937.8c-6.1 0-12.6-4.9-14.3-11c-1.8-6.1 1.7-11.1 7.8-11.1c6.1 0 12.5 5 14.3 11.1c1.8 6.1-1.7 11-7.8 11zm-5.9-20.1c-5 0-7.9 4.1-6.4 9.1c1.4 4.9 6.7 9 11.7 9c4.9 0 7.8-4.1 6.4-9c-1.5-5-6.7-9.1-11.7-9.1z" /><path class="s6" d="m1718.8 928.6c-0.9 0-1.8-0.7-2.1-1.6l-1.3-4.7c-0.3-0.9 0.2-1.6 1.1-1.6c0.8 0 1.7 0.7 2 1.6l1.4 4.7c0.2 0.9-0.3 1.6-1.1 1.6z" /><path class="s6" d="m1720 932.3h-0.3c-0.8 0-1.6-0.7-1.8-1.4c-0.3-0.8 0.2-1.4 0.9-1.4h0.4c0.8 0 1.6 0.6 1.8 1.4c0.2 0.7-0.2 1.4-1 1.4z" /><path class="s18" d="m656.4 1244.1q16.7 4.3 27.3 1.1c10.6-3.2 28.8 2.1 31.8 5.9c2.9 3.9 1.8 5.4-3.4 6.8c-5.3 1.3-23.8 9.2-36 4.6q-12.2-4.5-28.1-4.7z" /><path class="s19" d="m578.3 1098.8c18.8 19.8-5.5 84.7 9.5 105.8q10.1 14.1 80.9 40.1q1.2 16.2-3.7 20.2c-20-1.3-87.6-14.7-102.9-20.6q-31-11.9-49.7-145c15.5-28.7 47.1-20.2 65.9-0.5z" /><path class="s20" d="m514.8 1618.6v-209.8c0-4.6 3.7-8.4 8.4-8.4h9c4.7 0 8.4 3.8 8.4 8.4v209.8c0 4.6-3.7 8.4-8.4 8.4h-9c-4.7 0-8.4-3.8-8.4-8.4z" /><path class="s20" d="m447.8 1641.9c8.4-17.3 41-30.2 79.9-30.2c38.9 0 71.5 12.9 79.9 30.2z" /><path class="s20" d="m466.8 1580.9v-4.7c0-1.2 1-2.2 2.3-2.2h117.2c1.3 0 2.3 1 2.3 2.2v4.7c0 1.2-1 2.2-2.3 2.2h-117.2c-1.3 0-2.3-1-2.3-2.2z" /><path class="s21" d="m497.6 1308.5q8.7-20.5 91.9 11.1q16.6 41.2 37.4 92.9c2.8 6.8 5.5 13.7 8.4 20.7q1.8 4.6 3.6 9.2c9.3 22.9 18.9 46.7 27.9 69.1c22.1 55.1 38.7 100.2 40.2 104l-38 1.6q-20.7-27.2-42.7-59.9c-12.8-18.9-25.6-39.7-34.1-58.2c-2.3-5-4.3-9.7-5.8-14.3c-1.6-4.4-2.8-8.7-3.6-12.6c-3.8-19.8-25.7-40.8-45.8-66.2c-6.5-8.2-12.9-16.9-18.3-26.2c-22.4-37.9-28.2-54.4-21.1-71.2z" /><path class="s21" d="m699.2 1606.1c6.7 14.8 25.5 22.7 36.6 24.6q11.2 2 11.5 11.2l-38.3 0.2q-30 0-30.8-0.1q-6-0.4-8-31.8q21.8-19.6 29-4.1z" /><path class="s21" d="m599.9 1543.9c-9.6 13.1-7.4 33.3-3.6 44q3.7 10.7-4.2 15.4l-18.8-33.3q-14.6-26.2-15-26.9q-2.6-5.5 23.9-22.5q27.8 9.5 17.7 23.3z" /><path class="s14" d="m619.4 1305.5q103.1 64.2 114.7 107.9q11.7 43.8-139 137.1q-16.5-14.6-19.4-25.3q68.1-81.6 82.9-99.9c9-11.2-134.2-38.9-151.7-66.1q-17.5-27.2-11.2-50.1z" /><path class="s22" d="m413 1438.7v-42.7c0-4.3 3.5-7.8 7.8-7.8h213.8c4.3 0 7.8 3.5 7.8 7.8v42.7c0 4.3-3.5 7.8-7.8 7.8h-213.8c-4.3 0-7.8-3.5-7.8-7.8z" /><path class="s18" d="m569.7 1076.5q10.2 6.4 15.9 14.4q-25.1 6.5-66.6-16.7q16.2-10.8 22.1-34.6q0.5-1.8 0.8-3.7c0.8-4 1.3-8.3 1.4-13l11.5 10.3l19.1 17.1q-0.4 7.1-2.8 19.4q-0.6 3.2-1.4 6.8z" /><path class="s23" d="m527.3 1064.6c1.7-1.3 5.1 2.1 15 6.7c9 4.3 19.1 5.6 27.6 3.7l7.6 6.5c10.5 9.5 22.1 22.4 27.3 42.2c3.2 12.2 5.6 31.4 7.4 53c0.7 8.3 1.3 17.1 1.8 25.9c0.8 14 1.6 28.2 1.9 41.7q0 0.3 0 0.7v0.5c0.2 1.4 0.2 2.9 0.2 4.2c0.4 12.1 0.3 23.3 0.7 32.9c0.4 8.5 3.5 12.2 4.3 15.7c0.2 0.9 0.2 1.8 0 2.8q-0.1 0.4-0.2 0.8c-2.4 6.8-24.9 15.9-45.5 22.3c-7.4 2.3-14.5 4.2-20.5 5.6c-15.9 3.6-55.9 10.1-59.4-0.8c-4.1-12.7 0.6-86.1-3-134.3c-4.2-59 12.1-112.6 34.8-130.1z" /><path class="s19" d="m538 1208.9l77.9 35.4q0 0.3 0 0.7v0.5c0.2 1.4 0.2 2.9 0.2 4.2c0.4 12.1 0.3 23.3 0.7 32.9c0.4 8.5 3.5 12.2 4.3 15.7q0 1.4 0 2.8q-0.1 0.4-0.2 0.8c-2.4 6.8-24.9 15.9-45.5 22.3q-41.9-52.5-37.4-115.3z" /><path class="s24" d="m573.9 1050.3q-0.4 7.1-2.8 19.4c-18.7-6.1-27.1-22.9-30-30.1q-0.8-2-1.1-3.3q0.7-0.1 1.9-0.4c2.7-0.5 7.6-1.6 12.9-2.7z" /><path class="s18" d="m581.5 1050.1q-41 4.7-43.5-20.9c-2.5-25.6-9.5-42.3 16.6-46.3c26.1-4 32.1 5.2 35 13.6c2.9 8.3 2.5 51.8-8.1 53.6z" /><path class="s20" d="m547 971.5q20.1-3.3 39.7-6c2.7 3.5 17 25.5-8.6 28q-37.4 3.5-40 37.4c-4.1-5.2-33.3-52.4 8.9-59.4z" /><path class="s19" d="m767.2 1183.5l3.6 1.1l-30.5 94.1l-3.6-1.2z" /><path class="s19" d="m636.7 1270.2l103.7 2.3l-0.1 6.2l-103.7-2.3z" /><path class="s18" d="m647.8 1264.6q16.1 6.1 27 4.1c10.9-2 28.5 5.2 31 9.4c2.4 4.1 1.2 5.5-4.1 6.3c-5.4 0.7-24.7 6.6-36.4 0.7q-11.6-5.9-27.4-7.9z" /><path class="s23" d="m586.2 1111.6c16.5 21.7-14.8 83.6-2.2 106.1q8.5 15.2 76 48.9q-0.6 16.2-5.9 19.6c-19.7-3.6-85.5-24.3-100-31.8q-29.5-15.3-33.5-149.6c18.6-26.9 49.1-15 65.6 6.8z" /><path class="s25" d="m1641.5 1637.8q1.6-11.8 5-18.7q3.5-7 25.7-2.6q4.5 3.8 5.4 21.6z" /><path class="s25" d="m1495.3 1637.6c0.7-2.5 3.1-6.8 10.9-8.1c11.2-1.8 31-8.5 34.3-23.4q3.4-14.9 27.7 4.6q2.9 23.7-2.3 26.9z" /><path class="s26" d="m1616.3 1464.9c-1 5.4-1.7 9.9-1.8 13.1c-2.3 44.1-37.1 144.8-43.4 147.2c-9.6 3.6-24.8-4.1-32.7-6.6c-3.3-1.1-5.5-4.4-4.8-7.8c17.2-79.3 23.6-193.5 25.9-261.1q1.2-34.1 7-57.6q85-22.7 85.5 6c0.4 25.4-28.2 124.9-35.7 166.8z" /><path class="s25" d="m1616.3 1464.9l-56.8-115.2q1.2-34.1 7-57.6q85-22.7 85.5 6c0.4 25.4-28.2 124.9-35.7 166.8z" /><path class="s26" d="m1687 1290c11.8 7.7 1.3 77.8 2.4 119.7q1.1 41.9-12.1 215q-15.3 3.8-35-0.9l-44.9-325.6q77.7-16 89.6-8.2z" /><path class="s20" d="m1690.1 1214.6l5.6 78.2c0.3 2.9-1.6 5.6-4.5 6.4c-6.2 1.8-13.4 3.1-27.4 6c-13.1 2.7-30.7 5.1-52.3 5.2q-34.4 0.3-47.4-11.6c-1.5 0 0.7-7.2 2.8-41.4c0.7-11.6 1.3-26.3 1.8-44.9c0.5-16.7 0.8-36.6 0.8-60.1c0-28.4 43.9-58.9 44.7-58.9c0 4.1 6.4 11.6 16.3 12.3c11.8 0.8 26.2-5.1 26.2-11.9c0 0 21.3 34 28.8 70.3c1 4.7 1.7 9.5 2.3 14.6q0.1 0.1 0.1 0.3q0.1 1.3 0.3 2.8q0 0.2 0 0.5q0.2 1.3 0.3 2.6q0 0.3 0 0.7q0.1 1.2 0.2 2.4q0.1 0.1 0.1 0.2q0 0.9 0.1 1.9q0 0.6 0.1 1.2q0.1 1.1 0.1 2.2q0.1 0.5 0.1 1.1q0.1 1 0.1 2q0.1 0.5 0.1 0.9q0.1 1.5 0.1 3q0.1 0.1 0.1 0.3q0 1.4 0.1 2.9q0 0.3 0 0.7q0.1 1.4 0.2 2.8q0 0.2 0 0.4q0.1 3.4 0.2 6.9q0.1 0.1 0.1 0.2z" /><path class="s20" d="m1587.4 1194.1c-11.7 15.1-32.7 50-43.9 25.3c-11.3-24.6 10.3-98.7 20.1-112.5q9.8-13.7 50.6-13.4q-15.1 85.5-26.8 100.6z" /><path class="s27" d="m1613.7 1064.5l9.2-1.5l31.5 0.6c-0.4 2.9-0.6 5.5-0.6 7.9c0.1 6.5 1.7 11.9 3.2 19.8c0.4 10.2-11.9 17.3-28.1 15.3q-16.2-1.9-15.1-15.1v-4.2z" /><path class="s28" d="m1622.9 1063l31.5 0.6c-0.4 2.9-0.6 5.5-0.6 7.9c-4.9 7.7-14.2 18.3-28.7 18.3c-4.2 0-8-1-11.3-2.5l-0.1-22.8z" /><path class="s27" d="m1656.8 1058.5c-3.6 19.7-29 19-39.9 17.8q-3.1-0.3-5.1-0.7c-3.5-1-5.4-6.4-6.3-13.6c-1.8-14.2 0.5-35.1 2.9-40.4c3.6-8 10.4-16.7 35.9-10.4c25.6 6.2 17.2 22.1 12.5 47.3z" /><path class="s25" d="m1572.5 1196q-7.5-2.2-15.3-2q-0.5-10.4 15.3-45.3q12.3 51 0 47.3z" /><path class="s25" d="m1600.5 1002.9q11.3-0.9 24.5-6.6c10.8-4.7 24.4 0.4 28.8 2.8c-0.1-0.7-0.4-1.7-1.1-2.7q2 1.4 2.3 3.4q0.3 0.2 0.2 0.3q2.3-0.4 3.7 0.2q-1-0.1-1.4 0.5q0 0.1-0.1 0.2c16.8 8.1 18.3 34.6 12.9 40.8q-6.5 7.4-14.3 24q-2.8-3.9-1.6-10.4c1.1-6.5-4.5-6.5-11.6-9.5c-7.1-3-1.1-11.2-7.4-16.2c-6.2-5.1-28.9-2.1-28.6-6c-8.4-3-6.3-19.9-6.3-20.8z" /><path class="s25" d="m1662 1214c-6.7 26.8-78.7 40.6-95.1 43.4c0.7-11.6 1.3-26.3 1.8-44.9z" /><path class="s27" d="m1641.7 1209q22.1-18.3 30.3-13.8c8.2 4.6-4.3 22.5-7.1 23.8c-2.7 1.4-18.1 3.7-18.8 3.7z" /><path class="s20" d="m1563.6 1196.6q14.9-3.6 76.9 9.5q12.5 5.1 11.5 16.6q-39.8 8.5-99.1 5.3q-4.2-27.7 10.7-31.4z" /><path class="s20" d="m1689.1 1181.5c-12.3 14.8-28.4 26.9-46.2 29.8c-0.1-0.3-5.3-8.2-4.3-19.8c0.4-5.4 2.2-11.6 6.4-18.2c1.3-2 2.5-4.4 3.5-7q9.7-24.8 8.2-72.4q41.2 4.3 54 22.6c7.8 11.3-2.2 41.5-21.6 65z" /><path class="s28" d="m1616.9 1076.3q-3.1-0.3-5.1-0.7c-3.5-1-5.4-6.4-6.3-13.6c6.5 1.6 9.5 6.6 10.8 8.8c0.5 0.9 0.6 3.1 0.6 5.5z" /><path class="s27" d="m1600.3 1087.4q-14.2-23.4-3.2-24.4c11.1-1.1 15.5 6.4 17.1 9.2q1.6 2.7-0.4 15.1z" /><path class="s20" d="m1654.4 1190.7c-0.4 2.9-1.3 5.7-2.4 8.1q-3.5 7.7-9.1 12.5c-36.8-16.7-44.3-73.9-45.6-105.3q-0.5-12.6 0-21.1q16.7-5.5 21.4 4.1q19.6 46.7 29.8 77.3c3.9 11.6 6.4 21 5.9 24.4z" /><path class="s25" d="m1689.1 1181.5c-12.3 14.8-28.4 26.9-46.2 29.8c-36.8-16.7-44.3-73.9-45.6-105.3q17.5 63.3 41.3 85.5c4.2 4 8.7 6.6 13.4 7.3q29.9-8.5 36.2-16.4q0.7-0.9 0.9-0.9z" /><path class="s29" d="m2770.8 1643.8h-2541c-1.6 0-2.9-1.3-2.9-2.9v-1c0-1.6 1.3-2.9 2.9-2.9h2541c1.6 0 2.9 1.3 2.9 2.9v1c0 1.6-1.3 2.9-2.9 2.9z" /><path class="s5" d="m2352.5 1469.2q0.1 0 0.1 0c22.7-21.4 47.7-38.4 65.4-46.5q0.6-0.3 1.2-0.6q0.1 0 0.3-0.1c7.6-4.2 17.7-14.4 28.4-27.3q33.4-40.4 74-108.1c12.9-20 26.2-28.5 38.1-33.2q2.7-1.1 5.2-2c40.8-13.8 132.4 70.2 123.8 244.3c-4.2 84.3-4.1 114.9-56.4 140.5h-216.9c-58.2-9.3-111.3-25.1-118.5-52c-10.1-37.9 20-81.8 55.3-115z" /><path class="s8" d="m2418 1422.7q0.6-0.3 1.2-0.6q0.1 0 0.3-0.1c9.2-4.8 18.7-14.6 28.4-27.3q33.4-40.4 74-108.1q0.2-0.3 0.4-0.6c13.2-20.2 43.3-14.8 49.4 8.7c14.7 57.6 31.3 146.4 4.6 181.1c-36.8 48-193.3 2.8-223.7-6.6c22.7-21.4 47.7-38.4 65.4-46.5z" /><path class="s30" d="m2489.3 1269.8c2.1 14.5-25.2 77.6-32.4 88.3q-7.2 10.7-71.1 19.4l-3.3-7.7q43.6-17.8 51.5-23.9c7.8-6.1 12.5-17 18-46.5q6.1-33.8 17-49.8q18.2 5.7 20.3 20.2z" /><path class="s27" d="m2312.5 1602.1c0.6 6.2-8.1 7.7-18.1 8.2c-10.1 0.5-7 2.6-20.8 5.1c-13.8 2.5-19.3-1.3-20.3-3.2c-0.9-1.6 5.5-4.2 12.3-7.1q1.3-0.6 2.6-1.1c7.7-3.4 12-10.3 18-16.7q5.7-6 11.1-25.4l18.7-4q-5.3 17.4-7.1 24.9c-1.1 4.4 0.5 9.2 1.9 13c0.8 2 1.5 4.1 1.7 6.3z" /><path class="s31" d="m2294.4 1610.3c-10.1 0.5-7 2.6-20.8 5.1c-13.8 2.5-19.3-1.3-20.3-3.2c-0.9-1.6 5.5-4.2 12.3-7.1l0.1 0.1q9.7 3.3 20.9 0.2c9.1-2.4 17.9-7.9 24.2-9.6c0.8 2 1.5 4.1 1.7 6.3c0.6 6.2-8.1 7.7-18.1 8.2z" /><path class="s21" d="m2518 1366.1q13.5 28.5-2.8 57.3c-16.3 28.7-124.2 15.1-132.9 15.6c-8.6 0.4-7.7 17.8-11.5 37.2q-3.8 19.4-57.7 96.4q-10.6 2.8-15.5 2.3q-5.1-0.6-7.4-2.5q37.5-172 60.9-186.8q23.4-14.8 147.8-5.4z" /><path class="s27" d="m2360.1 1622c0.6 6.3-8.1 7.8-18.1 8.3c-10.1 0.5-7.1 2.5-20.8 5c-13.8 2.5-19.3-1.2-20.3-3.1c-0.9-1.6 5.5-4.2 12.3-7.1q1.3-0.6 2.6-1.2c7.7-3.3 12-10.2 18-16.6q5.6-6.1 11-25.4l18.7-4q-5.2 17.4-7 24.8c-1.1 4.4 0.5 9.3 1.9 13c0.7 2.1 1.5 4.1 1.7 6.3z" /><path class="s31" d="m2342 1630.3c-10.1 0.5-7.1 2.5-20.8 5c-13.8 2.5-19.3-1.2-20.3-3.1c-0.9-1.6 5.5-4.2 12.3-7.1l0.1 0.1q9.7 3.3 20.9 0.2c9.1-2.5 17.9-7.9 24.2-9.7c0.7 2.1 1.5 4.1 1.7 6.3c0.6 6.3-8.1 7.8-18.1 8.3z" /><path class="s14" d="m2555.4 1440.1c-15.2 29.4-123.5 20-132.2 20.8c-8.6 0.8-7 18.1-10 37.6q-3.1 19.5-54 98.6q-10.5 3.2-15.3 2.9q-5.2-0.4-7.6-2.1q30.8-173.5 53.6-189.1q22.9-15.7 133.3-20.9q47.4 22.9 32.2 52.2z" /><path class="s32" d="m2483.9 1144.8c4.9-3.2 10.9-4 15.2-4q-1.1-1.1-3.3-1.3q2.6-0.6 8.7 1.6c35.9-16.6 45.3 37.2 45.3 49.9c0.1 12.6 1 27.1 20.1 37.2q37.7 19.8 9.8 60.7q-0.3 0.2-15 29.4c0.3-10.3-50.3-60.9-75.9-75.3c-6.6-8.4-9.7-23.8-10-25c1.9 12.2 4.5 19 6.6 22.7c-22-17.7-14.5-87.3-1.5-95.9z" /><path class="s27" d="m2501.2 1253.7c-20.5 3.2-21.5-14.1-11.8-18.1c4-1.7 10.9-3.9 17.9-4.5q10.3-1 20.6 0c1.4 5.1-6.3 19.4-26.7 22.6z" /><path class="s27" d="m2491.3 1229.6q-0.5-8.1-1.7-16.6l26.8-7.2l1.6-0.4c1.4 21.1 8 30.4 8.8 34c1.7 7.5-17.3 18.1-26 18.5c-13.4 0.6-10.6-14.2-10.5-14.2c1.5-0.9 1.5-7.3 1-14.1z" /><path class="s30" d="m2516.4 1205.8c-2.7 7.9-9.9 22.3-25.1 23.8q-0.5-8.1-1.7-16.6z" /><path class="s32" d="m2478.8 1202.5l-3.2-8.3c-11.7-24.2-3.3-33.9 2.6-38.5q7.5-5.8 15.8-7.2c28.4-6 34.3 22.3 33.4 30.1q-1.2 10.9-8.3 24z" /><path class="s27" d="m2470.3 1175.8c1.4-7.6 5.3-16.5 28.4-16.7c23.1-0.2 19.4 15.1 20.9 37.6q1.5 22.5-34.6 24.3c-9.4-0.1-16-37.6-14.7-45.2z" /><path class="s32" d="m2515.3 1162.2q3.5 15.9 15.7 24.4q-6.3 4.5-21.7 1.6q-15.4-2.9-27.1-28.6q6.7-13 33.1 2.6z" /><path class="s32" d="m2484.8 1161.6q-7 6.4-8.4 12.2c-1.4 5.9-1.4 17.7-4.9 17.5q-8.6-17.4-0.9-28.1q8.1-11.3 14.2-1.6z" /><path class="s14" d="m2463.8 1368.5c4.2-2.4 7.8-4.9 8.9-7.3c0.9-2 0.8-6.2 0.2-11.6c-1.6-15.3-7.2-39.8-6.9-47.7q0.4-10.6 3.9-26.5q-14.5-2.8-14.1-8.7c1.8-4.6 11-21.5 14.6-25.4q3.7-3.9 19-5.7q-3.9 14.4 13 14.4q16.8 0 25.5-18.9q7.7 39.5 13.3 73q0.4 2.1 0.7 4.2c2.8 17.2 5 32.3 5 38.7c0 11.6 9.6 38.5 14.2 57.8c2.9 12.2 3.8 21.5-1 21.9c-12.4 1.2-55-24.6-68-32.3c-5.7-3.3-13.8-4.9-21.4-6.2c-9.8-1.6-18.9-2.7-21.8-6.2c-3.5-4.1 6.7-8.7 14.9-13.5z" /><path class="s21" d="m2472.7 1361.2c0.9-2 0.8-6.2 0.2-11.6c6.2-1.4 14.6-3.8 22.6-7.4q15.3-6.8 31.4-48.3l15 14.4c2.8 17.2 5 32.3 5 38.7c0 11.6 9.6 38.5 14.2 57.8c2.9 12.2 3.8 21.5-1 21.9c-12.4 1.2-52.2-26.5-65.3-34.2c-5.7-3.3-40.3-8.1-31-24c4.2-2.4 7.8-4.9 8.9-7.3z" /><path class="s27" d="m2532.5 1243.5q12.8-7.8 25.2 7c12.4 14.8-8.8 120.4-27.2 125.8q-20.4 6-79.4-0.9l1.2-9.3q62.7-12 65.4-15.3c2.6-3.4 8.3-105.6 14.8-107.3z" /><path class="s14" d="m2527.9 1231.1q26.3 2.4 34 11q7.6 8.7 9.8 32.2q-23.2 18.7-51.1 11.4z" /><path class="s33" d="m2410.2 1380.3h34.8v4.1h-34.8z" /><path class="s33" d="m2350.5 1382.5l-35.3-49.7h70.4q31.7 49.7 32 51z" /><path class="s32" d="m2348.8 1384.4l-33.6-51.6h67.3q31.8 50.2 32.1 51.6z" /><path class="s33" d="m2357.7 1355.1c2 0 4.2 1.7 4.9 3.7c0.7 2-0.4 3.6-2.4 3.6c-2 0-4.2-1.6-4.9-3.6c-0.7-2 0.3-3.7 2.4-3.7z" /><path class="s27" d="m2454.4 1373.5c-2.3 3-15.1 4-21.1 5.9c-5.9 2-11.2 0.4-12.5-1.9c-1.3-2.3 11.6-13.9 13.9-14.9q2.3-1 22.7 3q-0.7 4.9-3 7.9z" /><path class="s34" d="m2021.7 792.8h-643l-49.3-161.3h643z" /><path class="s35" d="m1947.9 686l5.9 19.3c2.6 8.5-2.2 15.5-10.7 15.5h-532.7c-8.5 0-17.6-7-20.2-15.5l-5.9-19.3c-2.6-8.5 2.2-15.4 10.7-15.4h532.8c8.5 0 17.6 6.9 20.1 15.4z" /><path class="s9" d="m1841.3 690.1h-8.2l-0.8-2.5h11.4l0.7 2.1l-3 14.1h-3.2z" /><path fill-rule="evenodd" class="s9" d="m1848.2 695.7c-1.4-4.7 0.3-8.4 4.6-8.4c4.2 0 8.2 3.7 9.6 8.4c1.4 4.6-0.3 8.4-4.5 8.4c-4.3 0-8.2-3.7-9.7-8.4zm11.2 0c-0.9-3.2-3.4-5.8-5.9-5.8c-2.5 0-3.3 2.5-2.3 5.8c1 3.2 3.4 5.8 5.9 5.8c2.6 0 3.3-2.6 2.3-5.8z" /><path fill-rule="evenodd" class="s9" d="m1863.6 691.5c-0.7-2.2 0.3-4.1 2.6-4.1c2.2 0 4.3 1.8 5 4.1c0.7 2.3-0.2 4.2-2.5 4.2c-2.3 0-4.4-1.9-5.1-4.2zm12.3-3.9h2.3l-6.9 16.2h-2.3zm-6.8 4c-0.4-1.3-1.4-2.4-2.5-2.4c-1.1 0-1.4 1.1-1 2.4c0.4 1.3 1.5 2.3 2.5 2.3c1.1 0 1.4-1 1-2.3zm6.8 8.3c-0.7-2.3 0.3-4.2 2.6-4.2c2.3 0 4.4 1.9 5.1 4.2c0.7 2.2-0.3 4.1-2.6 4.1c-2.3 0-4.4-1.8-5.1-4.1zm5.6 0c-0.4-1.3-1.5-2.4-2.5-2.4c-1.1 0-1.4 1.1-1 2.4c0.4 1.3 1.4 2.4 2.5 2.4c1.1 0 1.4-1.1 1-2.4z" /><path class="s5" d="m1755.3 670.6l15.3 50.2h-360.2c-7.1 0-14.6-4.9-18.4-11.4q-1.1-1.9-1.8-4.1l-5.9-19.3c-2.6-8.5 2.2-15.4 10.7-15.4z" /><path class="s8" d="m1458.8 670.6l-15.2 50.2h-33.2c-7.1 0-14.6-4.9-18.4-11.4l11.8-38.8z" /><path class="s8" d="m1553.1 670.6l-15.2 50.2h-55l15.2-50.2z" /><path class="s8" d="m1647.4 670.6l-15.2 50.2h-55l15.1-50.2z" /><path class="s8" d="m1741.6 670.6l-15.1 50.2h-55.1l15.2-50.2z" /><path class="s11" d="m1508.1 750.5h-96.2l-2.1-6.6h96.2z" /><path class="s11" d="m1487.4 769.1h-69.9l-2-6.7h69.9z" /><path class="s11" d="m1533.5 769.1h-41.8l-2-6.7h41.8z" /><path class="s11" d="m1604.6 769.1h-63.8l-2.1-6.7h63.9z" /><path class="s11" d="m1544.4 750.5h-29.1l-2-6.6h29.1z" /><path class="s11" d="m1660.3 750.5h-105.9l-2-6.6h105.9z" /><path class="s34" d="m1153.7 1036.4h-452.3l-70.3-230.2h452.3z" /><path class="s19" d="m1089.9 921.3h-395l-29.9-97.9h395z" /><path class="s13" d="m759.9 843.3h-66.9l-1.6-5.2h66.9z" /><path class="s13" d="m831.4 843.3h-55.6l-1.6-5.2h55.6z" /><path class="s13" d="m960.9 843.3h-115l-1.6-5.2h115z" /><path class="s13" d="m765.6 862h-66.9l-1.6-5.2h66.9z" /><path class="s13" d="m837.1 862h-55.6l-1.6-5.2h55.6z" /><path class="s13" d="m902.9 862h-55.7l-1.6-5.2h55.7z" /><path class="s13" d="m1034.7 864.2h-115l-1.6-5.2h115z" /><path class="s13" d="m772.8 885.7h-66.9l-1.6-5.2h66.9z" /><path class="s13" d="m844.4 885.7h-55.7l-1.6-5.2h55.7z" /><path class="s13" d="m973.9 885.7h-115l-1.6-5.2h115z" /><path class="s13" d="m778.5 904.4h-66.9l-1.6-5.2h66.9z" /><path class="s13" d="m850.1 904.4h-55.7l-1.6-5.2h55.7z" /><path class="s13" d="m915.8 904.4h-55.6l-1.6-5.2h55.6z" /><path class="s13" d="m1047.7 906.6h-115l-1.6-5.2h115z" /><path fill-rule="evenodd" class="s17" d="m959.8 1002.4c-15.4 0-31.6-12.5-36.3-27.9c-4.7-15.3 4-27.8 19.3-27.8c15.3 0 31.6 12.5 36.3 27.8c4.7 15.4-4 27.9-19.3 27.9zm-15.5-50.6c-12.5 0-19.6 10.2-15.8 22.7c3.9 12.6 17.2 22.8 29.7 22.8c12.5 0 19.6-10.2 15.8-22.8c-3.8-12.5-17.1-22.7-29.7-22.7z" /><path class="s17" d="m955 988.7c-1-0.1-2.1-0.5-3.1-1.3l-15.8-12.5c-2.1-1.7-2.9-4.4-1.7-6c1.2-1.6 3.9-1.5 6.1 0.2l11.1 8.8l5.5-13.1c0.8-1.9 3.3-2.3 5.6-0.9c2.3 1.3 3.5 4 2.7 5.9l-7.2 17.2c-0.4 1-1.3 1.6-2.6 1.7q-0.3 0-0.6 0z" /><path fill-rule="evenodd" class="s17" d="m880.2 1002.4c-15.3 0-31.6-12.5-36.3-27.9c-4.7-15.3 4-27.8 19.3-27.8c15.4 0 31.6 12.5 36.3 27.8c4.7 15.4-4 27.9-19.3 27.9zm-15.4-50.6c-12.6 0-19.6 10.2-15.8 22.7c3.8 12.6 17.1 22.8 29.7 22.8c12.5 0 19.6-10.2 15.7-22.8c-3.8-12.5-17.1-22.7-29.6-22.7z" /><path class="s17" d="m875.5 988.7c-1.1-0.1-2.2-0.5-3.2-1.3l-15.7-12.5c-2.2-1.7-2.9-4.4-1.7-6c1.2-1.6 3.9-1.5 6 0.2l11.1 8.8l5.5-13.1c0.8-1.9 3.3-2.3 5.6-0.9c2.3 1.3 3.6 4 2.8 5.9l-7.2 17.2c-0.4 1-1.4 1.6-2.6 1.7q-0.3 0-0.6 0z" /><path fill-rule="evenodd" class="s17" d="m797.8 1002.4c-15.3 0-31.6-12.5-36.3-27.9c-4.7-15.3 4-27.8 19.3-27.8c15.4 0 31.6 12.5 36.3 27.8c4.7 15.4-4 27.9-19.3 27.9zm-15.4-50.6c-12.6 0-19.6 10.2-15.8 22.7c3.8 12.6 17.1 22.8 29.7 22.8c12.5 0 19.6-10.2 15.7-22.8c-3.8-12.5-17.1-22.7-29.6-22.7z" /><path class="s17" d="m793.1 988.7c-1.1-0.1-2.2-0.5-3.2-1.3l-15.7-12.5c-2.2-1.7-2.9-4.4-1.7-6c1.2-1.6 3.9-1.5 6 0.2l11.1 8.8l5.5-13.1c0.8-1.9 3.3-2.3 5.6-0.9c2.3 1.3 3.6 4 2.8 5.9l-7.2 17.2c-0.4 1-1.4 1.6-2.6 1.7q-0.3 0-0.6 0z" /><path fill-rule="evenodd" class="s6" d="m1036.5 1002.4c-15.3 0-31.6-12.5-36.3-27.9c-4.7-15.3 4-27.8 19.3-27.8c15.4 0 31.7 12.5 36.3 27.8c4.7 15.4-3.9 27.9-19.3 27.9zm-15.4-50.6c-12.5 0-19.6 10.2-15.8 22.7c3.8 12.6 17.1 22.8 29.7 22.8c12.5 0 19.6-10.2 15.8-22.8c-3.9-12.5-17.2-22.7-29.7-22.7z" /><path class="s6" d="m1029.4 979.1c-2.1 0-4.5-1.8-5.1-3.9l-3.6-11.8c-0.7-2.2 0.5-4 2.7-4c2.2 0 4.5 1.8 5.1 4l3.7 11.8c0.6 2.1-0.6 3.9-2.8 3.9z" /><path class="s6" d="m1032.7 988.4h-0.9c-1.9 0-4-1.6-4.6-3.5c-0.5-2 0.6-3.5 2.5-3.5h0.8c2 0 4 1.5 4.6 3.5c0.6 1.9-0.5 3.5-2.4 3.5z" /><path class="s8" d="m2117.5 990.6q57.2 59.3 60 81.6q2.7 22.3-27.5 57.2z" /><path class="s21" d="m2091.7 1605.4q-2 31.4-8.1 31.9q-0.8 0-30.9 0l-38.4-0.3q0.3-9.3 11.5-11.2c11.2-2 30-9.8 36.9-24.6q7.1-15.6 29 4.2z" /><path class="s21" d="m2177.2 1605.5q-2 31.5-8.1 31.9q-0.8 0.1-30.9 0l-38.4-0.3q0.3-9.2 11.5-11.1c11.2-2 30-9.8 36.9-24.6q7.1-15.6 29 4.1z" /><path class="s21" d="m2159.6 1219.2q-13.9 149.3 3.3 206.6q17.1 57.4 16.5 181.9l-40.2 1.1q-5-49.4-42.2-163.5q-37.2-114-47.1-178.3z" /><path class="s14" d="m2146.8 1226.4q-40 144.5-33.2 204q6.7 59.5-17.5 178.3l-40.1-1.4q5.8-50.5-10.7-169.3q-16.5-118.8-14.9-215.6z" /><path class="s27" d="m2108.6 996.1l-21.4 14l-30.9-5.8c0.4-2.5 2.5-12.8 4.4-22.2q0.1-0.8 0.3-1.6q1.6-8 3-14.8l28.9-12.7l10.7-4.7c0 0.2-0.8 8.8-0.9 10.1q-2.1 22.5 5.9 37.7z" /><path class="s8" d="m2064.2 989c0.6-0.3 37.2-11 41.2-9.7q4 1.3 6.3 9l-59.8 13.4q4.7-9.5 12.3-12.7z" /><path class="s5" d="m2162.2 1234.6c-6.2 28.3-109.4 31.4-136 5.7c-3-2.9-3.1-16.5-2-34.9c2.4-35.9 9.6-89.8 10-117.4c0.1-13.3 2-26.9 4.5-39.3q5.2-26.3 13.2-47q50.4-16.1 59.8-13.4c45.4 13.5 56.8 218.1 50.5 246.3z" /><path class="s8" d="m2024.2 1205.4c2.4-35.9 9.6-89.8 10-117.4c0.1-13.3 2-26.9 4.5-39.3l30.3-5.2q29.4 121.1-44.8 161.9z" /><path class="s27" d="m2051.9 1153c8.1 6.2 2.8 22.3 3.5 24.4c0.7 2-6 7.2-9.3 8.2c-3.3 1-12.8-5.4-13.8-9.3c-1-3.9 1.8-9.3 6.2-12.6q4.3-3.3 2.3-8.3q3.1-8.6 11.1-2.4z" /><path class="s5" d="m2074.8 1081.9c-4.8-12.4-38.7 15-41 17.6q-5.6 6.3 22.2 48.1c-0.6 11.2-11.6 16.1-18.5 16.1c-6.8 0-46.3-43.5-50.6-56.1c-4.3-12.5 11.3-38.3 34.9-72.9q23.6-34.7 53.2-40.2q7.7 107.9-0.2 87.4z" /><path class="s36" d="m2100.5 958.8c-6.4 10.7-30 19.9-39.8 23.3q0.1-0.8 0.3-1.6q1.6-8 3-14.8l28.9-12.7c6.3-0.1 10.2 1.4 7.6 5.8z" /><path class="s27" d="m2055.8 900c5.2-9 14.3-18.4 43.6-7.8c29.2 10.5 17.4 28.2 8.8 57.2q-8.6 29.1-55.1 14.5c-11.8-4.6-2.6-54.9 2.7-63.9z" /><path class="s21" d="m2137.3 896.8c5.9 10.5-25.2 66.1-46.7 64.2c-21.6-1.8-11.9-13.6-10.8-23.8c1-10.2-5.3-9.1-12.3-7.6q-7 1.4-9.9-32.4c-24.6-37.1 62.7-30.8 79.7-0.4z" /><g style="opacity: .5"><path class="s11" d="m1092.8 646.8v-8.2h8.5v8.2z" /><path class="s11" d="m1092.8 630.2v-8.3h8.5v8.3z" /><path class="s11" d="m1092.8 613.5v-8.2h8.5v8.2z" /><path class="s11" d="m1092.8 596.8v-8.2h8.5v8.2z" /><path class="s11" d="m1092.8 580.2v-8.3h8.5v8.3z" /><path class="s11" d="m1092.8 563.5v-8.2h8.5v8.2z" /><path class="s11" d="m1092.8 546.8v-8.2h8.5v8.2z" /><path class="s11" d="m1092.8 530.2v-8.3h8.5v8.3z" /><path class="s11" d="m1092.8 513.5v-8.2h8.5v8.2z" /><path class="s11" d="m1092.8 496.8v-8.2h8.5v8.2z" /><path class="s11" d="m1092.8 480.2v-8.3h8.5v8.3z" /><path class="s11" d="m1092.8 463.5v-8.2h8.5v8.2z" /><path class="s11" d="m1092.8 446.8v-8.2h8.5v8.2z" /><path class="s11" d="m1092.8 430.2v-8.3h8.5v8.3z" /><path class="s11" d="m1092.8 413.5v-8.2h8.5v8.2z" /><path class="s11" d="m1092.8 396.8v-8.2h8.5v8.2z" /><path class="s11" d="m1092.8 380.2v-8.3h8.5v8.3z" /><path class="s11" d="m1092.8 363.5v-8.3h8.5v8.3z" /></g><g style="opacity: .5"><path class="s11" d="m1066.8 546.8v-8.2h8.5v8.2z" /><path class="s11" d="m1066.8 530.2v-8.3h8.5v8.3z" /><path class="s11" d="m1066.8 513.5v-8.2h8.5v8.2z" /><path class="s11" d="m1066.8 496.8v-8.2h8.5v8.2z" /><path class="s11" d="m1066.8 480.2v-8.3h8.5v8.3z" /><path class="s11" d="m1066.8 463.5v-8.2h8.5v8.2z" /><path class="s11" d="m1066.8 446.8v-8.2h8.5v8.2z" /><path class="s11" d="m1066.8 430.2v-8.3h8.5v8.3z" /><path class="s11" d="m1066.8 413.5v-8.2h8.5v8.2z" /><path class="s11" d="m1066.8 396.8v-8.2h8.5v8.2z" /><path class="s11" d="m1066.8 380.2v-8.3h8.5v8.3z" /><path class="s11" d="m1066.8 363.5v-8.3h8.5v8.3z" /></g><g style="opacity: .5"><path class="s11" d="m1040.4 646.8v-8.2h8.5v8.2z" /><path class="s11" d="m1040.4 630.2v-8.3h8.5v8.3z" /><path class="s11" d="m1040.4 613.5v-8.2h8.5v8.2z" /><path class="s11" d="m1040.4 596.8v-8.2h8.5v8.2z" /><path class="s11" d="m1040.4 580.2v-8.3h8.5v8.3z" /><path class="s11" d="m1040.4 563.5v-8.2h8.5v8.2z" /><path class="s11" d="m1040.4 546.8v-8.2h8.5v8.2z" /><path class="s11" d="m1040.4 530.2v-8.3h8.5v8.3z" /><path class="s11" d="m1040.4 513.5v-8.2h8.5v8.2z" /><path class="s11" d="m1040.4 496.8v-8.2h8.5v8.2z" /><path class="s11" d="m1040.4 480.2v-8.3h8.5v8.3z" /><path class="s11" d="m1040.4 463.5v-8.2h8.5v8.2z" /><path class="s11" d="m1040.4 446.8v-8.2h8.5v8.2z" /><path class="s11" d="m1040.4 430.2v-8.3h8.5v8.3z" /><path class="s11" d="m1040.4 413.5v-8.2h8.5v8.2z" /><path class="s11" d="m1040.4 396.8v-8.2h8.5v8.2z" /><path class="s11" d="m1040.4 380.2v-8.3h8.5v8.3z" /><path class="s11" d="m1040.4 363.5v-8.3h8.5v8.3z" /></g><g style="opacity: .5"><path class="s11" d="m1018.1 680.2v-8.3h8.5v8.3z" /><path class="s11" d="m1018.1 663.5v-8.2h8.5v8.2z" /><path class="s11" d="m1018.1 646.8v-8.2h8.5v8.2z" /><path class="s11" d="m1018.1 630.2v-8.3h8.5v8.3z" /><path class="s11" d="m1018.1 613.5v-8.2h8.5v8.2z" /><path class="s11" d="m1018.1 596.8v-8.2h8.5v8.2z" /><path class="s11" d="m1018.1 580.2v-8.3h8.5v8.3z" /><path class="s11" d="m1018.1 563.5v-8.2h8.5v8.2z" /><path class="s11" d="m1018.1 546.8v-8.2h8.5v8.2z" /><path class="s11" d="m1018.1 530.2v-8.3h8.5v8.3z" /><path class="s11" d="m1018.1 513.5v-8.2h8.5v8.2z" /><path class="s11" d="m1018.1 496.8v-8.2h8.5v8.2z" /><path class="s11" d="m1018.1 480.2v-8.3h8.5v8.3z" /><path class="s11" d="m1018.1 463.5v-8.2h8.5v8.2z" /><path class="s11" d="m1018.1 446.8v-8.2h8.5v8.2z" /><path class="s11" d="m1018.1 430.2v-8.3h8.5v8.3z" /><path class="s11" d="m1018.1 413.5v-8.2h8.5v8.2z" /><path class="s11" d="m1018.1 396.8v-8.2h8.5v8.2z" /><path class="s11" d="m1018.1 380.2v-8.3h8.5v8.3z" /><path class="s11" d="m1018.1 363.5v-8.3h8.5v8.3z" /></g><g style="opacity: .5"><path class="s11" d="m988.7 530.2v-8.3h8.5v8.3z" /><path class="s11" d="m988.7 513.5v-8.2h8.5v8.2z" /><path class="s11" d="m988.7 496.8v-8.2h8.5v8.2z" /><path class="s11" d="m988.7 480.2v-8.3h8.5v8.3z" /><path class="s11" d="m988.7 463.5v-8.2h8.5v8.2z" /><path class="s11" d="m988.7 446.8v-8.2h8.5v8.2z" /><path class="s11" d="m988.7 430.2v-8.3h8.5v8.3z" /><path class="s11" d="m988.7 413.5v-8.2h8.5v8.2z" /><path class="s11" d="m988.7 396.8v-8.2h8.5v8.2z" /><path class="s11" d="m988.7 380.2v-8.3h8.5v8.3z" /><path class="s11" d="m988.7 363.5v-8.3h8.5v8.3z" /></g><g style="opacity: .5"><path class="s11" d="m2270 955.6v8.2h-8.5v-8.2z" /><path class="s11" d="m2270 972.2v8.3h-8.5v-8.3z" /><path class="s11" d="m2270 988.9v8.2h-8.5v-8.2z" /><path class="s11" d="m2270 1005.6v8.2h-8.5v-8.2z" /><path class="s11" d="m2270 1022.2v8.3h-8.5v-8.3z" /><path class="s11" d="m2270 1038.9v8.2h-8.5v-8.2z" /><path class="s11" d="m2270 1055.6v8.2h-8.5v-8.2z" /><path class="s11" d="m2270 1072.2v8.3h-8.5v-8.3z" /><path class="s11" d="m2270 1088.9v8.2h-8.5v-8.2z" /><path class="s11" d="m2270 1105.6v8.2h-8.5v-8.2z" /><path class="s11" d="m2270 1122.2v8.3h-8.5v-8.3z" /><path class="s11" d="m2270 1138.9v8.2h-8.5v-8.2z" /><path class="s11" d="m2270 1155.6v8.2h-8.5v-8.2z" /><path class="s11" d="m2270 1172.2v8.3h-8.5v-8.3z" /><path class="s11" d="m2270 1188.9v8.3h-8.5v-8.3z" /><path class="s11" d="m2270 1205.6v8.2h-8.5v-8.2z" /><path class="s11" d="m2270 1222.2v8.3h-8.5v-8.3z" /><path class="s11" d="m2270 1238.9v8.3h-8.5v-8.3z" /></g><g style="opacity: .5"><path class="s11" d="m2295.9 1055.6v8.2h-8.5v-8.2z" /><path class="s11" d="m2295.9 1072.2v8.3h-8.5v-8.3z" /><path class="s11" d="m2295.9 1088.9v8.2h-8.5v-8.2z" /><path class="s11" d="m2295.9 1105.6v8.2h-8.5v-8.2z" /><path class="s11" d="m2295.9 1122.2v8.3h-8.5v-8.3z" /><path class="s11" d="m2295.9 1138.9v8.2h-8.5v-8.2z" /><path class="s11" d="m2295.9 1155.6v8.2h-8.5v-8.2z" /><path class="s11" d="m2295.9 1172.2v8.3h-8.5v-8.3z" /><path class="s11" d="m2295.9 1188.9v8.3h-8.5v-8.3z" /><path class="s11" d="m2295.9 1205.6v8.2h-8.5v-8.2z" /><path class="s11" d="m2295.9 1222.2v8.3h-8.5v-8.3z" /><path class="s11" d="m2295.9 1238.9v8.3h-8.5v-8.3z" /></g><g style="opacity: .5"><path class="s11" d="m2322.4 955.6v8.2h-8.5v-8.2z" /><path class="s11" d="m2322.4 972.2v8.3h-8.5v-8.3z" /><path class="s11" d="m2322.4 988.9v8.2h-8.5v-8.2z" /><path class="s11" d="m2322.4 1005.6v8.2h-8.5v-8.2z" /><path class="s11" d="m2322.4 1022.2v8.3h-8.5v-8.3z" /><path class="s11" d="m2322.4 1038.9v8.2h-8.5v-8.2z" /><path class="s11" d="m2322.4 1055.6v8.2h-8.5v-8.2z" /><path class="s11" d="m2322.4 1072.2v8.3h-8.5v-8.3z" /><path class="s11" d="m2322.4 1088.9v8.2h-8.5v-8.2z" /><path class="s11" d="m2322.4 1105.6v8.2h-8.5v-8.2z" /><path class="s11" d="m2322.4 1122.2v8.3h-8.5v-8.3z" /><path class="s11" d="m2322.4 1138.9v8.2h-8.5v-8.2z" /><path class="s11" d="m2322.4 1155.6v8.2h-8.5v-8.2z" /><path class="s11" d="m2322.4 1172.2v8.3h-8.5v-8.3z" /><path class="s11" d="m2322.4 1188.9v8.3h-8.5v-8.3z" /><path class="s11" d="m2322.4 1205.6v8.2h-8.5v-8.2z" /><path class="s11" d="m2322.4 1222.2v8.3h-8.5v-8.3z" /><path class="s11" d="m2322.4 1238.9v8.3h-8.5v-8.3z" /></g><g style="opacity: .5"><path class="s11" d="m2344.6 922.2v8.3h-8.5v-8.3z" /><path class="s11" d="m2344.6 938.9v8.2h-8.5v-8.2z" /><path class="s11" d="m2344.6 955.6v8.2h-8.5v-8.2z" /><path class="s11" d="m2344.6 972.2v8.3h-8.5v-8.3z" /><path class="s11" d="m2344.6 988.9v8.2h-8.5v-8.2z" /><path class="s11" d="m2344.6 1005.6v8.2h-8.5v-8.2z" /><path class="s11" d="m2344.6 1022.2v8.3h-8.5v-8.3z" /><path class="s11" d="m2344.6 1038.9v8.2h-8.5v-8.2z" /><path class="s11" d="m2344.6 1055.6v8.2h-8.5v-8.2z" /><path class="s11" d="m2344.6 1072.2v8.3h-8.5v-8.3z" /><path class="s11" d="m2344.6 1088.9v8.2h-8.5v-8.2z" /><path class="s11" d="m2344.6 1105.6v8.2h-8.5v-8.2z" /><path class="s11" d="m2344.6 1122.2v8.3h-8.5v-8.3z" /><path class="s11" d="m2344.6 1138.9v8.2h-8.5v-8.2z" /><path class="s11" d="m2344.6 1155.6v8.2h-8.5v-8.2z" /><path class="s11" d="m2344.6 1172.2v8.3h-8.5v-8.3z" /><path class="s11" d="m2344.6 1188.9v8.3h-8.5v-8.3z" /><path class="s11" d="m2344.6 1205.6v8.2h-8.5v-8.2z" /><path class="s11" d="m2344.6 1222.2v8.3h-8.5v-8.3z" /><path class="s11" d="m2344.6 1238.9v8.3h-8.5v-8.3z" /></g><g style="opacity: .5"><path class="s11" d="m2374 1072.2v8.3h-8.5v-8.3z" /><path class="s11" d="m2374 1088.9v8.2h-8.5v-8.2z" /><path class="s11" d="m2374 1105.6v8.2h-8.5v-8.2z" /><path class="s11" d="m2374 1122.2v8.3h-8.5v-8.3z" /><path class="s11" d="m2374 1138.9v8.2h-8.5v-8.2z" /><path class="s11" d="m2374 1155.6v8.2h-8.5v-8.2z" /><path class="s11" d="m2374 1172.2v8.3h-8.5v-8.3z" /><path class="s11" d="m2374 1188.9v8.3h-8.5v-8.3z" /><path class="s11" d="m2374 1205.6v8.2h-8.5v-8.2z" /><path class="s11" d="m2374 1222.2v8.3h-8.5v-8.3z" /><path class="s11" d="m2374 1238.9v8.3h-8.5v-8.3z" /></g></svg>