<svg width="22" height="22" viewBox="0 0 22 22" fill="none" xmlns="http://www.w3.org/2000/svg">
<g clip-path="url(#clip0_129_505)">
<path d="M20.79 21.78H1.21C0.54 21.78 0 21.24 0 20.57V4.39996C0 4.15996 0.2 3.95996 0.44 3.95996H21.56C21.8 3.95996 22 4.15996 22 4.39996V20.57C22 21.24 21.46 21.78 20.79 21.78ZM0.88 4.83996V20.57C0.88 20.75 1.03 20.9 1.21 20.9H20.79C20.97 20.9 21.12 20.75 21.12 20.57V4.83996H0.88Z" fill="#343D46"/>
<path d="M21.56 4.84H0.44C0.2 4.84 0 4.64 0 4.4V1.21C0 0.54 0.54 0 1.21 0H20.79C21.46 0 22 0.54 22 1.21V4.4C22 4.64 21.8 4.84 21.56 4.84ZM0.88 3.96H21.12V1.21C21.12 1.03 20.97 0.88 20.79 0.88H1.21C1.03 0.88 0.88 1.03 0.88 1.21V3.96Z" fill="#343D46"/>
<path d="M3.77008 2.85984C3.65008 2.85984 3.54008 2.80984 3.46008 2.72984C3.42008 2.68984 3.39008 2.63984 3.36008 2.57984C3.34008 2.52984 3.33008 2.46984 3.33008 2.40984C3.33008 2.28984 3.37008 2.17984 3.46008 2.09984C3.56008 1.99984 3.71008 1.94984 3.86008 1.97984C3.89008 1.97984 3.92008 1.98984 3.94008 1.99984C3.97008 2.00984 3.99008 2.02984 4.01008 2.03984C4.04008 2.04984 4.06008 2.06984 4.08008 2.08984C4.10008 2.10984 4.12008 2.12984 4.14008 2.15984C4.15008 2.18984 4.17008 2.20984 4.18008 2.23984C4.19008 2.26984 4.20008 2.28984 4.21008 2.31984C4.21008 2.34984 4.21008 2.37984 4.21008 2.40984C4.21008 2.46984 4.20008 2.51984 4.18008 2.57984C4.16008 2.62984 4.13008 2.67984 4.08008 2.72984C4.00008 2.80984 3.89008 2.85984 3.77008 2.85984Z" fill="#343D46"/>
<path d="M6.06012 2.85998C5.95012 2.85998 5.84012 2.80998 5.75012 2.72998C5.71012 2.68998 5.68012 2.63998 5.65012 2.57998C5.63012 2.52998 5.62012 2.46998 5.62012 2.40998C5.62012 2.28998 5.67012 2.17998 5.75012 2.09998C5.91012 1.93998 6.21012 1.93998 6.37012 2.09998C6.39012 2.11998 6.41012 2.13998 6.43012 2.16998C6.44012 2.19998 6.46012 2.21998 6.47012 2.24998C6.47012 2.27998 6.49012 2.29998 6.50012 2.32998C6.50012 2.35998 6.50012 2.38998 6.50012 2.41998C6.50012 2.47998 6.49012 2.52998 6.46012 2.58998C6.44012 2.63998 6.41012 2.68998 6.36012 2.73998C6.28012 2.81998 6.17012 2.86998 6.05012 2.86998L6.06012 2.85998Z" fill="#343D46"/>
<path d="M8.36016 2.86021C8.24016 2.86021 8.13016 2.81021 8.05016 2.73021C8.01016 2.69021 7.98016 2.64021 7.95016 2.58021C7.93016 2.53021 7.91016 2.47022 7.91016 2.41022C7.91016 2.38022 7.91016 2.35021 7.91016 2.32021C7.91016 2.29021 7.92016 2.27021 7.94016 2.24021C7.94016 2.21021 7.97016 2.19022 7.98016 2.16022C8.00016 2.14022 8.02016 2.12021 8.04016 2.09021C8.20016 1.93021 8.50016 1.93021 8.66016 2.09021C8.68016 2.11021 8.70016 2.13022 8.71016 2.16022C8.73016 2.19022 8.74016 2.21021 8.75016 2.24021C8.75016 2.27021 8.77016 2.29021 8.77016 2.32021C8.77016 2.35021 8.77016 2.38022 8.77016 2.41022C8.77016 2.47022 8.77016 2.52021 8.74016 2.58021C8.72016 2.63021 8.68016 2.68021 8.64016 2.73021C8.60016 2.77021 8.55016 2.80021 8.50016 2.82021C8.45016 2.84021 8.39016 2.86021 8.33016 2.86021H8.36016Z" fill="#343D46"/>
<path d="M18.7198 21.7802H3.27984C3.03984 21.7802 2.83984 21.5802 2.83984 21.3402V20.2002C2.83984 20.0302 2.93984 19.8702 3.09984 19.8002L5.09984 18.9002L4.32984 16.8502C4.26984 16.6902 4.30984 16.5102 4.42984 16.3802L6.03984 14.7702C6.15984 14.6502 6.34984 14.6102 6.50984 14.6702L8.55984 15.4402L9.45984 13.4402C9.52984 13.2802 9.68984 13.1802 9.85984 13.1802H12.1398C12.3098 13.1802 12.4698 13.2802 12.5398 13.4402L13.4398 15.4402L15.4898 14.6702C15.6498 14.6102 15.8298 14.6502 15.9598 14.7702L17.5698 16.3802C17.6898 16.5002 17.7298 16.6802 17.6698 16.8502L16.8998 18.9002L18.8898 19.8002C19.0498 19.8702 19.1498 20.0302 19.1498 20.2002V21.3402C19.1498 21.5802 18.9498 21.7802 18.7098 21.7802H18.7198ZM3.71984 20.9002H18.2798V20.4802L16.1698 19.5202C15.9598 19.4202 15.8598 19.1802 15.9398 18.9602L16.7498 16.7902L15.5398 15.5802L13.3698 16.4002C13.1498 16.4802 12.9098 16.3802 12.8098 16.1702L11.8498 14.0602H10.1398L9.17984 16.1702C9.07984 16.3802 8.83984 16.4802 8.61984 16.4002L6.44984 15.5802L5.23984 16.7902L6.04984 18.9602C6.12984 19.1802 6.02984 19.4202 5.81984 19.5202L3.70984 20.4802V20.9002H3.71984Z" fill="#343D46"/>
<path d="M13.8902 21.7798H8.12018C7.88018 21.7798 7.68018 21.5798 7.68018 21.3398C7.68018 19.5098 9.17018 18.0098 11.0102 18.0098C12.8502 18.0098 14.3402 19.4998 14.3402 21.3398C14.3402 21.5798 14.1402 21.7798 13.9002 21.7798H13.8902ZM8.60018 20.8998H13.4102C13.2002 19.7598 12.2002 18.8898 11.0002 18.8898C9.80018 18.8898 8.80018 19.7598 8.59018 20.8998H8.60018Z" fill="#343D46"/>
</g>
<defs>
<clipPath id="clip0_129_505">
<rect width="22" height="21.78" fill="white"/>
</clipPath>
</defs>
</svg>
