<svg width="32" height="22" viewBox="0 0 32 22" fill="none" xmlns="http://www.w3.org/2000/svg">
<g clip-path="url(#clip0_128_334)">
<path d="M24.1798 21.87C24.0998 21.87 24.0098 21.84 23.9498 21.77L21.3098 19.13C21.1798 19 21.1798 18.79 21.3098 18.66L22.0698 17.9H17.5898C17.4098 17.9 17.2598 17.75 17.2598 17.57V12.29C17.2598 12.16 17.3398 12.04 17.4598 11.99C17.5798 11.94 17.7298 11.97 17.8198 12.06L18.9098 13.15L21.0798 10.98L18.9098 8.81004L17.8198 9.90004C17.7298 9.99004 17.5798 10.02 17.4598 9.97004C17.3398 9.92004 17.2598 9.80004 17.2598 9.67004V4.39004C17.2598 4.21004 17.4098 4.06004 17.5898 4.06004H22.0698L21.3098 3.30004C21.1798 3.17004 21.1798 2.96004 21.3098 2.83004L23.9498 0.200039C24.0798 0.0700391 24.2898 0.0700391 24.4198 0.200039L27.0598 2.84004C27.1898 2.97004 27.1898 3.18004 27.0598 3.31004L26.2998 4.07004H30.7798C30.9598 4.07004 31.1098 4.22004 31.1098 4.40004V9.68004C31.1098 9.81004 31.0298 9.93004 30.9098 9.98004C30.7898 10.03 30.6398 10 30.5498 9.91004L29.4598 8.82004L27.2898 10.99L29.4598 13.16L30.5498 12.07C30.6398 11.98 30.7898 11.95 30.9098 12C31.0298 12.05 31.1098 12.17 31.1098 12.3V17.58C31.1098 17.76 30.9598 17.91 30.7798 17.91H26.2998L27.0598 18.67C27.1898 18.8 27.1898 19.01 27.0598 19.14L24.4198 21.78C24.3598 21.84 24.2698 21.88 24.1898 21.88L24.1798 21.87ZM22.0098 18.9L24.1798 21.07L26.3498 18.9L25.2598 17.81C25.1698 17.72 25.1398 17.57 25.1898 17.45C25.2398 17.33 25.3598 17.25 25.4898 17.25H30.4398V13.1L29.6798 13.86C29.5498 13.99 29.3398 13.99 29.2098 13.86L26.5698 11.22C26.4398 11.09 26.4398 10.88 26.5698 10.75L29.2098 8.11004C29.3398 7.98004 29.5498 7.98004 29.6798 8.11004L30.4398 8.87004V4.72004H25.4898C25.3598 4.72004 25.2398 4.64004 25.1898 4.52004C25.1398 4.40004 25.1698 4.25004 25.2598 4.16004L26.3498 3.07004L24.1798 0.900039L22.0098 3.07004L23.0998 4.16004C23.1898 4.25004 23.2198 4.40004 23.1698 4.52004C23.1198 4.64004 22.9998 4.72004 22.8698 4.72004H17.9198V8.87004L18.6798 8.11004C18.8098 7.98004 19.0198 7.98004 19.1498 8.11004L21.7898 10.75C21.9198 10.88 21.9198 11.09 21.7898 11.22L19.1498 13.86C19.0198 13.99 18.8098 13.99 18.6798 13.86L17.9198 13.1V17.25H22.8698C22.9998 17.25 23.1198 17.33 23.1698 17.45C23.2198 17.57 23.1898 17.72 23.0998 17.81L22.0098 18.9Z" fill="#343D46" stroke="#343D46" stroke-width="0.21" stroke-miterlimit="10"/>
<path d="M17.59 17.9201H12.31C12.18 17.9201 12.06 17.8401 12.01 17.7201C11.96 17.6001 11.99 17.4501 12.08 17.3601L13.17 16.2701L11 14.1001L8.83004 16.2701L9.90004 17.3401C9.97004 17.4001 10.01 17.4901 10.01 17.5901C10.01 17.7701 9.86004 17.9201 9.68004 17.9201H4.40004C4.22004 17.9201 4.07004 17.7701 4.07004 17.5901V13.1101L3.31004 13.8701C3.18004 14.0001 2.97004 14.0001 2.84004 13.8701L0.200039 11.2201C0.0700391 11.0901 0.0700391 10.8801 0.200039 10.7501L2.84004 8.11006C2.97004 7.98006 3.18004 7.98006 3.31004 8.11006L4.07004 8.87006V4.39006C4.07004 4.21006 4.22004 4.06006 4.40004 4.06006H9.68004C9.81004 4.06006 9.93004 4.14006 9.98004 4.26006C10.03 4.38006 10 4.53006 9.91004 4.62006L8.82004 5.71006L10.99 7.88006L13.16 5.71006L12.07 4.62006C11.98 4.53006 11.95 4.38006 12 4.26006C12.05 4.14006 12.17 4.06006 12.3 4.06006H17.58C17.76 4.06006 17.91 4.21006 17.91 4.39006V8.87006L18.67 8.11006C18.8 7.98006 19.01 7.98006 19.14 8.11006L21.78 10.7501C21.91 10.8801 21.91 11.0901 21.78 11.2201L19.14 13.8601C19.01 13.9901 18.8 13.9901 18.67 13.8601L17.91 13.1001V17.5801C17.91 17.7601 17.76 17.9101 17.58 17.9101L17.59 17.9201ZM13.11 17.2601H17.26V12.3101C17.26 12.1801 17.34 12.0601 17.46 12.0101C17.58 11.9601 17.73 11.9901 17.82 12.0801L18.91 13.1701L21.08 11.0001L18.91 8.83006L17.82 9.92006C17.73 10.0101 17.58 10.0401 17.46 9.99006C17.34 9.94006 17.26 9.82006 17.26 9.69006V4.74006H13.11L13.87 5.50006C14 5.63006 14 5.84006 13.87 5.97006L11.23 8.61006C11.1 8.74006 10.89 8.74006 10.76 8.61006L8.12004 5.97006C7.99004 5.84006 7.99004 5.63006 8.12004 5.50006L8.88004 4.74006H4.73004V9.69006C4.73004 9.82006 4.65004 9.94006 4.53004 9.99006C4.41004 10.0401 4.26004 10.0101 4.17004 9.92006L3.08004 8.83006L0.910039 11.0001L3.08004 13.1701L4.17004 12.0801C4.26004 11.9901 4.41004 11.9601 4.53004 12.0101C4.65004 12.0601 4.73004 12.1801 4.73004 12.3101V17.2601H8.88004L8.12004 16.5001C7.99004 16.3701 7.99004 16.1601 8.12004 16.0301L10.76 13.3901C10.89 13.2601 11.1 13.2601 11.23 13.3901L13.87 16.0301C14 16.1601 14 16.3701 13.87 16.5001L13.11 17.2601Z" fill="#343D46" stroke="#343D46" stroke-width="0.21" stroke-miterlimit="10"/>
</g>
<defs>
<clipPath id="clip0_128_334">
<rect width="31.21" height="21.98" fill="white"/>
</clipPath>
</defs>
</svg>
