<svg version="1.2" xmlns="http://www.w3.org/2000/svg" viewBox="0 0 500 500" width="500" height="500"><defs><linearGradient id="P" gradientUnits="userSpaceOnUse"/><radialGradient id="g1" cx="228.4" cy="152.1" r="174.5" href="#P"><stop offset="0" stop-color="#ffd891"/><stop offset="1" stop-color="#ffe46b"/></radialGradient><linearGradient id="g2" x1="173.2" y1="80.4" x2="329.9" y2="80.4" href="#P"><stop stop-color="#d8dedd"/><stop offset="1" stop-color="#ff5c77"/></linearGradient><linearGradient id="g3" x1="237.3" y1="206.8" x2="237.3" y2="317" href="#P"><stop offset="0" stop-color="#ffd891"/><stop offset="1" stop-color="#fff"/></linearGradient><linearGradient id="g4" x1="289.3" y1="206.8" x2="289.3" y2="317" href="#P"><stop offset="0" stop-color="#ffd891"/><stop offset="1" stop-color="#fff"/></linearGradient><linearGradient id="g5" x1="288.3" y1="206.8" x2="288.3" y2="317" href="#P"><stop offset="0" stop-color="#ffd891"/><stop offset="1" stop-color="#fff"/></linearGradient><linearGradient id="g6" x1="197.7" y1="310.9" x2="305.3" y2="310.9" href="#P"><stop stop-color="#54cfdb"/><stop offset="1" stop-color="#3d71bc"/></linearGradient><linearGradient id="g7" x1="104.9" y1="399.5" x2="418.5" y2="399.5" href="#P"><stop stop-color="#ff995c"/><stop offset="1" stop-color="#ffce64"/></linearGradient></defs><style>.a{fill:#ffd255}.b{fill:#ffd078}.c{fill:#fff}.d{fill:url(#g1)}.e{fill:#ffd179}.f{fill:#ffd887}.g{fill:#ffd989}.h{fill:#ffd785}.i{opacity:.1;fill:url(#g2)}.j{fill:url(#g3)}.k{fill:url(#g4)}.l{fill:url(#g5)}.m{fill:#d46946}.n{fill:url(#g6)}.o{fill:url(#g7)}.p{fill:#e64053}.q{fill:#eea886}.r{fill:#5f8cc9}.s{fill:#1b4d8f}.t{fill:#3a3f47}.u{fill:#a77860}.v{fill:#a32d3b}.w{fill:#5e5853}.x{fill:#91887f}.y{fill:#6e6760}.z{fill:#807066}</style><path fill-rule="evenodd" class="a" d="m100.6 156.2c-1.4-0.4-2.6-1.2-3.5-2.3-0.9-1.3-1.3-2.8-1-4.2 0.4-2.9 0.1-6-0.2-8.1-2.9-3.5-3.8-8.2-2.6-12.5 2.1-7.2 9.7-11.3 16.9-9.3 7.2 2.1 11.3 9.7 9.2 16.9-1.1 3.9-3.9 7.1-7.6 8.7-1.6 2.5-2.7 4.8-3.3 7-0.7 2.9-4 4.7-7.4 3.9q-0.2 0-0.5-0.1zm9.3-35.3c-6.6-1.9-13.6 1.9-15.5 8.5-1.2 4-0.2 8.4 2.5 11.6l0.1 0.1v0.2c0.3 2.2 0.6 5.5 0.2 8.6-0.3 1.1 0 2.3 0.8 3.3 0.8 1 2 1.7 3.4 2 2.8 0.6 5.5-0.8 6-3.1 0.7-2.3 1.9-4.8 3.5-7.5l0.1-0.1 0.2-0.1c3.5-1.4 6.1-4.4 7.2-8 1.9-6.6-1.9-13.6-8.5-15.5z"/><path class="a" d="m99.1 151.1l1.3-14.8 2.5 3.1 2.3-1.7 1.2 2.3 3.4-1.8-4.8 14.2-1.1-0.4 3.9-11.5-1.8 1-1.2-2.1-2.1 1.5-1.4-1.8-1.1 12.1z"/><path class="a" d="m105.3 159.8l-9.4-2 0.8-3.8 9.4 2z"/><path class="a" d="m107.1 158.6l-12.4-2.7 1.3-6.1 12.5 2.7z"/><path class="b" d="m394.7 236l-1.1-0.4 9.1-26.5 20.4-5.6 7-29.1 15.7-7.2 3.2-22.5 1.2 0.1-3.4 23.2-15.7 7.2-7.1 29.2-20.4 5.6z"/><path class="c" d="m425.9 202c1.1 1.2 0.9 3.2-0.4 4.3-1.3 1.1-3.2 0.9-4.3-0.4-1.1-1.3-0.9-3.2 0.4-4.3 1.3-1.1 3.2-0.9 4.3 0.4z"/><path fill-rule="evenodd" class="b" d="m425.9 206.7c-1.5 1.3-3.8 1.1-5.1-0.4-1.3-1.6-1.1-3.9 0.4-5.2 1.6-1.3 3.9-1.1 5.2 0.5 1.2 1.5 1 3.8-0.5 5.1zm-3.9-4.7c-1.1 0.9-1.2 2.5-0.3 3.5 0.8 1.1 2.4 1.2 3.5 0.3 1-0.9 1.2-2.4 0.3-3.5-0.9-1-2.5-1.2-3.5-0.3z"/><path class="c" d="m433 173c1.1 1.3 0.9 3.2-0.4 4.3-1.3 1.1-3.2 0.9-4.3-0.4-1.1-1.3-0.9-3.2 0.4-4.3 1.3-1.1 3.2-0.9 4.3 0.4z"/><path fill-rule="evenodd" class="b" d="m433 177.8c-1.5 1.2-3.8 1-5.1-0.5-1.3-1.5-1.1-3.8 0.4-5.1 1.6-1.3 3.9-1.1 5.2 0.4 1.2 1.6 1 3.9-0.5 5.2zm-3.9-4.7c-1.1 0.8-1.2 2.4-0.3 3.5 0.8 1 2.4 1.2 3.5 0.3 1-0.9 1.2-2.5 0.3-3.5-0.9-1.1-2.5-1.2-3.5-0.3z"/><path class="c" d="m448.4 165.7c1.1 1.3 1 3.2-0.3 4.3-1.3 1.1-3.3 0.9-4.4-0.4-1-1.3-0.9-3.2 0.4-4.3 1.3-1.1 3.3-0.9 4.3 0.4z"/><path fill-rule="evenodd" class="b" d="m448.4 170.4c-1.5 1.3-3.8 1.1-5.1-0.4-1.3-1.6-1.1-3.9 0.5-5.2 1.5-1.3 3.8-1 5.1 0.5 1.3 1.5 1.1 3.8-0.5 5.1zm-3.9-4.7c-1.1 0.9-1.2 2.5-0.3 3.5 0.9 1.1 2.4 1.2 3.5 0.3 1-0.8 1.2-2.4 0.3-3.5-0.9-1-2.4-1.2-3.5-0.3z"/><path class="c" d="m405.6 207.9c1.1 1.3 1 3.2-0.3 4.3-1.3 1.1-3.3 0.9-4.4-0.4-1-1.3-0.9-3.2 0.4-4.3 1.3-1.1 3.3-0.9 4.3 0.4z"/><path fill-rule="evenodd" class="b" d="m405.6 212.6c-1.5 1.3-3.8 1.1-5.1-0.4-1.3-1.6-1.1-3.9 0.5-5.2 1.5-1.3 3.8-1.1 5.1 0.5 1.3 1.5 1.1 3.8-0.5 5.1zm-3.9-4.7c-1.1 0.9-1.2 2.5-0.3 3.5 0.9 1.1 2.4 1.2 3.5 0.3 1-0.8 1.2-2.4 0.3-3.5-0.9-1-2.5-1.2-3.5-0.3z"/><path class="d" d="m333.7 206.4q-27.4 54.2-31 105.5c0.1 23.9-22.7 43.5-50.9 43.6-28.3 0.1-51.3-19.2-51.4-43.1-4.2-51.3-32.1-105.2-32.1-105.2-5.1-9.6-8-20.2-8-31.3-0.2-42.5 40.2-77.1 90.2-77.3 50-0.3 90.7 33.9 91 76.4 0 11.1-2.8 21.8-7.8 31.4z"/><path class="e" d="m353.8 64.9h10.2l3.1 6.4h-10.1z"/><path class="e" d="m349.1 64.9h2.4l3.1 6.4h-2.4z"/><path class="f" d="m143.2 77.2h26v1.8h-26z"/><path class="f" d="m143.2 80.6h26v7.7h-26z"/><path class="f" d="m130.9 90.9h15.4v1.2h-15.4z"/><path class="f" d="m130.9 92.6h15.4v3.1h-15.4z"/><path class="g" d="m173.5 67.4h1.2v21.5h-1.2z"/><path class="h" d="m102 198.1h20.5v3.7h-20.5z"/><path class="h" d="m102 196.4h20.5v0.7h-20.5z"/><path class="b" d="m367.4 193.8l-3.2-0.6c7.7-38.3 1.2-69.4-18.7-89.7-15-15.4-32.6-19.5-32.7-19.5l0.7-3.2c0.7 0.2 18.5 4.2 34.3 20.3 14.4 14.7 29.6 42.8 19.6 92.7z"/><path class="b" d="m151.4 242.2c-30.7-58.2-11.5-89.7-10.7-91l2.8 1.7c-0.2 0.3-19 31.4 10.7 87.7z"/><path fill-rule="evenodd" class="c" d="m294.5 190.2l-3.2 4.4-3.1 4.4-4.5-2c-1.9 1.5-3.9 2.8-6 3.7l-0.2 5-5.3 0.9-5.3 0.9-1.8-4.6c-2.3-0.2-4.7-0.8-6.9-1.6l-3.6 3.4-4.4-3.2-4.4-3.1 2-4.5c-1.5-1.9-2.8-3.9-3.7-6l-5-0.2-0.9-5.3-0.9-5.3 4.6-1.8c0.2-2.3 0.8-4.7 1.6-6.9l-3.4-3.6 3.1-4.4 3.2-4.4 4.5 2c1.8-1.5 3.9-2.8 6-3.7l0.2-5 5.3-0.9 5.3-0.9 1.8 4.6c2.3 0.2 4.6 0.8 6.9 1.6l3.6-3.4 4.4 3.1 4.4 3.2-2 4.5c1.5 1.8 2.8 3.9 3.7 6l5 0.2 0.9 5.3 0.9 5.3-4.6 1.8c-0.2 2.3-0.8 4.6-1.6 6.9zm-16.4-5c4.2-6 2.8-14.3-3.1-18.5-6-4.3-14.3-2.9-18.5 3.1-4.3 5.9-2.9 14.2 3.1 18.5 6 4.2 14.2 2.8 18.5-3.1z"/><path fill-rule="evenodd" class="c" d="m244.4 217.8l-2 2.8-2 2.7-2.8-1.2q-1.8 1.4-3.8 2.3l-0.1 3.2-3.4 0.5-3.4 0.6-1.1-2.9q-2.2-0.2-4.3-1l-2.3 2.1-2.8-2-2.8-1.9 1.3-2.9q-1.5-1.8-2.4-3.8l-3.1-0.1-0.6-3.4-0.6-3.3 3-1.2q0.1-2.2 1-4.3l-2.2-2.3 2-2.8 2-2.8 2.8 1.3q1.8-1.5 3.8-2.4l0.1-3.1 3.4-0.6 3.4-0.6 1.1 3q2.2 0.2 4.3 1l2.3-2.2 2.8 2 2.8 2-1.3 2.9q1.5 1.7 2.4 3.8l3.1 0.1 0.6 3.3 0.6 3.4-3 1.1q-0.1 2.2-1 4.4zm-10.3-3.2c2.7-3.8 1.8-9-2-11.7-3.8-2.7-9-1.8-11.7 2-2.7 3.7-1.8 9 2 11.7 3.8 2.7 9 1.8 11.7-2z"/><path class="i" d="m154.7 337.1q-50.5-258.2 98.1-254.7 148.6 3.6 95.6 254.5z"/><path class="j" d="m235.3 346.2l-2.8 0.3-12.6-99.5 2.8-0.4z"/><path class="k" d="m284.5 246.3l2.8 0.4-11.6 99.6-2.8-0.3z"/><path class="l" d="m274.9 262l-10.9-10.8-10.6 10.7-10.5-10.4-10.2 10.4-11.4-11.3 1.3-1.4 10 9.9 10.3-10.4 10.5 10.4 10.6-10.7 10.9 10.8 9.9-10.1 1.5 1.4z"/><path class="m" d="m280.8 382.7l-58 0.3c-6.4 0-11.7-5.1-11.7-11.6l-0.1-22.8 81.3-0.4 0.1 22.8c0 6.5-5.2 11.7-11.6 11.7z"/><path class="n" d="m288 368.5l-72.5 0.4c-9.6 0-17.5-7.8-17.6-17.5l-0.2-38 107.5-0.5 0.2 38c0 9.7-7.8 17.5-17.4 17.6z"/><path class="o" d="m348.4 336.9v60.6h-193.7v-60.6z"/><path class="c" d="m267 375.9q0.6-0.1 1.6-0.4 0.9 2.2 1 3.5c0.1 1.4-0.7 1.9-2.3 2.6-1.7 0.7-2.1 3.4-4.7 4.3-2.7 0.9-7.8 0.8-7.6-2 0.1-2.8 3.7-2.9 5.1-4.9q1.4-2.1 2.9-3.4c1.4 0.4 3.4 0.4 4 0.3z"/><path class="p" d="m281.3 299.8q-1 6.1-1.8 10.1c-0.4 1.7-0.7 3-0.9 3.4-0.2 0.5-2.1 2.5-4.5 5q-4.1 4.2-9.6 9.6l-2.1-4.1q4.9-5.7 8.1-9.5c1.6-1.7 2.7-3.1 3-3.2 0.6-0.7 1.4-6.7 2.6-11.7q1.1-5 3.3-7.7z"/><path class="q" d="m274.1 318.3q-4.1 4.2-9.6 9.6l-2.1-4.1q4.9-5.7 8.1-9.5c1 0.5 2.9 1.7 3.6 4z"/><path class="c" d="m300.6 373.9q1.4 1.6 2.2 2.5c0.8 1 4 2.6 4 5.4 0 3.1-2.3 2.8-4.4 2.7-2.1-0.1-3.8-1.6-4.7-3.3-0.9-1.7-3.2-2.2-3.4-3.5q-0.2-1.4 1.1-3.9z"/><path class="r" d="m300.4 371.7l0.2 2.2q-0.8 1.8-5.2-0.1l0.3-2.6z"/><path class="r" d="m268.6 373.9v1.6q-3 1-5.6 0.1l0.2-1.9z"/><path class="p" d="m300.8 327q0.2 0.6-28 0 7.8-5.6 8.3-7.2c0.5-1.5-2-10.6-2.3-13.5-0.3-2.4-0.9-13 0.6-14.6q1.7-1.7 7.5-3.5l8.6 0.3q1.4 0.3 2.4 0.8c1 0.5 6.8 2.5 7.8 5.4q0.9 2.9-5.8 12.2 0 0.4 0 1.1c-0.1 0.9-0.1 2.3-0.1 3.8-0.1 1.9-0.1 4.1-0.1 5.6 0 3.7 1 9.1 1.1 9.6z"/><path class="s" d="m300.8 327q3.9 5.7 3.9 9.5c0.1 3.8-1.4 14.5-1.5 16.6q-0.1 2.1-2.1 19.7-1.5 1.5-6.2-0.3-1-16.7-1.1-18.5c-0.1-1.8-0.1-10-1.1-11.2-1-1.2-7.3-4.9-8.1-5.6-0.8-0.7-14.9 2.6-16.4 3-3.9 1-2.1 7.7-1.3 10.7q1.5 5 2.7 23.1-2.7 1.2-7.3 0.2-9-32.7-9.3-36c-0.3-3.2-0.4-8.6 21.7-12.6z"/><path class="q" d="m295.8 274.6c-0.2 2.9 0.2 8.9-4.3 10.8-4.5 2-6.3 1.2-8-8.1q-1.7-9.4 5.8-7.7c2.4 0.1 6.8 2 6.5 5z"/><path class="q" d="m288.6 287.8c0-0.6 0.1-1.1 0-1.5 0-0.5 0-0.9-0.1-0.9q7.4-9.4 6.8-5.7-0.6 3.7 0.5 11.2-5.2 3.2-8.5-0.3c0.7-0.3 1.1-1.6 1.3-2.8z"/><path class="q" d="m293.3 276c0.1-0.8 1.7-1.1 1.8 0.1 0.2 1.3-0.7 3.5-1.3 3.2-0.6-0.2-0.7-2.1-0.5-3.3z"/><path class="t" d="m295.5 279.4q-0.2-3-1.3-3.1-1.1-0.1-1.2 1.1l-1.1 0.2q0.3-2.6-0.8-3c-1-0.5-6.9 1.4-7.8 0.6-0.9-0.7-0.5-6 1.1-6.7 1.6-0.7 5.9-2.3 9-0.2q2.5-0.2 2.9 1.7c0.3 2-0.2 7.9-0.8 9.4z"/><path class="u" d="m288.6 286.3q4-0.4 5.8-3.5c-0.1 0.1-0.5 3.3-5.8 5 0-0.6 0.1-1.1 0-1.5z"/><path class="q" d="m298 289.3q-3.9 7.9-10.3 7.4c-6.3-0.5-1.1-8.4-0.8-8.5 0.3-0.1 6.6-1.6 11.1 1.1z"/><path class="p" d="m278.3 324.2l22.5 2.8q-11.8 2-31.2-0.4 8.5-1.8 8.7-2.4z"/><path class="q" d="m285.4 326.6l-1.6 0.5q-0.8-0.7-1.1-3l1.4-0.8q1 0.8 1.3 3.3z"/><path class="p" d="m306.6 318.6c-0.2 0.3-4.1 1.9-8.4 3.5q-5.9 2.3-12.6 4.5l-1.5-3.3q7-3.8 11.7-6.4c2.2-1.3 4-2.3 4.2-2.5 0.8-0.7 1-1.9 0.4-3.9-0.6-2-1.8-11.3-2-12.4-0.1-1.1 0.4-4 3.1-4.1q2.7-0.2 4.1 0.6 0.6 0.3 1.2 6.9c0.5 6.5 0.5 16.3-0.2 17.1z"/><path class="v" d="m299.9 308c-0.1 0.9-0.1 2.3-0.1 3.8-2.7-6.5-1.2-11.7-1.1-11.7-0.3 1.7 1.1 7.8 1.2 7.9z"/><path class="v" d="m279.5 309.9c-0.4 1.7-0.7 3-0.9 3.4q-0.9-4.4-0.1-10 0.2 2.7 1 6.6z"/><path class="q" d="m298.2 322.1q-5.9 2.3-12.8 4.5l-1.3-3.3q7-3.8 11.7-6.4 1.7 0.8 2.4 5.2z"/><path class="w" d="m270 333.5l-14-7.1 27.7 0.4z"/><path class="x" d="m268.9 332.2l14.8-5.4v1.4l-13.7 5.3z"/><path class="q" d="m284.3 326.9q-4.3 1.3-5 1.6c-0.7 0.2-1.7 1.7-3.1 2.4q-1.4 0.7-2-1.1c-0.6 0.3-1.1-0.3-0.8-0.6 0.4-0.2 2.3-4.4 2.8-5 0.6-0.6 2.9-0.9 3.9-0.6q1.2 0.2 2.9 0.5 1.1-0.4 1.3 2.8z"/><path class="q" d="m276 326c-2.1 0.9-2.8 0.3-2.5 0.1 0.3-0.2 1.5-1.1 1.8-1.4q0.3-0.2 1.4-0.7 1.5 1-0.7 2z"/><path class="y" d="m243.1 332.2l-7.9-20.7 26.6-0.4 8.2 22.4z"/><path class="z" d="m253.3 321c0.8 1.6 0.5 3.4-0.6 3.9-1.1 0.6-2.6-0.3-3.5-1.9-0.8-1.6-0.5-3.4 0.6-3.9 1.1-0.6 2.7 0.3 3.5 1.9z"/></svg>