<svg width="25" height="25" viewBox="0 0 25 25" fill="none" xmlns="http://www.w3.org/2000/svg">
<g clip-path="url(#clip0_139_1004)">
<path d="M4.6875 15.2288V11.0518C4.6875 10.9476 4.64583 10.8434 4.57292 10.7705L3.25 9.47884C3.17708 9.40593 3.08333 9.36426 2.97917 9.36426H0.385417C0.166667 9.36426 0 9.54134 0 9.74967V15.2184C0 15.3226 0.0416667 15.4163 0.114583 15.4997C0.1875 15.583 0.291667 15.6143 0.395833 15.6143H4.30208C4.40625 15.6143 4.5 15.5726 4.58333 15.4997C4.66667 15.4268 4.69792 15.3226 4.69792 15.2184L4.6875 15.2288ZM3.90625 14.8434H0.78125V10.1559H2.8125L3.90625 11.2288V14.8434Z" fill="#343D46"/>
<path d="M24.8857 10.7813L23.5628 9.48958C23.4899 9.41667 23.3962 9.375 23.292 9.375H20.7087C20.4899 9.375 20.3232 9.55208 20.3232 9.76042V15.2292C20.3232 15.3333 20.3649 15.4271 20.4378 15.5104C20.5107 15.5938 20.6149 15.625 20.7191 15.625H24.6253C24.7295 15.625 24.8232 15.5833 24.9066 15.5104C24.9899 15.4375 25.0212 15.3333 25.0212 15.2292V11.0521C25.0212 10.9479 24.9795 10.8438 24.9066 10.7708L24.8857 10.7813ZM24.2191 14.8438H21.0941V10.1562H23.1253L24.2191 11.2292V14.8438Z" fill="#343D46"/>
<path d="M10.5417 6.25H14.4479C14.5521 6.25 14.6458 6.20833 14.7292 6.13542C14.8125 6.0625 14.8438 5.95833 14.8438 5.85417V1.6875C14.8438 1.58333 14.8021 1.47917 14.7292 1.40625L13.3958 0.114583C13.3229 0.0416667 13.2292 0 13.125 0H10.5417C10.3229 0 10.1562 0.177083 10.1562 0.385417V5.85417C10.1562 5.95833 10.1979 6.05208 10.2708 6.13542C10.3437 6.21875 10.4479 6.25 10.5521 6.25H10.5417ZM10.9271 0.78125H12.9583L14.0521 1.85417V5.46875H10.9271V0.78125Z" fill="#343D46"/>
<path d="M13.3962 18.8646C13.3232 18.7917 13.2295 18.75 13.1253 18.75H10.5524C10.3337 18.75 10.167 18.9271 10.167 19.1354V24.6042C10.167 24.7083 10.2087 24.8021 10.2816 24.8854C10.3545 24.9687 10.4587 25 10.5628 25H14.4691C14.5732 25 14.667 24.9583 14.7503 24.8854C14.8337 24.8125 14.8649 24.7083 14.8649 24.6042V20.4271C14.8649 20.3229 14.8232 20.2188 14.7503 20.1458L13.4274 18.8542L13.3962 18.8646ZM14.0628 24.2188H10.9378V19.5312H12.9691L14.0628 20.6042V24.2188Z" fill="#343D46"/>
<path d="M18.4482 9.15625C18.5212 9.22917 18.6253 9.27083 18.7295 9.27083C18.8337 9.27083 18.9378 9.22917 19.0107 9.15625L22.0524 6.11458C22.1253 6.04167 22.167 5.9375 22.167 5.83333C22.167 5.72917 22.1253 5.63542 22.0524 5.55208L19.8441 3.34375C19.6878 3.19792 19.4482 3.19792 19.292 3.34375L16.2503 6.38542C16.1774 6.45833 16.1357 6.5625 16.1357 6.66667C16.1357 6.77083 16.1774 6.875 16.2503 6.94792L18.4587 9.15625H18.4482ZM19.5524 4.1875L21.2087 5.84375L20.6566 6.39583L19.0003 4.73958L19.5524 4.1875ZM18.4482 5.29167L20.1045 6.94792L18.7191 8.33333L17.0628 6.67708L18.4482 5.29167Z" fill="#343D46"/>
<path d="M5.80176 9.34408C5.87468 9.41699 5.97884 9.45866 6.08301 9.45866C6.18718 9.45866 6.29134 9.41699 6.36426 9.34408L8.57259 7.13574C8.64551 7.06283 8.68718 6.95866 8.68718 6.85449C8.68718 6.75033 8.64551 6.64616 8.57259 6.57324L5.53092 3.53158C5.45801 3.45866 5.35384 3.41699 5.24967 3.41699C5.14551 3.41699 5.05176 3.45866 4.96842 3.53158L2.76009 5.73991C2.68717 5.81283 2.64551 5.91699 2.64551 6.02116C2.64551 6.12533 2.68717 6.22949 2.76009 6.30241L5.80176 9.34408ZM7.73926 6.85449L6.08301 8.51074L4.69759 7.12533L6.35384 5.46908L7.73926 6.85449ZM5.26009 4.36491L5.81217 4.91699L4.15592 6.57324L3.60384 6.02116L5.26009 4.36491Z" fill="#343D46"/>
<path d="M18.9997 16.2396C18.9268 16.1667 18.8226 16.125 18.7184 16.125C18.6143 16.125 18.5101 16.1667 18.4372 16.2396L16.2288 18.4479C16.1559 18.5208 16.1143 18.625 16.1143 18.7292C16.1143 18.8333 16.1559 18.9375 16.2288 19.0104L19.2705 22.0521C19.3434 22.125 19.4476 22.1667 19.5518 22.1667C19.6559 22.1667 19.7497 22.125 19.833 22.0521L22.0413 19.8437C22.1143 19.7708 22.1559 19.6667 22.1559 19.5625C22.1559 19.4583 22.1143 19.3646 22.0413 19.2813L18.9997 16.2396ZM17.0622 18.7292L18.7184 17.0729L20.1038 18.4583L18.4476 20.125L17.0622 18.7396V18.7292ZM19.5518 21.2188L18.9997 20.6667L20.6559 19.0104L21.208 19.5625L19.5518 21.2188Z" fill="#343D46"/>
<path d="M6.35384 16.042C6.19759 15.8962 5.95801 15.8962 5.80176 16.042L2.76009 19.0837C2.68717 19.1566 2.64551 19.2607 2.64551 19.3649C2.64551 19.4691 2.68717 19.5732 2.76009 19.6462L4.96842 21.8545C5.04134 21.9274 5.14551 21.9691 5.24967 21.9691C5.35384 21.9691 5.45801 21.9274 5.53092 21.8545L8.57259 18.8128C8.64551 18.7399 8.68718 18.6357 8.68718 18.5316C8.68718 18.4274 8.64551 18.3337 8.57259 18.2503L6.36426 16.042H6.35384ZM5.24967 21.0107L3.59342 19.3545L4.14551 18.8024L5.80176 20.4587L5.24967 21.0107ZM6.35384 19.917L4.69759 18.2607L6.08301 16.8753L7.73926 18.5316L6.35384 19.917Z" fill="#343D46"/>
<path d="M16.7705 15.937C16.9476 16.062 17.1872 16.0204 17.3122 15.8433C17.3538 15.7808 17.3851 15.7287 17.4267 15.6662C17.4892 15.5829 17.4997 15.4683 17.4788 15.3745C17.458 15.2704 17.3955 15.187 17.3122 15.1245C17.2288 15.0724 17.1142 15.0516 17.0205 15.0724C16.9163 15.0933 16.833 15.1558 16.7705 15.2495C16.7392 15.3016 16.708 15.3537 16.6663 15.4058C16.5413 15.5829 16.5934 15.8224 16.7705 15.9474V15.937Z" fill="#343D46"/>
<path d="M14.417 7.3648C14.3753 7.45855 14.3753 7.56271 14.417 7.66688C14.4587 7.76063 14.5316 7.84396 14.6253 7.88563L14.792 7.95855C14.9899 8.0523 15.2191 7.97938 15.3128 7.78146C15.4066 7.58355 15.3337 7.35438 15.1357 7.26063L14.9378 7.16688C14.7399 7.08355 14.5107 7.16688 14.4274 7.3648H14.417Z" fill="#343D46"/>
<path d="M18.3538 12.708V12.4997C18.3538 12.2809 18.1768 12.1143 17.9684 12.1143C17.7601 12.1143 17.583 12.2913 17.583 12.4997V12.6768C17.583 12.8955 17.7393 13.0726 17.958 13.083H17.9788C18.1872 13.083 18.3643 12.9163 18.3643 12.708H18.3538Z" fill="#343D46"/>
<path d="M17.4274 9.33318C17.3753 9.23943 17.2816 9.17693 17.1774 9.14568C17.0732 9.12485 16.9587 9.14568 16.8753 9.19776C16.7816 9.26026 16.7191 9.3436 16.6982 9.45818C16.6774 9.56235 16.6982 9.67693 16.7607 9.76026L16.8545 9.91651C16.9066 10.0103 16.9899 10.0832 17.0941 10.104C17.1982 10.1353 17.3024 10.1144 17.3962 10.0623C17.4899 10.0103 17.5524 9.91651 17.5732 9.81235C17.5941 9.70818 17.5732 9.60401 17.5212 9.51026C17.4899 9.44776 17.4482 9.39568 17.417 9.33318H17.4274Z" fill="#343D46"/>
<path d="M11.7189 7.47963H11.771L11.9481 7.45879C12.1668 7.43796 12.3231 7.24004 12.3022 7.03171C12.2814 6.82338 12.0835 6.65671 11.8752 6.67754L11.6668 6.69838C11.4481 6.70879 11.2918 6.89629 11.3022 7.11504C11.3127 7.33379 11.5002 7.49004 11.7189 7.47963Z" fill="#343D46"/>
<path d="M17.3854 11.0729C17.4062 11.1354 17.4167 11.1875 17.4375 11.25C17.4896 11.4583 17.7083 11.5833 17.9167 11.5312C18.0208 11.5104 18.1042 11.4375 18.1562 11.3541C18.2083 11.2604 18.2292 11.1562 18.1979 11.0625C18.1771 11 18.1667 10.9271 18.1458 10.8646C18.125 10.7604 18.0521 10.6771 17.9583 10.625C17.8646 10.5729 17.7604 10.5625 17.6562 10.5833C17.5521 10.6041 17.4687 10.6875 17.4167 10.7812C17.3646 10.875 17.3542 10.9896 17.3958 11.0833L17.3854 11.0729Z" fill="#343D46"/>
<path d="M17.6879 14.6143C17.8546 14.6143 18.0108 14.5101 18.0629 14.3435C18.0837 14.281 18.1046 14.208 18.1254 14.1455C18.1567 13.958 18.0421 13.7705 17.8546 13.7185C17.6671 13.6664 17.4692 13.7497 17.3858 13.9268C17.365 13.9893 17.3546 14.0414 17.3337 14.1039C17.2921 14.2185 17.3129 14.3539 17.3858 14.458C17.4587 14.5622 17.5733 14.6247 17.6983 14.6247L17.6879 14.6143Z" fill="#343D46"/>
<path d="M15.958 8.79199C16.1247 8.93782 16.3747 8.92741 16.5205 8.76074C16.5934 8.68783 16.6247 8.58366 16.6247 8.47949C16.6247 8.37533 16.5726 8.27116 16.4997 8.20866L16.3434 8.07324C16.2705 7.98991 16.1663 7.94824 16.0518 7.94824C15.9372 7.94824 15.833 8.00033 15.7705 8.08366C15.6976 8.16699 15.6663 8.27116 15.6768 8.38574C15.6872 8.48991 15.7497 8.59408 15.833 8.65658L15.9684 8.79199H15.958Z" fill="#343D46"/>
<path d="M10.5828 17.6353C10.6245 17.5415 10.6245 17.4373 10.5828 17.3332C10.5412 17.2394 10.4683 17.1561 10.3745 17.1144L10.2078 17.0415C10.0099 16.9478 9.78076 17.0207 9.68701 17.2186C9.59326 17.4165 9.66618 17.6457 9.8641 17.7394L10.062 17.8332C10.1558 17.8748 10.2599 17.8748 10.3641 17.8332C10.4578 17.7915 10.5412 17.7186 10.5828 17.6248V17.6353Z" fill="#343D46"/>
<path d="M11.6663 18.302H11.7184C11.9371 18.3125 12.1246 18.1562 12.1351 17.9375C12.1455 17.7187 11.9892 17.5312 11.7705 17.5208L11.5934 17.4895C11.3851 17.4479 11.1767 17.5937 11.1351 17.802C11.0934 18.0104 11.2392 18.2187 11.4476 18.2604L11.6559 18.302H11.6663Z" fill="#343D46"/>
<path d="M9.37533 7.99978C9.23991 7.83312 8.98991 7.80187 8.82324 7.93728L8.66699 8.0727C8.57324 8.1352 8.52116 8.23937 8.51074 8.34353C8.50033 8.4477 8.53158 8.56228 8.60449 8.64562C8.67741 8.72895 8.78158 8.78103 8.88574 8.78103C9.00033 8.78103 9.10449 8.73937 9.17741 8.65603L9.31282 8.54145C9.47949 8.40603 9.50033 8.16645 9.36491 7.99978H9.37533Z" fill="#343D46"/>
<path d="M9.04154 16.2085C8.87487 16.0627 8.62487 16.0731 8.47904 16.2398C8.3332 16.4064 8.34362 16.6564 8.51029 16.8023L8.66654 16.9377C8.73945 17.021 8.84362 17.0627 8.9582 17.0627C9.07279 17.0627 9.17695 17.0106 9.23945 16.9273C9.31237 16.8439 9.34362 16.7398 9.3332 16.6252C9.32279 16.521 9.26029 16.4169 9.17695 16.3544L9.04154 16.2189V16.2085Z" fill="#343D46"/>
<path d="M16.3334 16.9272C16.4688 16.7814 16.4792 16.5522 16.3438 16.396C16.2084 16.2397 15.9792 16.2189 15.8229 16.3335L15.6875 16.448C15.6042 16.5105 15.5417 16.6043 15.5313 16.7085C15.5209 16.8126 15.5521 16.9168 15.6146 17.0001C15.6771 17.0835 15.7813 17.1355 15.8854 17.146C15.9896 17.146 16.0938 17.1251 16.1771 17.0522L16.3438 16.9168L16.3334 16.9272Z" fill="#343D46"/>
<path d="M14.6045 17.1252L14.4482 17.1877C14.3545 17.2294 14.2712 17.3023 14.2295 17.396C14.1878 17.4898 14.1878 17.6044 14.2295 17.6981C14.2712 17.7919 14.3441 17.8752 14.4482 17.9065C14.542 17.9481 14.6566 17.9377 14.7503 17.9065L14.9482 17.8231C15.1462 17.7294 15.2295 17.5002 15.1462 17.3023C15.0524 17.1044 14.8232 17.021 14.6253 17.1044H14.6045V17.1252Z" fill="#343D46"/>
<path d="M13.0831 18.3229H13.1248L13.3331 18.3021C13.5519 18.2708 13.6977 18.0729 13.6665 17.8541C13.6352 17.6354 13.4373 17.4896 13.2186 17.5208L13.0415 17.5416C12.8227 17.5521 12.6561 17.7396 12.6665 17.9479C12.6769 18.1562 12.8644 18.3333 13.0727 18.3229H13.0831Z" fill="#343D46"/>
<path d="M7.57244 15.6667C7.69744 15.8334 7.9266 15.875 8.10369 15.7709C8.28077 15.6667 8.33285 15.4271 8.22869 15.25L8.13494 15.0938C8.08285 15 7.99952 14.9271 7.89535 14.9063C7.79119 14.875 7.68702 14.8959 7.59327 14.948C7.49952 15 7.43702 15.0938 7.41619 15.198C7.39535 15.3021 7.41619 15.4063 7.46827 15.5C7.49952 15.5625 7.54119 15.6146 7.57244 15.6771V15.6667Z" fill="#343D46"/>
<path d="M6.63542 12.292V12.5003C6.63542 12.7191 6.8125 12.8857 7.02083 12.8857C7.22917 12.8857 7.40625 12.7087 7.40625 12.5003V12.3232C7.40625 12.1045 7.25 11.9274 7.03125 11.917C6.8125 11.917 6.63542 12.0732 6.625 12.292H6.63542Z" fill="#343D46"/>
<path d="M8.22883 9.06229C8.05174 8.93729 7.81216 8.97896 7.68716 9.15604C7.64549 9.21854 7.61424 9.27062 7.57258 9.33312C7.51008 9.41646 7.49966 9.53104 7.52049 9.62479C7.54133 9.72895 7.60383 9.81229 7.68716 9.87479C7.77049 9.92687 7.88508 9.9477 7.97883 9.92687C8.08299 9.90604 8.16633 9.84354 8.22883 9.74979C8.26008 9.6977 8.29133 9.64562 8.33299 9.59354C8.45799 9.41646 8.40591 9.17687 8.22883 9.05187V9.06229Z" fill="#343D46"/>
<path d="M10.2289 7.91713C10.281 7.91713 10.3435 7.90671 10.3956 7.88588L10.5518 7.82338C10.6456 7.78171 10.7289 7.7088 10.7706 7.61505C10.8123 7.5213 10.8123 7.40671 10.7706 7.31296C10.7289 7.21921 10.656 7.13588 10.5518 7.10463C10.4581 7.06296 10.3435 7.07338 10.2498 7.10463L10.0518 7.18796C9.88518 7.26088 9.79143 7.44838 9.8331 7.62546C9.87476 7.80255 10.031 7.93796 10.2185 7.93796H10.2289V7.91713Z" fill="#343D46"/>
<path d="M7.25006 11.3541C7.41673 11.3541 7.56256 11.2396 7.61465 11.0729C7.63548 11.0104 7.6459 10.9583 7.66673 10.8958C7.72923 10.6979 7.61465 10.4791 7.41673 10.4166C7.21881 10.3541 7.00007 10.4479 6.92715 10.6458C6.90632 10.7083 6.88548 10.7812 6.86465 10.8437C6.8334 10.9583 6.85423 11.0937 6.92715 11.1875C7.00007 11.2812 7.11465 11.3437 7.23965 11.3437L7.25006 11.3541Z" fill="#343D46"/>
<path d="M13.406 7.50041C13.6143 7.54207 13.8227 7.39624 13.8643 7.18791C13.906 6.97957 13.7602 6.77124 13.5518 6.72957L13.3435 6.69832C13.1248 6.66707 12.9268 6.82332 12.8956 7.03166C12.8643 7.25041 13.0206 7.44832 13.2289 7.47957L13.406 7.50041Z" fill="#343D46"/>
<path d="M6.87509 14.1462C6.8855 14.2608 6.95842 14.365 7.05217 14.4275C7.14592 14.49 7.27092 14.5108 7.37509 14.4796C7.48967 14.4483 7.573 14.365 7.62509 14.2608C7.66675 14.1567 7.66675 14.0421 7.62509 13.9379C7.60425 13.8754 7.59384 13.8233 7.573 13.7608C7.52092 13.5525 7.30217 13.4275 7.09384 13.4796C6.8855 13.5317 6.7605 13.7504 6.81259 13.9587C6.83342 14.0212 6.85425 14.0942 6.87509 14.1567V14.1462Z" fill="#343D46"/>
</g>
<defs>
<clipPath id="clip0_139_1004">
<rect width="25" height="25" fill="white"/>
</clipPath>
</defs>
</svg>
