<svg width="25" height="24" viewBox="0 0 25 24" fill="none" xmlns="http://www.w3.org/2000/svg">
<g clip-path="url(#clip0_139_876)">
<path d="M10.1302 0.180176H1.16016V9.15018H10.1302V0.180176ZM8.63016 7.65018H2.66016V1.68018H8.63016V7.65018Z" fill="#343D46" stroke="white" stroke-width="0.1" stroke-miterlimit="10"/>
<path d="M14.9702 22.8699H23.9402V13.8999H14.9702V22.8699ZM16.4702 15.3999H22.4402V21.3699H16.4702V15.3999Z" fill="#343D46" stroke="white" stroke-width="0.1" stroke-miterlimit="10"/>
<path d="M0.0698242 18.0798L5.63982 23.6498L11.2098 18.0798L5.63982 12.5098L0.0698242 18.0798ZM5.63982 21.5298L2.18982 18.0798L5.63982 14.6298L9.08982 18.0798L5.63982 21.5298Z" fill="#343D46" stroke="white" stroke-width="0.1" stroke-miterlimit="10"/>
<path d="M20.2098 3.9198V0.0498047H18.7098V3.9198H14.8398V5.4198H18.7098V9.2798H20.2098V5.4198H24.0698V3.9198H20.2098Z" fill="#343D46" stroke="white" stroke-width="0.1" stroke-miterlimit="10"/>
</g>
<defs>
<clipPath id="clip0_139_876">
<rect width="24.12" height="23.72" fill="white"/>
</clipPath>
</defs>
</svg>
