<svg width="25" height="27" viewBox="0 0 25 27" fill="none" xmlns="http://www.w3.org/2000/svg">
<g clip-path="url(#clip0_139_367)">
<path d="M21.7099 0.149902H7.0099C7.0099 0.149902 6.9199 0.149902 6.8799 0.169902C6.8399 0.179902 6.8099 0.199902 6.7799 0.229902L0.249902 5.9199C0.189902 5.9699 0.149902 6.0499 0.149902 6.1299V24.1499C0.149902 24.7099 0.409902 25.2499 0.859902 25.6499C1.3199 26.0499 1.9399 26.2699 2.5799 26.2699H21.7099C22.3599 26.2699 22.9799 26.0499 23.4299 25.6499C23.8899 25.2499 24.1399 24.7099 24.1399 24.1499V2.2699C24.1399 1.7099 23.8799 1.1699 23.4299 0.769902C22.9699 0.369902 22.3499 0.149902 21.7099 0.149902ZM6.6699 1.1399V4.2999C6.6699 4.7099 6.4799 5.0999 6.1499 5.3899C5.8199 5.6799 5.3699 5.8399 4.8999 5.8399H1.2799L6.6699 1.1399ZM23.4799 24.1499C23.4799 24.5599 23.2899 24.9499 22.9599 25.2399C22.6299 25.5299 22.1799 25.6899 21.7099 25.6899H2.5899C2.1199 25.6899 1.6699 25.5299 1.3399 25.2399C1.0099 24.9499 0.819902 24.5599 0.819902 24.1499V6.4199H4.9099C5.5599 6.4199 6.1699 6.1999 6.6299 5.7999C7.0899 5.3999 7.3399 4.8599 7.3499 4.2999V0.729902H21.7199C22.1899 0.729902 22.6399 0.889902 22.9699 1.1799C23.2999 1.4699 23.4899 1.8599 23.4899 2.2699V24.1499H23.4799ZM18.8099 14.6599H10.1399V13.7899C10.1399 13.7099 10.0999 13.6399 10.0399 13.5799C9.9799 13.5299 9.8899 13.4999 9.7999 13.4999H7.1299C6.9499 13.4999 6.7999 13.6299 6.7999 13.7899V14.6599H5.4699C5.2899 14.6599 5.1399 14.7899 5.1399 14.9499C5.1399 15.1099 5.2899 15.2399 5.4699 15.2399H6.7999V16.1099C6.7999 16.1899 6.8399 16.2599 6.8999 16.3199C6.9599 16.3699 7.0499 16.4099 7.1399 16.4099H9.8099C9.8999 16.4099 9.9799 16.3799 10.0499 16.3199C10.1099 16.2699 10.1499 16.1899 10.1499 16.1099V15.2399H18.8199C18.9999 15.2399 19.1499 15.1099 19.1499 14.9499C19.1499 14.7899 18.9999 14.6599 18.8199 14.6599H18.8099ZM9.4799 15.8199H7.4799V14.0799H9.4799V15.8199ZM18.8099 19.3099H16.4799V18.4399C16.4799 18.3599 16.4399 18.2899 16.3799 18.2299C16.3199 18.1799 16.2299 18.1399 16.1399 18.1399H13.4699C13.2899 18.1399 13.1399 18.2699 13.1399 18.4299V19.2999H5.4699C5.2899 19.2999 5.1399 19.4299 5.1399 19.5899C5.1399 19.7499 5.2899 19.8799 5.4699 19.8799H13.1399V20.7499C13.1399 20.8299 13.1799 20.8999 13.2399 20.9599C13.2999 21.0099 13.3899 21.0499 13.4799 21.0499H16.1499C16.2399 21.0499 16.3199 21.0199 16.3899 20.9599C16.4499 20.9099 16.4899 20.8299 16.4899 20.7499V19.8799H18.8199C18.9999 19.8799 19.1499 19.7499 19.1499 19.5899C19.1499 19.4299 18.9999 19.2999 18.8199 19.2999L18.8099 19.3099ZM15.8099 20.4699H13.8099V18.7299H15.8099V20.4699ZM18.8099 10.0099H14.1399V9.1399C14.1399 9.0599 14.0999 8.9899 14.0399 8.9299C13.9799 8.8799 13.8899 8.8399 13.7999 8.8399H11.1299C10.9499 8.8399 10.7999 8.9699 10.7999 9.1299V9.9999H5.4699C5.2899 9.9999 5.1399 10.1299 5.1399 10.2899C5.1399 10.4499 5.2899 10.5799 5.4699 10.5799H10.7999V11.4499C10.7999 11.5299 10.8399 11.5999 10.8999 11.6599C10.9599 11.7099 11.0499 11.7499 11.1399 11.7499H13.8099C13.8999 11.7499 13.9799 11.7199 14.0499 11.6599C14.1099 11.6099 14.1499 11.5299 14.1499 11.4499V10.5799H18.8199C18.9999 10.5799 19.1499 10.4499 19.1499 10.2899C19.1499 10.1299 18.9999 9.9999 18.8199 9.9999L18.8099 10.0099ZM13.4799 11.1699H11.4799V9.4299H13.4799V11.1699Z" fill="#343D46" stroke="#343D46" stroke-width="0.3" stroke-miterlimit="10"/>
</g>
<defs>
<clipPath id="clip0_139_367">
<rect width="24.3" height="26.42" fill="white"/>
</clipPath>
</defs>
</svg>
