<svg width="25" height="25" viewBox="0 0 25 25" fill="none" xmlns="http://www.w3.org/2000/svg">
<g clip-path="url(#clip0_139_648)">
<path d="M21.2398 0.130206C20.5798 0.130206 19.9498 0.370206 19.4498 0.800206C18.9598 1.23021 18.6298 1.83021 18.5398 2.48021H14.7498C14.6198 1.56021 14.0298 0.770206 13.1798 0.380206C12.3298 -0.00979397 11.3498 0.060206 10.5598 0.560206C9.7798 1.06021 9.2998 1.93021 9.2998 2.86021C9.2998 3.79021 9.7698 4.66021 10.5598 5.16021C11.3398 5.66021 12.3298 5.73021 13.1798 5.34021C14.0298 4.95021 14.6198 4.16021 14.7498 3.24021H18.5798C18.6798 3.94021 19.0398 4.57021 19.5898 5.00021C20.1398 5.44021 20.8398 5.64021 21.5398 5.58021C22.2398 5.51021 22.8898 5.18021 23.3498 4.65021C23.8098 4.12021 24.0498 3.43021 24.0098 2.73021C23.9798 2.03021 23.6698 1.37021 23.1598 0.880206C22.6498 0.390206 21.9698 0.130206 21.2698 0.130206H21.2298H21.2398ZM12.0598 4.80021C11.5398 4.80021 11.0298 4.59021 10.6598 4.22021C10.2898 3.85021 10.0798 3.35021 10.0798 2.82021C10.0798 2.29021 10.2898 1.79021 10.6598 1.42021C11.0298 1.05021 11.5298 0.840206 12.0598 0.840206C12.5898 0.840206 13.0898 1.05021 13.4598 1.42021C13.8298 1.79021 14.0398 2.29021 14.0398 2.82021C14.0398 3.35021 13.8298 3.85021 13.4598 4.22021C13.0898 4.59021 12.5898 4.80021 12.0598 4.80021ZM21.2398 4.80021C20.7198 4.80021 20.2098 4.59021 19.8398 4.22021C19.4698 3.85021 19.2598 3.35021 19.2598 2.82021C19.2598 2.29021 19.4698 1.79021 19.8398 1.42021C20.2098 1.05021 20.7098 0.840206 21.2398 0.840206C21.7698 0.840206 22.2698 1.05021 22.6398 1.42021C23.0098 1.79021 23.2198 2.29021 23.2198 2.82021C23.2198 3.35021 23.0098 3.85021 22.6398 4.22021C22.2698 4.59021 21.7698 4.80021 21.2398 4.80021Z" fill="#343D46" stroke="#343D46" stroke-width="0.2" stroke-miterlimit="10"/>
<path d="M2.86965 18.5298C2.14965 18.5298 1.44965 18.8198 0.939648 19.3298C0.429648 19.8398 0.139648 20.5398 0.139648 21.2598C0.139648 21.9798 0.429648 22.6798 0.939648 23.1898C1.44965 23.6998 2.14965 23.9898 2.86965 23.9898C3.58965 23.9898 4.28965 23.6998 4.79965 23.1898C5.30965 22.6798 5.59965 21.9798 5.59965 21.2598C5.59965 20.5398 5.30965 19.8398 4.79965 19.3298C4.28965 18.8198 3.58965 18.5298 2.86965 18.5298ZM2.86965 23.1998C2.34965 23.1998 1.83965 22.9898 1.46965 22.6198C1.09965 22.2498 0.889648 21.7498 0.889648 21.2198C0.889648 20.6898 1.09965 20.1898 1.46965 19.8198C1.83965 19.4498 2.33965 19.2398 2.86965 19.2398C3.39965 19.2398 3.89965 19.4498 4.26965 19.8198C4.63965 20.1898 4.84965 20.6898 4.84965 21.2198C4.84965 21.7498 4.63965 22.2498 4.26965 22.6198C3.89965 22.9898 3.39965 23.1998 2.86965 23.1998Z" fill="#343D46" stroke="#343D46" stroke-width="0.2" stroke-miterlimit="10"/>
<path d="M21.2402 9.16016C20.4702 9.17016 19.7302 9.51016 19.2302 10.1002C18.7202 10.6802 18.4902 11.4602 18.5802 12.2302C18.6702 13.0002 19.0902 13.6902 19.7302 14.1402L14.2702 19.6402C13.8302 19.0602 13.1702 18.6702 12.4502 18.5802V14.6002C13.3702 14.4702 14.1602 13.8802 14.5502 13.0402C14.9402 12.1902 14.8702 11.2102 14.3702 10.4202C13.8702 9.64016 13.0002 9.16016 12.0702 9.16016C11.1402 9.16016 10.2702 9.63016 9.77017 10.4202C9.27017 11.2002 9.20017 12.1902 9.59017 13.0402C9.98017 13.8902 10.7702 14.4802 11.6902 14.6002V18.5802C10.9402 18.6902 10.2702 19.1002 9.84017 19.7202C9.41017 20.3402 9.25017 21.1102 9.41017 21.8502C9.57017 22.5902 10.0202 23.2302 10.6702 23.6202C11.3202 24.0102 12.1002 24.1102 12.8302 23.9102C13.5602 23.7002 14.1702 23.2002 14.5102 22.5302C14.8602 21.8602 14.9102 21.0702 14.6502 20.3602L20.4902 14.5202C21.2602 14.7902 22.1102 14.6902 22.8002 14.2702C23.5002 13.8402 23.9602 13.1302 24.0802 12.3302C24.2002 11.5202 23.9402 10.7102 23.4002 10.1002C22.8502 9.50016 22.0602 9.17016 21.2502 9.21016V9.17016L21.2402 9.16016ZM10.0802 11.8902C10.0802 11.3702 10.2902 10.8602 10.6602 10.4902C11.0302 10.1202 11.5302 9.91016 12.0602 9.91016C12.5902 9.91016 13.0902 10.1202 13.4602 10.4902C13.8302 10.8602 14.0402 11.3602 14.0402 11.8902C14.0402 12.4202 13.8302 12.9202 13.4602 13.2902C13.0902 13.6602 12.5902 13.8702 12.0602 13.8702C11.5302 13.8702 11.0302 13.6602 10.6602 13.2902C10.2902 12.9202 10.0802 12.4202 10.0802 11.8902ZM12.0502 23.2002C11.5302 23.2002 11.0202 22.9902 10.6502 22.6202C10.2802 22.2502 10.0702 21.7502 10.0702 21.2202C10.0702 20.6902 10.2802 20.1902 10.6502 19.8202C11.0202 19.4502 11.5202 19.2402 12.0502 19.2402C12.5802 19.2402 13.0802 19.4502 13.4502 19.8202C13.8202 20.1902 14.0302 20.6902 14.0302 21.2202C14.0302 21.7502 13.8202 22.2502 13.4502 22.6202C13.0802 22.9902 12.5802 23.2002 12.0502 23.2002ZM21.2302 13.8602C20.7102 13.8602 20.2002 13.6502 19.8302 13.2802C19.4602 12.9102 19.2502 12.4102 19.2502 11.8802C19.2502 11.3502 19.4602 10.8502 19.8302 10.4802C20.2002 10.1102 20.7002 9.90016 21.2302 9.90016C21.7602 9.90016 22.2602 10.1102 22.6302 10.4802C23.0002 10.8502 23.2102 11.3502 23.2102 11.8802C23.2102 12.4102 23.0002 12.9102 22.6302 13.2802C22.2602 13.6502 21.7602 13.8602 21.2302 13.8602Z" fill="#343D46" stroke="#343D46" stroke-width="0.2" stroke-miterlimit="10"/>
<path d="M21.2398 18.5298C20.5198 18.5298 19.8198 18.8198 19.3098 19.3298C18.7998 19.8398 18.5098 20.5398 18.5098 21.2598C18.5098 21.9798 18.7998 22.6798 19.3098 23.1898C19.8198 23.6998 20.5198 23.9898 21.2398 23.9898C21.9598 23.9898 22.6598 23.6998 23.1698 23.1898C23.6798 22.6798 23.9698 21.9798 23.9698 21.2598C23.9698 20.5398 23.6798 19.8398 23.1698 19.3298C22.6598 18.8198 21.9598 18.5298 21.2398 18.5298ZM21.2398 23.1998C20.7198 23.1998 20.2098 22.9898 19.8398 22.6198C19.4698 22.2498 19.2598 21.7498 19.2598 21.2198C19.2598 20.6898 19.4698 20.1898 19.8398 19.8198C20.2098 19.4498 20.7098 19.2398 21.2398 19.2398C21.7698 19.2398 22.2698 19.4498 22.6398 19.8198C23.0098 20.1898 23.2198 20.6898 23.2198 21.2198C23.2198 21.7498 23.0098 22.2498 22.6398 22.6198C22.2698 22.9898 21.7698 23.1998 21.2398 23.1998Z" fill="#343D46" stroke="#343D46" stroke-width="0.2" stroke-miterlimit="10"/>
<path d="M5.56001 2.86023C5.56001 2.15023 5.30001 1.46023 4.80001 0.940234C4.31001 0.420234 3.63001 0.120234 2.92001 0.100234C2.21001 0.0802342 1.51001 0.330234 0.990011 0.810234C0.470011 1.29023 0.150011 1.96023 0.100011 2.67023C0.060011 3.38023 0.300011 4.08023 0.760011 4.62023C1.23001 5.16023 1.89001 5.49023 2.60001 5.55023V9.50023C1.69001 9.58023 0.880011 10.1302 0.460011 10.9402C0.040011 11.7502 0.060011 12.7302 0.510011 13.5202C0.970011 14.3202 1.80001 14.8202 2.71001 14.8702C3.63001 14.9202 4.50001 14.4902 5.04001 13.7502C5.57001 13.0002 5.69001 12.0402 5.35001 11.1902C5.01001 10.3402 4.26001 9.72023 3.36001 9.54023V5.52023C3.98001 5.40023 4.53001 5.07023 4.93001 4.58023C5.33001 4.09023 5.55001 3.49023 5.56001 2.86023ZM0.900011 2.86023C0.900011 2.34023 1.11001 1.83023 1.48001 1.46023C1.85001 1.09023 2.35001 0.880234 2.88001 0.880234C3.41001 0.880234 3.91001 1.09023 4.28001 1.46023C4.65001 1.83023 4.86001 2.33023 4.86001 2.86023C4.86001 3.39023 4.65001 3.89023 4.28001 4.26023C3.91001 4.63023 3.41001 4.84023 2.88001 4.84023C2.35001 4.84023 1.85001 4.63023 1.48001 4.26023C1.11001 3.89023 0.900011 3.39023 0.900011 2.86023ZM4.81001 12.2002C4.81001 12.7202 4.60001 13.2302 4.23001 13.6002C3.86001 13.9702 3.36001 14.1802 2.83001 14.1802C2.30001 14.1802 1.80001 13.9702 1.43001 13.6002C1.06001 13.2302 0.850011 12.7302 0.850011 12.2002C0.850011 11.6702 1.06001 11.1702 1.43001 10.8002C1.80001 10.4302 2.30001 10.2202 2.83001 10.2202C3.36001 10.2202 3.86001 10.4302 4.23001 10.8002C4.60001 11.1702 4.81001 11.6702 4.81001 12.2002Z" fill="#343D46" stroke="#343D46" stroke-width="0.2" stroke-miterlimit="10"/>
</g>
<defs>
<clipPath id="clip0_139_648">
<rect width="24.2" height="24.11" fill="white"/>
</clipPath>
</defs>
</svg>
