<svg width="25" height="25" viewBox="0 0 25 25" fill="none" xmlns="http://www.w3.org/2000/svg">
<g clip-path="url(#clip0_139_491)">
<path d="M12.1498 8.3999C12.4298 8.3999 12.6998 8.4299 12.9698 8.4899C13.1698 8.5299 13.3698 8.4099 13.4198 8.2099C13.4698 8.0099 13.3398 7.8099 13.1398 7.7599C12.8198 7.6899 12.4798 7.6499 12.1498 7.6499C11.8098 7.6499 11.4698 7.6899 11.1398 7.7599C10.9498 7.7999 10.8298 7.9799 10.8498 8.1699C10.8698 8.3599 11.0298 8.4999 11.2198 8.4999C11.2498 8.4999 11.2798 8.4999 11.2998 8.4999C11.5798 8.4399 11.8598 8.3999 12.1398 8.3999H12.1498Z" fill="#343D46" stroke="#343D46" stroke-width="0.3" stroke-miterlimit="10"/>
<path d="M13.0702 16.5399C13.0702 16.5399 13.1302 16.5399 13.1502 16.5399C13.8102 16.3899 14.4202 16.0899 14.9502 15.6699C15.1102 15.5399 15.1402 15.3099 15.0102 15.1399C14.8802 14.9799 14.6502 14.9499 14.4802 15.0799C14.0402 15.4299 13.5302 15.6799 12.9802 15.8099C12.7802 15.8599 12.6502 16.0599 12.7002 16.2599C12.7502 16.4299 12.8902 16.5399 13.0702 16.5499V16.5399Z" fill="#343D46" stroke="#343D46" stroke-width="0.3" stroke-miterlimit="10"/>
<path d="M8.0199 11.78C7.8099 11.78 7.6499 11.95 7.6499 12.16C7.6499 12.84 7.7999 13.5 8.0999 14.11C8.1399 14.2 8.2199 14.27 8.3099 14.3C8.3999 14.33 8.5099 14.33 8.5999 14.28C8.6899 14.24 8.7599 14.16 8.7899 14.06C8.8199 13.97 8.8199 13.86 8.7699 13.77C8.5199 13.26 8.3999 12.71 8.3999 12.14C8.3999 11.93 8.2299 11.77 8.0199 11.77V11.78Z" fill="#343D46" stroke="#343D46" stroke-width="0.3" stroke-miterlimit="10"/>
<path d="M14.4802 9.20998C14.9202 9.55998 15.2802 9.99998 15.5302 10.51C15.6202 10.69 15.8402 10.77 16.0302 10.68C16.1202 10.64 16.1902 10.56 16.2202 10.47C16.2502 10.38 16.2502 10.27 16.2002 10.18C15.9002 9.56998 15.4702 9.03998 14.9502 8.61998C14.8702 8.55998 14.7702 8.52998 14.6702 8.53998C14.5702 8.54998 14.4802 8.59998 14.4202 8.67998C14.2902 8.83998 14.3202 9.07998 14.4802 9.20998Z" fill="#343D46" stroke="#343D46" stroke-width="0.3" stroke-miterlimit="10"/>
<path d="M9.80016 9.22018C9.96016 9.09018 9.99016 8.85018 9.86016 8.69018C9.73016 8.53018 9.49016 8.50018 9.33016 8.63018C8.80016 9.05018 8.38016 9.59018 8.09016 10.2002C8.00016 10.3902 8.08016 10.6102 8.27016 10.7002C8.46016 10.7902 8.68016 10.7102 8.77016 10.5202C9.01016 10.0102 9.37016 9.57018 9.81016 9.21018L9.80016 9.22018Z" fill="#343D46" stroke="#343D46" stroke-width="0.3" stroke-miterlimit="10"/>
<path d="M16.2698 11.77C16.0598 11.77 15.8898 11.94 15.8998 12.15C15.8998 12.71 15.7798 13.27 15.5298 13.78C15.4398 13.97 15.5198 14.19 15.6998 14.28C15.8898 14.37 16.1098 14.28 16.1998 14.11C16.4898 13.5 16.6498 12.83 16.6398 12.15C16.6398 12.04 16.5998 11.95 16.5298 11.88C16.4598 11.81 16.3598 11.77 16.2698 11.78V11.77Z" fill="#343D46" stroke="#343D46" stroke-width="0.3" stroke-miterlimit="10"/>
<path d="M9.34985 15.6702C9.87985 16.0902 10.4999 16.3902 11.1499 16.5402C11.3499 16.5902 11.5499 16.4602 11.5999 16.2602C11.6499 16.0602 11.5199 15.8602 11.3199 15.8102C10.7699 15.6802 10.2599 15.4402 9.81985 15.0902C9.73985 15.0302 9.63985 15.0002 9.53985 15.0102C9.43985 15.0202 9.34985 15.0702 9.28985 15.1502C9.15985 15.3102 9.18985 15.5502 9.34985 15.6802V15.6702Z" fill="#343D46" stroke="#343D46" stroke-width="0.3" stroke-miterlimit="10"/>
<path d="M14.8802 1.2301C15.4802 1.3801 16.0702 1.5801 16.6402 1.8301C16.8302 1.9101 17.0502 1.8301 17.1302 1.6401C17.1702 1.5501 17.1702 1.4501 17.1302 1.3501C17.0902 1.2501 17.0202 1.1801 16.9302 1.1401C16.3202 0.880103 15.7002 0.660103 15.0502 0.500103C14.8502 0.450103 14.6502 0.570103 14.6002 0.770103C14.5502 0.970103 14.6702 1.1701 14.8702 1.2201L14.8802 1.2301Z" fill="#343D46" stroke="#343D46" stroke-width="0.3" stroke-miterlimit="10"/>
<path d="M18.3102 21.5702C17.7902 21.9102 17.2502 22.2102 16.6802 22.4602C16.4902 22.5402 16.4002 22.7602 16.4902 22.9502C16.5802 23.1402 16.7902 23.2202 16.9802 23.1402C17.5902 22.8702 18.1702 22.5602 18.7202 22.2002C18.8902 22.0902 18.9402 21.8502 18.8302 21.6802C18.7202 21.5102 18.4802 21.4602 18.3102 21.5702Z" fill="#343D46" stroke="#343D46" stroke-width="0.3" stroke-miterlimit="10"/>
<path d="M14.9198 23.0598C14.3198 23.2098 13.7098 23.3098 13.0898 23.3598C12.8798 23.3798 12.7298 23.5598 12.7498 23.7598C12.7698 23.9598 12.9498 24.1098 13.1498 24.0998C13.8098 24.0498 14.4598 23.9398 15.0998 23.7698C15.2998 23.7198 15.4198 23.5198 15.3698 23.3098C15.3198 23.0998 15.1198 22.9898 14.9098 23.0398L14.9198 23.0598Z" fill="#343D46" stroke="#343D46" stroke-width="0.3" stroke-miterlimit="10"/>
<path d="M11.16 0.940098C11.16 0.940098 11.18 0.940098 11.19 0.940098C11.81 0.890098 12.43 0.890098 13.05 0.940098C13.26 0.960098 13.44 0.800098 13.45 0.600098C13.47 0.390098 13.31 0.210098 13.11 0.200098C12.45 0.150098 11.79 0.150098 11.13 0.200098C10.93 0.220098 10.78 0.390098 10.79 0.590098C10.79 0.790098 10.96 0.950098 11.16 0.950098V0.940098Z" fill="#343D46" stroke="#343D46" stroke-width="0.3" stroke-miterlimit="10"/>
<path d="M18.2798 2.7102C18.7998 3.0502 19.2898 3.4302 19.7498 3.8502C19.8998 3.9802 20.1398 3.9702 20.2798 3.8302C20.3498 3.7602 20.3798 3.6602 20.3798 3.5602C20.3798 3.4602 20.3298 3.3702 20.2598 3.3002C19.7698 2.8502 19.2498 2.4502 18.6898 2.0902C18.5198 1.9802 18.2798 2.0302 18.1698 2.2002C18.0598 2.3702 18.1098 2.6102 18.2798 2.7202V2.7102Z" fill="#343D46" stroke="#343D46" stroke-width="0.3" stroke-miterlimit="10"/>
<path d="M24.15 12.1102C24.15 11.9002 23.98 11.7402 23.78 11.7402C23.58 11.7402 23.41 11.9102 23.41 12.1102V12.1502C23.41 12.7702 23.36 13.3902 23.26 14.0002C23.24 14.1102 23.28 14.2202 23.35 14.3002C23.42 14.3802 23.52 14.4302 23.63 14.4302C23.81 14.4302 23.97 14.3002 24 14.1202C24.11 13.4702 24.16 12.8002 24.16 12.1402V12.1002L24.15 12.1102Z" fill="#343D46" stroke="#343D46" stroke-width="0.3" stroke-miterlimit="10"/>
<path d="M23.2699 15.5698C23.1799 15.5398 23.0699 15.5398 22.9799 15.5898C22.8899 15.6298 22.8199 15.7098 22.7899 15.8098C22.5899 16.3998 22.3399 16.9698 22.0399 17.5098C21.9399 17.6898 22.0099 17.9198 22.1899 18.0198C22.3699 18.1098 22.5999 18.0498 22.6999 17.8698C23.0199 17.2898 23.2799 16.6798 23.4999 16.0498C23.5299 15.9598 23.5299 15.8498 23.4799 15.7598C23.4399 15.6698 23.3599 15.5998 23.2599 15.5698H23.2699Z" fill="#343D46" stroke="#343D46" stroke-width="0.3" stroke-miterlimit="10"/>
<path d="M21.5599 18.9901C21.4799 18.9301 21.3799 18.9001 21.2799 18.9101C21.1799 18.9201 21.0899 18.9701 21.0299 19.0501C20.6499 19.5401 20.2299 20.0001 19.7699 20.4201C19.6199 20.5601 19.6099 20.8001 19.7499 20.9501C19.8899 21.1001 20.1299 21.1101 20.2799 20.9701C20.7699 20.5201 21.2199 20.0301 21.6199 19.5101C21.6799 19.4301 21.7099 19.3301 21.6999 19.2301C21.6899 19.1301 21.6399 19.0401 21.5599 18.9801V18.9901Z" fill="#343D46" stroke="#343D46" stroke-width="0.3" stroke-miterlimit="10"/>
<path d="M7.44986 1.87987C7.49986 1.87987 7.54986 1.87987 7.59986 1.84987C8.16986 1.59987 8.74986 1.39987 9.34986 1.23987C9.54986 1.18987 9.66986 0.979869 9.61986 0.779869C9.56986 0.579869 9.35986 0.459869 9.15986 0.509869C8.51986 0.669869 7.88986 0.889869 7.28986 1.15987C7.19986 1.19987 7.12986 1.26987 7.08986 1.36987C7.04986 1.45987 7.05986 1.56987 7.08986 1.65987C7.14986 1.78987 7.28986 1.87987 7.42986 1.87987H7.44986Z" fill="#343D46" stroke="#343D46" stroke-width="0.3" stroke-miterlimit="10"/>
<path d="M22.0301 6.75981C22.1301 6.93981 22.3601 7.0098 22.5401 6.9098C22.7201 6.8098 22.7901 6.57981 22.6901 6.39981C22.3701 5.81981 22.0101 5.26981 21.6001 4.74981C21.5401 4.66981 21.4501 4.61981 21.3501 4.60981C21.2501 4.59981 21.1501 4.62981 21.0701 4.68981C20.9901 4.74981 20.9401 4.83981 20.9301 4.93981C20.9201 5.03981 20.9501 5.1398 21.0101 5.2198C21.3901 5.7098 21.7301 6.2298 22.0301 6.7698V6.75981Z" fill="#343D46" stroke="#343D46" stroke-width="0.3" stroke-miterlimit="10"/>
<path d="M1.5101 15.8201C1.4401 15.6201 1.2301 15.5201 1.0301 15.5901C0.830103 15.6601 0.730103 15.8701 0.800103 16.0701C1.0201 16.7001 1.2801 17.3001 1.6001 17.8801C1.7001 18.0601 1.9301 18.1201 2.1101 18.0301C2.2901 17.9301 2.3601 17.7001 2.2601 17.5201C1.9601 16.9801 1.7101 16.4101 1.5101 15.8201Z" fill="#343D46" stroke="#343D46" stroke-width="0.3" stroke-miterlimit="10"/>
<path d="M3.27997 19.0701C3.14997 18.9101 2.91997 18.8801 2.74997 19.0101C2.57997 19.1401 2.55997 19.3701 2.68997 19.5401C3.09997 20.0601 3.54997 20.5501 4.02997 21.0001C4.17997 21.1401 4.41997 21.1301 4.55997 20.9801C4.62997 20.9101 4.65997 20.8101 4.65997 20.7101C4.65997 20.6101 4.60997 20.5201 4.53997 20.4501C4.07997 20.0301 3.65997 19.5701 3.27997 19.0801V19.0701Z" fill="#343D46" stroke="#343D46" stroke-width="0.3" stroke-miterlimit="10"/>
<path d="M7.6401 22.4599C7.0701 22.2099 6.5301 21.9199 6.0101 21.5799C5.8401 21.4699 5.6001 21.5199 5.4901 21.6899C5.3801 21.8599 5.4301 22.0999 5.6001 22.2099C6.1501 22.5699 6.7401 22.8899 7.3401 23.1499C7.5301 23.2299 7.7501 23.1499 7.8301 22.9599C7.9101 22.7699 7.8301 22.5499 7.6401 22.4699V22.4599Z" fill="#343D46" stroke="#343D46" stroke-width="0.3" stroke-miterlimit="10"/>
<path d="M23.2398 10.26C23.2798 10.46 23.4698 10.6 23.6698 10.57C23.7698 10.55 23.8598 10.5 23.9098 10.42C23.9598 10.34 23.9898 10.24 23.9698 10.14C23.8598 9.49004 23.6998 8.85004 23.4798 8.22004C23.4098 8.02004 23.1998 7.92004 22.9998 7.99004C22.7998 8.06004 22.6998 8.27004 22.7698 8.47004C22.9698 9.06004 23.1298 9.66005 23.2298 10.27L23.2398 10.26Z" fill="#343D46" stroke="#343D46" stroke-width="0.3" stroke-miterlimit="10"/>
<path d="M1.74008 6.97003C1.92008 7.07003 2.15008 7.00003 2.25008 6.82003C2.54008 6.27003 2.88008 5.75003 3.26008 5.26003C3.39008 5.10003 3.36008 4.86003 3.19008 4.73003C3.03008 4.60003 2.79008 4.63003 2.66008 4.80003C2.25008 5.32003 1.89008 5.88003 1.58008 6.46003C1.53008 6.55003 1.52008 6.65003 1.55008 6.75003C1.58008 6.85003 1.64008 6.93003 1.73008 6.97003H1.74008Z" fill="#343D46" stroke="#343D46" stroke-width="0.3" stroke-miterlimit="10"/>
<path d="M11.2298 23.3602C10.6098 23.3102 9.99981 23.2102 9.39981 23.0602C9.19981 23.0102 8.99981 23.1302 8.94981 23.3302C8.89981 23.5302 9.01981 23.7302 9.21981 23.7902C9.85981 23.9502 10.5198 24.0602 11.1698 24.1102C11.2698 24.1102 11.3698 24.0902 11.4398 24.0202C11.5098 23.9502 11.5598 23.8602 11.5698 23.7602C11.5698 23.6602 11.5498 23.5602 11.4798 23.4902C11.4198 23.4102 11.3198 23.3702 11.2198 23.3602H11.2298Z" fill="#343D46" stroke="#343D46" stroke-width="0.3" stroke-miterlimit="10"/>
<path d="M1.0499 14.0198C0.949902 13.4098 0.899902 12.7898 0.899902 12.1698C0.899902 11.9598 0.729902 11.7998 0.519902 11.7998C0.309902 11.7998 0.149902 11.9698 0.149902 12.1798C0.149902 12.8398 0.209902 13.4998 0.309902 14.1498C0.349902 14.3498 0.539902 14.4898 0.739902 14.4598C0.939902 14.4298 1.0799 14.2298 1.0499 14.0298V14.0198Z" fill="#343D46" stroke="#343D46" stroke-width="0.3" stroke-miterlimit="10"/>
<path d="M4.26009 3.97998C4.35009 3.97998 4.44009 3.94998 4.51009 3.88998C4.97009 3.46998 5.45009 3.08998 5.97009 2.74998C6.14009 2.63998 6.19009 2.39998 6.08009 2.22998C5.97009 2.05998 5.73009 2.00998 5.56009 2.11998C5.01009 2.47998 4.49009 2.88998 4.00009 3.33998C3.88009 3.43998 3.85009 3.60998 3.90009 3.74998C3.96009 3.88998 4.10009 3.98998 4.25009 3.97998H4.26009Z" fill="#343D46" stroke="#343D46" stroke-width="0.3" stroke-miterlimit="10"/>
<path d="M0.619951 10.63C0.819951 10.66 1.01995 10.52 1.04995 10.32C1.14995 9.71003 1.29995 9.11003 1.49995 8.52003C1.56995 8.32003 1.45995 8.11003 1.26995 8.05003C1.06995 7.98003 0.859951 8.09003 0.789951 8.28003C0.579951 8.91003 0.419951 9.55003 0.309951 10.2C0.279951 10.4 0.409951 10.6 0.619951 10.63Z" fill="#343D46" stroke="#343D46" stroke-width="0.3" stroke-miterlimit="10"/>
<path d="M4.50019 9.30992C4.59019 9.34992 4.69019 9.34992 4.79019 9.30992C4.88019 9.26992 4.96019 9.19992 4.99019 9.10992C5.38019 8.18992 5.95019 7.35992 6.67019 6.66992C7.90019 5.47992 9.48019 4.72992 11.1802 4.51992L10.7502 4.94992C10.6802 5.01992 10.6402 5.11992 10.6402 5.21992C10.6402 5.31992 10.6802 5.40992 10.7502 5.48992C10.9002 5.62992 11.1302 5.62992 11.2802 5.48992C11.3402 5.42992 12.3602 4.41992 12.4302 4.33992C12.4702 4.28992 12.5002 4.21992 12.5102 4.14992C12.5202 4.02992 12.4802 3.91992 12.4002 3.83992L11.2802 2.71992C11.1302 2.56992 10.9002 2.56992 10.7502 2.71992C10.6002 2.86992 10.6002 3.09992 10.7502 3.24992L11.2802 3.77992C9.35019 3.96992 7.54019 4.80992 6.14019 6.15992C5.35019 6.91992 4.73019 7.83992 4.30019 8.83992C4.22019 9.02992 4.30019 9.24992 4.50019 9.32992V9.30992Z" fill="#343D46" stroke="#343D46" stroke-width="0.3" stroke-miterlimit="10"/>
<path d="M9.3099 19.8001C9.3899 19.6101 9.3099 19.3901 9.1099 19.3101C8.1899 18.9201 7.3599 18.3501 6.6699 17.6301C5.9699 16.9101 5.4099 16.0501 5.0399 15.1201C4.7299 14.3501 4.5399 13.5301 4.4899 12.7001L4.9499 13.1601C5.0999 13.3001 5.3299 13.3001 5.4799 13.1601C5.5499 13.0901 5.5899 12.9901 5.5899 12.8901C5.5899 12.7901 5.5499 12.7001 5.4799 12.6201L4.3599 11.5001C4.2899 11.4301 4.1899 11.3901 4.0899 11.3901C3.9899 11.3901 3.8999 11.4301 3.8199 11.5001L2.6999 12.6201C2.5499 12.7701 2.5499 13.0001 2.6999 13.1501C2.8499 13.3001 3.0799 13.3001 3.2299 13.1501L3.7299 12.6501C3.8499 14.7101 4.6999 16.6601 6.1299 18.1401C6.8899 18.9301 7.8099 19.5501 8.8099 19.9801C8.9999 20.0601 9.2199 19.9801 9.2999 19.7801L9.3099 19.8001Z" fill="#343D46" stroke="#343D46" stroke-width="0.3" stroke-miterlimit="10"/>
<path d="M19.99 15.4801C20.07 15.2901 19.99 15.0701 19.79 14.9901C19.6 14.9101 19.38 14.9901 19.3 15.1901C18.91 16.1101 18.34 16.9401 17.62 17.6301C16.9 18.3301 16.04 18.8901 15.11 19.2601C14.28 19.6001 13.39 19.7901 12.49 19.8301L12.97 19.3501C13.12 19.2001 13.12 18.9701 12.97 18.8201C12.82 18.6701 12.59 18.6701 12.44 18.8201L11.32 19.9401C11.25 20.0101 11.21 20.1101 11.21 20.2101C11.21 20.3101 11.25 20.4001 11.32 20.4801L12.44 21.6001C12.59 21.7401 12.82 21.7401 12.97 21.6001C13.04 21.5301 13.08 21.4301 13.08 21.3301C13.08 21.2301 13.04 21.1401 12.97 21.0601L12.48 20.5701C13.48 20.5301 14.47 20.3201 15.39 19.9501C16.42 19.5401 17.35 18.9301 18.14 18.1601C18.93 17.4001 19.55 16.4801 19.98 15.4801H19.99Z" fill="#343D46" stroke="#343D46" stroke-width="0.3" stroke-miterlimit="10"/>
<path d="M21.2602 11.3198L20.7702 11.8098C20.7302 10.8098 20.5202 9.81979 20.1502 8.89979C19.7402 7.86979 19.1302 6.93979 18.3602 6.14979C17.6002 5.35979 16.6802 4.73979 15.6802 4.30979C15.5902 4.26979 15.4902 4.26979 15.3902 4.30979C15.3002 4.34979 15.2202 4.41979 15.1902 4.50979C15.1502 4.59979 15.1502 4.69979 15.1902 4.79979C15.2302 4.88979 15.3002 4.96979 15.3902 5.00979C16.3102 5.39979 17.1402 5.96979 17.8302 6.68979C18.5302 7.40979 19.0902 8.26979 19.4602 9.19979C19.8002 10.0298 19.9902 10.9198 20.0302 11.8198L19.5502 11.3398C19.4002 11.1898 19.1702 11.1898 19.0202 11.3398C18.8702 11.4898 18.8702 11.7198 19.0202 11.8698L20.1402 12.9898C20.2102 13.0598 20.3102 13.0998 20.4102 13.0998C20.5102 13.0998 20.6002 13.0598 20.6802 12.9898L21.8002 11.8698C21.9502 11.7198 21.9502 11.4898 21.8002 11.3398C21.6502 11.1898 21.4202 11.1898 21.2702 11.3398L21.2602 11.3198Z" fill="#343D46" stroke="#343D46" stroke-width="0.3" stroke-miterlimit="10"/>
</g>
<defs>
<clipPath id="clip0_139_491">
<rect width="24.3" height="24.26" fill="white"/>
</clipPath>
</defs>
</svg>
