<svg width="25" height="25" viewBox="0 0 25 25" fill="none" xmlns="http://www.w3.org/2000/svg">
<g clip-path="url(#clip0_139_967)">
<path fill-rule="evenodd" clip-rule="evenodd" d="M13.7904 17.4602V13.6502H15.6004C15.7004 13.6502 15.8004 13.5902 15.8504 13.5002C15.9004 13.4102 15.8904 13.3002 15.8304 13.2102L12.4304 8.3402C12.3804 8.2602 12.2904 8.2202 12.2004 8.2202C12.1104 8.2202 12.0204 8.2602 11.9704 8.3402L8.57043 13.2102C8.51043 13.3002 8.50043 13.4102 8.55043 13.5002C8.60043 13.5902 8.69043 13.6502 8.80043 13.6502H10.6104V17.4602C8.91043 16.9502 7.57043 15.6502 7.00043 13.9702C6.43043 12.2902 6.70043 10.4402 7.73043 9.0002C8.76043 7.5602 10.4204 6.7002 12.2004 6.7002C13.9804 6.7002 15.6404 7.5502 16.6704 9.0002C17.7004 10.4402 17.9704 12.2902 17.4004 13.9702C16.8304 15.6502 15.4804 16.9502 13.7904 17.4602ZM11.1804 17.6002C11.8604 17.7302 12.5504 17.7302 13.2304 17.6002V13.3702C13.2304 13.3002 13.2604 13.2202 13.3104 13.1702C13.3604 13.1202 13.4304 13.0902 13.5104 13.0902H15.0704L12.2104 8.9902L9.35043 13.0902H10.9104C10.9804 13.0902 11.0604 13.1202 11.1104 13.1702C11.1604 13.2202 11.1904 13.2902 11.1904 13.3702V17.6002H11.1804ZM12.2004 6.1502C10.5904 6.1502 9.05043 6.7902 7.92043 7.9202C6.78043 9.0602 6.15043 10.6002 6.15043 12.2002C6.15043 13.8002 6.79043 15.3502 7.92043 16.4802C9.06043 17.6202 10.6004 18.2502 12.2004 18.2502C13.8004 18.2502 15.3504 17.6102 16.4804 16.4802C17.6204 15.3402 18.2504 13.8002 18.2504 12.2002C18.2504 10.5902 17.6104 9.0602 16.4704 7.9202C15.3304 6.7802 13.8004 6.1502 12.1904 6.1402L12.2004 6.1502ZM23.6404 14.0102V10.4102C23.6404 10.2502 23.5304 10.1202 23.3704 10.0902L20.9304 9.6702C20.8304 9.6502 20.7404 9.5802 20.7104 9.4802C20.5604 9.01019 20.3704 8.55019 20.1404 8.1102C20.0904 8.0202 20.1004 7.9002 20.1604 7.8202L21.5904 5.8002C21.6804 5.6702 21.6704 5.5002 21.5604 5.3902L19.0104 2.8402C18.9004 2.7302 18.7204 2.7102 18.6004 2.8002L16.5804 4.2302C16.4904 4.2902 16.3804 4.3002 16.2904 4.2502C15.8504 4.0202 15.4004 3.8302 14.9304 3.6802C14.8304 3.6502 14.7604 3.5602 14.7404 3.4602L14.3204 1.0202C14.3004 0.860195 14.1604 0.750195 14.0004 0.750195H10.4004C10.2404 0.750195 10.1104 0.860195 10.0804 1.0202L9.66043 3.4602C9.64043 3.5602 9.57043 3.6502 9.47043 3.6802C9.00043 3.8302 8.54043 4.0202 8.11043 4.2502C8.02043 4.3002 7.90043 4.2902 7.82043 4.2302L5.80043 2.8002C5.67043 2.7102 5.50043 2.7202 5.39043 2.8402L2.84043 5.3902C2.73043 5.5002 2.71043 5.6802 2.80043 5.8002L4.23043 7.8202C4.29043 7.9102 4.30043 8.0202 4.25043 8.1102C4.02043 8.55019 3.83043 9.0002 3.68043 9.4702C3.65043 9.5702 3.56043 9.64019 3.46043 9.6602L1.02043 10.0802C0.86043 10.1102 0.75043 10.2402 0.75043 10.4002V14.0002C0.75043 14.1602 0.86043 14.2902 1.02043 14.3202L3.46043 14.7402C3.56043 14.7602 3.65043 14.8302 3.68043 14.9302C3.83043 15.4002 4.02043 15.8602 4.25043 16.3002C4.30043 16.3902 4.29043 16.5102 4.23043 16.5902L2.80043 18.6102C2.71043 18.7402 2.72043 18.9102 2.84043 19.0202L5.39043 21.5702C5.50043 21.6802 5.68043 21.7002 5.80043 21.6002L7.82043 20.1702C7.82043 20.1702 7.92043 20.1202 7.98043 20.1202C8.02043 20.1202 8.07043 20.1302 8.11043 20.1502C8.55043 20.3802 9.00043 20.5702 9.47043 20.7202C9.57043 20.7502 9.64043 20.8402 9.66043 20.9402L10.0804 23.3802C10.1004 23.5402 10.2404 23.6502 10.4004 23.6502H14.0004C14.1604 23.6502 14.2904 23.5402 14.3204 23.3802L14.7404 20.9402C14.7604 20.8402 14.8304 20.7502 14.9304 20.7202C15.4004 20.5702 15.8604 20.3802 16.2904 20.1502C16.3804 20.1002 16.5004 20.1102 16.5804 20.1702L18.6004 21.6002C18.7304 21.6902 18.9004 21.6802 19.0104 21.5702L21.5604 19.0202C21.6704 18.9102 21.6904 18.7302 21.6004 18.6102L20.1704 16.5902C20.1104 16.5002 20.1004 16.3902 20.1504 16.3002C20.3804 15.8602 20.5704 15.4102 20.7204 14.9402C20.7504 14.8402 20.8404 14.7702 20.9404 14.7502L23.3804 14.3302C23.5404 14.3002 23.6504 14.1702 23.6504 14.0102H23.6404ZM23.4704 9.5402L21.2004 9.1502C21.0704 8.76019 20.9104 8.3802 20.7304 8.0202L22.0604 6.1402C22.1804 5.9702 22.2404 5.7602 22.2204 5.5502C22.2004 5.3402 22.1104 5.1502 21.9604 5.0002L19.4104 2.4502C19.2604 2.3002 19.0704 2.2102 18.8604 2.1902C18.6504 2.1702 18.4404 2.2302 18.2704 2.3502L16.3904 3.6802C16.0204 3.5002 15.6404 3.3402 15.2604 3.2102L14.8704 0.940195C14.8304 0.730195 14.7304 0.550195 14.5704 0.410195C14.4104 0.280195 14.2104 0.200195 14.0004 0.200195H10.4004C10.1904 0.200195 9.99043 0.270195 9.83043 0.410195C9.67043 0.540195 9.56043 0.730195 9.53043 0.940195L9.14043 3.2102C8.75043 3.3402 8.37043 3.5002 8.01043 3.6802L6.13043 2.3502C5.96043 2.2302 5.75043 2.1702 5.54043 2.1902C5.33043 2.2102 5.14043 2.3002 4.99043 2.4502L2.44043 5.0002C2.29043 5.1502 2.20043 5.3402 2.18043 5.5502C2.16043 5.7602 2.22043 5.9702 2.34043 6.1402L3.67043 8.0202C3.49043 8.3902 3.33043 8.7702 3.20043 9.1502L0.93043 9.5402C0.72043 9.5702 0.54043 9.6802 0.40043 9.8402C0.27043 10.0002 0.19043 10.2002 0.19043 10.4102V14.0102C0.19043 14.2202 0.26043 14.4202 0.40043 14.5802C0.53043 14.7402 0.72043 14.8502 0.93043 14.8802L3.20043 15.2702C3.33043 15.6602 3.49043 16.0402 3.67043 16.4002L2.34043 18.2802C2.22043 18.4502 2.16043 18.6602 2.18043 18.8702C2.20043 19.0802 2.29043 19.2702 2.44043 19.4202L4.99043 21.9702C5.14043 22.1202 5.33043 22.2102 5.54043 22.2302C5.75043 22.2502 5.96043 22.1902 6.13043 22.0702L8.01043 20.7402C8.38043 20.9202 8.76043 21.0802 9.14043 21.2102L9.53043 23.4802C9.56043 23.6902 9.67043 23.8702 9.83043 24.0102C9.99043 24.1402 10.1904 24.2202 10.4004 24.2202H14.0004C14.2104 24.2202 14.4104 24.1502 14.5704 24.0102C14.7304 23.8802 14.8404 23.6902 14.8704 23.4802L15.2604 21.2102C15.6504 21.0802 16.0304 20.9202 16.3904 20.7402L18.2704 22.0702C18.4404 22.1902 18.6504 22.2502 18.8604 22.2302C19.0704 22.2102 19.2604 22.1202 19.4104 21.9702L21.9604 19.4202C22.1104 19.2702 22.2004 19.0802 22.2204 18.8702C22.2404 18.6602 22.1804 18.4502 22.0604 18.2802L20.7304 16.4002C20.9104 16.0302 21.0704 15.6502 21.2004 15.2702L23.4704 14.8802C23.6804 14.8502 23.8604 14.7402 24.0004 14.5802C24.1404 14.4202 24.2104 14.2202 24.2104 14.0102V10.4102C24.2104 10.2002 24.1404 10.0002 24.0004 9.8402C23.8704 9.6802 23.6804 9.5702 23.4704 9.5402Z" fill="#343D46" stroke="#343D46" stroke-width="0.4" stroke-miterlimit="10"/>
</g>
<defs>
<clipPath id="clip0_139_967">
<rect width="24.4" height="24.4" fill="white"/>
</clipPath>
</defs>
</svg>
