<svg width="25" height="23" viewBox="0 0 25 23" fill="none" xmlns="http://www.w3.org/2000/svg">
<g clip-path="url(#clip0_139_830)">
<path d="M6.81986 3.11986H23.4899V0.729863H6.81986V3.12986V3.11986ZM23.4899 3.74986H6.81986V7.06986C10.2199 7.23986 12.9099 10.0399 12.9099 13.4599C12.9099 16.8799 10.2199 19.6799 6.81986 19.8499V21.8999H23.4899V3.74986ZM6.19986 10.1199C6.19986 9.70986 6.81986 9.70986 6.81986 10.1199V10.6599C7.71986 10.7499 8.72986 11.2899 8.72986 12.2099C8.72986 12.6199 8.10986 12.6199 8.10986 12.2099C8.10986 11.6699 7.36986 11.3499 6.82986 11.2799V13.1999C7.81986 13.3699 8.73986 13.5999 8.73986 14.7199C8.73986 15.6399 7.73986 16.1799 6.82986 16.2699V16.8099C6.82986 17.2199 6.20986 17.2199 6.20986 16.8099V16.2699C5.30986 16.1799 4.29986 15.6399 4.29986 14.7199C4.29986 14.3099 4.91986 14.3099 4.91986 14.7199C4.91986 15.2599 5.65986 15.5799 6.19986 15.6399V13.7299C5.20986 13.5599 4.28986 13.3299 4.28986 12.2099C4.28986 11.2899 5.28986 10.7499 6.19986 10.6599V10.1199ZM6.81986 13.8299V15.6399C7.35986 15.5799 8.09986 15.2499 8.09986 14.7199C8.09986 14.1299 7.50986 13.9499 6.81986 13.8299ZM6.19986 13.0999V11.2799C5.65986 11.3499 4.91986 11.6699 4.91986 12.2099C4.91986 12.7999 5.51986 12.9799 6.19986 13.0999ZM6.50986 18.2299C3.87986 18.2299 1.74986 16.0999 1.74986 13.4699C1.74986 10.8399 3.87986 8.70986 6.50986 8.70986C9.13986 8.70986 11.2699 10.8399 11.2699 13.4699C11.2699 16.0999 9.13986 18.2299 6.50986 18.2299ZM3.57986 16.3899C5.19986 18.0099 7.81986 18.0099 9.43986 16.3899C11.0599 14.7699 11.0599 12.1499 9.43986 10.5299C7.81986 8.90986 5.19986 8.90986 3.57986 10.5299C1.95986 12.1499 1.95986 14.7699 3.57986 16.3899ZM6.19986 19.8599C2.79986 19.6899 0.109863 16.8799 0.109863 13.4599C0.109863 10.0399 2.79986 7.22986 6.19986 7.06986V0.419863C6.19986 0.249863 6.33986 0.109863 6.50986 0.109863H23.7999C23.9699 0.109863 24.1099 0.249863 24.1099 0.419863V22.2099C24.1099 22.3799 23.9699 22.5199 23.7999 22.5199H6.50986C6.33986 22.5199 6.19986 22.3799 6.19986 22.2099V19.8499V19.8599ZM10.5899 9.37986C8.33986 7.12986 4.67986 7.12986 2.42986 9.37986C0.179863 11.6299 0.179863 15.2899 2.42986 17.5399C4.67986 19.7899 8.33986 19.7899 10.5899 17.5399C12.8499 15.2899 12.8499 11.6299 10.5899 9.37986ZM20.9999 16.1199H18.7099V18.4099H20.9999V16.1199ZM18.3999 15.4999H21.3099C21.4799 15.4999 21.6199 15.6399 21.6199 15.8099V18.7199C21.6199 18.8899 21.4799 19.0299 21.3099 19.0299H18.3999C18.2299 19.0299 18.0899 18.8899 18.0899 18.7199V15.8099C18.0899 15.6299 18.2299 15.4999 18.3999 15.4999ZM20.9999 10.8099H18.7099V13.0999H20.9999V10.8099ZM18.3999 10.1799H21.3099C21.4799 10.1799 21.6199 10.3199 21.6199 10.4899V13.3999C21.6199 13.5699 21.4799 13.7099 21.3099 13.7099H18.3999C18.2299 13.7099 18.0899 13.5699 18.0899 13.3999V10.4899C18.0899 10.3199 18.2299 10.1799 18.3999 10.1799ZM20.9999 5.47986H18.7099V7.76986H20.9999V5.47986ZM18.3999 4.85986H21.3099C21.4799 4.85986 21.6199 4.99986 21.6199 5.16986V8.07986C21.6199 8.24986 21.4799 8.38986 21.3099 8.38986H18.3999C18.2299 8.38986 18.0899 8.24986 18.0899 8.07986V5.16986C18.0899 4.98986 18.2299 4.85986 18.3999 4.85986Z" fill="#343D46" stroke="#343D46" stroke-width="0.21" stroke-miterlimit="10"/>
</g>
<defs>
<clipPath id="clip0_139_830">
<rect width="24.21" height="22.63" fill="white"/>
</clipPath>
</defs>
</svg>
