<svg width="25" height="25" viewBox="0 0 25 25" fill="none" xmlns="http://www.w3.org/2000/svg">
<g clip-path="url(#clip0_129_516)">
<path d="M19.9299 14.6199V9.6799C22.2999 9.3999 24.1499 7.3799 24.1499 4.9299C24.1499 2.2899 21.9999 0.149902 19.3699 0.149902C16.9199 0.149902 14.8999 1.9999 14.6199 4.3699H9.6799C9.3999 1.9999 7.3799 0.149902 4.9299 0.149902C2.2999 0.149902 0.149902 2.2999 0.149902 4.9299C0.149902 7.3799 1.9999 9.3999 4.3699 9.6799V14.6199C1.9999 14.8999 0.149902 16.9199 0.149902 19.3699C0.149902 22.0099 2.2999 24.1499 4.9299 24.1499C7.3799 24.1499 9.3999 22.2999 9.6799 19.9299H14.6199C14.8999 22.2999 16.9199 24.1499 19.3699 24.1499C22.0099 24.1499 24.1499 21.9999 24.1499 19.3699C24.1499 16.9199 22.2999 14.8999 19.9299 14.6199ZM14.6199 18.8099H9.6799C9.5599 17.7899 9.1099 16.8599 8.4499 16.1399L8.9199 15.6699C9.7699 16.4499 10.8999 16.9399 12.1499 16.9399C13.2699 16.9399 14.2999 16.5499 15.1199 15.8999L15.6199 16.3999C15.0799 17.0799 14.7199 17.8999 14.6199 18.7999V18.8099ZM7.5599 8.9299L8.1599 9.5299C7.6599 10.2799 7.3699 11.1899 7.3699 12.1499C7.3699 13.1099 7.6699 14.0599 8.1899 14.8199L7.6099 15.3999C6.9899 14.9799 6.2799 14.7099 5.4999 14.6199V9.6799C6.2599 9.5899 6.9599 9.3299 7.5599 8.9299ZM15.6499 7.9399L15.1599 8.4299C14.3399 7.7599 13.2899 7.3599 12.1499 7.3599C10.8899 7.3599 9.7399 7.8599 8.8799 8.6599L8.4199 8.1899C9.0999 7.4599 9.5599 6.5299 9.6799 5.4899H14.6199C14.7299 6.4099 15.0999 7.2499 15.6499 7.9299V7.9399ZM12.1499 15.8099C10.1299 15.8099 8.4899 14.1699 8.4899 12.1499C8.4899 10.1299 10.1299 8.4899 12.1499 8.4899C14.1699 8.4899 15.8099 10.1299 15.8099 12.1499C15.8099 14.1699 14.1699 15.8099 12.1499 15.8099ZM16.4199 15.6099L15.9099 15.0999C16.5499 14.2899 16.9399 13.2599 16.9399 12.1499C16.9399 11.0399 16.5699 10.0499 15.9399 9.2399L16.4599 8.7199C17.1299 9.2299 17.9299 9.5799 18.8099 9.6799V14.6199C17.9099 14.7199 17.0999 15.0799 16.4199 15.6099ZM19.3699 8.5999C18.3199 8.5999 17.3799 8.1499 16.7099 7.4499C16.7999 6.5899 17.5999 5.9099 18.5799 5.9099C18.8899 5.9099 19.1399 5.6599 19.1399 5.3499C19.1399 5.0399 18.8999 4.8099 18.5999 4.7899C18.4699 4.6199 18.3999 4.4099 18.3999 4.1999C18.3999 3.6599 18.8399 3.2299 19.3699 3.2299C19.8999 3.2299 20.3399 3.6699 20.3399 4.1999C20.3399 4.4199 20.2699 4.6199 20.1399 4.7899C19.8399 4.7999 19.5999 5.0499 19.5999 5.3499C19.5999 5.6499 19.8499 5.9099 20.1599 5.9099C21.1399 5.9099 21.9399 6.5899 22.0299 7.4499C21.3599 8.1599 20.4199 8.5999 19.3699 8.5999ZM19.3699 1.2799C21.3899 1.2799 23.0299 2.9199 23.0299 4.9399C23.0299 5.3999 22.9399 5.8299 22.7899 6.2299C22.4599 5.6799 21.9399 5.2399 21.2999 4.9999C21.3999 4.7499 21.4599 4.4799 21.4599 4.1999C21.4599 3.0399 20.5199 2.0999 19.3599 2.0999C18.1999 2.0999 17.2599 3.0399 17.2599 4.1999C17.2599 4.4799 17.3199 4.7499 17.4199 4.9999C16.7899 5.2399 16.2599 5.6799 15.9299 6.2299C15.7799 5.8299 15.6899 5.3899 15.6899 4.9399C15.6899 2.9199 17.3299 1.2799 19.3499 1.2799H19.3699ZM4.9399 1.2799C6.9599 1.2799 8.5999 2.9199 8.5999 4.9399C8.5999 5.3999 8.5099 5.8299 8.3599 6.2299C8.0299 5.6799 7.5099 5.2399 6.8699 4.9999C6.9699 4.7499 7.0299 4.4799 7.0299 4.1999C7.0299 3.0399 6.0899 2.0999 4.9299 2.0999C3.7699 2.0999 2.8299 3.0399 2.8299 4.1999C2.8299 4.4799 2.8899 4.7499 2.9899 4.9999C2.3599 5.2399 1.8299 5.6799 1.4999 6.2299C1.3499 5.8299 1.2599 5.3899 1.2599 4.9399C1.2599 2.9199 2.8999 1.2799 4.9199 1.2799H4.9399ZM2.2799 7.4499C2.3699 6.5899 3.1599 5.9099 4.1499 5.9099C4.4599 5.9099 4.7099 5.6599 4.7099 5.3499C4.7099 5.0399 4.4699 4.8099 4.1699 4.7899C4.0399 4.6199 3.9699 4.4099 3.9699 4.1999C3.9699 3.6599 4.4099 3.2299 4.9399 3.2299C5.4699 3.2299 5.9099 3.6699 5.9099 4.1999C5.9099 4.4199 5.8399 4.6199 5.7099 4.7899C5.4099 4.7999 5.1699 5.0499 5.1699 5.3499C5.1699 5.6499 5.4199 5.9099 5.7299 5.9099C6.7099 5.9099 7.5099 6.5899 7.5999 7.4499C6.9299 8.1599 5.9899 8.5999 4.9399 8.5999C3.8899 8.5999 2.9499 8.1499 2.2799 7.4499ZM4.9399 15.7099C6.9599 15.7099 8.5999 17.3499 8.5999 19.3699C8.5999 19.8299 8.5099 20.2599 8.3599 20.6599C8.0299 20.1099 7.5099 19.6699 6.8699 19.4299C6.9699 19.1799 7.0299 18.9099 7.0299 18.6299C7.0299 17.4699 6.0899 16.5299 4.9299 16.5299C3.7699 16.5299 2.8299 17.4699 2.8299 18.6299C2.8299 18.9099 2.8899 19.1799 2.9899 19.4299C2.3599 19.6699 1.8299 20.1099 1.4999 20.6599C1.3499 20.2599 1.2599 19.8199 1.2599 19.3699C1.2599 17.3499 2.8999 15.7099 4.9199 15.7099H4.9399ZM4.9399 23.0299C3.8899 23.0299 2.9499 22.5799 2.2799 21.8799C2.3699 21.0199 3.1699 20.3399 4.1499 20.3399C4.4599 20.3399 4.7099 20.0899 4.7099 19.7799C4.7099 19.4699 4.4699 19.2399 4.1699 19.2199C4.0399 19.0499 3.9699 18.8399 3.9699 18.6299C3.9699 18.0899 4.4099 17.6599 4.9399 17.6599C5.4699 17.6599 5.9099 18.0999 5.9099 18.6299C5.9099 18.8499 5.8399 19.0499 5.7099 19.2199C5.4099 19.2299 5.1699 19.4799 5.1699 19.7799C5.1699 20.0799 5.4199 20.3399 5.7299 20.3399C6.7099 20.3399 7.5099 21.0199 7.5999 21.8799C6.9299 22.5899 5.9899 23.0299 4.9399 23.0299ZM19.3699 23.0299C18.3199 23.0299 17.3799 22.5799 16.7099 21.8799C16.7999 21.0199 17.5999 20.3399 18.5799 20.3399C18.8899 20.3399 19.1399 20.0899 19.1399 19.7799C19.1399 19.4699 18.8999 19.2399 18.5999 19.2199C18.4699 19.0499 18.3999 18.8399 18.3999 18.6299C18.3999 18.0899 18.8399 17.6599 19.3699 17.6599C19.8999 17.6599 20.3399 18.0999 20.3399 18.6299C20.3399 18.8499 20.2699 19.0499 20.1399 19.2199C19.8399 19.2299 19.5999 19.4799 19.5999 19.7799C19.5999 20.0799 19.8499 20.3399 20.1599 20.3399C21.1399 20.3399 21.9399 21.0199 22.0299 21.8799C21.3599 22.5899 20.4199 23.0299 19.3699 23.0299ZM22.7899 20.6599C22.4599 20.1099 21.9399 19.6699 21.2999 19.4299C21.3999 19.1799 21.4599 18.9099 21.4599 18.6299C21.4599 17.4699 20.5199 16.5299 19.3599 16.5299C18.1999 16.5299 17.2599 17.4699 17.2599 18.6299C17.2599 18.9099 17.3199 19.1799 17.4199 19.4299C16.7899 19.6699 16.2599 20.1099 15.9299 20.6599C15.7799 20.2599 15.6899 19.8199 15.6899 19.3699C15.6899 17.3499 17.3299 15.7099 19.3499 15.7099C21.3699 15.7099 23.0099 17.3499 23.0099 19.3699C23.0099 19.8299 22.9199 20.2599 22.7699 20.6599H22.7899Z" fill="#343D46" stroke="white" stroke-width="0.3" stroke-miterlimit="10"/>
<path d="M14.1799 9.91001C13.9199 9.75001 13.5699 9.83001 13.4099 10.09L11.6399 12.96L10.8399 12.04C10.6399 11.8 10.2799 11.78 10.0499 11.98C9.81995 12.18 9.78995 12.54 9.98995 12.77L11.2899 14.27C11.2899 14.27 11.2999 14.28 11.3099 14.29C11.3299 14.31 11.3399 14.32 11.3599 14.34C11.3699 14.35 11.3899 14.36 11.3999 14.37C11.3999 14.37 11.4099 14.38 11.4199 14.38C11.4199 14.38 11.4399 14.38 11.4399 14.39C11.4699 14.41 11.4999 14.42 11.5299 14.43C11.5399 14.43 11.5599 14.43 11.5699 14.44C11.6099 14.45 11.6599 14.46 11.6999 14.46C11.7599 14.46 11.8099 14.45 11.8699 14.43C11.8899 14.43 11.8999 14.42 11.9199 14.41C11.9699 14.39 12.0099 14.37 12.0499 14.33C12.0499 14.33 12.0599 14.33 12.0699 14.32C12.0699 14.32 12.0899 14.3 12.0999 14.29C12.1199 14.27 12.1399 14.24 12.1599 14.21C12.1599 14.21 12.1599 14.2 12.1699 14.19L14.3499 10.67C14.5099 10.41 14.4299 10.06 14.1699 9.90001L14.1799 9.91001Z" fill="#343D46" stroke="white" stroke-width="0.3" stroke-miterlimit="10"/>
</g>
<defs>
<clipPath id="clip0_129_516">
<rect width="24.3" height="24.3" fill="white"/>
</clipPath>
</defs>
</svg>
