<svg width="28" height="28" viewBox="0 0 28 28" fill="none" xmlns="http://www.w3.org/2000/svg">
<g clip-path="url(#clip0_139_666)">
<path d="M15.87 3.24982C16.47 3.24982 16.48 2.31982 15.87 2.31982H10.65C10.05 2.31982 10.04 3.24982 10.65 3.24982H15.87Z" fill="#343D46"/>
<path d="M8.89032 18.5701L6.84032 17.7601C6.78032 17.7401 6.75032 17.6601 6.78032 17.5801L8.51032 13.2201C8.81032 12.5101 8.46032 11.6101 7.73032 11.3401L7.69032 11.3201C6.99032 11.0401 6.18032 11.3801 5.86032 12.0901L3.91032 16.5001V15.1601C3.86032 14.6901 3.69032 14.2601 3.45032 13.8801C3.22032 13.5201 2.90032 13.2101 2.53032 12.9801C1.97032 12.6001 1.13032 13.0401 1.08032 13.6801L0.340321 17.5401C0.340321 17.5401 0.340321 17.5901 0.340321 17.6201L0.300321 21.2001L0.430321 23.1501L0.0103215 25.0601C-0.0396785 25.2801 0.0803215 25.5101 0.290321 25.5901L5.83032 27.7901C6.04032 27.8701 6.28032 27.7901 6.40032 27.6001L7.42032 25.9001L9.24032 23.6601C9.68032 23.1401 9.84032 21.1201 10.0003 20.4801C10.1003 19.6501 9.65032 18.8601 8.89032 18.5601V18.5701ZM8.68032 22.6601C8.65032 22.8301 8.58032 23.0001 8.50032 23.1201L6.69032 25.3501C6.69032 25.3501 6.66032 25.3801 6.65032 25.4001L5.81032 26.7901L1.00032 24.8801C1.00032 24.8801 1.39032 23.1401 1.35032 23.1701L1.22032 21.1901L1.26032 17.6801L2.00032 13.8201C2.00032 13.8201 2.03032 13.7701 2.04032 13.7701C2.55032 14.0801 2.88032 14.6101 2.98032 15.2001V18.0901C2.98032 18.3701 3.18032 18.6101 3.45032 18.6701C3.72032 18.7301 4.00032 18.5901 4.11032 18.3301L6.71032 12.4701C6.83032 12.2101 7.11032 12.0801 7.35032 12.1801L7.39032 12.2001C7.65032 12.3001 7.76032 12.6201 7.65032 12.8701L5.92032 17.2301C5.70032 17.7801 5.96032 18.4001 6.50032 18.6101L8.55032 19.4201C8.91032 19.5601 9.13032 19.9501 9.09032 20.3401L8.68032 22.6401V22.6601Z" fill="#343D46"/>
<path d="M21.1398 5.57C20.9898 5.57 20.8298 5.57 20.6798 5.59V2.5C20.6798 1.12 19.6198 0 18.3098 0H8.20984C6.89984 0 5.83984 1.12 5.83984 2.5V9.99C5.83984 10.25 6.04984 10.45 6.29984 10.45C6.54984 10.45 6.75984 10.24 6.75984 9.99V2.5C6.75984 1.64 7.40984 0.93 8.19984 0.93H18.2998C19.0998 0.93 19.7398 1.63 19.7398 2.5V5.74C13.5898 7.24 13.5898 15.96 19.7398 17.46V19.48H11.3698C11.1098 19.48 10.9098 19.69 10.9098 19.94C10.9098 20.19 11.1198 20.4 11.3698 20.4H19.7398C19.8498 21.33 19.2198 22.27 18.2998 22.26H11.0098C10.3998 22.26 10.3998 23.18 11.0098 23.19H18.2998C19.6098 23.19 20.6698 22.07 20.6698 20.69C20.6698 20.18 20.6698 18.14 20.6698 17.6C24.1398 17.89 27.1798 15.08 27.1598 11.59C27.1598 8.27 24.4598 5.56 21.1298 5.56L21.1398 5.57ZM21.1398 16.7C18.3498 16.72 16.0098 14.4 16.0398 11.6C16.2998 4.83 25.9698 4.84 26.2398 11.6C26.2398 14.41 23.9498 16.7 21.1398 16.7Z" fill="#343D46"/>
<path d="M19.7495 10.2002C19.7495 9.94023 19.5395 9.74023 19.2895 9.74023H18.2295C17.9695 9.74023 17.7695 9.95023 17.7695 10.2002C17.7695 10.4502 17.9795 10.6602 18.2295 10.6602H19.2895C19.5495 10.6602 19.7495 10.4502 19.7495 10.2002Z" fill="#343D46"/>
<path d="M24.06 9.73998H23C22.74 9.73998 22.54 9.94998 22.54 10.2C22.54 10.45 22.75 10.66 23 10.66H24.06C24.67 10.66 24.67 9.72998 24.06 9.72998V9.73998Z" fill="#343D46"/>
<path d="M23.4602 12.0601H18.8202C18.5602 12.0601 18.3602 12.2701 18.3602 12.5201C18.2402 13.6601 18.8202 14.7001 20.0602 15.1201C21.7002 15.7801 23.9902 14.6601 23.9302 12.9901V12.5301C23.9302 12.2701 23.7202 12.0701 23.4702 12.0701L23.4602 12.0601ZM21.1402 14.3801C20.3002 14.4201 19.2502 13.7901 19.2802 12.9901H22.9902C22.9902 13.7601 22.1602 14.3801 21.1302 14.3801H21.1402Z" fill="#343D46"/>
<path d="M8.61961 9.27977C8.00961 9.27977 8.00961 10.2098 8.61961 10.2098H13.2596C13.5196 10.2098 13.7196 9.99977 13.7196 9.74977V6.96977C13.7196 6.70977 13.5096 6.50977 13.2596 6.50977H8.61961C8.00961 6.50977 8.00961 7.42977 8.61961 7.43977H12.7896V9.29977H8.61961V9.27977Z" fill="#343D46"/>
</g>
<defs>
<clipPath id="clip0_139_666">
<rect width="27.17" height="27.83" fill="white"/>
</clipPath>
</defs>
</svg>
