<svg width="25" height="25" viewBox="0 0 25 25" fill="none" xmlns="http://www.w3.org/2000/svg">
<g clip-path="url(#clip0_139_355)">
<path d="M12.1299 24.1299C5.51988 24.1299 0.129883 18.7499 0.129883 12.1299C0.129883 5.50988 5.51988 0.129883 12.1299 0.129883C18.7399 0.129883 24.1299 5.50988 24.1299 12.1299C24.1299 18.7499 18.7499 24.1299 12.1299 24.1299ZM12.1299 1.63988C6.34988 1.64988 1.64988 6.34988 1.64988 12.1299C1.64988 17.9099 6.34988 22.6199 12.1399 22.6199C17.9299 22.6199 22.6299 17.9199 22.6299 12.1299C22.6299 6.33988 17.9199 1.64988 12.1299 1.64988V1.63988Z" fill="#343D46" stroke="white" stroke-width="0.27" stroke-miterlimit="10"/>
<path d="M17.82 6.7998H6.45996V8.3098H17.82V6.7998Z" fill="#343D46"/>
<path d="M17.82 11.3398H6.45996V12.8498H17.82V11.3398Z" fill="#343D46"/>
<path d="M9.48021 10.5801H7.97021V13.6101H9.48021V10.5801Z" fill="#343D46"/>
<path d="M15.5398 6.04004H14.0298V9.07004H15.5398V6.04004Z" fill="#343D46"/>
<path d="M11.7502 15.1201H10.2402V18.1501H11.7502V15.1201Z" fill="#343D46"/>
<path d="M17.82 15.8799H6.45996V17.3899H17.82V15.8799Z" fill="#343D46"/>
</g>
<defs>
<clipPath id="clip0_139_355">
<rect width="24.27" height="24.27" fill="white"/>
</clipPath>
</defs>
</svg>
