<svg width="36" height="20" viewBox="0 0 36 20" fill="none" xmlns="http://www.w3.org/2000/svg">
<g clip-path="url(#clip0_128_78)">
<path d="M25.2126 0.0553543C22.2796 0.0553543 19.5015 1.35032 17.6088 3.59714C15.4174 0.99614 12.0527 -0.309892 8.68797 0.143899C5.32328 0.586622 2.41238 2.72276 0.984598 5.81075C-0.454251 8.88767 -0.210753 12.4848 1.61548 15.3514C3.44171 18.2181 6.60718 19.9447 10.0051 19.9447C12.9381 19.9447 15.7162 18.6497 17.6088 16.4029C19.5015 18.6386 22.2796 19.9336 25.2126 19.9447C28.7655 19.9447 32.0527 18.052 33.8236 14.9751C35.6055 11.8982 35.6055 8.11291 33.8236 5.03599C32.0416 1.94799 28.7655 0.0553543 25.2126 0.0553543ZM33.9674 9.69564L32.8164 10.4704L31.6321 9.68457C31.5546 8.21252 30.9791 6.81794 30.0051 5.72221C29.02 4.62647 27.7029 3.89597 26.253 3.66354L26.8728 2.72276C27.0056 2.52353 27.0056 2.26897 26.8728 2.06974L26.3637 1.30605C28.4223 1.58275 30.315 2.56781 31.6985 4.10627C33.0931 5.64473 33.901 7.61485 33.9674 9.69564ZM25.2126 15.2629C23.818 15.2629 22.4788 14.7095 21.4937 13.7244C20.5087 12.7394 19.9553 11.4001 19.9553 10.0055C19.9553 8.61097 20.5087 7.27173 21.4937 6.28668C22.4788 5.30162 23.818 4.74822 25.2126 4.74822C26.6072 4.74822 27.9464 5.30162 28.9315 6.28668C29.9165 7.27173 30.4699 8.61097 30.4699 10.0055C30.4699 11.4001 29.9165 12.7394 28.9315 13.7244C27.9464 14.7095 26.6072 15.2629 25.2126 15.2629ZM24.9138 1.23964L25.6885 2.39072L24.9027 3.575C23.4306 3.65248 22.0361 4.22802 20.9403 5.20201C19.8446 6.18706 19.1141 7.50416 18.8817 8.95408L17.9409 8.33427C17.7417 8.20145 17.4871 8.20145 17.2879 8.33427L16.5131 8.85447C16.7013 7.41562 17.2325 6.05425 18.0848 4.88103C19.6786 2.67849 22.2021 1.33925 24.9138 1.23964ZM16.8894 4.57113C16.3914 5.33482 15.9929 6.176 15.7162 7.05037C14.6647 5.02492 12.6171 3.69675 10.326 3.58607L9.54022 2.40179L10.3039 1.25071C12.8828 1.33925 15.2845 2.55674 16.8783 4.58219L16.8894 4.57113ZM10.0051 15.2629C8.6105 15.2629 7.27126 14.7095 6.2862 13.7244C5.30115 12.7394 4.74774 11.4001 4.74774 10.0055C4.74774 8.61097 5.30115 7.27173 6.2862 6.28668C7.27126 5.30162 8.6105 4.74822 10.0051 4.74822C11.3997 4.74822 12.7389 5.30162 13.7239 6.28668C14.709 7.27173 15.2624 8.61097 15.2624 10.0055C15.2624 11.4001 14.709 12.7394 13.7239 13.7244C12.7389 14.7095 11.3997 15.2629 10.0051 15.2629ZM8.854 1.30605L8.34486 2.06974C8.21205 2.26897 8.21205 2.52353 8.34486 2.72276L8.96468 3.66354C7.51476 3.89597 6.18659 4.62647 5.2126 5.72221C4.22754 6.81794 3.66307 8.21252 3.58559 9.68457L2.40131 10.4704L1.25023 9.69564C1.32771 7.62591 2.12461 5.64473 3.51919 4.10627C4.91376 2.56781 6.8064 1.58275 8.854 1.30605ZM1.30557 11.1456L2.06927 11.6547C2.26849 11.7875 2.52306 11.7875 2.72229 11.6547L3.66307 11.0349C3.8955 12.4848 4.62599 13.813 5.72173 14.787C6.81747 15.772 8.21205 16.3476 9.6841 16.414L10.481 17.5982L9.70624 18.7493C7.63651 18.6718 5.65532 17.8749 4.11686 16.4804C2.5784 15.0858 1.59334 13.1932 1.31664 11.1456H1.30557ZM11.1451 18.694L11.6542 17.9303C11.787 17.7311 11.787 17.4765 11.6542 17.2773L11.0344 16.3365C12.4843 16.1041 13.8125 15.3736 14.7865 14.2778C15.7715 13.1821 16.3471 11.7875 16.4135 10.3155L17.5978 9.51855L18.7599 10.2933C18.7046 12.0199 18.1401 13.7023 17.1218 15.1079C15.7051 17.067 13.5358 18.3619 11.134 18.6829L11.1451 18.694ZM18.3283 15.4289C18.8263 14.6652 19.2248 13.824 19.5015 12.9497C20.4423 14.7537 22.1689 16.0155 24.1833 16.3476L23.5635 17.2883C23.4306 17.4876 23.4306 17.7421 23.5635 17.9414L24.0726 18.705C21.8147 18.3951 19.756 17.233 18.3393 15.44L18.3283 15.4289ZM25.5114 18.7604L24.7367 17.5982L25.5225 16.414C26.9946 16.3365 28.3891 15.7609 29.4849 14.787C30.5806 13.8019 31.3111 12.4848 31.5435 11.0349L32.4843 11.6547C32.6836 11.7875 32.9381 11.7875 33.1373 11.6547L33.901 11.1456C33.6243 13.2042 32.6393 15.0969 31.1008 16.4804C29.5624 17.8749 27.5812 18.6829 25.5114 18.7493V18.7604Z" fill="#343D46" stroke="white" stroke-width="0.1" stroke-miterlimit="10"/>
</g>
<defs>
<clipPath id="clip0_128_78">
<rect width="35.2075" height="20" fill="white"/>
</clipPath>
</defs>
</svg>
