<svg width="24" height="25" viewBox="0 0 24 25" fill="none" xmlns="http://www.w3.org/2000/svg">
<g clip-path="url(#clip0_128_428)">
<path d="M22.8 0H1.2C0.54 0 0 0.5625 0 1.25V18.75C0 19.4375 0.54 20 1.2 20H8.69L7.69 24.1667H6V25H18V24.1667H16.31L15.31 20H22.8C23.46 20 24 19.4375 24 18.75V1.25C24 0.5625 23.46 0 22.8 0ZM1.2 0.833333H22.8C23.02 0.833333 23.2 1.02083 23.2 1.25V1.66667H3.2V2.5H23.2V16.6667H0.8V1.25C0.8 1.02083 0.98 0.833333 1.2 0.833333ZM15.49 24.1667H8.51L9.51 20H14.49L15.5 24.1667H15.49ZM22.8 19.1667H1.2C0.98 19.1667 0.8 18.9792 0.8 18.75V17.5H23.2V18.75C23.2 18.9792 23.02 19.1667 22.8 19.1667Z" fill="#343D46"/>
<path d="M1.6001 1.6665H2.4001V2.49984H1.6001V1.6665Z" fill="#343D46"/>
<path d="M5.2002 3.3335H6.0002V15.8335H5.2002V3.3335Z" fill="#343D46"/>
<path d="M8.1198 6.54183L8.6798 5.9585L7.7598 5.00016L8.6798 4.04183L8.1198 3.4585L6.9198 4.7085C6.7598 4.87516 6.7598 5.13558 6.9198 5.29183L8.1198 6.54183Z" fill="#343D46"/>
<path d="M9.22998 6.09359L10.03 4.01025L10.77 4.32275L9.96998 6.40609L9.22998 6.09359Z" fill="#343D46"/>
<path d="M11.8798 6.54183L13.0798 5.29183C13.2398 5.12516 13.2398 4.86475 13.0798 4.7085L11.8798 3.4585L11.3198 4.04183L12.2398 5.00016L11.3198 5.9585L11.8798 6.55225V6.54183Z" fill="#343D46"/>
<path d="M14 4.5835H22.4V5.41683H14V4.5835Z" fill="#343D46"/>
<path d="M14.9201 12.6252L13.7201 13.8752C13.5601 14.0418 13.5601 14.3022 13.7201 14.4585L14.9201 15.7085L15.4801 15.1252L14.5601 14.1668L15.4801 13.2085L14.9201 12.6147V12.6252Z" fill="#343D46"/>
<path d="M16.0298 15.2606L16.8298 13.1772L17.5698 13.4897L16.7698 15.5731L16.0298 15.2606Z" fill="#343D46"/>
<path d="M18.6899 12.625L18.1299 13.2083L19.0499 14.1667L18.1299 15.125L18.6899 15.7083L19.8899 14.4583C20.0499 14.2917 20.0499 14.0312 19.8899 13.875L18.6899 12.625Z" fill="#343D46"/>
<path d="M8.3999 12.9165H12.7999V13.7498H8.3999V12.9165Z" fill="#343D46"/>
<path d="M13.6001 6.25H20.4001V7.08333H13.6001V6.25Z" fill="#343D46"/>
<path d="M6.7998 7.9165H16.7998V8.74984H6.7998V7.9165Z" fill="#343D46"/>
<path d="M7.6001 9.5835H21.2001V10.4168H7.6001V9.5835Z" fill="#343D46"/>
<path d="M6.7998 11.25H12.3998V12.0833H6.7998V11.25Z" fill="#343D46"/>
<path d="M7.6001 14.5835H12.0001V15.4168H7.6001V14.5835Z" fill="#343D46"/>
<path d="M1.6001 3.75H3.6001V4.58333H1.6001V3.75Z" fill="#343D46"/>
<path d="M1.6001 5.8335H3.6001V6.66683H1.6001V5.8335Z" fill="#343D46"/>
<path d="M1.6001 7.9165H3.6001V8.74984H1.6001V7.9165Z" fill="#343D46"/>
<path d="M2.3999 10H4.3999V10.8333H2.3999V10Z" fill="#343D46"/>
<path d="M2.3999 12.0835H4.3999V12.9168H2.3999V12.0835Z" fill="#343D46"/>
<path d="M2.3999 14.1665H4.3999V14.9998H2.3999V14.1665Z" fill="#343D46"/>
</g>
<defs>
<clipPath id="clip0_128_428">
<rect width="24" height="25" fill="white"/>
</clipPath>
</defs>
</svg>
