<svg width="26" height="26" viewBox="0 0 26 26" fill="none" xmlns="http://www.w3.org/2000/svg">
<g clip-path="url(#clip0_139_756)">
<path fill-rule="evenodd" clip-rule="evenodd" d="M13.0001 0C11.2201 0 9.76012 1.44 9.72012 3.22C8.85012 3.51 8.02012 3.92 7.27012 4.42C7.20012 4.46 7.15012 4.52 7.10012 4.58C7.06012 4.64 7.02012 4.72 7.01012 4.79C6.99012 4.87 6.99012 4.95 7.01012 5.02C7.02012 5.1 7.05012 5.17 7.10012 5.24C7.14012 5.31 7.20012 5.36 7.26012 5.4C7.33012 5.44 7.40012 5.47 7.48012 5.49C7.56012 5.5 7.64012 5.5 7.71012 5.49C7.78012 5.48 7.86012 5.44 7.92012 5.4C8.54012 4.99 9.20012 4.65 9.91012 4.4C10.3701 5.65 11.5801 6.55 12.9901 6.55C14.4001 6.55 15.6101 5.65 16.0701 4.4C16.7801 4.65 17.4401 4.99 18.0601 5.4C18.1201 5.44 18.2001 5.48 18.2701 5.49C18.3501 5.51 18.4301 5.51 18.5001 5.49C18.5701 5.47 18.6501 5.45 18.7201 5.4C18.7901 5.36 18.8401 5.3 18.8801 5.24C18.9201 5.18 18.9501 5.1 18.9701 5.03C18.9901 4.95 18.9801 4.87 18.9701 4.8C18.9501 4.72 18.9201 4.65 18.8801 4.59C18.8401 4.53 18.7801 4.47 18.7101 4.43C17.9601 3.93 17.1401 3.52 16.2601 3.23C16.2301 1.45 14.7701 0.01 12.9901 0.01L13.0001 0ZM13.0001 1.18C14.1601 1.18 15.0901 2.11 15.0901 3.28C15.0901 4.45 14.1601 5.37 13.0001 5.37C11.8401 5.37 10.9001 4.44 10.9001 3.28C10.9001 2.12 11.8301 1.18 13.0001 1.18Z" fill="#343D46"/>
<path fill-rule="evenodd" clip-rule="evenodd" d="M4.89977 7.00977C4.79977 7.00977 4.70977 7.03977 4.62977 7.07977C4.54977 7.12977 4.46977 7.18977 4.41977 7.26977C3.91977 8.01977 3.50977 8.83977 3.21977 9.70977C1.43977 9.73977 0.00976562 11.2098 0.00976562 12.9898C0.00976562 14.7698 1.44977 16.2298 3.21977 16.2598C3.50977 17.1398 3.91977 17.9598 4.41977 18.7198C4.45977 18.7898 4.51977 18.8398 4.57977 18.8898C4.63977 18.9298 4.71977 18.9598 4.78977 18.9798C4.86977 18.9998 4.94977 18.9998 5.01977 18.9798C5.09977 18.9598 5.16977 18.9298 5.22977 18.8898C5.28977 18.8498 5.34977 18.7898 5.38977 18.7298C5.42977 18.6698 5.45977 18.5898 5.47977 18.5098C5.48977 18.4298 5.48977 18.3498 5.47977 18.2798C5.45977 18.1998 5.42977 18.1298 5.38977 18.0698C4.97977 17.4498 4.63977 16.7898 4.38977 16.0798C5.64977 15.6198 6.54977 14.4098 6.54977 12.9998C6.54977 11.5898 5.64977 10.3798 4.38977 9.91977C4.63977 9.20977 4.97977 8.54977 5.38977 7.93977C5.44977 7.84977 5.48977 7.73977 5.48977 7.63977C5.48977 7.52977 5.46977 7.41977 5.41977 7.32977C5.36977 7.22977 5.28977 7.14977 5.19977 7.09977C5.10977 7.04977 4.99977 7.01977 4.88977 7.01977L4.89977 7.00977ZM3.27977 10.8998C4.43977 10.8998 5.36977 11.8298 5.36977 12.9998C5.36977 14.1698 4.43977 15.0898 3.27977 15.0898C2.11977 15.0898 1.17977 14.1598 1.17977 12.9998C1.17977 11.8398 2.10977 10.8998 3.27977 10.8998Z" fill="#343D46"/>
<path fill-rule="evenodd" clip-rule="evenodd" d="M21.0899 7.01C20.9799 7.01 20.8799 7.04 20.7899 7.1C20.6999 7.16 20.6199 7.24 20.5699 7.33C20.5199 7.42 20.4999 7.53 20.4999 7.64C20.4999 7.75 20.5399 7.85 20.5999 7.94C21.0099 8.55 21.3499 9.22 21.5999 9.92C20.3499 10.38 19.4399 11.59 19.4399 13C19.4399 14.41 20.3399 15.62 21.5999 16.08C21.3499 16.79 21.0099 17.46 20.5999 18.07C20.5599 18.13 20.5199 18.21 20.5099 18.28C20.4899 18.36 20.4899 18.44 20.5099 18.51C20.5199 18.59 20.5499 18.66 20.5999 18.73C20.6499 18.8 20.6999 18.85 20.7599 18.89C20.8199 18.93 20.8999 18.96 20.9799 18.98C21.0599 19 21.1399 18.99 21.2099 18.98C21.2899 18.96 21.3599 18.93 21.4199 18.89C21.4799 18.85 21.5399 18.79 21.5799 18.72C22.0799 17.96 22.4899 17.14 22.7799 16.27C24.5499 16.23 25.9899 14.77 25.9899 12.99C25.9899 11.21 24.5499 9.75 22.7799 9.71C22.4899 8.84 22.0799 8.02 21.5799 7.27C21.5299 7.19 21.4499 7.12 21.3699 7.07C21.2799 7.02 21.1799 7 21.0899 7V7.01ZM22.7199 10.9C23.8799 10.9 24.8099 11.83 24.8099 13C24.8099 14.17 23.8799 15.09 22.7199 15.09C22.6499 15.09 22.5799 15.09 22.5199 15.09C22.4699 15.07 22.4099 15.07 22.3499 15.07C21.3699 14.9 20.6199 14.05 20.6199 13.01C20.6199 11.85 21.5499 10.91 22.7099 10.91L22.7199 10.9Z" fill="#343D46"/>
<path fill-rule="evenodd" clip-rule="evenodd" d="M13 19.4499C11.59 19.4499 10.37 20.3499 9.91996 21.6099C9.20996 21.3599 8.54996 21.0199 7.92996 20.6099C7.86996 20.5699 7.78996 20.5299 7.71996 20.5199C7.63996 20.4999 7.55996 20.4999 7.48996 20.5199C7.40996 20.5299 7.33996 20.5699 7.27996 20.6099C7.21996 20.6499 7.15996 20.7099 7.11996 20.7699C7.07996 20.8299 7.04996 20.9099 7.02996 20.9799C7.01996 21.0599 7.01996 21.1399 7.02996 21.2099C7.04996 21.2899 7.07996 21.3599 7.11996 21.4199C7.15996 21.4799 7.21996 21.5399 7.28996 21.5799C8.03996 22.0799 8.85996 22.4899 9.73996 22.7799C9.77996 24.5499 11.24 25.9799 13.02 25.9799C14.8 25.9799 16.26 24.5399 16.29 22.7799C17.16 22.4899 17.99 22.0799 18.74 21.5799C18.81 21.5399 18.86 21.4799 18.91 21.4199C18.95 21.3599 18.99 21.2799 19 21.2099C19.02 21.1299 19.02 21.0499 19 20.9799C18.99 20.8999 18.95 20.8299 18.91 20.7599C18.87 20.6999 18.81 20.6399 18.75 20.5999C18.68 20.5599 18.61 20.5299 18.53 20.5099C18.45 20.4899 18.37 20.4999 18.3 20.5099C18.22 20.5299 18.15 20.5599 18.09 20.5999C17.48 21.0099 16.81 21.3499 16.1 21.5999C15.64 20.3399 14.43 19.4399 13.02 19.4399L13 19.4499ZM13 20.6299C14.16 20.6299 15.09 21.5599 15.09 22.7199C15.09 23.8799 14.16 24.8099 13 24.8099C11.84 24.8099 10.9 23.8799 10.9 22.7199C10.9 22.6299 10.9 22.5299 10.92 22.4399V22.4199C10.92 22.4199 10.92 22.4099 10.92 22.3999C11.07 21.3899 11.93 20.6199 12.99 20.6199L13 20.6299Z" fill="#343D46"/>
</g>
<defs>
<clipPath id="clip0_139_756">
<rect width="26" height="26" fill="white"/>
</clipPath>
</defs>
</svg>
