<svg width="25" height="25" viewBox="0 0 25 25" fill="none" xmlns="http://www.w3.org/2000/svg">
<g clip-path="url(#clip0_139_177)">
<path d="M24.4405 23.3298H4.93048C4.76048 23.3298 4.60048 23.2498 4.49048 23.1098C4.38048 22.9698 4.35048 22.7998 4.39048 22.6298C4.42048 22.4898 4.44048 22.3498 4.44048 22.2098C4.44048 21.2898 3.69048 20.5398 2.77048 20.5398C2.63048 20.5398 2.49048 20.5598 2.35048 20.5898C2.18048 20.6298 2.01048 20.5898 1.87048 20.4898C1.73048 20.3798 1.65048 20.2198 1.65048 20.0498V1.58977L0.850477 2.12977C0.590477 2.29977 0.250477 2.22977 0.0804772 1.97977C-0.0895228 1.71977 -0.0195228 1.37977 0.230477 1.20977L1.91048 0.0897734C2.08048 -0.0202266 2.30048 -0.0302266 2.48048 0.0597734C2.66048 0.159773 2.77048 0.339773 2.77048 0.549773V19.4398C4.30048 19.4398 5.55048 20.6898 5.55048 22.2198H23.4005L22.8605 21.4198C22.6905 21.1598 22.7605 20.8198 23.0105 20.6498C23.2705 20.4798 23.6105 20.5498 23.7805 20.7998L24.8905 22.4698C25.0005 22.6398 25.0105 22.8598 24.9205 23.0398C24.8205 23.2198 24.6405 23.3298 24.4305 23.3298H24.4405Z" fill="#343D46"/>
<path d="M2.78 24.9999C1.25 24.9999 0 23.7499 0 22.2199C0 20.9499 0.86 19.8499 2.08 19.5299C2.31 19.4699 2.54 19.4399 2.77 19.4399C4.3 19.4399 5.55 20.6899 5.55 22.2199C5.55 22.4499 5.52 22.6899 5.46 22.9099C5.14 24.1399 4.04 24.9899 2.77 24.9899L2.78 24.9999ZM2.78 20.5599C2.64 20.5599 2.5 20.5799 2.36 20.6099C1.62 20.7999 1.11 21.4599 1.11 22.2199C1.11 23.1399 1.86 23.8899 2.78 23.8899C3.54 23.8899 4.2 23.3799 4.39 22.6399C4.42 22.4999 4.44 22.3599 4.44 22.2199C4.44 21.2999 3.69 20.5499 2.77 20.5499L2.78 20.5599Z" fill="#343D46"/>
<path d="M10.0002 23.3298C9.69016 23.3298 9.44016 23.0798 9.44016 22.7698V14.4398H2.22016C1.91016 14.4398 1.66016 14.1898 1.66016 13.8798C1.66016 13.5698 1.91016 13.3198 2.22016 13.3198H10.0002C10.3102 13.3198 10.5602 13.5698 10.5602 13.8798V22.7698C10.5602 23.0798 10.3102 23.3298 10.0002 23.3298Z" fill="#343D46"/>
<path d="M15.0002 23.3298C14.6902 23.3298 14.4402 23.0798 14.4402 22.7698V9.43982H2.22016C1.91016 9.43982 1.66016 9.18982 1.66016 8.87982C1.66016 8.56982 1.91016 8.31982 2.22016 8.31982H15.0002C15.3102 8.31982 15.5602 8.56982 15.5602 8.87982V22.7698C15.5602 23.0798 15.3102 23.3298 15.0002 23.3298Z" fill="#343D46"/>
<path d="M20.0002 23.3298C19.6902 23.3298 19.4402 23.0798 19.4402 22.7698V4.43982H2.22016C1.91016 4.43982 1.66016 4.18982 1.66016 3.87982C1.66016 3.56982 1.91016 3.31982 2.22016 3.31982H20.0002C20.3102 3.31982 20.5602 3.56982 20.5602 3.87982V22.7698C20.5602 23.0798 20.3102 23.3298 20.0002 23.3298Z" fill="#343D46"/>
<path d="M3.88987 2.22013C3.77987 2.22013 3.67987 2.19013 3.57987 2.13013L1.90987 1.02013C1.64987 0.850133 1.58987 0.500133 1.75987 0.250133C1.92987 0.000132948 2.26987 -0.0798671 2.52987 0.0901329L4.19987 1.20013C4.45987 1.37013 4.51987 1.72013 4.34987 1.97013C4.23987 2.13013 4.06987 2.22013 3.88987 2.22013Z" fill="#343D46"/>
<path d="M23.3302 24.9999C23.2202 24.9999 23.1202 24.9699 23.0202 24.9099C22.7602 24.7399 22.7002 24.3899 22.8702 24.1399L23.9802 22.4699C24.1502 22.2099 24.5002 22.1499 24.7502 22.3199C25.0102 22.4899 25.0702 22.8399 24.9002 23.0899L23.7902 24.7599C23.6802 24.9199 23.5102 25.0099 23.3302 25.0099V24.9999Z" fill="#343D46"/>
<path d="M11.6699 11.1099H12.7799V12.2199H11.6699V11.1099Z" fill="#343D46"/>
<path d="M6.66992 16.1099H7.77992V17.2199H6.66992V16.1099Z" fill="#343D46"/>
<path d="M16.6699 6.10986H17.7799V7.21986H16.6699V6.10986Z" fill="#343D46"/>
</g>
<defs>
<clipPath id="clip0_139_177">
<rect width="25" height="25" fill="white"/>
</clipPath>
</defs>
</svg>
