<svg width="13" height="24" viewBox="0 0 13 24" fill="none" xmlns="http://www.w3.org/2000/svg">
<g clip-path="url(#clip0_139_1037)">
<path d="M6.5 0.740045C8.36 -0.219955 10.56 -0.119955 12.55 0.320045V4.03005C11.27 4.06005 9.56 3.78005 8.82 5.11004C8.32 6.30005 8.62 7.63004 8.54 8.88004C9.87 8.88004 11.21 8.88004 12.54 8.88004C12.36 10.36 12.11 11.83 11.91 13.31C10.79 13.31 9.67 13.31 8.55 13.31C8.58 16.74 8.58 20.16 8.59 23.59C6.99 23.59 5.4 23.59 3.81 23.59C3.82 20.16 3.85 16.74 3.87 13.31H0C0.03 11.83 0.05 10.36 0.09 8.88004C1.35 8.89005 2.61 8.88004 3.88 8.88004C3.89 7.52004 3.86 6.15004 3.9 4.79004C3.94 3.09004 5.05 1.55004 6.51 0.740045H6.5Z" fill="#343D46"/>
</g>
<defs>
<clipPath id="clip0_139_1037">
<rect width="12.55" height="23.58" fill="white"/>
</clipPath>
</defs>
</svg>
