<svg width="24" height="27" viewBox="0 0 24 27" fill="none" xmlns="http://www.w3.org/2000/svg">
<g clip-path="url(#clip0_139_763)">
<path d="M20.2002 7.20047C20.8002 6.33047 21.1102 5.32047 21.1002 4.29047V2.64047H21.8102C22.2302 2.64047 22.6202 2.43047 22.8302 2.10047C23.0402 1.77047 23.0402 1.36047 22.8302 1.02047C22.6202 0.690469 22.2302 0.480469 21.8102 0.480469H1.65016C1.23016 0.480469 0.840156 0.690469 0.630156 1.02047C0.420156 1.35047 0.420156 1.77047 0.630156 2.10047C0.840156 2.43047 1.23016 2.64047 1.65016 2.64047H2.36016V4.29047C2.36016 5.32047 2.66016 6.33047 3.26016 7.20047L6.00016 11.1605C6.48016 11.8505 6.74016 12.6605 6.74016 13.4805C6.74016 14.3005 6.48016 15.1105 6.00016 15.8005L3.26016 19.7605C2.66016 20.6305 2.35016 21.6405 2.36016 22.6705V24.3205H1.65016C1.23016 24.3205 0.840156 24.5305 0.630156 24.8605C0.420156 25.1905 0.420156 25.6005 0.630156 25.9405C0.840156 26.2705 1.23016 26.4805 1.65016 26.4805H21.8002C22.2202 26.4805 22.6102 26.2705 22.8202 25.9405C23.0302 25.6105 23.0302 25.2005 22.8202 24.8605C22.6102 24.5205 22.2202 24.3205 21.8002 24.3205H21.0902V22.6305C21.0902 21.6005 20.7902 20.5905 20.1902 19.7205L17.4502 15.7605C16.9702 15.0705 16.7102 14.2605 16.7102 13.4405C16.7102 12.6205 16.9702 11.8105 17.4502 11.1205L20.1902 7.20047H20.2002ZM15.4602 16.9405L18.2002 20.9005C18.5602 21.4205 18.7502 22.0105 18.7502 22.6305V24.2805H4.71016V22.6305C4.71016 22.0205 4.90016 21.4205 5.26016 20.9005L8.00016 16.9405C8.71016 15.9005 9.09016 14.7005 9.09016 13.4705C9.09016 12.2405 8.71016 11.0405 8.00016 10.0005L5.26016 6.04047C4.90016 5.52047 4.71016 4.93047 4.71016 4.31047V2.62047H18.7502V4.27047C18.7502 4.88047 18.5602 5.48047 18.2002 6.00047L15.4602 9.96047C14.7402 11.0005 14.3502 12.2105 14.3502 13.4505C14.3502 14.6905 14.7302 15.8905 15.4602 16.9405Z" fill="#343D46" stroke="white" stroke-width="0.96" stroke-miterlimit="10"/>
</g>
<defs>
<clipPath id="clip0_139_763">
<rect width="23.46" height="26.95" fill="white"/>
</clipPath>
</defs>
</svg>
