<svg width="26" height="26" viewBox="0 0 26 26" fill="none" xmlns="http://www.w3.org/2000/svg">
<g clip-path="url(#clip0_139_767)">
<path d="M10.5842 0C10.2808 0.0325 10.0425 0.281667 10.0533 0.595833V3.13083C9.34917 3.35833 8.69917 3.66167 8.0925 4.00833L6.32667 2.2425C6.09917 2.015 5.73083 2.015 5.4925 2.2425L2.2425 5.4925C2.13417 5.60083 2.06917 5.7525 2.06917 5.915C2.06917 6.0775 2.13417 6.22917 2.2425 6.3375L3.9975 8.0925C3.65083 8.69917 3.35833 9.36 3.13083 10.0642H0.595833C0.270833 10.0642 0 10.3242 0 10.66V15.3833C0 15.7083 0.26 15.9792 0.595833 15.9792H3.13083C3.35833 16.6725 3.65083 17.3333 3.9975 17.94L2.2425 19.695C2.13417 19.8033 2.06917 19.955 2.06917 20.1175C2.06917 20.28 2.13417 20.4317 2.2425 20.54L5.4925 23.79C5.72 24.0175 6.08833 24.0175 6.32667 23.79L8.0925 22.0242C8.69917 22.3708 9.34917 22.6633 10.0533 22.8908V25.4367C10.0533 25.7617 10.3133 26.0325 10.6492 26.0325H15.3725C15.6975 26.0325 15.9683 25.7725 15.9683 25.4367V22.8908C16.6617 22.6633 17.3225 22.36 17.9292 22.0242L19.695 23.79C19.9225 24.0175 20.2908 24.0175 20.5292 23.79L23.7792 20.54C23.8875 20.4317 23.9525 20.28 23.9525 20.1175C23.9525 19.955 23.8875 19.8033 23.7792 19.695L22.0242 17.94C22.3708 17.3333 22.6633 16.6833 22.8908 15.9792H25.4258C25.7508 15.9792 26.0217 15.7192 26.0217 15.3833V10.66C26.0217 10.335 25.7617 10.0642 25.4258 10.0642H22.8908C22.6633 9.36 22.3708 8.71 22.0242 8.0925L23.7792 6.3375C23.8875 6.22917 23.9525 6.0775 23.9525 5.915C23.9525 5.7525 23.8875 5.60083 23.7792 5.4925L20.5292 2.2425C20.3017 2.015 19.9333 2.015 19.695 2.2425L17.9292 4.00833C17.3225 3.66167 16.6725 3.35833 15.9683 3.13083V0.595833C15.9575 0.26 15.6867 0 15.3617 0H10.6383C10.6383 0 10.6058 0 10.5842 0ZM11.2342 1.18083H14.7767V3.53167C14.7767 3.8025 14.9608 4.04083 15.2317 4.10583C16.0875 4.3225 16.9325 4.745 17.7233 5.22167C17.9508 5.3625 18.2542 5.33 18.4383 5.135L20.0958 3.4775L22.5117 5.89333L20.8542 7.54C20.6592 7.735 20.6158 8.03833 20.7567 8.26583C21.2333 9.05667 21.6558 9.90167 21.8725 10.7575C21.9375 11.0175 22.1758 11.2125 22.4467 11.2125H24.8083V14.755H22.4467C22.1758 14.755 21.9375 14.9392 21.8725 15.1992C21.6558 16.055 21.2333 16.9108 20.7567 17.7017C20.6158 17.94 20.6592 18.2325 20.8542 18.4167L22.5117 20.0742L20.0958 22.4792L18.4383 20.8217C18.2433 20.6375 17.9508 20.5942 17.7233 20.735C16.9325 21.2117 16.0875 21.6342 15.2317 21.84C14.9608 21.905 14.7767 22.1433 14.7767 22.425V24.7867H11.2342V22.425C11.2342 22.1542 11.05 21.905 10.7792 21.84C9.92333 21.6233 9.07833 21.2117 8.2875 20.735C8.06 20.5942 7.75667 20.6267 7.5725 20.8217L5.915 22.4792L3.49917 20.0742L5.15667 18.4167C5.35167 18.2217 5.38417 17.9292 5.25417 17.7017C4.7775 16.9108 4.355 16.055 4.13833 15.1992C4.07333 14.9392 3.835 14.755 3.56417 14.755H1.18083V11.2125H3.5425C3.81333 11.2125 4.05167 11.0283 4.11667 10.7575C4.33333 9.90167 4.75583 9.05667 5.2325 8.26583C5.37333 8.0275 5.34083 7.72417 5.135 7.54L3.4775 5.89333L5.89333 3.4775L7.55083 5.135C7.74583 5.31917 8.03833 5.3625 8.26583 5.22167C9.05667 4.745 9.90167 4.3225 10.7575 4.10583C11.0175 4.04083 11.2125 3.8025 11.2125 3.53167V1.18083H11.2342ZM13.0108 7.68083C11.3858 7.68083 10.0533 9.01333 10.0533 10.6383C10.0533 11.2233 10.2917 11.7108 10.5842 12.1442C9.685 12.5775 9.035 13.26 8.63417 14.0942C8.125 15.145 7.98417 16.3908 7.98417 17.7342C7.98417 18.0592 8.24417 18.33 8.58 18.33H17.4417C17.7667 18.33 18.0375 18.07 18.0375 17.7342C18.0375 16.4017 17.8858 15.145 17.3767 14.0942C16.9758 13.2708 16.3258 12.5775 15.4267 12.1442C15.7192 11.7108 15.9575 11.2233 15.9575 10.6383C15.9575 9.01333 14.625 7.68083 13 7.68083H13.0108ZM13.0108 8.86167C13.9967 8.86167 14.7875 9.6525 14.7875 10.6383C14.7875 11.0283 14.43 11.635 14.0725 11.9817C13.9208 12.1333 13.8667 12.35 13.9208 12.545C13.975 12.7508 14.1267 12.9133 14.3325 12.9675C15.3725 13.26 15.9358 13.7908 16.315 14.5925C16.6292 15.2533 16.77 16.1417 16.8133 17.1275H9.20833C9.25167 16.1417 9.3925 15.2533 9.70667 14.5925C10.0858 13.7908 10.66 13.26 11.6892 12.9675C11.895 12.9133 12.0467 12.7508 12.1008 12.545C12.155 12.3392 12.1008 12.1225 11.9492 11.9817C11.5917 11.635 11.2342 11.0175 11.2342 10.6383C11.2342 9.6525 12.025 8.86167 13.0108 8.86167Z" fill="#343D46"/>
</g>
<defs>
<clipPath id="clip0_139_767">
<rect width="26" height="26" fill="white"/>
</clipPath>
</defs>
</svg>
