<svg width="26" height="26" viewBox="0 0 26 26" fill="none" xmlns="http://www.w3.org/2000/svg">
<g clip-path="url(#clip0_139_196)">
<path d="M20.8202 15.7302H18.3102C17.9002 14.2402 16.9102 12.9702 15.5602 12.2102C15.9502 11.2502 15.8302 10.1502 15.2502 9.29016C14.6702 8.43016 13.7002 7.91016 12.6602 7.91016C11.6202 7.91016 10.6502 8.43016 10.0702 9.29016C9.49022 10.1502 9.37023 11.2402 9.76023 12.2102C8.41023 12.9702 7.43023 14.2402 7.01023 15.7302H4.50023C4.04023 15.7302 3.61023 15.9402 3.33023 16.3102C3.05023 16.6802 2.96023 17.1502 3.08023 17.5902L4.86023 24.0402C4.95023 24.3502 5.13023 24.6202 5.39023 24.8102C5.64023 25.0002 5.96023 25.1102 6.28023 25.1102H19.0402C19.3602 25.1102 19.6702 25.0002 19.9302 24.8102C20.1802 24.6202 20.3702 24.3402 20.4602 24.0402L22.2402 17.5902C22.3602 17.1502 22.2702 16.6802 21.9902 16.3102C21.7102 15.9502 21.2802 15.7302 20.8202 15.7302ZM12.6602 8.50016C13.3302 8.50016 13.9802 8.77016 14.4602 9.24016C14.9402 9.72016 15.2002 10.3602 15.2002 11.0402C15.2002 11.7202 14.9302 12.3602 14.4602 12.8402C13.9802 13.3202 13.3402 13.5802 12.6602 13.5802C11.9802 13.5802 11.3402 13.3102 10.8602 12.8402C10.3802 12.3602 10.1202 11.7202 10.1202 11.0402C10.1202 10.3702 10.3902 9.72016 10.8602 9.25016C11.3402 8.77016 11.9802 8.51016 12.6502 8.51016L12.6602 8.50016ZM10.0302 12.7202C10.6002 13.6202 11.5902 14.1602 12.6602 14.1602C13.7302 14.1602 14.7202 13.6202 15.2902 12.7202C16.4402 13.3802 17.3002 14.4502 17.7002 15.7202H7.62022C8.01022 14.4502 8.87022 13.3802 10.0302 12.7202ZM21.6702 17.4202L19.8902 23.8702C19.8402 24.0602 19.7302 24.2202 19.5702 24.3302C19.4202 24.4502 19.2302 24.5102 19.0402 24.5102H6.28023C6.09023 24.5102 5.90023 24.4502 5.75023 24.3302C5.60023 24.2102 5.49023 24.0502 5.43023 23.8702L3.65023 17.4202C3.58023 17.1602 3.63023 16.8702 3.80023 16.6502C3.97023 16.4302 4.22023 16.3002 4.50023 16.3002H20.8202C21.0902 16.3002 21.3502 16.4302 21.5202 16.6502C21.6902 16.8702 21.7402 17.1502 21.6702 17.4202Z" fill="#343D46" stroke="#343D46" stroke-width="0.31" stroke-miterlimit="10"/>
<path d="M2.99016 9.68002C3.74016 9.68002 4.46016 9.38002 4.99016 8.85002C5.52016 8.32002 5.82016 7.60002 5.82016 6.85002C5.82016 6.10002 5.52016 5.38002 4.99016 4.85002C4.46016 4.32002 3.74016 4.02002 2.99016 4.02002C2.24016 4.02002 1.52016 4.32002 0.990156 4.85002C0.460156 5.38002 0.160156 6.10002 0.160156 6.85002C0.160156 7.60002 0.460156 8.32002 0.990156 8.85002C1.52016 9.38002 2.24016 9.68002 2.99016 9.68002ZM2.99016 4.60002C3.59016 4.60002 4.16016 4.84002 4.58016 5.26002C5.00016 5.68002 5.24016 6.25002 5.24016 6.85002C5.24016 7.45002 5.00016 8.02002 4.58016 8.44002C4.16016 8.86002 3.59016 9.10002 2.99016 9.10002C2.39016 9.10002 1.82016 8.86002 1.40016 8.44002C0.980156 8.02002 0.740156 7.45002 0.740156 6.85002C0.740156 6.25002 0.980156 5.68002 1.40016 5.26002C1.82016 4.84002 2.39016 4.60002 2.99016 4.60002Z" fill="#343D46" stroke="#343D46" stroke-width="0.31" stroke-miterlimit="10"/>
<path d="M9.71961 5.33021C9.79961 5.46022 9.90961 5.58021 10.0396 5.65022C10.1696 5.73022 10.3296 5.77022 10.4796 5.77022H14.8296C15.1396 5.77022 15.4296 5.60021 15.5896 5.33021C15.7496 5.06021 15.7496 4.72021 15.5896 4.45021L13.4196 0.600215C13.3196 0.420215 13.1496 0.280215 12.9596 0.210215C12.7596 0.140215 12.5496 0.140215 12.3496 0.210215C12.1496 0.280215 11.9896 0.420215 11.8896 0.600215L9.71961 4.45021C9.63961 4.58021 9.59961 4.74021 9.59961 4.89021C9.59961 5.04022 9.63961 5.20021 9.71961 5.33021ZM10.2196 4.74021L12.3896 0.890215C12.4396 0.800215 12.5396 0.740215 12.6496 0.740215C12.7596 0.740215 12.8596 0.800215 12.9096 0.890215L15.0796 4.74021C15.1296 4.83021 15.1296 4.95021 15.0796 5.04022C15.0296 5.13022 14.9296 5.19022 14.8196 5.19022H10.4696C10.3596 5.19022 10.2696 5.13022 10.2096 5.04022C10.1596 4.95021 10.1596 4.84021 10.2096 4.74021H10.2196Z" fill="#343D46" stroke="#343D46" stroke-width="0.31" stroke-miterlimit="10"/>
<path d="M24.29 4.00977H20.36C20.13 4.00977 19.91 4.09977 19.75 4.25977C19.59 4.41977 19.5 4.63977 19.5 4.86977V8.79977C19.5 9.02977 19.59 9.24977 19.75 9.40977C19.91 9.56977 20.13 9.65977 20.36 9.65977H24.29C24.52 9.65977 24.74 9.56977 24.9 9.40977C25.06 9.24977 25.15 9.02977 25.15 8.79977V4.86977C25.15 4.63977 25.06 4.41977 24.9 4.25977C24.74 4.09977 24.52 4.00977 24.29 4.00977ZM24.57 8.80977C24.57 8.96977 24.44 9.08977 24.29 9.08977H20.36C20.2 9.08977 20.08 8.95977 20.08 8.80977V4.87977C20.08 4.71977 20.21 4.59977 20.36 4.59977H24.29C24.45 4.59977 24.57 4.72977 24.57 4.87977V8.80977Z" fill="#343D46" stroke="#343D46" stroke-width="0.31" stroke-miterlimit="10"/>
<path d="M9.61957 20.6199L10.5596 19.4499C10.7096 19.2599 10.7696 19.0299 10.7496 18.7899C10.7196 18.5499 10.6096 18.3399 10.4196 18.1899C10.2296 18.0499 9.98957 17.9799 9.75957 17.9999C9.51957 18.0299 9.30957 18.1399 9.14957 18.3199C8.80957 18.7599 7.75957 20.0599 7.75957 20.0599C7.62957 20.2199 7.55957 20.4199 7.55957 20.6199C7.55957 20.8199 7.62957 21.0199 7.75957 21.1799C7.75957 21.1799 8.80957 22.4699 9.13957 22.9099C9.28957 23.0899 9.50957 23.2099 9.74957 23.2399C9.98957 23.2699 10.2196 23.1999 10.4096 23.0599C10.5996 22.9099 10.7096 22.6899 10.7396 22.4599C10.7696 22.2199 10.6996 21.9899 10.5496 21.7999L9.60957 20.6299L9.61957 20.6199ZM10.0396 22.6099C9.89957 22.7099 9.70957 22.6899 9.59957 22.5599C9.25957 22.1199 8.21957 20.8199 8.21957 20.8199C8.12957 20.7099 8.12957 20.5399 8.21957 20.4299C8.21957 20.4299 9.26957 19.1299 9.60957 18.6899C9.71957 18.5599 9.90957 18.5399 10.0496 18.6399C10.1796 18.7499 10.2096 18.9499 10.0996 19.0799L9.01957 20.4399C8.92957 20.5499 8.92957 20.6999 9.01957 20.8099L10.0996 22.1699C10.2096 22.3099 10.1796 22.5099 10.0496 22.6199L10.0396 22.6099Z" fill="#343D46" stroke="#343D46" stroke-width="0.31" stroke-miterlimit="10"/>
<path d="M16.1603 18.3201C15.9603 18.0701 15.6403 17.9401 15.3203 17.9901C15.0003 18.0401 14.7303 18.2501 14.6103 18.5501C14.4903 18.8501 14.5403 19.1901 14.7403 19.4401C14.9803 19.7301 15.6803 20.6101 15.6803 20.6101L14.7403 21.7801C14.5903 21.9701 14.5303 22.2001 14.5503 22.4401C14.5803 22.6801 14.6903 22.8901 14.8803 23.0401C15.0703 23.1901 15.3103 23.2501 15.5403 23.2301C15.7803 23.2001 15.9903 23.0901 16.1503 22.9101C16.4903 22.4701 17.5403 21.1701 17.5403 21.1701C17.6703 21.0101 17.7403 20.8101 17.7403 20.6101C17.7403 20.4101 17.6703 20.2101 17.5403 20.0501C17.5403 20.0501 16.4903 18.7601 16.1603 18.3201ZM17.0903 20.8101C17.0903 20.8101 16.0403 22.1101 15.7003 22.5501C15.5903 22.6801 15.4003 22.7001 15.2603 22.5901C15.1303 22.4801 15.1003 22.2801 15.2103 22.1501L16.3003 20.7901C16.3903 20.6801 16.3903 20.5301 16.3003 20.4201C16.3003 20.4201 15.4903 19.3901 15.2103 19.0601C15.1603 18.9901 15.1403 18.9101 15.1503 18.8301C15.1603 18.7501 15.2003 18.6701 15.2703 18.6201C15.4103 18.5101 15.6003 18.5401 15.7103 18.6701C16.0503 19.1101 17.1003 20.4101 17.1003 20.4101C17.1903 20.5201 17.1903 20.6901 17.1003 20.8001L17.0903 20.8101Z" fill="#343D46" stroke="#343D46" stroke-width="0.31" stroke-miterlimit="10"/>
<path d="M13.2502 18.01C13.0202 17.95 12.7702 17.99 12.5702 18.11C12.3702 18.24 12.2202 18.44 12.1702 18.67C12.1702 18.67 11.5602 21.27 11.3802 22.14C11.1302 23.31 12.8502 23.71 13.1302 22.55C13.3402 21.68 13.9302 19.07 13.9302 19.07C13.9902 18.84 13.9402 18.59 13.8202 18.39C13.6902 18.19 13.4902 18.05 13.2502 18V18.01ZM13.3602 18.95C13.3602 18.95 12.7602 21.55 12.5602 22.42C12.5202 22.56 12.3902 22.67 12.2502 22.66C12.1602 22.66 12.0702 22.61 12.0102 22.53C11.9502 22.46 11.9302 22.36 11.9502 22.27C12.1802 21.41 12.7402 18.8 12.7402 18.8C12.7802 18.63 12.9502 18.53 13.1202 18.56C13.2902 18.6 13.4002 18.76 13.3602 18.93V18.95Z" fill="#343D46" stroke="#343D46" stroke-width="0.31" stroke-miterlimit="10"/>
</g>
<defs>
<clipPath id="clip0_139_196">
<rect width="25.31" height="25.26" fill="white"/>
</clipPath>
</defs>
</svg>
