<svg width="25" height="25" viewBox="0 0 25 25" fill="none" xmlns="http://www.w3.org/2000/svg">
<g clip-path="url(#clip0_139_174)">
<path d="M12.5 6.79004C9.35004 6.79004 6.79004 9.35004 6.79004 12.5C6.79004 15.65 9.35004 18.21 12.5 18.21C15.65 18.21 18.21 15.65 18.21 12.5C18.21 9.35004 15.65 6.79004 12.5 6.79004ZM12.5 16.8C10.13 16.8 8.20004 14.87 8.20004 12.5C8.20004 10.13 10.13 8.20004 12.5 8.20004C14.87 8.20004 16.8 10.13 16.8 12.5C16.8 14.87 14.87 16.8 12.5 16.8Z" fill="#343D46"/>
<path d="M24.29 11.79H23.19C22.84 6.45 18.55 2.16 13.21 1.81V0.71C13.21 0.32 12.89 0 12.5 0C12.11 0 11.79 0.32 11.79 0.71V1.81C6.45 2.16 2.16 6.45 1.81 11.79H0.71C0.32 11.79 0 12.11 0 12.5C0 12.89 0.32 13.21 0.71 13.21H1.81C2.16 18.55 6.45 22.84 11.79 23.19V24.29C11.79 24.68 12.11 25 12.5 25C12.89 25 13.21 24.68 13.21 24.29V23.19C18.55 22.84 22.84 18.55 23.19 13.21H24.29C24.68 13.21 25 12.89 25 12.5C25 12.11 24.68 11.79 24.29 11.79ZM12.52 21.79C12.52 21.79 12.51 21.79 12.5 21.79C12.49 21.79 12.49 21.79 12.48 21.79C7.37 21.78 3.22 17.62 3.21 12.51V12.47C3.21 7.36 7.38 3.2 12.5 3.19H12.53C17.65 3.19 21.81 7.36 21.82 12.47V12.51C21.8 17.62 17.65 21.78 12.54 21.79H12.52Z" fill="#343D46"/>
</g>
<defs>
<clipPath id="clip0_139_174">
<rect width="25" height="25" fill="white"/>
</clipPath>
</defs>
</svg>
