<svg width="25" height="25" viewBox="0 0 25 25" fill="none" xmlns="http://www.w3.org/2000/svg">
<g clip-path="url(#clip0_139_39)">
<path d="M23.78 20.1399H1.22C0.55 20.1399 0 19.5899 0 18.9199V6.34988C0 5.67988 0.55 5.12988 1.22 5.12988H3.7C3.94 5.12988 4.13 5.31988 4.13 5.55988C4.13 5.79988 3.94 5.98988 3.7 5.98988H1.22C1.02 5.98988 0.86 6.14988 0.86 6.34988V18.9199C0.86 19.1199 1.02 19.2799 1.22 19.2799H23.78C23.98 19.2799 24.14 19.1199 24.14 18.9199V6.34988C24.14 6.14988 23.98 5.98988 23.78 5.98988H21.31C21.07 5.98988 20.88 5.79988 20.88 5.55988C20.88 5.31988 21.07 5.12988 21.31 5.12988H23.78C24.45 5.12988 25 5.67988 25 6.34988V18.9199C25 19.5899 24.45 20.1399 23.78 20.1399Z" fill="#343D46"/>
<path d="M10.9398 22.4898C10.6998 22.4898 10.5098 22.2998 10.5098 22.0598V19.7098C10.5098 19.4698 10.6998 19.2798 10.9398 19.2798C11.1798 19.2798 11.3698 19.4698 11.3698 19.7098V22.0598C11.3698 22.2998 11.1798 22.4898 10.9398 22.4898Z" fill="#343D46"/>
<path d="M14.0599 22.4898C13.8199 22.4898 13.6299 22.2998 13.6299 22.0598V19.7098C13.6299 19.4698 13.8199 19.2798 14.0599 19.2798C14.2999 19.2798 14.4899 19.4698 14.4899 19.7098V22.0598C14.4899 22.2998 14.2999 22.4898 14.0599 22.4898Z" fill="#343D46"/>
<path d="M17.4102 24.9799H7.59016C7.35016 24.9799 7.16016 24.7899 7.16016 24.5499V23.6399C7.16016 22.5299 8.06016 21.6299 9.17016 21.6299H15.8302C16.9402 21.6299 17.8402 22.5299 17.8402 23.6399V24.5499C17.8402 24.7899 17.6502 24.9799 17.4102 24.9799ZM16.9802 24.1199V23.6399C16.9802 23.0099 16.4602 22.4899 15.8302 22.4899H9.17016C8.54016 22.4899 8.02016 23.0099 8.02016 23.6399V24.1199H16.9902H16.9802Z" fill="#343D46"/>
<path d="M24.57 17.2902H0.43C0.19 17.2902 0 17.0902 0 16.8602C0 16.6302 0.19 16.4302 0.43 16.4302H24.57C24.81 16.4302 25 16.6202 25 16.8602C25 17.1002 24.81 17.2902 24.57 17.2902Z" fill="#343D46"/>
<path d="M22.8398 18.7101H21.9798C21.7398 18.7101 21.5498 18.5201 21.5498 18.2801C21.5498 18.0401 21.7398 17.8501 21.9798 17.8501H22.8398C23.0798 17.8501 23.2698 18.0401 23.2698 18.2801C23.2698 18.5201 23.0798 18.7101 22.8398 18.7101Z" fill="#343D46"/>
<path d="M19.9199 18.7101H19.0599C18.8199 18.7101 18.6299 18.5201 18.6299 18.2801C18.6299 18.0401 18.8199 17.8501 19.0599 17.8501H19.9199C20.1599 17.8501 20.3499 18.0401 20.3499 18.2801C20.3499 18.5201 20.1599 18.7101 19.9199 18.7101Z" fill="#343D46"/>
<path d="M17 18.7101H16.14C15.9 18.7101 15.71 18.5201 15.71 18.2801C15.71 18.0401 15.9 17.8501 16.14 17.8501H17C17.24 17.8501 17.43 18.0401 17.43 18.2801C17.43 18.5201 17.24 18.7101 17 18.7101Z" fill="#343D46"/>
<path d="M21.2995 14.52H3.69953C3.45953 14.52 3.26953 14.33 3.26953 14.09V0.43C3.26953 0.19 3.45953 0 3.69953 0H21.2995C21.5395 0 21.7295 0.19 21.7295 0.43V14.09C21.7295 14.33 21.5395 14.52 21.2995 14.52ZM4.11953 13.66H20.8695V0.86H4.12953V13.66H4.11953Z" fill="#343D46"/>
<path d="M9.35038 12.4699C9.18038 12.3099 9.17038 12.0299 9.34038 11.8599L9.91038 11.2599L9.34038 10.6599C9.18038 10.4899 9.18038 10.2199 9.35038 10.0499C9.52038 9.88993 9.79038 9.88993 9.96038 10.0599L10.8104 10.9599C10.9704 11.1299 10.9704 11.3899 10.8104 11.5499L9.96038 12.4499C9.80038 12.6199 9.53038 12.6299 9.35038 12.4599V12.4699Z" fill="#343D46"/>
<path d="M5.88992 12.4601L5.03992 11.5601C4.87992 11.3901 4.87992 11.1301 5.03992 10.9701L5.88992 10.0701C6.04992 9.90011 6.32992 9.89011 6.49992 10.0601C6.66992 10.2201 6.67992 10.5001 6.50992 10.6701L5.93992 11.2701L6.50992 11.8701C6.66992 12.0401 6.66992 12.3101 6.49992 12.4801C6.32992 12.6401 6.05992 12.6401 5.88992 12.4701V12.4601Z" fill="#343D46"/>
<path d="M7.41006 12.7602C7.19006 12.6802 7.07006 12.4402 7.14006 12.2102L7.89006 10.0302C7.97006 9.81018 8.21006 9.69018 8.44006 9.76018C8.66006 9.84018 8.78006 10.0802 8.71006 10.3102L7.96006 12.4902C7.88006 12.7102 7.64006 12.8302 7.41006 12.7602Z" fill="#343D46"/>
<path d="M18.5096 12.4699C18.3396 12.3099 18.3296 12.0299 18.4996 11.8599L19.0696 11.2599L18.4996 10.6599C18.3396 10.4899 18.3396 10.2199 18.5096 10.0499C18.6796 9.88993 18.9496 9.88993 19.1196 10.0599L19.9696 10.9599C20.1296 11.1299 20.1296 11.3899 19.9696 11.5499L19.1196 12.4499C18.9596 12.6199 18.6796 12.6299 18.5096 12.4599V12.4699Z" fill="#343D46"/>
<path d="M15.0403 12.4601L14.1903 11.5601C14.0303 11.3901 14.0303 11.1301 14.1903 10.9701L15.0403 10.0701C15.2003 9.90011 15.4803 9.89011 15.6503 10.0601C15.8203 10.2301 15.8303 10.5001 15.6603 10.6701L15.0903 11.2701L15.6603 11.8701C15.8203 12.0401 15.8203 12.3101 15.6503 12.4801C15.4803 12.6401 15.2103 12.6401 15.0403 12.4701V12.4601Z" fill="#343D46"/>
<path d="M16.6996 12.7899C16.4096 12.7899 16.1996 12.4999 16.2896 12.2199L17.0396 10.0399C17.1196 9.81994 17.3596 9.69995 17.5896 9.76995C17.8096 9.84995 17.9296 10.0899 17.8596 10.3199L17.1096 12.4999C17.0496 12.6799 16.8796 12.7899 16.6996 12.7899Z" fill="#343D46"/>
<path d="M19.53 2.94984H5.47004C5.23004 2.94984 5.04004 2.75984 5.04004 2.51984C5.04004 2.27984 5.23004 2.08984 5.47004 2.08984H19.53C19.77 2.08984 19.96 2.27984 19.96 2.51984C19.96 2.75984 19.77 2.94984 19.53 2.94984Z" fill="#343D46"/>
<path d="M19.53 5.31996H5.47004C5.23004 5.31996 5.04004 5.12996 5.04004 4.88996C5.04004 4.64996 5.23004 4.45996 5.47004 4.45996H19.53C19.77 4.45996 19.96 4.64996 19.96 4.88996C19.96 5.12996 19.77 5.31996 19.53 5.31996Z" fill="#343D46"/>
<path d="M19.53 7.69008H5.47004C5.23004 7.69008 5.04004 7.50008 5.04004 7.26008C5.04004 7.02008 5.23004 6.83008 5.47004 6.83008H19.53C19.77 6.83008 19.96 7.02008 19.96 7.26008C19.96 7.50008 19.77 7.69008 19.53 7.69008Z" fill="#343D46"/>
</g>
<defs>
<clipPath id="clip0_139_39">
<rect width="25" height="24.98" fill="white"/>
</clipPath>
</defs>
</svg>
