<svg width="28" height="21" viewBox="0 0 28 21" fill="none" xmlns="http://www.w3.org/2000/svg">
<g clip-path="url(#clip0_126_67)">
<path d="M25.8727 20.4488H2.12779C1.08055 20.4488 0.220703 19.6 0.220703 18.5527V2.12755C0.220703 1.06928 1.08055 0.220459 2.12779 0.220459H25.8727C26.9199 0.220459 27.7798 1.06928 27.7798 2.12755V18.5527C27.7798 19.611 26.9309 20.4598 25.8727 20.4598V20.4488ZM2.12779 0.848805C1.42228 0.848805 0.84905 1.42203 0.84905 2.12755V18.5527C0.84905 19.2583 1.42228 19.8315 2.12779 19.8315H25.8727C26.5782 19.8315 27.1514 19.2583 27.1514 18.5527V2.11652C27.1514 1.41101 26.5782 0.837782 25.8727 0.837782H2.12779V0.848805Z" fill="#343D46" stroke="#343D46" stroke-width="0.4" stroke-miterlimit="10"/>
<path d="M27.4711 4.80629H0.529364C0.352987 4.80629 0.220703 4.674 0.220703 4.49763C0.220703 4.32125 0.352987 4.18896 0.529364 4.18896H27.4601C27.6364 4.18896 27.7687 4.32125 27.7687 4.49763C27.7687 4.674 27.6254 4.80629 27.4601 4.80629H27.4711Z" fill="#343D46" stroke="#343D46" stroke-width="0.4" stroke-miterlimit="10"/>
<path d="M9.76729 3.72598C9.09484 3.72598 8.55469 3.18582 8.55469 2.51338C8.55469 1.84094 9.09484 1.30078 9.76729 1.30078C10.4397 1.30078 10.9799 1.84094 10.9799 2.51338C10.9799 3.1748 10.4397 3.72598 9.76729 3.72598ZM9.76729 1.92913C9.4476 1.92913 9.18303 2.19369 9.18303 2.51338C9.18303 2.83306 9.4476 3.09763 9.76729 3.09763C10.087 3.09763 10.3515 2.83306 10.3515 2.51338C10.3515 2.19369 10.087 1.92913 9.76729 1.92913Z" fill="#343D46" stroke="#343D46" stroke-width="0.4" stroke-miterlimit="10"/>
<path d="M13.9997 3.72598C13.3273 3.72598 12.7871 3.18582 12.7871 2.51338C12.7871 1.84094 13.3273 1.30078 13.9997 1.30078C14.6721 1.30078 15.2123 1.84094 15.2123 2.51338C15.2123 3.18582 14.6721 3.72598 13.9997 3.72598ZM13.9997 1.92913C13.68 1.92913 13.4155 2.19369 13.4155 2.51338C13.4155 2.83306 13.68 3.09763 13.9997 3.09763C14.3194 3.09763 14.584 2.83306 14.584 2.51338C14.584 2.19369 14.3194 1.92913 13.9997 1.92913Z" fill="#343D46" stroke="#343D46" stroke-width="0.4" stroke-miterlimit="10"/>
<path d="M18.2331 3.72598C17.5607 3.72598 17.0205 3.18582 17.0205 2.51338C17.0205 1.84094 17.5607 1.30078 18.2331 1.30078C18.9055 1.30078 19.4457 1.84094 19.4457 2.51338C19.4457 3.1748 18.9055 3.72598 18.2331 3.72598ZM18.2331 1.92913C17.9134 1.92913 17.6489 2.19369 17.6489 2.51338C17.6489 2.83306 17.9134 3.09763 18.2331 3.09763C18.5528 3.09763 18.8174 2.83306 18.8174 2.51338C18.8174 2.19369 18.5528 1.92913 18.2331 1.92913Z" fill="#343D46" stroke="#343D46" stroke-width="0.4" stroke-miterlimit="10"/>
<path d="M6.26159 2.82203H2.71198C2.5356 2.82203 2.40332 2.68975 2.40332 2.51337C2.40332 2.337 2.5356 2.20471 2.71198 2.20471H6.26159C6.43797 2.20471 6.57025 2.337 6.57025 2.51337C6.57025 2.68975 6.43797 2.82203 6.26159 2.82203Z" fill="#343D46" stroke="#343D46" stroke-width="0.4" stroke-miterlimit="10"/>
<path d="M25.2772 2.82203H21.7276C21.5512 2.82203 21.4189 2.68975 21.4189 2.51337C21.4189 2.337 21.5512 2.20471 21.7276 2.20471H25.2772C25.4536 2.20471 25.5859 2.337 25.5859 2.51337C25.5859 2.68975 25.4536 2.82203 25.2772 2.82203Z" fill="#343D46" stroke="#343D46" stroke-width="0.4" stroke-miterlimit="10"/>
<path d="M13.9119 12.1701C13.6143 12.1701 13.3277 12.115 13.1182 12.0157L8.26781 9.68976C7.99222 9.55748 7.83789 9.337 7.83789 9.09448C7.83789 8.91811 7.91506 8.5874 8.47726 8.31181L12.9088 6.18425C13.5151 5.88661 14.3749 5.84252 14.871 6.08504L19.7214 8.41102C19.9969 8.5433 20.1513 8.76378 20.1513 9.0063C20.1513 9.18267 20.0741 9.51338 19.5119 9.78897L15.0804 11.9165C14.7387 12.0819 14.3088 12.1701 13.9119 12.1701ZM8.46624 9.09448C8.46624 9.09448 8.49931 9.11653 8.53238 9.13858L13.3828 11.4646C13.6694 11.5968 14.3198 11.5968 14.8048 11.3654L19.2363 9.23779C19.4127 9.1496 19.4899 9.07244 19.5119 9.02834C19.5009 9.01732 19.4788 9.00629 19.4458 8.98425L14.5954 6.65826C14.3088 6.52598 13.6584 6.52598 13.1733 6.75748L8.74183 8.88504C8.56545 8.9622 8.48828 9.05039 8.46624 9.09448Z" fill="#343D46" stroke="#343D46" stroke-width="0.4" stroke-miterlimit="10"/>
<path d="M13.9119 15.4331C13.6143 15.4331 13.3277 15.378 13.1182 15.2788L8.26781 12.9528C7.99222 12.8205 7.83789 12.6 7.83789 12.3575C7.83789 12.1811 7.91506 11.8504 8.47726 11.5748L10.9245 10.4063C11.0788 10.3291 11.2662 10.4063 11.3434 10.5606C11.4206 10.715 11.3434 10.9024 11.1891 10.9795L8.74183 12.148C8.56545 12.2362 8.48828 12.3134 8.46624 12.3575C8.47726 12.3685 8.49931 12.3795 8.53238 12.4016L13.3828 14.7276C13.6694 14.8599 14.3198 14.8599 14.8048 14.6284L19.2363 12.5008C19.4127 12.4126 19.4899 12.3354 19.5119 12.2913C19.5009 12.2803 19.4788 12.2693 19.4458 12.2473L16.7891 10.9795C16.6347 10.9024 16.5686 10.715 16.6347 10.5606C16.7009 10.4063 16.8993 10.3402 17.0536 10.4063L19.7103 11.674C19.9859 11.8063 20.1403 12.0268 20.1403 12.2693C20.1403 12.4457 20.0631 12.7764 19.5009 13.052L15.0694 15.1795C14.7277 15.3449 14.2977 15.4331 13.9009 15.4331H13.9119Z" fill="#343D46" stroke="#343D46" stroke-width="0.4" stroke-miterlimit="10"/>
<path d="M13.9119 18.685C13.6143 18.685 13.3277 18.6299 13.1182 18.5307L8.26781 16.2047C7.99222 16.0724 7.83789 15.852 7.83789 15.6094C7.83789 15.4331 7.91506 15.1024 8.47726 14.8268L10.9245 13.6583C11.0788 13.5811 11.2662 13.6583 11.3434 13.8126C11.4206 13.9669 11.3434 14.1543 11.1891 14.2315L8.74183 15.4C8.56545 15.4882 8.48828 15.5653 8.46624 15.6094C8.47726 15.6205 8.49931 15.6315 8.53238 15.6535L13.3828 17.9795C13.6694 18.1118 14.3198 18.1118 14.8048 17.8803L19.2363 15.7528C19.4127 15.6646 19.4899 15.5874 19.5119 15.5433C19.5009 15.5323 19.4788 15.5213 19.4458 15.4992L16.7891 14.2315C16.6347 14.1543 16.5686 13.9669 16.6347 13.8126C16.7009 13.6583 16.8993 13.5921 17.0536 13.6583L19.7103 14.926C19.9859 15.0583 20.1403 15.2787 20.1403 15.5213C20.1403 15.6976 20.0631 16.0283 19.5009 16.3039L15.0694 18.4315C14.7277 18.5968 14.2977 18.685 13.9009 18.685H13.9119Z" fill="#343D46" stroke="#343D46" stroke-width="0.4" stroke-miterlimit="10"/>
</g>
<defs>
<clipPath id="clip0_126_67">
<rect width="28" height="20.6693" fill="white"/>
</clipPath>
</defs>
</svg>
