<svg version="1.2" xmlns="http://www.w3.org/2000/svg" viewBox="0 0 3050 2000" width="600" height="393">
	<title>19220-ai</title>
	<defs>
		<linearGradient id="g1" x1="2388.3" y1="1656.3" x2="2216.3" y2="1184.9" gradientUnits="userSpaceOnUse">
			<stop offset="0" stop-color="#ff995c"/>
			<stop offset="1" stop-color="#ffce64"/>
		</linearGradient>
		<linearGradient id="g2" x1="1185" y1="1326.8" x2="1153.8" y2="1286.6" gradientUnits="userSpaceOnUse">
			<stop offset="0" stop-color="#ff995c"/>
			<stop offset="1" stop-color="#ffce64"/>
		</linearGradient>
		<linearGradient id="g3" x1="1193.6" y1="1396.9" x2="1153.8" y2="1345.7" gradientUnits="userSpaceOnUse">
			<stop offset="0" stop-color="#ff995c"/>
			<stop offset="1" stop-color="#ffce64"/>
		</linearGradient>
		<linearGradient id="g4" x1="1355" y1="1365.1" x2="1324.7" y2="1326" gradientUnits="userSpaceOnUse">
			<stop offset="0" stop-color="#ff995c"/>
			<stop offset="1" stop-color="#ffce64"/>
		</linearGradient>
		<linearGradient id="g5" x1="977" y1="1608.4" x2="500.6" y2="995" gradientUnits="userSpaceOnUse">
			<stop offset="0" stop-color="#ff995c"/>
			<stop offset="1" stop-color="#ffce64"/>
		</linearGradient>
		<linearGradient id="g6" x1="1200.5" y1="1888.3" x2="481" y2="962" gradientUnits="userSpaceOnUse">
			<stop offset="0" stop-color="#ff995c"/>
			<stop offset="1" stop-color="#ffce64"/>
		</linearGradient>
		<linearGradient id="g7" x1="1590.1" y1="1077.7" x2="1538.6" y2="557.3" gradientUnits="userSpaceOnUse">
			<stop offset="0" stop-color="#ff995c"/>
			<stop offset="1" stop-color="#ffce64"/>
		</linearGradient>
	</defs>
	<style>
		.s0 { fill: url(#g1) } 
		.s1 { fill: url(#g2) } 
		.s2 { fill: url(#g3) } 
		.s3 { fill: url(#g4) } 
		.s4 { fill: #98a6b1 } 
		.s5 { fill: url(#g5) } 
		.s6 { fill: url(#g6) } 
		.s7 { fill: #706865 } 
		.s8 { fill: #bdafaa } 
		.s9 { fill: #ffffff } 
		.s10 { fill: #ffb955 } 
		.s11 { fill: #cfcfcf } 
		.s12 { fill: #eea886 } 
		.s13 { fill: #db9c7c } 
		.s14 { fill: #323657 } 
		.s15 { fill: #4da8f2 } 
		.s16 { fill: #efaa88 } 
		.s17 { fill: #424773 } 
		.s18 { fill: #292c47 } 
		.s19 { fill: #d88a51 } 
		.s20 { fill: #e2d2ca } 
		.s21 { fill: #dfe1e8 } 
		.s22 { fill: #385369 } 
		.s23 { fill: url(#g7) } 
		.s24 { fill: #ffce55 } 
		.s25 { fill: #cf8c6c } 
		.s26 { fill: #555c94 } 
		.s27 { fill: #354c70 } 
		.s28 { fill: #deb135 } 
		.s29 { fill: #f2c344 } 
		.s30 { fill: #d9d0c4 } 
		.s31 { fill: #ffb355 } 
		.s32 { fill: #eea987 } 
		.s33 { fill: #ffd255 } 
		.s34 { fill: #3c5780 } 
		.s35 { fill: #fccca2 } 
		.s36 { fill: #c48a6f } 
		.s37 { fill: #e8734d } 
		.s38 { fill: #293b57 } 
		.s39 { fill: #ffbb55 } 
		.s40 { fill: #e09e7f } 
		.s41 { fill: #665249 } 
		.s42 { fill: #2e2626 } 
		.s43 { fill: #2f6b8c } 
		.s44 { fill: #a77860 } 
		.s45 { fill: #4b5182 } 
		.s46 { fill: #22243b } 
		.s47 { fill: #5c5c5c } 
		.s48 { fill: #a87860 } 
		.s49 { fill: #5c5049 } 
		.s50 { fill: #fab46c } 
		.s51 { fill: #d4c3bd } 
		.s52 { fill: #de9673 } 
		.s53 { fill: #e6d3cc } 
		.s54 { fill: #ded1c5 } 
		.s55 { fill: #bc8551 } 
		.s56 { fill: #23344a } 
		.s57 { fill: #807066 } 
		.s58 { fill: #ffd078 } 
		.s59 { fill: #ffd887 } 
		.s60 { fill: #ffd989 } 
		.s61 { fill: #d6d6d6 } 
		.s62 { fill: #e8e8e8 } 
		.s63 { fill: #c2c2c2 } 
		.s64 { fill: #e0e0e0 } 
	</style>
	<g id="Слой 1">
		<g id="&lt;Group&gt;">
			<g id="&lt;Group&gt;">
				<path id="&lt;Compound Path&gt;" class="s0" d="m2568.5 1290.1l-90.4 167.7c-49.7-35.7-113-47.3-171.8-32.1l-39.2-185.6c15.7-3.7 31.6-6.4 47.5-8.2l25.9-72.8l166.3 24l4.2 77.2c19.8 8.3 39 18.3 57.5 29.8z" />
				<g id="&lt;Group&gt;">
					<path id="&lt;Path&gt;" class="s1" d="m1159.3 1290.4v-8c83.4 0 157.4-50 188.4-127.5l7.4 3c-32.2 80.5-109.1 132.5-195.8 132.5z" />
				</g>
				<g id="&lt;Group&gt;">
					<path id="&lt;Path&gt;" class="s2" d="m1159.3 1349.5v-8c61.5 0 119.4-20.2 167.6-58.3l4.9 6.3c-49.5 39.2-109.2 60-172.5 60z" />
				</g>
				<g id="&lt;Group&gt;">
					<path id="&lt;Path&gt;" class="s3" d="m1356.1 1363.2l-4.5-6.6c54.1-36.5 96.5-87.3 122.7-146.8l7.4 3.2c-26.8 60.9-70.3 112.9-125.6 150.2z" />
				</g>
				<g id="&lt;Group&gt;">
					<path id="&lt;Path&gt;" class="s4" d="m1975.5 588.7l-140.6-155l5.9-5.4l140.7 155z" />
				</g>
				<g id="&lt;Group&gt;">
					<path id="&lt;Compound Path&gt;" fill-rule="evenodd" class="s5" d="m962.1 1504l-142.2-101.2l31.8-71.3c-22.6-27.1-41.5-57.3-56.2-89.7l-78.1-2.5l-29-172.1l73-27.9c3.3-35.4 11.2-70.1 23.6-103.2l-53.3-56.9l101.1-142.2l71.3 31.8c27.2-22.6 57.3-41.5 89.8-56.2l2.4-78l172.1-29l27.9 72.9c35.5 3.3 70.2 11.2 103.3 23.7l56.9-53.4l142.2 101.1l-31.8 71.3c22.6 27.2 41.5 57.4 56.1 89.8l78.1 2.5l29 172l-73 28c-1.4 15.5-3.8 31.1-7 46.4l-0.9 4.1l-192-47.3l0.7-3.7c14.1-76.9-17.9-155.9-81.5-201.1c-90.8-64.6-217.1-43.3-281.7 47.4c-64.5 90.7-43.2 217 47.5 281.6c19 13.5 39.8 23.5 61.9 29.8l3.5 1l-36.8 194.4l-4.1-1c-16.1-3.8-32.2-8.6-47.7-14.5zm-132.3-103.9l131.6 93.6l55.7-52.3l2.4 0.9c14.6 5.6 29.8 10.3 45 14.1l33.8-179c-21.6-6.6-42.1-16.6-60.8-30c-94.3-67.1-116.4-198.4-49.3-292.7c67.1-94.3 198.5-116.5 292.8-49.4c65.1 46.4 98.4 126.7 85.4 205.4l176.7 43.6c2.9-14.6 5-29.3 6.3-44l0.2-2.5l71.5-27.4l-26.8-159.1l-76.5-2.5l-1.1-2.3c-14.8-33.3-34.2-64.3-57.6-92.1l-1.6-1.9l31.2-69.8l-131.5-93.6l-55.8 52.3l-2.3-0.9c-33.9-13-69.6-21.1-106-24.2l-2.5-0.2l-27.3-71.5l-159.2 26.8l-2.4 76.5l-2.3 1c-33.4 14.9-64.4 34.3-92.1 57.6l-1.9 1.6l-69.9-31.1l-93.5 131.5l52.3 55.8l-0.9 2.3c-13 33.9-21.1 69.5-24.3 105.9l-0.2 2.5l-71.5 27.4l26.8 159.1l76.6 2.5l1 2.2c14.8 33.4 34.2 64.4 57.6 92.1l1.6 2z" />
				</g>
				<path id="&lt;Compound Path&gt;" class="s6" d="m1625.6 1083l-72.2 27.6c-1.4 16.2-3.8 32.4-7.2 48.5l-184.3-45.4c14-76.2-15.9-157.2-83.2-205.1c-17.7-12.6-36.6-21.9-56.2-28.2l34.8-187.3c14.6 3.7 29 8.2 43.2 13.7l56.3-52.9l136.9 97.4l-31.5 70.5c24 28.5 43.4 59.9 58.2 93.1l77.3 2.5l14 82.8zm-585.8 161.2c19.8 14 41.1 24.1 63.1 30.3l-35.3 186.7c-16.8-3.9-33.3-9-49.6-15.2l-56.3 52.8l-68.4-48.7l-68.5-48.7l31.5-70.5c-24-28.5-43.4-59.9-58.2-93.1l-77.3-2.4l-13.9-82.8l-14-82.8l72.2-27.7c3.1-36.2 11.2-72.2 24.6-107l-52.9-56.3l48.7-68.4l48.7-68.4l70.5 31.4c15.9-13.4 32.8-25.4 50.4-35.9l94 164.8c-21.9 13.9-41.6 32.2-57.6 54.7c-66 92.6-44.3 221.2 48.3 287.2z" />
				<path id="&lt;Path&gt;" class="s7" d="m1129.3 1795.4h-8.5v-387.4h8.5z" />
				<path id="&lt;Path&gt;" class="s7" d="m937.9 1795.4h-8.5v-387.4h8.5z" />
				<path id="&lt;Path&gt;" class="s8" d="m1141.3 1731.4h-229.2c-14.2 0-25.6-11.4-25.6-25.5v-434.1c0-14.1 11.4-25.6 25.6-25.6h229.2c14.1 0 25.6 11.5 25.6 25.6v434.1c0 14.1-11.5 25.5-25.6 25.5z" />
				<path id="&lt;Path&gt;" class="s9" d="m1133.9 1712.5h-214.4c-14 0-25.3-11.3-25.3-25.3v-407.9c0-13.9 11.3-25.3 25.3-25.3h214.4c14 0 25.3 11.4 25.3 25.3v407.9c0 14-11.3 25.3-25.3 25.3z" />
				<path id="&lt;Path&gt;" class="s7" d="m1068.5 1261.4h-83.6v-18.8h83.6z" />
				<path id="&lt;Compound Path&gt;" fill-rule="evenodd" class="s10" d="m975.2 578.6l-19.9 27.8l-19.8 27.9l-28.7-12.8c-11.6 9.7-24.4 17.6-37.9 23.7l-1 31.4l-67.4 11.4l-11.2-29.4c-14.8-1.3-29.4-4.6-43.6-10l-22.9 21.5l-27.9-19.8l-27.8-19.8l12.8-28.7c-9.8-11.6-17.7-24.4-23.7-37.9l-31.5-1l-5.7-33.7l-5.6-33.7l29.3-11.3c1.3-14.7 4.6-29.4 10-43.6l-21.5-22.9l19.8-27.8l19.9-27.9l28.7 12.8c11.6-9.7 24.3-17.7 37.9-23.7l0.9-31.4l33.8-5.7l33.7-5.7l11.2 29.4c14.8 1.3 29.4 4.6 43.6 10l22.9-21.5l27.9 19.8l27.8 19.8l-12.8 28.7c9.8 11.6 17.7 24.4 23.7 37.9l31.5 1l5.6 33.7l5.7 33.7l-29.4 11.3c-1.2 14.7-4.5 29.4-9.9 43.5zm-103.7-31.8c26.8-37.7 18-90-19.7-116.9c-37.7-26.8-90.1-18-116.9 19.7c-26.9 37.7-18.1 90.1 19.7 116.9c37.7 26.9 90 18 116.9-19.7z" />
				<g id="&lt;Group&gt;">
					<g id="&lt;Group&gt;">
						<path id="&lt;Compound Path&gt;" fill-rule="evenodd" class="s11" d="m1022.9 1468.3l-5.6-14.5c-5.6-0.7-11.2-1.9-16.5-3.8l-11.3 10.6l-31.4-22.3l6.3-14.2c-3.5-4.4-6.5-9.2-9-14.4l-15.5-0.4l-6.4-38l14.5-5.6c0.6-5.6 1.9-11.2 3.8-16.5l-10.6-11.3l22.3-31.4l14.1 6.3c4.5-3.5 9.3-6.5 14.4-9l0.5-15.5l38-6.4l5.6 14.5c5.6 0.7 11.2 1.9 16.5 3.8l11.3-10.6l31.4 22.3l-6.3 14.2c3.5 4.4 6.5 9.2 9 14.4l15.5 0.4l6.4 38l-14.5 5.6c-0.7 5.6-1.9 11.2-3.8 16.5l10.6 11.3l-22.3 31.4l-14.2-6.3c-4.4 3.5-9.2 6.5-14.4 9l-0.5 15.5zm-23.9-27.5l2.3 0.9c6.2 2.3 12.7 3.8 19.3 4.4l2.5 0.2l5 13l25-4.2l0.5-13.9l2.3-1c6-2.7 11.7-6.3 16.7-10.5l1.9-1.6l12.8 5.6l14.7-20.7l-9.5-10.1l0.8-2.4c2.4-6.1 3.9-12.6 4.5-19.2l0.2-2.5l13-5l-4.2-25.1l-14-0.4l-1-2.3c-2.7-6.1-6.2-11.7-10.5-16.8l-1.6-1.9l5.7-12.7l-20.7-14.7l-10.2 9.5l-2.3-0.9c-6.2-2.3-12.6-3.8-19.3-4.4l-2.5-0.2l-4.9-13l-25.1 4.2l-0.4 13.9l-2.3 1c-6.1 2.7-11.7 6.3-16.8 10.5l-1.9 1.6l-12.7-5.6l-14.8 20.7l9.6 10.1l-0.9 2.4c-2.4 6.1-3.9 12.6-4.4 19.2l-0.3 2.5l-13 5l4.3 25.1l13.9 0.4l1 2.3c2.7 6.1 6.2 11.7 10.5 16.8l1.6 1.9l-5.7 12.7l20.7 14.7z" />
					</g>
					<g id="&lt;Group&gt;">
						<path id="&lt;Compound Path&gt;" class="s11" d="m1044.7 1414.3l-3.3-7.2c5.6-2.6 10.4-6.6 14-11.6c3.6-5.1 5.8-11 6.3-17.1l8 0.7c-0.7 7.6-3.4 14.8-7.8 21c-4.4 6.2-10.3 11.1-17.2 14.2zm-42.9-3.9l-0.2-0.2c-11.3-8-18.1-21.2-18.1-35.1q0-2.1 0.2-4.1l8 0.8q-0.2 1.6-0.2 3.3c0 11.3 5.5 22.1 14.8 28.7zm45.3-64c-6-4.3-13.1-6.5-20.4-6.5c-5 0-10.1 1.1-14.7 3.2l-3.3-7.3c5.6-2.5 11.9-3.9 18-3.9q0 0 0 0c9 0 17.6 2.8 25 8z" />
					</g>
				</g>
				<g id="&lt;Group&gt;">
					<path id="&lt;Compound Path&gt;" fill-rule="evenodd" class="s11" d="m1082.2 1555.6l-3.1-8q-3.5-0.5-6.8-1.5l-6.3 5.8l-18.9-13.5l3.4-7.8q-2.1-2.8-3.7-5.9l-8.5-0.3l-3.9-23l8-3q0.5-3.5 1.6-6.9l-5.9-6.2l13.5-19l7.8 3.5q2.8-2.1 6-3.7l0.2-8.5l23-3.9l3.1 8q3.4 0.5 6.8 1.5l6.2-5.8l19 13.5l-3.5 7.8q2.1 2.8 3.7 5.9l8.6 0.3l3.9 23l-8 3q-0.5 3.5-1.6 6.9l5.8 6.2l-13.5 19l-7.8-3.5q-2.8 2.1-5.9 3.7l-0.3 8.6zm-11.7-18.8l2.3 0.9c3.1 1.2 6.3 1.9 9.6 2.2l2.5 0.2l2.5 6.5l10-1.7l0.2-6.9l2.3-1.1c3-1.3 5.8-3.1 8.3-5.2l2-1.6l6.3 2.8l5.9-8.3l-4.7-5l0.9-2.4c1.1-3 1.9-6.3 2.2-9.5l0.2-2.5l6.4-2.5l-1.6-10.1l-7-0.2l-1-2.3c-1.3-3-3.1-5.8-5.2-8.3l-1.6-1.9l2.8-6.4l-8.3-5.9l-5.1 4.8l-2.3-0.9c-3.1-1.2-6.3-1.9-9.6-2.2l-2.5-0.2l-2.5-6.5l-10 1.7l-0.2 6.9l-2.3 1c-3 1.4-5.8 3.1-8.3 5.2l-2 1.7l-6.3-2.9l-5.9 8.3l4.7 5.1l-0.9 2.3c-1.1 3.1-1.9 6.3-2.2 9.6l-0.2 2.5l-6.4 2.5l1.6 10l7 0.3l1 2.3c1.3 3 3.1 5.8 5.2 8.3l1.6 1.9l-2.8 6.3l8.3 5.9zm14.9-7.6c-5 0-9.9-1.6-14.1-4.6c-11-7.8-13.6-23.2-5.8-34.2c7.9-11 23.2-13.6 34.2-5.8c11 7.9 13.6 23.2 5.8 34.3c-3.8 5.3-9.5 8.8-15.9 9.9q-2.1 0.4-4.2 0.4zm0.1-41.1c-5.2 0-10.2 2.4-13.5 6.9c-5.3 7.5-3.5 17.8 3.9 23.1c3.6 2.6 8 3.6 12.3 2.8c4.4-0.7 8.2-3.1 10.8-6.7c5.2-7.4 3.5-17.8-3.9-23c-2.9-2.1-6.3-3.1-9.6-3.1z" />
				</g>
				<g id="&lt;Group&gt;">
					<g id="&lt;Group&gt;">
						<g id="&lt;Group&gt;">
							<g id="&lt;Group&gt;">
								<path id="&lt;Path&gt;" class="s12" d="m877.5 1580.7q2 3.2 2.2 5.7c0.2 2.1 1.9 5.1 2.6 6.8c0.8 1.7 3.2 9.3 3.3 11.3c0 0.8-1.8 5.9-1.6 7.5c0.3 1.6 1.2 4.9-0.2 5.1q-1.5 0.2-3.2-2.5q0.2 1.5-1.1 2.1q-2.4 1.1-3.6 0.2q-0.9 1.6-2 1.8q-2.5 0.5-3.7-0.5q-1.1 1-2.8 0.9q-2.2 0-3.1-1.9q-2.7 0.6-3.5-0.7c-0.8-1.3-0.7-2.7-1-3.8c-0.4-1.2-0.1-11.7 3.5-19.3q3.5-7.6-0.9-14.9z" />
							</g>
						</g>
					</g>
					<g id="&lt;Group&gt;">
						<g id="&lt;Group&gt;">
							<path id="&lt;Path&gt;" class="s13" d="m875.9 1616.9q-1.6 3.6-5.7 1.3q-4.1 2.7-5.9-1q-2.7 0.7-3.5-0.7q-2.9-6.2 0.1-11.5q1.7-3.1 4.5 0.1q-0.7-3.3 2.1-3.8q2.9-0.6 3.3 2q0.1-4 2.9-3.5q2.7 0.5 2.3 3.8q0.3-3.4 2.8-1.4q2.5 2 2.2 11.5q-0.6 5.3-5.1 3.2z" />
						</g>
					</g>
					<path id="&lt;Path&gt;" class="s14" d="m909.5 1444.9q-16.1 53.8-21.6 73.6c-1.7 6.3-5.8 65.7-6.5 68.1q-0.8 2.4-21.3 5.7q2.5-74.4 2.8-78.5c0.2-4 22.6-87.1 29.1-90c4.8-2.3 7.4-0.4 13.5 4.1q8.7 6.4 4 17z" />
					<g id="&lt;Group&gt;">
						<path id="&lt;Path&gt;" class="s15" d="m1068.8 1372.2l-1.8-2.7l37-24.2l1.7 2.7z" />
					</g>
					<path id="&lt;Path&gt;" class="s16" d="m1109.7 1359.2q-0.4 2.1-1 2.9q-1.2 1.5-2 2.5c-0.2 0.4-0.4 0.7-0.6 0.9c-0.4 0.9-1.2 3-3 4.8q-1.8 1.7-8.6 7.4l-5.9-5l-6.1-2.7q3.4-14.8 4.9-16.7q0.2-0.3 0.4-0.5c1.4-1.5 3-2 3.8-2.6c0.3-0.3 3.5-2.5 4.6-2.3c1.5 0.5 2.5 1.4 2.8 2.4q3 0.9 4.2 2.7q2.8 0.7 3.6 3.4q2.8 1 2.9 2.8z" />
					<g id="&lt;Group&gt;">
						<g id="&lt;Group&gt;">
							<path id="&lt;Path&gt;" class="s17" d="m896.4 1812.3q-1.4 10.2-1.6 11.7q-0.2 1.6-16.4-0.9l-1.3-12.1q17.3-0.2 19.3 1.3z" />
						</g>
					</g>
					<g id="&lt;Group&gt;">
						<g id="&lt;Group&gt;">
							<path id="&lt;Path&gt;" class="s18" d="m895 1822.7q5.1 6.2 10 8.9c5 2.7 12.8 3.7 15.7 6.5c2.1 2 7.7 10.6-12.9 10.5c-20.6-0.2-30.5 1.2-32.7-2.1q-2.2-3.3 3.2-24.5q4.9 1.8 16.7 0.7z" />
						</g>
					</g>
					<g id="&lt;Group&gt;">
						<g id="&lt;Group&gt;">
							<path id="&lt;Path&gt;" class="s17" d="m1012.4 1812.3q-1.4 10.2-1.6 11.7q-0.2 1.6-16.4-0.9l-1.3-12.1q17.3-0.2 19.3 1.3z" />
						</g>
					</g>
					<g id="&lt;Group&gt;">
						<g id="&lt;Group&gt;">
							<path id="&lt;Path&gt;" class="s18" d="m1010.9 1822.7q5.2 6.2 10.1 8.9c5 2.7 23.3 4.9 26.2 7.6c2.1 2 5.6 10.1-23.4 9.4c-20.6-0.6-30.5 1.2-32.7-2.1q-2.2-3.3 3.2-24.5q4.6 1.9 16.6 0.7z" />
						</g>
					</g>
					<g id="&lt;Group&gt;">
						<g id="&lt;Group&gt;">
							<path id="&lt;Path&gt;" class="s18" d="m947 1609.2c-0.8 8.6-23.3 85.2-27.8 95.9q-4.6 10.7-22.1 116l-20.9-0.4q-2-43.5-1.6-57.1c0.4-13.6 10.8-73.8 13.4-99.3c2.2-22.8 8.9-46.7 7.8-68.5q-1.2-21.8 14-46q37.9 50.8 37.2 59.4z" />
						</g>
					</g>
					<g id="&lt;Group&gt;">
						<g id="&lt;Group&gt;">
							<path id="&lt;Path&gt;" class="s18" d="m989.9 1553.1q11.5 59.8 13 73.2c1.5 13.4 2.5 64.7 3.3 73.1c0.7 8.3 7 109.1 9 121.7h-26.6q-20.5-73.4-20.5-108.1c0-34.8-15.8-75.5-26-98.5c-10.3-22.9-33.6-23.4-39.9-65.9q79.2-9 87.7 4.5z" />
						</g>
					</g>
					<g id="&lt;Group&gt;">
						<g id="&lt;Group&gt;">
							<path id="&lt;Path&gt;" class="s12" d="m935.2 1346.6q20.4-7.6 29.9 7.9c9.4 15.6 8.5 46.7-1.8 50.5c-10.3 3.8-25.8 1.8-31-7.9c-5.3-9.7-10.1-23.8-9.8-33.2c0.2-9.4 7.4-14.6 12.7-17.3z" />
						</g>
					</g>
					<g id="&lt;Group&gt;">
						<g id="&lt;Group&gt;">
							<path id="&lt;Path&gt;" class="s12" d="m961.1 1405.7q-0.9 5.5 0.5 8.2q1.4 2.8-26.4 2.8q-2.3-14.7-6.6-27.2q-4.3-12.5 32.5 16.2z" />
						</g>
					</g>
					<g id="&lt;Group&gt;">
						<g id="&lt;Group&gt;">
							<path id="&lt;Path&gt;" class="s19" d="m920.8 1360.5q-0.7-11 18.6-16.3c25.2-8.8 34.9 17.6 30.1 21.4q-4.8 3.8-1.6 13.1l-3.5-0.2l-2-3q0 2-3.3 3.1c-3.3 1.1-12.9 11.6-20.7 12.8q-7.9 1.2-9.8-1.9c-4.3-5.5-7.1-18-7.8-29z" />
						</g>
					</g>
					<g id="&lt;Group&gt;">
						<g id="&lt;Group&gt;">
							<path id="&lt;Path&gt;" class="s20" d="m932 1412.3v-6c2.9-1.1 26.5 1.1 28.8 1.6q2.4 0.5 2.5 5.7q-25.8 2.2-31.3-1.3z" />
						</g>
					</g>
					<g id="&lt;Group&gt;">
						<g id="&lt;Group&gt;">
							<path id="&lt;Path&gt;" class="s12" d="m960.2 1382.6c-2.5 0.7-7.1-6.9-5.3-12.5c1.8-5.7 6.5-0.4 7 1.4c1.1 4.7 0.8 10.5-1.7 11.1z" />
						</g>
					</g>
					<g id="&lt;Group&gt;">
						<g id="&lt;Group&gt;">
							<path id="&lt;Path&gt;" class="s14" d="m1040.8 1411q13-9.4 16.1-12.8c7-7.6 24.7-31.2 26-30.8c1.4 0.5 18 9.4 16.5 11c-1.4 3-12.4 16.6-25.8 32.5c-3.8 4.5-17.1 17.4-20.3 20.2c-11.8 10.5-55.1 30.6-60 34.4q-3.2 38.6-2.5 45.9c0.5 4.7 11.1 96.1 10.8 98.6c-0.3 2.5-53.7 5.8-75 3.4q-21.4-2.4-33.9-6q11.7-67 11.1-75q-1.1-17.5-6.5-56.7l-9.4-19.7c3-6.6 3-31.8 4.1-32.2q11.3-5.1 40-11.5l31.3 1.3q22.8 5.7 39 7.9q10.1 0.6 38.5-10.5z" />
						</g>
					</g>
					<g id="&lt;Group&gt;">
						<g id="&lt;Group&gt;">
							<path id="&lt;Path&gt;" class="s19" d="m929.4 1348.4q-26 2.1-0.8 41.1z" />
						</g>
					</g>
					<path id="&lt;Path&gt;" class="s21" d="m1104 1345.3l3.9-0.5l-2.2 3.2z" />
				</g>
				<g id="&lt;Group&gt;">
					<path id="&lt;Path&gt;" class="s22" d="m1817.3 415.3c0-10.5 8-19.2 18.1-20.4v-243.6h4.9v248.3h-2.4c-8.7 0-15.7 7-15.7 15.7c0 8.6 7 15.7 15.7 15.7c8.6 0 15.6-7.1 15.6-15.7h4.9c0 11.3-9.2 20.5-20.5 20.5c-11.4 0-20.6-9.2-20.6-20.5z" />
				</g>
				<g id="&lt;Group&gt;">
					<path id="&lt;Path&gt;" class="s4" d="m1832.3 276.6h11.5v117.3h-11.5z" />
				</g>
				<g id="&lt;Group&gt;">
					<path id="&lt;Path&gt;" class="s4" d="m1700.4 588.7l-5.9-5.4l143.7-158.2l5.2 6.1z" />
				</g>
				<path id="&lt;Compound Path&gt;" class="s23" d="m2089.8 816.6l-77.7 31.9l-77.6 32l-43-64.2c-36.9 5.1-73.8 4.9-109.7-0.3l-43.3 64.1l-77.5-32.3l-77.5-32.3l15-75.8c-15.4-11.7-30-24.5-43.6-38.4l129.3-139.2c56.7 63 148.9 86.8 231.7 52.7c28.7-11.9 53.4-29.5 73.1-50.9l131.8 136.5c-14.1 14.5-29.4 28-45.8 40.3z" />
				<g id="&lt;Group&gt;">
					<g id="&lt;Group&gt;">
						<path id="&lt;Path&gt;" class="s24" d="m1690.8 1331.8h-109.5l-19.8 19.7v-19.7v-93.8h129.3z" />
					</g>
				</g>
				<g id="&lt;Group&gt;">
					<g id="&lt;Group&gt;">
						<g id="&lt;Group&gt;">
							<path id="&lt;Path&gt;" class="s12" d="m1562.9 1450.6q2.8-6.9 3.3-7.9c0.4-1.1 3.1-2.8 6.4-4.5c3.2-1.6 8.4-2.5 8.9-2.2c0.6 0.4 1.3 0.4 2 1.9q0.7 1.4 0.5 3q1.7 1.4 1.3 3.4q1.6 1.4 0.8 3.6q1.5 1.4 0.7 2.9q-2.7 1.7-3.5 2.6c-0.8 0.9-6.6 4.1-12.7 6.3q-6.4 0.1-7.7-9.1z" />
						</g>
					</g>
					<g id="&lt;Group&gt;">
						<g id="&lt;Group&gt;">
							<path id="&lt;Path&gt;" class="s25" d="m1580 1455.1q-8.1-2.4-7.6-3.4q0.5-1.1 0.4-4.8q4.6 0 7.2 8.2z" />
						</g>
					</g>
					<g id="&lt;Group&gt;">
						<g id="&lt;Group&gt;">
							<path id="&lt;Path&gt;" class="s26" d="m1421.4 1813.2l3.6-11l15 2.4l-2.3 10z" />
						</g>
					</g>
					<g id="&lt;Group&gt;">
						<g id="&lt;Group&gt;">
							<path id="&lt;Path&gt;" class="s26" d="m1560.7 1806.2l0.8 9.1l-16.4 2.7l-0.8-6.1z" />
						</g>
					</g>
					<g id="&lt;Group&gt;">
						<g id="&lt;Group&gt;">
							<g id="&lt;Group&gt;">
								<path id="&lt;Path&gt;" class="s27" d="m1508.8 1642q-2.5 13.1-5.3 27.8c-0.5 2.5-1 5.1-1.5 7.7c-2.7 14-5.5 27.6-6.5 30.4q-2.3 6.4-52.6 98.4q-20.5-1.5-21.3-4.2q42.1-99.9 41.9-103.6q-0.2-3.6 5.1-106.1q39 43.6 40.2 49.6z" />
							</g>
						</g>
					</g>
					<g id="&lt;Group&gt;">
						<g id="&lt;Group&gt;">
							<g id="&lt;Group&gt;">
								<path id="&lt;Path&gt;" class="s27" d="m1531.7 1586.5q19.7 100.7 21.4 108.4q1.6 7.7 9.1 110.9q-4.4 9.1-20.8 5.6q-22.2-110.8-24.1-114.5c-7.3-14.4-43-84.2-46.4-94.2q-3.5-9.9-2.5-21.5q26.6-15 63.3 5.3z" />
							</g>
						</g>
					</g>
					<g id="&lt;Group&gt;">
						<g id="&lt;Group&gt;">
							<g id="&lt;Group&gt;">
								<path id="&lt;Path&gt;" class="s28" d="m1523.4 1456.1q8.7 21.5 10.8 20.9q2.2-0.6 27-29.7q11.3 14.1 9.8 15.7c-2.1 2.3-31.4 51-35.4 50.1q-4-0.9-22-30.6q-1-22.5 9.8-26.4z" />
							</g>
						</g>
					</g>
					<g id="&lt;Group&gt;">
						<g id="&lt;Group&gt;">
							<g id="&lt;Group&gt;">
								<path id="&lt;Path&gt;" class="s29" d="m1486.6 1415.1q22.3 17.1 28.5 23.9c6.2 6.7 23.2 34.9 22 43.3c-4.7 32.4-7 60.1-7.1 82.2c-0.1 19.3 6 24.2 2.2 24.5c-4.4 0.3-60.7 20.7-69 23.2q5.5-67.9 8.2-75.7c2.8-7.9-8.8-89.9 15.2-121.4z" />
							</g>
						</g>
					</g>
					<g id="&lt;Group&gt;">
						<g id="&lt;Group&gt;">
							<path id="&lt;Path&gt;" class="s30" d="m1630.6 1382.7l5 25.3l5 25.2q-28.7-8.9-61.3-2.5l-2.2-11.1l-2.2-11.2q32.6-6.5 55.7-25.7z" />
						</g>
					</g>
					<g id="&lt;Group&gt;">
						<g id="&lt;Group&gt;">
							<path id="&lt;Path&gt;" class="s31" d="m1545.1 1818q12.4-2.4 12.9-2.8c0.4-0.4 3-5.3 5-4.4c1.9 0.9 1.9 6.8 3.8 7.8c1.8 1 16.6 11 18.4 12.8c1.9 1.8 13.1 0.8 14.3 3.9c1.3 3.2 1.4 10.7-15.3 8.9c-16.7-1.8-35.7 1-39.3-1c-3.6-2-0.9-20.4 0.2-25.2z" />
						</g>
					</g>
					<g id="&lt;Group&gt;">
						<g id="&lt;Group&gt;">
							<path id="&lt;Path&gt;" class="s31" d="m1421.2 1813q12.6-0.4 13.1-0.7c0.5-0.3 3.9-4.7 5.7-3.6c1.7 1.2 0.8 7 2.5 8.3c1.7 1.3 14.7 13.6 16.2 15.6c1.5 2.1 12.7 2.9 13.5 6.2c0.7 3.3-0.4 10.7-16.6 6.3c-16.2-4.4-35.4-4.8-38.7-7.3c-3.2-2.5 2.4-20.3 4.3-24.8z" />
						</g>
					</g>
					<g id="&lt;Group&gt;">
						<g id="&lt;Group&gt;">
							<g id="&lt;Group&gt;">
								<path id="&lt;Path&gt;" class="s32" d="m1519.2 1591.2q1.5 6.1 3.9 7.5q2.4 1.3-11.3 14.4q-5.6-12.1-5.4-13.4q0.1-1.2 12.8-8.5z" />
							</g>
						</g>
					</g>
					<g id="&lt;Group&gt;">
						<g id="&lt;Group&gt;">
							<g id="&lt;Group&gt;">
								<path id="&lt;Path&gt;" class="s33" d="m1496.1 1435.5q13.9 6.5 6.1 19.9q-18.7 61.5-18.7 64.8q-0.1 3.2 38.9 74.1l-16.1 9.5q-48.3-70.6-47-78q1.3-7.9 17.3-84.2q5.7-12.6 19.5-6.1z" />
							</g>
						</g>
					</g>
					<g id="&lt;Group&gt;">
						<g id="&lt;Group&gt;">
							<path id="&lt;Path&gt;" class="s34" d="m1528.6 1596.5q5.2 25.9 4.9 33.9c-0.3 7.9-30-12.5-28.5-20.4z" />
						</g>
					</g>
					<g id="&lt;Group&gt;">
						<g id="&lt;Group&gt;">
							<g id="&lt;Group&gt;">
								<g id="&lt;Group&gt;">
									<path id="&lt;Path&gt;" class="s12" d="m1492.3 1391.4q-0.9-9.7 19.3 18.7q-0.5 3.9-0.8 8.5c-0.2 2.5-1 9.7-1.1 12.2c-0.1 3.3 6.1 6.3 15.1 23.9q2.5 4.9-38.2-39.6q6.6-14.1 5.7-23.7z" />
								</g>
							</g>
						</g>
					</g>
					<g id="&lt;Group&gt;">
						<g id="&lt;Group&gt;">
							<g id="&lt;Group&gt;">
								<g id="&lt;Group&gt;">
									<path id="&lt;Path&gt;" class="s12" d="m1525.4 1362.7q5.6 13.2 5.6 16.3c0.1 3-0.7 5.4-0.2 8.9c0.5 3.7 3.6 11.4 3.2 13.5c-0.5 2.6-5.9 1.3-6.6 5.5c-0.8 4.3-4.7 12.2-6.7 12.4c-5 0.4-24.3-7.5-25.5-11.5c-1.3-4.1-8.3-26.6-10.5-30.9c-2.1-4.2 34.1-27.7 37.4-20.9q3.3 6.7 3.3 6.7z" />
								</g>
							</g>
						</g>
					</g>
					<g id="&lt;Group&gt;">
						<g id="&lt;Group&gt;">
							<path id="&lt;Path&gt;" class="s35" d="m1476.1 1372.5q-2.5-11.2 10.3-12.5q8.4-9.8 28.3-8.6q20 1.1 17 27.2q-13.9-2.1-19.9-0.5q-0.7 11.1-0.1 13.9l-7.5-0.7q0.9-9.9-2.8-10.4c-3.6-0.4-4.8 21-11.5 25.7q-0.1-1.5-0.9-3c-1.4-2.4-3.5-6.3-5.3-10.9c-2.9-6.5-6.2-14.5-7.6-20.2z" />
						</g>
					</g>
					<g id="&lt;Group&gt;">
						<g id="&lt;Group&gt;">
							<g id="&lt;Group&gt;">
								<g id="&lt;Group&gt;">
									<path id="&lt;Path&gt;" class="s12" d="m1501.9 1396.9c-4.7 0.1-9.7-12.7-4.9-16.2q6.7-4.9 9.5 2.6c1.9 6.6 0 13.6-4.6 13.6z" />
								</g>
							</g>
						</g>
					</g>
					<g id="&lt;Group&gt;">
						<g id="&lt;Group&gt;">
							<path id="&lt;Path&gt;" class="s36" d="m1494.1 1404.3q0.9 4 2 4.9c1.1 0.9 6.2 5 15 7.8l-0.9 8q-17-6.7-16.1-20.7z" />
						</g>
					</g>
					<g id="&lt;Group&gt;">
						<g id="&lt;Group&gt;">
							<path id="&lt;Path&gt;" class="s37" d="m1577.5 1456.2l-11.1-23.4l7.3-3.4l13 27.6l-2.8 1.4c-2.6 1.2-5.2 0.4-6.4-2.2z" />
						</g>
					</g>
					<g id="&lt;Group&gt;">
						<g id="&lt;Group&gt;">
							<path id="&lt;Path&gt;" class="s13" d="m1581.5 1436q3.3 1 2.5 4.9q1.8 1.7 1.3 3.4q1.7 1.5 0.8 3.6q1.5 1.8 0.7 2.9q-5.1 3.1-6.7 3.2q-1.7 0.1-2.1-2q-3.4 0.9-2.7-2q-3.6 0.4-3.1-2.7l2.5-3.4q-1.1-0.2-1.6-1.6q-0.6-1.4 7.6-5.8q0.3-0.2 0.8-0.5z" />
						</g>
					</g>
					<g id="&lt;Group&gt;">
						<g id="&lt;Group&gt;">
							<path id="&lt;Path&gt;" class="s37" d="m1552.3 1413l28.6-6.5l4.6 23.5l-28.7 5.4z" />
						</g>
					</g>
					<g id="&lt;Group&gt;">
						<g id="&lt;Group&gt;">
							<path id="&lt;Path&gt;" class="s12" d="m1566.4 1442.5q6.4-0.2 9.9 1.3c0.8 0.3 1.5 0.7 1.5 1.6c0 0.9-1.2 2-4 2.2q-2.8 0.2-6.2 1.7q-2.9-0.6-1.2-6.8z" />
						</g>
					</g>
					<g id="&lt;Group&gt;">
						<g id="&lt;Group&gt;">
							<path id="&lt;Path&gt;" class="s38" d="m1503.5 1669.8c-0.5 2.5-1 5.1-1.5 7.7l-16.3-43.2q2.2 4.3 17.8 35.5z" />
						</g>
					</g>
				</g>
				<g id="&lt;Group&gt;">
					<g id="&lt;Group&gt;">
						<path id="&lt;Path&gt;" class="s39" d="m1713.6 1845.3l-7.8-2.5l85.7-263.2h280.7l-86.5 265.7l-7.8-2.5l83.1-255h-263.5z" />
					</g>
					<g id="&lt;Group&gt;">
						<path id="&lt;Path&gt;" class="s39" d="m1879.4 1845.3l-86.6-265.7h280.7l85.7 263.2l-7.7 2.5l-83.9-257.5h-263.5l83 255z" />
					</g>
					<g id="&lt;Group&gt;">
						<path id="&lt;Path&gt;" class="s39" d="m1772.9 1659.9h322.6v8.2h-322.6z" />
					</g>
					<g id="&lt;Group&gt;">
						<path id="&lt;Path&gt;" class="s39" d="m1739.7 1748.6h385.9v8.2h-385.9z" />
					</g>
				</g>
				<g id="&lt;Group&gt;">
					<g id="&lt;Group&gt;">
						<g id="&lt;Group&gt;">
							<g id="&lt;Group&gt;">
								<path id="&lt;Path&gt;" class="s40" d="m2072.4 1081.6q1.8-6.3-1-8.9c-2.4-2.1-4-6.6-4.5-8c-0.7-1.9-4.8-6.8-2.5-7.6c2.4-0.9 7.2 7.8 8.6 9.4c1.4 1.6 3-7.8 4.6-9.3c1.7-1.5 17.1 2 15.2 8.3c-1.8 6.4-7.9 11.9-8 13.1q-0.1 1.2-1.1 4.6z" />
							</g>
						</g>
					</g>
					<g id="&lt;Group&gt;">
						<g id="&lt;Group&gt;">
							<g id="&lt;Group&gt;">
								<path id="&lt;Path&gt;" class="s40" d="m2076.8 1058.6q6.9-19 8.4-19.9c1.5-0.8 2.5-0.4 2 1.4q-0.6 1.8-6.1 18.5q11.9-21.1 13-22.1c0.6-0.5 2.6 0.2 2.4 1.2q-0.2 1-10.8 22.5q11.1-19.6 12.3-20.2c1-0.5 2.6 0.6 1.9 2.2q-0.7 1.5-10 20.3q9-13.8 10.2-13.7c0.8 0.1 2.6 0.6 0.1 4.1q-2.4 3.5-7.3 12.3z" />
							</g>
						</g>
					</g>
					<g id="&lt;Group&gt;">
						<g id="&lt;Group&gt;">
							<g id="&lt;Group&gt;">
								<path id="&lt;Path&gt;" class="s40" d="m1810.6 1265q-3.3 1.5-4.4 1.7c-1.2 0.3-5.9 7.1-11.9 9.7c-6 2.6-11.5-12.2-10.2-14c1.2-1.8 10.3-4.6 8.5-5.8c-1.7-1.1-11-4.8-10.4-7.3c0.5-2.4 5.9 1.1 7.9 1.5c1.4 0.3 6.1 1.3 8.5 3.4q2.9 2.5 9-0.2z" />
							</g>
						</g>
					</g>
					<g id="&lt;Group&gt;">
						<g id="&lt;Group&gt;">
							<g id="&lt;Group&gt;">
								<path id="&lt;Path&gt;" class="s40" d="m1794 1276.5q-8.1 6-11.3 8.9c-3.1 2.9-3.9 1.2-4 0.4q-0.3-1.2 12.2-11.9q-17.5 11.7-18.9 12.6c-1.4 0.9-2.7-0.6-2.4-1.7q0.5-1.2 18.5-14.8q-20 13.3-21 13.7c-0.9 0.3-1.9-1.6-1.4-2.3q0.8-1.2 20.2-15.8q-15.9 7.7-17.6 8.5c-1.7 0.8-2.2-0.1-1.6-1.7q0.7-1.7 18.6-10.9z" />
							</g>
						</g>
					</g>
					<g id="&lt;Group&gt;">
						<g id="&lt;Group&gt;">
							<path id="&lt;Path&gt;" class="s14" d="m1862.7 1217.5c6.3-4.8 18.4-15.6 22-19.2c1-1 18.8-16.3 21.6-18.9c2.8-2.7 14.4-12.7 22.5-16.5q8-3.9 13.3 0.9q12.6 17.7-18.4 34.2q-12.4 11.1-17 15.2q0 0 0 0q-1 0.9-1.7 1.5c-2.4 1.8-5.1 3.8-7.8 6q-12.8 10.1-15.3 11.1q-9.4 8.8-71.2 34.3l-9.5-11.8q50.4-28.5 61.5-36.8z" />
						</g>
					</g>
					<g id="&lt;Group&gt;">
						<g id="&lt;Group&gt;">
							<g id="&lt;Group&gt;">
								<g id="&lt;Group&gt;">
									<g id="&lt;Group&gt;">
										<g id="&lt;Group&gt;">
											<path id="&lt;Path&gt;" class="s32" d="m1977.7 1128.8q0 0 0 0c-2.4 5-5.3 9.8-8.4 13.9c-10.9 14-36.4 14.3-36.8-24.1c0-7.3 0.9-13.2 2.3-18q5.2-17.1 17.5-19.9c9-0.5 24.9 1.7 30.1 13.5c3.8 8.4 1.1 22.2-4.7 34.6z" />
										</g>
									</g>
								</g>
							</g>
						</g>
					</g>
					<g id="&lt;Group&gt;">
						<g id="&lt;Group&gt;">
							<g id="&lt;Group&gt;">
								<g id="&lt;Group&gt;">
									<g id="&lt;Group&gt;">
										<g id="&lt;Group&gt;">
											<path id="&lt;Path&gt;" class="s41" d="m1977.7 1128.8q0 0 0 0q-1.3 0.4-6-9.1c-1-1.9-1.7-0.6-2.1-1.4l-7.5-2.9q7.4-12.4-2.3-15.8q-9.9-3.6-25 1q3.3-30.5 17.5-19.9c9-0.5 28.4 0 33.6 11.8c3.8 8.4-2.4 23.9-8.2 36.3z" />
										</g>
									</g>
								</g>
							</g>
						</g>
					</g>
					<g id="&lt;Group&gt;">
						<g id="&lt;Group&gt;">
							<g id="&lt;Group&gt;">
								<g id="&lt;Group&gt;">
									<g id="&lt;Group&gt;">
										<g id="&lt;Group&gt;">
											<path id="&lt;Path&gt;" class="s32" d="m1968.1 1112.5c0.5-2.5 5.6-4.7 7.7 0.8c2.2 5.5-5 11.4-6.9 10.1c-1.9-1.2-1.8-6.6-0.8-10.9z" />
										</g>
									</g>
								</g>
							</g>
						</g>
					</g>
					<g id="&lt;Group&gt;">
						<g id="&lt;Group&gt;">
							<path id="&lt;Path&gt;" class="s42" d="m1892.1 1560.3c-0.1 1.2 1.2 11.7-0.4 15.6c-1.7 4-3.3 1.6-18.3 9.5c-10.1 5.3-35.6 1.8-35.5-3.4c0-5.3 4.7-9.8 13.5-11.7q8.8-1.9 19.3-10.5q21.5-1.1 21.4 0.5z" />
						</g>
					</g>
					<g id="&lt;Group&gt;">
						<g id="&lt;Group&gt;">
							<path id="&lt;Path&gt;" class="s42" d="m1888.6 1554.4q0.7 3 1.2 5.8c0.5 3.4-19.2 1.2-19.3 1.1q-0.2-0.1 0.9-4.4z" />
						</g>
					</g>
					<g id="&lt;Group&gt;">
						<g id="&lt;Group&gt;">
							<path id="&lt;Path&gt;" class="s42" d="m2017.8 1567.3c-0.2 1.2 1.2 11.4-0.6 15c-1.9 3.6-5.2 3.3-14.3 9c-13.8 8.7-33.5 2.2-33.1-2.7c0.4-5 3.4-8.1 11.6-10.1q8.3-1.9 14.8-11.8q21.8-0.8 21.6 0.6z" />
						</g>
					</g>
					<g id="&lt;Group&gt;">
						<g id="&lt;Group&gt;">
							<path id="&lt;Path&gt;" class="s43" d="m2015.2 1561.5q1.1 3.3 1.2 5.9c0.1 3.2-18.1 0-18.3-0.1q-0.1-0.1 0.3-4.2z" />
						</g>
					</g>
					<g id="&lt;Group&gt;">
						<g id="&lt;Group&gt;">
							<path id="&lt;Path&gt;" class="s29" d="m2006.5 1300.9c15.7 40.9 9.2 142.3 9.8 151.5q1.8 24.3 5.8 115.1q-5.1 4-30.4 0q-7.4-101.9-10.2-114.8c-2.8-12.9-15.3-89.1-19-93.6c-3.8-4.5-42.7 70-46.8 86.4q-4.4 17.6-20.6 116q-28.8 1.6-27.8-3.2c1-4.8 6.8-82.9 8.3-99.4c1.2-13.2 6.4-37.4 15.7-64.8q7.1-20.8 31.9-82.2q75.1-32.6 83.3-11z" />
						</g>
					</g>
					<g id="&lt;Group&gt;">
						<path id="&lt;Path&gt;" class="s14" d="m1976.3 1157.7q22.5 5.5 39.9 2.3q5.3-1-0.4 39.7q-6.4 42.7-8.8 62.2q-1.8 15.2 9.2 63.1q-62.8 13.1-99.9-3.7c1.9-15.4 7.6-61.7 4.6-72.8c-3-11.1-4.9-40.5-4.6-47.7c0.4-7.1 6.4-33.6 9.4-36.3q2.8-2.4 24.2-6.8z" />
					</g>
					<g id="&lt;Group&gt;">
						<path id="&lt;Path&gt;" class="s12" d="m1946.6 1156q0.1-0.4 0.1-0.7c0.5-1.7 0.8-3.3 0.9-4.8q0-0.2 0.1-0.4c0.2-1.9 0.1-3.3-0.3-3.6q32.7-28.7 28.4-14.6q-4.3 14-2.1 26q-22 9.7-28.6 4.8c0-4.2 0.2-2 1.5-6.7z" />
					</g>
					<g id="&lt;Group&gt;">
						<path id="&lt;Path&gt;" class="s44" d="m1947.6 1150.5q12.9 5.1 23.7-10.6c-0.2 0.5-8.8 17.5-24.6 15.4c0.5-1.7 0.8-3.4 0.9-4.8z" />
					</g>
					<g id="&lt;Group&gt;">
						<path id="&lt;Path&gt;" class="s12" d="m1976.3 1157.7c-7.8 9.5-22.1 11-29.1 9.8q-7-1.3-2-8.8q10.6-5 31.1-1z" />
					</g>
					<g id="&lt;Group&gt;">
						<path id="&lt;Path&gt;" class="s14" d="m1981.4 1198c-2.2-4.6 3.4-16.6 13-25c7.5-6.6 15.6-10.7 19.5-12.2c4-1.5 30.8-10.1 32.1-13.5c1.7-4.2 8.8-25.2 9.4-27q1.1-3.6 14.6-45l16.7 3.8q-12.5 59.8-14 67.5c-1.1 5.1-1.9 14-13.2 21.2c-11.4 7.3-36.5 25.8-39 26.7c-2.5 1-29.2 24-39.1 3.5z" />
					</g>
				</g>
				<g id="&lt;Group&gt;">
					<path id="&lt;Path&gt;" class="s45" d="m2366.6 1806.3c1 0.7 4.2 19.7 4.2 21.6c0 1.9-0.3 2.5-21.6 9c-21.3 6.5-45 2.7-46.1-5c-1.2-7.7 6.4-7.5 13.6-8.8c7.2-1.3 13.7-7.1 18.6-10.7q4.8-3.5 9.3-4.9q21.1-1.8 22-1.2z" />
				</g>
				<g id="&lt;Group&gt;">
					<path id="&lt;Path&gt;" class="s45" d="m2486.8 1794.4q9.2 25.1 1.2 28.1c-13 4.9-46.8 3.7-48.6 2.3c-0.2-0.3-3.2-1.5-2.7-6.1c0.5-4.7 9.7-6.9 16.8-8.4q7.1-1.4 15.3-9.9z" />
				</g>
				<g id="&lt;Group&gt;">
					<path id="&lt;Path&gt;" class="s32" d="m2395.4 1435.2q-24.2 26.9-23.4 19c0.5-4.8-1.7-13.1-3.6-19q-1.2-3.8-2.3-6.6q0 0 0-0.1c0.2-0.3 26.3-37.3 25.4-25.8q-1 11.7 3.9 32.5z" />
				</g>
				<g id="&lt;Group&gt;">
					<path id="&lt;Path&gt;" class="s29" d="m2444.1 1586c3 17.5-16.4 60-18 73.2c-1.6 13.1 0.7 24.9 10.7 36.2q9.9 11.4 51.8 97.3c-1.2 6.3-31.1 13.5-31.7 12.1c-0.6-1.3-53.4-84.3-56.7-89.1c-2.5-3.6-20.8-27.5-22.5-34.1q-1.8-6.6 8.8-43.6c1.8-18.4 54.7-69.5 57.6-52z" />
				</g>
				<g id="&lt;Group&gt;">
					<path id="&lt;Path&gt;" class="s29" d="m2442.9 1579.4q3.3 9.4 0 21.8c-3.6 13.6-65.2 49.7-79.2 56c-14 6.2-31.5 10.4-26.4 27.7q5.1 17.4 40.2 118.3q-5.7 7.2-37.9 4.5c-0.6-9.3-48.7-115.6-49.9-121c-1.2-5.4-10.1-21.8-2.2-32.8q8-11.1 79.3-65.1q58.9-20.5 76.1-9.4z" />
				</g>
				<g id="&lt;Group&gt;">
					<path id="&lt;Path&gt;" class="s46" d="m2363 1479.6q-47.8-16.7-47-27.1q0.8-10.4 42.8-61.6l14.2 9.2l-20.4 53.5l36.2 13.7z" />
				</g>
				<g id="&lt;Group&gt;">
					<path id="&lt;Path&gt;" class="s14" d="m2366.5 1455.9q0.9-4-0.4-12.3q2.4-4.5 26.5-23.4q0.1 2.4 5.6 13.6z" />
				</g>
				<g id="&lt;Group&gt;">
					<path id="&lt;Path&gt;" class="s14" d="m2433 1528.7q1.6 12.6 17.8 52.1q-21.9 13.2-45.5 21q-22.6 7.5-41 12.5c4.8-8.4-3.4-74-4-86.5q-0.6-12.5-11.5-60c4.6-1.5 29.9-26.9 37.2-31.7q7.4-4.7 12.2-2.3c20 16 33.1 81.6 34.8 94.9z" />
				</g>
				<g id="&lt;Group&gt;">
					<path id="&lt;Path&gt;" class="s32" d="m2337 1403.1q-3.9-4.1-4.5-13.6q-0.7-10.3-0.3-6.7z" />
				</g>
				<g id="&lt;Group&gt;">
					<path id="&lt;Path&gt;" class="s47" d="m2362.6 1398.4q-11.7-6-17.6-6q-6.2 0-12.5 4.3q-2.6-9.6-0.4-13.4q2.3-3.7 30.5 15.1z" />
				</g>
				<g id="&lt;Group&gt;">
					<path id="&lt;Path&gt;" class="s48" d="m2383.1 1409.9q-3.1 17.2-14.6 25.3q-0.1 0-0.1 0q-1.2-3.8-2.3-6.6q0 0 0-0.1c0.2-0.1 11.9-6.5 17-18.6z" />
				</g>
				<g id="&lt;Group&gt;">
					<path id="&lt;Path&gt;" class="s16" d="m2354.1 1376.7q-7.8 23.3-8.6 28.8q-0.8 5.4-16.9-5.1q7.3-19.8 8.9-29.5q1.6-9.7 16.6 5.8z" />
				</g>
				<g id="&lt;Group&gt;">
					<path id="&lt;Path&gt;" class="s14" d="m2404.5 1475.2q-2.8 9.9-17.6 13.4q-70.3-2.7-86.1-13.3q-4.3-2.9 32.3-99.6q8.5 0.8 22.2 6.4q-16.3 65.1-14.9 67.6c1.1 1.9 34.6 2 49.5 2.8c6.7 0.4 13.8 7.4 15.1 14.1c0.5 2.5 0.4 5.4-0.5 8.6z" />
				</g>
				<g id="&lt;Group&gt;">
					<path id="&lt;Path&gt;" class="s16" d="m2352.9 1343.4q3.4-0.8 6 1.8q2.7 0.1 5.7 2.8c1.4-0.3 3 0.1 4.4 1.6c1.1 1 0.6 5.9 0.6 6.4c-0.3 1.3 0.3 3.5-0.4 5.9q-0.1 0.4-0.3 0.8q-1.1 2.8-14.8 14l-7.3-2.6l-9.3-3.2q1.7-11.2 2.6-14.3c0.8-3.1 2.5-5.4 3.2-6.5c0.1-0.2 0.3-0.7 0.5-1.2q0.7-1.6 1.5-3.8q0.5-1.2 2.6-3q2-1 5 1.3z" />
				</g>
				<g id="&lt;Group&gt;">
					<path id="&lt;Path&gt;" class="s12" d="m2381.4 1361.6c7.4 10.4 10.8 39.4 6.8 47.3c-4.1 7.9-23.4 21.8-28.3 22.8c-4.9 0.9-13.4-13.9-15-14.8c-1.6-1-7.9-0.7-7.7-2.9c0.2-2.3 2.5-16.4-0.7-17.2q-4-0.9-1-15.5c5.4-25.5 38.5-30.2 45.9-19.7z" />
				</g>
				<g id="&lt;Group&gt;">
					<path id="&lt;Path&gt;" class="s14" d="m2334.9 1383.5q-5.1-3.7-2-20.2c3.5-19 38.6-8.1 41.4-8.2c2.9-0.1 20.8-1.8 19.6 24.4q-1.2 28.2-2.5 27.7q-6.1-15-11.1-14.6q-5.5 0.3-14.3 1.7q0.9-13.1-6.5-12.7c-7.4 0.4-18.4-2.8-24.6 1.9z" />
				</g>
				<path id="&lt;Path&gt;" class="s12" d="m2369.3 1395.1c-0.1-1.5-0.4-8.1 4.7-8.6c5.1-0.6 5.8 7.5 3.4 13c-2.4 5.6-7.7 3.8-8.1-4.4z" />
				<path id="&lt;Path&gt;" class="s24" d="m481.6 1294.8h100.2v72.6v15.3l-15.3-15.3h-84.9z" />
				<g id="&lt;Group&gt;">
					<g id="&lt;Group&gt;">
						<path id="&lt;Path&gt;" class="s49" d="m703.8 1796.7l-20.1-134l3.9-0.6l20.1 134z" />
					</g>
					<g id="&lt;Group&gt;">
						<path id="&lt;Path&gt;" class="s49" d="m679.2 1796.7l-20.1-134l3.9-0.6l20.1 134z" />
					</g>
					<g id="&lt;Group&gt;">
						<path id="&lt;Path&gt;" class="s49" d="m558.1 1796.7l-3.9-0.6l20.2-134l3.8 0.6z" />
					</g>
					<path id="&lt;Path&gt;" class="s50" d="m636.4 1664.1l25.1-168.8q16.7-0.9 44.3 2.8l-15.8 166z" />
					<path id="&lt;Path&gt;" class="s50" d="m690 1664.1h-53.6v-8.5h53.6z" />
					<path id="&lt;Path&gt;" class="s50" d="m601.4 1657.3l-8.4-158.2q69.9-7.6 112.8-1z" />
					<path id="&lt;Path&gt;" class="s35" d="m630.2 1482.7q-40.6 36.9-40.8 26.5c-0.4-16.7 7.2-24.9 13.3-29.9c6.1-4.9 6.5-19.8 3.7-29.5c-2.8-9.7-3.7-23.6-0.4-31.3c3.3-7.7 20.8-21.9 41.4-12.1q20.6 9.9 9.8 41.5z" />
					<path id="&lt;Path&gt;" class="s51" d="m621.5 1760.5q3.4-5.5 7.9-7.6c4.6-2.1 14 5.3 14.8 9.4c2 9.9 14 27.8 8.7 35.5c-5.4 7.7-17.4 15.4-20.6 14.1q-3.2-1.3-2.6-23.7q3.5-19.7-8.2-27.7z" />
					<g id="&lt;Group&gt;">
						<path id="&lt;Path&gt;" class="s52" d="m629.4 1752.9q4 3.2 7.9 9.7c3.9 6.4 8 18.7 6.7 24.8c-1.4 6.1-11.5 11.2-12.8 10.1c-1.3-1.2-1.6-17.5-3.7-23.5q-2-5.9-6-13.5q1-6.2 7.9-7.6z" />
					</g>
					<path id="&lt;Path&gt;" class="s51" d="m644.2 1762.3l10.9 15.9l-2.1 1.4l-8.4-12.2z" />
					<path id="&lt;Path&gt;" class="s52" d="m661.5 1588.8l-61 59.4l26.1 76.5q3.2 53.9-1.9 43.1c-5.1-10.7-31.2-58.6-35.7-68.6c-4.5-10-13.2-27.1-15.6-31.2c-2.3-4.2-8.9-20.4-9.1-30.8c-0.3-10.4 35.5-28.3 40.8-34.9q5.3-6.5 0-15.5q49-14.4 56.4 2z" />
					<path id="&lt;Path&gt;" class="s33" d="m653.7 1485.5c13.7 1.9 26.1 8.7 28.4 18.7c2.4 10 19.3 57.5 15.4 64.1q-4 6.7-36.9 14.7l-12.4-45.1q-65.2-7.2-65.2-15c0-7.8 14.9-25.8 21.6-29.7q6.8-3.9 23.7-7.7q11.7-1.9 25.4 0z" />
					<path id="&lt;Path&gt;" class="s12" d="m668.2 1588.3q-1.1 7.7 2 11c3.1 3.3 17.6 22.3 9.9 41.1q-7 17.2-20.6 16.8h-21.1q6.1 31 4.1 51.4c-2 20.4-11.3 67-11.5 69.3c-0.1 2.4-8.9 9.8-11.4 6q-0.3-28-1.6-38.6c-1.4-10.6-7.3-53-9-59.3c-1.8-6.2-12.2-25.3-12.2-27.2c0-2-10.1-32.7 12-40.6c22.2-7.8 30-29.7 59.4-29.9z" />
					<path id="&lt;Path&gt;" class="s53" d="m620.1 1778.9q6-2.2 10.9-1c4.9 1.3 7.6 12.9 5.6 16.7c-4.7 8.9-6.6 30.3-15.6 33c-8.9 2.6-23.2 1-24.8-2q-1.7-3.1 12.9-20q15.1-13.2 11-26.7z" />
					<g id="&lt;Group&gt;">
						<path id="&lt;Path&gt;" class="s12" d="m631 1777.9q1.1 5 0.1 12.5c-1 7.5-5.5 19.6-10.4 23.5c-4.9 3.9-16 1.5-16.3-0.2c-0.3-1.7 9.7-14.6 11.9-20.5q2.1-5.9 3.8-14.3q4.7-4.3 10.9-1z" />
					</g>
					<path id="&lt;Path&gt;" class="s53" d="m636.6 1794.6l-1.5 19.2l-2.5-0.2l1.2-14.9z" />
					<path id="&lt;Path&gt;" class="s14" d="m680.1 1640.4q-6.6 17.4-20.6 16.8h-21.1q-8.8-13.9-30.4-16.3c-4.8-0.5-10.2-0.5-16.2 0.4q-0.1 0-0.2 0c-28.7 4.2-23.2 14.8-23.1 15c-2.3-5.8-4.8-15-4.2-20c2.7-22.7 35.5-27.4 40.8-34q5.3-6.5 0-15.5q49-14.4 56.4 2c2.2-0.3 7.7-3.5 10-3.5q2.5 5.4 4.2 10.2c1.5 4.3 11.6 25.9 4.4 44.9z" />
					<path id="&lt;Path&gt;" class="s54" d="m659.8 1515.6l7.3 67.4h-95.6l-7.2-67.4z" />
					<path id="&lt;Path&gt;" class="s54" d="m674.7 1583h-16v-6h16z" />
					<path id="&lt;Path&gt;" class="s55" d="m809.9 1592.2h-304.2v-9.2h304.2z" />
					<path id="&lt;Path&gt;" class="s12" d="m638.8 1411.8q21.4 6.4 18.4 36.1c-3.1 29.7-17.1 28.2-18.4 28.4c-1.3 0.2-17.9 1.3-23.1-34.8q-5.3-36 23.1-29.7z" />
					<path id="&lt;Path&gt;" class="s12" d="m649 1470.8q-1.1 9.8 0.8 16c1.9 6.1-24.9 6.2-24.9 1.2c0-5.7 2.7-10.5 0.2-20.3q-2.6-9.8 23.9 3.1z" />
					<path id="&lt;Path&gt;" class="s35" d="m615 1451.8c-2-10.1-6.3-48 21.3-41.5q27.6 6.5 20.9 37.6q-12.3-4.3-23.9-22.8q-12.5 11.8-18.3 26.7z" />
					<path id="&lt;Path&gt;" class="s44" d="m628.2 1472.1q8.5 8.8 19.3 0.9q-0.9 5.6-8.7 6.4q-7.7 0.7-10.6-7.3z" />
					<path id="&lt;Path&gt;" class="s56" d="m634.2 1408.3q12.4 0 16.5 10.1q-6.2-9-16.5-8.5q-10.4 0.5-16.5 12.4q4-14 16.5-14z" />
					<path id="&lt;Path&gt;" class="s12" d="m652.5 1485.3q-0.3 20.6-16.6 21.2q-16.4 0.6-13-19.7q12-4.8 29.6-1.5z" />
					<path id="&lt;Path&gt;" class="s57" d="m803.2 1592.2h6.7v231.9h-6.7z" />
					<path id="&lt;Path&gt;" class="s57" d="m505.7 1592.2h6.7v231.9h-6.7z" />
				</g>
				<g id="&lt;Group&gt;">
					<g id="&lt;Group&gt;">
						<path id="&lt;Compound Path&gt;" fill-rule="evenodd" class="s33" d="m1318.9 562.4c-6.6-1.9-12.2-5.7-16.2-10.8c-4.4-5.8-6.1-12.6-4.7-19.3c1.8-13.2 0.6-27.5-0.8-37.4c-13.3-16-17.8-37.4-12-57.4c9.7-33.3 44.5-52.4 77.7-42.8c33.2 9.6 52.4 44.5 42.8 77.7c-5.2 18.1-18.1 32.7-35.4 40.1c-7.2 11.5-12.4 22.3-15.3 32.2c-3 13.5-18.1 21.7-33.8 18.3q-1.2-0.3-2.3-0.6zm42.6-162.8c-30.5-8.8-62.5 8.8-71.3 39.3c-5.4 18.6-1.2 38.5 11.4 53.3l0.4 0.5l0.1 0.8c1.5 10.3 2.9 25.5 1 39.6l-0.1 0.2c-1.1 5.2 0.3 10.5 3.8 15.2c3.6 4.7 9.1 8.1 15.5 9.5c12.9 2.8 25.4-3.7 27.7-14.5v-0.1v-0.1c3.2-10.5 8.7-22 16.4-34.2l0.4-0.7l0.7-0.3c16.3-6.8 28.4-20.3 33.3-37.1c8.8-30.5-8.8-62.5-39.3-71.4z" />
					</g>
					<g id="&lt;Group&gt;">
						<path id="&lt;Path&gt;" class="s33" d="m1311.9 539.1l6-68.6l11.5 14.5l10.7-7.8l5.6 10.5l15.3-8.3l-22 65.4l-4.8-1.7l17.8-52.9l-8.5 4.5l-5.2-9.9l-9.8 7.2l-6.6-8.3l-4.9 55.8z" />
					</g>
					<g id="&lt;Group&gt;">
						<path id="&lt;Path&gt;" class="s33" d="m1340.4 579.1l-43.5-9.4l3.8-17.6l43.5 9.5z" />
					</g>
					<g id="&lt;Group&gt;">
						<path id="&lt;Path&gt;" class="s33" d="m1349 573.4l-57.5-12.5l6.1-28.2l57.5 12.5z" />
					</g>
				</g>
				<g id="&lt;Group&gt;">
					<g id="&lt;Group&gt;">
						<g id="&lt;Group&gt;">
							<g id="&lt;Group&gt;">
								<path id="&lt;Path&gt;" class="s58" d="m522.2 1004.9l-3.1-1.1l26-75.7l58.1-16.1l20-82.9l44.7-20.4l9.3-64.4l3.3 0.4l-9.6 66.3l-44.9 20.4l-20.1 83.3l-58.3 16.1z" />
							</g>
						</g>
					</g>
					<g id="&lt;Group&gt;">
						<g id="&lt;Group&gt;">
							<path id="&lt;Path&gt;" class="s9" d="m611.3 907.7c3 3.7 2.6 9.3-1.1 12.4c-3.7 3.1-9.3 2.6-12.4-1.1c-3.1-3.7-2.6-9.3 1.1-12.3c3.7-3.1 9.3-2.7 12.4 1z" />
						</g>
					</g>
					<g id="&lt;Group&gt;">
						<g id="&lt;Group&gt;">
							<path id="&lt;Compound Path&gt;" fill-rule="evenodd" class="s58" d="m611.2 921.3c-4.4 3.7-10.9 3.1-14.6-1.3c-3.7-4.4-3.1-10.9 1.3-14.6c4.4-3.7 10.9-3.1 14.6 1.3c3.7 4.4 3.1 10.9-1.3 14.6zm-11.2-13.4c-3 2.5-3.4 7-0.9 10c2.5 3 7 3.4 10 0.9c3-2.5 3.4-7 0.9-10c-2.5-3-7-3.4-10-0.9z" />
						</g>
					</g>
					<g id="&lt;Group&gt;">
						<g id="&lt;Group&gt;">
							<path id="&lt;Path&gt;" class="s9" d="m631.5 825.1c3.1 3.7 2.6 9.2-1.1 12.3c-3.7 3.1-9.2 2.6-12.3-1.1c-3.1-3.7-2.6-9.2 1.1-12.3c3.7-3.1 9.2-2.6 12.3 1.1z" />
						</g>
					</g>
					<g id="&lt;Group&gt;">
						<g id="&lt;Group&gt;">
							<path id="&lt;Compound Path&gt;" fill-rule="evenodd" class="s58" d="m631.5 838.7c-4.4 3.7-11 3.1-14.7-1.3c-3.6-4.4-3-11 1.3-14.6c4.4-3.7 11-3.1 14.7 1.3c3.6 4.4 3.1 10.9-1.3 14.6zm-11.3-13.4c-3 2.5-3.4 7-0.8 10c2.5 3 7 3.4 10 0.9c3-2.5 3.4-7 0.9-10c-2.6-3-7-3.4-10.1-0.9z" />
						</g>
					</g>
					<g id="&lt;Group&gt;">
						<g id="&lt;Group&gt;">
							<path id="&lt;Path&gt;" class="s9" d="m675.5 804.2c3.1 3.7 2.7 9.2-1.1 12.3c-3.7 3.1-9.2 2.6-12.3-1.1c-3.1-3.7-2.6-9.2 1.1-12.3c3.7-3.1 9.2-2.6 12.3 1.1z" />
						</g>
					</g>
					<g id="&lt;Group&gt;">
						<g id="&lt;Group&gt;">
							<path id="&lt;Compound Path&gt;" fill-rule="evenodd" class="s58" d="m675.5 817.8c-4.4 3.7-11 3.1-14.6-1.3c-3.7-4.4-3.1-11 1.3-14.6c4.4-3.7 10.9-3.1 14.6 1.3c3.7 4.3 3.1 10.9-1.3 14.6zm-11.2-13.4c-3 2.5-3.4 7-0.9 10c2.5 3 7 3.4 10 0.9c3-2.6 3.4-7 0.9-10c-2.5-3-7-3.4-10-0.9z" />
						</g>
					</g>
					<g id="&lt;Group&gt;">
						<g id="&lt;Group&gt;">
							<path id="&lt;Path&gt;" class="s9" d="m553.4 924.6c3.1 3.7 2.6 9.2-1.1 12.3c-3.7 3.1-9.2 2.6-12.3-1.1c-3.1-3.7-2.6-9.2 1.1-12.3c3.7-3.1 9.2-2.6 12.3 1.1z" />
						</g>
					</g>
					<g id="&lt;Group&gt;">
						<g id="&lt;Group&gt;">
							<path id="&lt;Compound Path&gt;" fill-rule="evenodd" class="s58" d="m553.4 938.2c-4.4 3.6-11 3.1-14.7-1.3c-3.6-4.4-3.1-11 1.3-14.7c4.4-3.6 11-3 14.7 1.3c3.6 4.4 3.1 11-1.3 14.7zm-11.3-13.4c-3 2.5-3.4 7-0.8 10c2.5 3 7 3.4 10 0.9c3-2.6 3.4-7 0.8-10.1c-2.5-3-7-3.4-10-0.8z" />
						</g>
					</g>
				</g>
				<path id="&lt;Path&gt;" class="s59" d="m2215.2 785.7h140.7v9.9h-140.7z" />
				<path id="&lt;Path&gt;" class="s59" d="m2215.2 804.3h140.7v41.5h-140.7z" />
				<path id="&lt;Path&gt;" class="s59" d="m2149.1 859.7h83v6.2h-83z" />
				<path id="&lt;Path&gt;" class="s59" d="m2149.1 868.6h83v16.8h-83z" />
				<path id="&lt;Path&gt;" class="s60" d="m2379 732.6h6.2v116.2h-6.2z" />
				<g id="&lt;Group&gt;">
					<g id="&lt;Group&gt;">
						<g id="&lt;Group&gt;">
							<g id="&lt;Group&gt;">
								<path id="&lt;Path&gt;" class="s61" d="m2379.2 1136.2l-101.3-56.6l34.8-2.3z" />
							</g>
						</g>
					</g>
					<g id="&lt;Group&gt;">
						<g id="&lt;Group&gt;">
							<g id="&lt;Group&gt;">
								<path id="&lt;Path&gt;" class="s62" d="m2321.9 1085.4l26.1 0.7l31.2 50.1z" />
							</g>
						</g>
					</g>
					<g id="&lt;Group&gt;">
						<g id="&lt;Group&gt;">
							<g id="&lt;Group&gt;">
								<path id="&lt;Path&gt;" class="s63" d="m2379.2 1136.2l-80-30.8l2-12.8z" />
							</g>
						</g>
					</g>
				</g>
				<g id="&lt;Group&gt;">
					<path id="&lt;Compound Path&gt;" class="s64" d="m632.3 1191.3c-0.1-0.7-2.4-16.5-2.4-40.7q0-3.8 0.1-7.9l8 0.1q-0.1 4.1-0.1 7.8c0 23.5 2.3 39.4 2.3 39.5zm9.9-95.7l-7.9-1.3c2.7-16.7 6.7-32.6 11.8-47.2l7.6 2.6c-5 14.2-8.8 29.7-11.5 45.9zm1639.1-36.1c-0.4-0.4-10.3-11.5-32.7-25.3l4.2-6.8c23.4 14.4 34 26.4 34.5 26.9zm-689.3-24.8v-8c16.1 0 32.1-0.4 47.8-1.1l0.4 8c-15.8 0.7-32 1.1-48.2 1.1zm-48.1-0.9c-15.7-0.6-31.9-1.6-48.1-2.9l0.7-7.9c16.1 1.2 32.1 2.2 47.7 2.8zm144.4-3.7l-0.8-7.9c15.9-1.5 31.8-3.5 47.5-5.7l1.1 7.9c-15.7 2.3-31.8 4.2-47.8 5.7zm-240.3-3.8c-15.5-1.7-31.5-3.8-47.8-6.1l1.2-7.9c16.1 2.3 32.1 4.4 47.5 6.1zm335.6-10.1l-1.6-7.9c11.5-2.2 23.1-4.7 34.5-7.4q6.2-1.5 12.3-2.9l1.8 7.8q-6.1 1.4-12.3 2.8c-11.5 2.8-23.1 5.3-34.7 7.6zm422.8-3.4c-14-5.7-29.2-10.8-45-14.9l2-7.8c16.2 4.3 31.7 9.4 46 15.3zm-853.7-0.1c-15.2-2.5-30.7-5.3-47.3-8.4l1.5-7.9c16.6 3.1 32 5.9 47.2 8.5zm-678.8-5.6l-6.8-4.3c8.9-14.1 19.5-26.7 31.4-37.5l5.4 6c-11.4 10.2-21.5 22.3-30 35.8zm1203.5-10.9l-1.5-7.9c16.1-2.9 32.1-5.4 47.7-7.5l1 8c-15.4 2-31.3 4.5-47.2 7.4zm-619.2-1.3q-23.6-4.8-47-9.7l1.6-7.9q23.4 5 47 9.8zm856.6-6.8c-15.2-2.3-31.1-4.1-47.4-5.1l0.6-8c16.4 1.1 32.6 2.8 48 5.2zm-142.7-4.3l-0.6-8c16.4-1.2 32.6-1.9 48.2-2.1l0.1 8c-15.4 0.2-31.5 0.9-47.7 2.1zm-807.8-8.7q-23.6-5.1-47-10.1l1.7-7.8q23.4 5 46.9 10zm-93.8-19.7c-16.9-3.4-32.3-6.4-47.1-9.1l1.5-7.9c14.8 2.7 30.2 5.7 47.2 9.1zm-327.8-9.9l-3.4-7.2c14-6.8 29.5-12.1 46.1-15.7l1.7 7.8c-15.9 3.5-30.9 8.5-44.4 15.1zm233.5-7.4c-16.3-2.6-32.2-4.9-47.3-6.8l1-8c15.2 2 31.2 4.3 47.6 6.9zm-94.9-12.1h-0.6c-11.7-1.1-23.2-1.5-34.1-1.6q-6.5 0-12.7 0.2l-0.3-7.9c4.2-0.2 8.7-0.3 13-0.3c11.1 0 22.9 0.5 34.8 1.6l0.6 0.1z" />
				</g>
			</g>
		</g>
	</g>
</svg>