<svg width="25" height="22" viewBox="0 0 25 22" fill="none" xmlns="http://www.w3.org/2000/svg">
<g clip-path="url(#clip0_139_765)">
<path d="M23.4798 10.0198H8.6198V8.5198C8.6198 8.3898 8.5598 8.2598 8.4498 8.1698C8.3398 8.0798 8.1998 8.0198 8.0498 8.0198H3.4798C3.1598 8.0198 2.9098 8.23981 2.9098 8.5198V10.0198H0.619805C0.299805 10.0198 0.0498047 10.2398 0.0498047 10.5198C0.0498047 10.7998 0.309805 11.0198 0.619805 11.0198H2.9098V12.5198C2.9098 12.6498 2.9698 12.7798 3.0798 12.8698C3.1898 12.9598 3.3298 13.0198 3.4798 13.0198H8.0498C8.1998 13.0198 8.3498 12.9698 8.4498 12.8698C8.5598 12.7798 8.6198 12.6498 8.6198 12.5198V11.0198H23.4798C23.7998 11.0198 24.0498 10.7998 24.0498 10.5198C24.0498 10.2398 23.7898 10.0198 23.4798 10.0198ZM7.4798 12.0098H4.0498V9.0198H7.4798V12.0098ZM23.4798 17.9898H19.4798V16.4898C19.4798 16.3598 19.4198 16.2298 19.3098 16.1398C19.1998 16.0498 19.0598 15.9898 18.9098 15.9898H14.3398C14.0198 15.9898 13.7698 16.2098 13.7698 16.4898V17.9898H0.619805C0.299805 17.9898 0.0498047 18.2098 0.0498047 18.4898C0.0498047 18.7698 0.309805 18.9898 0.619805 18.9898H13.7598V20.4898C13.7598 20.6198 13.8198 20.7498 13.9298 20.8398C14.0398 20.9298 14.1798 20.9898 14.3298 20.9898H18.8998C19.0498 20.9898 19.1998 20.9398 19.2998 20.8398C19.4098 20.7498 19.4698 20.6198 19.4698 20.4898V18.9898H23.4698C23.7898 18.9898 24.0398 18.7698 24.0398 18.4898C24.0398 18.2098 23.7798 17.9898 23.4698 17.9898H23.4798ZM18.3398 19.9798H14.9098V16.9898H18.3398V19.9798ZM23.4798 2.0398H15.4798V0.549805C15.4798 0.419805 15.4198 0.289805 15.3098 0.199805C15.1998 0.109805 15.0598 0.0498047 14.9098 0.0498047H10.3398C10.0198 0.0498047 9.7698 0.269805 9.7698 0.549805V2.0498H0.619805C0.299805 2.0498 0.0498047 2.2698 0.0498047 2.5498C0.0498047 2.8298 0.309805 3.0498 0.619805 3.0498H9.7598V4.5498C9.7598 4.6798 9.81981 4.8098 9.9298 4.8998C10.0398 4.9898 10.1798 5.0498 10.3298 5.0498H14.8998C15.0498 5.0498 15.1998 4.9998 15.2998 4.8998C15.4098 4.8098 15.4698 4.6798 15.4698 4.5498V3.0598H23.4698C23.7898 3.0598 24.0398 2.8398 24.0398 2.5598C24.0398 2.2798 23.7798 2.0598 23.4698 2.0598L23.4798 2.0398ZM14.3398 4.0298H10.9098V1.0498H14.3398V4.0398V4.0298Z" fill="#343D46" stroke="white" stroke-width="0.1" stroke-miterlimit="10"/>
</g>
<defs>
<clipPath id="clip0_139_765">
<rect width="24.1" height="21.03" fill="white"/>
</clipPath>
</defs>
</svg>
