<svg width="25" height="20" viewBox="0 0 25 20" fill="none" xmlns="http://www.w3.org/2000/svg">
<g clip-path="url(#clip0_128_337)">
<path d="M12.5 0C5.6 0 0 5.6 0 12.5C0 15.18 0.97 17.63 2.38 19.64C2.48 19.79 2.66 19.89 2.84 19.89H19.89C20.04 19.89 20.19 19.83 20.3 19.73C20.41 19.62 20.47 19.48 20.47 19.33C20.47 19.18 20.41 19.03 20.3 18.93C20.19 18.82 20.05 18.76 19.89 18.77H3.16C2.93 18.42 2.71 18.06 2.51 17.69C5.11 16.02 8.63 14.8 12.5 14.8C16.37 14.8 19.9 16.03 22.51 17.7C22.27 18.16 21.99 18.59 21.7 19.01C21.59 19.13 21.54 19.29 21.56 19.45C21.58 19.61 21.66 19.76 21.8 19.85C21.93 19.94 22.1 19.98 22.26 19.94C22.42 19.9 22.55 19.8 22.63 19.65C24.03 17.64 25.01 15.19 25.01 12.51C25 5.6 19.4 0 12.5 0ZM11.91 1.15C11.91 1.15 11.92 1.15 11.93 1.15V2.84C11.93 2.99 11.99 3.14 12.09 3.25C12.2 3.36 12.34 3.42 12.49 3.42C12.64 3.42 12.79 3.36 12.89 3.25C13 3.14 13.06 2.99 13.05 2.84V1.15C15.76 1.28 18.22 2.37 20.1 4.07L18.62 5.55C18.51 5.66 18.45 5.8 18.44 5.95C18.44 6.1 18.5 6.25 18.6 6.36C18.71 6.47 18.85 6.53 19.01 6.53C19.16 6.53 19.31 6.47 19.42 6.36L20.91 4.87C22.62 6.76 23.7 9.21 23.83 11.93H22.14C22.14 11.93 22.1 11.93 22.09 11.93C21.94 11.93 21.8 12 21.7 12.12C21.6 12.23 21.55 12.38 21.55 12.53C21.55 12.68 21.62 12.82 21.74 12.92C21.85 13.02 22 13.07 22.15 13.07H23.84C23.77 14.33 23.46 15.53 22.99 16.65C20.81 15.27 18.06 14.2 15.02 13.81C14.9 13.06 14.45 12.41 13.82 12.03L16.45 4.16C16.51 3.98 16.48 3.77 16.36 3.62C16.24 3.47 16.05 3.39 15.85 3.41C15.62 3.43 15.43 3.58 15.36 3.8L12.74 11.67C12.66 11.67 12.58 11.67 12.49 11.67C11.22 11.67 10.16 12.61 9.97 13.83C6.93 14.22 4.19 15.28 2.01 16.66C1.53 15.54 1.22 14.35 1.15 13.09H2.84C2.99 13.09 3.14 13.03 3.25 12.93C3.36 12.82 3.42 12.68 3.42 12.53C3.42 12.38 3.36 12.23 3.25 12.13C3.14 12.02 3 11.96 2.84 11.97H1.15C1.28 9.26 2.36 6.8 4.07 4.91L5.56 6.4C5.67 6.51 5.81 6.57 5.97 6.57C6.12 6.57 6.27 6.51 6.38 6.4C6.49 6.29 6.55 6.14 6.54 5.99C6.54 5.84 6.47 5.69 6.36 5.59L4.88 4.11C6.76 2.41 9.21 1.33 11.91 1.19V1.15ZM12.5 12.78C13.11 12.78 13.62 13.15 13.82 13.68C13.38 13.65 12.94 13.64 12.5 13.64C12.06 13.64 11.61 13.65 11.18 13.68C11.39 13.15 11.9 12.78 12.5 12.78Z" fill="#343D46"/>
</g>
<defs>
<clipPath id="clip0_128_337">
<rect width="25" height="19.94" fill="white"/>
</clipPath>
</defs>
</svg>
