<svg width="23" height="23" viewBox="0 0 23 23" fill="none" xmlns="http://www.w3.org/2000/svg">
<g clip-path="url(#clip0_139_1039)">
<path d="M22.9717 6.115C22.8863 2.91055 20.0421 0.0948031 16.8282 0.018958C13.6901 -0.00948384 10.552 0.018958 7.42343 -3.21469e-06C6.57965 -3.21469e-06 5.71691 -0.0284451 4.90158 0.189609C2.1522 0.834292 0.0285382 3.46991 9.62757e-05 6.29513C9.62757e-05 9.59439 9.62757e-05 12.8842 9.62757e-05 16.1834C-0.018865 17.2073 0.132825 18.2407 0.568934 19.1698C1.54544 21.3978 3.86819 22.9621 6.30471 22.981C9.67034 23 13.0454 22.981 16.4205 22.981C19.8715 23.1232 23.0475 20.061 22.9811 16.6006C22.9811 13.1022 23.0001 9.60387 22.9811 6.10552L22.9717 6.115ZM12.7895 17.3875C9.72722 18.1459 6.34264 16.0697 5.64107 12.9979C4.79729 9.96414 6.84511 6.58903 9.86943 5.83058C13.0739 4.8446 16.7808 7.07255 17.397 10.3623C18.1365 13.4625 15.8896 16.7902 12.7895 17.3875ZM17.2264 6.56059C16.2214 6.19085 16.0508 4.65498 16.9704 4.08615C17.7573 3.49835 18.9993 4.01978 19.151 4.97733C19.4164 6.02019 18.2029 7.01566 17.2264 6.55111V6.56059Z" fill="#343D46"/>
<path d="M15.207 12.8653C14.5908 14.6002 12.6567 15.7 10.8459 15.3776C9.12993 15.1311 7.68888 13.6142 7.56563 11.8793C7.3855 10.078 8.67486 8.30507 10.4193 7.85948C11.775 7.47078 13.2919 7.85948 14.2779 8.85495C15.3208 9.87886 15.7095 11.5095 15.1975 12.8747L15.207 12.8653Z" fill="#343D46"/>
</g>
<defs>
<clipPath id="clip0_139_1039">
<rect width="22.981" height="23" fill="white"/>
</clipPath>
</defs>
</svg>
