<svg width="24" height="24" viewBox="0 0 24 24" fill="none" xmlns="http://www.w3.org/2000/svg">
<g clip-path="url(#clip0_139_376)">
<path fill-rule="evenodd" clip-rule="evenodd" d="M13.8502 2.72021C13.5702 2.72021 13.3402 2.95021 13.3202 3.23021C13.3002 3.51021 13.5102 3.76021 13.7902 3.80021C18.6002 4.56021 22.2402 8.52021 22.2402 13.2802C22.2402 14.4702 22.0202 15.6002 21.6002 16.6502C21.5402 16.7802 21.5402 16.9402 21.6002 17.0702C21.6602 17.2002 21.7702 17.3102 21.9002 17.3602C22.0402 17.4102 22.1902 17.4102 22.3202 17.3602C22.4502 17.3002 22.5602 17.1902 22.6102 17.0502C23.0702 15.8802 23.3202 14.6102 23.3202 13.2802C23.3202 7.96021 19.2502 3.56021 13.9502 2.72021C13.9102 2.72021 13.8802 2.72021 13.8402 2.72021H13.8502Z" fill="#343D46"/>
<path fill-rule="evenodd" clip-rule="evenodd" d="M20.4498 19.0801C20.2898 19.0801 20.1398 19.1601 20.0398 19.2801C18.1898 21.4801 15.3298 22.9001 12.1198 22.9001C8.9098 22.9001 6.0598 21.4801 4.2098 19.2901C4.1198 19.1801 3.9798 19.1101 3.8398 19.0901C3.6898 19.0801 3.5498 19.1201 3.4398 19.2201C3.3298 19.3101 3.2598 19.4501 3.2498 19.5901C3.2398 19.7301 3.2898 19.8801 3.3798 19.9901C5.4398 22.4301 8.5998 23.9901 12.1298 23.9901C15.6598 23.9901 18.8298 22.4301 20.8898 19.9801C21.0298 19.8201 21.0598 19.5901 20.9698 19.3901C20.8798 19.2001 20.6798 19.0701 20.4698 19.0801H20.4498Z" fill="#343D46"/>
<path fill-rule="evenodd" clip-rule="evenodd" d="M10.4501 2.70996C10.4501 2.70996 10.3901 2.70996 10.3601 2.70996C5.01014 3.51996 0.890137 7.93996 0.890137 13.28C0.890137 14.57 1.13014 15.81 1.57014 16.96C1.62014 17.1 1.72014 17.21 1.86014 17.27C1.99014 17.33 2.14014 17.33 2.28014 17.28C2.42014 17.23 2.53014 17.12 2.58014 16.99C2.64014 16.86 2.64014 16.71 2.58014 16.57C2.18014 15.54 1.97014 14.44 1.97014 13.28C1.97014 8.48996 5.66014 4.50996 10.5101 3.78996C10.7901 3.74996 11.0001 3.49996 10.9801 3.21996C10.9601 2.92996 10.7301 2.70996 10.4401 2.70996H10.4501Z" fill="#343D46"/>
<path fill-rule="evenodd" clip-rule="evenodd" d="M6.19011 12.7798C5.93011 12.7998 5.71011 13.0198 5.68011 13.2798C5.66011 13.5398 5.84011 13.7998 6.09011 13.8598L8.64011 14.4898L0.300107 18.9398C0.0401069 19.0698 -0.0798931 19.4298 0.0601069 19.6798C0.200107 19.9298 0.560107 20.0398 0.810107 19.8998L9.30011 15.3698L8.62011 17.8898C8.52011 18.1698 8.70011 18.5198 8.99011 18.5998C9.28011 18.6798 9.61011 18.4698 9.67011 18.1798L10.6601 14.5098C10.7701 14.1698 10.6001 13.8398 10.2901 13.7598L6.36011 12.7998C6.31011 12.7898 6.25011 12.7798 6.20011 12.7798H6.19011Z" fill="#343D46"/>
<path fill-rule="evenodd" clip-rule="evenodd" d="M17.7398 12.7798C17.7398 12.7798 17.6798 12.7798 17.6498 12.7998L13.7198 13.7598C13.5798 13.7898 13.4498 13.8898 13.3798 14.0098C13.2998 14.1398 13.2798 14.2898 13.3198 14.4298L14.3298 18.1798C14.3698 18.3198 14.4598 18.4398 14.5898 18.5098C14.7198 18.5798 14.8698 18.5998 15.0098 18.5598C15.1498 18.5198 15.2698 18.4298 15.3398 18.2998C15.4098 18.1698 15.4298 18.0198 15.3898 17.8798L14.7098 15.3598L23.1698 19.8798C23.2998 19.9498 23.4498 19.9698 23.5898 19.9298C23.7298 19.8898 23.8498 19.7898 23.9198 19.6598C23.9898 19.5298 23.9998 19.3798 23.9598 19.2398C23.9198 19.0998 23.8098 18.9798 23.6798 18.9198L15.3598 14.4798L17.8998 13.8498C18.1598 13.7798 18.3398 13.5398 18.3098 13.2698C18.2798 12.9998 18.0598 12.7898 17.7898 12.7798C17.7698 12.7798 17.7498 12.7798 17.7298 12.7798H17.7398Z" fill="#343D46"/>
<path fill-rule="evenodd" clip-rule="evenodd" d="M12.12 0C11.83 0 11.58 0.27 11.58 0.55V9.66L9.60996 7.82C9.39996 7.62 9.02996 7.64 8.83996 7.85C8.64996 8.06 8.65996 8.43 8.86996 8.62L11.75 11.31C11.99 11.55 12.31 11.49 12.5 11.31L15.36 8.57C15.52 8.42 15.58 8.17 15.5 7.96C15.42 7.75 15.2 7.61 14.98 7.62C14.84 7.62 14.7 7.68 14.61 7.78L12.68 9.64V0.55C12.67 0.26 12.41 0 12.12 0Z" fill="#343D46"/>
</g>
<defs>
<clipPath id="clip0_139_376">
<rect width="24" height="23.99" fill="white"/>
</clipPath>
</defs>
</svg>
