<svg width="26" height="26" viewBox="0 0 26 26" fill="none" xmlns="http://www.w3.org/2000/svg">
<g clip-path="url(#clip0_126_21)">
<path d="M25.2202 9.41001H15.7902V0.540012C15.7902 0.350012 15.6402 0.200012 15.4502 0.200012H0.540195C0.350195 0.200012 0.200195 0.350012 0.200195 0.540012V15.45C0.200195 15.64 0.350195 15.79 0.540195 15.79H9.9702V24.65C9.9702 24.84 10.1202 24.99 10.3102 24.99H25.2202C25.4102 24.99 25.5602 24.84 25.5602 24.65V9.74001C25.5602 9.55001 25.4102 9.40001 25.2202 9.40001V9.41001ZM0.880195 15.11V0.880012H15.1002V9.40001H10.3002C10.1102 9.40001 9.9602 9.55001 9.9602 9.74001V15.1H0.880195V15.11ZM15.1002 10.09V15.11H10.6502V10.09H15.1002ZM24.8702 24.31H10.6502V15.79H15.4502C15.6402 15.79 15.7902 15.64 15.7902 15.45V10.09H24.8802V24.31H24.8702Z" fill="#343D46" stroke="#343D46" stroke-width="0.4" stroke-miterlimit="10"/>
</g>
<defs>
<clipPath id="clip0_126_21">
<rect width="25.76" height="25.2" fill="white"/>
</clipPath>
</defs>
</svg>
