<svg width="25" height="25" viewBox="0 0 25 25" fill="none" xmlns="http://www.w3.org/2000/svg">
<g clip-path="url(#clip0_139_546)">
<path d="M18.86 5.16992H5.42996C5.02996 5.16992 4.70996 5.48992 4.70996 5.88992C4.70996 6.28992 5.02996 6.60992 5.42996 6.60992H18.86C19.26 6.60992 19.58 6.28992 19.58 5.88992C19.58 5.48992 19.26 5.16992 18.86 5.16992Z" fill="#343D46" stroke="white" stroke-width="0.3" stroke-miterlimit="10"/>
<path d="M18.86 10.8901H5.42996C5.02996 10.8901 4.70996 11.2101 4.70996 11.6101C4.70996 12.0101 5.02996 12.3301 5.42996 12.3301H18.86C19.26 12.3301 19.58 12.0101 19.58 11.6101C19.58 11.2101 19.26 10.8901 18.86 10.8901Z" fill="#343D46" stroke="white" stroke-width="0.3" stroke-miterlimit="10"/>
<path d="M18.4102 15.4498L16.0202 17.3798L15.3102 16.4698C15.0602 16.1598 14.6102 16.0998 14.2902 16.3498C13.9702 16.5998 13.9202 17.0498 14.1702 17.3698L15.3402 18.8598C15.4602 19.0098 15.6302 19.1098 15.8302 19.1298C15.8602 19.1298 15.8802 19.1298 15.9102 19.1298C16.0702 19.1298 16.2402 19.0698 16.3602 18.9698L19.3302 16.5798C19.6402 16.3298 19.6902 15.8698 19.4402 15.5598C19.1902 15.2498 18.7302 15.1998 18.4202 15.4498H18.4102Z" fill="#343D46" stroke="white" stroke-width="0.3" stroke-miterlimit="10"/>
<path d="M11.04 16.6099H5.42996C5.02996 16.6099 4.70996 16.9299 4.70996 17.3299C4.70996 17.7299 5.02996 18.0499 5.42996 18.0499H11.04C11.44 18.0499 11.76 17.7299 11.76 17.3299C11.76 16.9299 11.44 16.6099 11.04 16.6099Z" fill="#343D46" stroke="white" stroke-width="0.3" stroke-miterlimit="10"/>
<path d="M20.9799 0.149902H3.3199C1.5699 0.149902 0.149902 1.5699 0.149902 3.3199V20.9699C0.149902 22.7199 1.5699 24.1399 3.3199 24.1399H20.9699C22.7199 24.1399 24.1399 22.7199 24.1399 20.9699V3.3199C24.1399 1.5699 22.7199 0.149902 20.9699 0.149902H20.9799ZM22.6999 20.9799C22.6999 21.9299 21.9299 22.6999 20.9799 22.6999H3.3199C2.3699 22.6999 1.5999 21.9299 1.5999 20.9799V3.3199C1.5999 2.3699 2.3699 1.5999 3.3199 1.5999H20.9699C21.9199 1.5999 22.6899 2.3699 22.6899 3.3199V20.9699L22.6999 20.9799Z" fill="#343D46" stroke="white" stroke-width="0.3" stroke-miterlimit="10"/>
</g>
<defs>
<clipPath id="clip0_139_546">
<rect width="24.3" height="24.3" fill="white"/>
</clipPath>
</defs>
</svg>
