<svg width="17" height="28" viewBox="0 0 17 28" fill="none" xmlns="http://www.w3.org/2000/svg">
<g clip-path="url(#clip0_139_773)">
<path d="M14.8202 7.44028C14.8202 7.63028 14.8202 7.81028 14.8002 8.00028C14.8002 8.08028 14.7902 8.15028 14.7802 8.23028C14.7802 8.24028 14.7602 8.39028 14.7802 8.28028C14.7802 8.34028 14.7602 8.40028 14.7502 8.46028C14.6902 8.80028 14.6102 9.14028 14.5002 9.46028C14.4502 9.62028 14.3902 9.78028 14.3202 9.94028C14.2902 10.0203 14.3702 9.83028 14.3202 9.96028C14.3002 10.0003 14.2802 10.0403 14.2702 10.0803C14.2302 10.1703 14.1802 10.2703 14.1402 10.3503C13.9902 10.6503 13.8102 10.9403 13.6202 11.2103C13.5902 11.2503 13.5702 11.2803 13.5402 11.3203C13.5402 11.3203 13.4402 11.4503 13.5102 11.3603C13.4702 11.4203 13.4202 11.4703 13.3702 11.5303C13.2502 11.6703 13.1302 11.8003 13.0102 11.9303C12.8902 12.0503 12.7702 12.1703 12.6502 12.2703C12.6002 12.3203 12.5402 12.3703 12.4802 12.4103C12.4502 12.4403 12.4102 12.4703 12.3802 12.4903C12.3702 12.5003 12.2202 12.6103 12.3102 12.5503C12.0402 12.7503 11.7602 12.9303 11.4702 13.1003C11.3202 13.1903 11.1602 13.2603 11.0002 13.3403C10.9702 13.3503 10.9502 13.3603 10.9202 13.3803C10.9202 13.3803 10.7702 13.4403 10.8802 13.4003C10.7802 13.4403 10.6902 13.4803 10.5902 13.5103C10.2702 13.6303 9.9402 13.7203 9.6002 13.7803C9.5102 13.8003 9.4202 13.8103 9.3302 13.8303C9.2802 13.8303 9.2402 13.8403 9.1902 13.8503C9.2002 13.8503 9.2802 13.8403 9.1902 13.8503C8.9902 13.8703 8.7902 13.8903 8.5902 13.9003C8.2302 13.9103 7.8802 13.9003 7.5302 13.8503C7.3802 13.8303 7.6302 13.8703 7.4802 13.8503C7.4302 13.8503 7.3902 13.8403 7.3402 13.8303C7.2702 13.8203 7.1902 13.8003 7.1202 13.7903C6.9402 13.7503 6.7702 13.7103 6.6002 13.6603C6.4302 13.6103 6.2602 13.5603 6.0902 13.4903C6.0202 13.4603 5.9502 13.4403 5.8802 13.4103C5.7402 13.3603 5.9702 13.4503 5.8402 13.3903C5.7902 13.3703 5.7302 13.3403 5.6802 13.3203C5.3802 13.1803 5.0802 13.0203 4.8002 12.8303C4.7302 12.7803 4.6502 12.7303 4.5802 12.6803C4.5402 12.6503 4.5102 12.6303 4.4702 12.6003C4.4702 12.6003 4.3602 12.5203 4.4202 12.5603C4.4802 12.6003 4.3602 12.5203 4.3702 12.5203C4.3402 12.4903 4.3002 12.4703 4.2702 12.4403C4.1902 12.3703 4.1102 12.3103 4.0402 12.2403C3.7902 12.0203 3.5602 11.7803 3.3502 11.5203C3.3202 11.4903 3.2902 11.4503 3.2702 11.4203C3.2702 11.4203 3.1702 11.2903 3.2402 11.3803C3.2002 11.3203 3.1502 11.2603 3.1102 11.2003C3.0002 11.0503 2.9002 10.9003 2.8102 10.7403C2.7202 10.6003 2.6402 10.4503 2.5702 10.3003C2.5402 10.2303 2.5002 10.1703 2.4702 10.1003C2.4502 10.0603 2.4302 10.0203 2.4202 9.98028C2.4102 9.95028 2.4002 9.93028 2.3802 9.90028C2.4002 9.95028 2.4002 9.95028 2.3802 9.90028C2.2602 9.58028 2.1502 9.26028 2.0702 8.93028C2.0302 8.75028 1.9902 8.58028 1.9602 8.40028C1.9602 8.37028 1.9602 8.34028 1.9502 8.31028C1.9302 8.16028 1.9502 8.41028 1.9502 8.26028C1.9502 8.15028 1.9302 8.05028 1.9202 7.94028C1.8902 7.59028 1.9002 7.23028 1.9202 6.87028C1.9202 6.78028 1.9402 6.69028 1.9502 6.60028C1.9702 6.45028 1.9302 6.70028 1.9502 6.55028C1.9502 6.52028 1.9502 6.49028 1.9602 6.46028C1.9902 6.27028 2.0302 6.08028 2.0802 5.89028C2.1602 5.56028 2.2702 5.23028 2.4002 4.92028C2.3602 5.02028 2.4102 4.89028 2.4202 4.88028C2.4402 4.84028 2.4602 4.80028 2.4702 4.76028C2.5002 4.69028 2.5302 4.63028 2.5702 4.56028C2.6502 4.40028 2.7302 4.25028 2.8302 4.10028C2.9202 3.95028 3.0202 3.81028 3.1202 3.66028C3.1602 3.60028 3.2102 3.54028 3.2502 3.48028C3.1802 3.57028 3.2702 3.45028 3.2802 3.44028C3.3202 3.39028 3.3502 3.35028 3.3902 3.30028C3.6102 3.04028 3.8402 2.81028 4.0902 2.58028C4.2102 2.47028 4.3302 2.37028 4.4602 2.28028C4.3702 2.35028 4.4902 2.26028 4.5002 2.25028C4.5402 2.22028 4.5702 2.20028 4.6102 2.17028C4.6902 2.11028 4.7802 2.05028 4.8602 2.00028C5.1402 1.82028 5.4402 1.66028 5.7402 1.52028C5.7802 1.50028 5.8202 1.48028 5.8602 1.47028C5.9902 1.41028 5.7702 1.50028 5.9002 1.45028C5.9702 1.42028 6.0402 1.40028 6.1102 1.37028C6.2802 1.31028 6.4402 1.25028 6.6202 1.20028C6.7902 1.15028 6.9702 1.11028 7.1402 1.07028C7.2102 1.06028 7.2902 1.04028 7.3602 1.03028C7.4102 1.03028 7.4502 1.02028 7.5002 1.01028C7.5402 1.01028 7.5402 1.01028 7.5002 1.01028C7.5002 1.01028 7.5602 1.01028 7.5902 1.01028C7.9402 0.970278 8.3002 0.960278 8.6502 0.970278C8.8302 0.970278 9.0002 0.990278 9.1802 1.01028C9.2002 1.01028 9.3102 1.03028 9.2102 1.01028C9.2602 1.01028 9.3002 1.02028 9.3502 1.03028C9.4502 1.05028 9.5602 1.07028 9.6602 1.09028C9.9902 1.16028 10.3302 1.25028 10.6502 1.37028C10.7302 1.40028 10.8202 1.43028 10.9002 1.47028C10.8102 1.43028 10.9902 1.51028 11.0202 1.53028C11.1902 1.61028 11.3602 1.70028 11.5302 1.79028C11.6702 1.87028 11.8002 1.95028 11.9402 2.04028C12.0002 2.08028 12.0602 2.12028 12.1202 2.16028C12.1602 2.19028 12.1902 2.21028 12.2302 2.24028C12.2502 2.24028 12.3902 2.36028 12.3002 2.29028C12.5602 2.49028 12.8102 2.72028 13.0402 2.96028C13.1602 3.09028 13.2802 3.22028 13.3902 3.35028C13.4402 3.41028 13.4802 3.46028 13.5302 3.52028C13.4602 3.43028 13.5502 3.55028 13.5602 3.56028C13.5902 3.61028 13.6302 3.65028 13.6602 3.70028C13.8502 3.97028 14.0202 4.26028 14.1802 4.56028C14.2202 4.64028 14.2602 4.72028 14.2902 4.80028C14.3002 4.83028 14.3802 5.02028 14.3502 4.92028C14.4202 5.10028 14.4902 5.28028 14.5502 5.46028C14.6502 5.79028 14.7302 6.12028 14.7902 6.46028C14.7902 6.51028 14.8002 6.55028 14.8102 6.60028C14.7902 6.49028 14.8102 6.64028 14.8102 6.65028C14.8102 6.73028 14.8302 6.80028 14.8302 6.88028C14.8302 7.08028 14.8502 7.26028 14.8502 7.45028C14.8502 7.71028 15.0802 7.96028 15.3502 7.95028C15.6202 7.94028 15.8502 7.73028 15.8502 7.45028C15.8502 5.92028 15.3702 4.39028 14.4802 3.14028C13.5902 1.90028 12.3602 0.970278 10.9402 0.440278C7.9902 -0.629722 4.5902 0.300278 2.6302 2.69028C1.6502 3.89028 1.0602 5.34028 0.940197 6.89028C0.820197 8.43028 1.2002 10.0003 2.0002 11.3203C2.7702 12.5803 3.9202 13.6203 5.2702 14.2203C6.7102 14.8703 8.3102 15.0503 9.8702 14.7403C12.8502 14.1403 15.2602 11.6303 15.7202 8.63028C15.7802 8.24028 15.8202 7.84028 15.8202 7.44028C15.8202 7.18028 15.5902 6.93028 15.3202 6.94028C15.0502 6.95028 14.8202 7.16028 14.8202 7.44028Z" fill="#343D46"/>
<path d="M7.75977 20.1897V27.4997C7.75977 27.7597 7.98977 28.0097 8.25977 27.9997C8.52977 27.9897 8.75977 27.7797 8.75977 27.4997V20.1897C8.75977 19.9297 8.52977 19.6797 8.25977 19.6897C7.98977 19.6997 7.75977 19.9097 7.75977 20.1897Z" fill="#343D46"/>
<path d="M15.7498 20.4999C15.7098 20.6499 15.6598 20.7999 15.5998 20.9499C15.5698 21.0199 15.5498 21.0899 15.5198 21.1499C15.4798 21.2399 15.5698 21.0499 15.4998 21.1899C15.4798 21.2399 15.4598 21.2799 15.4398 21.3299C15.2998 21.6299 15.1398 21.9099 14.9598 22.1899C14.6098 22.7399 14.1898 23.2199 13.6698 23.6699C13.4298 23.8799 13.2198 24.0299 12.9198 24.2199C12.6398 24.3899 12.3398 24.5399 12.0498 24.6499C11.8698 24.7099 11.6998 24.7599 11.5198 24.7999C11.4898 24.7999 11.4498 24.8099 11.4198 24.8199C11.3198 24.8399 11.3798 24.8199 11.3998 24.8199C11.2998 24.8299 11.1998 24.8399 11.0998 24.8399C10.9598 24.8399 10.8098 24.8399 10.6698 24.8199C10.7798 24.8399 10.6298 24.8199 10.6198 24.8199C10.5898 24.8199 10.5598 24.8099 10.5298 24.7999C10.4498 24.7799 10.3598 24.7599 10.2798 24.7299C10.1998 24.6999 10.1198 24.6799 10.0398 24.6499C9.94979 24.6199 10.0098 24.6399 10.0398 24.6499C9.98979 24.6299 9.93979 24.5999 9.88979 24.5799C9.72979 24.4999 9.58979 24.4199 9.43979 24.3199C9.36979 24.2699 9.28979 24.2199 9.21979 24.1699C9.18979 24.1499 9.16979 24.1299 9.13979 24.1099C9.08979 24.0699 9.08979 24.0699 9.11979 24.1099C9.09979 24.0899 9.07979 24.0799 9.05979 24.0599C8.90979 23.9399 8.76979 23.8099 8.62979 23.6899C8.67979 23.8099 8.72979 23.9299 8.77979 24.0399C8.74979 23.7299 8.73979 23.4199 8.76979 23.1199C8.76979 23.0899 8.76979 23.0499 8.76979 23.0199C8.76979 23.0199 8.78979 22.8799 8.76979 22.9599C8.75979 23.0399 8.76979 22.9099 8.76979 22.8999C8.76979 22.8599 8.77979 22.8199 8.78979 22.7799C8.81979 22.6399 8.84979 22.5099 8.89979 22.3699C8.91979 22.2999 8.94979 22.2299 8.97979 22.1599C8.92979 22.2699 9.01979 22.0899 9.02979 22.0599C9.09979 21.9299 9.17979 21.7999 9.25979 21.6799C9.27979 21.6599 9.28979 21.6399 9.30979 21.6099C9.23979 21.6999 9.32979 21.5899 9.33979 21.5799C9.38979 21.5299 9.42979 21.4699 9.47979 21.4199C9.52979 21.3699 9.57979 21.3199 9.63979 21.2699C9.65979 21.2499 9.67979 21.2299 9.70979 21.2099C9.71979 21.2099 9.85979 21.0899 9.78979 21.1499C10.0598 20.9399 10.3698 20.7699 10.6898 20.6299C10.6198 20.6599 10.7198 20.6299 10.7398 20.6099C10.7798 20.5899 10.8198 20.5799 10.8598 20.5699C10.9398 20.5399 11.0198 20.5199 11.0998 20.4899C11.2798 20.4399 11.4698 20.3899 11.6498 20.3599C11.9198 20.3099 12.3198 20.2799 12.6698 20.2899C13.0298 20.2899 13.4298 20.3299 13.7098 20.3699C14.1298 20.4399 14.5398 20.5299 14.9398 20.6599C15.3498 20.7899 15.6198 20.8999 15.9698 21.0599C16.2098 21.1799 16.5098 21.1299 16.6498 20.8799C16.7798 20.6599 16.7098 20.3199 16.4698 20.1999C15.0598 19.5099 13.3998 19.1399 11.8198 19.3299C10.3598 19.5099 8.83979 20.1999 8.15979 21.5799C7.85979 22.1899 7.72979 22.8699 7.73979 23.5399C7.73979 23.6899 7.73979 23.8299 7.75979 23.9699C7.77979 24.1699 7.83979 24.2999 7.98979 24.4299C8.05979 24.4999 8.13979 24.5599 8.21979 24.6299C8.50979 24.8799 8.81979 25.0999 9.13979 25.2899C9.78979 25.6599 10.5398 25.8699 11.2898 25.8099C12.1198 25.7399 12.9198 25.4099 13.6098 24.9399C15.0698 23.9699 16.2098 22.4399 16.6898 20.7499C16.7598 20.4999 16.5998 20.1999 16.3398 20.1399C16.0798 20.0799 15.7998 20.2199 15.7298 20.4899L15.7498 20.4999Z" fill="#343D46"/>
<path d="M0.0199407 16.7501C0.339941 18.2301 1.19994 19.6301 2.30994 20.6401C2.91994 21.2001 3.62994 21.6701 4.41994 21.9301C5.17994 22.1801 6.01994 22.1801 6.76994 21.9001C7.12994 21.7701 7.47994 21.6001 7.79994 21.3801C7.93994 21.2901 8.07994 21.1901 8.20994 21.0901C8.30994 21.0201 8.39994 20.9401 8.48994 20.8701C8.62994 20.7601 8.67994 20.6301 8.69994 20.4701C8.79994 19.7901 8.79994 19.1001 8.59994 18.4401C8.16994 16.9901 6.84994 16.0301 5.42994 15.6701C3.76994 15.2501 1.90994 15.4801 0.339941 16.1301C0.0899407 16.2301 -0.0800593 16.4501 -5.92973e-05 16.7401C0.0599407 16.9801 0.359941 17.1901 0.609941 17.0901C1.26994 16.8201 1.94994 16.6401 2.64994 16.5301C2.74994 16.5101 2.69994 16.5301 2.66994 16.5301C2.71994 16.5301 2.76994 16.5201 2.82994 16.5101C2.91994 16.5101 2.99994 16.4901 3.08994 16.4901C3.27994 16.4701 3.46994 16.4701 3.66994 16.4701C3.83994 16.4701 4.01994 16.4701 4.18994 16.4801L4.44994 16.5001C4.44994 16.5001 4.54994 16.5001 4.59994 16.5201C4.50994 16.5201 4.66994 16.5201 4.66994 16.5201C5.01994 16.5801 5.35994 16.6601 5.68994 16.7801C5.73994 16.8001 5.77994 16.8201 5.82994 16.8301C5.75994 16.8001 5.84994 16.8301 5.86994 16.8501C5.94994 16.8801 6.01994 16.9201 6.08994 16.9601C6.26994 17.0501 6.42994 17.1601 6.59994 17.2701C6.62994 17.2901 6.64994 17.3101 6.67994 17.3301C6.59994 17.2701 6.72994 17.3701 6.72994 17.3701C6.78994 17.4201 6.84994 17.4701 6.90994 17.5201C7.02994 17.6301 7.13994 17.7501 7.23994 17.8801C7.17994 17.8001 7.29994 17.9601 7.30994 17.9901C7.34994 18.0501 7.38994 18.1101 7.41994 18.1701C7.44994 18.2301 7.48994 18.2901 7.51994 18.3501C7.53994 18.3901 7.55994 18.4201 7.56994 18.4601C7.53994 18.3801 7.56994 18.4601 7.56994 18.4901C7.62994 18.6401 7.66994 18.8001 7.70994 18.9601C7.70994 18.9901 7.70994 19.0101 7.72994 19.0401C7.72994 19.0601 7.75994 19.2401 7.73994 19.1101C7.73994 19.1901 7.75994 19.2801 7.75994 19.3601C7.75994 19.5301 7.75994 19.7001 7.75994 19.8701C7.75994 19.9501 7.75994 20.0301 7.73994 20.1101C7.73994 20.1501 7.73994 20.1801 7.72994 20.2201C7.73994 20.1001 7.72994 20.2901 7.71994 20.3101C7.75994 20.2401 7.80994 20.1601 7.84994 20.0901C7.72994 20.1901 7.65994 20.2401 7.49994 20.3501C7.35994 20.4501 7.22994 20.5401 7.07994 20.6201C6.94994 20.6901 6.81994 20.7601 6.68994 20.8301C6.68994 20.8301 6.54994 20.8901 6.61994 20.8601C6.68994 20.8301 6.53994 20.8901 6.53994 20.8901C6.45994 20.9201 6.38994 20.9401 6.30994 20.9701C6.15994 21.0101 6.01994 21.0501 5.86994 21.0701C5.77994 21.0801 5.98994 21.0701 5.82994 21.0701C5.79994 21.0701 5.76994 21.0701 5.72994 21.0701C5.62994 21.0701 5.52994 21.0701 5.43994 21.0701C5.36994 21.0701 5.29994 21.0701 5.23994 21.0601C5.07994 21.0501 5.32994 21.0801 5.16994 21.0601C5.13994 21.0601 5.09994 21.0501 5.06994 21.0401C4.88994 21.0001 4.70994 20.9501 4.53994 20.8901C4.24994 20.7801 3.93994 20.6101 3.65994 20.4201C3.37994 20.2301 3.20994 20.1001 2.93994 19.8501C2.68994 19.6201 2.46994 19.3801 2.25994 19.1201C2.17994 19.0201 2.10994 18.9301 2.00994 18.7901C1.90994 18.6501 1.81994 18.5101 1.72994 18.3601C1.34994 17.7201 1.11994 17.1801 0.959941 16.4501C0.899941 16.1901 0.599941 16.0401 0.349941 16.1001C0.0799407 16.1901 -0.0600593 16.4601 -5.92973e-05 16.7201L0.0199407 16.7501Z" fill="#343D46"/>
<path d="M5.9599 5.04005C6.0499 4.95005 6.1499 4.86005 6.2399 4.78005C6.2899 4.74005 6.2899 4.74005 6.2499 4.78005C6.2799 4.76005 6.2999 4.74005 6.3299 4.72005C6.3799 4.68005 6.4299 4.65005 6.4899 4.61005C6.5899 4.54005 6.6999 4.48005 6.8099 4.42005C6.8699 4.39005 6.9199 4.36005 6.9799 4.34005C7.0099 4.33005 7.0399 4.31005 7.0599 4.30005C7.2799 4.22005 7.4899 4.15005 7.7199 4.11005C7.7799 4.10005 7.8399 4.09005 7.8999 4.08005C7.7899 4.10005 7.9699 4.08005 7.9899 4.08005C8.1099 4.08005 8.2299 4.06005 8.3499 4.06005C8.4699 4.06005 8.5899 4.06005 8.7099 4.08005C8.7299 4.08005 8.9199 4.11005 8.7999 4.08005C8.8599 4.08005 8.9199 4.10005 8.9799 4.11005C9.2099 4.16005 9.4199 4.22005 9.6399 4.30005C9.6899 4.32005 9.6999 4.32005 9.6399 4.30005C9.6699 4.31005 9.6999 4.32005 9.7199 4.34005C9.7799 4.37005 9.8299 4.39005 9.8899 4.42005C9.9999 4.48005 10.1099 4.54005 10.2099 4.61005C10.2599 4.64005 10.3199 4.68005 10.3699 4.72005C10.3999 4.74005 10.4199 4.76005 10.4499 4.78005C10.4099 4.75005 10.4199 4.75005 10.4599 4.78005C10.5599 4.86005 10.6599 4.95005 10.7399 5.04005C10.9299 5.23005 11.2499 5.23005 11.4399 5.04005C11.6299 4.85005 11.6299 4.53005 11.4399 4.34005C10.1299 3.04005 8.1499 2.71005 6.4699 3.47005C6.0099 3.68005 5.5899 3.98005 5.2299 4.34005C5.0399 4.53005 5.0399 4.85005 5.2299 5.04005C5.4299 5.23005 5.7499 5.23005 5.9399 5.04005H5.9599Z" fill="#343D46"/>
<path d="M6.2 28H10.53C10.79 28 11.04 27.77 11.03 27.5C11.02 27.23 10.81 27 10.53 27H6.2C5.94 27 5.69 27.23 5.7 27.5C5.7 27.77 5.92 28 6.2 28Z" fill="#343D46"/>
</g>
<defs>
<clipPath id="clip0_139_773">
<rect width="16.73" height="28" fill="white"/>
</clipPath>
</defs>
</svg>
