<svg width="20" height="26" viewBox="0 0 20 26" fill="none" xmlns="http://www.w3.org/2000/svg">
<g clip-path="url(#clip0_139_387)">
<path d="M11.1935 15.5854L7.08256 13.0498C6.80169 12.8766 6.69515 12.535 6.8452 12.2917L12.8258 2.5956C13.5707 1.38793 15.3307 1.10618 16.752 1.98288C18.1734 2.85959 18.7115 4.55877 17.9612 5.77513L11.9806 15.4713C11.8305 15.7145 11.4775 15.7726 11.1966 15.5994L11.1935 15.5854ZM8.13449 12.4873L11.2155 14.3877L16.9282 5.12597C17.3784 4.39616 17.0534 3.38012 16.2022 2.85515C15.3511 2.33018 14.2973 2.49575 13.8472 3.22557L8.13985 12.4786L8.13449 12.4873Z" fill="#343D46" stroke="white" stroke-width="0.2" stroke-miterlimit="10"/>
<path d="M4.75039 24.8888C3.72053 24.2535 2.69068 23.6183 1.66083 22.9831C1.40549 22.8256 1.28918 22.538 1.38059 22.2945L2.44735 19.4983C2.49685 19.3609 2.61979 19.2568 2.77236 19.219L4.19783 18.8509L7.36499 13.7161L8.39484 14.3513L5.13122 19.6425C5.06692 19.7468 4.96541 19.8161 4.84058 19.847L3.45672 20.2048L2.633 22.3594C3.37348 22.8161 4.10544 23.2676 4.84591 23.7243L6.40159 22.0212L6.10023 20.624C6.07187 20.4986 6.09362 20.3681 6.15257 20.2725L9.41618 14.9813L10.446 15.6165L7.27888 20.7513L7.59284 22.2043C7.62751 22.3576 7.58969 22.5142 7.48913 22.6201L5.46911 24.8283C5.29258 25.0193 4.98334 25.0444 4.72801 24.8869L4.75039 24.8888Z" fill="#343D46" stroke="white" stroke-width="0.2" stroke-miterlimit="10"/>
<path d="M10.4978 12.1223C10.2169 11.9491 10.1104 11.6075 10.2605 11.3642L14.6119 4.30931C14.762 4.06604 15.1151 4.00795 15.3959 4.1812C15.6768 4.35444 15.7833 4.69601 15.6333 4.93928L11.2818 11.9942C11.1317 12.2374 10.7787 12.2955 10.4978 12.1223Z" fill="#343D46" stroke="white" stroke-width="0.2" stroke-miterlimit="10"/>
</g>
<defs>
<clipPath id="clip0_139_387">
<rect width="6.24" height="26" fill="white" transform="translate(14.1499 0.258301) rotate(31.6665)"/>
</clipPath>
</defs>
</svg>
