<svg version="1.2" xmlns="http://www.w3.org/2000/svg" viewBox="0 0 300 200" width="900" height="600"><style>.s0{fill:#f9f5f2}.s1{fill:#eef3ff}.s2{fill:#f9f0e8}.s3{fill:#f9b995}.s4{fill:#ef9673}.s5{fill:#a85e41}.s6{fill:#232323}.s7{fill:#f4a490}.s8{fill:#d8ad8d}.s9{fill:#c69777}.s10{fill:#db91b8}.s11{fill:#c172a0}.s12{fill:#2a3050}.s13{fill:#ffffff}.s14{fill:#ef5b94}.s15{fill:#ffd469}.s16{fill:#c9bebc}.s17{fill:#d0daea}.s18{fill:#f4e3d7}.s19{fill:#e8d3c8}.s20{fill:#6f6793}.s21{fill:#8d82ac}.s22{fill:#9990ba}.s23{fill:#cccf78}.s24{fill:#b5b568}</style><path class="s0" d="m55.3 176.6c1.5-1.2 6.2-1.2 7.6-1.3c56.9-0.8 113.8 0.1 170.7 0.1c3.2 0 14.8-0.1 16.7 2.1c0.7 0.7 0.1 1.3 0.1 1.4c-2.1 2.5-16.7 2.4-20.5 2.4c-14.8 0-146 1.2-167.8-0.7c-1.7-0.1-4.9-0.5-6.5-1.6c-0.9-0.7-1.3-1.7-0.3-2.4z" /><path class="s1" d="m90.4 28.1c-0.4-0.3-2.3 0.5-2.8 0.2c-0.3-0.1-0.4-0.5-0.5-0.7c-0.5-1.9 0.8-1.2 2.5-2.6c0.6-0.5 1.1-1.7 2.5-2.2c0.9-0.3 1.1 0.1 2-0.1c1.2-0.2 1.2-1 3.3-2.2c2.3-1.3 2.2-0.3 3.9-0.2c0.9 0.1 1.3-0.1 2.4 0.1c1 0.2 1.3 0.5 1.2 1.7c0 0.8-0.3 1-0.2 1.7c0 0.2 0.1 0.5 0.3 0.6c0.3 0.2 0.8-0.1 1-0.3c0.2-0.2 0.2-0.4 0.4-0.6c0.2-0.2 0.4-0.2 0.9-0.3c0.9-0.2 1.1-0.6 1.4-0.4c0.3 0.1 0.4 0.4 0.3 0.7c0 0.6-1.2 1.4-1.8 1.7c-1.2 0.7-2.3 1.7-2.1 2c0 0.1 0.7 0.1 0.2 0.9c-0.5 0.7-1.4 0.3-2.4 1c-0.2 0.2-2 2.5-2.4 2.7c-1.3 0.7-2.5-0.3-3.1 0.4c-0.3 0.3-0.5 3.3-1 3.6c-0.2 0.2-0.5 0.2-1.5-0.2c-1.4-0.5-2.1-0.8-2.5-1.2c-1.4-1.4-1.8-4.4-1.8-5.6c0-0.1 0-0.5-0.2-0.7z" /><path class="s1" d="m106.1 32.1c2.1 0.6 1.8 0.2 2.7 0.1c0.2 0 0.9-0.1 1.1 0.2c0.1 0.3-0.3 0.8-0.8 1.2c-0.6 0.4-1.3 0.3-2.2 0.3c-0.9-0.1-1.6-0.1-2.1-0.6c-0.5-0.6-0.4-1.2-0.1-1.4c0.2-0.2 0.6-0.1 1.4 0.2z" /><path class="s1" d="m84.4 23.4c-0.1-0.3 0.1-0.6 0.3-0.7c0.3-0.2 0.5-0.1 1-0.2c0.6 0 0.7-0.3 1.4-0.4c0.6-0.1 0.8 0.1 0.8 0.2c0.3 0.3 0 0.8-0.8 0.9c-0.3 0-0.4-0.1-0.6 0c-0.3 0-0.3 0.2-0.7 0.4c-0.2 0.1-0.5 0.3-0.9 0.2c0 0-0.4-0.1-0.5-0.4z" /><path class="s1" d="m85.3 24.7c0.8-0.4 1.3 0.1 1.3 0.5c0 0.4-0.9 0.7-2 1.3c-0.5 0.3-2.5 2.2-2.9 2.5c-0.2 0.1-0.7 0.3-3.2 0.3c-1.6 0.1-1.9 0-2.2-0.3c-0.3-0.3-0.5-0.9-0.3-1.4c0.2-0.5 0.9-0.5 1.5-0.6c0.9-0.1 1 0.1 1.6 0c0.9-0.2 0.9-0.7 1.9-1.1c0.9-0.3 1 0.2 2.2-0.1c1.8-0.5 1.5-0.8 2.1-1.1z" /><path class="s1" d="m72.5 26.3c0.1-0.7 0.1-0.7 0.2-0.9c0.3-0.5 1.2-0.5 1.6-0.5c0.7 0 0.7 0.2 1.3 0.1c0.6 0 0.7-0.2 1.1-0.1c0.4 0.1 0.7 0.6 0.6 0.8c-0.1 0.3-2 0.4-2.3 0.5c-0.8 0.3-0.7 0.9-2.1 1.1c-0.9 0.1-0.7 0-0.4-1z" /><path class="s1" d="m84 32c0.7 0.6 1.1 1 1.1 1.2c0 0.9-2.8 0.8-3.8 2.8c0 0-0.9 2.1-1.1 3.2c-0.3 1.9 0.4 0.9 1.6 1.2c1 0.3 2 1.7 2.5 1.8c0.3 0 0.6-0.3 1.1-0.8c2-1.9 1.2-2.3 1.5-3.3c0.1-0.3 0.4-1.3 1.2-1.4c0.5-0.1 1 0.2 1.3 0.6c0.3 0.5-0.1 0.9 0.2 1.3c0.3 0.4 0.9 0.1 1.9 0.3c1.1 0.3 2.1 1.2 2 2c0 0.2-0.1 0.4-0.7 1.1c-3.2 3.3-4.2 2.7-4.3 3.4c-0.2 0.9 1.9 1.6 1.8 2.8c0 0.4-0.3 0.5-1.5 1.6c-1.2 1.1-1.8 1.6-2.1 2c-1.2 1.6-0.4 2.4-1.4 3.4c-0.9 0.9-1.7 0.3-3.9 1.4c-0.9 0.6-1.5 0.9-1.8 1.6c-0.4 1.2 0.4 2.1-0.1 2.9c-0.4 0.5-1.1 0.8-1.5 0.6c-0.9-0.4-0.4-2.3-1.1-2.6c-0.7-0.2-1.3 1.7-3.1 2c-1 0.2-1.5-0.4-2.3 0c-0.4 0.2-0.4 0.5-1.4 1.8c-0.9 1.4-1.2 1.5-1.2 1.9c0.1 0.9 0.9 1.7 1.7 1.8c0.8 0 1-0.7 2-0.8c0.5-0.1 1.4 0 1.7 0.5c0.6 1-1.3 2.2-0.9 3.7c0.3 1 1.3 0.9 1.7 2.1c0.3 1.1-0.3 1.5 0.1 2.3c0.7 1.6 3.8 2.5 5.9 1.7c1.1-0.4 0.9-0.7 1.8-1c1.6-0.6 3.6 0 4.7 1.2c0.9 0.8 0.5 1.1 1.5 2.6c1 1.7 1.6 1.5 3.6 3.7c1.7 1.9 1.8 2.6 3 3.1c1.1 0.4 1.6 0 2.3 0.6c1.5 1.1 0.9 4 0.9 4.2c-0.2 0.9-0.5 1.5-2.6 4.6c-2.6 3.5-2.5 3.1-2.9 3.8c-1.3 2.8-1 4.8-2.4 5.3c-0.8 0.3-1.3-0.1-1.9 0.4c-0.5 0.4-0.2 0.9-0.6 2.2c-0.2 0.7-1.6 3.2-1.6 4.3c0 1.1 0.6 1.5 0.4 2.3c-0.1 0.4-0.8 1.3-0.9 2.7c-0.1 1.4 1.1 3.1 2 4.1c0.6 0.7 1.1 1 1.4 1.7c0.2 0.3 0.4 0.8 0.2 1.1c-0.4 0.6-1.7 0.7-2.4 0.1c-0.4-0.3-0.2-0.6-0.7-1c-0.5-0.4-0.9-0.3-1.7-0.5c-0.6-0.1-1.1-0.4-2-1c-2.1-1.2-3-1.9-3.7-4.7c-0.4-1.5-0.2-2.1-0.9-2.9c-0.4-0.5-1.3-0.8-1.4-2.8c0-1.9 2.3-7.6 0.3-11.3c-0.3-0.7-0.8-1.4-1-1.6c-1.5-1.8-2.4-1.8-2.8-3c-0.3-0.8 0-1.3-0.5-2c-0.4-0.5-0.6-0.4-1.1-0.9c-0.9-0.9-1.1-2.1-1.1-2.4c-0.1-1.2 0.4-1.2 0.3-2.3c-0.2-1.4-1-1.9-0.8-2.7c0.2-0.6 0.5-0.6 1.3-1.3c1.1-1.1 0.8-1.7 2-3.3c1.1-1.5 1.8-1.5 1.8-2.1c-0.1-0.9-1.2-0.9-2.7-2.7c-1-1.3-1-1.7-1.8-2.2c-1.2-0.8-1.9-0.5-3-1.5c-0.2-0.2-0.5-0.7-1.1-1.5c-1.1-1.5-0.8-1.4-2-3.1c-0.5-0.7-0.7-1.1-0.7-1.6c0-0.5 0.4-0.7 0.3-1.2c-0.1-0.4-0.5-0.4-1-1.1c-0.5-0.7-0.5-1.2-0.6-1.2c-0.2 0-0.5 1-0.4 1.9c0.2 1 0.8 1.3 0.5 1.8c-0.1 0.3-0.5 0.5-0.8 0.5c-0.6 0-0.9-0.9-1.4-1.8c-0.4-0.8-0.4-1.2-0.7-2.3c-0.7-2.2-0.9-2.1-0.9-2.9c-0.2-1.3 0.3-1.4 0.3-2.9c0-1.7-0.6-1.8-0.4-2.8c0.3-1.5 1.7-1.4 2.4-3.2c0.5-1.3-0.3-1.6 0.3-3.3c0.4-1.1 0.8-1.1 1.4-2.7c0.8-2.1 0.4-2.5 0.3-3.7c0-0.7 0.1-2.8-0.5-3.4c-0.6-0.8-2-0.5-3.2-0.3c-1 0.2-1.9 0.4-3 1c-0.7 0.5-1.1 0.9-1.5 0.8c-0.2-0.2-0.3-0.8-0.2-1.2c0.3-0.9 3.1-1.9 3.1-2.7c0.1-0.4-0.4-0.5-0.3-0.8c0.2-0.7 2.4 0.3 6-1.6c1.6-0.8 1.8-2.2 6.3-1.8c1.6 0.2 1.6 0.5 4.7 1c1.4 0.3 1.2 0.2 2.1 0.4c2.6 0.5 3 1.2 4.1 0.9c0.9-0.3 1.4-0.9 2.1-0.7c0.2 0.1 0.3 0.2 0.7 0.6z" /><path class="s1" d="m146.3 48.1c0.3-0.2 0.6-0.5 0.6-0.9c0.1-0.5-0.3-1-0.6-1.4c-2.2-2.5-2.8-0.6-3.9-0.9c-0.5-0.2-0.6-0.7-0.9-0.6c-0.5 0.2 0 3-0.2 3.5c-0.3 0.6-0.9 1-1.5 1.1c-1.1 0.2-2-0.6-2.3-0.9c-1.2-1-1-1.9-2.1-2.4c-0.7-0.4-1.6-0.4-1.8 0c-0.3 0.4 1 1.4 1.9 2.7c0 0.1 0.8 1.2 0.5 1.4c-0.1 0.1-0.3-0.1-0.7 0c-0.5 0.1-0.5 0.6-0.9 0.7c-0.3 0-0.6-0.1-0.7-0.3c-0.2-0.4 0.2-0.6 0.2-1.1c0-0.5-0.4-0.8-1.2-1.6c-1-0.9-2.2-1.8-3.5-1.6c-0.2 0-1.1 0.2-1.5 0.9c-0.4 0.7 0 1.1-0.2 1.8c-0.3 0.9-1.1 1.2-2.6 1.9c-1.5 0.7-2.6 1.3-3.4 0.8c-0.3-0.2-0.2-0.3-0.9-1.3c-0.9-1.3-1.9-1.6-0.2-3.4c0.7-0.6 1.4-0.9 2.1-1.2c1.6-0.6 2.8-0.3 2.5-2.6c-0.2-1.2-0.9-1.4-1-2.4c-0.1-0.8 0.2-1.7 0.8-2.1c0.6-0.3 0.9 0.1 1.8-0.1c0.8-0.2 2.8-2.6 3.6-2.6q0.5-0.1 1.3 0.2q2.4 0.5 3 0.3c0.9-0.2 1.5-0.9 1.9-1.3c0.7-0.8 1.3-1.9 1-2.2c-0.3-0.3-1 0.4-1.6 0.1c-0.5-0.4-0.3-1.4-0.6-1.4q-0.4-0.1-1.1 0.9c0 0.1 0.5 2.6-1.6 1.6c-0.6-0.3-0.5-0.6-1.1-1c-0.9-0.6-1.7-0.2-2-0.7c-0.3-0.4 0-1 0-1.2c0.5-0.9 1.3-0.7 2.3-1.6c0.9-0.8 0.6-1.2 1.4-1.8c0.2-0.1 1.3-0.8 2.4-0.6c0.6 0.2 0.5 0.5 1.1 0.7c1.2 0.5 3.1-0.7 6 0.4c0.6 0.3 0.8 0.4 0.8 0.6c0 0.1 0 0.2-1 0.6c-0.7 0.3-0.9 0.3-1 0.5c-0.3 0.4 0.1 1.2 0.6 1.5c0.2 0.1 0.6 0.1 2.4-1c2.7-1.7 1.5-1.6 4.7-1.7c1.4 0 1.6 0 2-0.1c0.8-0.4 0.8-1.1 1.4-1.2c0.6-0.1 0.8 0.6 1.6 0.8c0.9 0.3 1.8-0.1 2.4-0.4c1.4-0.6 3-1 6.3-1.7q2.5-0.6 5-0.2c2.3 0.4 1 1.5 1.2 1.9c0.5 1 5-0.5 10.3 0.4c1.7 0.3 1.6 0.5 2.4 0.5c1.9 0 2.6-1.1 4-0.6c0.6 0.2 0.5 0.5 1.2 0.7c1.2 0.4 1.8-0.4 3.6-0.7c0.6-0.1 2-0.4 3.5 0.1c1.4 0.5 1.2 0.9 2.7 1.3c2.5 0.8 3.6 0.2 4.6 0.7c0.5 0.3 1.1 0.8 1 1.1c-0.1 0.3-0.6 0.2-1.4 0.5c-0.3 0.1-1 0.4-1.6 1c-0.8 0.8-0.3 1.5-1 2.2c-0.7 0.6-1.3 0.3-1.7 0.9c-0.5 0.8-0.2 1.9-0.2 1.9c0.2 0.9 0.7 0.9 1 1.8c0.5 1.3 0.3 2.9-1.2 2c-0.5-0.3-0.6-0.7-1-1.5c-0.7-1.1-1.1-0.9-1.8-2c-0.6-0.9-0.6-1.5-1-1.5c-0.4-0.1-0.5 1-1.5 1.6c-0.5 0.2-1 0.3-2 0.3c-1.2 0-1.6-0.2-1.9 0.2c-0.4 0.3-0.2 1.1-0.1 1.3c0.7 2.1 4.7 2.8 5.5 4.5c0.2 0.4 0.1 0.6 0.3 1.7c0.2 1.4 0.7 1.7-0.7 3.3c-0.6 0.7-0.8 0.7-1.1 1.2c-0.3 0.5-0.4 2.5-1.2 2.9c-0.4 0.3-1 0-2.1-0.5c-1.5-0.8-1.8-1.4-2.3-1.2c-0.6 0.2-1 1.5-0.6 2.4c0.4 0.7 0.9 0.6 2.2 1.7c0.7 0.7 1.2 1.1 1.2 1.7c-0.1 0.6-0.8 0.5-1.1 1.2c-0.5 1 0.3 1.6 0 2.7c-0.4 1.2-1.6 1.3-1.5 2.1c0 0.6 0.8 0.6 1.3 1.5c0.6 1.1 0.3 2.6-0.6 3.5c-0.4 0.4-1.2 0.9-1.8 0.7c-0.5-0.2-0.6-0.9-0.8-0.9c-0.3 0.1-0.5 1-0.3 1.9c0.1 1.4 0.9 2 0.6 2.4c-0.3 0.3-1.2 0.5-1.9-0.5c-0.6-0.8-0.4-1.7-0.6-2.9c-0.8-6.7-2.1-1.2-3.3-4.1c-0.3-0.9 0.2-1.5-1.1-1.6c-0.2 0-1.1 0-1.5 0.6c-0.3 0.3-0.1 0.6-0.1 1.6c0 0.5-0.1 1.6-0.6 2.6c-0.2 0.3-0.4 0.7-0.8 0.9c-0.7 0.4-1.5 0.1-1.5 0.1c-0.9-0.4-1.5-2-1.6-2.9q-0.1-0.5-0.2-1c-0.4-1-0.6-0.9-1-2.1c-0.5-1.4-0.3-2.2-0.7-2.3c-0.4-0.2-0.7 0.8-1.8 1.2c-0.6 0.3-1.4 0.2-2.9 0c-2.8-0.3-2.6-0.7-4.1-1.1c-0.8-0.3-0.8-0.2-1.8-0.5c-1.5-0.4-2-0.9-2.5-0.6c-0.4 0.2-0.7 0.6-0.7 1c0 0.6 0.8 1 1.1 1.2c0.9 0.5 1.4 0.2 1.9 0.7c0.3 0.3 0.2 0.6 0.6 1c0.5 0.4 0.9 0.3 1 0.6c0.2 0.5-0.5 1.2-0.8 1.5c-1.5 1.5-5.7 3.1-7.3 2.7c-2.6-0.5-3-6.1-4.5-6.1c-0.6 0-1.2 0.8-1.3 1.4c-0.1 0.7 0.4 1.3 0.9 2.1c1.9 2.6 1.3 2.8 2.3 3.6c1.9 1.8 4.3 1 4.6 2.1c0.2 0.6-0.4 0.9-2.1 3.2c-0.7 0.9-0.2 0.3-2.3 3.4c-1.7 2.6-1.5 2.7-1.9 4.8c-0.5 2.8-0.8 2.7-0.9 4.2c-0.1 1.7 0.3 2 0 3.4c-0.3 1-3.2 6.6-4 7.5c-0.6 0.8-1.6 1.9-3.1 2.1c-0.3 0-1.3 0.1-2.3-0.5c-1.2-0.8-0.8-1.9-2.2-3.6c-0.8-0.9-1.1-0.8-1.5-1.6c-0.4-0.8-0.3-1.6-0.1-3.1c0.3-3.2 0.5-4.7 0.2-5.4c-0.5-1.2-3.1-3.7-3.1-4.5c-0.2-1.1 1.1-1.6 1-2.9c0-0.6-0.3-0.5-0.9-2c-0.5-1.5-0.3-2-0.9-2.4c-0.6-0.5-1.1-0.1-1.6-0.7c-0.5-0.4-0.3-0.8-0.8-1.3c-0.4-0.4-1-0.7-1.5-0.7c-1.2 0-1.5 1.2-2.7 1.3c-0.7 0-0.7-0.3-2.1-0.8c-1.7-0.5-2-0.1-2.9-0.6c-1-0.5-1.5-1.5-2.1-2.9c-1.5-3.2-0.2-3.1 0.6-4.8c0.9-2.2-0.4-3.2 0.6-4.8c0.6-1 1.3-0.9 2.2-2.4c0.6-1 0.6-2.1 3.1-3.2c2.2-0.9 2.6-0.3 5.1-1.1c1.1-0.4 1.6-0.7 2.7-0.8c0.4-0.1 2.1-0.2 2.4 0.5c0.3 0.7-1.1 1.6-0.8 2.4c0.2 0.4 0.5 0.4 2.4 1.2c1.7 0.6 2.1 0.8 2.4 0.6c0.4-0.4-0.4-1.6 0.1-2c0.3-0.3 0.5-0.1 1.9 0c1.3 0.1 1.5 0 1.9 0.1c0.9 0.4 0.9 0.9 1.5 1c0.7 0.2 1.3-0.2 2.6-1c1-0.6 1.5-0.9 1.6-1.4c0-0.6-0.8-1.1-0.9-1.1c-0.6-0.5-1.2-0.2-2.9-0.5c-0.7-0.1-0.9-0.2-1-0.4c-0.3-0.5 0.1-1.3 0.6-1.5c0.4-0.1 0.5 0.2 0.9 0.1c0.5-0.1 0.3-0.9 0.9-1.3c0.7-0.5 1.5 0.4 2.5-0.1z" /><path class="s1" d="m124 32.7c0.2-0.3 0.7-0.5 1.1-0.4c0.3 0.2 0.1 0.5 0.5 0.9c0.4 0.6 1 0.3 1.6 0.9c0.4 0.4 0.7 1 0.5 1.4c-0.1 0.2-0.4 0.1-1.1 0.4c-0.8 0.3-0.8 0.6-1.6 1c-0.5 0.1-1.1 0.4-1.4 0.1c-0.4-0.3-0.3-1-0.2-1.4c0.1-0.7 0.4-0.7 0.5-1.4c0.1-0.8-0.2-1.1 0.1-1.5z" /><path class="s1" d="m191.9 57.4c-0.2-0.1-0.4-0.7-0.3-1.2c0.1-0.4 0.3-0.7 0.8-1.3c1.2-1.6 1.2-1.6 1.3-1.7q0.4-0.9 0.5-2.1q1 0.6 1.3 1.4c0.2 0.6 0 1.2-0.2 1.5c-0.4 1-0.9 0.9-2.2 2.3c-0.7 0.7-0.9 1.2-1.2 1.1z" /><path class="s1" d="m187.5 72.8c0.1-0.7 0.5-1 1.2-1.8c0.7-0.7 1.4-1.3 2.3-1.4c0.5 0 1.4 0.2 1.7 0.7c0.3 0.5-0.2 0.8-0.2 1.9c0.1 1 0.5 1.2 0.4 1.7c-0.3 0.9-1.4 1.3-2 1.5c-0.8 0.3-1.5 0.6-2.3 0.2c-1-0.5-1.4-1.8-1.1-2.8z" /><path class="s1" d="m180.7 72.8c0.4-0.2 2 1.8 2.3 2c1.2 0.7 1.8-0.8 3.6 2.3c0.4 0.7 0.9 1.6 0.5 2c-0.2 0.3-0.9 0.3-1.4 0.1c-0.9-0.5-0.7-1.4-1.5-1.8c-0.5-0.2-0.8 0-1.3-0.1c-1.7-0.3-2.7-4.3-2.2-4.5z" /><path class="s1" d="m188.9 77.7c0.4-0.2 0.7 0.4 1.5 0.8c1.1 0.5 1.7-0.1 3.7 0.2c2.1 0.3 1.9 0.6 0.1 1.2c-1.3 0.4-2 0.7-2.9 0.5c-0.8-0.1-1.4-0.5-2.1-1c-0.3-0.2-0.6-0.4-0.6-0.7c-0.1-0.4 0-0.9 0.3-1z" /><path class="s1" d="m200.9 73c0.7 0.1 0.8 0.5 1.5 0.9c0.8 0.5 1.2 0.1 2.6 0.5c0.4 0.1 1.3 0.3 2.2 0.9c0.6 0.4 1.8 1.2 1.9 2.4c0 0.3-0.1 1-0.5 1.2c-0.6 0.3-1.2-0.7-2.8-0.9c-2.6-0.3-2.6 1.6-4.3-0.5c-0.4-0.5-2.1-3.7-1.9-4.1c0.1-0.4 0.8-0.5 1.3-0.4z" /><path class="s1" d="m202 80.7c0.4 0.7-0.5 1.5 0 2.2c0.2 0.5 0.9 0.7 1.3 0.6c0.8-0.1 0.8-1 2-1.9c0.3-0.1 1-0.6 1.4-0.4c0.3 0.2 0 0.7 0.1 1.6c0.2 1.4 1.1 2.4 1.3 2.6c0.8 0.8 1.4 0.7 1.7 1.5c0.2 0.6 0 0.7 0.1 1.5c0.3 1.4 1.2 1.5 1.2 2.5c0.1 0.7-0.5 1.4-1.8 2.9c-0.9 1.1-0.8 0.8-1.9 2.1c-0.9 1.1-1.1 1.5-1.6 1.6c-0.7 0.2-1.7 0-2.3-0.5c-0.4-0.4-0.5-0.8-1-1c-0.5-0.1-0.7 0.2-1.1 0c-0.6-0.2-0.3-1-0.8-1.5c-0.4-0.5-1.1-0.2-3.1 0.1c-2.8 0.5-3.2 0.2-4.1 0.8c-0.8 0.6-0.8 1.1-1.7 1.5c-0.2 0-1.4 0.4-2-0.1c-0.6-0.5-0.1-1.4-0.6-3.4c-0.2-0.9-0.3-0.8-0.4-1.3c-0.2-1.2 0.2-2.2 0.8-3.4c0.6-1.5 0.9-2.3 1.7-2.8c0.8-0.4 1.1-0.1 2.2-0.7c3-1.5 2.1-3.1 2.9-3.4c0.6-0.2 1 0.6 1.5 0.3c0.5-0.1 0.3-0.7 0.8-1.4c0.5-0.5 1.3-0.8 2.1-0.7c0.2 0 1 0.1 1.3 0.7z" /><path class="s1" d="m210.2 99.6c0.1-0.8 4.6-2.4 6.2-4.5c0.2-0.3 1.5-2.4 2.2-2.4c0.3 0.1 0.6 0.5 0.9 1c0.8 1.4 0.7 1.5-0.8 3c-0.4 0.4-3.2 4.2-5.2 4.7c-0.7 0.2-1.2 0.1-1.4 0.1c-1-0.2-2-1.1-1.9-1.9z" /><path class="s1" d="m201 98.3c0.4-0.1 0.5 0.2 1.2 0.4c0.5 0 0.6-0.1 1.1 0c0.3 0.1 0.7 0.2 0.8 0.5c0.2 0.5-0.5 1.1-0.6 1.2c-0.1 0.1-0.5 0.5-1.1 0.4c-0.2 0-0.4-0.2-0.9-0.5c-0.6-0.4-0.9-0.7-0.9-1c-0.1-0.4 0.1-0.8 0.4-1z" /><path class="s1" d="m149.4 92.6c-0.8-0.4-0.9-1.4-0.9-2.1c0-0.8 0.4-0.8 0.8-2.1c0.5-1.3 0.2-1.7 0.8-2.5c0.3-0.5 1-1.3 1.6-1.1c0.6 0.2 0.8 1.2 0.8 1.2c0.1 1.1-0.6 1.4-1.1 2.8c-0.8 1.9 0 3.3-0.8 3.8c-0.5 0.3-1.2 0-1.2 0z" /><path class="s2" d="m68.9 55.4c0 3-1.2 5.7-3.1 7.7q-0.2 0.1-0.3 0.2c-2 2-4.7 3.2-7.7 3.2c-3 0-5.8-1.2-7.8-3.1q-0.1-0.1-0.2-0.3c-2-2-3.2-4.7-3.2-7.7c0-6.2 5-11.2 11.2-11.2c6.1 0 11.1 5 11.1 11.2z" /><path class="s3" d="m59.6 56.9q0 0.1 0.1 0.3q0.1 0.1 0.2 0.3c0.1 0.1 0.3 0.2 0.5 0.4c-1.8 0-3.2 0-5 0q0.1-0.1 0.2-0.2q0.4-0.5 0.5-1.4c0-1-0.1-3.6-0.1-5.2c0-0.1 0-0.7 0.2-1.4q0.4-0.9 0.9-1.3c0.1 0 0.2-0.1 0.5-0.2c0.9-0.5 2.2-0.5 3.1 0.3c0.4 0.3 0.6 0.7 0.7 0.8c0.3 0.6 0.3 1.2 0.3 2.4c0 0.2 0 0.6 0 1.2q0 0.1 0 0.2c0 0.3-0.1 0.5-0.1 0.8q0 0 0 0.1c-0.1 0.4-0.3 1-0.7 1.5c-0.5 0.4-1 0.6-1.3 0.7q0 0.2 0 0.4q0 0.2 0 0.3z" /><path class="s4" d="m59 56.2q0.4 0 0.6 0q0 0.2 0 0.4q-0.2 0-0.5 0c-0.7-0.1-1.1-0.5-1.3-0.7c0.3 0.1 0.7 0.3 1.2 0.3z" /><path class="s5" d="m60.3 51.5c0-0.1 0-0.1 0-0.2q0 0 0-0.1q0.2-0.1 0.6 0c0.5 0 0.6 0.2 0.6 0.2q0.1 0.1 0.1 0.2c0 0-0.1 0-0.1 0c-0.1 0.1-0.3-0.1-0.6-0.1c-0.3-0.1-0.5 0.1-0.6 0z" /><path class="s5" d="m58.2 51.5c-0.2 0-0.4 0.2-0.6 0.1c0 0 0 0-0.1-0.1c0 0 0.1 0 0.1-0.1c0 0 0.2-0.2 0.6-0.2q0.4-0.1 0.6 0q0.1 0.1 0.1 0.1c0 0.1 0 0.2 0 0.2c-0.1 0.1-0.4-0.1-0.7 0z" /><path class="s6" d="m58.4 52.4c0 0.1-0.1 0.2-0.2 0.2c-0.1 0-0.2-0.1-0.2-0.2c0-0.1 0.1-0.2 0.2-0.2c0.1 0 0.2 0.1 0.2 0.2z" /><path class="s6" d="m61.1 52.4c0 0.1-0.1 0.2-0.2 0.2c-0.1 0-0.2-0.1-0.2-0.2c0-0.1 0.1-0.2 0.2-0.2c0.1 0 0.2 0.1 0.2 0.2z" /><path class="s4" d="m59.3 53.8q0 0 0 0q0-0.1 0-0.1q0.2 0 0.4 0q0 0 0.1-0.1c0.1 0 0-0.2 0-0.3q-0.1-0.6-0.2-0.9q0 0 0.1 0q0 0 0 0q0.1 0.3 0.2 0.9c0 0.1 0 0.3-0.1 0.4c0 0 0 0-0.1 0.1q-0.2 0-0.3 0q-0.1 0-0.1 0z" /><path class="s7" d="m57.9 53.6c0 0.2-0.2 0.4-0.4 0.4c-0.3 0-0.5-0.2-0.5-0.4c0-0.3 0.2-0.5 0.5-0.5c0.2 0 0.4 0.2 0.4 0.5z" /><path class="s7" d="m61.6 53.1q0 0 0.1 0c0 0.3-0.1 0.5-0.1 0.8q0 0 0 0.1c-0.3 0-0.5-0.2-0.5-0.4c0-0.3 0.2-0.5 0.5-0.5z" /><path class="s4" d="m59.5 54.9q-0.1 0-0.3 0q-0.2-0.1-0.3-0.2q0.2 0.1 0.3 0.1q0.3 0.1 0.4 0.1c0 0 0.1 0 0.3-0.1q0.1-0.1 0.3-0.2q-0.1 0.2-0.3 0.3q-0.2 0-0.3 0z" /><path fill-rule="evenodd" class="s4" d="m59.2 54.9q-0.2-0.1-0.3-0.2q0 0 0.1 0q0.1 0.1 0.2 0.2q0 0 0.1 0q-0.1 0-0.1 0zm0.4 0q0 0 0.3-0.1q-0.3 0.1-0.3 0.1q-0.1 0-0.4-0.1q0.3 0.1 0.4 0.1zm0.3 0q-0.1 0-0.1 0q0 0 0.1 0q0.2-0.1 0.3-0.2q0-0.1 0-0.1q-0.1 0.2-0.3 0.3zm-0.3 0q0 0-0.1 0q0.1 0 0.3 0q-0.2 0-0.2 0zm-0.7-0.2q0.1 0 0.1 0q0.1 0.1 0.2 0.1q-0.1 0-0.3-0.1zm0.6 0.2q0 0 0 0q-0.1 0-0.2 0q0.1 0 0.2 0zm-0.3-0.1q0 0 0 0q0 0 0 0zm0.7 0q0 0 0 0q0 0 0 0zm0 0q0 0 0.1 0q-0.1 0-0.1 0zm0.1 0q0.1-0.1 0.2-0.2q-0.1 0.1-0.2 0.2z" /><path class="s3" d="m55.6 51.5c0.3-0.1 0.6 0.1 0.8 0.3v1.8c-0.8-0.3-1.3-0.9-1.3-1.4c0.1-0.3 0.2-0.6 0.5-0.7z" /><path class="s4" d="m55.5 52q0.2 0 0.4 0.2q0.2 0.2 0.1 0.5q0-0.1 0-0.2q-0.1 0-0.2 0q-0.1 0-0.2 0.1c0-0.1 0.1-0.2 0.2-0.2q0.1 0 0.2 0.1q-0.1-0.1-0.1-0.2q-0.2-0.2-0.4-0.2q-0.1-0.1 0-0.1z" /><path fill-rule="evenodd" class="s5" d="m55.2 49.5c0.1-0.2 0.4-0.4 0.6-0.7c0.2-0.3 0.1-0.4 0.3-0.7c0.1-0.1 0.3-0.4 0.5-0.5c0.2-0.1 0.4-0.2 1-0.1c0.7 0 0.7 0.1 1.1 0.1c0.8 0 0.8-0.4 1.5-0.4c0.2 0 0.8 0 1.2 0.4c0.2 0.1 0.3 0.3 0.4 0.4c0.1 0.1 0.6 0.7 0.4 1.5c-0.1 0.1-0.2 0.5-0.6 0.7c-0.4 0.2-0.6-0.2-1.4-0.2c-0.7 0-0.8 0.5-1.4 0.3c-0.5-0.1-0.6-0.4-1-0.5c-0.4 0-0.8 0.2-0.9 0.5c-0.2 0.3-0.2 0.5-0.2 1.1c0.1 1.2-0.2 1.3-0.1 1.9c0.1 0.5 0.5 1.2 0.9 1.2c0.3 0.1 0.4-0.2 0.8-0.4c0.6-0.2 1-0.2 1.3-0.2c0.8 0 0.9 0.3 1.5 0.4c0.1 0 0.3 0 0.4 0.1c0 0.1 0 0.2 0 0.3q-0.1 0.7-0.3 1c-0.3 0.6-0.4 0.9-0.5 1c-0.4 0.3-0.7 0.3-1.3 0.3c-0.6 0-0.9-0.1-1.3-0.2c-0.6-0.3-1-0.8-1.1-1c-0.2-0.3-0.3-0.6-0.5-1.1c-0.3-0.7-0.3-1.1-0.3-1.3c0-0.1 0.1-0.1 0.1-0.4c0-0.5 0-0.9 0-1.1c0 0-0.2-0.3-0.5-0.4c-0.1 0-0.2 0-0.3 0.1c-0.6-1.3-0.5-1.9-0.3-2.1zm3.8 5.8q0 0 0.1 0c0.3 0 0.3-0.1 0.5-0.1c0.2-0.1 0.3 0.1 0.6 0.1c0.2 0 0.4-0.2 0.4-0.3c0 0 0.1-0.2 0.1-0.4q0 0-0.1-0.1c-0.2-0.1-0.4 0-0.7-0.1c-0.1-0.1-0.2-0.1-0.3-0.4q-0.1 0.2-0.4 0.3c0 0.1-0.1 0.1-0.2 0.1c-0.2 0.1-0.3 0-0.4 0.1c-0.1 0-0.1 0-0.2 0.1c-0.1 0.2 0.3 0.7 0.6 0.7z" /><path class="s8" d="m65.5 63.3c-2 2-4.6 3.1-7.6 3.2q0 0-0.1 0c-3 0-5.8-1.2-7.8-3.1q0.4-1.6 0.5-2.4c0-0.1 0.1-0.4 0.3-0.7c0.2-0.3 0.4-0.5 0.6-0.6c0.5-0.3 1.9-0.9 3.8-1.8q0.3-0.3 0.8-1q0.6 0.3 1.9 1q0.9-0.4 1.8-0.8q0.6 0.5 0.9 0.8c2 0.8 3.5 1.5 4 1.9q0.3 0.2 0.4 0.5c0.3 0.4 0.3 0.8 0.3 1.1q0.1 0.8 0.2 1.9z" /><path class="s9" d="m60.5 58q0 0 0 0.1q-0.6 0.6-1.2 1c-0.1 0.1-0.2 0.1-0.4 0.1c-0.2 0-0.3-0.1-0.6-0.5q-0.2-0.3-0.4-0.5v8.3q0 0-0.1 0v-8.3q-0.1 0.2-0.3 0.5c-0.1 0.3-0.2 0.5-0.4 0.5q-0.1 0-0.1 0c-0.1 0-0.2 0-0.3 0c-0.5-0.3-1.1-0.8-1.4-1q-0.1-0.1 0-0.1q0 0 0.1 0c0.3 0.2 0.9 0.7 1.4 1c0 0 0.1 0 0.3 0c0.1 0 0.2-0.2 0.3-0.5q0.3-0.4 0.4-0.6q0-0.1 0.1-0.1q0.3 0.4 0.5 0.7c0.3 0.4 0.4 0.5 0.5 0.5c0.1 0 0.2 0 0.3-0.1q0.6-0.4 1.2-1q0 0 0.1 0z" /><path class="s2" d="m164.7 29.3c0 3.6-1.6 6.7-4.2 8.7c-1.9 1.6-4.3 2.5-6.9 2.5c-2.6 0-5-0.9-6.9-2.4q-0.2-0.1-0.3-0.3c-2.4-2-4-5-4-8.5c0-6.1 5-11.1 11.2-11.1c6.1 0 11.1 5 11.1 11.1z" /><path class="s10" d="m160.5 38.1c-1.9 1.5-4.3 2.4-6.9 2.4c-2.6 0-5-0.9-6.9-2.4q0.5-1.9 0.7-3.1c0.1-0.3 0.2-0.9 0.7-1.3c0.2-0.3 0.5-0.4 0.7-0.5c1-0.5 2.1-0.9 2.7-1.1h4.2c0.6 0.1 1.4 0.4 2.4 0.9c0.6 0.3 0.9 0.5 1.2 0.7c0.4 0.4 0.5 0.9 0.9 2.9q0.2 0.9 0.3 1.5z" /><path class="s11" d="m151.2 32.4q0 0 0 0q0-0.1 0.1 0c0.3 0.2 1.2 1.1 2.7 0.9c1 0 1.6-0.6 2-0.9q0 0 0.1 0q0 0.1-0.1 0.1c-0.3 0.3-1 0.9-2 1q-0.2 0-0.3 0c-1.3 0-2.2-0.8-2.5-1.1z" /><path class="s12" d="m156.2 21.9c1.2 0.1 1.9 1.6 2 1.9c0.4 0.9 0.4 1.7 0.4 2.1c0 0.1 0 0-0.1 0.5c-0.1 1.3-0.2 2-0.1 2.5c0.1 0.3 0.2 0.4 0.1 0.5c-0.1 0.3-0.9 0.3-1.9 0.2q-3.5-0.1-4.9-0.9c-0.6-0.4-0.8-0.7-0.9-0.8c-0.7-1-0.5-2.2-0.4-2.6c0.1-0.8 0.5-1.2 1.1-1.9c0.6-0.8 1.2-1.6 2.2-1.7q0.7-0.1 1.4 0.1q0.3 0.2 0.5 0.3c0.1-0.1 0.4-0.2 0.6-0.2z" /><path class="s3" d="m151.1 26.3c0-0.2 0.2-0.5 0.5-0.6q0-0.1 0.2-0.1q0.1 0.1 0.2 0.1q-0.1-0.3-0.1-0.5c0-1.3 0.7-2.4 1.8-2.8c1.4-0.6 2.9 0.2 3.4 1.1c0.2 0.4 0.2 1 0.3 2.3c0 0.4 0 0.9-0.1 1.5q0 0.4-0.1 0.9q-0.1 0.6-0.4 1c-0.1 0.2-0.3 0.4-0.3 0.4c-0.4 0.4-0.9 0.6-1.2 0.7v0.5q-0.1 0.2 0 0.5c0 0.1 0 0.2 0 0.3c0.1 0.2 0.2 0.2 0.3 0.4q0.1 0 0.1 0.1c-0.2 0.2-0.7 0.7-1.5 0.8c-1.5 0.3-2.6-0.7-2.7-0.8q0.3-0.2 0.4-0.5c0 0 0.1-0.2 0.1-0.3c0-0.4 0-1.8 0-3.7c-0.6-0.4-1-0.9-0.9-1.3z" /><path class="s6" d="m154.1 26.5c0 0.2-0.1 0.3-0.2 0.3c-0.2 0-0.2-0.1-0.2-0.3c0-0.1 0-0.2 0.2-0.2c0.1 0 0.2 0.1 0.2 0.2z" /><path class="s6" d="m156.9 26.5c0 0.2-0.1 0.3-0.2 0.3c-0.2 0-0.3-0.1-0.3-0.3c0-0.1 0.1-0.2 0.3-0.2c0.1 0 0.2 0.1 0.2 0.2z" /><path class="s12" d="m156.1 25.6q-0.1-0.1-0.1-0.1q0.1-0.1 0.1-0.1q0.2-0.1 0.6-0.1c0.4 0.1 0.5 0.2 0.5 0.3q0.1 0 0.1 0.1c-0.1 0-0.1 0.1-0.1 0.1c-0.2 0-0.3-0.1-0.6-0.2c-0.3 0-0.5 0.1-0.5 0z" /><path class="s4" d="m154.6 30.3q0.4 0.1 0.7 0v0.4c-0.2 0-0.5 0-0.9-0.1c-0.6-0.2-0.9-0.6-1-0.8c0.2 0.2 0.6 0.4 1.2 0.5z" /><path class="s13" d="m155.9 28.7c0 0.1-0.2 0.2-0.3 0.3c-0.2 0.1-0.4 0.1-0.4 0.1c-0.1 0-0.3 0-0.4-0.1c-0.2 0-0.4-0.2-0.4-0.3c0-0.1 0.1-0.1 0.1-0.1c0.2-0.1 0.4 0.1 0.7 0c0.3 0 0.4-0.1 0.6 0c0 0 0.1 0 0.1 0.1z" /><path class="s12" d="m153.8 25.6c-0.2 0.1-0.4 0.2-0.5 0.2c0 0-0.1-0.1-0.1-0.1q0-0.1 0-0.1c0.1-0.1 0.2-0.2 0.6-0.3q0.4 0 0.6 0.1q0.1 0 0.1 0.1q0 0 0 0.1c-0.1 0.1-0.3 0-0.7 0z" /><path class="s4" d="m151.4 26.2q0.3 0 0.5 0.2q0.1 0.2 0.1 0.4q0 0-0.1-0.1q0-0.1-0.1-0.1q-0.1 0-0.2 0.1c0-0.1 0.1-0.1 0.2-0.1q0.1 0 0.1 0q0-0.1-0.1-0.2q-0.1-0.1-0.4-0.2q0 0 0 0z" /><path class="s7" d="m153.7 27.7c0 0.3-0.2 0.5-0.5 0.5c-0.3 0-0.5-0.2-0.5-0.5c0-0.2 0.2-0.5 0.5-0.5c0.3 0 0.5 0.3 0.5 0.5z" /><path class="s7" d="m157.3 27.2q0 0 0 0.1q0 0.4-0.1 0.9c-0.2 0-0.4-0.2-0.4-0.5c0-0.2 0.2-0.5 0.5-0.5z" /><path class="s4" d="m155 28q0 0 0 0q0-0.1 0-0.1q0.2 0.1 0.3 0q0.1 0 0.1 0c0.1-0.1 0.1-0.2 0.1-0.3c-0.1-0.1-0.2-0.8-0.2-1q0 0 0 0q0.1 0 0.1 0c0 0.2 0.1 0.9 0.1 1c0 0.1 0.1 0.2 0 0.3q0 0-0.2 0.1q-0.1 0-0.2 0q0 0-0.1 0z" /><path class="s12" d="m151.7 24.3q0.1 0 0.1-0.1c0.1-0.4 0.5-1.4 1.5-1.9c1.4-0.6 3.2 0 3.8 1c0.5 0.8 0.4 1.9 0.3 2.5q0 0.4 0 0.6q0-0.1 0-0.4c0-0.4-0.1-0.7-0.2-1c0-0.1-0.1-0.5-0.4-0.8c-0.3-0.4-0.7-0.6-1-0.6c-0.1-0.1-0.6-0.2-1.2 0c-1.1 0.5-1 1.8-2.1 2.1q-0.1 0.1-0.3 0.1q-0.1-0.1-0.3-0.1q-0.2-0.1-0.3 0c0-0.4 0-0.8 0.1-1.4z" /><path class="s14" d="m164.3 41.1c0 1.1-0.9 2.1-2.1 2.1c-1.1 0-2.1-1-2.1-2.1c0-1.2 1-2.1 2.1-2.1c1.2 0 2.1 0.9 2.1 2.1z" /><path class="s14" d="m163.9 42.2l-1.7 2.7l-1.7-2.7z" /><path class="s13" d="m163.3 41.1c0 0.6-0.5 1-1.1 1c-0.6 0-1.1-0.4-1.1-1c0-0.6 0.5-1.1 1.1-1.1c0.6 0 1.1 0.5 1.1 1.1z" /><path class="s14" d="m162.9 47c0 0.4-0.3 0.7-0.7 0.7c-0.4 0-0.7-0.3-0.7-0.7c0-0.4 0.3-0.8 0.7-0.8c0.4 0 0.7 0.4 0.7 0.8z" /><path class="s2" d="m126.5 47c0 5.7-4.6 10.4-10.4 10.4c-5.8 0-10.5-4.7-10.5-10.4c0-5.8 4.7-10.5 10.5-10.5c5.8 0 10.4 4.7 10.4 10.5z" /><path class="s15" d="m118.3 48.1c-0.6 0.4-0.9 0.9-0.9 1.5v1h-2.6v-1c0-0.6-0.4-1.1-0.9-1.4c-1.3-0.9-2-2.4-1.7-4.1c0.3-1.6 1.6-2.9 3.1-3.1c2.6-0.5 4.7 1.4 4.7 3.8c0 1.4-0.7 2.6-1.7 3.3z" /><path fill-rule="evenodd" class="s13" d="m115.5 50.4v-0.1c0-2.1 0-3.7-0.2-4.8q-0.9-0.1-1.1-0.6c-0.1-0.3-0.1-0.7 0.1-0.8c0.2-0.1 0.5 0 0.6 0.1q0.4 0.1 0.6 1.2q0.2 0 0.6 0q0.2 0 0.5 0c0.1-0.7 0.3-1.2 0.5-1.3q0.3-0.2 0.6-0.1q0.3 0.1 0.3 0.3c0.1 0.2 0 0.4 0 0.5c-0.2 0.4-0.7 0.6-1.3 0.7c-0.1 1.1-0.2 2.8-0.3 4.8v0.1zm0-4.9q0.2 1.6 0.1 4.7h0.7c0-1.4 0.1-3.3 0.3-4.7q-0.3 0.1-0.5 0.1q-0.3 0-0.6-0.1zm-1-1.3q0 0-0.1 0c-0.1 0.1-0.2 0.4-0.1 0.6q0.2 0.4 1 0.6q-0.1-1-0.4-1.1q-0.2-0.1-0.4-0.1zm3-0.1q-0.1 0-0.3 0.1c-0.2 0.1-0.3 0.5-0.4 1.1c0.5-0.1 0.9-0.3 1.1-0.6c0 0 0.1-0.2 0-0.3q0-0.2-0.2-0.3q-0.1 0-0.2 0z" /><path class="s16" d="m117.6 49.9v1.9c0 0.2-0.1 0.3-0.2 0.3h-0.5v0.2c0 0.4-0.3 0.7-0.7 0.7h-0.2c-0.4 0-0.8-0.3-0.8-0.7v-0.2h-0.4c-0.1 0-0.2-0.1-0.2-0.3v-1.9c0-0.1 0.1-0.2 0.2-0.2h2.6c0.1 0 0.2 0.1 0.2 0.2z" /><path class="s17" d="m148.2 87.3q-0.2 0-0.3-0.1l-1.1-1.3c-0.1-0.2-0.1-0.4 0.1-0.6c0.1-0.1 0.4-0.1 0.5 0.1l1.1 1.3c0.1 0.2 0.1 0.4-0.1 0.5q-0.1 0.1-0.2 0.1zm-2.4-2.8q-0.1-0.1-0.3-0.2l-1.2-1.5c-0.2-0.2-0.1-0.4 0-0.6c0.2-0.1 0.4-0.1 0.5 0.1l1.3 1.5c0.1 0.2 0.1 0.4 0 0.6q-0.1 0.1-0.3 0.1zm-2.5-3.1q-0.2 0-0.3-0.2l-1.3-1.5c-0.1-0.2-0.1-0.4 0.1-0.5c0.1-0.2 0.4-0.2 0.5 0l1.3 1.5c0.1 0.2 0.1 0.4-0.1 0.6q-0.1 0.1-0.2 0.1zm-2.6-3.1q-0.1 0-0.2-0.2l-1.3-1.5c-0.2-0.2-0.1-0.4 0-0.5c0.2-0.2 0.4-0.1 0.6 0l1.2 1.6c0.2 0.1 0.1 0.4 0 0.5q-0.1 0.1-0.3 0.1zm-2.5-3.1q-0.2 0-0.3-0.2l-1.3-1.5c-0.1-0.2-0.1-0.4 0.1-0.5c0.1-0.2 0.4-0.1 0.5 0l1.3 1.6c0.1 0.1 0.1 0.4-0.1 0.5q-0.1 0.1-0.2 0.1zm-2.5-3.1q-0.2 0-0.3-0.1l-1.3-1.6c-0.1-0.1-0.1-0.4 0-0.5c0.2-0.1 0.4-0.1 0.6 0l1.2 1.6c0.2 0.1 0.2 0.4 0 0.5q-0.1 0.1-0.2 0.1zm-2.6-3.1q-0.2 0-0.3-0.1l-1.2-1.6c-0.2-0.1-0.2-0.4 0-0.5c0.2-0.1 0.4-0.1 0.5 0.1l1.3 1.5c0.1 0.2 0.1 0.4 0 0.5q-0.2 0.1-0.3 0.1zm-2.5-3.1q-0.2 0-0.3-0.1l-1.3-1.6c-0.1-0.1-0.1-0.4 0.1-0.5c0.1-0.1 0.4-0.1 0.5 0.1l1.3 1.5c0.1 0.2 0.1 0.4-0.1 0.5q-0.1 0.1-0.2 0.1zm-2.6-3.1q-0.1 0-0.3-0.1l-1.2-1.5c-0.2-0.2-0.1-0.4 0-0.6c0.2-0.1 0.4-0.1 0.5 0.1l1.3 1.5c0.2 0.2 0.1 0.4 0 0.5q-0.1 0.1-0.3 0.1zm-2.5-3.1q-0.2 0-0.3-0.1l-1.3-1.5c-0.1-0.2-0.1-0.4 0.1-0.6c0.1-0.1 0.4-0.1 0.5 0.1l1.3 1.5c0.1 0.2 0.1 0.4-0.1 0.6q-0.1 0-0.2 0z" /><path class="s17" d="m102.5 47.3h-2c-0.2 0-0.4-0.1-0.4-0.3c0-0.2 0.2-0.4 0.4-0.4h2c0.2 0 0.4 0.2 0.4 0.4c0 0.2-0.2 0.3-0.4 0.3zm-4 0h-2c-0.2 0-0.4-0.1-0.4-0.3c0-0.2 0.2-0.4 0.4-0.4h2c0.2 0 0.4 0.2 0.4 0.4c0 0.2-0.2 0.3-0.4 0.3zm-4 0h-2c-0.2 0-0.4-0.1-0.4-0.3c0-0.2 0.2-0.4 0.4-0.4h2c0.2 0 0.4 0.2 0.4 0.4c0 0.2-0.2 0.3-0.4 0.3zm-4 0h-2c-0.2 0-0.4-0.1-0.4-0.3c0-0.2 0.2-0.4 0.4-0.4h2c0.2 0 0.4 0.2 0.4 0.4c0 0.2-0.2 0.3-0.4 0.3zm-4 0h-2c-0.2 0-0.4-0.1-0.4-0.3c0-0.2 0.2-0.4 0.4-0.4h2c0.2 0 0.4 0.2 0.4 0.4c0 0.2-0.2 0.3-0.4 0.3zm-4 0h-2c-0.2 0-0.4-0.1-0.4-0.3c0-0.2 0.2-0.4 0.4-0.4h2c0.2 0 0.4 0.2 0.4 0.4c0 0.2-0.2 0.3-0.4 0.3zm-4 0h-2c-0.2 0-0.4-0.1-0.4-0.3c0-0.2 0.2-0.4 0.4-0.4h2c0.2 0 0.4 0.2 0.4 0.4c0 0.2-0.2 0.3-0.4 0.3zm-4 0h-2c-0.2 0-0.4-0.1-0.4-0.3c0-0.2 0.2-0.4 0.4-0.4h2c0.2 0 0.4 0.2 0.4 0.4c0 0.2-0.2 0.3-0.4 0.3z" /><path class="s17" d="m158.5 47.3h-2c-0.2 0-0.4-0.1-0.4-0.3c0-0.2 0.2-0.4 0.4-0.4h2c0.2 0 0.4 0.2 0.4 0.4c0 0.2-0.2 0.3-0.4 0.3zm-4 0h-2c-0.2 0-0.4-0.1-0.4-0.3c0-0.2 0.2-0.4 0.4-0.4h2c0.2 0 0.4 0.2 0.4 0.4c0 0.2-0.2 0.3-0.4 0.3zm-4 0h-2c-0.2 0-0.4-0.1-0.4-0.3c0-0.2 0.2-0.4 0.4-0.4h2c0.2 0 0.4 0.2 0.4 0.4c0 0.2-0.2 0.3-0.4 0.3zm-4 0h-2c-0.2 0-0.4-0.1-0.4-0.3c0-0.2 0.2-0.4 0.4-0.4h2c0.2 0 0.4 0.2 0.4 0.4c0 0.2-0.2 0.3-0.4 0.3zm-4 0h-2c-0.2 0-0.4-0.1-0.4-0.3c0-0.2 0.2-0.4 0.4-0.4h2c0.2 0 0.4 0.2 0.4 0.4c0 0.2-0.2 0.3-0.4 0.3zm-4 0h-2c-0.2 0-0.4-0.1-0.4-0.3c0-0.2 0.2-0.4 0.4-0.4h2c0.2 0 0.4 0.2 0.4 0.4c0 0.2-0.2 0.3-0.4 0.3zm-4 0h-2c-0.2 0-0.4-0.1-0.4-0.3c0-0.2 0.2-0.4 0.4-0.4h2c0.2 0 0.4 0.2 0.4 0.4c0 0.2-0.2 0.3-0.4 0.3zm-4 0h-2c-0.2 0-0.4-0.1-0.4-0.3c0-0.2 0.2-0.4 0.4-0.4h2c0.2 0 0.4 0.2 0.4 0.4c0 0.2-0.2 0.3-0.4 0.3z" /><path class="s14" d="m70.2 41.1c0 1.1-0.9 2.1-2 2.1c-1.2 0-2.1-1-2.1-2.1c0-1.2 0.9-2.1 2.1-2.1c1.1 0 2 0.9 2 2.1z" /><path class="s14" d="m69.9 42.2l-1.7 2.7l-1.8-2.7z" /><path class="s13" d="m69.2 41.1c0 0.6-0.5 1-1 1c-0.6 0-1.1-0.4-1.1-1c0-0.6 0.5-1.1 1.1-1.1c0.5 0 1 0.5 1 1.1z" /><path class="s14" d="m68.9 47c0 0.4-0.3 0.7-0.7 0.7c-0.4 0-0.8-0.3-0.8-0.7c0-0.4 0.4-0.8 0.8-0.8c0.4 0 0.7 0.4 0.7 0.8z" /><path class="s18" d="m183.7 67.9c10.5-4.4 21.4-2 22.7-1.7c3 0.7 9.6 2.3 15.6 7.8c10.2 9.5 10.4 22.7 10.5 26.2c0 4.8-0.9 3.8-3.1 16.7c-2.7 15.9-1.5 18.3-4.3 27.8c-1.7 5.8-3.3 10.7-7.2 16.2c-2.4 3.2-7.9 10.9-17.6 13.8c-3.4 1.1-6.2 1.2-8.2 1.2c-12.9 0.4-19.4 0.6-58.9 0.1c-1.4 0-4.8 0-8.6-1.8q-2.9-1.3-5.4-3.8c-5.4-5.5-6.9-15.3-6.1-22.9c0.2-2 1.4-11.4 9.4-20.7c9.5-11 16.7-8.2 28.4-16.5c20.3-14.6 14-34.6 32.8-42.4z" /><path class="s19" d="m196.6 168.2c-0.2 0-0.3-0.1-0.3-0.3c0.5-3.3 1.6-6.4 3.2-9c2.1-3.4 4.6-5.3 7.2-7.2c2.8-2.2 5.8-4.5 8.4-9c1.2-1.8 1.9-3.1 2.4-5c0.8-3.2 0.3-5.6-0.2-8.4c-0.5-2.3-1-4.8-0.9-8.2c0-2.7 0.4-4.7 0.9-6.9c1.1-5.6 2.9-9.3 4.3-12.3c1.8-3.5 3-6.1 2.4-10c-0.3-1.3-0.7-3.6-2.4-5.8c-1-1.3-2.1-2-3.1-2.8c-1.2-0.8-2.4-1.5-3.3-3q-1.5-2.3-1.5-5.5c0-0.1 0.1-0.2 0.2-0.2c0.2 0 0.3 0.1 0.3 0.2q0 3 1.4 5.2c0.9 1.4 2 2.2 3.1 2.9c1.1 0.8 2.3 1.5 3.3 2.9c1.8 2.2 2.2 4.6 2.5 6c0.7 4-0.7 6.8-2.4 10.4c-1.4 2.9-3.2 6.6-4.3 12.1c-0.5 2.2-0.9 4.1-0.9 6.8c-0.1 3.3 0.4 5.8 0.9 8.1c0.5 2.9 1 5.3 0.2 8.6c-0.5 2-1.3 3.3-2.4 5.2c-2.8 4.6-5.7 6.9-8.6 9.1c-2.6 1.9-5 3.8-7.1 7.1c-1.6 2.5-2.6 5.5-3.1 8.8c0 0.1-0.1 0.2-0.2 0.2z" /><path class="s3" d="m137.3 166.8h7.1q-0.5 2.7-1 5.3h-2.9q-1.6-0.1-3.3-0.1q0.1-2.6 0.1-5.2z" /><path class="s9" d="m127.3 175.9c0.3-1 1.4-1 4.5-2.5c2.7-1.2 4.1-1.9 4.2-1.9c0.1-0.1 0.5-0.4 1-0.5c0.2 0 0.4 0 0.5 0c0.6 0.2 2.2 0.1 5.2 0c0.7 0 0.8-0.1 1 0.1c0.6 0.3 0.3 1 0.7 3c0.1 0.8 0.3 1.2 0.1 1.9c0 0.3-0.1 0.8-0.5 1.1c-0.5 0.5-1.2 0.4-1.5 0.4c-2.1-0.1-13.1 0.1-13.8 0.1c-0.2 0-0.8 0-1.1-0.4c-0.4-0.3-0.4-0.9-0.3-1.3z" /><path class="s3" d="m152.6 166.8h7q-0.5 2.7-1 5.3h-2.8q-1.7-0.1-3.4-0.1q0.1-2.6 0.2-5.2z" /><path class="s8" d="m142.6 175.8c0.2-1 1.3-1 4.4-2.5c2.7-1.2 4.1-1.9 4.2-1.9c0.1-0.1 0.5-0.4 1-0.5c0.2 0 0.4 0 0.5 0c0.7 0.2 2.2 0.1 5.2 0c0.7 0 0.9-0.1 1.1 0.1c0.5 0.3 0.3 1 0.6 3c0.2 0.8 0.3 1.2 0.2 1.9c-0.1 0.3-0.2 0.8-0.5 1.1c-0.5 0.5-1.3 0.4-1.5 0.4c-2.1-0.1-13.1 0.1-13.8 0.1c-0.3 0-0.8 0-1.2-0.4c-0.3-0.3-0.3-0.9-0.2-1.3z" /><path class="s2" d="m198.4 109.4c0.1 3.2-0.2 6.9-1 10.8q-0.2 1-0.5 2c-1.4 0.2-3.1 0.5-4.9 1.3c-3.8 1.5-6.4 3.7-7.9 5.3c-3.2-0.8-7.7-1.5-13-1c-2.4 0.2-4.5 0.6-6.3 1.1c-2.5 21-4.2 36-4.3 37.6c0 0.2 0 1-0.5 1.5c-0.5 0.4-1 0.2-2.1 0.2c-1.3-0.1-2.3 0.1-5.2 0c-0.2 0-0.6-0.1-0.9-0.3q-0.3-0.3-0.4-0.8c-0.2-1-0.7-30.2-0.8-34.9c-2.9 19.4-5 33.6-5.2 34.6c0 0.3-0.2 0.9-0.6 1.2c-0.3 0.2-0.6 0.2-0.8 0.2c-1.2-0.1-5.8 0-6.1 0c-0.1 0-0.4 0-0.7-0.1c-0.2-0.1-0.4-0.2-0.6-0.4c-0.1-0.2-0.1-0.5-0.1-0.6q0-15.8 3.3-42.7c0.5-4.1 2.1-7.8 5.9-9.4c6-2.6 23.7-5.4 24.7-5.6q14 0 28 0z" /><path class="s18" d="m150.4 132.2c0-4.2 0.4-7.9 0.8-9.8c0.2-0.7 0.4-1.6 1.2-2.3c0.2-0.2 0.6-0.5 1.7-0.9q1.4-0.6 2.9-0.9c0.1 0 0.2 0 0.2 0.1c0 0.1 0 0.3-0.1 0.3q-1.5 0.3-2.9 0.8c-1.2 0.5-1.4 0.8-1.6 0.9c-0.6 0.6-0.9 1.4-1 2.1c-0.4 1.8-0.8 5.6-0.8 9.7c0 0.1-0.1 0.2-0.2 0.2c-0.1 0-0.2-0.1-0.2-0.2z" /><path class="s3" d="m164 92.8q1-2.2 1.9-4.7q1.2-3 2.1-5.8q3.6 1.3 7.3 2.6q-1.5 4.5-3.5 9.4q-1.1 2.6-2.2 5q-2.8-3.3-5.6-6.5z" /><path class="s8" d="m173.8 66.9c0.8-0.8 1.6-1.2 2.4-1.5c1.2-0.6 3-1.4 5.3-2.2q2.8-0.1 5.8-0.2q3.9 0 7.6 0.2c1.7 0.9 3 1.7 4 2.3c3.5 2.1 4.3 3.1 4.7 3.6c0.8 1.1 1.1 2.2 1.4 3.4c1.4 5.3 1.2 13.6 1.2 15.4q-2 0.4-4 0.8c-0.2 4.2-0.6 8.6-1.2 13.3q-0.7 5-1.6 9.4c-5.7 0.5-12.5 0.7-19.9-0.1c-3.3-0.4-6.4-0.9-9.3-1.5q0.9-6.1 1.5-12.7q0.5-5.4 0.9-10.7c-0.7 0.1-1.6 0-2.6-0.2c-1.8-0.5-3-1.5-3.6-2c2.7-7.8 4.9-13.4 5.8-15.2c0.6-1.1 1.3-1.8 1.6-2.1z" /><path class="s9" d="m180.3 64.4c0-0.1 0-0.2 0.1-0.3c0.1 0 0.2 0 0.3 0.1c1.8 3.1 5.1 4.9 8.5 4.5c4.2-0.5 6.3-4.1 6.5-4.5c0.1-0.1 0.2-0.1 0.3 0c0.1 0 0.1 0.1 0.1 0.2c-0.3 0.5-2.5 4.2-6.8 4.7q-0.5 0-1 0c-3.2 0.1-6.3-1.7-8-4.7z" /><path class="s9" d="m172.7 86.1c-0.2 0-0.2-0.1-0.2-0.2l0.5-7.7c0-0.1 0.1-0.2 0.2-0.2c0.1 0 0.2 0.1 0.2 0.3l-0.5 7.6c0 0.1-0.1 0.2-0.2 0.2z" /><path class="s9" d="m196 88.5c-0.1 0-0.2-0.1-0.2-0.2l-0.6-9.1c0-0.1 0.1-0.2 0.2-0.2c0.1 0 0.2 0 0.2 0.2l0.6 9.1c0 0.1-0.1 0.2-0.2 0.2z" /><path class="s3" d="m205.2 95.2c-0.3 3.5-0.5 5.3-1.3 6.9c-1.7 3.4-5.3 4.7-11.8 6.9c-3 1-7.2 2.2-12.4 3c-1.1 0.4-2.3 0.7-3.8 0.9q-1 0.1-1.9 0.1q-0.4 0.8-0.9 1.7q-0.5-2.9-1-5.8q0.9-0.4 2-0.6c1.9-0.5 3.6-0.5 4.9-0.4q8.6-4.4 17.3-8.9q0.4-5.2 0.8-10.4q1.5 0.1 3.3 0.1c1.9-0.1 3.5-0.3 4.9-0.6c0.1 1.7 0.2 4.1-0.1 7.1z" /><path class="s20" d="m173.4 116.1h-32.7q-2.2-11.9-4.4-23.9h32.7c1 5.6 4.3 23.4 4.4 23.9z" /><path class="s20" d="m183.7 114.7v1.4h-41.5q-0.2-0.7-0.3-1.4z" /><path class="s21" d="m167.5 92.2c1.4 7.5 4.3 23.4 4.4 23.9h-32.7c-0.1-0.5-3-16.4-4.4-23.9z" /><path class="s22" d="m154.9 104.2c0 1.2-1 2.2-2.3 2.2c-1.2 0-2.2-1-2.2-2.2c0-1.3 1-2.3 2.2-2.3c1.3 0 2.3 1 2.3 2.3z" /><path class="s3" d="m177.1 46.8c-0.2-3.1-0.2-4.8 0.5-6.3c0.2-0.4 0.6-1.4 1.6-2.3c2.2-2.1 5.8-2.4 8.4-1.3c0.6 0.2 1 0.5 1.2 0.6c1.6 1 2.3 2.6 2.5 3.2c0.7 1.6 0.7 3.1 0.7 3.8q0 0.4 0 1.2c0.5-0.3 0.9-0.4 1.4-0.3q0.2 0.1 0.4 0.2c0.5 0.4 0.8 1 0.9 1.5c0.2 1.2-0.7 2.6-2.5 3.7c0.1 1.5 0.2 2.7 0.3 3.5c0.3 5.2 0.2 7.5 1.8 8.6c0.2 0.2 0.4 0.2 0.6 0.3c-1.8 2.9-5.1 4.4-8.1 3.9c-3.4-0.7-5.1-3.5-5.3-3.9c0.7-0.4 1.1-0.9 1.4-1.2c0.2-0.3 0.3-0.5 0.4-0.7c0.1-0.3 0.2-0.6 0.2-0.8c0-0.3-0.1-1.6-0.1-2c-0.8-0.1-2.2-0.5-3.4-1.7c-1.3-1.2-1.8-2.6-2.1-3.6q-0.1-0.3-0.2-0.5c-0.1-0.6-0.2-1.1-0.3-2q0-0.3-0.1-0.7c-0.2-1.4-0.2-2.6-0.2-3.2z" /><path class="s4" d="m188.3 57.4c-0.5 0.6-1.7 1.7-3.5 2q-0.8 0.2-1.4 0.1q0-0.5 0-1q0.7 0.1 1.6 0c1.4-0.2 2.5-0.6 3.3-1.1z" /><path class="s5" d="m179.1 46.5c-0.6 0.2-1 0.6-1.4 0.5c-0.1 0-0.2-0.1-0.3-0.2c0-0.1 0.1-0.2 0.1-0.3c0.1-0.2 0.4-0.6 1.5-0.8q1.1-0.2 1.7 0c0 0.1 0.1 0.1 0.2 0.3c0 0.1-0.1 0.3-0.1 0.3c-0.2 0.4-0.8 0-1.7 0.2z" /><path class="s5" d="m184.7 46.1c0 0-0.2-0.2-0.1-0.3c0-0.2 0.1-0.3 0.1-0.3q0.6-0.4 1.7-0.3c1.2 0.1 1.6 0.5 1.7 0.6c0 0.1 0.1 0.2 0.1 0.3c-0.1 0.2-0.2 0.2-0.2 0.3c-0.4 0.1-0.9-0.2-1.6-0.3c-0.9-0.1-1.5 0.3-1.7 0z" /><path class="s6" d="m186.5 47.6c0.3 0 0.5 0.2 0.6 0.6c0 0.3-0.3 0.6-0.6 0.6c-0.3 0-0.5-0.2-0.5-0.6c-0.1-0.3 0.2-0.6 0.5-0.6z" /><path class="s6" d="m179.3 48c0.3 0 0.5 0.3 0.6 0.6c0 0.3-0.3 0.6-0.6 0.6c-0.3 0-0.5-0.2-0.6-0.5c0-0.4 0.3-0.6 0.6-0.7z" /><path class="s4" d="m182.9 52.1q-0.3-0.1-0.4-0.2c-0.3-0.3-0.2-0.7-0.2-1q0.2-1.6 0.4-2.4q0-0.1 0.1-0.1q0.1 0.1 0 0.2q-0.1 0.7-0.3 2.3c0 0.3-0.1 0.7 0.1 0.9q0.1 0 0.4 0.1q0.4 0.1 0.9 0q0.1 0 0.1 0.1q0 0.1-0.1 0.1q-0.1 0-0.2 0q-0.4 0.1-0.8 0z" /><path class="s7" d="m188.7 49.9c0.7 0 1.3 0.5 1.3 1.2c0.1 0.7-0.5 1.3-1.2 1.4c-0.7 0-1.3-0.5-1.3-1.2c-0.1-0.7 0.4-1.3 1.2-1.4z" /><path class="s7" d="m179 51.8c0.1 0.7-0.4 1.3-1.1 1.4q-0.1-0.3-0.2-0.5c-0.1-0.6-0.2-1.1-0.3-2q0.1-0.1 0.3-0.1c0.7 0 1.3 0.5 1.3 1.2z" /><path class="s13" d="m181.6 54.3c0.4-0.3 0.8 0.1 1.7 0c0.8 0 1.3-0.4 1.7-0.2c0.1 0 0.2 0.1 0.3 0.2c0.1 0.4-0.5 0.8-0.9 1c-0.4 0.2-0.8 0.2-1 0.2c-0.2 0-0.6 0-1.1-0.1c-0.4-0.2-1-0.5-1-0.9c0.1-0.1 0.2-0.2 0.3-0.2z" /><path class="s4" d="m193.8 46.8q0 0.1 0 0.1c-0.4 0.1-0.8 0.3-1 0.6q-0.2 0.2-0.3 0.5q0.2-0.1 0.5-0.1c0.2 0 0.4 0.1 0.5 0.2q0.1 0.1 0 0.1q0 0.1-0.1 0q-0.2-0.2-0.4-0.2q-0.3 0-0.5 0.2q0 0.2 0 0.4q0 0 0 0.1q-0.1 0-0.1-0.1c-0.1-0.4 0-0.9 0.3-1.2c0.2-0.4 0.6-0.6 1.1-0.6q0 0 0 0z" /><path class="s5" d="m193.6 45.5q-0.1 0-0.3 0c-0.7-0.2-1.5 0.2-2.1 1q-0.1 0-0.3 0c-0.3-0.1-0.5-0.3-0.7-1c-0.5-1.6-0.3-2.1-0.6-2.7c-0.6-0.8-1.7-0.9-2.1-1c-1.3-0.2-1.7 0.5-3.4 0.8c-1.7 0.4-1.7-0.2-3.5 0.1c-2.1 0.3-2.6 1.2-3.7 0.8c-1-0.4-1.5-1.5-1.6-1.8c-0.7-1.9 0.4-3.7 0.7-4.2c0.1-0.2 0.4-0.6 0.8-1c1.2-1.1 2.5-1.2 3.1-1.3c2-0.2 2.1 0.8 4.1 0.6c1.1-0.1 1.1-0.3 3-0.6c1.6-0.3 2.2-0.2 2.6 0c0.7 0.4 1.2 1 1.5 1.4c0.5 0.7 0.5 1 1 1.7c0.5 0.8 1.4 1.2 1.8 1.6c0.6 0.6 1 2-0.3 5.6z" /><path class="s12" d="m192.8 50.8c-0.3 1.1-0.9 2.7-2.4 3.8c-0.8 0.6-1.7 0.9-2.7 1.1q0 0.1-0.1 0.2c-0.2 0.3-0.6 0.4-1 0.4c-0.3 0.1-0.6 0.1-0.8-0.1c-0.3-0.2-0.3-0.7-0.1-1c0.2-0.2 0.4-0.3 0.9-0.3c0.4-0.1 0.7-0.1 0.9 0.1q0.1 0.1 0.1 0.2c0.9-0.1 1.8-0.5 2.5-1c1.2-0.9 1.8-2.2 2.1-3.2c-0.3 0-0.5-0.1-0.7-0.2c-0.7-0.4-1-1-1.1-1.2c-0.5-1.2-0.4-2.7 0.4-3.7c0.2-0.2 0.6-0.6 1.2-0.7c0.5-0.1 0.8 0 1 0.1q-0.1 2.7-0.2 5.4q0 0.1 0 0.1z" /><path class="s2" d="m194.9 48.1c-0.1 0.2-0.2 1.5-1.2 2.3c-0.2 0.1-0.9 0.6-1.7 0.3c-1-0.3-1.3-1.5-1.3-1.8c-0.1-0.1-0.5-2 0.7-3.1c0.2-0.3 0.6-0.5 1-0.6c-0.2-1.9-0.8-5.3-3.8-7.5q-1.8-1.3-4.1-1.7c-0.1 0-0.2-0.1-0.2-0.3c0-0.1 0.1-0.2 0.3-0.2q2.4 0.4 4.3 1.8c3.1 2.3 3.8 5.8 4 7.8q0.4 0 0.8 0.2c1.3 0.7 1.2 2.7 1.2 2.8z" /><path class="s19" d="m165.3 129.2c-0.1 0-0.2-0.1-0.3-0.2c0-0.1 0.1-0.2 0.2-0.3c3.2-0.9 6.4-1.3 9.6-1.3c3.1-0.1 6.2 0.3 9.3 1.1q1.5-1.6 3.3-2.8c5.4-3.7 11.2-4.3 15.2-4.1c0.1 0 0.3 0.1 0.2 0.2c0 0.2-0.1 0.3-0.2 0.3c-3.9-0.2-9.7 0.4-14.9 4q-1.8 1.3-3.4 2.8q-0.1 0.1-0.2 0.1q-4.6-1.2-9.3-1.1c-3.2 0-6.4 0.4-9.4 1.3q-0.1 0-0.1 0z" /><path class="s23" d="m231.7 104.2c-2.2-0.5-3.2-3.4-3.9-5.7c-2.6-7.5-0.7-18.4 5.5-20.9c2.3-0.9 5.4-0.7 7.5 0.9c3.3 2.6 2.9 7.6 2.7 9.6c-0.8 8.6-7.7 17.1-11.8 16.1z" /><path class="s23" d="m236.9 123.5c-2.9-2.7-0.4-13.5 6.2-16.1c3.1-1.3 8-1.1 9.9 1.8c1.5 2.3 0.3 5.4 0 6.1c-2.6 6.8-13.1 11-16.1 8.2z" /><path class="s23" d="m228.4 120.7c-2.4 2.4-11.1 0-13.8-5.8c-1.1-2.6-1.6-6.9 0.9-9.2c1.3-1.3 3.3-1.8 5-1.6c6.4 1.1 11 13.6 7.9 16.6z" /><path class="s23" d="m238.1 127.8c0.1-1.3 2.8-2 3-2.1c0.3 0 4-0.9 5.3 1.2c0.7 1.2 0.5 3-0.5 3.9c-2 1.8-7.8-1.1-7.8-3z" /><path class="s23" d="m217.7 137.7c-0.2-0.3-1.2-1.8-0.9-3.9c0.2-1.6 1.2-3.3 2.8-4.1c2.8-1.5 5.9 0.5 6.4 0.8c3.4 2.2 5.3 7.3 3.6 9.6c-2 2.7-9.4 1.5-11.9-2.4z" /><path class="s24" d="m236.2 125.6q-0.6 1.1-1.2 2.4q1.6-0.5 3.1-0.6q2.4-0.2 4.7 0.4c0.2 0 0.4 0.2 0.3 0.4c0 0.2-0.2 0.4-0.4 0.3q-2.3-0.5-4.5-0.3q-1.8 0.1-3.6 0.7q-0.7 1.7-1.3 3.5c0.3 4.1 0.6 8.6 0.5 13.9q0 0 0 0q0 0.5 0 0.9q-0.1 1.3-0.1 2.5q0.7-1.1 1.5-2q0.6-0.8 1.4-1.4c0.1-0.1 0.3-0.1 0.5 0c0.1 0.2 0.1 0.4 0 0.5q-0.7 0.7-1.3 1.4q-1.3 1.4-2.2 3.1c-0.2 4.5-0.7 9-1.4 13.5c-0.1 0.2-0.2 0.3-0.4 0.3q0 0-0.1 0c-0.2 0-0.3-0.2-0.3-0.4c1-5.9 1.5-11.7 1.6-17.5q0-0.4 0-0.9q-1.2-2.9-3.2-5.4c-1.7-2.1-3.7-3.9-6-5.2c-0.2-0.1-0.2-0.4-0.1-0.6c0.1-0.1 0.3-0.2 0.5-0.1c2.4 1.4 4.5 3.2 6.2 5.4q1.6 1.9 2.7 4.2c0-6.8-0.5-12.2-1.1-17.1c-1.1-2.4-2.5-4.7-4.1-6.8c-1.9-2.6-4.3-5-6.9-7c-0.2-0.1-0.2-0.4-0.1-0.5c0.2-0.2 0.4-0.2 0.6-0.1c2.6 2 5 4.4 7 7.1q1.9 2.4 3.3 5.1c-0.8-7.4-1.5-13.9 0-22.7c0.8-5 2.2-9.9 4.1-14.6c0.1-0.2 0.3-0.3 0.5-0.2c0.2 0.1 0.3 0.3 0.2 0.5c-1.9 4.6-3.3 9.5-4.1 14.5c-1.5 8.9-0.7 15.5 0.1 23.1q0.3 2.3 0.5 4.8q0.4-1.2 0.9-2.3q0 0 0 0q0.7-1.6 1.5-3.2c2.1-3.9 4.6-7.6 7.6-10.9c0.2-0.1 0.4-0.1 0.6 0c0.1 0.1 0.1 0.4 0 0.5c-3 3.3-5.5 6.9-7.5 10.8z" /><path class="s12" d="m237.3 177.1h-8.2c-1.1 0-2-1.4-2-3.2l-1.3-16.5c4.1 0 10.7 0 14.8 0l-1.3 16.5c0 1.8-0.9 3.2-2 3.2z" /></svg>