<svg width="24" height="21" viewBox="0 0 24 21" fill="none" xmlns="http://www.w3.org/2000/svg">
<g clip-path="url(#clip0_139_86)">
<path d="M21.97 0H2.03C1.49 0 0.97 0.21 0.59 0.59C0.21 0.97 0 1.49 0 2.03V18.57C0 19.11 0.21 19.62 0.59 20C0.97 20.38 1.48 20.59 2.02 20.59H21.97C22.51 20.59 23.02 20.38 23.4 20C23.78 19.62 23.99 19.11 23.99 18.57V2.03C23.99 1.49 23.78 0.98 23.4 0.6C23.03 0.21 22.51 0 21.97 0ZM2.03 1.33H21.98C22.16 1.33 22.34 1.4 22.47 1.53C22.6 1.66 22.67 1.84 22.67 2.02V4.77H1.33V2.02C1.33 1.84 1.4 1.66 1.53 1.53C1.66 1.4 1.84 1.33 2.02 1.33H2.03ZM21.98 19.26H2.03C1.85 19.26 1.67 19.19 1.54 19.06C1.41 18.93 1.34 18.75 1.34 18.57V6.11H22.68V18.57C22.68 18.75 22.61 18.93 22.48 19.06C22.35 19.19 22.17 19.26 21.99 19.26H21.98Z" fill="#343D46"/>
<path d="M3.75039 3.13008C3.75039 3.44008 3.50039 3.68008 3.20039 3.68008C2.90039 3.68008 2.65039 3.43008 2.65039 3.13008C2.65039 2.83008 2.90039 2.58008 3.20039 2.58008C3.50039 2.58008 3.75039 2.83008 3.75039 3.13008Z" fill="#343D46"/>
<path d="M5.85977 3.13008C5.85977 3.44008 5.60977 3.68008 5.30977 3.68008C5.00977 3.68008 4.75977 3.43008 4.75977 3.13008C4.75977 2.83008 5.00977 2.58008 5.30977 2.58008C5.60977 2.58008 5.85977 2.83008 5.85977 3.13008Z" fill="#343D46"/>
<path d="M7.97988 3.13008C7.97988 3.44008 7.72988 3.68008 7.42988 3.68008C7.12988 3.68008 6.87988 3.43008 6.87988 3.13008C6.87988 2.83008 7.12988 2.58008 7.42988 2.58008C7.72988 2.58008 7.97988 2.83008 7.97988 3.13008Z" fill="#343D46"/>
<path d="M15.3596 9.9799L10.7296 14.6099L8.64965 12.5299C8.38965 12.2699 7.96965 12.2699 7.70965 12.5299C7.44965 12.7899 7.44965 13.2099 7.70965 13.4699L10.7296 16.4899L16.2996 10.9199C16.4296 10.7999 16.4996 10.6299 16.4996 10.4499C16.4996 10.2699 16.4296 10.0999 16.3096 9.9799C16.1896 9.8599 16.0196 9.7799 15.8396 9.7899C15.6596 9.7899 15.4896 9.8599 15.3696 9.9899L15.3596 9.9799Z" fill="#343D46"/>
</g>
<defs>
<clipPath id="clip0_139_86">
<rect width="24" height="20.59" fill="white"/>
</clipPath>
</defs>
</svg>
