<svg width="24" height="24" viewBox="0 0 24 24" fill="none" xmlns="http://www.w3.org/2000/svg">
<g clip-path="url(#clip0_128_502)">
<path d="M1.96 19.38H17.42C17.94 19.38 18.44 19.17 18.81 18.8C19.18 18.43 19.38 17.93 19.39 17.41V1.96C19.39 1.44 19.18 0.94 18.81 0.57C18.44 0.2 17.94 0 17.42 0H1.96C1.44 0 0.94 0.21 0.58 0.58C0.22 0.95 0 1.44 0 1.96V17.42C0 17.94 0.21 18.44 0.58 18.81C0.95 19.18 1.45 19.38 1.97 19.39L1.96 19.38ZM0.92 17.42V10.15H3.69C3.81 10.15 3.93 10.1 4.02 10.01C4.11 9.92 4.16 9.81 4.16 9.68V9.22C4.16 8.98 4.26 8.74 4.43 8.57C4.6 8.4 4.84 8.3 5.08 8.3C5.32 8.3 5.56 8.4 5.73 8.57C5.9 8.74 6 8.98 6 9.22V9.68C6 9.8 6.05 9.92 6.14 10.01C6.23 10.1 6.34 10.15 6.47 10.15H9.24V12.46C8.58 12.46 7.97 12.81 7.64 13.38C7.31 13.95 7.31 14.66 7.64 15.23C7.97 15.8 8.58 16.15 9.24 16.15V18.46H1.96C1.68 18.46 1.42 18.35 1.23 18.16C1.04 17.97 0.93 17.7 0.93 17.43L0.92 17.42ZM17.42 18.46H10.15V15.69C10.15 15.57 10.1 15.45 10.01 15.36C9.92 15.27 9.81 15.22 9.68 15.22H9.22C8.98 15.22 8.74 15.12 8.57 14.95C8.4 14.78 8.3 14.54 8.3 14.3C8.3 14.06 8.4 13.82 8.57 13.65C8.74 13.48 8.98 13.38 9.22 13.38H9.68C9.8 13.38 9.92 13.33 10.01 13.24C10.1 13.15 10.15 13.04 10.15 12.91V10.14H12.46C12.46 10.8 12.81 11.41 13.38 11.74C13.95 12.07 14.66 12.07 15.23 11.74C15.8 11.41 16.15 10.8 16.15 10.14H18.46V17.41C18.46 17.69 18.35 17.95 18.16 18.14C17.97 18.33 17.7 18.44 17.43 18.44L17.42 18.46ZM18.46 1.96V9.23H15.69C15.44 9.23 15.23 9.44 15.23 9.69V10.15C15.23 10.39 15.13 10.63 14.96 10.8C14.79 10.97 14.55 11.07 14.31 11.07C14.07 11.07 13.83 10.97 13.66 10.8C13.49 10.63 13.39 10.39 13.39 10.15V9.69C13.39 9.57 13.34 9.45 13.25 9.36C13.16 9.27 13.05 9.22 12.92 9.22H10.15V6.91C10.81 6.91 11.42 6.56 11.75 5.99C12.08 5.42 12.08 4.71 11.75 4.14C11.42 3.57 10.81 3.22 10.15 3.22V0.92H17.42C17.7 0.92 17.96 1.03 18.15 1.22C18.34 1.41 18.45 1.68 18.45 1.95L18.46 1.96ZM1.96 0.92H9.23V3.69C9.23 3.81 9.28 3.93 9.37 4.02C9.46 4.11 9.57 4.16 9.7 4.16H10.16C10.4 4.16 10.64 4.26 10.81 4.43C10.98 4.6 11.08 4.84 11.08 5.08C11.08 5.32 10.98 5.56 10.81 5.73C10.64 5.9 10.4 6 10.16 6H9.7C9.45 6 9.24 6.21 9.24 6.46V9.23H6.93C6.93 8.57 6.58 7.96 6.01 7.63C5.44 7.3 4.73 7.3 4.16 7.63C3.59 7.96 3.24 8.57 3.24 9.23H0.92V1.96C0.92 1.68 1.03 1.42 1.22 1.23C1.41 1.04 1.68 0.93 1.95 0.93L1.96 0.92Z" fill="#343D46"/>
<path d="M0.46 23.9999H9.93C11.08 23.9999 12.18 23.4999 12.92 22.6199L13.79 21.5799C13.96 21.3699 14.22 21.2399 14.49 21.2299C14.65 21.2299 14.8 21.3099 14.87 21.4599C14.96 21.5999 14.96 21.7799 14.87 21.9199C14.69 22.1899 14.62 22.5099 14.66 22.8299C14.7 23.1499 14.86 23.4399 15.1 23.6599C15.34 23.8699 15.65 23.9999 15.97 23.9999H22.15C22.21 23.9999 22.26 23.9899 22.31 23.9699H22.35C22.35 23.9699 22.43 23.9299 22.46 23.8999C22.49 23.8699 22.52 23.8299 22.54 23.7899L23.92 21.0199C23.97 20.9499 23.99 20.8599 23.99 20.7799V1.84994C23.99 1.18994 23.64 0.579941 23.07 0.249941C22.5 -0.0800586 21.79 -0.0800586 21.22 0.249941C20.65 0.579941 20.3 1.18994 20.3 1.84994V20.7699C20.3 20.8399 20.32 20.8999 20.35 20.9599L21.4 23.0699H15.97C15.81 23.0699 15.66 22.9899 15.59 22.8399C15.5 22.6999 15.5 22.5199 15.59 22.3799C15.77 22.1099 15.84 21.7899 15.8 21.4699C15.76 21.1499 15.6 20.8599 15.36 20.6399C15.12 20.4299 14.81 20.2999 14.49 20.2999C13.95 20.2999 13.45 20.5499 13.11 20.9599L12.24 21.9999C11.67 22.6899 10.83 23.0799 9.94 23.0699H0.46C0.21 23.0699 0 23.2799 0 23.5299C0 23.7799 0.21 23.9899 0.46 23.9899V23.9999ZM23.08 20.3099H21.23V4.14994H23.08V20.2999V20.3099ZM22.79 21.2299L22.15 22.4999L21.51 21.2299H22.78H22.79ZM22.15 0.919941C22.39 0.919941 22.63 1.01994 22.8 1.18994C22.97 1.35994 23.07 1.59994 23.07 1.83994V3.21994H21.22V1.83994C21.22 1.59994 21.32 1.35994 21.49 1.18994C21.66 1.01994 21.9 0.919941 22.14 0.919941H22.15Z" fill="#343D46"/>
</g>
<defs>
<clipPath id="clip0_128_502">
<rect width="24" height="24" fill="white"/>
</clipPath>
</defs>
</svg>
