<svg width="27" height="21" viewBox="0 0 27 21" fill="none" xmlns="http://www.w3.org/2000/svg">
<g clip-path="url(#clip0_139_689)">
<path d="M24.2994 6.52031C23.6244 6.52031 22.9805 6.77031 22.4925 7.20031C21.994 7.64031 21.6929 8.24031 21.6305 8.88031C21.5682 9.52031 21.7552 10.1703 22.1602 10.6803L17.9544 15.8303C17.6117 15.6803 17.2482 15.6103 16.8744 15.6103C16.7186 15.6103 16.5629 15.6303 16.4071 15.6603L11.1525 4.61031C11.7236 4.16031 12.0871 3.51031 12.1494 2.80031C12.2117 2.09031 11.9729 1.39031 11.4848 0.860307C10.9863 0.340307 10.2905 0.030307 9.55324 0.000306976C8.81593 -0.029693 8.09939 0.240307 7.56977 0.730307C7.04016 1.22031 6.74939 1.90031 6.74939 2.61031C6.74939 3.32031 7.06093 4.00031 7.60093 4.48031L3.38477 11.8003C3.1667 11.7403 2.93824 11.7103 2.70977 11.7103C1.86862 11.7103 1.06901 12.0803 0.560159 12.7303C0.0513129 13.3703 -0.125226 14.2103 0.103236 15.0003C0.321313 15.7803 0.913236 16.4203 1.69208 16.7303C2.47093 17.0303 3.35362 16.9703 4.08054 16.5503C4.80747 16.1303 5.28516 15.4203 5.37862 14.6103C5.47208 13.8003 5.17093 13.0003 4.55824 12.4403L8.77439 5.13031C9.14824 5.23031 9.54285 5.25031 9.9167 5.18031L15.1713 16.2303C14.6209 16.6603 14.2575 17.2803 14.1848 17.9703C14.1121 18.6603 14.3094 19.3403 14.7559 19.8703C15.2025 20.4103 15.8463 20.7503 16.5525 20.8403C17.2586 20.9203 17.9752 20.7303 18.5359 20.3103C19.0967 19.8903 19.4602 19.2703 19.5536 18.5903C19.6471 17.9103 19.4498 17.2203 19.0136 16.6803L23.2194 11.5303C23.5621 11.6703 23.9255 11.7403 24.2994 11.7403C25.2652 11.7403 26.1582 11.2403 26.6359 10.4403C27.1136 9.64031 27.1136 8.65031 26.6359 7.84031C26.1582 7.04031 25.2652 6.54031 24.2994 6.54031V6.52031ZM2.70977 15.6203C2.3567 15.6203 2.00362 15.4803 1.75439 15.2403C1.50516 15.0003 1.35977 14.6703 1.35977 14.3203C1.35977 13.9703 1.50516 13.6403 1.75439 13.4003C2.00362 13.1603 2.34631 13.0203 2.70977 13.0203C3.07324 13.0203 3.41593 13.1603 3.66516 13.4003C3.91439 13.6403 4.05977 13.9703 4.05977 14.3203C4.05977 14.6703 3.91439 15.0003 3.66516 15.2403C3.41593 15.4803 3.07324 15.6203 2.70977 15.6203ZM8.10977 2.63031C8.10977 2.29031 8.25516 1.95031 8.50439 1.71031C8.75362 1.47031 9.09631 1.33031 9.45977 1.33031C9.82324 1.33031 10.1659 1.47031 10.4152 1.71031C10.6644 1.95031 10.8098 2.28031 10.8098 2.63031C10.8098 2.98031 10.6644 3.31031 10.4152 3.55031C10.1659 3.79031 9.82324 3.93031 9.45977 3.93031C9.09631 3.93031 8.75362 3.79031 8.50439 3.55031C8.25516 3.31031 8.10977 2.98031 8.10977 2.63031ZM16.8848 19.5203C16.5317 19.5203 16.1786 19.3803 15.9294 19.1403C15.6802 18.9003 15.5348 18.5703 15.5348 18.2203C15.5348 17.8703 15.6802 17.5403 15.9294 17.3003C16.1786 17.0603 16.5213 16.9203 16.8848 16.9203C17.2482 16.9203 17.5909 17.0603 17.8402 17.3003C18.0894 17.5403 18.2348 17.8703 18.2348 18.2203C18.2348 18.5703 18.0894 18.9003 17.8402 19.1403C17.5909 19.3803 17.2482 19.5203 16.8848 19.5203ZM24.3098 10.4203C23.9567 10.4203 23.6036 10.2803 23.3544 10.0403C23.1052 9.80031 22.9598 9.47031 22.9598 9.12031C22.9598 8.77031 23.1052 8.44031 23.3544 8.20031C23.6036 7.96031 23.9463 7.82031 24.3098 7.82031C24.6732 7.82031 25.0159 7.96031 25.2652 8.20031C25.5144 8.44031 25.6598 8.77031 25.6598 9.12031C25.6598 9.47031 25.5144 9.80031 25.2652 10.0403C25.0159 10.2803 24.6732 10.4203 24.3098 10.4203Z" fill="#343D46"/>
</g>
<defs>
<clipPath id="clip0_139_689">
<rect width="27" height="20.85" fill="white"/>
</clipPath>
</defs>
</svg>
