<svg width="24" height="26" viewBox="0 0 24 26" fill="none" xmlns="http://www.w3.org/2000/svg">
<g clip-path="url(#clip0_139_969)">
<path d="M12.16 24.2404C11.78 24.0604 11.4 23.8904 11.02 23.7104C10.12 23.2904 9.22 22.8804 8.32 22.4604C7.22 21.9504 6.13 21.4504 5.03 20.9404C4.09 20.5004 3.15 20.0704 2.2 19.6304C1.74 19.4204 1.29 19.1804 0.81 18.9904C0.81 18.9904 0.8 18.9904 0.79 18.9904C0.88 19.1404 0.96 19.2904 1.05 19.4404V7.4604C1.05 6.9104 1.07 6.3504 1.05 5.8004V5.7804C0.79 5.9304 0.52 6.0804 0.26 6.2304C0.64 6.4104 1.02 6.5804 1.4 6.7604C2.3 7.1804 3.2 7.5904 4.1 8.0104C5.2 8.5204 6.29 9.0204 7.39 9.5304C8.33 9.9704 9.27 10.4004 10.22 10.8404C10.68 11.0504 11.13 11.2904 11.61 11.4804C11.61 11.4804 11.62 11.4804 11.63 11.4804C11.54 11.3304 11.46 11.1804 11.37 11.0304V23.0104C11.37 23.5604 11.36 24.1204 11.37 24.6704V24.6904C11.37 24.9704 11.61 25.2304 11.9 25.2204C12.18 25.2104 12.43 24.9904 12.43 24.6904V12.7104C12.43 12.1604 12.44 11.6004 12.43 11.0504V11.0304C12.43 10.8604 12.33 10.6504 12.17 10.5804C11.79 10.4004 11.41 10.2304 11.03 10.0504C10.13 9.6304 9.23 9.2204 8.33 8.8004C7.23 8.2904 6.14 7.7904 5.04 7.2804C4.1 6.8404 3.16 6.4104 2.21 5.9704C1.75 5.7604 1.29 5.5404 0.82 5.3304C0.82 5.3304 0.81 5.3304 0.8 5.3304C0.62 5.2504 0.44 5.2304 0.27 5.3304C0.11 5.4204 0.01 5.6004 0.01 5.7804V17.7604C0 18.3104 0 18.8604 0 19.4204V19.4404C0 19.6104 0.1 19.8204 0.26 19.8904C0.64 20.0704 1.02 20.2404 1.4 20.4204C2.3 20.8404 3.2 21.2504 4.1 21.6704C5.2 22.1804 6.29 22.6804 7.39 23.1904C8.33 23.6304 9.27 24.0604 10.22 24.5004C10.68 24.7104 11.14 24.9304 11.61 25.1404C11.61 25.1404 11.62 25.1404 11.63 25.1404C11.88 25.2604 12.21 25.2204 12.35 24.9504C12.47 24.7204 12.43 24.3504 12.16 24.2304V24.2404Z" fill="#343D46"/>
<path d="M23.2004 18.9904C22.8204 19.1704 22.4304 19.3404 22.0504 19.5204C21.1304 19.9404 20.2104 20.3604 19.2904 20.7704C18.1804 21.2704 17.0604 21.7804 15.9504 22.2904C14.9904 22.7304 14.0204 23.1704 13.0504 23.6104C12.5804 23.8204 12.1104 24.0204 11.6504 24.2504C11.6504 24.2504 11.6404 24.2504 11.6304 24.2504C11.8904 24.4004 12.1604 24.5504 12.4204 24.7004V12.7204C12.4204 12.1704 12.4404 11.6104 12.4204 11.0604V11.0404C12.3304 11.1904 12.2504 11.3404 12.1604 11.4904C12.5404 11.3104 12.9304 11.1404 13.3104 10.9604C14.2304 10.5404 15.1504 10.1204 16.0704 9.7104C17.1804 9.2104 18.3004 8.7004 19.4104 8.1904C20.3704 7.7504 21.3404 7.3104 22.3104 6.8704C22.7804 6.6604 23.2504 6.4604 23.7104 6.2304C23.7104 6.2304 23.7204 6.2304 23.7304 6.2304C23.4704 6.0804 23.2004 5.9304 22.9404 5.7804V17.7604C22.9404 18.3104 22.9304 18.8704 22.9404 19.4204V19.4404C22.9404 19.7204 23.1804 19.9804 23.4704 19.9704C23.7504 19.9604 24.0004 19.7404 24.0004 19.4404V7.4604C24.0004 6.9104 24.0104 6.3504 24.0004 5.8004V5.7804C24.0004 5.5904 23.9004 5.4204 23.7404 5.3304C23.5604 5.2304 23.3904 5.2504 23.2104 5.3304C22.8304 5.5104 22.4404 5.6804 22.0604 5.8604C21.1404 6.2804 20.2204 6.7004 19.3004 7.1104C18.1904 7.6104 17.0704 8.1204 15.9604 8.6304C15.0004 9.0704 14.0304 9.5104 13.0604 9.9504C12.5904 10.1604 12.1104 10.3504 11.6604 10.5904C11.6604 10.5904 11.6504 10.5904 11.6404 10.5904C11.4804 10.6604 11.3804 10.8704 11.3804 11.0404V23.0204C11.3804 23.5704 11.3704 24.1304 11.3804 24.6804V24.7004C11.3804 24.8904 11.4804 25.0604 11.6404 25.1504C11.8204 25.2504 11.9904 25.2304 12.1704 25.1504C12.5504 24.9704 12.9404 24.8004 13.3204 24.6204C14.2404 24.2004 15.1604 23.7804 16.0804 23.3704C17.1904 22.8704 18.3104 22.3604 19.4204 21.8504C20.3804 21.4104 21.3504 20.9704 22.3204 20.5304C22.7904 20.3204 23.2704 20.1304 23.7204 19.8904C23.7204 19.8904 23.7304 19.8904 23.7404 19.8904C23.9904 19.7804 24.0704 19.3904 23.9304 19.1704C23.7604 18.9104 23.4804 18.8604 23.2104 18.9804L23.2004 18.9904Z" fill="#343D46"/>
<path d="M11.6299 0.979528C12.0099 1.15953 12.3999 1.32953 12.7799 1.50953C13.6999 1.92953 14.6199 2.34953 15.5399 2.75953C16.6499 3.25953 17.7699 3.76953 18.8799 4.27953C19.8399 4.71953 20.8099 5.15953 21.7799 5.59953C22.2499 5.80953 22.7099 6.03953 23.1799 6.23953C23.1799 6.23953 23.1899 6.23953 23.1999 6.23953V5.32953C22.8199 5.50953 22.4299 5.67953 22.0499 5.85953C21.1299 6.27953 20.2099 6.69953 19.2899 7.10953C18.1799 7.60953 17.0599 8.11953 15.9499 8.62953C14.9899 9.06953 14.0199 9.50953 13.0499 9.94953C12.5799 10.1595 12.1099 10.3595 11.6499 10.5895C11.6499 10.5895 11.6399 10.5895 11.6299 10.5895H12.1599C11.7799 10.4095 11.3999 10.2395 11.0199 10.0595C10.1199 9.63953 9.21988 9.22953 8.31988 8.80953C7.21988 8.29953 6.12988 7.79953 5.02988 7.28953C4.08988 6.84953 3.14988 6.41953 2.19988 5.97953C1.73988 5.76953 1.28988 5.52953 0.809883 5.33953C0.809883 5.33953 0.799883 5.33953 0.789883 5.33953V6.24953C1.16988 6.06953 1.54988 5.89953 1.92988 5.71953C2.82988 5.29953 3.72988 4.88953 4.62988 4.46953C5.72988 3.95953 6.81988 3.45953 7.91988 2.94953C8.85988 2.50953 9.79988 2.07953 10.7499 1.63953C11.2099 1.42953 11.6899 1.22953 12.1399 0.999528C12.1399 0.999528 12.1499 0.999528 12.1599 0.999528C12.4099 0.879528 12.4899 0.499528 12.3499 0.279528C12.1799 0.0195284 11.8999 -0.0304716 11.6299 0.0895284C11.2499 0.269528 10.8699 0.439528 10.4899 0.619528C9.58988 1.03953 8.68988 1.44953 7.78988 1.86953C6.68988 2.37953 5.59988 2.87953 4.49988 3.38953C3.55988 3.82953 2.61988 4.25953 1.66988 4.69953C1.20988 4.90953 0.729883 5.10953 0.279883 5.33953C0.279883 5.33953 0.269883 5.33953 0.259883 5.33953C-0.0801172 5.49953 -0.0801172 6.08953 0.259883 6.24953C0.639883 6.42953 1.02988 6.59953 1.40988 6.77953C2.32988 7.20953 3.24988 7.62953 4.16988 8.04953C5.27988 8.55953 6.37988 9.06953 7.48988 9.57953C8.43988 10.0195 9.37988 10.4595 10.3299 10.8895C10.7599 11.0895 11.1899 11.2895 11.6199 11.4895C11.8299 11.5795 11.9899 11.5695 12.1899 11.4795C12.2499 11.4495 12.3099 11.4295 12.3599 11.3995C12.6099 11.2895 12.8499 11.1695 13.0999 11.0595C13.9799 10.6595 14.8599 10.2595 15.7299 9.85953C16.8299 9.35953 17.9399 8.85953 19.0399 8.34953C20.0299 7.89953 21.0299 7.44953 22.0199 6.99953C22.5599 6.74953 23.1099 6.50953 23.6499 6.25953C23.6699 6.24953 23.6999 6.23953 23.7199 6.22953C24.0599 6.06953 24.0599 5.47953 23.7199 5.31953C23.3399 5.13953 22.9499 4.96953 22.5699 4.78953C21.6499 4.36953 20.7299 3.94953 19.8099 3.53953C18.6999 3.03953 17.5799 2.52953 16.4699 2.01953C15.4999 1.58953 14.5399 1.14953 13.5699 0.709528C13.0999 0.499528 12.6399 0.279528 12.1699 0.0695284C12.1699 0.0695284 12.1599 0.0695284 12.1499 0.0695284C11.8999 -0.0404716 11.5699 -0.0104716 11.4299 0.259528C11.3099 0.489528 11.3499 0.859528 11.6199 0.979528H11.6299Z" fill="#343D46"/>
</g>
<defs>
<clipPath id="clip0_139_969">
<rect width="24" height="25.22" fill="white"/>
</clipPath>
</defs>
</svg>
