<svg width="24" height="21" viewBox="0 0 24 21" fill="none" xmlns="http://www.w3.org/2000/svg">
<g clip-path="url(#clip0_139_204)">
<path d="M23.48 0H0.52C0.23 0 0 0.23 0 0.52V17.5C0 17.78 0.23 18.02 0.52 18.02H8.44V19.36H4.88C4.6 19.36 4.36 19.59 4.36 19.88C4.36 20.17 4.59 20.4 4.88 20.4H19.12C19.4 20.4 19.64 20.17 19.64 19.88C19.64 19.59 19.41 19.36 19.12 19.36H15.56V18.02H23.48C23.76 18.02 24 17.79 24 17.5V0.52C24 0.23 23.77 0 23.48 0ZM14.53 19.35H9.47V18.01H14.53V19.35ZM22.96 16.98H1.03V1.03H22.96V16.98Z" fill="#343D46"/>
<path d="M5.92039 12.3401C5.92039 12.3401 5.92039 12.3601 5.92039 12.3701C5.93039 12.4101 5.95039 12.4501 5.97039 12.4801C5.97039 12.4801 6.02039 12.5601 6.05039 12.5901C6.07039 12.6101 6.09039 12.6201 6.11039 12.6401C6.13039 12.6501 6.14039 12.6701 6.15039 12.6701L11.7204 15.8901C11.7204 15.8901 11.7304 15.8901 11.7404 15.8901C11.7704 15.9101 11.8004 15.9201 11.8304 15.9301C11.8404 15.9301 11.8504 15.9301 11.8604 15.9401C11.9004 15.9501 11.9404 15.9601 11.9804 15.9601C12.0204 15.9601 12.0604 15.9601 12.1004 15.9401C12.1104 15.9401 12.1204 15.9401 12.1304 15.9301C12.1604 15.9201 12.1904 15.9101 12.2204 15.8901C12.2204 15.8901 12.2304 15.8901 12.2404 15.8901L17.8104 12.6701C17.8104 12.6701 17.8404 12.6501 17.8604 12.6401C17.8804 12.6201 17.9004 12.6101 17.9204 12.5901C17.9504 12.5601 17.9804 12.5201 18.0004 12.4801C18.0004 12.4801 18.0404 12.4001 18.0504 12.3601C18.0504 12.3501 18.0504 12.3401 18.0504 12.3301C18.0504 12.3001 18.0604 12.2701 18.0604 12.2401C18.0604 12.2401 18.0604 12.2301 18.0604 12.2201V5.79006C18.0604 5.79006 18.0604 5.78006 18.0604 5.77006C18.0604 5.74006 18.0604 5.71006 18.0504 5.68006C18.0504 5.67006 18.0504 5.66006 18.0504 5.65006C18.0404 5.61006 18.0204 5.57006 18.0004 5.54006C17.9804 5.50006 17.9504 5.47006 17.9304 5.44006C17.9304 5.44006 17.9104 5.42006 17.9004 5.42006C17.8804 5.40006 17.8504 5.38006 17.8304 5.36006C17.8304 5.36006 17.8204 5.35006 17.8104 5.35006L12.2304 2.13006C12.2304 2.13006 12.2204 2.13006 12.2104 2.13006C12.1804 2.11006 12.1604 2.10006 12.1204 2.09006C12.1104 2.09006 12.1004 2.09006 12.0904 2.08006C12.0504 2.08006 12.0204 2.06006 11.9704 2.06006C11.9704 2.06006 11.8904 2.06006 11.8504 2.08006C11.8404 2.08006 11.8304 2.08006 11.8204 2.09006C11.7904 2.10006 11.7604 2.11006 11.7304 2.13006C11.7304 2.13006 11.7204 2.13006 11.7104 2.13006L6.14039 5.35006C6.14039 5.35006 6.13039 5.35006 6.12039 5.36006C6.09039 5.38006 6.07039 5.40006 6.05039 5.42006C6.05039 5.42006 6.03039 5.43006 6.03039 5.44006C6.00039 5.47006 5.98039 5.50006 5.96039 5.54006C5.94039 5.58006 5.92039 5.61006 5.91039 5.65006C5.91039 5.66006 5.91039 5.67006 5.91039 5.68006C5.91039 5.71006 5.90039 5.74006 5.90039 5.77006C5.90039 5.77006 5.90039 5.78006 5.90039 5.79006V12.2201C5.90039 12.2201 5.90039 12.2301 5.90039 12.2401C5.90039 12.2701 5.90039 12.3001 5.91039 12.3301L5.92039 12.3401ZM17.0504 11.3301L15.1804 10.2501V7.77006L17.0504 6.69006V11.3301ZM12.0004 6.53006L13.6304 7.47006L12.0004 8.41006L10.3704 7.47006L12.0004 6.53006ZM12.5204 9.31006L14.1504 8.37006V10.2501L12.5204 11.1901V9.31006ZM11.4904 9.31006V11.1901L9.86039 10.2501V8.37006L11.4904 9.31006ZM9.34039 11.1501L11.4904 12.3901V14.5501L7.47039 12.2301L9.34039 11.1501ZM12.5204 12.3901L14.6704 11.1501L16.5404 12.2301L12.5204 14.5501V12.3901ZM14.6704 6.88006L12.5204 5.64006V3.48006L16.5404 5.80006L14.6704 6.88006ZM11.4904 5.64006L9.34039 6.88006L7.47039 5.80006L11.4904 3.48006V5.64006ZM8.83039 7.78006V10.2601L6.96039 11.3401V6.70006L8.83039 7.78006Z" fill="#343D46"/>
</g>
<defs>
<clipPath id="clip0_139_204">
<rect width="24" height="20.38" fill="white"/>
</clipPath>
</defs>
</svg>
