<svg width="25" height="26" viewBox="0 0 25 26" fill="none" xmlns="http://www.w3.org/2000/svg">
<g clip-path="url(#clip0_128_339)">
<path d="M25 9.93C25 9.64 24.89 9.36 24.68 9.16C24.48 8.96 24.2 8.84 23.91 8.84H14.36V4.61C14.36 4.46 14.31 4.31 14.2 4.2L9.8 0.14C9.69 0.05 9.56 0 9.42 0H1.91C1.4 0 0.92 0.2 0.56 0.56C0.2 0.92 0 1.4 0 1.91V16.57C0 17.08 0.2 17.56 0.56 17.92C0.92 18.28 1.4 18.48 1.91 18.48H10.43V24.7C10.43 24.99 10.54 25.27 10.75 25.47C10.95 25.67 11.23 25.79 11.52 25.79H23.91C24.2 25.79 24.48 25.68 24.68 25.47C24.88 25.27 25 24.99 25 24.7V9.93ZM23.91 9.93V11.68H14.36V9.93H23.91ZM9.85 1.69L12.61 4.26H10.13C9.98 4.26 9.86 4.14 9.86 3.99V1.69H9.85ZM1.09 16.57V1.88C1.09 1.66 1.18 1.45 1.33 1.3C1.48 1.15 1.69 1.06 1.91 1.06H8.76V3.95C8.76 4.31 8.9 4.66 9.16 4.92C9.42 5.18 9.76 5.32 10.13 5.32H13.27V16.56C13.27 16.78 13.18 16.99 13.03 17.14C12.88 17.29 12.67 17.38 12.45 17.38H1.91C1.69 17.38 1.48 17.29 1.33 17.14C1.18 16.99 1.09 16.78 1.09 16.56V16.57ZM11.52 24.7V18.48H12.45C12.78 18.48 13.09 18.39 13.38 18.23C13.48 18.39 13.66 18.48 13.84 18.48H21.59C21.73 18.48 21.87 18.42 21.98 18.32C22.08 18.22 22.14 18.08 22.14 17.93V14.87C22.14 14.73 22.08 14.59 21.98 14.48C21.88 14.38 21.74 14.32 21.59 14.32H14.36V12.76H23.91V24.69H11.52V24.7ZM14.36 17.39V15.42H21.05V17.41L14.36 17.38V17.39Z" fill="#343D46"/>
<path d="M21.3398 19.7598H13.8098C13.5098 19.7598 13.2598 19.9998 13.2598 20.3098C13.2598 20.6198 13.4998 20.8598 13.8098 20.8598H21.3398C21.6398 20.8598 21.8898 20.6198 21.8898 20.3098C21.8898 19.9998 21.6498 19.7598 21.3398 19.7598Z" fill="#343D46"/>
<path d="M21.3398 22.1299H13.8098C13.5098 22.1299 13.2598 22.3699 13.2598 22.6799C13.2598 22.9899 13.4998 23.2299 13.8098 23.2299H21.3398C21.6398 23.2299 21.8898 22.9899 21.8898 22.6799C21.8898 22.3699 21.6498 22.1299 21.3398 22.1299Z" fill="#343D46"/>
<path d="M9.57984 8.93008C9.36984 8.76008 9.05984 8.77008 8.85984 8.95008C8.65984 9.14008 8.62984 9.44008 8.78984 9.66008L10.4498 11.4101L8.78984 13.1601C8.66984 13.2601 8.58984 13.4101 8.58984 13.5701C8.58984 13.7301 8.64984 13.8801 8.75984 13.9901C8.87984 14.1001 9.02984 14.1501 9.18984 14.1301C9.34984 14.1101 9.48984 14.0301 9.57984 13.9001L11.5998 11.8001C11.7898 11.5901 11.7898 11.2701 11.5998 11.0601L9.57984 8.93008Z" fill="#343D46"/>
<path d="M5.54018 8.90018C5.32018 8.70018 4.98018 8.71018 4.78018 8.93018L2.76018 11.0602C2.57018 11.2702 2.57018 11.5902 2.76018 11.8002L4.78018 13.9302C4.99018 14.1002 5.30018 14.0902 5.50018 13.9102C5.70018 13.7202 5.73018 13.4202 5.57018 13.2002L3.91018 11.4502L5.57018 9.70018C5.67018 9.59018 5.73018 9.45018 5.73018 9.30018C5.73018 9.15018 5.66018 9.01018 5.55018 8.91018L5.54018 8.90018Z" fill="#343D46"/>
<path d="M7.72022 7.75006C7.57022 7.73006 7.43022 7.76006 7.31022 7.85006C7.19022 7.94006 7.11022 8.07006 7.09022 8.21006L6.16022 14.4601C6.14022 14.6101 6.17022 14.7501 6.26022 14.8701C6.35022 14.9901 6.48022 15.0701 6.62022 15.0901H6.70022C6.97022 15.0901 7.21022 14.9001 7.25022 14.6301L8.21022 8.38006C8.23022 8.23006 8.19022 8.08006 8.10022 7.96006C8.01022 7.84006 7.87022 7.77006 7.72022 7.75006Z" fill="#343D46"/>
</g>
<defs>
<clipPath id="clip0_128_339">
<rect width="25" height="25.79" fill="white"/>
</clipPath>
</defs>
</svg>
