<svg version="1.2" xmlns="http://www.w3.org/2000/svg" viewBox="0 0 3000 2000" width="900" height="600"><style>.s0{fill:#feefdc}.s1{fill:#f99247}.s2{fill:#fec786}.s3{fill:#e2f2f1}.s4{fill:#f7ab48}.s5{fill:#21111d}.s6{fill:#7fc6a6}.s7{fill:#ffcaba}.s8{fill:#61a3c5}.s9{fill:#fe9f73}.s10{fill:#febac7}.s11{fill:#f07162}.s12{fill:#000000}.s13{fill:#fbfdfc}.s14{fill:#f75553}.s15{fill:#49263e}.s16{fill:#3f9896}.s17{fill:#f3fffe}.s18{fill:#258d8c}.s19{fill:#44243d}.s20{fill:#e24444}</style><path class="s0" d="m340.8 1862.4q-271.6-638.7-88.1-902.1c183.5-263.3 593.9-91.1 782.2-359.6c188.3-268.4 516.6-511.5 898.1-445.6c381.4 65.8 922.2 420.3 729.1 1205.3q-146.8 491.3-375.2 501.4q-228.4 10.2-1946.1 0.6z" /><path class="s1" d="m1692.6 545.6v55.9c0 18.1-14.6 32.7-32.7 32.7h-172.7c-18.1 0-32.7-14.6-32.7-32.7v-55.9c0-18.1 14.6-32.7 32.7-32.7h172.7c18.1 0 32.7 14.6 32.7 32.7z" /><path class="s2" d="m1639.4 545.6v55.9c0 18.1-14.6 32.7-32.7 32.7h-172.7c-18.1 0-32.7-14.6-32.7-32.7v-55.9c0-18.1 14.6-32.7 32.7-32.7h172.7c18.1 0 32.7 14.6 32.7 32.7z" /><path class="s3" d="m1537.8 545.1c0 8.9-7.2 16.1-16.1 16.1c-8.9 0-16-7.2-16-16.1c0-8.9 7.1-16 16-16c8.9 0 16.1 7.1 16.1 16z" /><path class="s1" d="m1180.9 1817.1l34.6-17.6q36.6-3.8 37.1 0c0.5 3.8-20.2 32.4-23.1 32.4q-3 0-45.4 0z" /><path class="s1" d="m1928.6 1844q28.3-15.7 31.9-15.7q3.6 0 16.8 17l-33.5 17.1z" /><path class="s1" d="m1977.3 1840.3v5h-790.2v-5c0-25.5 20.7-46.2 46.2-46.2h697.7c25.6 0 46.3 20.7 46.3 46.2z" /><path class="s1" d="m1768.4 1845.3h-285.8l-102.4-598.6h285.7z" /><path class="s1" d="m2425.2 644.1v820.2v131.4c0 27.3-18.1 49.5-40.4 49.5h-1650.6c-22.3 0-40.3-22.2-40.3-49.5v-131.4v-820.2c0-38.9 31.6-70.5 70.5-70.5h1590.2c39 0 70.6 31.6 70.6 70.5z" /><path class="s4" d="m1738.9 1845.3h-285.8l-102.5-598.6h285.8z" /><path class="s4" d="m653.4 1464.3v-820.2c0-38.9 31.5-70.5 70.5-70.5h1590.2c38.9 0 70.5 31.6 70.5 70.5v820.2z" /><path class="s2" d="m2384.6 1464.3v131.4c0 27.3-18 49.5-40.3 49.5h-1650.6c-22.3 0-40.3-22.2-40.3-49.5v-131.4z" /><path class="s3" d="m693.9 1428.6v-782.3c0-20.5 17.2-37.1 38.4-37.1h1573.3c21.3 0 38.5 16.6 38.5 37.1v782.3z" /><path class="s2" d="m2347.7 987.5h-673.4v-376.3l639-1.3l30.8 17.5z" /><path class="s5" d="m2344.3 1646.8h-1650.6c-23.2 0-42-22.9-42-51.1v-951.6c0-39.8 32.4-72.2 72.2-72.2v3.3c-38 0-68.9 30.9-68.9 68.9v951.6c0 26.4 17.4 47.8 38.7 47.8h1650.6z" /><path class="s5" d="m2274.2 1555.7l-2.7-2l39.4-54.8l2.7 1.9z" /><path class="s5" d="m2274.2 1581.6l-2.7-1.9l39.4-53.4l2.7 2z" /><path class="s5" d="m2345.8 1430.3h-1651.9v-3.3h1648.5v-780.7c0-19.5-16.5-35.5-36.8-35.5v-3.3c22.2 0 40.2 17.4 40.2 38.8z" /><path class="s4" d="m1153.6 1862.4c0-28.3 22.9-51.2 51.2-51.2h687.7c28.3 0 51.3 22.9 51.3 51.2z" /><path class="s5" d="m1451.3 1693.1l-2.9-1.6l19.6-34.3l2.9 1.6z" /><path class="s5" d="m1454.5 1712.9l-2.8-1.7l17.7-30.2l2.9 1.6z" /><path class="s6" d="m1667.9 987.5h-673.4v-382.2h673.4z" /><path class="s7" d="m1672.1 1386.2h-670.7v-392.3h670.7z" /><path class="s8" d="m991 1428.6h-297.1v-782.3c0-20.5 17.2-37.1 38.4-37.1h258.7z" /><path fill-rule="evenodd" class="s5" d="m2349.1 1433.6h-1660.2v-787.3c0-23.2 19.5-42.1 43.4-42.1h1573.3c24 0 43.5 18.9 43.5 42.1zm-1650.2-10h1640.2v-777.3c0-17.7-15-32.2-33.5-32.2h-1573.3c-18.4 0-33.4 14.5-33.4 32.2z" /><path class="s2" d="m1352.7 676.5c1.6-11.3 12.3-20.6 23.7-20.6c1.2 0 2.5 0.1 3.6 0.5c1.3 0.5 2.3 1.4 3.5 2c3.1 1.5 7.1 1.1 9.3 3.6c2.3 2.7 1 6.9 1.7 10.5c0.6 2.7 2.3 5 3.3 7.5c1.9 5.1 0.9 10.8-1.6 15.6c-2.5 4.8-6.2 8.8-9.9 12.7c-3.1 3.2-6.2 6.5-10.3 8.2c-8.1 3.2-14-2.8-16.6-9.8c-3.4-9.4-8.2-20-6.7-30.2z" /><path class="s2" d="m1362.6 694l1.6 206.8q-91.1-10.7-96.1-40.8c-5.1-30.2 9-55.8 11.8-61.3q2.8-5.6 25.8-71.6q16.2-38.1 56.9-33.1z" /><path class="s2" d="m1418.5 727.1q23 66 25.8 71.6c2.8 5.5 16.8 31.1 11.8 61.3q-5.1 30.1-96.1 40.8l1.6-206.8q40.7-5 56.9 33.1z" /><path class="s9" d="m1328.7 748.5l52.4-44.2l5.7 42.1q-34.6 9.5-35.9 9.5q-1.3 0-22.2-7.4z" /><path class="s10" d="m1136.4 981.1c7.9-18.2 15.9-35.8 23-50.5q27.6-57.1 82.7-59.2q50-8.8 144.5-3.8q130.1 1.3 149.8 15.7c9 6.6 29.8 51.3 49.8 97.8z" /><path class="s9" d="m1380 921.1c-70.6 4-119.3-35.4-134.6-49.8q50-8.6 144.3-3.7q49.7 0.5 92.3 4.3c-17.4 20.1-49.8 46.2-102 49.2z" /><path class="s9" d="m1392.9 868.3l-57.5-1l3.1-46.9h48.5z" /><path class="s11" d="m1338.5 820.4h48.5l2.1 16.9c-6.2 6-15.5 10.7-23.9 11.8q-1.7 0-3.6 0q-0.1 0-0.3 0q-0.1 0-0.2 0q-1.9 0-3.6 0c-7.2-0.9-14.7-4.6-20.3-9.3z" /><path class="s9" d="m1402.1 779.9c0.2 14.3-3.6 28.5-11.5 40.1c-6 8.8-14.6 16.6-26.4 17.8q-1.3 0-2.6 0q-0.1 0-0.2 0q-0.1 0-0.1 0q-1.4 0-2.6 0c-11.9-1.2-20.4-9-26.4-17.8c-7.9-11.6-11.7-25.8-11.5-40.1c0.2-16 1.6-31.9 2.7-40.6c2.4-4.7 5.4-7.8 8.4-9.9c6.1-2.8 16.1-6.5 28.7-7.9h0.7h0.3h0.6c12.7 1.4 22.7 5.1 28.8 7.9c2.9 2.1 6 5.2 8.4 9.9c1.1 8.7 2.4 24.6 2.7 40.6z" /><path class="s9" d="m1405.6 775.9c7.3 0 13.3 5.9 13.3 13.3c0 7.4-6 13.3-13.3 13.3c-7.4 0-13.4-5.9-13.4-13.3c0-7.4 6-13.3 13.4-13.3z" /><path class="s11" d="m1406.5 797.4c-0.3 0-0.5-0.2-0.5-0.4c0-0.2 0.2-0.4 0.5-0.4c2.5 0 4-1.9 4.5-3.6c0.5-1.6 0.3-3.9-1.8-5.2c-3.7-2.3-6.8 0.7-6.9 0.9l-1.1 1.1l0.3-1.5q0.9-3.5 3.5-4.9c2.9-1.6 6.4-0.5 6.5-0.5c0.3 0.1 0.4 0.4 0.3 0.6c-0.1 0.2-0.3 0.3-0.5 0.2c-0.1 0-3.3-1-5.9 0.4q-1.8 1-2.6 3.1c1.4-0.9 4-1.9 6.9-0.1c2 1.2 2.9 3.6 2.1 6.1c-0.6 2.1-2.5 4.2-5.3 4.2q0 0 0 0z" /><path class="s9" d="m1334.1 789.2c0 7.4-6 13.3-13.3 13.3c-7.4 0-13.4-5.9-13.4-13.3c0-7.4 6-13.3 13.4-13.3c7.3 0 13.3 5.9 13.3 13.3z" /><path class="s11" d="m1319.8 797.4c-2.8 0-4.7-2.1-5.3-4.2c-0.7-2.5 0.1-4.9 2.1-6.1c2.9-1.8 5.5-0.8 6.9 0.1q-0.8-2.1-2.6-3.1c-2.6-1.4-5.8-0.4-5.8-0.4c-0.3 0.1-0.5 0-0.6-0.2c0-0.2 0.1-0.5 0.3-0.6c0.1 0 3.6-1.1 6.5 0.5q2.6 1.4 3.5 4.9l0.4 1.5l-1.1-1.1c-0.2-0.2-3.3-3.2-7-0.9c-2.1 1.3-2.2 3.6-1.8 5.2c0.5 1.7 2 3.6 4.6 3.6c0.2 0 0.4 0.2 0.4 0.4c0 0.2-0.2 0.4-0.4 0.4q-0.1 0-0.1 0z" /><path class="s11" d="m1359.6 802.1c-4.2-0.9-6.5-6.5-6.6-6.8l-0.1-0.4l0.4-0.2c4.4-2.3 7.1-5.2 8-8.8c1.4-5.6-2.4-11-2.4-11c-0.2-0.3-0.1-0.6 0.1-0.7c0.2-0.2 0.5-0.1 0.7 0.1c0.2 0.2 4 5.7 2.5 11.8c-0.9 3.8-3.6 6.9-8.1 9.3c0.6 1.2 2.6 5.1 5.7 5.8c0.3 0 0.5 0.3 0.4 0.6c0 0.2-0.2 0.4-0.5 0.4q0 0-0.1-0.1z" /><path class="s12" d="m1349.1 780.7c0 1.5-1.2 2.7-2.7 2.7c-1.5 0-2.7-1.2-2.7-2.7c0-1.5 1.2-2.7 2.7-2.7c1.5 0 2.7 1.2 2.7 2.7z" /><path class="s12" d="m1379.9 778.5c1.5 0 2.8 1.2 2.8 2.7c0 1.5-1.3 2.8-2.8 2.8c-1.5 0-2.7-1.3-2.7-2.8c0-1.5 1.2-2.7 2.7-2.7z" /><path class="s2" d="m1374.1 696q52.9 13.3 34.5 80.1q-21.1-2.4-34.7-51.6l4.4-16.8l-10 14.5q-4.1 30.3-53.3 54.1c-4.3-41.2 6.1-93.6 59.1-80.3z" /><path class="s5" d="m1217 981.5l-3.3-0.7l12.3-53.5l3.3 0.7z" /><path class="s5" d="m1502.3 981.5l-12.4-53.5l3.3-0.7l12.3 53.5z" /><path class="s5" d="m1377.7 970.6l-0.6-2.2c38.1-11.5 78.3-64.1 78.8-64.6l1.7 1.4c-0.4 0.5-41.1 53.6-79.9 65.4z" /><path class="s5" d="m1279.3 922.3l-21.7-14.3l1.2-1.8l21.7 14.3z" /><path class="s5" d="m1279.2 937.8l-15.8-13.3l1.4-1.7l15.8 13.3z" /><path class="s13" d="m1353.2 807.6q0.2-0.1 16.5-0.4q-2.1 6.7-8.1 6.8q-6 0.2-8.4-6.4z" /><path class="s2" d="m1391.2 775.4q-0.4 0-0.7-0.3c-6.9-5.8-16.7-2.6-16.8-2.5c-0.6 0.2-1.2-0.2-1.4-0.7c-0.2-0.6 0.1-1.2 0.7-1.4c0.4-0.2 11.1-3.7 18.9 3c0.5 0.4 0.5 1.1 0.1 1.5c-0.2 0.3-0.5 0.4-0.8 0.4z" /><path class="s2" d="m1335.6 775.2c-0.3 0-0.6-0.1-0.8-0.4c-0.4-0.5-0.3-1.2 0.2-1.6c7.9-6.4 18.5-2.7 18.9-2.5c0.6 0.2 0.9 0.8 0.7 1.4c-0.2 0.6-0.8 0.9-1.4 0.7c-0.1-0.1-9.8-3.5-16.9 2.2q-0.3 0.2-0.7 0.2z" /><path class="s9" d="m1323.8 802.2q5 36.1 34.9 35.6z" /><path class="s9" d="m1399.7 801.2q-4.9 37.1-34.9 36.6l22-50.9z" /><path class="s12" d="m1396 701.1q-0.2 0-0.3-0.1c-22.9-7.3-37.5-7-44.2-6.2q-0.4 0.1-0.5 0.1c-0.6 0-1.1-0.4-1.2-1.1c0-0.6 0.5-1.1 1.1-1.1q0.1 0 0.3-0.1c6.9-0.8 21.9-1.2 45.2 6.3c0.5 0.2 0.9 0.8 0.7 1.4c-0.2 0.5-0.6 0.8-1.1 0.8z" /><path class="s12" d="m1311.4 768.6c-0.5 0-0.9-0.3-1-0.7c-0.2-0.6 0.1-1.2 0.7-1.4c35.5-11.3 50-45.1 50.1-45.4c0.2-0.6 0.9-0.8 1.5-0.6c0.5 0.2 0.8 0.9 0.5 1.5c-0.1 0.3-14.9 35-51.5 46.6q-0.1 0-0.3 0z" /><path class="s14" d="m1020.7 1381.1c9.9-22.6 19.9-44.6 28.7-62.8q34.3-71.1 103-73.8q62.1-10.8 179.9-4.7q161.8 1.6 186.4 19.6c11.2 8.2 37.1 63.8 61.9 121.7z" /><path class="s5" d="m1121 1381.5l-3.2-0.7l15.3-66.6l3.3 0.7z" /><path class="s5" d="m1476.9 1381.5l-15.3-66.6l3.2-0.7l15.4 66.6z" /><path class="s9" d="m1302.6 1299.9c-19.1 0.1-34.4-21.3-33.5-46.9l2.2-66.7h60.4l4.1 65c1.6 26-13.7 48.5-33.2 48.6z" /><path class="s11" d="m1271.3 1186.3h60.4l1.5 23.8c-4.9 25.8-52.1 28-62.7 1.7z" /><path class="s9" d="m1350.5 1135.9c0.3 17.9-4.5 35.5-14.4 50c-7.4 10.9-18.1 20.6-32.8 22.1q-1.6 0-3.2 0q-0.1 0-0.2 0q-0.1 0-0.3 0q-1.6 0-3.1 0c-14.8-1.5-25.5-11.2-32.9-22.1c-9.8-14.5-14.6-32.1-14.3-50c0.3-19.8 2-39.7 3.4-50.5c2.9-5.9 6.7-9.8 10.4-12.4c7.6-3.5 20-8 35.8-9.7h0.7h0.5h0.7c15.8 1.7 28.2 6.2 35.8 9.7c3.7 2.6 7.5 6.5 10.5 12.4c1.3 10.8 3 30.7 3.4 50.5z" /><path class="s9" d="m1354.8 1130.9c9.2 0 16.6 7.4 16.6 16.6c0 9.2-7.4 16.6-16.6 16.6c-9.2 0-16.6-7.4-16.6-16.6c0-9.2 7.4-16.6 16.6-16.6z" /><path class="s11" d="m1355.9 1157.7c-0.3 0-0.5-0.2-0.5-0.5c0-0.3 0.2-0.5 0.5-0.5c3.2 0 5.1-2.4 5.7-4.5c0.6-2 0.3-4.9-2.2-6.4c-4.6-2.9-8.6 0.9-8.7 1.1l-1.4 1.3l0.5-1.9c0.7-2.8 2.1-4.9 4.3-6c3.6-2.1 7.9-0.7 8.1-0.6c0.3 0.1 0.4 0.4 0.4 0.7c-0.1 0.3-0.4 0.4-0.7 0.3c-0.1 0-4.1-1.3-7.3 0.5q-2.2 1.2-3.3 3.8c1.8-1.1 5.1-2.4 8.6-0.2c2.6 1.6 3.6 4.6 2.7 7.7c-0.8 2.6-3.1 5.2-6.6 5.2q0 0-0.1 0z" /><path class="s9" d="m1260.1 1147.5c0 9.2-7.5 16.6-16.6 16.6c-9.2 0-16.6-7.4-16.6-16.6c0-9.2 7.4-16.6 16.6-16.6c9.1 0 16.6 7.4 16.6 16.6z" /><path class="s11" d="m1242.2 1157.7c-3.4 0-5.8-2.6-6.5-5.2c-0.9-3.1 0.1-6.1 2.6-7.7c3.6-2.2 6.9-0.9 8.6 0.2q-1.1-2.6-3.2-3.8c-3.3-1.8-7.3-0.5-7.3-0.5c-0.3 0.1-0.6 0-0.7-0.3c-0.1-0.3 0.1-0.6 0.3-0.7c0.2-0.1 4.5-1.5 8.2 0.6c2.1 1.1 3.5 3.2 4.3 6l0.4 1.9l-1.3-1.3c-0.2-0.2-4.1-4-8.7-1.1c-2.6 1.5-2.8 4.4-2.2 6.4c0.6 2.1 2.4 4.5 5.6 4.5c0.3 0 0.6 0.2 0.6 0.5c0 0.3-0.3 0.5-0.6 0.5q0 0-0.1 0z" /><path class="s12" d="m1284.5 1136.9c0 1.9-1.5 3.4-3.4 3.4c-1.8 0-3.4-1.5-3.4-3.4c0-1.8 1.6-3.4 3.4-3.4c1.9 0 3.4 1.6 3.4 3.4z" /><path class="s12" d="m1322.9 1134.2c1.9 0 3.4 1.5 3.4 3.4c0 1.9-1.5 3.4-3.4 3.4c-1.9 0-3.4-1.5-3.4-3.4c0-1.9 1.5-3.4 3.4-3.4z" /><path class="s12" d="m1336.9 1131.7c-0.6 0-1.3-0.2-1.8-0.6c-7.9-6.8-19.4-3-19.5-3c-1.5 0.5-3.1-0.3-3.5-1.7c-0.5-1.5 0.2-3 1.7-3.5c0.6-0.2 14.5-4.8 24.9 4c1.1 0.9 1.3 2.7 0.3 3.8c-0.6 0.7-1.3 1-2.1 1z" /><path class="s12" d="m1267.8 1131.5c-0.8 0-1.6-0.4-2.2-1.1c-0.9-1.2-0.8-2.9 0.4-3.9c10.6-8.5 24.4-3.5 25-3.3c1.4 0.5 2.2 2.1 1.7 3.5c-0.6 1.4-2.2 2.2-3.6 1.7c-0.1-0.1-11.5-4.1-19.6 2.4c-0.5 0.5-1.1 0.7-1.7 0.7z" /><path class="s9" d="m1253.1 1163.7q6.1 44.9 43.4 44.3z" /><path class="s9" d="m1347.5 1162.4q-6.1 46.2-43.4 45.6l27.3-63.3z" /><path fill-rule="evenodd" class="s12" d="m1354.5 1081c-0.3 13.5-2.9 61-4.6 89.3c-0.7 13.7-7.1 26.5-17.6 35.4q-0.3 0.3-0.7 0.6c-18.8 16-46.4 16-65.2 0q-0.4-0.3-0.8-0.6c-10.4-8.9-16.8-21.7-17.6-35.4c-1.6-28.3-4.2-75.8-4.5-89.3q-0.4-19.6 11.2-19.6l43.4-4.4v-0.1l0.9 0.1l0.9-0.1v0.1l43.4 4.4q11.6 0 11.2 19.6zm-11.8 66l1.3-33.3q-31-4.5-29.3-23.7l2.8-15.1l-9 13q-19.1 18.6-53.8 10.7v47.9c0 6.9 5.6 12.6 12.6 12.6l36 1.7l26.8-1.7c6.8 0 12.3-5.4 12.6-12.1z" /><path class="s11" d="m1305.8 1161.6q0 0 0 0l-12.8-1.2l2.8-30.7c0.1-0.4 0.5-0.8 0.9-0.7c0.5 0 0.8 0.4 0.8 0.9l-2.7 29l11.1 1c0.5 0.1 0.8 0.5 0.8 1c-0.1 0.4-0.4 0.7-0.9 0.7z" /><path class="s12" d="m1296.5 1078.9q-44.2-3.2-44.8-2.8c-0.7 0.4 1 50.7-6.4 45.6c-7.3-5.1-23.7-72.2-0.4-78.7c23.3-6.6 70.5 14.5 78 16.3z" /><path class="s12" d="m1314.7 1060.8c1.3-0.3 20.9-3.9 33.5 0.2c13.9 4.5 14.2 36.1 10.4 43.7q-3.9 7.6-6.5 26.4q-10.8-31.3-13.1-38.7q-2.3-7.3-24.3-31.6z" /><path class="s13" d="m1289.1 1169.8q0.3-0.1 20.5-0.5q-2.5 8.3-10 8.5q-7.5 0.2-10.5-8z" /><path class="s5" d="m1298.9 1311.3c-40.6-1.2-43-56.4-43-56.9l3.3-0.1c0.1 0.5 2.3 52.6 39.8 53.6z" /><path class="s5" d="m1003.8 1428.6h-12.8v-816.7h12.8z" /><path class="s5" d="m1661.5 609.2h12.8v824h-12.8z" /><path class="s15" d="m2160.1 1145.7q2.2 34.9 19.5 50.4c17.3 15.4 59.9 32.7 59.5 74c-0.3 41.4-81.8 57.4-100.9 56.8c-19.1-0.6-48.3 60.3-54.2-12.4c-6-72.8-39.1-64-11.2-92.5c27.8-28.4 36.4-25.8 50.9-47.1q14.5-21.4 36.4-29.2z" /><path class="s15" d="m2033.6 1136.8c10.8 1.2 39.2 66.7 41.6 69.7c2.4 3.1-8.6 79.7-8.1 85.1q0.6 5.4-64.7 21.1l-23.3-57.6v-106.5q43.6-13 54.5-11.8z" /><path class="s15" d="m2069.6 1061.6c50 0 90.5 40.5 90.5 90.5c0 50-40.5 90.5-90.5 90.5c-50 0-90.5-40.5-90.5-90.5c0-50 40.5-90.5 90.5-90.5z" /><path class="s16" d="m1805.8 1384.8c23.3-54.5 47.6-106.7 58.2-114.4q23-16.9 175.1-18.5q110.7-5.7 169.1 4.5q64.5 2.5 96.8 69.3c8.2 17.1 17.6 37.8 26.9 59.1z" /><path class="s5" d="m2237.5 1385.1l-14.4-62.5l3.3-0.8l14.4 62.6z" /><path class="s5" d="m1903.3 1385.1l-3.2-0.7l14.4-62.6l3.2 0.8z" /><path class="s9" d="m2035.9 1262.7l3.8-61h56.7l2.1 62.7c0.8 24.1-13.6 44.1-31.5 44c-18.3-0.1-32.7-21.2-31.1-45.7z" /><path class="s11" d="m2097.2 1225.6c-10 24.7-54.3 22.7-58.9-1.6l1.4-22.3h56.7z" /><path class="s9" d="m2025.2 1106.9c2.8-5.5 6.4-9.2 9.9-11.7c7.1-3.2 18.7-7.5 33.6-9.1h0.7h0.4h0.7c14.8 1.6 26.5 5.9 33.6 9.1c3.5 2.5 7.1 6.2 9.8 11.7c1.3 10.1 2.9 28.8 3.2 47.4c0.3 16.8-4.2 33.4-13.5 47c-6.9 10.2-17 19.4-30.8 20.7q-1.5 0.1-3 0.1q-0.1 0-0.2 0q-0.1 0-0.2 0q-1.6 0-3-0.1c-13.9-1.3-23.9-10.5-30.9-20.7c-9.2-13.6-13.7-30.2-13.5-47c0.3-18.6 1.9-37.3 3.2-47.4z" /><path class="s9" d="m2033.6 1165.2c0 8.6-7 15.6-15.6 15.6c-8.6 0-15.6-7-15.6-15.6c0-8.6 7-15.6 15.6-15.6c8.6 0 15.6 7 15.6 15.6z" /><path class="s11" d="m2016.8 1174.9c-3.3 0-5.4-2.5-6.2-5c-0.8-2.9 0.2-5.7 2.5-7.2c3.4-2.1 6.5-0.8 8.1 0.2q-1-2.5-3-3.6c-3.1-1.7-6.9-0.5-6.9-0.5c-0.3 0.1-0.5 0-0.6-0.3c-0.1-0.2 0-0.5 0.3-0.6c0.2-0.1 4.2-1.4 7.7 0.5c1.9 1.1 3.3 3 4 5.7l0.4 1.8l-1.3-1.3c-0.1-0.1-3.8-3.7-8.1-1c-2.4 1.5-2.6 4.2-2.1 6.1c0.6 1.9 2.3 4.2 5.3 4.2c0.3-0.1 0.5 0.2 0.5 0.4c0 0.3-0.2 0.5-0.5 0.6q0 0-0.1 0z" /><path class="s9" d="m2122.6 1149.6c8.6 0 15.6 7 15.6 15.6c0 8.6-7 15.6-15.6 15.6c-8.6 0-15.6-7-15.6-15.6c0-8.6 7-15.6 15.6-15.6z" /><path class="s11" d="m2123.6 1174.9c-0.2-0.1-0.5-0.3-0.5-0.6c0-0.2 0.3-0.5 0.5-0.4c3 0 4.8-2.3 5.4-4.2c0.5-1.9 0.3-4.6-2.1-6.1c-4.3-2.7-8 0.9-8.2 1l-1.2 1.3l0.4-1.8q1-4 4-5.7c3.4-1.9 7.5-0.6 7.7-0.5c0.2 0.1 0.4 0.4 0.3 0.6c-0.1 0.3-0.4 0.4-0.7 0.3c0 0-3.8-1.2-6.8 0.5q-2.1 1.1-3.1 3.6c1.7-1 4.8-2.3 8.1-0.2c2.4 1.5 3.4 4.3 2.5 7.2c-0.7 2.5-2.9 5-6.2 5q0 0-0.1 0z" /><path class="s12" d="m2087.2 1152.1c1.7 0 3.2 1.4 3.2 3.2c0 1.8-1.5 3.2-3.2 3.2c-1.8 0-3.2-1.4-3.2-3.2c0-1.8 1.4-3.2 3.2-3.2z" /><path class="s12" d="m2051.1 1155.9c0 1.8-1.4 3.2-3.2 3.2c-1.7 0-3.1-1.4-3.1-3.2c0-1.7 1.4-3.2 3.1-3.2c1.8 0 3.2 1.5 3.2 3.2z" /><path class="s9" d="m2113.5 1180.4q-5.7 42.2-40.7 41.6z" /><path class="s9" d="m2039.9 1162.5l25.7 59.5q-35 0.6-40.7-42.8z" /><path class="s15" d="m2042.7 1146.3c-0.4-0.4-0.3-1.1 0.1-1.4c7.4-6.3 17.4-3 17.8-2.8c0.5 0.1 0.8 0.7 0.6 1.3c-0.1 0.5-0.7 0.8-1.3 0.6c-0.1 0-9.3-3-15.7 2.5q-0.3 0.2-0.7 0.2c-0.3 0-0.6-0.1-0.8-0.4z" /><path class="s15" d="m2095 1146.3c-6.6-5.3-15.7-2.1-15.8-2.1c-0.5 0.2-1.1 0-1.3-0.6c-0.2-0.5 0-1.1 0.6-1.3c0.4-0.2 10.3-3.7 17.8 2.4c0.5 0.3 0.5 1 0.2 1.4c-0.2 0.3-0.5 0.4-0.8 0.4q-0.4 0-0.7-0.2z" /><path class="s15" d="m2045.2 1076.5c9.3-3.3 5.5-1.4 27.6-2.3c22-1 15 2.7 36.5 11.9c21.6 9.1 9 5.6 20.9 13.5c11.9 7.9 16.8 39.8 22.8 52.5c6 12.7 1.4 51.2 0 66q-1.4 14.8-39.5-37.7q2.3-54.1-31.8-59.5q-34-5.4-36.9-29.5q-8.9-11.7 0.4-14.9z" /><path class="s15" d="m2042.3 1078.3q8.3 28.9 5.6 36.3q-2.6 7.4-25.8 35.6q-9.8-18-6.7-26.1c3.1-8-13.3-5.9-9.6-9.9q3.7-3.9 35.2-37.3z" /><path class="s15" d="m2018 1041c13.8 0 25 11.2 25 25c0 13.8-11.2 25-25 25c-13.8 0-25-11.2-25-25c0-13.8 11.2-25 25-25z" /><path class="s15" d="m2115.4 1041c13.8 0 25 11.2 25 25c0 13.8-11.2 25-25 25c-13.8 0-25-11.2-25-25c0-13.8 11.2-25 25-25z" /><path class="s14" d="m2129.7 1088q-0.1-0.1-0.3-0.3c-3.7-3.9-17.5-16.9-39.5-21.2c-1.4-0.2-2.4-1.6-2.1-3c0.3-1.4 1.6-2.3 3.1-2.1c23.5 4.5 38.3 18.5 42.3 22.7l0.1 0.1c1 1 1.1 2.6 0.1 3.6c-0.5 0.6-1.2 0.9-1.9 0.9c-0.7 0-1.3-0.3-1.8-0.7z" /><path class="s14" d="m2002.2 1089.7c-1-1-1-2.6-0.1-3.7l0.2-0.1c3.8-4.3 18.1-18.8 41.5-24.1c1.4-0.3 2.8 0.5 3.1 1.9c0.3 1.5-0.6 2.8-2 3.2c-21.8 4.9-35.2 18.4-38.7 22.4q-0.3 0.3-0.3 0.4c-0.5 0.5-1.2 0.7-1.8 0.7c-0.7 0-1.3-0.2-1.9-0.7z" /><path class="s5" d="m2091.6 1114.7q0 0 0 0c-23.1-0.8-39.8-18.7-40.5-19.4c-0.5-0.5-0.4-1.2 0-1.6c0.5-0.4 1.2-0.4 1.6 0.1c0.2 0.1 16.9 18 39 18.6c0.6 0.1 1 0.6 1 1.2c0 0.6-0.5 1.1-1.1 1.1z" /><path class="s5" d="m2218.8 1251.4c-0.5 0-0.9-0.2-1.1-0.7c-4.5-12.1-15.2-20-27.6-29.2c-6.2-4.6-12.5-9.3-19-15.1c-28.4-25.2-28-56.5-28-56.8c0-0.6 0.5-1.1 1.2-1.1c0.6 0 1.1 0.5 1 1.1c0 0.4-0.4 30.6 27.3 55.2c6.4 5.7 12.7 10.4 18.8 14.9c12.7 9.4 23.7 17.5 28.4 30.2c0.2 0.6-0.1 1.2-0.7 1.5q-0.1 0-0.3 0z" /><path class="s11" d="m2068.9 1175.7c-4-0.8-6.1-6.2-6.2-6.4l-0.1-0.4l0.4-0.2c4.1-2.1 6.7-4.9 7.5-8.2c1.3-5.3-2.2-10.4-2.3-10.4c-0.1-0.2-0.1-0.5 0.1-0.7c0.3-0.1 0.5-0.1 0.7 0.2c0.1 0.2 3.8 5.4 2.4 11.1c-0.9 3.5-3.4 6.4-7.6 8.7c0.5 1.1 2.4 4.8 5.3 5.4c0.3 0.1 0.4 0.3 0.4 0.6c-0.1 0.2-0.3 0.3-0.5 0.3q0 0-0.1 0z" /><path class="s11" d="m2072.6 1185c-0.3-0.1-0.4-0.4-0.3-0.7c0.1-0.3 0.4-0.4 0.7-0.3c2.6 0.9 5.1 0.9 7.2-0.2c4-2.1 5.5-7.3 5.5-7.3c0.1-0.3 0.4-0.5 0.7-0.4c0.2 0.1 0.4 0.4 0.3 0.7c0 0.2-1.6 5.6-6.1 7.9q-1.9 1-4.1 1q-1.8 0-3.9-0.7z" /><path class="s5" d="m1977.6 1298.7l-11.2-18.5l2.9-1.7l11.2 18.5z" /><path class="s5" d="m1977.6 1318.3l-15.5-28.9l2.9-1.6l15.5 29z" /><path class="s11" d="m2078.8 1162.9c-0.6 0-0.6-1.1 0-1.1c0.7 0 0.7 1.1 0 1.1z" /><path class="s11" d="m2083.1 1166.4c-0.6 0-0.6-1 0-1c0.7 0 0.7 1 0 1z" /><path class="s11" d="m2076.5 1169c-0.6 0-0.6-1.1 0-1.1c0.7 0 0.7 1.1 0 1.1z" /><path class="s11" d="m2089.5 1163.7c-0.7 0-0.7-1.1 0-1.1c0.7 0 0.7 1.1 0 1.1z" /><path class="s11" d="m2096.4 1169.2c-0.6 0-0.6-1 0-1c0.7 0 0.7 1 0 1z" /><path class="s11" d="m2099.1 1161.2c-0.7 0-0.7-1 0-1c0.7 0 0.7 1 0 1z" /><path class="s11" d="m2059.2 1162c-0.7 0-0.7-1 0-1c0.6 0 0.6 1 0 1z" /><path class="s11" d="m2053.5 1168.8c-0.7 0-0.7-1.1 0-1.1c0.7 0 0.7 1.1 0 1.1z" /><path class="s11" d="m2049.8 1164.7c-0.7 0-0.7-1 0-1c0.7 0 0.7 1 0 1z" /><path class="s11" d="m2046.6 1167.4c-0.7 0-0.7-1.1 0-1.1c0.6 0 0.6 1.1 0 1.1z" /><path class="s11" d="m2039.6 1161.2c-0.7 0-0.7-1 0-1c0.7 0 0.7 1 0 1z" /><path class="s11" d="m2035.7 1168.3q-0.1 0-0.1 0q-0.1 0-0.2 0q-0.1-0.1-0.2-0.2q-0.1 0-0.1-0.1q-0.1-0.1-0.1-0.2q0.1-0.1 0.1-0.2q0-0.1 0.1-0.2q0.1 0 0.1-0.1q0.1 0 0.3 0q0 0 0.1 0q0.1 0 0.2 0q0.1 0 0.2 0.1q0 0.1 0.1 0.2q0 0.1 0 0.2q0 0 0 0.1q-0.1 0.1-0.1 0.2q-0.1 0.1-0.2 0.1q-0.1 0.1-0.2 0.1z" /><path class="s11" d="m2033.1 1161.8q0-0.1-0.1-0.1q-0.1-0.1-0.1-0.2q-0.1-0.1-0.1-0.2q0-0.1 0.1-0.2q0-0.1 0.1-0.2q0.1 0 0.1-0.1q0.1 0 0.3 0q0 0 0.1 0q0.1 0 0.2 0.1q0.1 0.1 0.2 0.1q0 0.1 0.1 0.2q0 0.1 0 0.2q0 0.1 0 0.2q-0.1 0.1-0.1 0.2q-0.1 0-0.2 0.1q-0.1 0-0.2 0q-0.1 0-0.2 0q-0.1 0-0.2-0.1z" /><path class="s5" d="m2344.1 1428.6h-1340.3v-47.5h1340.3z" /><path class="s8" d="m1692.6 984.9c9-20.5 18-40.4 25.9-56.9q31.1-64.4 93.4-66.8q56.2-9.9 162.9-4.3q146.6 1.5 168.9 17.8c10.1 7.4 33.6 57.8 56.1 110.2z" /><path class="s5" d="m1783.6 985.3l-3.2-0.7l13.8-60.4l3.3 0.8z" /><path class="s5" d="m2105.7 985.3l-13.9-60.3l3.2-0.8l13.9 60.4z" /><path class="s9" d="m1947.9 911.3c-17.3 0.1-31.1-19.2-30.3-42.4l2-60.4h54.7l3.7 58.8c1.4 23.6-12.4 43.9-30.1 44z" /><path class="s11" d="m1919.6 808.5h54.7l1.3 21.5c-4.4 23.4-47.1 25.3-56.8 1.5z" /><path class="s9" d="m1991.3 762.8c0.2 16.2-4.1 32.2-13 45.3c-6.7 9.8-16.4 18.7-29.8 20q-1.4 0-2.8 0q-0.2 0-0.3 0q-0.1 0-0.2 0q-1.4 0-2.8 0c-13.4-1.3-23.1-10.2-29.8-20c-8.9-13.1-13.2-29.1-13-45.3c0.3-18 1.8-36 3.1-45.8c2.6-5.3 6.1-8.8 9.5-11.2c6.8-3.1 18-7.2 32.4-8.8h0.6h0.5h0.6c14.3 1.6 25.6 5.7 32.4 8.8c3.4 2.4 6.9 5.9 9.5 11.2c1.3 9.8 2.8 27.8 3.1 45.8z" /><path class="s9" d="m1995.2 758.3c8.3 0 15 6.7 15 15c0 8.3-6.7 15-15 15c-8.3 0-15-6.7-15-15c0-8.3 6.7-15 15-15z" /><path class="s11" d="m1996.2 782.6c-0.2 0-0.5-0.2-0.5-0.5c0-0.3 0.3-0.5 0.5-0.5c2.9 0 4.6-2.1 5.1-4c0.6-1.8 0.4-4.5-1.9-5.9c-4.2-2.6-7.8 0.9-7.9 1l-1.2 1.2l0.4-1.7q1-3.9 3.8-5.5c3.4-1.8 7.3-0.5 7.4-0.5c0.3 0.1 0.4 0.4 0.3 0.6c0 0.3-0.3 0.4-0.6 0.3c0 0-3.6-1.1-6.6 0.5q-2 1.1-2.9 3.5c1.6-1 4.5-2.2 7.8-0.2c2.2 1.4 3.2 4.1 2.4 6.9c-0.7 2.4-2.8 4.8-6 4.8q0 0-0.1 0z" /><path class="s9" d="m1909.4 773.3c0 8.3-6.7 15-15 15c-8.3 0-15.1-6.7-15.1-15c0-8.3 6.8-15 15.1-15c8.3 0 15 6.7 15 15z" /><path class="s11" d="m1893.3 782.6c-3.2 0-5.3-2.4-6-4.8c-0.8-2.8 0.1-5.5 2.4-6.9c3.2-2 6.2-0.8 7.8 0.2q-1-2.4-3-3.5c-2.9-1.6-6.5-0.5-6.6-0.5c-0.2 0.1-0.5 0-0.6-0.3c-0.1-0.2 0.1-0.5 0.3-0.6c0.2 0 4.1-1.3 7.4 0.5q2.9 1.6 3.9 5.5l0.4 1.7l-1.2-1.2c-0.2-0.1-3.7-3.6-7.9-1c-2.3 1.4-2.5 4.1-2 5.9c0.6 1.9 2.2 4 5.1 4c0.3 0 0.5 0.2 0.5 0.5c0 0.3-0.2 0.5-0.5 0.5q0 0 0 0z" /><path class="s12" d="m1931.6 763.7c0 1.7-1.4 3.1-3.1 3.1c-1.7 0-3.1-1.4-3.1-3.1c0-1.7 1.4-3.1 3.1-3.1c1.7 0 3.1 1.4 3.1 3.1z" /><path class="s12" d="m1966.3 761.2c1.7 0 3.1 1.4 3.1 3.1c0 1.7-1.4 3.1-3.1 3.1c-1.7 0-3.1-1.4-3.1-3.1c0-1.7 1.4-3.1 3.1-3.1z" /><path class="s12" d="m1979 759c-0.6 0-1.2-0.2-1.6-0.6c-7.2-6.1-17.6-2.7-17.7-2.7c-1.3 0.5-2.8-0.2-3.2-1.6c-0.4-1.3 0.2-2.7 1.6-3.1c0.5-0.2 13.1-4.4 22.5 3.6c1.1 0.9 1.2 2.5 0.3 3.5c-0.5 0.6-1.2 0.9-1.9 0.9z" /><path class="s12" d="m1916.4 758.8c-0.8 0-1.5-0.4-2-1c-0.8-1.1-0.7-2.6 0.4-3.5c9.6-7.7 22.1-3.2 22.6-3c1.3 0.4 2 1.9 1.5 3.2c-0.5 1.3-1.9 1.9-3.2 1.4c-0.1 0-10.4-3.6-17.8 2.3c-0.4 0.4-1 0.6-1.5 0.6z" /><path class="s9" d="m1903.1 787.9q5.5 40.7 39.3 40.2z" /><path class="s9" d="m1988.6 786.8q-5.6 41.8-39.3 41.3l24.7-57.4z" /><path class="s11" d="m1950.9 786.1q-0.1 0-0.1 0l-11.7-1l2.6-27.9c0.1-0.5 0.5-0.8 0.9-0.8c0.5 0.1 0.8 0.5 0.8 0.9l-2.4 26.3l9.9 0.9c0.5 0 0.8 0.4 0.8 0.9c0 0.4-0.4 0.7-0.8 0.7z" /><path class="s12" d="m1942.4 711.2q-40-3-40.6-2.6c-0.6 0.4 0.9 45.9-5.8 41.3c-6.6-4.6-17-45.7-1.6-61.3c14.1-14.4 44.7-13.3 71.9 4.8z" /><path class="s12" d="m1963.2 693.8c1.3-0.2 19-3.5 30.4 0.2c12.6 4 11 32 9.4 39.6q-3.4 15.7-5.8 24.7q-9.9-29.2-12-35.8q-2-6.7-22-28.7z" /><path class="s13" d="m1935.7 793.5q0.3-0.1 18.6-0.5q-2.3 7.6-9.1 7.8q-6.8 0.1-9.5-7.3z" /><path class="s5" d="m1944.6 921.8c-37-1.1-39.1-51.2-39.1-51.7l3.3-0.1c0 0.5 2.1 47.5 35.9 48.5z" /><path class="s12" d="m1894.4 711c-2.7-6.5 1.4-5.4 1.4-11c0-5.7 9.2-5.1 13.6-6.8c4.4-1.8 21.2-0.6 29.7 0q8.4 0.6 20.9 1.3q24.7 18.3 25.9 20.7q1.2 2.3 6.9 43.2q-2.4 0.2-5.8 2.2q-9.1-34.1-18.1-39.5q-9-5.3-8.5-21.6q-5.1 13.6-15.4 18.9c-10.3 5.4-25.7-3.8-35.6-2q-9.9 1.7-9.7 42.8q-2.4-1.1-7.7-0.8l-4.1-29.2q9.1-11.7 6.5-18.2z" /><path class="s12" d="m1956.8 692.2l1.7-3.6q6.5 4.3 21.7 3.6c15.1-0.7 15.3 46.3 15 47.2q-0.3 0.9 2 18.9q-4.4-1.1-10.2 2.3q-7-42.6-7.9-46q-0.9-3.5-22.3-22.4z" /><path class="s5" d="m994.5 993.9v-12.8h1346.8v12.8z" /><path class="s17" d="m1916.2 1202h-185.8c-10.5 0-19-8.5-19-19v-92.6c0-10.4 8.5-18.9 19-18.9h185.8c10.5 0 19 8.5 19 18.9v92.6c0 10.5-8.5 19-19 19z" /><path class="s17" d="m1930.7 1147.3l28.3 34.9l-40.8-14.8z" /><path class="s17" d="m2049.5 783.9v-115c0-10.5 8.5-19 19-19h224.2c10.5 0 19 8.5 19 19v115c0 10.5-8.5 19-19 19h-224.2c-10.5 0-19-8.5-19-19z" /><g style="opacity: .5"><path class="s17" d="m836.5 734.7c0 31.1-25.2 56.3-56.3 56.3c-31.1 0-56.4-25.2-56.4-56.3c0-31.1 25.3-56.4 56.4-56.4c31.1 0 56.3 25.3 56.3 56.4z" /></g><g style="opacity: .5"><path class="s17" d="m836.5 904.5c0 31.1-25.2 56.3-56.3 56.3c-31.1 0-56.4-25.2-56.4-56.3c0-31.1 25.3-56.4 56.4-56.4c31.1 0 56.3 25.3 56.3 56.4z" /></g><g style="opacity: .5"><path class="s17" d="m836.5 1074.3c0 31.1-25.2 56.3-56.3 56.3c-31.1 0-56.4-25.2-56.4-56.3c0-31.2 25.3-56.4 56.4-56.4c31.1 0 56.3 25.2 56.3 56.4z" /></g><g style="opacity: .5"><path class="s17" d="m836.5 1244.1c0 31.1-25.2 56.3-56.3 56.3c-31.1 0-56.4-25.2-56.4-56.3c0-31.2 25.3-56.4 56.4-56.4c31.1 0 56.3 25.2 56.3 56.4z" /></g><g style="opacity: .5"><path class="s17" d="m961.5 759.4h-111.9c-2.1 0-3.8-1.8-3.8-3.9c0-2.2 1.7-3.9 3.8-3.9h111.9c2.1 0 3.8 1.7 3.8 3.9c0 2.1-1.7 3.9-3.8 3.9z" /></g><g style="opacity: .5"><path class="s17" d="m928 733.3h-78.4c-2.1 0-3.8-1.7-3.8-3.9c0-2.1 1.7-3.8 3.8-3.8h78.4c2.1 0 3.8 1.7 3.8 3.8c0 2.2-1.7 3.9-3.8 3.9z" /></g><g style="opacity: .5"><path class="s17" d="m961.5 924h-111.9c-2.1 0-3.8-1.7-3.8-3.9c0-2.1 1.7-3.8 3.8-3.8h111.9c2.1 0 3.8 1.7 3.8 3.8c0 2.2-1.7 3.9-3.8 3.9z" /></g><g style="opacity: .5"><path class="s17" d="m928 898h-78.4c-2.1 0-3.8-1.8-3.8-3.9c0-2.2 1.7-3.9 3.8-3.9h78.4c2.1 0 3.8 1.7 3.8 3.9c0 2.1-1.7 3.9-3.8 3.9z" /></g><g style="opacity: .5"><path class="s17" d="m961.5 1088.7h-111.9c-2.1 0-3.8-1.8-3.8-3.9c0-2.2 1.7-3.9 3.8-3.9h111.9c2.1 0 3.8 1.7 3.8 3.9c0 2.1-1.7 3.9-3.8 3.9z" /></g><g style="opacity: .5"><path class="s17" d="m928 1062.6h-78.4c-2.1 0-3.8-1.7-3.8-3.9c0-2.1 1.7-3.8 3.8-3.8h78.4c2.1 0 3.8 1.7 3.8 3.8c0 2.2-1.7 3.9-3.8 3.9z" /></g><g style="opacity: .5"><path class="s17" d="m961.5 1253.3h-111.9c-2.1 0-3.8-1.7-3.8-3.9c0-2.1 1.7-3.8 3.8-3.8h111.9c2.1 0 3.8 1.7 3.8 3.8c0 2.2-1.7 3.9-3.8 3.9z" /></g><g style="opacity: .5"><path class="s17" d="m928 1227.3h-78.4c-2.1 0-3.8-1.8-3.8-3.9c0-2.2 1.7-3.9 3.8-3.9h78.4c2.1 0 3.8 1.7 3.8 3.9c0 2.1-1.7 3.9-3.8 3.9z" /></g><path class="s17" d="m1422.8 1121.9l-33.7 4.4l27.5-22z" /><path class="s17" d="m1623.6 1162.7h-193.9c-10.5 0-19-8.5-19-19v-97.3c0-10.5 8.5-19 19-19h193.9c10.5 0 19 8.5 19 19v97.3c0 10.5-8.5 19-19 19z" /><path class="s17" d="m1254.4 726.6l27.6 22l-33.8-4.5z" /><path class="s17" d="m1028.4 766v-97.3c0-10.5 8.5-19 19-19h193.9c10.5 0 19 8.5 19 19v97.3c0 10.5-8.5 19-19 19h-193.9c-10.5 0-19-8.5-19-19z" /><path class="s17" d="m2065.2 738.3l-39.2 3.7l32.8-24.2z" /><path class="s18" d="m734.7 1532.5l-76.1 38.4q-2.1-196.3 5-202.7c7.1-6.4 60.4-221.3 125.9-254q65.4-32.8 77.5 135.9q-112-186.9-132.3 282.4z" /><path class="s6" d="m693.4 1548.4q-126.4-66.2-86.4-291.2q40-225 186.7-356.3q-82.3 174.4-100.3 647.5z" /><path class="s18" d="m521.6 1578.7q-24.5-478.9-148.3-686.6q217.3 129.7 289.4 470c4 19.2 6.5 40.5 9.5 61c3.2 21.3 5.1 40.2 4.6 59.1c-0.8 33.3-5.4 61.9-6.8 83q-11.7 181.8-148.4 13.5z" /><path class="s6" d="m552.6 1592.3l-111.7-9.3q-27.8-278.2-57.6-291.7q-29.9-13.5-98.2 191.4q12.1-296 72.5-343.6c27.3-21.5 62.1 8.6 92.2 48.1c41.7 54.8 67.6 119.9 76 188.2z" /><path class="s5" d="m674.6 1561.9c10.3-235.8-72.4-404.9-143.6-505.3c-77.2-108.7-157.9-162.5-158.7-163l2-3c0.8 0.5 82 54.5 159.5 163.8c45.6 64.2 81 134.6 105.4 209.3c30.4 93.4 43.6 193.8 39 298.3z" /><path class="s5" d="m691.6 1548.3c0.1-1.2 4.7-119.9 19.3-258.4c13.5-128 38.6-299.4 81.2-389.7l3.2 1.5c-42.4 89.8-67.3 260.9-80.8 388.5c-14.6 138.4-19.2 257.1-19.2 258.3z" /><path class="s5" d="m732.9 1532.4c0-0.7 3.5-78 14.8-156.4c15.4-105.8 37.2-163.1 65-170.2c17-4.4 35.8 10.2 55.9 43.3l-3.1 1.9c-19.2-31.6-36.6-45.6-51.9-41.7c-25.8 6.6-47.4 64.4-62.3 167.2c-11.3 78.2-14.8 155.3-14.8 156.1z" /><path class="s5" d="m524 1375.6c-8.4-68.6-34.6-133.4-75.6-187.3c-25.7-33.6-48.1-51.9-66.9-54.3c-8.3-1.1-15.9 1.1-22.7 6.5c-59.2 46.6-71.8 339.3-71.9 342.3l-3.6-0.2c0-0.7 3.1-75 13.6-154.1c14.1-106.6 34.2-170.8 59.6-190.9c7.6-5.9 16.2-8.4 25.5-7.2c19.7 2.5 43 21.3 69.2 55.7c41.5 54.5 67.9 119.8 76.4 189l26.8 216.9l-3.6 0.5z" /><path class="s5" d="m431.4 1326.7l3.3-1.7l23.4 45.5l-3.2 1.6z" /><path class="s5" d="m431.5 1357.4l3.1-1.7l23.5 42.6l-3.2 1.7z" /><path class="s5" d="m674.7 1097.8l20.1-44.1l3.3 1.5l-20.1 44.1z" /><path class="s5" d="m674.8 1119l17.1-30.8l3.1 1.7l-17 30.8z" /><path class="s5" d="m772.7 1147.7l34.1-17.4l1.7 3.2l-34.2 17.4z" /><path class="s5" d="m772.5 1162.6l20.2-12.3l1.9 3.1l-20.2 12.3z" /><path class="s14" d="m773.5 1520.3q-6.4 350.2-100.2 342h-73.7h-11.9h-73.7q-93.8 8.2-100.2-342c88.8-13.4 270.9-13.4 359.7 0z" /><path class="s5" d="m448.8 1567.7l2.6-2.5l102.5 108.2l-2.6 2.5z" /><path class="s5" d="m478.8 1637.3l2.7-2.4l56.5 64.9l-2.8 2.3z" /><path class="s8" d="m1069.6 1577.1l-22 289.4h-75.2h-1h-72.6l-24.5-289.4h97.1h1z" /><path class="s5" d="m1058.7 1541.6h-86.3h-1h-86.3c0-8.4 6.8-15.2 15.1-15.2h71.2h1h71.2c8.4 0 15.1 6.8 15.1 15.2z" /><path class="s19" d="m1075.5 1588.1c1.3 6.1-3.4 11.9-9.6 11.9h-93.5h-1h-93.5c-6.2 0-10.9-5.8-9.6-11.9l8.1-38.7c1-4.5 5-7.8 9.6-7.8h85.4h1h85.4c4.7 0 8.6 3.3 9.6 7.8z" /><path class="s2" d="m971.3 1666h1.2h92.2l-6.3 117.6h-85.9h-1.2h-85.9l-6.3-117.6z" /><path class="s17" d="m1022.3 1724.8c0 25.4-20.4 46.1-45.6 46.1c-25.3 0-45.7-20.7-45.7-46.1c0-25.5 20.4-46.1 45.7-46.1c25.2 0 45.6 20.6 45.6 46.1z" /><path class="s5" d="m1058.4 1785.3h-174.6l-6.4-119.2l3.3-0.2l6.3 116h171.4z" /><path class="s5" d="m1019.4 1636.3l-2.9-1.7l16.7-29.4l2.9 1.6z" /><path class="s5" d="m1022.2 1653.2l-2.9-1.7l15.1-25.9l2.9 1.7z" /><path class="s14" d="m2512.6 1779.4h-487.7v-92.7h487.7z" /><path class="s20" d="m2113.3 1779.4h-33.3v-92.7h33.3z" /><path class="s20" d="m2460.1 1779.4h-33.3v-92.7h33.3z" /><path class="s5" d="m2338 1732.6l-2.9-5.5l37.7-19.6l2.9 5.5z" /><path class="s5" d="m2362.4 1740.8l-3.1-5.5l39.9-22.4l3.1 5.5z" /><path class="s8" d="m2463.9 1862h-639.3v-82.6h639.3z" /><g style="mix-blend-mode: multiply"><path class="s8" d="m1940.5 1862h-43.7v-82.6h43.7z" /></g><g style="mix-blend-mode: multiply"><path class="s8" d="m2405.1 1862h-43.7v-82.6h43.7z" /></g><path class="s5" d="m1960.6 1832.5l-2.9-7.7l37.8-27.2l2.8 7.6z" /><path class="s5" d="m1985 1843.7l-3.1-7.5l39.9-31l3.1 7.5z" /><path class="s5" d="m2545.7 1869.5h-2240.8v-7.1h2240.8z" /></svg>