<svg width="26" height="22" viewBox="0 0 26 22" fill="none" xmlns="http://www.w3.org/2000/svg">
<g clip-path="url(#clip0_139_58)">
<path d="M3.66504 19.7002H4.57864V20.6138H3.66504V19.7002Z" fill="#343D46"/>
<path d="M23.827 0H4.57828C4.21074 0 3.8642 0.147017 3.60167 0.399045C3.33914 0.651074 3.20262 1.00811 3.20262 1.37566V7.79189H1.36491C0.997372 7.79189 0.650833 7.9389 0.388303 8.19093C0.125773 8.44296 -0.0107422 8.8 -0.0107422 9.16754V20.6243C-0.0107422 20.9919 0.136275 21.3384 0.388303 21.601C0.640332 21.8635 0.997372 22 1.36491 22H6.86754C7.23508 22 7.58162 21.853 7.84415 21.601C8.10668 21.3489 8.2432 20.9919 8.2432 20.6243V17.873H11.4461V19.1227L10.1334 21.3069C10.0494 21.4434 10.0494 21.622 10.1334 21.769C10.2174 21.916 10.3644 22 10.5325 22H17.8623C18.0303 22 18.1773 21.916 18.2613 21.769C18.3453 21.622 18.3453 21.4539 18.2613 21.3069L16.9487 19.1227V17.873H23.827C24.1945 17.873 24.541 17.726 24.8036 17.474C25.0661 17.222 25.2026 16.8649 25.2026 16.4974V1.37566C25.2026 1.00811 25.0556 0.661575 24.8036 0.399045C24.5515 0.136515 24.1945 0 23.827 0ZM7.32959 20.6243C7.32959 20.7504 7.27709 20.8659 7.19308 20.9499C7.10907 21.0339 6.99355 21.0864 6.86754 21.0864H1.37542C1.12339 21.0864 0.913363 20.8764 0.913363 20.6243V19.2487H7.32959V20.6243ZM7.32959 18.3351H0.913363V10.5432H7.32959V18.3351ZM7.32959 9.62959H0.913363V9.16754C0.913363 8.91551 1.12339 8.70549 1.37542 8.70549H6.87804C7.00406 8.70549 7.11957 8.75799 7.20358 8.842C7.28759 8.92601 7.34009 9.04153 7.34009 9.16754V9.62959H7.32959ZM6.86754 7.79189H5.95394V2.75131H8.2432V9.16754C8.2432 8.8 8.09618 8.45346 7.84415 8.19093C7.59212 7.9284 7.23508 7.79189 6.86754 7.79189ZM17.0537 21.0759H11.341L12.2967 19.4797C12.3387 19.4062 12.3597 19.3222 12.3597 19.2487V17.873H16.0246V19.2487C16.0246 19.3327 16.0456 19.4167 16.0876 19.4797L17.0432 21.0759H17.0537ZM24.2785 16.4974C24.2785 16.6234 24.226 16.7389 24.142 16.8229C24.058 16.9069 23.9425 16.9594 23.8165 16.9594H8.2432V14.2081H24.2785V16.4974ZM24.2785 13.2945H8.2432V11.9189H8.70525C8.83126 11.9189 8.94678 11.8663 9.03079 11.7823C9.11479 11.6983 9.1673 11.5828 9.1673 11.4568V2.28926C9.1673 2.16325 9.11479 2.04773 9.03079 1.96372C8.94678 1.87971 8.83126 1.82721 8.70525 1.82721H5.50238C5.25036 1.82721 5.04033 2.03723 5.04033 2.28926V7.79189H4.12673V1.37566C4.12673 1.12363 4.33675 0.913604 4.58878 0.913604H23.8375C23.9635 0.913604 24.079 0.96611 24.163 1.05012C24.247 1.13413 24.2995 1.24964 24.2995 1.37566V13.2945H24.2785Z" fill="#343D46"/>
<path d="M13.7461 15.1216H14.6597V16.0352H13.7461V15.1216Z" fill="#343D46"/>
<path d="M4.12715 16.0356C4.73622 16.0356 5.31379 15.794 5.74433 15.3635C6.17488 14.9329 6.41641 14.3554 6.41641 13.7463C6.41641 13.1372 6.17488 12.5597 5.74433 12.1291C5.31379 11.6986 4.73622 11.457 4.12715 11.457C3.51808 11.457 2.94052 11.6986 2.50997 12.1291C2.07942 12.5597 1.83789 13.1372 1.83789 13.7463C1.83789 14.3554 2.07942 14.9329 2.50997 15.3635C2.94052 15.794 3.51808 16.0356 4.12715 16.0356ZM4.12715 12.3706C4.49469 12.3706 4.84123 12.5177 5.10376 12.7697C5.36629 13.0217 5.50281 13.3787 5.50281 13.7463C5.50281 14.1138 5.35579 14.4604 5.10376 14.7229C4.85173 14.9854 4.49469 15.1219 4.12715 15.1219C3.75961 15.1219 3.41307 14.9749 3.15054 14.7229C2.88801 14.4709 2.75149 14.1138 2.75149 13.7463C2.75149 13.3787 2.89851 13.0322 3.15054 12.7697C3.40257 12.5072 3.75961 12.3706 4.12715 12.3706Z" fill="#343D46"/>
<path d="M1.83789 16.4976H6.41641V17.4112H1.83789V16.4976Z" fill="#343D46"/>
<path d="M14.208 1.83789C13.1159 1.83789 12.0658 2.26844 11.2887 3.04553C10.5116 3.82262 10.0811 4.87274 10.0811 5.96486C10.0811 7.05698 10.5116 8.1071 11.2887 8.88419C12.0658 9.66128 13.1159 10.0918 14.208 10.0918C15.3001 10.0918 16.3503 9.66128 17.1274 8.88419C17.9044 8.1071 18.335 7.05698 18.335 5.96486C18.335 4.87274 17.8939 3.82262 17.1274 3.04553C16.3503 2.26844 15.3106 1.83789 14.208 1.83789ZM14.208 9.16772C13.3574 9.16772 12.5383 8.83169 11.9398 8.23312C11.3412 7.63455 11.0052 6.81546 11.0052 5.96486C11.0052 5.11426 11.3412 4.29517 11.9398 3.6966C12.5383 3.09803 13.3574 2.762 14.208 2.762C15.0586 2.762 15.8777 3.09803 16.4763 3.6966C17.0748 4.29517 17.4109 5.11426 17.4109 5.96486C17.4109 6.81546 17.0748 7.63455 16.4658 8.23312C15.8672 8.83169 15.0481 9.16772 14.1975 9.17823L14.208 9.16772Z" fill="#343D46"/>
<path d="M10.543 10.9946H17.8728V11.9082H10.543V10.9946Z" fill="#343D46"/>
<path d="M22.9139 1.83789H19.7111C19.459 1.83789 19.249 2.04791 19.249 2.29994V6.42691C19.249 6.55293 19.3015 6.66844 19.3855 6.75245C19.4695 6.83646 19.5851 6.88896 19.7111 6.88896H22.9139C23.04 6.88896 23.1555 6.83646 23.2395 6.75245C23.3235 6.66844 23.376 6.55293 23.376 6.42691V2.29994C23.376 2.17393 23.3235 2.05842 23.2395 1.97441C23.1555 1.8904 23.04 1.83789 22.9139 1.83789ZM22.4519 5.96486H20.1626V2.762H22.4519V5.96486Z" fill="#343D46"/>
<path d="M22.9139 7.79199H19.7111C19.459 7.79199 19.249 8.00202 19.249 8.25404V11.4569C19.249 11.5829 19.3015 11.6984 19.3855 11.7824C19.4695 11.8665 19.5851 11.919 19.7111 11.919H22.9139C23.04 11.919 23.1555 11.8665 23.2395 11.7824C23.3235 11.6984 23.376 11.5829 23.376 11.4569V8.25404C23.376 8.12803 23.3235 8.01252 23.2395 7.92851C23.1555 7.8445 23.04 7.79199 22.9139 7.79199ZM22.4519 10.9949H20.1626V8.7056H22.4519V10.9949Z" fill="#343D46"/>
</g>
<defs>
<clipPath id="clip0_139_58">
<rect width="25.2029" height="22" fill="white"/>
</clipPath>
</defs>
</svg>
