<svg width="24" height="24" viewBox="0 0 24 24" fill="none" xmlns="http://www.w3.org/2000/svg">
<g clip-path="url(#clip0_128_317)">
<path d="M23.4624 22.397H4.73275C4.56955 22.397 4.41595 22.3202 4.31035 22.1858C4.20475 22.0514 4.17595 21.8882 4.21435 21.725C4.24315 21.5906 4.26235 21.4562 4.26235 21.3218C4.26235 20.4386 3.54235 19.7186 2.65915 19.7186C2.52475 19.7186 2.39035 19.7378 2.25595 19.7666C2.09275 19.805 1.92955 19.7666 1.79515 19.6706C1.66075 19.565 1.58395 19.4114 1.58395 19.2482V1.52663L0.81595 2.04503C0.56635 2.20823 0.23995 2.14103 0.0767503 1.90103C-0.0864497 1.65143 -0.0192497 1.32503 0.22075 1.16183L1.83355 0.0866317C1.99675 -0.0189683 2.20795 -0.0285683 2.38075 0.0578317C2.55355 0.153832 2.65915 0.326632 2.65915 0.528232V18.6626C4.12795 18.6626 5.32795 19.8626 5.32795 21.3314H22.4639L21.9456 20.5634C21.7824 20.3138 21.8496 19.9874 22.0896 19.8242C22.3391 19.661 22.6656 19.7282 22.8288 19.9682L23.8943 21.5714C23.9999 21.7346 24.0096 21.9458 23.9231 22.1186C23.8272 22.2914 23.6544 22.397 23.4527 22.397H23.4624Z" fill="#343D46"/>
<path d="M2.6688 24.0002C1.2 24.0002 0 22.8002 0 21.3314C0 20.1122 0.8256 19.0562 1.9968 18.749C2.2176 18.6914 2.4384 18.6626 2.6592 18.6626C4.128 18.6626 5.328 19.8626 5.328 21.3314C5.328 21.5522 5.2992 21.7826 5.2416 21.9938C4.9344 23.1746 3.8784 23.9906 2.6592 23.9906L2.6688 24.0002ZM2.6688 19.7378C2.5344 19.7378 2.4 19.757 2.2656 19.7858C1.5552 19.9682 1.0656 20.6018 1.0656 21.3314C1.0656 22.2146 1.7856 22.9346 2.6688 22.9346C3.3984 22.9346 4.032 22.445 4.2144 21.7346C4.2432 21.6002 4.2624 21.4658 4.2624 21.3314C4.2624 20.4482 3.5424 19.7282 2.6592 19.7282L2.6688 19.7378Z" fill="#343D46"/>
<path d="M9.60015 22.3967C9.30255 22.3967 9.06255 22.1567 9.06255 21.8591V13.8623H2.13135C1.83375 13.8623 1.59375 13.6223 1.59375 13.3247C1.59375 13.0271 1.83375 12.7871 2.13135 12.7871H9.60015C9.89775 12.7871 10.1378 13.0271 10.1378 13.3247V21.8591C10.1378 22.1567 9.89775 22.3967 9.60015 22.3967Z" fill="#343D46"/>
<path d="M14.4002 22.3969C14.1026 22.3969 13.8625 22.1569 13.8625 21.8593V9.0625H2.13135C1.83375 9.0625 1.59375 8.82251 1.59375 8.52491C1.59375 8.22731 1.83375 7.9873 2.13135 7.9873H14.4002C14.6978 7.9873 14.9378 8.22731 14.9378 8.52491V21.8593C14.9378 22.1569 14.6978 22.3969 14.4002 22.3969Z" fill="#343D46"/>
<path d="M19.2001 22.3966C18.9025 22.3966 18.6625 22.1566 18.6625 21.859V4.26221H2.13135C1.83375 4.26221 1.59375 4.02221 1.59375 3.72461C1.59375 3.42701 1.83375 3.18701 2.13135 3.18701H19.2001C19.4977 3.18701 19.7377 3.42701 19.7377 3.72461V21.859C19.7377 22.1566 19.4977 22.3966 19.2001 22.3966Z" fill="#343D46"/>
<path d="M3.73443 2.13133C3.62883 2.13133 3.53283 2.10253 3.43683 2.04493L1.83363 0.979327C1.58403 0.816128 1.52643 0.480128 1.68963 0.240128C1.85283 0.00012763 2.17923 -0.0766724 2.42883 0.0865276L4.03203 1.15213C4.28163 1.31533 4.33923 1.65133 4.17603 1.89133C4.07043 2.04493 3.90723 2.13133 3.73443 2.13133Z" fill="#343D46"/>
<path d="M22.3969 24.0002C22.2913 24.0002 22.1953 23.9714 22.0993 23.9138C21.8497 23.7506 21.7921 23.4146 21.9553 23.1746L23.0209 21.5714C23.1841 21.3218 23.5201 21.2642 23.7601 21.4274C24.0097 21.5906 24.0673 21.9266 23.9041 22.1666L22.8385 23.7698C22.7329 23.9234 22.5697 24.0098 22.3969 24.0098V24.0002Z" fill="#343D46"/>
<path d="M11.2031 10.6655H12.2687V11.7311H11.2031V10.6655Z" fill="#343D46"/>
<path d="M6.40332 15.4658H7.46892V16.5314H6.40332V15.4658Z" fill="#343D46"/>
<path d="M16.0034 5.86572H17.069V6.93132H16.0034V5.86572Z" fill="#343D46"/>
</g>
<defs>
<clipPath id="clip0_128_317">
<rect width="24" height="24" fill="white"/>
</clipPath>
</defs>
</svg>
