<svg width="25" height="25" viewBox="0 0 25 25" fill="none" xmlns="http://www.w3.org/2000/svg">
<g clip-path="url(#clip0_139_68)">
<path d="M5.59023 17.5698C4.71023 17.5698 3.99023 18.2898 3.99023 19.1698C3.99023 20.0498 4.71023 20.7698 5.59023 20.7698C6.47023 20.7698 7.19023 20.0498 7.19023 19.1698C7.19023 18.2898 6.47023 17.5698 5.59023 17.5698ZM5.59023 19.9698C5.15023 19.9698 4.79023 19.6098 4.79023 19.1698C4.79023 18.7298 5.15023 18.3698 5.59023 18.3698C6.03023 18.3698 6.39023 18.7298 6.39023 19.1698C6.39023 19.6098 6.03023 19.9698 5.59023 19.9698Z" fill="#343D46"/>
<path d="M5.59039 15.9702C3.83039 15.9702 2.40039 17.4002 2.40039 19.1602C2.40039 20.9202 3.83039 22.3502 5.59039 22.3502C7.35039 22.3502 8.78039 20.9202 8.78039 19.1602C8.78039 17.4002 7.35039 15.9702 5.59039 15.9702ZM5.59039 21.5602C4.27039 21.5602 3.19039 20.4902 3.19039 19.1602C3.19039 17.8302 4.26039 16.7602 5.59039 16.7602C6.92039 16.7602 7.99039 17.8302 7.99039 19.1602C7.99039 20.4902 6.92039 21.5602 5.59039 21.5602Z" fill="#343D46"/>
<path d="M25 17.94L23.96 17.18V10.63L22.73 11.04C22.44 11.14 22.15 11.18 21.85 11.18C21.26 11.18 20.77 10.7 20.77 10.1V9.06C20.77 8.47 21.25 7.98 21.85 7.98C22.15 7.98 22.45 8.03 22.73 8.12L23.96 8.53V4.38C23.96 3.72 23.42 3.18 22.76 3.18H19.72L19.86 2.77C19.93 2.55 19.97 2.33 19.97 2.1C19.97 0.95 19.02 0 17.85 0H17.29C16.12 0 15.17 0.95 15.17 2.12C15.17 2.35 15.21 2.57 15.28 2.79L15.42 3.2H13.18C12.87 3.2 12.59 3.32 12.38 3.51C12.17 3.32 11.89 3.2 11.58 3.2H8.54L8.68 2.79C8.75 2.57 8.79 2.35 8.79 2.12C8.79 0.95 7.84 0 6.67 0H6.11C4.94 0 3.99 0.95 3.99 2.12C3.99 2.35 4.03 2.57 4.1 2.79L4.24 3.2H2C1.34 3.2 0.8 3.74 0.8 4.4V16.06L0.51 16.35L1.05 16.9C1.22 17.07 1.16 17.28 1.14 17.34C1.12 17.4 1.02 17.59 0.77 17.59H0V20.78H0.77C1.02 20.78 1.11 20.97 1.14 21.03C1.16 21.09 1.23 21.29 1.05 21.47L0.51 22.02L2.77 24.28L3.32 23.74C3.5 23.56 3.7 23.63 3.76 23.65C3.82 23.67 4.01 23.77 4.01 24.02V24.79H7.2V24.02C7.2 23.77 7.39 23.68 7.45 23.65C7.51 23.63 7.71 23.56 7.89 23.74L8.44 24.28L10.7 22.02L10.16 21.47C9.99 21.3 10.05 21.09 10.07 21.03C10.09 20.97 10.19 20.78 10.44 20.78H18V24.05L25.03 17.96L25 17.94ZM13.18 3.99H16.53L16.04 2.53C16 2.4 15.97 2.26 15.97 2.11C15.97 1.38 16.56 0.79 17.29 0.79H17.85C18.58 0.79 19.17 1.38 19.17 2.11C19.17 2.25 19.15 2.39 19.1 2.53L18.61 3.99H22.76C22.98 3.99 23.16 4.17 23.16 4.39V7.43L22.98 7.37C22.61 7.25 22.23 7.19 21.84 7.19C20.8 7.19 19.96 8.03 19.96 9.07V10.11C19.96 11.15 20.8 11.99 21.84 11.99C22.23 11.99 22.61 11.93 22.98 11.81L23.16 11.75V16.61L17.97 12.8V15.98H12.78V11.74L12.96 11.8C13.33 11.92 13.71 11.98 14.1 11.98C15.14 11.98 15.98 11.14 15.98 10.1V9.06C15.98 8.56 15.78 8.09 15.43 7.73C15.08 7.37 14.6 7.18 14.1 7.18C13.71 7.18 13.33 7.24 12.96 7.36L12.78 7.42V4.38C12.78 4.16 12.96 3.98 13.18 3.98V3.99ZM1.6 4.39C1.6 4.17 1.78 3.99 2 3.99H5.35L4.86 2.53C4.82 2.4 4.79 2.26 4.79 2.11C4.79 1.38 5.38 0.79 6.11 0.79H6.67C7.4 0.79 7.99 1.38 7.99 2.11C7.99 2.25 7.97 2.39 7.92 2.53L7.43 3.99H11.58C11.8 3.99 11.98 4.17 11.98 4.39V8.54L13.21 8.13C13.5 8.03 13.79 7.99 14.09 7.99C14.38 7.99 14.65 8.1 14.85 8.31C15.05 8.51 15.17 8.78 15.17 9.07V10.11C15.17 10.7 14.69 11.19 14.09 11.19C13.79 11.19 13.49 11.14 13.21 11.05L11.98 10.64V15.99H10.3L8.41 14.1L7.86 14.64C7.68 14.82 7.48 14.75 7.42 14.73C7.36 14.71 7.17 14.61 7.17 14.36V13.59H3.98V14.36C3.98 14.61 3.79 14.7 3.73 14.73C3.67 14.75 3.47 14.82 3.29 14.64L2.74 14.1L1.57 15.27V4.39H1.6ZM10.39 19.96C9.91 19.97 9.5 20.25 9.31 20.7C9.12 21.15 9.22 21.64 9.55 21.99L8.42 23.12C8.07 22.79 7.58 22.69 7.13 22.88C6.68 23.07 6.4 23.48 6.39 23.96H4.79C4.78 23.48 4.5 23.07 4.05 22.88C3.6 22.7 3.11 22.79 2.76 23.12L1.63 21.99C1.96 21.64 2.06 21.15 1.87 20.7C1.68 20.25 1.27 19.97 0.79 19.96V18.36C1.27 18.35 1.68 18.07 1.87 17.62C2.06 17.17 1.96 16.68 1.63 16.33L2.76 15.2C3.11 15.53 3.6 15.63 4.05 15.44C4.5 15.25 4.78 14.84 4.79 14.36H6.39C6.4 14.84 6.68 15.25 7.13 15.44C7.58 15.63 8.07 15.53 8.42 15.2L9.55 16.33C9.22 16.68 9.12 17.17 9.31 17.62C9.5 18.07 9.91 18.35 10.39 18.36V19.96ZM11.19 19.96V17.56H10.42C10.17 17.56 10.08 17.37 10.05 17.31C10.03 17.25 9.96 17.05 10.14 16.87L10.26 16.75H18.78V14.34L23.73 17.97L18.78 22.26V19.94H11.19V19.96Z" fill="#343D46"/>
<path d="M4.78965 9.17998C4.78965 8.51998 4.24965 7.97998 3.58965 7.97998C2.92965 7.97998 2.38965 8.51998 2.38965 9.17998C2.38965 9.83998 2.92965 10.38 3.58965 10.38C4.24965 10.38 4.78965 9.83998 4.78965 9.17998ZM3.18965 9.17998C3.18965 8.95998 3.36965 8.77998 3.58965 8.77998C3.80965 8.77998 3.98965 8.95998 3.98965 9.17998C3.98965 9.39998 3.80965 9.57998 3.58965 9.57998C3.36965 9.57998 3.18965 9.39998 3.18965 9.17998Z" fill="#343D46"/>
<path d="M6.78984 10.38C7.44984 10.38 7.98984 9.83998 7.98984 9.17998C7.98984 8.51998 7.44984 7.97998 6.78984 7.97998C6.12984 7.97998 5.58984 8.51998 5.58984 9.17998C5.58984 9.83998 6.12984 10.38 6.78984 10.38ZM6.78984 8.77998C7.00984 8.77998 7.18984 8.95998 7.18984 9.17998C7.18984 9.39998 7.00984 9.57998 6.78984 9.57998C6.56984 9.57998 6.38984 9.39998 6.38984 9.17998C6.38984 8.95998 6.56984 8.77998 6.78984 8.77998Z" fill="#343D46"/>
<path d="M9.98027 10.38C10.6403 10.38 11.1803 9.83998 11.1803 9.17998C11.1803 8.51998 10.6403 7.97998 9.98027 7.97998C9.32027 7.97998 8.78027 8.51998 8.78027 9.17998C8.78027 9.83998 9.32027 10.38 9.98027 10.38ZM9.98027 8.77998C10.2003 8.77998 10.3803 8.95998 10.3803 9.17998C10.3803 9.39998 10.2003 9.57998 9.98027 9.57998C9.76027 9.57998 9.58027 9.39998 9.58027 9.17998C9.58027 8.95998 9.76027 8.77998 9.98027 8.77998Z" fill="#343D46"/>
</g>
<defs>
<clipPath id="clip0_139_68">
<rect width="25" height="24.76" fill="white"/>
</clipPath>
</defs>
</svg>
