<svg width="20" height="25" viewBox="0 0 20 25" fill="none" xmlns="http://www.w3.org/2000/svg">
<g clip-path="url(#clip0_126_15)">
<path d="M18.9802 24.78H0.540195C0.350195 24.78 0.200195 24.63 0.200195 24.44V9.62998C0.200195 9.43998 0.350195 9.28998 0.540195 9.28998H18.9802C19.1702 9.28998 19.3202 9.43998 19.3202 9.62998V24.44C19.3202 24.63 19.1702 24.78 18.9802 24.78ZM0.890195 24.1H18.6402V9.96998H0.880195V24.1H0.890195Z" fill="black" stroke="black" stroke-width="0.4" stroke-miterlimit="10"/>
<path d="M15.8699 9.97001C15.6799 9.97001 15.5299 9.82001 15.5299 9.63001V6.54001C15.5299 3.43001 12.9099 0.890012 9.68995 0.890012C6.46995 0.890012 3.84995 3.42001 3.84995 6.53001V9.62001C3.84995 9.81001 3.69995 9.96001 3.50995 9.96001C3.31995 9.96001 3.16995 9.81001 3.16995 9.62001V6.53001C3.15995 3.04001 6.08995 0.200012 9.68995 0.200012C13.2899 0.200012 16.2099 3.04001 16.2099 6.53001V9.62001C16.2099 9.81001 16.0599 9.96001 15.8699 9.96001V9.97001Z" fill="black" stroke="black" stroke-width="0.4" stroke-miterlimit="10"/>
<path d="M9.75992 19.63C9.56992 19.63 9.41992 19.48 9.41992 19.29V14.78C9.41992 14.59 9.56992 14.44 9.75992 14.44C9.94992 14.44 10.0999 14.59 10.0999 14.78V19.29C10.0999 19.48 9.94992 19.63 9.75992 19.63Z" fill="black" stroke="black" stroke-width="0.4" stroke-miterlimit="10"/>
</g>
<defs>
<clipPath id="clip0_126_15">
<rect width="19.52" height="24.98" fill="white"/>
</clipPath>
</defs>
</svg>
