<svg  fill="#791818" version="1" id="Layer_1" xmlns="http://www.w3.org/2000/svg" xmlns:xlink="http://www.w3.org/1999/xlink" x="0px" y="0px"
	 width="100%" viewBox="0 0 1567 1567" enable-background="new 0 0 1567 1567" xml:space="preserve">

<path opacity="1" stroke="none" 
	d="
M709,1014 
	C676,1053 643,1092 610,1131 
	C579,1168 547,1205 515,1242 
	C497,1262 476,1278 450,1287 
	C408,1302 370,1295 333,1271 
	C312,1257 296,1239 281,1220 
	C240,1170 204,1116 177,1058 
	C153,1005 136,949 126,892 
	C120,851 117,811 119,770 
	C120,723 127,677 137,632 
	C149,578 167,526 191,477 
	C214,430 242,387 276,347 
	C319,295 368,251 424,214 
	C505,161 592,126 687,110 
	C713,105 738,103 764,101 
	C780,100 795,105 808,116 
	C827,135 832,165 818,188 
	C809,202 798,215 787,228 
	C750,274 712,319 674,365 
	C651,393 627,421 604,450 
	C603,450 603,451 602,452 
	C587,470 572,488 557,506 
	C551,513 545,521 538,529 
	C535,533 532,537 529,540 
	C508,568 497,599 502,634 
	C510,686 553,731 605,738 
	C624,741 643,742 663,742 
	C694,743 725,743 756,743 
	C796,744 836,744 876,744 
	C893,744 911,743 928,743 
	C956,743 985,742 1014,743 
	C1034,743 1054,749 1073,758 
	C1103,772 1123,796 1139,824 
	C1144,832 1148,841 1153,850 
	C1153,847 1154,846 1155,844 
	C1161,828 1161,812 1159,795 
	C1155,756 1138,722 1111,693 
	C1075,653 1029,634 975,632 
	C946,631 917,631 887,631 
	C867,631 846,631 826,631 
	C826,630 826,629 827,628 
	C840,611 854,595 867,578 
	C876,568 884,557 893,547 
	C904,533 916,520 927,506 
	C962,464 998,422 1034,380 
	C1052,358 1071,336 1090,315 
	C1111,292 1137,275 1168,269 
	C1201,262 1232,269 1262,286 
	C1283,299 1301,317 1317,336 
	C1350,373 1378,414 1401,458 
	C1435,521 1459,588 1471,659 
	C1476,686 1478,713 1481,740 
	C1483,770 1483,800 1480,830 
	C1473,922 1449,1009 1406,1090 
	C1376,1146 1340,1198 1297,1245 
	C1233,1314 1158,1366 1072,1403 
	C1011,1429 949,1445 884,1455 
	C870,1457 856,1459 841,1460 
	C804,1462 775,1440 776,1400 
	C776,1383 784,1369 794,1357 
	C855,1283 915,1210 976,1137 
	C984,1126 993,1116 1002,1105 
	C1016,1087 1030,1071 1044,1054 
	C1054,1042 1063,1031 1073,1019 
	C1089,997 1100,974 1100,947 
	C1101,928 1096,910 1088,893 
	C1065,847 1028,822 977,820 
	C945,819 912,819 880,819 
	C861,819 843,819 825,819 
	C768,819 711,819 654,819 
	C627,820 600,821 573,816 
	C522,807 484,780 460,735 
	C455,725 451,716 447,706 
	C446,706 446,707 446,707 
	C439,740 438,773 451,805 
	C472,861 513,897 569,918 
	C596,927 624,929 653,929 
	C692,929 731,929 771,929 
	C773,929 775,929 776,930 
	C775,932 773,934 772,936 
	C751,962 730,988 709,1014 
z"/>
<path opacity="1" stroke="none" 
	d="
M951,1023 
	C935,1041 918,1057 903,1075 
	C835,1157 767,1238 698,1320 
	C677,1346 656,1372 634,1398 
	C631,1402 627,1405 624,1408 
	C617,1412 610,1414 602,1411 
	C578,1402 555,1392 530,1382 
	C536,1374 542,1367 548,1359 
	C585,1315 622,1270 658,1226 
	C696,1180 734,1133 772,1087 
	C792,1063 812,1039 833,1014 
	C842,1002 851,991 861,980 
	C877,962 890,940 911,925 
	C916,924 920,923 924,922 
	C940,922 955,921 971,922 
	C982,922 993,925 1004,928 
	C1013,930 1019,935 1024,943 
	C1000,970 976,996 951,1023 
z"/>
<path opacity="1" stroke="none" 
	d="
M658,536 
	C667,525 676,515 685,504 
	C723,459 760,414 798,368 
	C837,322 875,276 914,229 
	C932,207 950,185 968,163 
	C973,158 978,152 986,150 
	C992,148 999,148 1005,151 
	C1026,159 1047,168 1068,176 
	C1069,177 1070,177 1071,178 
	C1066,184 1062,189 1057,195 
	C995,271 932,347 869,424 
	C836,464 803,504 769,545 
	C756,562 742,578 729,594 
	C723,601 718,609 712,616 
	C706,621 700,625 694,630 
	C684,630 674,631 664,631 
	C642,630 620,629 599,628 
	C597,628 595,626 593,625 
	C592,622 589,620 592,616 
	C608,597 625,577 641,558 
	C647,551 652,543 658,536 
z"/>
<path opacity="0.4" stroke="none" 
	d="
M911,925 
	C890,940 877,962 861,980 
	C851,991 842,1002 833,1014 
	C831,1013 829,1013 827,1013 
	C788,1013 749,1013 709,1014 
	C730,988 751,962 772,936 
	C773,934 775,932 777,930 
	C783,929 788,929 794,929 
	C811,928 827,927 844,927 
	C857,926 871,926 884,925 
	C885,925 886,925 887,925 
	C895,925 903,925 911,925 
z"/>
<path opacity="0.4" stroke="none" 
	d="
M658,536 
	C652,543 647,551 641,558 
	C625,577 608,597 592,616 
	C589,620 592,622 592,625 
	C573,618 559,606 550,588 
	C541,570 539,550 538,529 
	C545,521 551,513 557,506 
	C572,488 587,470 602,452 
	C604,469 607,485 616,499 
	C625,513 636,524 650,531 
	C653,533 655,534 658,536 
z"/>
<path opacity="0.4" stroke="none" 
	d="
M694,630 
	C700,625 706,621 712,616 
	C718,609 723,601 729,594 
	C742,578 756,562 769,545 
	C770,546 771,546 772,546 
	C798,547 824,547 850,547 
	C864,547 878,547 892,547 
	C884,557 876,568 867,578 
	C854,595 840,611 827,628 
	C826,629 826,630 825,631 
	C822,631 820,631 818,631 
	C779,631 740,631 701,631 
	C698,631 696,630 694,630 
z"/>
<path opacity="0.4" stroke="none" 
	d="
M952,1023 
	C976,996 1000,970 1025,943 
	C1026,943 1028,943 1028,944 
	C1035,950 1041,955 1048,961 
	C1058,972 1065,985 1068,1000 
	C1070,1006 1071,1012 1073,1019 
	C1063,1031 1054,1042 1044,1054 
	C1030,1071 1016,1087 1002,1105 
	C999,1093 996,1082 992,1071 
	C985,1052 973,1036 956,1025 
	C955,1024 953,1024 952,1023 
z"/>
</svg>