<svg width="6950" height="1567" viewBox="0 0 6950 1567" fill="#791818" xmlns="http://www.w3.org/2000/svg">
    <path d="M709 1014C676 1053 643 1092 610 1131C579 1168 547 1205 515 1242C497 1262 476 1278 450 1287C408 1302 370 1295 333 1271C312 1257 296 1239 281 1220C240 1170 204 1116 177 1058C153 1005 136 949 126 892C120 851 117 811 119 770C120 723 127 677 137 632C149 578 167 526 191 477C214 430 242 387 276 347C319 295 368 251 424 214C505 161 592 126 687 110C713 105 738 103 764 101C780 100 795 105 808 116C827 135 832 165 818 188C809 202 798 215 787 228C750 274 712 319 674 365C651 393 627 421 604 450C603 450 603 451 602 452C587 470 572 488 557 506C551 513 545 521 538 529C535 533 532 537 529 540C508 568 497 599 502 634C510 686 553 731 605 738C624 741 643 742 663 742C694 743 725 743 756 743C796 744 836 744 876 744C893 744 911 743 928 743C956 743 985 742 1014 743C1034 743 1054 749 1073 758C1103 772 1123 796 1139 824C1144 832 1148 841 1153 850C1153 847 1154 846 1155 844C1161 828 1161 812 1159 795C1155 756 1138 722 1111 693C1075 653 1029 634 975 632C946 631 917 631 887 631C867 631 846 631 826 631C826 630 826 629 827 628C840 611 854 595 867 578C876 568 884 557 893 547C904 533 916 520 927 506C962 464 998 422 1034 380C1052 358 1071 336 1090 315C1111 292 1137 275 1168 269C1201 262 1232 269 1262 286C1283 299 1301 317 1317 336C1350 373 1378 414 1401 458C1435 521 1459 588 1471 659C1476 686 1478 713 1481 740C1483 770 1483 800 1480 830C1473 922 1449 1009 1406 1090C1376 1146 1340 1198 1297 1245C1233 1314 1158 1366 1072 1403C1011 1429 949 1445 884 1455C870 1457 856 1459 841 1460C804 1462 775 1440 776 1400C776 1383 784 1369 794 1357C855 1283 915 1210 976 1137C984 1126 993 1116 1002 1105C1016 1087 1030 1071 1044 1054C1054 1042 1063 1031 1073 1019C1089 997 1100 974 1100 947C1101 928 1096 910 1088 893C1065 847 1028 822 977 820C945 819 912 819 880 819C861 819 843 819 825 819C768 819 711 819 654 819C627 820 600 821 573 816C522 807 484 780 460 735C455 725 451 716 447 706C446 706 446 707 446 707C439 740 438 773 451 805C472 861 513 897 569 918C596 927 624 929 653 929C692 929 731 929 771 929C773 929 775 929 776 930C775 932 773 934 772 936C751 962 730 988 709 1014Z" />
    <path d="M951 1023C935 1041 918 1057 903 1075C835 1157 767 1238 698 1320C677 1346 656 1372 634 1398C631 1402 627 1405 624 1408C617 1412 610 1414 602 1411C578 1402 555 1392 530 1382C536 1374 542 1367 548 1359C585 1315 622 1270 658 1226C696 1180 734 1133 772 1087C792 1063 812 1039 833 1014C842 1002 851 991 861 980C877 962 890 940 911 925C916 924 920 923 924 922C940 922 955 921 971 922C982 922 993 925 1004 928C1013 930 1019 935 1024 943C1000 970 976 996 951 1023Z" />
    <path d="M658 536C667 525 676 515 685 504C723 459 760 414 798 368C837 322 875 276 914 229C932 207 950 185 968 163C973 158 978 152 986 150C992 148 999 148 1005 151C1026 159 1047 168 1068 176C1069 177 1070 177 1071 178C1066 184 1062 189 1057 195C995 271 932 347 869 424C836 464 803 504 769 545C756 562 742 578 729 594C723 601 718 609 712 616C706 621 700 625 694 630C684 630 674 631 664 631C642 630 620 629 599 628C597 628 595 626 593 625C592 622 589 620 592 616C608 597 625 577 641 558C647 551 652 543 658 536Z" />
    <path opacity="0.4" d="M911 925C890 940 877 962 861 980C851 991 842 1002 833 1014C831 1013 829 1013 827 1013C788 1013 749 1013 709 1014C730 988 751 962 772 936C773 934 775 932 777 930C783 929 788 929 794 929C811 928 827 927 844 927C857 926 871 926 884 925C885 925 886 925 887 925C895 925 903 925 911 925Z" />
    <path opacity="0.4" d="M658 536C652 543 647 551 641 558C625 577 608 597 592 616C589 620 592 622 592 625C573 618 559 606 550 588C541 570 539 550 538 529C545 521 551 513 557 506C572 488 587 470 602 452C604 469 607 485 616 499C625 513 636 524 650 531C653 533 655 534 658 536Z" />
    <path opacity="0.4" d="M694 630C700 625 706 621 712 616C718 609 723 601 729 594C742 578 756 562 769 545C770 546 771 546 772 546C798 547 824 547 850 547C864 547 878 547 892 547C884 557 876 568 867 578C854 595 840 611 827 628C826 629 826 630 825 631C822 631 820 631 818 631C779 631 740 631 701 631C698 631 696 630 694 630Z" />
    <path opacity="0.4" d="M952 1023C976 996 1000 970 1025 943C1026 943 1028 943 1028 944C1035 950 1041 955 1048 961C1058 972 1065 985 1068 1000C1070 1006 1071 1012 1073 1019C1063 1031 1054 1042 1044 1054C1030 1071 1016 1087 1002 1105C999 1093 996 1082 992 1071C985 1052 973 1036 956 1025C955 1024 953 1024 952 1023Z" />
    <path d="M2346.21 983.234C2346.21 959.797 2342.3 938.898 2334.49 920.539C2326.68 902.18 2313.79 885.773 2295.82 871.32C2278.24 856.477 2254.41 842.805 2224.34 830.305C2194.65 817.414 2157.54 804.719 2113.01 792.219C2070.43 780.109 2031.95 766.828 1997.58 752.375C1963.2 737.922 1933.71 721.32 1909.1 702.57C1884.88 683.82 1866.33 661.945 1853.44 636.945C1840.55 611.555 1834.1 582.062 1834.1 548.469C1834.1 515.656 1841.13 485.773 1855.2 458.82C1869.26 431.867 1888.98 408.625 1914.38 389.094C1940.16 369.563 1970.43 354.523 2005.2 343.977C2040.35 333.43 2078.83 328.156 2120.62 328.156C2180.39 328.156 2231.95 339.484 2275.31 362.141C2319.06 384.797 2352.85 415.461 2376.68 454.133C2400.9 492.414 2413.01 535.383 2413.01 583.039H2340.94C2340.94 545.93 2332.15 512.922 2314.57 484.016C2297.38 454.719 2272.38 431.867 2239.57 415.461C2207.15 398.664 2167.5 390.266 2120.62 390.266C2073.75 390.266 2034.3 397.492 2002.27 411.945C1970.62 426.008 1946.6 444.953 1930.2 468.781C1914.18 492.219 1906.17 518.391 1906.17 547.297C1906.17 567.609 1910.08 586.359 1917.89 603.547C1925.7 620.344 1938.4 636.164 1955.98 651.008C1973.95 665.461 1997.58 679.133 2026.88 692.023C2056.17 704.523 2092.3 716.438 2135.27 727.766C2180.59 740.266 2220.82 754.133 2255.98 769.367C2291.13 784.602 2320.82 802.18 2345.04 822.102C2369.26 841.633 2387.62 864.484 2400.12 890.656C2412.62 916.828 2418.87 947.297 2418.87 982.062C2418.87 1016.83 2411.45 1048.08 2396.6 1075.81C2382.15 1103.16 2361.64 1126.4 2335.08 1145.54C2308.91 1164.68 2277.85 1179.33 2241.91 1189.48C2206.37 1199.64 2167.5 1204.72 2125.31 1204.72C2087.42 1204.72 2049.73 1199.84 2012.23 1190.07C1974.73 1180.3 1940.35 1165.27 1909.1 1144.95C1878.24 1124.25 1853.44 1097.69 1834.69 1065.27C1816.33 1032.84 1807.15 994.172 1807.15 949.25H1878.63C1878.63 985.188 1885.86 1015.46 1900.31 1040.07C1914.77 1064.68 1933.91 1084.6 1957.73 1099.84C1981.95 1115.07 2008.52 1126.2 2037.42 1133.23C2066.72 1139.88 2096.02 1143.2 2125.31 1143.2C2170.23 1143.2 2209.1 1136.55 2241.91 1123.27C2275.12 1109.99 2300.7 1091.44 2318.67 1067.61C2337.03 1043.39 2346.21 1015.27 2346.21 983.234ZM2696.25 293V1193H2626.52V293H2696.25ZM3192.77 1204.72C3151.37 1204.72 3113.28 1197.1 3078.52 1181.87C3044.14 1166.63 3014.06 1145.15 2988.28 1117.41C2962.89 1089.68 2943.16 1056.87 2929.1 1018.98C2915.43 980.695 2908.59 938.898 2908.59 893.586V868.391C2908.59 819.562 2915.82 775.422 2930.27 735.969C2944.73 696.516 2964.65 662.727 2990.04 634.602C3015.43 606.477 3044.34 584.992 3076.76 570.148C3109.57 554.914 3143.95 547.297 3179.88 547.297C3220.12 547.297 3255.86 554.523 3287.11 568.977C3318.36 583.039 3344.53 603.156 3365.62 629.328C3387.11 655.109 3403.32 685.773 3414.26 721.32C3425.2 756.477 3430.66 795.344 3430.66 837.922V880.695H2950.78V820.93H3360.94V812.727C3360.16 777.18 3352.93 743.977 3339.26 713.117C3325.98 681.867 3306.05 656.477 3279.49 636.945C3252.93 617.414 3219.73 607.648 3179.88 607.648C3150.2 607.648 3122.85 613.898 3097.85 626.398C3073.24 638.898 3051.95 656.867 3033.98 680.305C3016.41 703.352 3002.73 730.891 2992.97 762.922C2983.59 794.562 2978.91 829.719 2978.91 868.391V893.586C2978.91 928.742 2983.98 961.555 2994.14 992.023C3004.69 1022.1 3019.53 1048.66 3038.67 1071.71C3058.2 1094.76 3081.25 1112.73 3107.81 1125.62C3134.38 1138.51 3163.67 1144.95 3195.7 1144.95C3233.2 1144.95 3266.41 1138.12 3295.31 1124.45C3324.22 1110.38 3350.2 1088.31 3373.24 1058.23L3417.19 1092.22C3403.52 1112.53 3386.33 1131.28 3365.62 1148.47C3345.31 1165.66 3320.9 1179.33 3292.38 1189.48C3263.87 1199.64 3230.66 1204.72 3192.77 1204.72ZM3873.87 1204.72C3832.46 1204.72 3794.38 1197.1 3759.61 1181.87C3725.23 1166.63 3695.16 1145.15 3669.38 1117.41C3643.98 1089.68 3624.26 1056.87 3610.2 1018.98C3596.52 980.695 3589.69 938.898 3589.69 893.586V868.391C3589.69 819.562 3596.91 775.422 3611.37 735.969C3625.82 696.516 3645.74 662.727 3671.13 634.602C3696.52 606.477 3725.43 584.992 3757.85 570.148C3790.66 554.914 3825.04 547.297 3860.98 547.297C3901.21 547.297 3936.95 554.523 3968.2 568.977C3999.45 583.039 4025.62 603.156 4046.72 629.328C4068.2 655.109 4084.41 685.773 4095.35 721.32C4106.29 756.477 4111.76 795.344 4111.76 837.922V880.695H3631.88V820.93H4042.03V812.727C4041.25 777.18 4034.02 743.977 4020.35 713.117C4007.07 681.867 3987.15 656.477 3960.59 636.945C3934.02 617.414 3900.82 607.648 3860.98 607.648C3831.29 607.648 3803.95 613.898 3778.95 626.398C3754.34 638.898 3733.05 656.867 3715.08 680.305C3697.5 703.352 3683.83 730.891 3674.06 762.922C3664.69 794.562 3660 829.719 3660 868.391V893.586C3660 928.742 3665.08 961.555 3675.23 992.023C3685.78 1022.1 3700.62 1048.66 3719.77 1071.71C3739.3 1094.76 3762.34 1112.73 3788.91 1125.62C3815.47 1138.51 3844.77 1144.95 3876.8 1144.95C3914.3 1144.95 3947.5 1138.12 3976.41 1124.45C4005.31 1110.38 4031.29 1088.31 4054.34 1058.23L4098.28 1092.22C4084.61 1112.53 4067.42 1131.28 4046.72 1148.47C4026.41 1165.66 4001.99 1179.33 3973.48 1189.48C3944.96 1199.64 3911.76 1204.72 3873.87 1204.72ZM4379.77 293V1193H4310.04V293H4379.77ZM4777.62 559.016L4481.13 853.156L4355.16 975.031L4344.61 906.477L4445.98 796.906L4689.14 559.016H4777.62ZM4716.68 1193L4451.84 863.703L4490.51 803.352L4801.05 1193H4716.68Z" fill="#444343"/>
    <path d="M5394.26 971.516C5394.26 955.109 5391.72 940.461 5386.64 927.57C5381.95 914.289 5373.16 902.375 5360.27 891.828C5347.77 880.891 5330 870.344 5306.95 860.188C5284.3 849.641 5255 838.703 5219.06 827.375C5179.22 814.875 5142.11 800.812 5107.73 785.188C5073.36 769.562 5043.09 751.398 5016.91 730.695C4991.13 709.992 4971.02 686.164 4956.56 659.211C4942.11 631.867 4934.88 600.227 4934.88 564.289C4934.88 529.133 4942.3 497.102 4957.15 468.195C4972.38 439.289 4993.87 414.484 5021.6 393.781C5049.34 372.688 5081.95 356.477 5119.45 345.148C5157.34 333.82 5199.14 328.156 5244.84 328.156C5308.12 328.156 5362.81 339.68 5408.91 362.727C5455.39 385.773 5491.33 417.023 5516.72 456.477C5542.11 495.93 5554.8 540.266 5554.8 589.484H5394.26C5394.26 562.922 5388.59 539.484 5377.27 519.172C5366.33 498.859 5349.53 482.844 5326.88 471.125C5304.61 459.406 5276.48 453.547 5242.5 453.547C5209.69 453.547 5182.34 458.43 5160.47 468.195C5138.98 477.961 5122.77 491.242 5111.84 508.039C5101.29 524.836 5096.02 543.586 5096.02 564.289C5096.02 579.914 5099.73 593.977 5107.15 606.477C5114.57 618.586 5125.7 630.109 5140.55 641.047C5155.39 651.594 5173.75 661.555 5195.62 670.93C5217.89 679.914 5243.67 688.898 5272.97 697.883C5319.84 711.945 5360.86 727.57 5396.02 744.758C5431.56 761.945 5461.05 781.477 5484.49 803.352C5508.32 825.227 5526.09 849.836 5537.81 877.18C5549.92 904.523 5555.98 935.578 5555.98 970.344C5555.98 1007.06 5548.75 1039.88 5534.3 1068.78C5519.84 1097.69 5499.14 1122.3 5472.19 1142.61C5445.23 1162.92 5412.81 1178.35 5374.92 1188.9C5337.42 1199.45 5295.43 1204.72 5248.95 1204.72C5207.54 1204.72 5166.52 1199.25 5125.9 1188.31C5085.66 1176.98 5049.14 1160.19 5016.33 1137.92C4983.52 1115.27 4957.34 1086.75 4937.81 1052.38C4918.28 1017.61 4908.52 976.984 4908.52 930.5H5070.23C5070.23 957.453 5074.53 980.5 5083.12 999.641C5092.11 1018.39 5104.61 1033.82 5120.62 1045.93C5137.03 1057.65 5156.17 1066.24 5178.05 1071.71C5199.92 1077.18 5223.55 1079.91 5248.95 1079.91C5281.76 1079.91 5308.71 1075.42 5329.8 1066.44C5351.29 1057.06 5367.3 1044.17 5377.85 1027.77C5388.79 1011.36 5394.26 992.609 5394.26 971.516ZM5883.16 292.414V1193H5728.48V292.414H5883.16ZM6280.43 559.016L6004.45 868.977L5855.04 1020.73L5805.82 900.617L5921.25 755.305L6093.52 559.016H6280.43ZM6122.23 1193L5925.94 897.688L6029.06 797.492L6301.52 1193H6122.23ZM6608.2 1122.69L6778.12 559.016H6943.95L6689.65 1289.09C6683.79 1304.72 6676.17 1321.71 6666.8 1340.07C6657.81 1358.43 6645.7 1375.81 6630.47 1392.22C6615.23 1409.02 6596.09 1422.69 6573.05 1433.23C6550.39 1443.78 6522.85 1449.05 6490.43 1449.05C6476.37 1449.05 6463.87 1448.08 6452.93 1446.12C6441.99 1444.17 6430.47 1441.63 6418.36 1438.51V1322.49C6422.27 1322.88 6426.76 1323.08 6431.84 1323.08C6437.3 1323.47 6441.99 1323.66 6445.9 1323.66C6468.55 1323.66 6487.3 1320.93 6502.15 1315.46C6516.99 1310.38 6528.91 1301.98 6537.89 1290.27C6547.27 1278.94 6555.08 1264.09 6561.33 1245.73L6608.2 1122.69ZM6524.41 559.016L6667.97 1026.01L6693.16 1189.48L6586.52 1208.82L6357.42 559.016H6524.41Z" fill="#272727"/>
    </svg>
    