<svg width="26" height="19" viewBox="0 0 26 19" fill="none" xmlns="http://www.w3.org/2000/svg">
<g clip-path="url(#clip0_139_960)">
<path d="M15.4104 0.0996094C17.8704 0.0996094 20.1004 1.09961 21.7204 2.70961C23.3304 4.31961 24.3304 6.54961 24.3304 9.01961C24.3304 10.1996 24.1804 10.8196 24.0604 11.3396C23.8904 12.0496 23.7704 12.5496 24.3004 14.5196L25.0904 17.4296C25.1504 17.6396 25.0204 17.8696 24.8104 17.9296C24.7304 17.9496 24.6504 17.9496 24.5804 17.9296L21.6804 17.1696C19.9804 16.7196 19.2904 16.9996 18.4804 17.3296C17.7604 17.6196 16.9404 17.9496 15.4104 17.9496C14.8304 17.9496 14.2604 17.8896 13.7004 17.7896C13.6604 17.8596 13.6004 17.9196 13.5204 17.9496C12.9404 18.2196 12.3304 18.4196 11.7004 18.5596C11.0804 18.6896 10.4404 18.7696 9.79038 18.7696C8.26038 18.7696 7.45038 18.4396 6.72038 18.1496C5.91038 17.8196 5.22038 17.5396 3.52038 17.9896L0.620379 18.7496C0.550379 18.7696 0.470379 18.7796 0.390379 18.7496C0.180379 18.6896 0.0503794 18.4696 0.110379 18.2496L0.900379 15.3396C1.43038 13.3696 1.31038 12.8696 1.14038 12.1596C1.01038 11.6396 0.870379 11.0196 0.870379 9.83961C0.870379 7.37961 1.87038 5.14961 3.48038 3.52961C5.09038 1.91961 7.32038 0.919609 9.79038 0.919609C9.99038 0.919609 10.1904 0.919609 10.4004 0.939609C10.6004 0.949609 10.8004 0.969609 11.0004 0.999609C11.1004 1.00961 11.1804 1.05961 11.2404 1.12961C12.4904 0.469609 13.9004 0.0996094 15.4004 0.0996094H15.4104ZM10.8004 13.0796C10.5804 13.0796 10.4004 12.8996 10.4004 12.6796C10.4004 12.4596 10.5804 12.2796 10.8004 12.2796H20.0204C20.2404 12.2796 20.4204 12.4596 20.4204 12.6796C20.4204 12.8996 20.2404 13.0796 20.0204 13.0796H10.8004ZM10.8004 10.6396C10.5804 10.6396 10.4004 10.4596 10.4004 10.2396C10.4004 10.0196 10.5804 9.83961 10.8004 9.83961H20.0204C20.2404 9.83961 20.4204 10.0196 20.4204 10.2396C20.4204 10.4596 20.2404 10.6396 20.0204 10.6396H10.8004ZM10.8004 5.76961C10.5804 5.76961 10.4004 5.58961 10.4004 5.36961C10.4004 5.14961 10.5804 4.96961 10.8004 4.96961H14.5504C14.7704 4.96961 14.9504 5.14961 14.9504 5.36961C14.9504 5.58961 14.7704 5.76961 14.5504 5.76961H10.8004ZM10.8004 8.20961C10.5804 8.20961 10.4004 8.02961 10.4004 7.80961C10.4004 7.58961 10.5804 7.40961 10.8004 7.40961H20.0204C20.2404 7.40961 20.4204 7.58961 20.4204 7.80961C20.4204 8.02961 20.2404 8.20961 20.0204 8.20961H10.8004ZM12.5404 17.4696C11.2304 17.0296 10.0604 16.2796 9.10038 15.3296C7.49038 13.7196 6.49038 11.4896 6.49038 9.01961C6.49038 6.54961 7.49038 4.32961 9.10038 2.70961C9.46038 2.34961 9.85038 2.01961 10.2604 1.72961C10.1104 1.72961 9.95038 1.71961 9.79038 1.71961C7.55038 1.71961 5.52038 2.62961 4.05038 4.09961C2.58038 5.56961 1.67038 7.59961 1.67038 9.83961C1.67038 10.9396 1.81038 11.4996 1.92038 11.9696C2.12038 12.7996 2.26038 13.3896 1.68038 15.5496L1.07038 17.7896L3.31038 17.1996C5.27038 16.6796 6.07038 17.0096 7.02038 17.3896C7.68038 17.6596 8.41038 17.9496 9.78038 17.9496C10.3804 17.9496 10.9604 17.8896 11.5204 17.7596C11.8604 17.6796 12.2004 17.5896 12.5304 17.4696H12.5404ZM21.1404 3.27961C19.6704 1.80961 17.6404 0.899609 15.4004 0.899609C13.1604 0.899609 11.1304 1.80961 9.66038 3.27961C8.19038 4.74961 7.28038 6.77961 7.28038 9.01961C7.28038 11.2596 8.19038 13.2896 9.66038 14.7596C11.1304 16.2296 13.1604 17.1396 15.4004 17.1396C16.7704 17.1396 17.5104 16.8396 18.1604 16.5796C19.1104 16.1996 19.9104 15.8696 21.8704 16.3896L24.1104 16.9796L23.5004 14.7396C22.9104 12.5796 23.0504 11.9896 23.2604 11.1596C23.3704 10.6896 23.5104 10.1296 23.5104 9.02961C23.5104 6.78961 22.6004 4.75961 21.1304 3.28961L21.1404 3.27961Z" fill="#343D46" stroke="#343D46" stroke-width="0.2" stroke-miterlimit="10"/>
</g>
<defs>
<clipPath id="clip0_139_960">
<rect width="25.2" height="18.85" fill="white"/>
</clipPath>
</defs>
</svg>
