<svg width="24" height="23" viewBox="0 0 24 23" fill="none" xmlns="http://www.w3.org/2000/svg">
<g clip-path="url(#clip0_139_834)">
<path d="M11.9999 0C11.7699 0 11.5599 0.14 11.4699 0.36L8.4899 7.77L0.519903 8.31C0.289903 8.33 0.0899027 8.48 0.0199027 8.7C-0.0500973 8.92 0.0199027 9.16 0.199903 9.31L6.3299 14.43L4.3799 22.18C4.3199 22.4 4.4099 22.64 4.5999 22.78C4.7899 22.92 5.0399 22.92 5.2299 22.8L11.9899 18.55L18.7599 22.8C18.9599 22.92 19.2099 22.91 19.3899 22.78C19.5799 22.64 19.6599 22.41 19.6099 22.18L17.6599 14.43L23.7899 9.31C23.9699 9.16 24.0399 8.92 23.9699 8.7C23.8999 8.48 23.6999 8.33 23.4699 8.31L15.4999 7.77L12.5299 0.36C12.4399 0.14 12.2299 0 11.9999 0ZM11.9999 2.08L14.5799 8.51C14.6599 8.71 14.8499 8.85 15.0699 8.86L21.9899 9.33L16.6699 13.77C16.4999 13.91 16.4299 14.13 16.4799 14.34L18.1699 21.06L12.2999 17.37C12.1199 17.25 11.8799 17.25 11.6999 17.37L5.8299 21.06L7.5199 14.34C7.5699 14.13 7.4999 13.91 7.3299 13.77L2.0099 9.33L8.9299 8.86C9.1499 8.85 9.3399 8.71 9.4199 8.51L11.9999 2.08Z" fill="#343D46"/>
</g>
<defs>
<clipPath id="clip0_139_834">
<rect width="24" height="22.88" fill="white"/>
</clipPath>
</defs>
</svg>
