<svg width="25" height="27" viewBox="0 0 25 27" fill="none" xmlns="http://www.w3.org/2000/svg">
<g clip-path="url(#clip0_139_663)">
<path d="M15.0897 6.8798C15.0897 5.1898 13.6997 3.7998 12.0097 3.7998C10.3197 3.7998 8.92969 5.1898 8.92969 6.8798C8.92969 8.56981 10.3197 9.9598 12.0097 9.9598C13.6997 9.9598 15.0897 8.56981 15.0897 6.8798ZM10.1497 6.8798C10.1497 5.8498 10.9797 5.0198 12.0097 5.0198C13.0397 5.0198 13.8697 5.8498 13.8697 6.8798C13.8697 7.9098 13.0397 8.7398 12.0097 8.7398C10.9797 8.7398 10.1497 7.9098 10.1497 6.8798Z" fill="#343D46" stroke="white" stroke-width="0.1" stroke-miterlimit="10"/>
<path d="M21.8296 20.89V18.61C21.8296 17.56 20.9696 16.7 19.9196 16.7H12.6196V13.7H12.9296C13.5096 13.7 13.9596 13.23 13.9596 12.67V12.14C14.0996 12.08 14.2396 12.03 14.3796 11.97L14.7396 12.33C15.1296 12.72 15.8196 12.72 16.2096 12.33L17.5096 11.03C17.9296 10.61 17.9296 9.98002 17.5096 9.56002L17.1496 9.20002C17.2096 9.06002 17.2596 8.92002 17.3196 8.78002H17.8196C18.3996 8.78002 18.8496 8.31002 18.8496 7.75002V5.92002C18.8496 5.34002 18.3796 4.89002 17.8196 4.89002H17.2896C17.2296 4.75002 17.1796 4.61002 17.1196 4.47002L17.4796 4.11002C17.8996 3.69002 17.8996 3.06002 17.4796 2.64002L16.1796 1.39002C15.7596 0.97002 15.1296 0.97002 14.7096 1.39002L14.3496 1.75002C14.2096 1.69002 14.0696 1.64002 13.9296 1.58002V1.05002C13.9296 0.47002 13.4596 0.0200195 12.8996 0.0200195H11.0696C10.4896 0.0200195 10.0396 0.49002 10.0396 1.05002V1.58002C9.89957 1.64002 9.75957 1.69002 9.61957 1.75002L9.25957 1.39002C8.83957 0.97002 8.20957 0.97002 7.78957 1.39002L6.48957 2.69002C6.06957 3.11002 6.06957 3.74002 6.48957 4.16002L6.84957 4.52002C6.78957 4.66002 6.73957 4.80002 6.67957 4.94002H6.17957C5.59957 4.94002 5.14957 5.41002 5.14957 5.97002V7.80002C5.14957 8.38002 5.61957 8.83002 6.17957 8.83002H6.72957C6.78957 8.97002 6.83957 9.11002 6.89957 9.25002L6.53957 9.61002C6.34957 9.80002 6.22957 10.05 6.22957 10.33C6.22957 10.61 6.33957 10.86 6.53957 11.05L7.83957 12.35C8.25957 12.77 8.88957 12.77 9.30957 12.35L9.66957 11.99C9.80957 12.05 9.94957 12.1 10.0896 12.16V12.66C10.0896 13.24 10.5596 13.69 11.1196 13.69H11.4296V16.69H4.12957C3.07957 16.69 2.21957 17.55 2.21957 18.6V20.88C0.96957 21.16 0.0595703 22.27 0.0595703 23.6C0.0595703 25.13 1.30957 26.4 2.85957 26.4C4.40957 26.4 5.60957 25.15 5.60957 23.6C5.60957 22.27 4.66957 21.16 3.44957 20.88V18.6C3.44957 18.21 3.75957 17.91 4.13957 17.91H11.4096V20.88C10.1596 21.16 9.24957 22.27 9.24957 23.6C9.24957 25.13 10.4996 26.4 12.0496 26.4C13.5996 26.4 14.8196 25.15 14.8196 23.6C14.8196 22.27 13.8796 21.16 12.6596 20.88V17.91H19.9296C20.3196 17.91 20.6196 18.22 20.6196 18.6V20.88C19.3696 21.16 18.4596 22.27 18.4596 23.6C18.4596 25.13 19.7096 26.4 21.2596 26.4C22.8096 26.4 24.0596 25.15 24.0596 23.6C23.9996 22.3 23.0896 21.19 21.8396 20.88L21.8296 20.89ZM10.8396 11.12C10.4796 11.04 10.1496 10.9 9.83957 10.7C9.58957 10.56 9.30957 10.62 9.11957 10.81L8.56957 11.36L7.53957 10.33L8.06957 9.80002C8.25957 9.61002 8.28957 9.30002 8.17957 9.05002C8.00957 8.74002 7.86957 8.41002 7.75957 8.05002C7.67957 7.77002 7.44957 7.61002 7.17957 7.61002H6.39957V6.17002H7.17957C7.45957 6.17002 7.70957 5.98002 7.75957 5.73002C7.83957 5.37002 7.97957 5.04002 8.17957 4.73002C8.31957 4.48002 8.25957 4.20002 8.06957 4.01002L7.51957 3.46002L8.54957 2.43002L9.07957 2.96002C9.26957 3.15002 9.57957 3.18002 9.82957 3.07002C10.1396 2.90002 10.4696 2.76002 10.8296 2.65002C11.1096 2.57002 11.2696 2.34002 11.2696 2.07002V1.27002H12.7096V2.05002C12.7096 2.33002 12.8996 2.58002 13.1496 2.63002C13.5096 2.74002 13.8396 2.85002 14.1496 3.05002C14.3996 3.19002 14.6796 3.13002 14.8996 2.94002L15.4496 2.39002L16.4796 3.42002L15.9496 3.95002C15.7596 4.14002 15.7296 4.45002 15.8396 4.70002C16.0096 5.01002 16.1496 5.34002 16.2596 5.70002C16.3396 5.98002 16.5696 6.14002 16.8396 6.14002H17.6196V7.58002H16.8396C16.5596 7.58002 16.3096 7.77002 16.2596 8.02002C16.1496 8.38002 16.0396 8.71002 15.8396 9.02002C15.6996 9.27002 15.7596 9.55002 15.9496 9.77002L16.4996 10.32L15.4696 11.35L14.9396 10.82C14.7496 10.63 14.4396 10.6 14.1896 10.71C13.8796 10.88 13.5496 11.02 13.1896 11.13C12.9096 11.21 12.7496 11.44 12.7496 11.71V12.49H11.3096V11.71C11.2796 11.46 11.0896 11.21 10.8396 11.13V11.12ZM4.37957 23.61C4.37957 24.47 3.68957 25.16 2.82957 25.16C1.96957 25.16 1.27957 24.47 1.27957 23.61C1.27957 22.75 1.96957 22.06 2.82957 22.06C3.68957 22.06 4.37957 22.75 4.37957 23.61ZM13.5596 23.61C13.5596 24.47 12.8696 25.16 12.0096 25.16C11.1496 25.16 10.4596 24.47 10.4596 23.61C10.4596 22.75 11.1496 22.06 12.0096 22.06C12.8696 22.06 13.5596 22.75 13.5596 23.61ZM21.2196 25.19C20.3596 25.19 19.6696 24.5 19.6696 23.64C19.6696 22.78 20.3596 22.09 21.2196 22.09C22.0796 22.09 22.7696 22.78 22.7696 23.64C22.7696 24.5 22.0796 25.19 21.2196 25.19Z" fill="#343D46" stroke="white" stroke-width="0.1" stroke-miterlimit="10"/>
</g>
<defs>
<clipPath id="clip0_139_663">
<rect width="24.1" height="26.46" fill="white"/>
</clipPath>
</defs>
</svg>
