<svg width="25" height="25" viewBox="0 0 25 25" fill="none" xmlns="http://www.w3.org/2000/svg">
<g clip-path="url(#clip0_139_836)">
<path d="M12.1001 24.1001C10.4801 24.1001 8.9101 23.7801 7.4301 23.1601C6.0001 22.5601 4.7201 21.6901 3.6201 20.5901C2.5201 19.4901 1.6501 18.2101 1.0501 16.7801C0.420098 15.2901 0.100098 13.7201 0.100098 12.1001C0.100098 10.4801 0.420098 8.9101 1.0401 7.4301C1.6401 6.0001 2.5101 4.7201 3.6101 3.6201C4.7101 2.5201 5.9901 1.6501 7.4201 1.0501C8.9101 0.420098 10.4801 0.100098 12.1001 0.100098C13.7201 0.100098 15.2901 0.420098 16.7701 1.0401C18.2001 1.6401 19.4801 2.5101 20.5801 3.6101C21.6801 4.7101 22.5501 5.9901 23.1501 7.4201C23.7801 8.9001 24.0901 10.4701 24.0901 12.0901C24.0901 13.7101 23.7701 15.2801 23.1501 16.7601C22.5501 18.1901 21.6801 19.4701 20.5801 20.5701C19.4801 21.6701 18.2001 22.5401 16.7701 23.1401C15.2901 23.7701 13.7201 24.0901 12.1001 24.0901V24.1001ZM12.1001 0.760098C5.8501 0.760098 0.760098 5.8501 0.760098 12.1001C0.760098 18.3501 5.8501 23.4401 12.1001 23.4401C18.3501 23.4401 23.4401 18.3501 23.4401 12.1001C23.4401 5.8501 18.3501 0.760098 12.1001 0.760098Z" fill="#343D46" stroke="#343D46" stroke-width="0.2" stroke-miterlimit="10"/>
<path d="M20.35 20.6802C20.27 20.6802 20.18 20.6502 20.12 20.5802L18.87 19.3302C18.74 19.2002 18.74 18.9902 18.87 18.8602C19 18.7302 19.21 18.7302 19.34 18.8602L20.59 20.1102C20.72 20.2402 20.72 20.4502 20.59 20.5802C20.52 20.6402 20.44 20.6802 20.36 20.6802H20.35Z" fill="#343D46" stroke="#343D46" stroke-width="0.2" stroke-miterlimit="10"/>
<path d="M23.7699 12.43H21.9999C21.8199 12.43 21.6699 12.28 21.6699 12.1C21.6699 11.92 21.8199 11.77 21.9999 11.77H23.7699C23.9499 11.77 24.0999 11.92 24.0999 12.1C24.0999 12.28 23.9499 12.43 23.7699 12.43Z" fill="#343D46" stroke="#343D46" stroke-width="0.2" stroke-miterlimit="10"/>
<path d="M19.1 5.4302C19.02 5.4302 18.93 5.4002 18.87 5.3302C18.74 5.2002 18.74 4.9902 18.87 4.8602L20.12 3.6102C20.25 3.4802 20.46 3.4802 20.59 3.6102C20.72 3.7402 20.72 3.9502 20.59 4.0802L19.34 5.3302C19.28 5.3902 19.19 5.4302 19.11 5.4302H19.1Z" fill="#343D46" stroke="#343D46" stroke-width="0.2" stroke-miterlimit="10"/>
<path d="M16.4498 16.7801C16.3698 16.7801 16.2798 16.7501 16.2198 16.6801L12.7298 13.1901C12.5998 13.0601 12.5998 12.8501 12.7298 12.7201C12.8598 12.5901 13.0698 12.5901 13.1998 12.7201L16.6898 16.2101C16.8198 16.3401 16.8198 16.5501 16.6898 16.6801C16.6298 16.7501 16.5398 16.7801 16.4598 16.7801H16.4498Z" fill="#343D46" stroke="#343D46" stroke-width="0.2" stroke-miterlimit="10"/>
<path d="M12.1 24.1001C11.92 24.1001 11.77 23.9501 11.77 23.7701C11.77 23.5901 11.92 23.4401 12.1 23.4401C18.35 23.4401 23.44 18.3501 23.44 12.1001C23.44 5.8501 18.35 0.760098 12.1 0.760098C11.92 0.760098 11.77 0.610098 11.77 0.430098C11.77 0.250098 11.92 0.100098 12.1 0.100098C13.72 0.100098 15.29 0.420098 16.77 1.0401C18.2 1.6401 19.48 2.5101 20.58 3.6101C21.68 4.7101 22.55 6.0001 23.15 7.4201C23.78 8.9001 24.09 10.4701 24.09 12.0901C24.09 13.7101 23.77 15.2801 23.15 16.7601C22.55 18.1901 21.68 19.4701 20.58 20.5701C19.48 21.6701 18.19 22.5401 16.77 23.1401C15.29 23.7701 13.72 24.0801 12.1 24.0801V24.1001Z" fill="#343D46" stroke="#343D46" stroke-width="0.2" stroke-miterlimit="10"/>
<path d="M12.1001 13.6201C11.2601 13.6201 10.5801 12.9401 10.5801 12.1001C10.5801 11.2601 11.2601 10.5801 12.1001 10.5801C12.9401 10.5801 13.6201 11.2601 13.6201 12.1001C13.6201 12.9401 12.9401 13.6201 12.1001 13.6201ZM12.1001 11.2401C11.6201 11.2401 11.2401 11.6301 11.2401 12.1001C11.2401 12.5701 11.6301 12.9601 12.1001 12.9601C12.5701 12.9601 12.9601 12.5701 12.9601 12.1001C12.9601 11.6301 12.5701 11.2401 12.1001 11.2401Z" fill="#343D46" stroke="#343D46" stroke-width="0.2" stroke-miterlimit="10"/>
<path d="M12.1 11.2398C11.92 11.2398 11.77 11.0898 11.77 10.9098V6.39982C11.77 6.21982 11.92 6.06982 12.1 6.06982C12.28 6.06982 12.43 6.21982 12.43 6.39982V10.9098C12.43 11.0898 12.28 11.2398 12.1 11.2398Z" fill="#343D46" stroke="#343D46" stroke-width="0.2" stroke-miterlimit="10"/>
<path d="M12.1001 24.1001C10.4801 24.1001 8.9101 23.7801 7.4301 23.1601C6.0001 22.5601 4.7201 21.6901 3.6201 20.5901C2.5201 19.4901 1.6501 18.2001 1.0501 16.7801C0.420098 15.2901 0.100098 13.7201 0.100098 12.1001C0.100098 10.4801 0.420098 8.9101 1.0401 7.4301C1.6401 6.0001 2.5101 4.7201 3.6101 3.6201C4.7101 2.5201 6.0001 1.6501 7.4201 1.0501C8.9101 0.420098 10.4801 0.100098 12.1001 0.100098C12.2801 0.100098 12.4301 0.250098 12.4301 0.430098C12.4301 0.610098 12.2801 0.760098 12.1001 0.760098C5.8501 0.760098 0.760098 5.8501 0.760098 12.1001C0.760098 18.3501 5.8501 23.4401 12.1001 23.4401C12.2801 23.4401 12.4301 23.5901 12.4301 23.7701C12.4301 23.9501 12.2801 24.1001 12.1001 24.1001Z" fill="#343D46" stroke="#343D46" stroke-width="0.2" stroke-miterlimit="10"/>
<path d="M12.0999 24.1001C11.2299 24.1001 10.3999 23.7701 9.61994 23.1101C8.88994 22.4901 8.23994 21.6201 7.67994 20.5001C6.55994 18.2501 5.93994 15.2701 5.93994 12.1001C5.93994 8.9301 6.55994 5.9501 7.67994 3.7001C8.23994 2.5901 8.88994 1.7101 9.61994 1.0901C10.3999 0.430098 11.2399 0.100098 12.0999 0.100098C12.2799 0.100098 12.4299 0.250098 12.4299 0.430098C12.4299 0.610098 12.2799 0.760098 12.0999 0.760098C10.6699 0.760098 9.30994 1.9101 8.26994 4.0001C7.18994 6.1601 6.58994 9.0401 6.58994 12.1001C6.58994 15.1601 7.17994 18.0501 8.25994 20.2001C9.29994 22.2901 10.6599 23.4401 12.0899 23.4401C12.2699 23.4401 12.4199 23.5901 12.4199 23.7701C12.4199 23.9501 12.2699 24.1001 12.0899 24.1001H12.0999Z" fill="#343D46" stroke="#343D46" stroke-width="0.2" stroke-miterlimit="10"/>
<path d="M12.1001 18.2599C8.9301 18.2599 5.9501 17.6399 3.7001 16.5199C2.5901 15.9599 1.7101 15.3099 1.0901 14.5799C0.430098 13.7999 0.100098 12.9599 0.100098 12.0999C0.100098 11.2399 0.430098 10.3999 1.0901 9.61994C1.7101 8.88994 2.5801 8.23994 3.7001 7.67994C5.9501 6.55994 8.9301 5.93994 12.1001 5.93994C12.2801 5.93994 12.4301 6.08994 12.4301 6.26994C12.4301 6.44994 12.2801 6.59994 12.1001 6.59994C9.0301 6.59994 6.1501 7.18994 4.0001 8.26994C1.9101 9.30994 0.760098 10.6699 0.760098 12.0999C0.760098 13.5299 1.9101 14.8899 4.0001 15.9299C6.1601 17.0099 9.0401 17.5999 12.1001 17.5999C12.2801 17.5999 12.4301 17.7499 12.4301 17.9299C12.4301 18.1099 12.2801 18.2599 12.1001 18.2599Z" fill="#343D46" stroke="#343D46" stroke-width="0.2" stroke-miterlimit="10"/>
<path d="M10.9101 12.43H0.430098C0.250098 12.43 0.100098 12.28 0.100098 12.1C0.100098 11.92 0.250098 11.77 0.430098 11.77H10.9101C11.0901 11.77 11.2401 11.92 11.2401 12.1C11.2401 12.28 11.0901 12.43 10.9101 12.43Z" fill="#343D46" stroke="#343D46" stroke-width="0.2" stroke-miterlimit="10"/>
<path d="M12.1 24.1C11.92 24.1 11.77 23.95 11.77 23.77V13.29C11.77 13.11 11.92 12.96 12.1 12.96C12.28 12.96 12.43 13.11 12.43 13.29V23.77C12.43 23.95 12.28 24.1 12.1 24.1Z" fill="#343D46" stroke="#343D46" stroke-width="0.2" stroke-miterlimit="10"/>
<path d="M12.1 11.2401C11.92 11.2401 11.77 11.0901 11.77 10.9101V0.430098C11.77 0.250098 11.92 0.100098 12.1 0.100098C12.28 0.100098 12.43 0.250098 12.43 0.430098V10.9101C12.43 11.0901 12.28 11.2401 12.1 11.2401Z" fill="#343D46" stroke="#343D46" stroke-width="0.2" stroke-miterlimit="10"/>
<path d="M12.9398 11.5898C12.8598 11.5898 12.7698 11.5598 12.7098 11.4898C12.5798 11.3598 12.5798 11.1498 12.7098 11.0198L15.7498 7.97982C15.8798 7.84982 16.0898 7.84982 16.2198 7.97982C16.3498 8.10982 16.3498 8.31982 16.2198 8.44982L13.1798 11.4898C13.1098 11.5598 13.0298 11.5898 12.9498 11.5898H12.9398Z" fill="#343D46" stroke="#343D46" stroke-width="0.2" stroke-miterlimit="10"/>
</g>
<defs>
<clipPath id="clip0_139_836">
<rect width="24.2" height="24.2" fill="white"/>
</clipPath>
</defs>
</svg>
