<svg width="26" height="26" viewBox="0 0 26 26" fill="none" xmlns="http://www.w3.org/2000/svg">
<g clip-path="url(#clip0_139_229)">
<path d="M12.6096 19.8998C10.6796 19.8998 8.81957 19.1298 7.44957 17.7598C6.07957 16.3898 5.30957 14.5398 5.30957 12.5998C5.30957 10.6598 6.07957 8.8098 7.44957 7.4398C8.81957 6.0698 10.6696 5.2998 12.6096 5.2998C14.5496 5.2998 16.3996 6.0698 17.7696 7.4398C19.1396 8.8098 19.9096 10.6598 19.9096 12.5998C19.9096 14.5398 19.1396 16.3898 17.7696 17.7598C16.3996 19.1298 14.5496 19.8998 12.6096 19.8998ZM12.6096 6.0098C10.8596 6.0098 9.17957 6.6998 7.94957 7.9398C6.70957 9.1798 6.01957 10.8598 6.01957 12.5998C6.01957 14.3398 6.70957 16.0298 7.94957 17.2598C9.18957 18.4998 10.8696 19.1898 12.6096 19.1898C14.3496 19.1898 16.0396 18.4998 17.2696 17.2598C18.5096 16.0198 19.1996 14.3398 19.1996 12.5998C19.1996 10.8598 18.5096 9.1698 17.2696 7.9398C16.0296 6.6998 14.3496 6.0098 12.6096 6.0098Z" fill="#343D46" stroke="#343D46" stroke-width="0.21" stroke-miterlimit="10"/>
<path d="M13.8204 25.1098H11.3904C11.0804 25.1098 10.7904 24.9898 10.5704 24.7698C10.3504 24.5498 10.2304 24.2598 10.2304 23.9498V22.8098C9.08042 22.5398 7.98042 22.0798 6.98042 21.4498L6.30042 22.1398C6.08042 22.3598 5.79042 22.4798 5.48042 22.4798C5.17042 22.4798 4.88042 22.3598 4.66042 22.1398L2.94042 20.3998C2.72042 20.1798 2.60042 19.8898 2.60042 19.5798C2.60042 19.2698 2.72042 18.9798 2.94042 18.7598L3.63042 18.0698C3.05042 17.1198 2.62042 16.0798 2.37042 14.9898H1.24042C0.930422 14.9898 0.640422 14.8698 0.420422 14.6498C0.200422 14.4298 0.0804224 14.1298 0.0904224 13.8198V11.3898C0.0904224 11.0798 0.210422 10.7898 0.430422 10.5698C0.650422 10.3498 0.940422 10.2298 1.25042 10.2298H2.39042C2.66042 9.05984 3.13042 7.94984 3.78042 6.93984L2.94042 6.09984C2.72042 5.87984 2.60042 5.58984 2.60042 5.27984C2.60042 4.96984 2.72042 4.67984 2.94042 4.45984L4.66042 2.73984C4.88042 2.51984 5.17042 2.39984 5.48042 2.39984C5.79042 2.39984 6.08042 2.51984 6.30042 2.73984L7.19042 3.62984C8.13042 3.05984 9.16042 2.63984 10.2304 2.38984V1.24984C10.2304 0.939844 10.3504 0.649844 10.5704 0.429844C10.7904 0.209844 11.0804 0.0898438 11.3904 0.0898438H13.8204C14.1304 0.0898438 14.4204 0.209844 14.6404 0.429844C14.8604 0.649844 14.9804 0.939844 14.9804 1.24984V2.38984C16.0704 2.63984 17.1104 3.06984 18.0604 3.64984L18.9704 2.73984C19.1904 2.51984 19.4804 2.39984 19.7904 2.39984C20.1004 2.39984 20.3904 2.51984 20.6104 2.73984L22.3304 4.45984C22.5504 4.67984 22.6704 4.96984 22.6704 5.27984C22.6704 5.58984 22.5504 5.87984 22.3304 6.09984L21.4504 6.97984C22.0904 7.97984 22.5504 9.06984 22.8104 10.2298H23.9504C24.2604 10.2298 24.5504 10.3498 24.7604 10.5698C24.9804 10.7898 25.1004 11.0798 25.1004 11.3898V13.8198C25.1004 14.1298 24.9804 14.4198 24.7604 14.6398C24.5404 14.8598 24.2504 14.9798 23.9404 14.9798H22.8004C22.5504 16.0498 22.1304 17.0798 21.5604 18.0198L22.3104 18.7698C22.5304 18.9898 22.6504 19.2798 22.6504 19.5898C22.6504 19.8998 22.5304 20.1898 22.3104 20.4098L20.5904 22.1498C20.3704 22.3698 20.0804 22.4898 19.7704 22.4898C19.4604 22.4898 19.1704 22.3698 18.9504 22.1498L18.2604 21.4598C17.2504 22.1098 16.1404 22.5798 14.9704 22.8498V23.9898C14.9704 24.2898 14.8404 24.5798 14.6204 24.7998C14.4004 25.0098 14.1104 25.1298 13.8004 25.1298L13.8204 25.1098ZM6.94042 20.6598C7.01042 20.6598 7.08042 20.6798 7.13042 20.7198C8.19042 21.4398 9.39042 21.9398 10.6404 22.1998C10.8004 22.2298 10.9204 22.3798 10.9204 22.5498V23.9698C10.9204 24.2198 11.1304 24.4298 11.3804 24.4198H13.8104C14.0704 24.4198 14.2704 24.2098 14.2704 23.9598V22.5398C14.2704 22.3698 14.3804 22.2298 14.5504 22.1898C15.8204 21.9298 17.0304 21.4198 18.1104 20.6898C18.2504 20.5998 18.4304 20.6098 18.5504 20.7298L19.4504 21.6398C19.6304 21.8198 19.9204 21.8198 20.1104 21.6398L21.8504 19.8998C22.0304 19.7198 22.0304 19.4298 21.8504 19.2398L20.9004 18.2898C20.7904 18.1698 20.7704 17.9998 20.8504 17.8598C21.5004 16.8498 21.9604 15.7198 22.2004 14.5398C22.2304 14.3798 22.3804 14.2598 22.5504 14.2598H23.9704C24.2104 14.2498 24.4004 14.0498 24.4104 13.8198V11.3898C24.4104 11.1298 24.2004 10.9298 23.9504 10.9298H22.5304C22.3604 10.9298 22.2204 10.8198 22.1804 10.6498C21.9304 9.38984 21.4204 8.19984 20.7004 7.13984C20.6104 6.99984 20.6304 6.81984 20.7504 6.70984L21.8304 5.62984C22.0104 5.44984 22.0104 5.15984 21.8304 4.97984L20.0904 3.25984C19.9104 3.07984 19.6204 3.07984 19.4304 3.25984L18.3204 4.36984C18.2004 4.48984 18.0204 4.49984 17.8904 4.41984C16.8704 3.74984 15.7304 3.27984 14.5304 3.02984C14.3704 2.99984 14.2504 2.84984 14.2504 2.67984V1.26984C14.2504 1.01984 14.0504 0.819844 13.8104 0.809844H11.3804C11.1204 0.809844 10.9204 1.01984 10.9204 1.26984V2.68984C10.9204 2.85984 10.8104 2.99984 10.6404 3.03984C9.46042 3.27984 8.33042 3.73984 7.32042 4.38984C7.18042 4.47984 7.00042 4.45984 6.89042 4.33984L5.81042 3.23984C5.63042 3.05984 5.34042 3.05984 5.15042 3.23984L3.43042 4.97984C3.25042 5.15984 3.25042 5.44984 3.43042 5.62984L4.47042 6.66984C4.59042 6.78984 4.61042 6.96984 4.51042 7.10984C3.77042 8.17984 3.26042 9.38984 3.00042 10.6598C2.97042 10.8198 2.82042 10.9398 2.65042 10.9398H1.24042C1.12042 10.9398 1.00042 10.9898 0.910422 11.0798C0.820422 11.1698 0.770422 11.2798 0.770422 11.4098V13.8398C0.770422 14.0998 0.980422 14.2998 1.23042 14.2998H2.65042C2.82042 14.2998 2.96042 14.4098 3.00042 14.5798C3.25042 15.7798 3.72042 16.9198 4.39042 17.9398C4.48042 18.0798 4.46042 18.2598 4.34042 18.3698L3.43042 19.2798C3.25042 19.4598 3.25042 19.7498 3.43042 19.9398L5.15042 21.6798C5.33042 21.8598 5.62042 21.8598 5.81042 21.6798L6.67042 20.7798C6.73042 20.7198 6.82042 20.6798 6.91042 20.6798L6.94042 20.6598Z" fill="#343D46" stroke="#343D46" stroke-width="0.21" stroke-miterlimit="10"/>
<path d="M13.2999 12.6099C13.2999 12.9899 12.9899 13.2999 12.6099 13.2999C12.2299 13.2999 11.9199 12.9899 11.9199 12.6099C11.9199 12.2299 12.2299 11.9199 12.6099 11.9199C12.9899 11.9199 13.2999 12.2299 13.2999 12.6099Z" fill="#343D46" stroke="#343D46" stroke-width="0.21" stroke-miterlimit="10"/>
<path d="M12.6098 7.74986C12.4198 7.74986 12.2598 7.58986 12.2598 7.39986V6.70986C12.2598 6.51986 12.4198 6.35986 12.6098 6.35986C12.7998 6.35986 12.9598 6.51986 12.9598 6.70986V7.39986C12.9598 7.48986 12.9198 7.57986 12.8598 7.64986C12.7898 7.71986 12.7098 7.74986 12.6098 7.74986Z" fill="#343D46" stroke="#343D46" stroke-width="0.21" stroke-miterlimit="10"/>
<path d="M7.40035 12.95H6.71035C6.52035 12.95 6.36035 12.79 6.36035 12.6C6.36035 12.41 6.52035 12.25 6.71035 12.25H7.40035C7.59035 12.25 7.75035 12.41 7.75035 12.6C7.75035 12.79 7.59035 12.95 7.40035 12.95Z" fill="#343D46" stroke="#343D46" stroke-width="0.21" stroke-miterlimit="10"/>
<path d="M12.6098 18.8602C12.4198 18.8602 12.2598 18.7002 12.2598 18.5102V17.8202C12.2598 17.6302 12.4198 17.4702 12.6098 17.4702C12.7998 17.4702 12.9598 17.6302 12.9598 17.8202V18.5102C12.9598 18.6002 12.9198 18.6902 12.8598 18.7602C12.7898 18.8302 12.7098 18.8602 12.6098 18.8602Z" fill="#343D46" stroke="#343D46" stroke-width="0.21" stroke-miterlimit="10"/>
<path d="M18.5097 12.95H17.8197C17.6297 12.95 17.4697 12.79 17.4697 12.6C17.4697 12.41 17.6297 12.25 17.8197 12.25H18.5097C18.6997 12.25 18.8597 12.41 18.8597 12.6C18.8597 12.79 18.6997 12.95 18.5097 12.95Z" fill="#343D46" stroke="#343D46" stroke-width="0.21" stroke-miterlimit="10"/>
<path d="M8.91996 9.27015C8.82996 9.27015 8.73996 9.23015 8.67996 9.17015L8.18996 8.68015C8.04996 8.54015 8.04996 8.32015 8.18996 8.19015C8.32996 8.06015 8.54996 8.05015 8.67996 8.19015L9.16996 8.68015C9.29996 8.82015 9.29996 9.03015 9.16996 9.17015C9.09996 9.24015 9.01996 9.27015 8.91996 9.27015Z" fill="#343D46" stroke="#343D46" stroke-width="0.21" stroke-miterlimit="10"/>
<path d="M8.43984 17.1199C8.34984 17.1199 8.25984 17.0799 8.18984 17.0199C8.11984 16.9499 8.08984 16.8699 8.08984 16.7699C8.08984 16.6699 8.12984 16.5899 8.18984 16.5199L8.67984 16.0299C8.81984 15.9099 9.01984 15.9199 9.14984 16.0499C9.27984 16.1799 9.28984 16.3799 9.16984 16.5199L8.67984 17.0099C8.60984 17.0699 8.52984 17.1099 8.42984 17.1099L8.43984 17.1199Z" fill="#343D46" stroke="#343D46" stroke-width="0.21" stroke-miterlimit="10"/>
<path d="M16.7701 17.1201C16.6801 17.1201 16.5901 17.0801 16.5201 17.0201L16.0401 16.5301C15.9201 16.3901 15.9301 16.1901 16.0601 16.0601C16.1901 15.9301 16.3901 15.9201 16.5301 16.0401L17.0201 16.5301C17.0901 16.6001 17.1201 16.6801 17.1201 16.7801C17.1201 16.8801 17.0801 16.9601 17.0201 17.0301C16.9501 17.0901 16.8601 17.1301 16.7701 17.1201Z" fill="#343D46" stroke="#343D46" stroke-width="0.21" stroke-miterlimit="10"/>
<path d="M16.2899 9.26996C16.1999 9.26996 16.1099 9.22996 16.0399 9.16996C15.9099 9.02996 15.9099 8.81996 16.0399 8.67996L16.5299 8.18996C16.6699 8.04996 16.8899 8.04996 17.0199 8.18996C17.1599 8.32996 17.1599 8.54996 17.0199 8.67996L16.5299 9.16996C16.4699 9.22996 16.3799 9.26996 16.2899 9.26996Z" fill="#343D46" stroke="#343D46" stroke-width="0.21" stroke-miterlimit="10"/>
<path d="M12.61 12.9499C12.44 12.9499 12.3 12.8299 12.27 12.6599C12.24 12.4899 12.34 12.3299 12.49 12.2699L17.06 10.6099C17.24 10.5399 17.44 10.6399 17.51 10.8199C17.58 10.9999 17.48 11.1999 17.3 11.2699L12.73 12.9299C12.73 12.9299 12.65 12.9499 12.61 12.9499Z" fill="#343D46" stroke="#343D46" stroke-width="0.21" stroke-miterlimit="10"/>
<path d="M14.0003 14.9398C13.8903 14.9398 13.7803 14.8898 13.7203 14.7898L12.3303 12.7998C12.2303 12.6398 12.2803 12.4398 12.4303 12.3298C12.5803 12.2198 12.7903 12.2598 12.9003 12.3998L14.2903 14.3898C14.4003 14.5498 14.3603 14.7598 14.2103 14.8698C14.1503 14.9098 14.0803 14.9298 14.0103 14.9298L14.0003 14.9398Z" fill="#343D46" stroke="#343D46" stroke-width="0.21" stroke-miterlimit="10"/>
</g>
<defs>
<clipPath id="clip0_139_229">
<rect width="25.21" height="25.21" fill="white"/>
</clipPath>
</defs>
</svg>
