<svg width="24" height="20" viewBox="0 0 24 20" fill="none" xmlns="http://www.w3.org/2000/svg">
<g clip-path="url(#clip0_139_1042)">
<path d="M13.6298 0.550062C15.4998 -0.489938 17.9298 0.0200622 19.4098 1.50006C20.4898 1.32006 21.4898 0.870062 22.4498 0.350062C22.1498 1.42006 21.4898 2.36006 20.5298 2.93006C20.5498 2.98006 20.5698 3.10006 20.5898 3.15006C21.2798 2.66006 22.2898 2.74006 23.0698 2.35006C22.4898 3.28006 21.7198 4.08006 20.7898 4.67006C20.5598 5.19006 20.7098 5.83006 20.6398 6.40006C20.4398 10.3001 18.3998 14.0401 15.2698 16.3601C12.3598 18.5401 8.50977 19.5001 4.92977 18.7701C3.18977 18.4201 1.49977 17.7801 0.00976562 16.8101C2.38977 16.9501 4.86977 16.3601 6.73977 14.8201C4.75977 14.7901 2.91977 13.4401 2.41977 11.5001C3.08977 11.5201 3.76977 11.5301 4.43977 11.4601C3.21977 11.0101 1.99977 10.3301 1.38977 9.12006C0.959766 8.39006 0.839766 7.54006 0.769766 6.71006C1.40977 7.00006 2.08977 7.19006 2.77977 7.30006C1.96977 6.51006 1.19977 5.59006 0.969766 4.46006C0.639766 3.26006 0.909766 2.00006 1.39977 0.880062C4.03977 3.46006 7.35977 5.87006 11.2198 5.77006C10.7898 3.74006 11.7598 1.48006 13.6398 0.530062L13.6298 0.550062Z" fill="#343D46"/>
</g>
<defs>
<clipPath id="clip0_139_1042">
<rect width="23.07" height="19.02" fill="white"/>
</clipPath>
</defs>
</svg>
