<svg width="16" height="26" viewBox="0 0 16 26" fill="none" xmlns="http://www.w3.org/2000/svg">
<g clip-path="url(#clip0_139_75)">
<path d="M7.82953 12.3102C4.48953 12.3102 1.76953 9.5902 1.76953 6.2502C1.76953 2.9102 4.48953 0.200195 7.82953 0.200195C11.1695 0.200195 13.8895 2.9202 13.8895 6.2602C13.8895 9.6002 11.1695 12.3202 7.82953 12.3202V12.3102ZM7.82953 0.880195C4.86953 0.880195 2.45953 3.2902 2.45953 6.2602C2.45953 9.2302 4.86953 11.6302 7.82953 11.6302C10.7895 11.6302 13.1995 9.2202 13.1995 6.2602C13.1995 3.3002 10.7895 0.880195 7.82953 0.880195Z" fill="#343D46" stroke="#343D46" stroke-width="0.6" stroke-miterlimit="10"/>
<path d="M15.4102 24.8801H0.540195C0.350195 24.8801 0.200195 24.7301 0.200195 24.5401V19.4001C0.200195 15.1101 3.6902 11.6201 7.9802 11.6201C12.2702 11.6201 15.7602 15.1101 15.7602 19.4001V24.5401C15.7602 24.7301 15.6102 24.8801 15.4202 24.8801H15.4102ZM0.880195 24.2001H15.0602V19.4101C15.0602 15.5001 11.8802 12.3201 7.9702 12.3201C4.0602 12.3201 0.880195 15.4901 0.880195 19.4101V24.2001Z" fill="#343D46" stroke="#343D46" stroke-width="0.6" stroke-miterlimit="10"/>
</g>
<defs>
<clipPath id="clip0_139_75">
<rect width="15.95" height="25.08" fill="white"/>
</clipPath>
</defs>
</svg>
