<svg width="29" height="29" viewBox="0 0 29 29" fill="none" xmlns="http://www.w3.org/2000/svg">
<g clip-path="url(#clip0_126_37)">
<path d="M16.5373 3.38664C17.1625 3.38664 17.1729 2.41754 16.5373 2.41754H11.0978C10.4726 2.41754 10.4622 3.38664 11.0978 3.38664H16.5373Z" fill="#343D46"/>
<path d="M9.26412 19.3507L7.12794 18.5066C7.06541 18.4858 7.03415 18.4024 7.06541 18.3191L8.86814 13.7758C9.18076 13.0359 8.81604 12.0981 8.05535 11.8167L8.01367 11.7959C7.28424 11.5041 6.44019 11.8584 6.10674 12.5983L4.07476 17.1937V15.7973C4.02265 15.3076 3.84551 14.8595 3.59542 14.4635C3.35575 14.0884 3.02229 13.7654 2.63674 13.5257C2.0532 13.1297 1.17788 13.5882 1.12578 14.2551L0.35467 18.2774C0.35467 18.2774 0.35467 18.3295 0.35467 18.3608L0.312988 22.0913L0.448454 24.1232L0.0107965 26.1135C-0.0413056 26.3428 0.0837393 26.5825 0.302568 26.6658L6.07547 28.9583C6.2943 29.0417 6.54439 28.9583 6.66944 28.7603L7.73232 26.9889L9.62883 24.6547C10.0873 24.1128 10.2541 22.0079 10.4208 21.341C10.525 20.4761 10.0561 19.6529 9.26412 19.3403V19.3507ZM9.04529 23.6126C9.01403 23.7898 8.94109 23.9669 8.85772 24.092L6.97163 26.4157C6.97163 26.4157 6.94037 26.447 6.92995 26.4678L6.05463 27.9163L1.04242 25.926C1.04242 25.926 1.44881 24.1128 1.40713 24.1441L1.27167 22.0808L1.31335 18.4233L2.08446 14.401C2.08446 14.401 2.11572 14.3489 2.12614 14.3489C2.65758 14.6719 3.00145 15.2242 3.10566 15.839V18.8505C3.10566 19.1423 3.31407 19.3924 3.59542 19.4549C3.87677 19.5174 4.16854 19.3715 4.28316 19.1006L6.99247 12.9942C7.11751 12.7233 7.40929 12.5879 7.65938 12.6921L7.70106 12.7129C7.97199 12.8171 8.08661 13.1506 7.97199 13.4111L6.16926 17.9544C5.94001 18.5275 6.21094 19.1735 6.77364 19.3924L8.90983 20.2364C9.28496 20.3823 9.51421 20.7887 9.47253 21.1951L9.04529 23.5918V23.6126Z" fill="#343D46"/>
<path d="M22.0292 5.80417C21.8729 5.80417 21.7061 5.80417 21.5498 5.82501V2.6051C21.5498 1.16709 20.4453 0 19.0802 0H8.55557C7.1905 0 6.08594 1.16709 6.08594 2.6051V10.41C6.08594 10.6809 6.30477 10.8893 6.56528 10.8893C6.82579 10.8893 7.04462 10.6705 7.04462 10.41V2.6051C7.04462 1.70895 7.72194 0.969098 8.54515 0.969098H19.0698C19.9034 0.969098 20.5703 1.69853 20.5703 2.6051V5.98131C14.1618 7.54438 14.1618 16.631 20.5703 18.194V20.299H11.8484C11.5775 20.299 11.3691 20.5178 11.3691 20.7783C11.3691 21.0388 11.5879 21.2576 11.8484 21.2576H20.5703C20.6849 22.2267 20.0284 23.2063 19.0698 23.1958H11.4733C10.8376 23.1958 10.8376 24.1545 11.4733 24.1649H19.0698C20.4348 24.1649 21.5394 22.9978 21.5394 21.5598C21.5394 21.0284 21.5394 18.9026 21.5394 18.3399C25.1553 18.6421 28.3231 15.714 28.3022 12.0773C28.3022 8.61768 25.4887 5.79375 22.0187 5.79375L22.0292 5.80417ZM22.0292 17.4021C19.1219 17.4229 16.6835 15.0054 16.7148 12.0877C16.9857 5.03306 27.0622 5.04348 27.3436 12.0877C27.3436 15.0158 24.9573 17.4021 22.0292 17.4021Z" fill="#343D46"/>
<path d="M20.5798 10.6288C20.5798 10.3579 20.361 10.1495 20.1005 10.1495H18.9959C18.725 10.1495 18.5166 10.3683 18.5166 10.6288C18.5166 10.8893 18.7354 11.1082 18.9959 11.1082H20.1005C20.3714 11.1082 20.5798 10.8893 20.5798 10.6288Z" fill="#343D46"/>
<path d="M25.0712 10.1495H23.9666C23.6957 10.1495 23.4873 10.3683 23.4873 10.6288C23.4873 10.8893 23.7061 11.1081 23.9666 11.1081H25.0712C25.7069 11.1081 25.7069 10.139 25.0712 10.139V10.1495Z" fill="#343D46"/>
<path d="M24.4467 12.567H19.6117C19.3407 12.567 19.1323 12.7858 19.1323 13.0464C19.0073 14.2343 19.6117 15.318 20.9038 15.7557C22.6127 16.4434 24.999 15.2763 24.9365 13.5361V13.0568C24.9365 12.7858 24.7177 12.5774 24.4571 12.5774L24.4467 12.567ZM22.0292 14.9846C21.1539 15.0262 20.0597 14.3697 20.091 13.5361H23.957C23.957 14.3385 23.0921 14.9846 22.0188 14.9846H22.0292Z" fill="#343D46"/>
<path d="M8.98259 9.67014C8.34695 9.67014 8.34695 10.6392 8.98259 10.6392H13.8177C14.0886 10.6392 14.297 10.4204 14.297 10.1599V7.26303C14.297 6.9921 14.0782 6.78369 13.8177 6.78369H8.98259C8.34695 6.78369 8.34695 7.74237 8.98259 7.75279H13.3279V9.69099H8.98259V9.67014Z" fill="#343D46"/>
</g>
<defs>
<clipPath id="clip0_126_37">
<rect width="28.3123" height="29" fill="white"/>
</clipPath>
</defs>
</svg>
