<svg width="25" height="21" viewBox="0 0 25 21" fill="none" xmlns="http://www.w3.org/2000/svg">
<g clip-path="url(#clip0_128_489)">
<path d="M6.37 6.39021V0.920215C6.37 0.680215 6.16 0.470215 5.92 0.470215H0.45C0.21 0.470215 0 0.680215 0 0.920215V6.39021C0 6.63021 0.21 6.84022 0.45 6.84022H5.92C6.16 6.84022 6.37 6.63021 6.37 6.39021ZM5.48 5.94022H0.89V1.34021H5.5V5.95021H5.47L5.48 5.94022Z" fill="#343D46"/>
<path d="M24.9501 6.18L21.6801 0.24C21.6001 0.11 21.4401 0 21.2901 0C21.1401 0 20.9701 0.08 20.9001 0.24L17.6601 6.19C17.5801 6.32 17.5801 6.51 17.6601 6.64C17.7401 6.77 17.9001 6.85 18.0301 6.85H24.5301C24.6901 6.85 24.8201 6.77 24.9001 6.64C25.0301 6.48 25.0301 6.32 24.9501 6.19V6.18ZM18.7901 5.94L21.2901 1.36L23.8201 5.94H18.7901Z" fill="#343D46"/>
<path d="M12.2601 13.0298C10.2601 13.0298 8.6001 14.6598 8.6001 16.6898C8.6001 18.7198 10.2301 20.3498 12.2601 20.3498C14.2901 20.3498 15.9201 18.7198 15.9201 16.6898C15.9201 14.6598 14.2601 13.0298 12.2601 13.0298ZM12.2601 19.4198C10.7301 19.4198 9.5001 18.1798 9.5001 16.6598C9.5001 15.1398 10.7401 13.8998 12.2601 13.8998C13.7801 13.8998 15.0201 15.1598 15.0201 16.6598C15.0201 18.1598 13.7801 19.4198 12.2601 19.4198Z" fill="#343D46"/>
<path d="M15.32 0.949923C15.19 0.739923 14.93 0.689923 14.71 0.819923C14.49 0.949923 14.45 1.20992 14.58 1.42992L15.42 2.79992C13.21 2.29992 10.95 2.29992 8.79003 2.74992C8.55003 2.79992 8.40003 3.03992 8.45003 3.27992C8.50003 3.51992 8.74003 3.66992 8.98003 3.61992C11.01 3.19992 13.14 3.22992 15.22 3.66992L13.75 4.42992C13.54 4.53992 13.46 4.79992 13.57 5.03992C13.65 5.19992 13.81 5.27992 13.96 5.27992C14.04 5.27992 14.09 5.24992 14.17 5.22992L16.62 3.96992C16.73 3.91992 16.8 3.80992 16.83 3.70992C16.86 3.57992 16.86 3.46992 16.78 3.36992L15.33 0.979923L15.32 0.949923Z" fill="#343D46"/>
<path d="M21.6798 8.53002C21.4398 8.48002 21.2098 8.64002 21.1498 8.87002C20.7298 10.9 19.8298 12.84 18.5698 14.55L18.4598 12.89C18.4298 12.65 18.2198 12.47 17.9898 12.47C17.7498 12.5 17.5698 12.71 17.5698 12.94L17.7498 15.7C17.7498 15.83 17.8298 15.94 17.9098 16.02C17.9898 16.07 18.0898 16.13 18.1998 16.13H18.2498L20.9898 15.76C21.2298 15.73 21.4098 15.5 21.3598 15.26C21.3298 15.02 21.0998 14.84 20.8598 14.89L19.2798 15.1C20.6198 13.28 21.5698 11.21 22.0198 9.07002C22.0698 8.81002 21.9198 8.57002 21.6798 8.52002V8.53002Z" fill="#343D46"/>
<path d="M3.70996 9.87012L5.07996 10.7901C5.28996 10.9201 5.54996 10.8701 5.68996 10.6601C5.81996 10.4501 5.76996 10.1901 5.55996 10.0501L3.26996 8.52012C3.15996 8.44012 3.02996 8.44012 2.92996 8.47012C2.79996 8.50012 2.71996 8.58012 2.63996 8.68012L1.29996 11.1001C1.18996 11.3101 1.24996 11.5701 1.47996 11.7101C1.55996 11.7401 1.63996 11.7601 1.71996 11.7601C1.87996 11.7601 2.03996 11.6801 2.10996 11.5201L2.86996 10.1301C3.52996 12.2901 4.60996 14.2901 6.04996 15.9501C6.12996 16.0601 6.25996 16.1101 6.38996 16.1101C6.49996 16.1101 6.59996 16.0801 6.67996 16.0001C6.85996 15.8401 6.88996 15.5501 6.72996 15.3701C5.33996 13.7901 4.30996 11.9201 3.69996 9.87012H3.70996Z" fill="#343D46"/>
</g>
<defs>
<clipPath id="clip0_128_489">
<rect width="25" height="20.34" fill="white"/>
</clipPath>
</defs>
</svg>
