<svg width="24" height="24" viewBox="0 0 24 24" fill="none" xmlns="http://www.w3.org/2000/svg">
<g clip-path="url(#clip0_139_536)">
<path d="M23.94 10.7898L21.8 10.0798C21.71 9.62977 21.59 9.17976 21.44 8.73977L22.94 7.05977L22.79 6.75977C22.54 6.23977 22.24 5.72977 21.92 5.24977L21.73 4.96977L19.53 5.42977C19.23 5.07977 18.9 4.74977 18.55 4.44977L19.01 2.24977L18.73 2.05977C18.25 1.72977 17.74 1.43977 17.22 1.18977L16.92 1.03977L15.24 2.53977C14.8 2.38977 14.36 2.26977 13.9 2.17977L13.21 0.0597656L12.88 0.0397656C12.3 -0.000234375 11.71 -0.000234375 11.13 0.0397656L10.8 0.0597656L10.09 2.19977C9.64 2.28977 9.19 2.40977 8.75 2.55977L7.07 1.05977L6.77 1.20977C6.25 1.45977 5.74 1.75977 5.26 2.07977L4.98 2.26977L5.44 4.45977C5.09 4.75977 4.76 5.08977 4.46 5.43977L2.27 4.97977L2.08 5.25977C1.75 5.73977 1.46 6.24977 1.21 6.76977L1.06 7.06977L2.56 8.74977C2.41 9.17977 2.29 9.62977 2.2 10.0898L0.06 10.7898L0.04 11.1198C0.02 11.4098 0 11.6998 0 11.9898C0 12.2798 0.01 12.5698 0.04 12.8598L0.06 13.1898L2.2 13.8998C2.29 14.3498 2.41 14.7998 2.56 15.2398L1.06 16.9198L1.21 17.2198C1.46 17.7398 1.76 18.2498 2.08 18.7298L2.27 19.0098L4.47 18.5498C4.77 18.8998 5.1 19.2298 5.45 19.5298L4.99 21.7298L5.27 21.9198C5.75 22.2498 6.26 22.5398 6.78 22.7898L7.08 22.9398L8.76 21.4398C9.2 21.5898 9.64 21.7098 10.1 21.7998L10.81 23.9398L11.14 23.9598C11.43 23.9798 11.72 23.9898 12.01 23.9898C12.3 23.9898 12.6 23.9798 12.88 23.9498L13.21 23.9298L13.92 21.7898C14.37 21.6998 14.82 21.5798 15.26 21.4298L16.94 22.9298L17.24 22.7798C17.76 22.5298 18.27 22.2298 18.75 21.9098L19.03 21.7198L18.57 19.5298C18.92 19.2298 19.25 18.8998 19.55 18.5498L21.74 19.0098L21.93 18.7298C22.26 18.2498 22.55 17.7398 22.8 17.2198L22.95 16.9198L21.45 15.2398C21.6 14.8098 21.72 14.3598 21.81 13.8998L23.95 13.1898L23.97 12.8598C23.99 12.5698 24.01 12.2798 24.01 11.9898C24.01 11.6998 24 11.4098 23.97 11.1198L23.95 10.7898H23.94ZM22.99 12.4698L20.92 13.1498L20.87 13.4498C20.77 14.0398 20.62 14.6298 20.41 15.1798L20.3 15.4598L21.75 17.0898C21.61 17.3698 21.45 17.6398 21.28 17.8998L19.16 17.4598L18.97 17.6898C18.59 18.1498 18.16 18.5798 17.7 18.9598L17.47 19.1498L17.91 21.2698C17.65 21.4398 17.38 21.5898 17.1 21.7398L15.47 20.2898L15.19 20.3998C14.63 20.6098 14.05 20.7698 13.46 20.8598L13.16 20.9098L12.48 22.9798C12.17 22.9998 11.85 22.9998 11.54 22.9798L10.86 20.9098L10.56 20.8598C9.97 20.7598 9.39 20.6098 8.83 20.3998L8.55 20.2898L6.92 21.7398C6.65 21.5998 6.38 21.4398 6.11 21.2698L6.55 19.1498L6.32 18.9598C5.86 18.5798 5.43 18.1498 5.05 17.6898L4.86 17.4498L2.74 17.8898C2.57 17.6298 2.42 17.3598 2.27 17.0798L3.72 15.4498L3.61 15.1698C3.4 14.6098 3.24 14.0298 3.15 13.4398L3.1 13.1398L1.03 12.4598C1.03 12.3098 1.02 12.1498 1.02 11.9898C1.02 11.8298 1.02 11.6798 1.03 11.5198L3.1 10.8398L3.15 10.5398C3.25 9.94977 3.4 9.35977 3.61 8.80977L3.72 8.52977L2.27 6.89977C2.41 6.61977 2.57 6.34977 2.74 6.08977L4.86 6.52977L5.05 6.29977C5.43 5.83977 5.86 5.40977 6.32 5.02977L6.55 4.83977L6.11 2.71977C6.37 2.54977 6.64 2.39977 6.92 2.24977L8.55 3.69977L8.83 3.58977C9.39 3.37977 9.97 3.21977 10.56 3.12977L10.86 3.07977L11.54 1.00977C11.85 0.989766 12.17 0.989766 12.48 1.00977L13.16 3.07977L13.46 3.12977C14.05 3.22977 14.63 3.37977 15.19 3.58977L15.47 3.69977L17.1 2.24977C17.37 2.38977 17.64 2.54977 17.91 2.71977L17.47 4.83977L17.7 5.02977C18.16 5.40977 18.59 5.83977 18.97 6.29977L19.16 6.53977L21.28 6.09977C21.45 6.35977 21.6 6.62977 21.75 6.90977L20.3 8.53977L20.41 8.81977C20.62 9.37977 20.78 9.95977 20.87 10.5498L20.92 10.8498L22.99 11.5298C22.99 11.6798 23 11.8398 23 11.9998C23 12.1598 23 12.3098 22.99 12.4698Z" fill="#343D46"/>
<path d="M11.9999 7C7.65988 7 4.23988 11.51 4.09988 11.7L3.87988 12L4.09988 12.3C4.23988 12.49 7.65988 17 11.9999 17C16.3399 17 19.7599 12.49 19.8999 12.3L20.1199 12L19.8999 11.7C19.7599 11.51 16.3399 7 11.9999 7ZM11.9999 16C8.75988 16 5.95988 12.98 5.13988 12C5.95988 11.02 8.75988 8 11.9999 8C15.2399 8 18.0399 11.02 18.8599 12C18.0399 12.98 15.2399 16 11.9999 16Z" fill="#343D46"/>
<path d="M12 9C10.35 9 9 10.35 9 12C9 13.65 10.35 15 12 15C13.65 15 15 13.65 15 12C15 10.35 13.65 9 12 9ZM12 14C10.9 14 10 13.1 10 12C10 10.9 10.9 10 12 10C13.1 10 14 10.9 14 12C14 13.1 13.1 14 12 14Z" fill="#343D46"/>
</g>
<defs>
<clipPath id="clip0_139_536">
<rect width="24" height="24" fill="white"/>
</clipPath>
</defs>
</svg>
