<svg width="29" height="20" viewBox="0 0 29 20" fill="none" xmlns="http://www.w3.org/2000/svg">
<g clip-path="url(#clip0_139_1044)">
<path d="M28.6302 8.04995C28.5202 6.82995 28.4502 5.60995 28.3102 4.39995C28.0102 2.38995 26.2502 0.789951 24.2702 0.529951C18.2702 -0.130049 12.2002 -0.150049 6.19022 0.349951C4.92022 0.469951 3.55022 0.509951 2.47022 1.25995C1.31022 1.97995 0.510215 3.23995 0.370215 4.59995C0.130215 7.23995 -0.169785 9.89995 0.130215 12.56C0.330215 14.02 0.150215 15.6 0.880215 16.93C1.66022 18.39 3.24022 19.33 4.88022 19.43C11.2302 20.07 17.6502 20.07 24.0002 19.41C26.1302 19.25 28.0602 17.54 28.3202 15.41C28.5402 12.96 28.8302 10.51 28.6302 8.05995V8.04995ZM11.4302 14.15V5.75995C13.8502 7.15995 16.2802 8.54995 18.7002 9.94995C16.2702 11.35 13.8502 12.75 11.4302 14.15Z" fill="#343D46"/>
</g>
<defs>
<clipPath id="clip0_139_1044">
<rect width="28.7" height="19.91" fill="white"/>
</clipPath>
</defs>
</svg>
