<svg width="355" height="43" viewBox="0 0 355 43" fill="none" xmlns="http://www.w3.org/2000/svg">
<path fill-rule="evenodd" clip-rule="evenodd" d="M289.64 29.6827C292.419 35.3035 295.387 39.2191 297.282 39.4086L297.85 39.4717V41.3664H278.588V40.6717C278.588 39.9138 278.651 39.4717 278.651 39.4717L279.346 39.4086C281.746 39.2191 281.43 35.3035 278.715 29.6827L270.315 12.4415L264.378 27.9776C261.852 34.6088 262.168 39.1559 265.263 39.4086L266.147 39.4717C266.147 39.4717 266.21 41.1137 266.21 41.3664H252.758V39.4717L253.453 39.4086C255.726 39.2191 258.695 35.3035 260.905 29.6827L272.589 0H275.115L289.64 29.6827ZM0 0.660143V1.35485C0 2.1127 0.0631547 2.55479 0.0631547 2.55479L0.694702 2.61794C2.96827 2.87056 4.35768 6.723 4.35768 12.3438V29.3955C4.35768 35.0163 2.96827 38.8688 0.694702 39.1214L0.0631547 39.1845C0.0631547 39.1845 0 39.6266 0 40.3845V41.0792H18.6307V40.3845C18.6307 39.6266 18.5675 39.1845 18.5675 39.1845L17.9359 39.1214C15.7255 38.8688 14.273 35.0163 14.273 29.3955V24.4063H19.2622C29.809 24.4063 36.5034 19.7329 36.5034 12.4069C36.5034 5.27044 30.2511 0.660143 20.4621 0.660143H0ZM20.4621 3.18633C23.9356 3.18633 26.1461 6.78615 26.1461 12.4069C26.1461 18.154 23.4936 21.8801 19.2622 21.8801H14.273V3.18633H20.4621ZM61.0755 2.55479L61.6439 2.61794C63.9175 2.87056 65.3701 6.723 65.3701 12.3438V29.3955C65.3701 35.0163 63.9175 38.8688 61.6439 39.1214L61.0755 39.1845C61.0755 39.1845 61.0124 39.6266 61.0124 40.3845V41.0792H94.6107L94.8633 39.8161C95.4317 36.8478 96.1896 32.9954 96.8211 30.0271L95.6843 29.6482L94.8002 30.9744C92.0845 35.5847 86.148 38.553 79.8325 38.553H75.2854V12.3438C75.2854 6.723 76.6748 2.87056 78.9483 2.61794L79.5799 2.55479C79.5799 2.55479 79.643 2.1127 79.643 1.35485V0.660143H61.0124V1.35485C61.0124 2.1127 61.0755 2.55479 61.0755 2.55479ZM120.825 12.3438C118.046 6.723 115.078 2.8074 113.183 2.61794L112.615 2.55479V0.660143H131.877V1.35485C131.877 2.1127 131.814 2.55479 131.814 2.55479L131.119 2.61794C128.719 2.8074 129.035 6.723 131.751 12.3438L140.15 29.585L146.087 14.0489C148.613 7.4177 148.297 2.87056 145.203 2.61794L144.318 2.55479C144.318 2.55479 144.255 0.912762 144.255 0.660143H157.707V2.55479L157.013 2.61794C154.739 2.8074 151.771 6.723 149.56 12.3438L137.877 42.0265H135.35L120.825 12.3438ZM182.279 41.0792H200.91V40.3845C200.91 39.6266 200.847 39.1845 200.847 39.1845L200.278 39.1214C198.005 38.8688 196.552 35.0163 196.552 29.3955V24.5958H201.163C201.923 25.5659 202.901 26.5796 204.061 27.7815C205.694 29.4744 207.688 31.5408 209.941 34.3848C215.12 40.8897 215.499 41.0792 226.235 41.0792H229.519V39.4372C224.67 39.4372 218.809 31.8945 214.657 26.5499C213.726 25.3514 212.88 24.2634 212.152 23.3958C218.214 21.5644 221.751 16.5751 221.751 11.6491C221.751 4.95467 214.93 0.660143 204.32 0.660143H182.279V1.35485C182.279 2.1127 182.342 2.55479 182.342 2.55479L182.974 2.61794C185.248 2.87056 186.637 6.723 186.637 12.3438V29.3955C186.637 35.0163 185.248 38.8688 182.974 39.1214L182.342 39.1845C182.342 39.1845 182.279 39.6266 182.279 40.3845V41.0792ZM196.552 22.0696V3.18633H204.32C208.615 3.18633 211.394 6.47038 211.394 11.6491C211.394 17.2067 208.046 22.0696 202.741 22.0696H196.552ZM319.398 2.61794L318.83 2.55479C318.83 2.55479 318.766 2.1127 318.766 1.35485V0.660143H337.397V1.35485C337.397 2.1127 337.334 2.55479 337.334 2.55479L336.702 2.61794C334.429 2.87056 333.039 6.723 333.039 12.3438V38.553H337.587C343.902 38.553 349.839 35.5847 352.554 30.9744L353.438 29.6482L354.575 30.0271C353.944 32.9954 353.186 36.8478 352.617 39.8161L352.365 41.0792H318.766V40.3845C318.766 39.6266 318.83 39.1845 318.83 39.1845L319.398 39.1214C321.672 38.8688 323.124 35.0163 323.124 29.3955V12.3438C323.124 6.723 321.672 2.87056 319.398 2.61794Z" fill="#F7931F"/>
</svg>
