<svg width="119" height="15" viewBox="0 0 119 15" fill="none" xmlns="http://www.w3.org/2000/svg">
<path fill-rule="evenodd" clip-rule="evenodd" d="M97.207 9.96191C98.1396 11.8483 99.1358 13.1624 99.7717 13.226L99.9624 13.2472V13.8831H93.4978V13.6499C93.4978 13.3956 93.519 13.2472 93.519 13.2472L93.7521 13.226C94.5576 13.1624 94.4516 11.8483 93.5402 9.96191L90.7212 4.17552L88.7288 9.38963C87.881 11.6152 87.987 13.1412 89.0255 13.226L89.3223 13.2472C89.3223 13.2472 89.3435 13.7983 89.3435 13.8831H84.8288V13.2472L85.062 13.226C85.825 13.1624 86.8212 11.8483 87.563 9.96191L91.4842 0H92.332L97.207 9.96191ZM0 1.0711V1.30425C0 1.5586 0.0211955 1.70697 0.0211955 1.70697L0.233151 1.72817C0.996191 1.81295 1.46249 3.10588 1.46249 4.99228V10.7151C1.46249 12.6015 0.996191 13.8944 0.233151 13.9792L0.0211955 14.0004C0.0211955 14.0004 0 14.1488 0 14.4031V14.6362H6.25269V14.4031C6.25269 14.1488 6.23149 14.0004 6.23149 14.0004L6.01953 13.9792C5.27769 13.8944 4.79019 12.6015 4.79019 10.7151V9.04063H6.46464C10.0043 9.04063 12.251 7.47216 12.251 5.01347C12.251 2.61838 10.1527 1.0711 6.86736 1.0711H0ZM6.86736 1.91893C8.03311 1.91893 8.77495 3.12707 8.77495 5.01347C8.77495 6.94227 7.88474 8.19281 6.46464 8.19281H4.79019V1.91893H6.86736ZM20.4977 1.70697L20.6885 1.72817C21.4515 1.81295 21.939 3.10588 21.939 4.99228V10.7151C21.939 12.6015 21.4515 13.8944 20.6885 13.9792L20.4977 14.0004C20.4977 14.0004 20.4765 14.1488 20.4765 14.4031V14.6362H31.7526L31.8374 14.2123C32.0281 13.2161 32.2825 11.9232 32.4944 10.927L32.1129 10.7999L31.8162 11.245C30.9047 12.7922 28.9124 13.7884 26.7928 13.7884H25.2667V4.99228C25.2667 3.10588 25.733 1.81295 26.4961 1.72817L26.708 1.70697C26.708 1.70697 26.7292 1.5586 26.7292 1.30425V1.0711H20.4765V1.30425C20.4765 1.5586 20.4977 1.70697 20.4977 1.70697ZM40.5504 4.99228C39.6178 3.10588 38.6216 1.79175 37.9857 1.72817L37.7949 1.70697V1.0711H44.2596V1.30425C44.2596 1.5586 44.2384 1.70697 44.2384 1.70697L44.0052 1.72817C43.1998 1.79175 43.3058 3.10588 44.2172 4.99228L47.0362 10.7787L49.0286 5.56456C49.8764 3.33903 49.7704 1.81295 48.7318 1.72817L48.4351 1.70697C48.4351 1.70697 48.4139 1.15589 48.4139 1.0711H52.9286V1.70697L52.6954 1.72817C51.9324 1.79175 50.9362 3.10588 50.1943 4.99228L46.2732 14.9542H45.4253L40.5504 4.99228ZM61.1753 14.6362H67.428V14.4031C67.428 14.1488 67.4068 14.0004 67.4068 14.0004L67.216 13.9792C66.453 13.8944 65.9655 12.6015 65.9655 10.7151V9.10421H67.5127C67.7679 9.42981 68.0962 9.77001 68.4854 10.1734C69.0336 10.7416 69.7028 11.4351 70.4589 12.3895C72.197 14.5727 72.3241 14.6362 75.9274 14.6362H77.0295V14.0852C75.4021 14.0852 73.4352 11.5538 72.0416 9.76003L72.0415 9.75987L72.0408 9.75903C71.7286 9.3572 71.4452 8.99243 71.2008 8.7015C73.2355 8.08683 74.4225 6.41238 74.4225 4.75913C74.4225 2.5124 72.1334 1.0711 68.5725 1.0711H61.1753V1.30425C61.1753 1.5586 61.1965 1.70697 61.1965 1.70697L61.4084 1.72817C62.1715 1.81295 62.6378 3.10588 62.6378 4.99228V10.7151C62.6378 12.6015 62.1715 13.8944 61.4084 13.9792L61.1965 14.0004C61.1965 14.0004 61.1753 14.1488 61.1753 14.4031V14.6362ZM65.9655 8.25639V1.91893H68.5725C70.0138 1.91893 70.9464 3.02109 70.9464 4.75913C70.9464 6.62434 69.8231 8.25639 68.0426 8.25639H65.9655ZM107.194 1.72817L107.003 1.70697C107.003 1.70697 106.982 1.5586 106.982 1.30425V1.0711H113.235V1.30425C113.235 1.5586 113.214 1.70697 113.214 1.70697L113.002 1.72817C112.239 1.81295 111.772 3.10588 111.772 4.99228V13.7884H113.298C115.418 13.7884 117.41 12.7922 118.322 11.245L118.618 10.7999L119 10.927C118.788 11.9232 118.534 13.2161 118.343 14.2123L118.258 14.6362H106.982V14.4031C106.982 14.1488 107.003 14.0004 107.003 14.0004L107.194 13.9792C107.957 13.8944 108.445 12.6015 108.445 10.7151V4.99228C108.445 3.10588 107.957 1.81295 107.194 1.72817Z" fill="#ffffff"/>
</svg>
